<svg width="138" height="87" viewBox="0 0 138 87" fill="none" xmlns="http://www.w3.org/2000/svg">
<path fill-rule="evenodd" clip-rule="evenodd" d="M137.571 28.9714H0.428467V0.171417H137.571V28.9714ZM137.571 86.1143H0.428467V57.3143H137.571V86.1143Z" fill="#71A2CB"/>
<path fill-rule="evenodd" clip-rule="evenodd" d="M0.428467 57.3147H137.571V28.9719H0.428467V57.3147Z" fill="#FFFFFE"/>
<path fill-rule="evenodd" clip-rule="evenodd" d="M65.5495 45.1461C64.0336 45.7097 63.5924 46.9687 62.2096 47.4007C60.8263 47.8332 60.376 48.8777 59.9275 49.2626C59.4795 49.6471 59.0228 49.4222 59.0119 49.605C59.0014 49.7879 59.5495 49.952 60.2416 49.5378C60.9337 49.1237 60.9209 48.4732 62.6041 47.9305C64.2868 47.387 64.3358 46.4325 65.9019 46.0114M68.5854 42.8425L60.6334 51.4162C60.6334 51.4162 60.4779 51.5712 60.5817 51.675C60.685 51.7788 60.8404 51.6233 60.8404 51.6233L69.4142 43.6718" fill="#ECAE2B"/>
<path d="M65.5495 45.1461C64.0336 45.7097 63.5924 46.9687 62.2096 47.4007C60.8263 47.8331 60.376 48.8777 59.9275 49.2626C59.4795 49.6471 59.0228 49.4222 59.0119 49.605C59.0014 49.7879 59.5495 49.952 60.2416 49.5378C60.9337 49.1237 60.9209 48.4731 62.6041 47.9305C64.2868 47.387 64.3358 46.4325 65.9019 46.0114" stroke="#723221" stroke-width="0.417"/>
<path d="M68.5853 42.8425L60.6333 51.4162C60.6333 51.4162 60.4778 51.5712 60.5816 51.675C60.6849 51.7788 60.8403 51.6233 60.8403 51.6233L69.4141 43.6718" stroke="#723221" stroke-width="0.417"/>
<path fill-rule="evenodd" clip-rule="evenodd" d="M66.535 46.3227C65.3501 47.4235 65.4241 48.7552 64.3119 49.6837C63.1997 50.613 63.1832 51.7504 62.9162 52.277C62.6493 52.8041 62.1414 52.7707 62.2017 52.944C62.2616 53.1173 62.8307 53.0587 63.3117 52.4114C63.7926 51.7641 63.532 51.168 64.8792 50.0224C66.2264 48.8763 65.9059 47.9758 67.1919 46.9874M68.4582 43.0331L64.3923 53.9968C64.3923 53.9968 64.3082 54.1998 64.4435 54.256C64.5789 54.3122 64.663 54.1088 64.663 54.1088L69.5411 43.4816" fill="#ECAE2B"/>
<path d="M66.535 46.3228C65.3501 47.4236 65.4241 48.7552 64.3119 49.6837C63.1997 50.613 63.1832 51.7504 62.9162 52.277C62.6493 52.8041 62.1414 52.7708 62.2017 52.944C62.2616 53.1173 62.8307 53.0588 63.3117 52.4114C63.7926 51.7641 63.532 51.168 64.8792 50.0224C66.2264 48.8764 65.9059 47.9758 67.1919 46.9874" stroke="#723221" stroke-width="0.417"/>
<path d="M68.4581 43.0331L64.3923 53.9968C64.3923 53.9968 64.3082 54.1998 64.4435 54.256C64.5788 54.3122 64.6629 54.1088 64.6629 54.1088L69.5411 43.4816" stroke="#723221" stroke-width="0.417"/>
<path fill-rule="evenodd" clip-rule="evenodd" d="M69.4246 47.168C69.3652 48.784 70.3595 49.6731 70.2292 51.1163C70.0998 52.56 70.8925 53.376 71.0763 53.9369C71.2601 54.4983 70.8774 54.8338 71.042 54.9138C71.2075 54.9938 71.5686 54.5504 71.4507 53.7522C71.3332 52.9545 70.7275 52.7177 70.8697 50.9545C71.0118 49.1918 70.1488 48.7813 70.359 47.173M68.4583 43.4816L73.336 54.1093C73.336 54.1093 73.4201 54.3122 73.5554 54.256C73.6907 54.2002 73.6066 53.9973 73.6066 53.9973L69.5412 43.0331" fill="#ECAE2B"/>
<path d="M69.4247 47.168C69.3653 48.784 70.3595 49.6731 70.2293 51.1163C70.0999 52.56 70.8926 53.376 71.0763 53.9369C71.2601 54.4983 70.8775 54.8338 71.0421 54.9138C71.2075 54.9938 71.5687 54.5504 71.4507 53.7522C71.3333 52.9545 70.7275 52.7177 70.8697 50.9545C71.0119 49.1918 70.1488 48.7813 70.3591 47.173" stroke="#723221" stroke-width="0.417"/>
<path d="M68.4583 43.4816L73.336 54.1093C73.336 54.1093 73.4201 54.3122 73.5554 54.256C73.6907 54.2002 73.6066 53.9973 73.6066 53.9973L69.5412 43.0331" stroke="#723221" stroke-width="0.417"/>
<path fill-rule="evenodd" clip-rule="evenodd" d="M67.8955 47.0331C67.2226 48.5033 67.8004 49.7051 67.1284 50.9888C66.4559 52.2725 66.8761 53.3298 66.8313 53.9186C66.7865 54.5074 66.3042 54.6711 66.4262 54.8082C66.5478 54.9449 67.0511 54.6738 67.2477 53.8912C67.4447 53.109 66.9753 52.6583 67.7817 51.0843C68.5876 49.5099 67.9471 48.8005 68.7567 47.3952M68.4134 43.2571L68.8532 54.9422C68.8532 54.9422 68.8527 55.1621 68.9995 55.1621C69.1462 55.1625 69.1458 54.9426 69.1458 54.9426L69.5855 43.2571" fill="#ECAE2B"/>
<path d="M67.8955 47.0331C67.2226 48.5033 67.8004 49.7051 67.1284 50.9888C66.4559 52.2725 66.8761 53.3298 66.8313 53.9186C66.7865 54.5074 66.3042 54.6711 66.4262 54.8082C66.5478 54.9449 67.0511 54.6738 67.2477 53.8912C67.4447 53.109 66.9753 52.6583 67.7817 51.0843C68.5876 49.5099 67.9471 48.8005 68.7567 47.3952" stroke="#723221" stroke-width="0.417"/>
<path d="M68.4133 43.2571L68.8531 54.9422C68.8531 54.9422 68.8526 55.1621 68.9994 55.1621C69.1461 55.1625 69.1457 54.9426 69.1457 54.9426L69.5854 43.2571" stroke="#723221" stroke-width="0.417"/>
<path fill-rule="evenodd" clip-rule="evenodd" d="M65.2239 42.1532C63.7537 41.4798 62.5519 42.0581 61.2682 41.3856C59.9846 40.7132 58.9272 41.1333 58.3384 41.0885C57.7496 41.0437 57.5859 40.5614 57.4488 40.683C57.3117 40.805 57.5832 41.3088 58.3658 41.5054C59.148 41.702 59.5987 41.2329 61.1727 42.0389C62.7471 42.8448 63.4566 42.2048 64.8618 43.014M68.9994 42.6706L57.3149 43.1104C57.3149 43.1104 57.095 43.1104 57.095 43.2567C57.0945 43.4034 57.3144 43.4034 57.3144 43.4034L68.9994 43.8432" fill="#ECAE2B"/>
<path d="M65.2239 42.1532C63.7538 41.4798 62.5519 42.0581 61.2683 41.3856C59.9846 40.7132 58.9272 41.1333 58.3384 41.0885C57.7496 41.0437 57.586 40.5614 57.4488 40.683C57.3117 40.805 57.5832 41.3088 58.3659 41.5054C59.148 41.702 59.5988 41.2329 61.1727 42.0389C62.7471 42.8448 63.4566 42.2048 64.8619 43.014" stroke="#723221" stroke-width="0.417"/>
<path d="M68.9994 42.6706L57.3149 43.1104C57.3149 43.1104 57.095 43.1104 57.095 43.2567C57.0945 43.4034 57.3144 43.4034 57.3144 43.4034L68.9994 43.8432" stroke="#723221" stroke-width="0.417"/>
<path fill-rule="evenodd" clip-rule="evenodd" d="M65.9343 40.7922C64.833 39.6073 63.5018 39.6818 62.5734 38.5691C61.644 37.4569 60.5066 37.4405 59.98 37.1735C59.4529 36.9065 59.4863 36.3986 59.313 36.459C59.1398 36.5189 59.1978 37.088 59.8456 37.5689C60.4929 38.0498 61.089 37.7893 62.2346 39.1365C63.3807 40.4837 64.2813 40.1632 65.2696 41.4491M69.2239 42.7154L58.2602 38.6501C58.2602 38.6501 58.0573 38.5655 58.001 38.7013C57.9448 38.8361 58.1482 38.9207 58.1482 38.9207L68.7754 43.7984" fill="#ECAE2B"/>
<path d="M65.9343 40.7922C64.8331 39.6073 63.5019 39.6818 62.5734 38.5691C61.644 37.4569 60.5067 37.4405 59.98 37.1735C59.4529 36.9065 59.4863 36.3986 59.3131 36.459C59.1398 36.5189 59.1979 37.088 59.8456 37.5689C60.4929 38.0498 61.0891 37.7893 62.2347 39.1365C63.3807 40.4837 64.2813 40.1632 65.2696 41.4491" stroke="#723221" stroke-width="0.417"/>
<path d="M69.2239 42.7154L58.2602 38.65C58.2602 38.65 58.0573 38.5655 58.001 38.7012C57.9448 38.8361 58.1482 38.9207 58.1482 38.9207L68.7754 43.7984" stroke="#723221" stroke-width="0.417"/>
<path fill-rule="evenodd" clip-rule="evenodd" d="M67.111 39.8066C66.5474 38.2907 65.2884 37.85 64.8564 36.4667C64.4239 35.0834 63.3794 34.6331 62.9944 34.1847C62.61 33.7367 62.8349 33.28 62.652 33.2695C62.4687 33.2585 62.3051 33.8066 62.7192 34.4987C63.1334 35.1913 63.7835 35.1781 64.3266 36.8612C64.8701 38.5444 65.8246 38.5934 66.2456 40.1591M69.4146 42.8425L60.8408 34.891C60.8408 34.891 60.6859 34.7351 60.5821 34.8389C60.4783 34.9422 60.6338 35.0981 60.6338 35.0981L68.5853 43.6713" fill="#ECAE2B"/>
<path d="M67.1111 39.8066C66.5474 38.2907 65.2884 37.85 64.8564 36.4667C64.424 35.0834 63.3794 34.6331 62.9945 34.1847C62.61 33.7367 62.8349 33.28 62.6521 33.2695C62.4688 33.2585 62.3051 33.8066 62.7193 34.4987C63.1335 35.1913 63.7835 35.1781 64.3266 36.8612C64.8701 38.5444 65.8247 38.5934 66.2457 40.1591" stroke="#723221" stroke-width="0.417"/>
<path d="M69.4146 42.8425L60.8408 34.891C60.8408 34.891 60.6859 34.7351 60.5821 34.8389C60.4783 34.9422 60.6338 35.0981 60.6338 35.0981L68.5853 43.6713" stroke="#723221" stroke-width="0.417"/>
<path fill-rule="evenodd" clip-rule="evenodd" d="M68.7776 43.056L63.313 48.9358L69.1923 43.4702M65.4163 45.541C64.0124 46.2071 63.7139 47.2832 62.3411 47.6645C63.5196 47.5872 63.9708 46.4101 65.5168 45.8258" fill="#723221"/>
<path fill-rule="evenodd" clip-rule="evenodd" d="M68.7005 43.2718L68.9936 51.2937L69.2866 43.2718M68.0811 47.4057C67.5591 48.8695 68.109 49.8414 67.4082 51.0821C68.1867 50.1938 67.6733 49.0428 68.3536 47.5365" fill="#723221"/>
<path fill-rule="evenodd" clip-rule="evenodd" d="M68.7177 43.1561L65.9187 50.6793L69.2595 43.3801M66.5632 46.7388C65.5205 47.8912 65.6572 48.9993 64.5344 49.877C65.5936 49.3545 65.5598 48.0946 66.7648 46.9632" fill="#723221"/>
<path fill-rule="evenodd" clip-rule="evenodd" d="M65.0891 43.6818C63.4731 43.6224 62.5839 44.6167 61.1407 44.4869C59.6971 44.357 58.8811 45.1497 58.3201 45.3335C57.7588 45.5177 57.4228 45.1346 57.3432 45.2997C57.2632 45.4647 57.7067 45.8258 58.5048 45.7079C59.3025 45.5904 59.5393 44.9847 61.3025 45.1269C63.0653 45.269 63.4758 44.4059 65.084 44.6162M68.7755 42.7154L58.1478 47.5931C58.1478 47.5931 57.9448 47.6773 58.0011 47.8126C58.0568 47.9483 58.2598 47.8638 58.2598 47.8638L69.2239 43.7984" fill="#ECAE2B"/>
<path d="M65.0891 43.6818C63.4731 43.6224 62.5839 44.6167 61.1407 44.4869C59.6971 44.357 58.8811 45.1497 58.3201 45.3335C57.7588 45.5177 57.4228 45.1346 57.3432 45.2997C57.2632 45.4647 57.7067 45.8258 58.5048 45.7079C59.3025 45.5904 59.5393 44.9847 61.3025 45.1269C63.0653 45.269 63.4758 44.4059 65.084 44.6162" stroke="#723221" stroke-width="0.417"/>
<path d="M68.7755 42.7154L58.1478 47.5931C58.1478 47.5931 57.9448 47.6773 58.0011 47.8126C58.0568 47.9483 58.2598 47.8638 58.2598 47.8638L69.2239 43.7984" stroke="#723221" stroke-width="0.417"/>
<path fill-rule="evenodd" clip-rule="evenodd" d="M68.8718 42.9865L61.5726 46.3269L69.0962 43.5278M64.8151 43.9959C63.2631 44.0736 62.5755 44.9541 61.1611 44.7808C62.2798 45.1602 63.147 44.2455 64.7991 44.2976" fill="#723221"/>
<path fill-rule="evenodd" clip-rule="evenodd" d="M68.9853 42.9582L60.9634 43.2512L68.9853 43.5442M64.8509 42.3383C63.3871 41.8162 62.4157 42.3662 61.175 41.6654C62.0633 42.4439 63.2143 41.9305 64.7206 42.6107" fill="#723221"/>
<path fill-rule="evenodd" clip-rule="evenodd" d="M69.1008 42.9751L61.5776 40.176L68.8768 43.5168M65.5182 40.8206C64.3658 39.7783 63.2576 39.9145 62.3799 38.7922C62.9024 39.8514 64.1623 39.8176 65.2938 41.0226" fill="#723221"/>
<path fill-rule="evenodd" clip-rule="evenodd" d="M69.2011 43.035L63.3213 37.5703L68.7869 43.4496M66.7156 39.674C66.05 38.2697 64.9739 37.9716 64.5926 36.5984C64.6699 37.7769 65.847 38.2281 66.4312 39.7742" fill="#723221"/>
<path fill-rule="evenodd" clip-rule="evenodd" d="M68.5752 39.3463C68.6346 37.7303 67.6403 36.8411 67.7701 35.3979C67.9 33.9547 67.1073 33.1387 66.9235 32.5774C66.7393 32.016 67.1224 31.6805 66.9573 31.6005C66.7923 31.5205 66.4312 31.9643 66.5486 32.7621C66.6666 33.5602 67.2723 33.797 67.1297 35.5598C66.988 37.3225 67.851 37.733 67.6408 39.3413M69.5416 43.0327L64.6634 32.4055C64.6634 32.4055 64.5797 32.2025 64.4444 32.2583C64.3086 32.3141 64.3932 32.5175 64.3932 32.5175L68.4586 43.4811" fill="#ECAE2B"/>
<path d="M68.5752 39.3463C68.6347 37.7303 67.6404 36.8411 67.7702 35.3979C67.9 33.9547 67.1073 33.1387 66.9236 32.5774C66.7393 32.016 67.1224 31.6805 66.9574 31.6005C66.7924 31.5205 66.4312 31.9643 66.5487 32.7621C66.6667 33.5602 67.2724 33.797 67.1297 35.5598C66.988 37.3225 67.8511 37.733 67.6408 39.3413" stroke="#723221" stroke-width="0.417"/>
<path d="M69.5416 43.0327L64.6634 32.4055C64.6634 32.4055 64.5797 32.2025 64.4444 32.2583C64.3086 32.3141 64.3932 32.5175 64.3932 32.5175L68.4586 43.4812" stroke="#723221" stroke-width="0.417"/>
<path fill-rule="evenodd" clip-rule="evenodd" d="M70.1039 39.4816C70.7772 38.011 70.199 36.8096 70.8714 35.5259C71.5439 34.2418 71.1238 33.1845 71.1686 32.5957C71.2134 32.0069 71.6956 31.8432 71.5736 31.7061C71.452 31.5694 70.9482 31.8409 70.7516 32.6231C70.5551 33.4053 71.0241 33.856 70.2182 35.4304C69.4118 37.0043 70.0522 37.7138 69.2431 39.1191M69.5859 43.2571L69.1466 31.5721C69.1466 31.5721 69.1466 31.3522 69.0003 31.3522C68.8536 31.3522 68.8536 31.5717 68.8536 31.5717L68.4138 43.2571" fill="#ECAE2B"/>
<path d="M70.104 39.4816C70.7773 38.011 70.199 36.8096 70.8715 35.526C71.544 34.2418 71.1238 33.1845 71.1686 32.5957C71.2134 32.0069 71.6957 31.8432 71.5737 31.7061C71.4521 31.5694 70.9483 31.8409 70.7517 32.6231C70.5552 33.4053 71.0242 33.856 70.2182 35.4304C69.4118 37.0044 70.0523 37.7138 69.2432 39.1191" stroke="#723221" stroke-width="0.417"/>
<path d="M69.5859 43.2571L69.1466 31.5721C69.1466 31.5721 69.1466 31.3522 69.0003 31.3522C68.8536 31.3522 68.8536 31.5717 68.8536 31.5717L68.4138 43.2571" stroke="#723221" stroke-width="0.417"/>
<path fill-rule="evenodd" clip-rule="evenodd" d="M71.4649 40.1916C72.6498 39.0908 72.5753 37.7591 73.688 36.8306C74.8002 35.9017 74.8167 34.7639 75.0837 34.2373C75.3502 33.7102 75.8585 33.7436 75.7982 33.5708C75.7378 33.397 75.1691 33.4556 74.6882 34.1029C74.2069 34.7506 74.4679 35.3463 73.1207 36.4919C71.7735 37.638 72.0939 38.539 70.808 39.5273M69.5417 43.4816L73.6071 32.518C73.6071 32.518 73.6917 32.3145 73.5559 32.2583C73.4206 32.2025 73.3365 32.4055 73.3365 32.4055L68.4587 43.0327" fill="#ECAE2B"/>
<path d="M71.4648 40.1916C72.6497 39.0908 72.5752 37.7591 73.6879 36.8306C74.8001 35.9017 74.8165 34.7639 75.0835 34.2373C75.35 33.7102 75.8584 33.7436 75.798 33.5708C75.7377 33.397 75.169 33.4556 74.6881 34.1029C74.2067 34.7506 74.4677 35.3463 73.1205 36.4919C71.7733 37.638 72.0938 38.539 70.8079 39.5273" stroke="#723221" stroke-width="0.417"/>
<path d="M69.5417 43.4816L73.6071 32.518C73.6071 32.518 73.6917 32.3145 73.5559 32.2583C73.4206 32.2025 73.3365 32.4055 73.3365 32.4055L68.4587 43.0327" stroke="#723221" stroke-width="0.417"/>
<path fill-rule="evenodd" clip-rule="evenodd" d="M72.4504 41.3682C73.9663 40.8046 74.407 39.5461 75.7903 39.1136C77.1736 38.6812 77.6239 37.6366 78.0719 37.2521C78.5203 36.8672 78.977 37.0926 78.9875 36.9093C78.998 36.7264 78.4504 36.5623 77.7583 36.9765C77.0657 37.3906 77.079 38.0412 75.3958 38.5842C73.7126 39.1273 73.6636 40.0818 72.0975 40.5029M69.4145 43.6718L77.366 35.0985C77.366 35.0985 77.5219 34.9431 77.4181 34.8393C77.3148 34.7356 77.1589 34.891 77.1589 34.891L68.5857 42.843" fill="#ECAE2B"/>
<path d="M72.4503 41.3682C73.9662 40.8046 74.4069 39.5461 75.7902 39.1136C77.1735 38.6811 77.6238 37.6366 78.0718 37.2521C78.5203 36.8672 78.977 37.0926 78.9875 36.9093C78.998 36.7264 78.4503 36.5623 77.7582 36.9765C77.0656 37.3906 77.0789 38.0411 75.3957 38.5842C73.7125 39.1273 73.6636 40.0818 72.0974 40.5029" stroke="#723221" stroke-width="0.417"/>
<path d="M69.4145 43.6718L77.366 35.0985C77.366 35.0985 77.5219 34.9431 77.4181 34.8393C77.3148 34.7356 77.1589 34.891 77.1589 34.891L68.5857 42.843" stroke="#723221" stroke-width="0.417"/>
<path fill-rule="evenodd" clip-rule="evenodd" d="M70.8887 46.7077C71.4524 48.2236 72.7109 48.6647 73.1434 50.0476C73.5758 51.4309 74.6204 51.8812 75.0049 52.3296C75.3898 52.7776 75.1644 53.2343 75.3473 53.2453C75.5306 53.2558 75.6947 52.7077 75.2805 52.0156C74.8663 51.3234 74.2158 51.3362 73.6727 49.653C73.1297 47.9703 72.1751 47.9214 71.7541 46.3552M68.5852 43.6722L77.1585 51.6233C77.1585 51.6233 77.3139 51.7792 77.4177 51.6754C77.5214 51.5721 77.366 51.4167 77.366 51.4167L69.414 42.843" fill="#ECAE2B"/>
<path d="M70.8889 46.7077C71.4526 48.2235 72.7111 48.6647 73.1435 50.0475C73.576 51.4309 74.6206 51.8811 75.005 52.3296C75.3899 52.7776 75.1646 53.2343 75.3474 53.2453C75.5307 53.2558 75.6949 52.7077 75.2807 52.0155C74.8665 51.3234 74.216 51.3362 73.6729 49.653C73.1298 47.9703 72.1753 47.9214 71.7543 46.3552" stroke="#723221" stroke-width="0.417"/>
<path d="M68.5852 43.6722L77.1585 51.6233C77.1585 51.6233 77.3139 51.7792 77.4177 51.6754C77.5214 51.5721 77.366 51.4167 77.366 51.4167L69.414 42.843" stroke="#723221" stroke-width="0.417"/>
<path fill-rule="evenodd" clip-rule="evenodd" d="M72.7755 44.3611C74.2462 45.0345 75.4475 44.4562 76.7312 45.1287C78.0153 45.8011 79.0722 45.381 79.6615 45.4258C80.2503 45.4706 80.4139 45.9529 80.5506 45.8313C80.6878 45.7088 80.4162 45.2059 79.6341 45.0089C78.8519 44.8123 78.4011 45.2814 76.8267 44.4754C75.2528 43.6695 74.5433 44.3099 73.1381 43.5003M69 43.8437L80.685 43.4039C80.685 43.4039 80.9049 43.4039 80.9049 43.2576C80.9049 43.1109 80.685 43.1109 80.685 43.1109L69 42.6715" fill="#ECAE2B"/>
<path d="M72.7754 44.3611C74.246 45.0345 75.4474 44.4562 76.731 45.1287C78.0152 45.8011 79.0721 45.381 79.6613 45.4258C80.2501 45.4706 80.4138 45.9529 80.5505 45.8313C80.6876 45.7088 80.4161 45.2059 79.6339 45.0089C78.8517 44.8123 78.401 45.2814 76.8266 44.4754C75.2526 43.6695 74.5432 44.3099 73.1379 43.5003" stroke="#723221" stroke-width="0.417"/>
<path d="M69 43.8437L80.685 43.4039C80.685 43.4039 80.9049 43.4039 80.9049 43.2576C80.9049 43.1109 80.685 43.1109 80.685 43.1109L69 42.6715" stroke="#723221" stroke-width="0.417"/>
<path fill-rule="evenodd" clip-rule="evenodd" d="M72.0654 45.7225C73.1662 46.907 74.4979 46.8325 75.4264 47.9451C76.3553 49.0574 77.4931 49.0738 78.0197 49.3408C78.5468 49.6078 78.5134 50.1157 78.6862 50.0553C78.8595 49.9954 78.8014 49.4263 78.1541 48.9454C77.5064 48.4645 76.9107 48.725 75.7646 47.3778C74.619 46.0306 73.718 46.3511 72.7297 45.0651M68.7754 43.7989L79.739 47.8642C79.739 47.8642 79.942 47.9488 79.9982 47.8135C80.0545 47.6782 79.8515 47.5941 79.8515 47.5941L69.2243 42.7159" fill="#ECAE2B"/>
<path d="M72.0654 45.7225C73.1662 46.907 74.4979 46.8325 75.4263 47.9452C76.3553 49.0574 77.4931 49.0738 78.0197 49.3408C78.5468 49.6078 78.5134 50.1157 78.6862 50.0553C78.8595 49.9954 78.8014 49.4263 78.1541 48.9454C77.5063 48.4645 76.9107 48.725 75.7646 47.3778C74.619 46.0306 73.718 46.3511 72.7297 45.0652" stroke="#723221" stroke-width="0.417"/>
<path d="M68.7754 43.7989L79.739 47.8642C79.739 47.8642 79.942 47.9488 79.9982 47.8135C80.0545 47.6782 79.8515 47.5941 79.8515 47.5941L69.2243 42.7159" stroke="#723221" stroke-width="0.417"/>
<path fill-rule="evenodd" clip-rule="evenodd" d="M69.299 43.2425L69.0059 35.2206L68.7129 43.243M69.9188 39.1086C70.4409 37.6448 69.8909 36.6729 70.5918 35.4322C69.8132 36.3205 70.3266 37.4716 69.6464 38.9783" fill="#723221"/>
<path fill-rule="evenodd" clip-rule="evenodd" d="M69.2819 43.3582L72.0806 35.835L68.7402 43.1342M71.436 39.776C72.4787 38.6235 72.3425 37.515 73.4648 36.6372C72.4056 37.1598 72.4394 38.4196 71.2344 39.5511" fill="#723221"/>
<path fill-rule="evenodd" clip-rule="evenodd" d="M69.2215 43.4583L74.6867 37.579L68.8069 43.0441M72.5829 40.9733C73.9872 40.3077 74.2853 39.2315 75.6585 38.8498C74.4796 38.9271 74.0288 40.1042 72.4823 40.6885" fill="#723221"/>
<path fill-rule="evenodd" clip-rule="evenodd" d="M69.2705 43.1291L65.9302 35.8304L68.7293 43.3536M68.2611 39.0725C68.1834 37.5205 67.303 36.8334 67.4758 35.419C67.0968 36.5371 68.0115 37.4043 67.9594 39.0565" fill="#723221"/>
<path fill-rule="evenodd" clip-rule="evenodd" d="M72.9107 42.8324C74.5267 42.8919 75.4159 41.8976 76.8591 42.0274C78.3023 42.1572 79.1183 41.3646 79.6796 41.1808C80.241 40.997 80.5766 41.3796 80.6566 41.2151C80.7366 41.0496 80.2927 40.6884 79.495 40.8064C78.6968 40.9239 78.46 41.5296 76.6972 41.3874C74.9345 41.2448 74.524 42.1083 72.9158 41.898M69.2243 43.7988L79.8515 38.9211C79.8515 38.9211 80.0545 38.837 79.9987 38.7017C79.9425 38.5659 79.7395 38.6505 79.7395 38.6505L68.7759 42.7159" fill="#ECAE2B"/>
<path d="M72.9106 42.8325C74.5266 42.8919 75.4158 41.8976 76.859 42.0274C78.3022 42.1573 79.1182 41.3646 79.6796 41.1808C80.2409 40.997 80.5765 41.3797 80.6565 41.2151C80.7365 41.0496 80.2926 40.6885 79.4949 40.8064C78.6967 40.9239 78.4599 41.5296 76.6972 41.3874C74.9344 41.2448 74.5239 42.1084 72.9157 41.8981" stroke="#723221" stroke-width="0.417"/>
<path d="M69.2243 43.7988L79.8515 38.9211C79.8515 38.9211 80.0545 38.837 79.9987 38.7017C79.9425 38.5659 79.7395 38.6505 79.7395 38.6505L68.7759 42.7159" stroke="#723221" stroke-width="0.417"/>
<path fill-rule="evenodd" clip-rule="evenodd" d="M69.1278 43.5278L76.4265 40.1874L68.9033 42.9865M73.184 42.5184C74.7365 42.4407 75.4236 41.5607 76.838 41.7335C75.7193 41.3541 74.8526 42.2688 73.2005 42.2167" fill="#723221"/>
<path fill-rule="evenodd" clip-rule="evenodd" d="M69.0146 43.5566L77.0361 43.2631L69.0142 42.9705M73.1486 44.176C74.6123 44.6981 75.5842 44.1481 76.8249 44.8489C75.9367 44.0704 74.7856 44.5838 73.2788 43.9035" fill="#723221"/>
<path fill-rule="evenodd" clip-rule="evenodd" d="M68.8989 43.5392L76.4221 46.3383L69.1229 42.9975M72.4811 45.6937C73.6336 46.7365 74.7421 46.6002 75.6198 47.7225C75.0973 46.6633 73.8374 46.6967 72.7056 45.4917" fill="#723221"/>
<path fill-rule="evenodd" clip-rule="evenodd" d="M68.7983 43.4793L74.6781 48.944L69.213 43.0642M71.2838 46.8407C71.9494 48.2446 73.0255 48.5431 73.4073 49.9159C73.3295 48.7374 72.1529 48.2862 71.5686 46.7401" fill="#723221"/>
<path fill-rule="evenodd" clip-rule="evenodd" d="M68.7288 43.3852L72.0696 50.6844L69.27 43.1607M69.7386 47.4418C69.8163 48.9938 70.6963 49.6814 70.5235 51.0958C70.9029 49.9772 69.9882 49.11 70.0403 47.4578" fill="#723221"/>
<path fill-rule="evenodd" clip-rule="evenodd" d="M68.9999 38.4955C71.6298 38.4955 73.7615 40.6272 73.7615 43.2571C73.7615 45.8871 71.6298 48.0192 68.9999 48.0192C66.3699 48.0192 64.2378 45.8871 64.2378 43.2571C64.2378 40.6272 66.3699 38.4955 68.9999 38.4955Z" fill="#ECAE2B"/>
<path fill-rule="evenodd" clip-rule="evenodd" d="M68.9999 38.4955C71.6298 38.4955 73.7615 40.6272 73.7615 43.2571C73.7615 45.8871 71.6298 48.0192 68.9999 48.0192C66.3699 48.0192 64.2378 45.8871 64.2378 43.2571C64.2378 40.6272 66.3699 38.4955 68.9999 38.4955Z" stroke="#723221" stroke-width="0.562"/>
<path fill-rule="evenodd" clip-rule="evenodd" d="M70.6176 42.314C70.9344 42.3081 71.2302 42.4535 71.2714 42.5979C70.9052 43.0007 70.32 42.9655 69.9534 42.6729C70.1139 42.4164 70.3717 42.3182 70.6176 42.314ZM70.6231 42.2391C70.2981 42.2391 69.9868 42.3799 69.8035 42.6729C70.1696 43.0025 70.9788 43.0382 71.5283 42.6354C71.2906 42.379 70.9482 42.2391 70.6231 42.2391Z" fill="#713221"/>
<path fill-rule="evenodd" clip-rule="evenodd" d="M70.685 42.0128C70.2091 42.0128 70.0989 42.1225 69.8791 42.3058C69.6592 42.4892 69.5495 42.4521 69.5129 42.4892C69.4763 42.5257 69.5129 42.6354 69.586 42.5984C69.6592 42.5618 69.8059 42.4892 70.0253 42.3058C70.2457 42.1225 70.4647 42.1225 70.685 42.1225C71.3442 42.1225 71.7104 42.672 71.7835 42.635C71.8567 42.5984 71.4173 42.0128 70.685 42.0128Z" fill="#723221"/>
<path fill-rule="evenodd" clip-rule="evenodd" d="M72.0033 42.2322C71.1608 41.4994 70.0984 41.3897 69.5124 41.9392C69.3688 42.1312 69.2769 42.3369 69.2394 42.5509C69.1654 42.9682 69.2957 43.419 69.6225 43.8807C69.586 43.8802 69.5124 43.9173 69.4758 43.9538C69.185 43.3975 69.0822 42.8265 69.1777 42.283C69.2024 42.1413 69.2413 42.0014 69.292 41.8656C70.098 41.2064 71.1969 41.1328 72.0029 42.2322H72.0033Z" fill="#723221"/>
<path fill-rule="evenodd" clip-rule="evenodd" d="M70.6118 42.2674C70.7937 42.2674 70.9414 42.4151 70.9414 42.597C70.9414 42.779 70.7937 42.9266 70.6118 42.9266C70.4294 42.9266 70.2817 42.779 70.2817 42.597C70.2817 42.4151 70.4294 42.2674 70.6118 42.2674Z" fill="#723221"/>
<path fill-rule="evenodd" clip-rule="evenodd" d="M71.5645 42.8183C70.9418 43.2946 70.3187 43.2581 69.9526 43.0382C69.5864 42.8183 69.5864 42.7451 69.6595 42.7451C69.7327 42.7451 69.8058 42.8183 70.0989 42.965C70.3919 43.1113 70.8317 43.1113 71.564 42.8183H71.5645Z" fill="#723221"/>
<path fill-rule="evenodd" clip-rule="evenodd" d="M68.2713 43.9154C68.1145 43.9442 68.0034 44.0827 68.0034 44.2423C68.0034 44.4242 68.1538 44.5691 68.3358 44.5691C68.4432 44.5691 68.5419 44.5179 68.6036 44.4297C68.7303 44.5253 68.9058 44.5353 69 44.5367C69.0142 44.5371 69.0329 44.5367 69.043 44.5367C69.1367 44.5353 69.3122 44.5253 69.4393 44.4297C69.501 44.5179 69.5998 44.5691 69.7072 44.5691C69.8887 44.5691 70.0391 44.4242 70.0391 44.2423C70.0391 44.0827 69.928 43.9442 69.7716 43.9154C69.8594 43.9465 69.9161 44.0315 69.9161 44.1243C69.9161 44.2455 69.8183 44.3438 69.6962 44.3438C69.5796 44.3438 69.4836 44.2514 69.4768 44.1349C69.4411 44.2066 69.2994 44.4187 69.0215 44.4297C68.7435 44.4187 68.6018 44.2066 68.5662 44.1349C68.5593 44.2514 68.4628 44.3438 68.3463 44.3438C68.2247 44.3438 68.1268 44.2455 68.1268 44.1243C68.1268 44.0315 68.1835 43.9465 68.2713 43.9154Z" fill="#723221"/>
<path fill-rule="evenodd" clip-rule="evenodd" d="M68.6297 44.891C68.2631 44.891 68.1182 45.2229 67.7886 45.4428C67.9719 45.3696 68.1159 45.2252 68.3723 45.0784C68.6288 44.9321 68.8478 45.1104 68.9941 45.1104H68.9995C69.1454 45.1104 69.3643 44.9321 69.6208 45.0784C69.8773 45.2252 70.0267 45.3696 70.2101 45.4428C69.8805 45.2229 69.7301 44.891 69.3634 44.891C69.2903 44.891 69.1454 44.9303 68.9995 45.0034H68.9941C68.8478 44.9303 68.7029 44.891 68.6297 44.891Z" fill="#723221"/>
<path fill-rule="evenodd" clip-rule="evenodd" d="M68.5063 45.3248C68.3613 45.3312 68.1703 45.36 67.8955 45.4423C68.5552 45.296 68.7005 45.5177 68.9936 45.5177H68.9991C69.2921 45.5177 69.4375 45.296 70.0971 45.4423C69.3643 45.2229 69.2189 45.3673 68.9991 45.3673H68.9936C68.8564 45.3673 68.7472 45.3138 68.5063 45.3248Z" fill="#723221"/>
<path fill-rule="evenodd" clip-rule="evenodd" d="M67.9283 45.4377C67.8858 45.4382 67.8391 45.4386 67.7893 45.4432C68.5582 45.5163 68.1884 45.9575 68.9943 45.9575H68.9998C69.8058 45.9575 69.441 45.5163 70.2103 45.4432C69.4044 45.3701 69.6595 45.845 68.9998 45.845H68.9943C68.3758 45.845 68.5664 45.4299 67.9283 45.4377Z" fill="#723221"/>
<path fill-rule="evenodd" clip-rule="evenodd" d="M69.6599 46.6277C69.6599 46.2633 69.3642 45.968 69.0003 45.968C68.6364 45.968 68.3411 46.2633 68.3411 46.6277C68.4138 46.3223 68.6867 46.1065 69.0003 46.1065C69.3148 46.1065 69.5872 46.3223 69.6599 46.6277Z" fill="#723221"/>
<path fill-rule="evenodd" clip-rule="evenodd" d="M66.0396 42.2322C66.8821 41.4994 67.944 41.3897 68.5301 41.9392C68.6736 42.1312 68.7655 42.3369 68.8034 42.5509C68.877 42.9682 68.7468 43.419 68.4199 43.8807C68.4569 43.8802 68.5301 43.9173 68.5666 43.9538C68.8578 43.3975 68.9607 42.8265 68.8652 42.283C68.84 42.1413 68.8012 42.0014 68.7504 41.8656C67.9445 41.2064 66.846 41.1328 66.04 42.2322H66.0396Z" fill="#723221"/>
<path fill-rule="evenodd" clip-rule="evenodd" d="M67.3574 42.0128C67.8337 42.0128 67.9435 42.1225 68.1633 42.3058C68.3832 42.4892 68.4929 42.4521 68.5295 42.4892C68.5661 42.5257 68.5295 42.6354 68.4564 42.5984C68.3832 42.5618 68.2365 42.4892 68.0171 42.3058C67.7972 42.1225 67.5777 42.1225 67.3579 42.1225C66.6982 42.1225 66.332 42.672 66.2589 42.635C66.1857 42.5984 66.6255 42.0128 67.3579 42.0128H67.3574Z" fill="#723221"/>
<path fill-rule="evenodd" clip-rule="evenodd" d="M67.33 42.314C67.6464 42.3081 67.9421 42.4535 67.9833 42.5979C67.6171 43.0007 67.0315 42.9655 66.6658 42.6729C66.8258 42.4164 67.0836 42.3182 67.33 42.314ZM67.335 42.2391C67.01 42.2391 66.6987 42.3799 66.5154 42.6729C66.8816 43.0025 67.6912 43.0382 68.2402 42.6354C68.0025 42.379 67.6601 42.2391 67.335 42.2391Z" fill="#713221"/>
<path fill-rule="evenodd" clip-rule="evenodd" d="M67.3779 42.2674C67.5603 42.2674 67.708 42.4151 67.708 42.597C67.708 42.779 67.5603 42.9266 67.3779 42.9266C67.196 42.9266 67.0483 42.779 67.0483 42.597C67.0483 42.4151 67.196 42.2674 67.3779 42.2674Z" fill="#723221"/>
<path fill-rule="evenodd" clip-rule="evenodd" d="M66.4778 42.8183C67.1009 43.2946 67.7235 43.2581 68.0897 43.0382C68.4563 42.8183 68.4563 42.7451 68.3832 42.7451C68.3096 42.7451 68.2364 42.8183 67.9434 42.965C67.6504 43.1113 67.211 43.1113 66.4782 42.8183H66.4778Z" fill="#723221"/>
</svg>
