<svg width="140" height="94" viewBox="0 0 140 94" fill="none" xmlns="http://www.w3.org/2000/svg">
<path fill-rule="evenodd" clip-rule="evenodd" d="M1.42847 92.8571H138.571V47.1429H1.42847V92.8571Z" fill="white" fill-opacity="0.5" stroke="white" stroke-width="2"/>
<path fill-rule="evenodd" clip-rule="evenodd" d="M47.1428 47.1429H1.42847V1.42857H47.1428V47.1429ZM20.1338 25.6347L13.416 20.7543H21.7196L24.2855 12.8571L26.8515 20.7543H35.1546L28.4373 25.6347L31.0028 33.5314L24.2855 28.651L17.5678 33.5314L20.1338 25.6347Z" fill="white" fill-opacity="0.5"/>
<path d="M1.42847 47.1429H0.428467V48.1429H1.42847V47.1429ZM47.1428 47.1429V48.1429H48.1428V47.1429H47.1428ZM1.42847 1.42857V0.428574H0.428467V1.42857H1.42847ZM47.1428 1.42857H48.1428V0.428574H47.1428V1.42857ZM13.416 20.7543V19.7543H10.3382L12.8283 21.5633L13.416 20.7543ZM20.1338 25.6347L21.0848 25.9438L21.3093 25.2528L20.7215 24.8257L20.1338 25.6347ZM21.7196 20.7543V21.7543H22.4461L22.6706 21.0633L21.7196 20.7543ZM24.2855 12.8571L25.2366 12.5481L24.2855 9.62108L23.3345 12.5481L24.2855 12.8571ZM26.8515 20.7543L25.9004 21.0633L26.1249 21.7543H26.8515V20.7543ZM35.1546 20.7543L35.7424 21.5633L38.2322 19.7543H35.1546V20.7543ZM28.4373 25.6347L27.8495 24.8257L27.2618 25.2528L27.4862 25.9437L28.4373 25.6347ZM31.0028 33.5314L30.415 34.3404L32.9048 36.1494L31.9539 33.2224L31.0028 33.5314ZM24.2855 28.651L24.8733 27.842L24.2856 27.4149L23.6978 27.8419L24.2855 28.651ZM17.5678 33.5314L16.6168 33.2224L15.6657 36.1494L18.1556 34.3405L17.5678 33.5314ZM1.42847 48.1429H47.1428V46.1429H1.42847V48.1429ZM0.428467 1.42857V47.1429H2.42847V1.42857H0.428467ZM47.1428 0.428574H1.42847V2.42857H47.1428V0.428574ZM48.1428 47.1429V1.42857H46.1428V47.1429H48.1428ZM12.8283 21.5633L19.546 26.4438L20.7215 24.8257L14.0038 19.9453L12.8283 21.5633ZM21.7196 19.7543H13.416V21.7543H21.7196V19.7543ZM23.3345 12.5481L20.7685 20.4453L22.6706 21.0633L25.2366 13.1662L23.3345 12.5481ZM27.8025 20.4453L25.2366 12.5481L23.3345 13.1662L25.9004 21.0633L27.8025 20.4453ZM35.1546 19.7543H26.8515V21.7543H35.1546V19.7543ZM29.0251 26.4438L35.7424 21.5633L34.5668 19.9453L27.8495 24.8257L29.0251 26.4438ZM31.9539 33.2224L29.3884 25.3258L27.4862 25.9437L30.0517 33.8404L31.9539 33.2224ZM23.6977 29.46L30.415 34.3404L31.5906 32.7224L24.8733 27.842L23.6977 29.46ZM18.1556 34.3405L24.8733 29.46L23.6978 27.8419L16.9801 32.7224L18.1556 34.3405ZM19.1827 25.3257L16.6168 33.2224L18.5189 33.8405L21.0848 25.9438L19.1827 25.3257Z" fill="white"/>
<path fill-rule="evenodd" clip-rule="evenodd" d="M138.571 1.42857V47.1429H47.1427V1.42857H138.571ZM20.1337 25.6347L13.416 20.7543H21.7196L24.2855 12.8571L26.8514 20.7543H35.1545L28.4373 25.6347L31.0028 33.5314L24.2855 28.651L17.5678 33.5314L20.1337 25.6347Z" fill="white" fill-opacity="0.5"/>
<path d="M138.571 47.1429V48.1429H139.571V47.1429H138.571ZM138.571 1.42857H139.571V0.428574H138.571V1.42857ZM47.1427 47.1429H46.1427V48.1429H47.1427V47.1429ZM47.1427 1.42857V0.428574H46.1427V1.42857H47.1427ZM13.416 20.7543V19.7543H10.3382L12.8282 21.5633L13.416 20.7543ZM20.1337 25.6347L21.0848 25.9438L21.3093 25.2528L20.7215 24.8257L20.1337 25.6347ZM21.7196 20.7543V21.7543H22.4461L22.6706 21.0633L21.7196 20.7543ZM24.2855 12.8571L25.2366 12.5481L24.2855 9.62108L23.3344 12.5481L24.2855 12.8571ZM26.8514 20.7543L25.9004 21.0633L26.1249 21.7543H26.8514V20.7543ZM35.1545 20.7543L35.7423 21.5633L38.2322 19.7543H35.1545V20.7543ZM28.4373 25.6347L27.8495 24.8257L27.2617 25.2528L27.4862 25.9437L28.4373 25.6347ZM31.0028 33.5314L30.415 34.3404L32.9047 36.1494L31.9538 33.2224L31.0028 33.5314ZM24.2855 28.651L24.8733 27.842L24.2855 27.4149L23.6977 27.8419L24.2855 28.651ZM17.5678 33.5314L16.6167 33.2224L15.6656 36.1494L18.1556 34.3405L17.5678 33.5314ZM139.571 47.1429V1.42857H137.571V47.1429H139.571ZM47.1427 48.1429H138.571V46.1429H47.1427V48.1429ZM46.1427 1.42857V47.1429H48.1427V1.42857H46.1427ZM138.571 0.428574H47.1427V2.42857H138.571V0.428574ZM12.8282 21.5633L19.546 26.4438L20.7215 24.8257L14.0038 19.9453L12.8282 21.5633ZM21.7196 19.7543H13.416V21.7543H21.7196V19.7543ZM23.3344 12.5481L20.7685 20.4453L22.6706 21.0633L25.2366 13.1662L23.3344 12.5481ZM27.8025 20.4453L25.2366 12.5481L23.3344 13.1662L25.9004 21.0633L27.8025 20.4453ZM35.1545 19.7543H26.8514V21.7543H35.1545V19.7543ZM29.0251 26.4438L35.7423 21.5633L34.5667 19.9453L27.8495 24.8257L29.0251 26.4438ZM31.9538 33.2224L29.3883 25.3258L27.4862 25.9437L30.0517 33.8404L31.9538 33.2224ZM23.6977 29.46L30.415 34.3404L31.5905 32.7224L24.8733 27.842L23.6977 29.46ZM18.1556 34.3405L24.8733 29.46L23.6977 27.8419L16.98 32.7224L18.1556 34.3405ZM19.1827 25.3257L16.6167 33.2224L18.5188 33.8405L21.0848 25.9438L19.1827 25.3257Z" fill="white"/>
</svg>
