<svg width="138" height="92" viewBox="0 0 138 92" fill="none" xmlns="http://www.w3.org/2000/svg">
<path fill-rule="evenodd" clip-rule="evenodd" d="M0.428467 91.8571H137.571V81.6986H0.428467V91.8571ZM0.428467 71.5399V61.3808H137.571V71.5399H0.428467ZM137.571 41.0635L137.571 51.2221H0.428467V0.428574H137.571L137.571 10.5872H51.2222V20.7459H137.571V30.9049H51.2222V41.0635H137.571Z" fill="white"/>
<path fill-rule="evenodd" clip-rule="evenodd" d="M137.571 20.7459H51.2222V10.5872H137.571V20.7459ZM137.571 41.0636H51.2222V30.9049H137.571V41.0636ZM0.428467 61.3809H137.571V51.2223H0.428467V61.3809ZM137.571 81.6986H0.428467V71.5399H137.571V81.6986Z" fill="#233A82"/>
<path fill-rule="evenodd" clip-rule="evenodd" d="M24.6753 30.792L26.3567 33.3027C19.4474 38.3029 23.6655 41.2597 18.769 42.8602C21.8145 39.8883 18.29 39.6378 20.8554 33.443" fill="#F6CD2B"/>
<path d="M24.6753 30.792L26.3567 33.3027C19.4474 38.3029 23.6655 41.2597 18.769 42.8602C21.8145 39.8883 18.29 39.6378 20.8554 33.443" stroke="#0A0B09" stroke-width="0.2" stroke-linecap="square"/>
<path d="M23.473 31.5039C19.6614 37.7868 22.1615 41.2415 18.769 42.8602" stroke="#0A0B09" stroke-width="0.2"/>
<path fill-rule="evenodd" clip-rule="evenodd" d="M25.8249 25.8257H29.1776L25.8249 44.2636L22.4727 25.8257H25.8249V44.2636Z" fill="#F6CD2B"/>
<path d="M25.8249 25.8257H29.1776L25.8249 44.2636L22.4727 25.8257H25.8249V44.2636" stroke="#0A0B09" stroke-width="0.2"/>
<path fill-rule="evenodd" clip-rule="evenodd" d="M21.5 28.5242L20.914 31.4883C12.4925 30.1384 13.3844 35.2122 8.79053 32.8817C13.0456 32.9333 10.7302 30.2636 16.9245 27.6981" fill="#F6CD2B"/>
<path d="M21.5 28.5242L20.914 31.4883C12.4925 30.1384 13.3844 35.2122 8.79053 32.8817C13.0456 32.9333 10.7302 30.2636 16.9245 27.6981" stroke="#0A0B09" stroke-width="0.2" stroke-linecap="square"/>
<path d="M20.1469 28.1776C13.0086 29.9248 12.3338 34.1351 8.79053 32.8816" stroke="#0A0B09" stroke-width="0.2"/>
<path fill-rule="evenodd" clip-rule="evenodd" d="M25.8248 25.8257L28.1956 28.196L12.7871 38.8634L23.4545 23.4549L25.8248 25.8257L12.7871 38.8634Z" fill="#F6CD2B"/>
<path d="M25.8248 25.8257L28.1956 28.196L12.7871 38.8634L23.4545 23.4549L25.8248 25.8257L12.7871 38.8634" stroke="#0A0B09" stroke-width="0.2"/>
<path fill-rule="evenodd" clip-rule="evenodd" d="M20.8586 24.6755L18.348 26.3569C13.3478 19.4476 10.391 23.6657 8.79053 18.7697C11.7629 21.8147 12.0129 18.2901 18.2077 20.8561" fill="#F6CD2B"/>
<path d="M20.8586 24.6755L18.348 26.3569C13.3478 19.4476 10.391 23.6657 8.79053 18.7697C11.7629 21.8147 12.0129 18.2901 18.2077 20.8561" stroke="#0A0B09" stroke-width="0.2" stroke-linecap="square"/>
<path d="M20.1469 23.4737C13.8644 19.6616 10.4097 22.1617 8.79053 18.7697" stroke="#0A0B09" stroke-width="0.2"/>
<path fill-rule="evenodd" clip-rule="evenodd" d="M25.8249 25.8256V29.1779L7.38696 25.8256L25.8249 22.4729V25.8256H7.38696Z" fill="#F6CD2B"/>
<path d="M25.8249 25.8256V29.1779L7.38696 25.8256L25.8249 22.4729V25.8256H7.38696" stroke="#0A0B09" stroke-width="0.2"/>
<path fill-rule="evenodd" clip-rule="evenodd" d="M23.1264 21.5001L20.1623 20.9141C21.5122 12.493 16.4389 13.3849 18.7689 8.79111C18.7173 13.0457 21.387 10.7303 23.9525 16.925" fill="#F6CD2B"/>
<path d="M23.1264 21.5001L20.1623 20.9141C21.5122 12.493 16.4389 13.3849 18.7689 8.79111C18.7173 13.0457 21.387 10.7303 23.9525 16.925" stroke="#0A0B09" stroke-width="0.2" stroke-linecap="square"/>
<path d="M23.473 20.147C21.7258 13.0092 17.5155 12.334 18.769 8.79111" stroke="#0A0B09" stroke-width="0.2"/>
<path fill-rule="evenodd" clip-rule="evenodd" d="M25.8248 25.8257L23.4545 28.1959L12.7871 12.7879L28.1956 23.4549L25.8248 25.8257L12.7871 12.7879Z" fill="#F6CD2B"/>
<path d="M25.8248 25.8257L23.4545 28.1959L12.7871 12.7879L28.1956 23.4549L25.8248 25.8257L12.7871 12.7879" stroke="#0A0B09" stroke-width="0.2"/>
<path fill-rule="evenodd" clip-rule="evenodd" d="M26.9751 20.8588L25.2937 18.3481C32.203 13.3479 27.9849 10.3916 32.8809 8.79111C29.8359 11.763 33.3604 12.0131 30.795 18.2078" fill="#F6CD2B"/>
<path d="M26.9751 20.8588L25.2937 18.3481C32.203 13.3479 27.9849 10.3916 32.8809 8.79111C29.8359 11.763 33.3604 12.0131 30.795 18.2078" stroke="#0A0B09" stroke-width="0.2" stroke-linecap="square"/>
<path d="M28.1772 20.147C31.9889 13.8645 29.4888 10.4099 32.8808 8.79111" stroke="#0A0B09" stroke-width="0.2"/>
<path fill-rule="evenodd" clip-rule="evenodd" d="M25.8249 25.8256H22.4727L25.8249 7.38724L29.1776 25.8256H25.8249V7.38724Z" fill="#F6CD2B"/>
<path d="M25.8249 25.8256H22.4727L25.8249 7.38724L29.1776 25.8256H25.8249V7.38724" stroke="#0A0B09" stroke-width="0.2"/>
<path fill-rule="evenodd" clip-rule="evenodd" d="M30.1504 23.1267L30.7364 20.1626C39.1579 21.5125 38.2656 16.4392 42.8599 18.7697C38.6048 18.7176 40.9202 21.3873 34.7259 23.9532" fill="#F6CD2B"/>
<path d="M30.1504 23.1267L30.7364 20.1626C39.1579 21.5125 38.2656 16.4392 42.8599 18.7697C38.6048 18.7176 40.9202 21.3873 34.7259 23.9532" stroke="#0A0B09" stroke-width="0.2" stroke-linecap="square"/>
<path d="M31.5037 23.4737C38.6415 21.7265 39.3167 17.5157 42.86 18.7697" stroke="#0A0B09" stroke-width="0.2"/>
<path fill-rule="evenodd" clip-rule="evenodd" d="M25.8249 25.8257L23.4546 23.4549L38.8626 12.7879L28.1956 28.1959L25.8249 25.8257L38.8626 12.7879Z" fill="#F6CD2B"/>
<path d="M25.8249 25.8257L23.4546 23.4549L38.8626 12.7879L28.1956 28.1959L25.8249 25.8257L38.8626 12.7879" stroke="#0A0B09" stroke-width="0.2"/>
<path fill-rule="evenodd" clip-rule="evenodd" d="M30.792 26.9754L33.3026 25.294C38.3028 32.2033 41.2597 27.9852 42.8601 32.8817C39.8878 29.8362 39.6372 33.3608 33.443 30.7953" fill="#F6CD2B"/>
<path d="M30.792 26.9754L33.3026 25.294C38.3028 32.2033 41.2597 27.9852 42.8601 32.8817C39.8878 29.8362 39.6372 33.3608 33.443 30.7953" stroke="#0A0B09" stroke-width="0.2" stroke-linecap="square"/>
<path d="M31.5037 28.1776C37.7862 31.9893 41.2408 29.4896 42.86 32.8816" stroke="#0A0B09" stroke-width="0.2"/>
<path fill-rule="evenodd" clip-rule="evenodd" d="M25.825 25.8256V22.4729L44.2634 25.8256L25.825 29.1779V25.8256H44.2634Z" fill="#F6CD2B"/>
<path d="M25.825 25.8256V22.4729L44.2634 25.8256L25.825 29.1779V25.8256H44.2634" stroke="#0A0B09" stroke-width="0.2"/>
<path fill-rule="evenodd" clip-rule="evenodd" d="M28.5238 30.1507L31.4879 30.7368C30.138 39.1582 35.2113 38.2664 32.8808 42.8602C32.9329 38.6051 30.2632 40.9205 27.6973 34.7263" fill="#F6CD2B"/>
<path d="M28.5238 30.1507L31.4879 30.7368C30.138 39.1583 35.2113 38.2664 32.8808 42.8602C32.9329 38.6051 30.2632 40.9205 27.6973 34.7263" stroke="#0A0B09" stroke-width="0.2" stroke-linecap="square"/>
<path d="M28.1772 31.5039C29.924 38.6417 34.1347 39.3169 32.8808 42.8602" stroke="#0A0B09" stroke-width="0.2"/>
<path fill-rule="evenodd" clip-rule="evenodd" d="M25.8249 25.8257L28.1956 23.4549L38.8626 38.8634L23.4546 28.196L25.8249 25.8257L38.8626 38.8634Z" fill="#F6CD2B"/>
<path d="M25.8249 25.8257L28.1956 23.4549L38.8626 38.8634L23.4546 28.196L25.8249 25.8257L38.8626 38.8634" stroke="#0A0B09" stroke-width="0.2"/>
<path fill-rule="evenodd" clip-rule="evenodd" d="M25.8248 19.6794C29.2195 19.6794 31.9711 22.4309 31.9711 25.8257C31.9711 29.22 29.2195 31.9715 25.8248 31.9715C22.4305 31.9715 19.679 29.22 19.679 25.8257C19.679 22.4309 22.4305 19.6794 25.8248 19.6794Z" fill="#F6CD2B"/>
<path fill-rule="evenodd" clip-rule="evenodd" d="M25.8248 19.6794C29.2195 19.6794 31.9711 22.4309 31.9711 25.8257C31.9711 29.22 29.2195 31.9715 25.8248 31.9715C22.4305 31.9715 19.679 29.22 19.679 25.8257C19.679 22.4309 22.4305 19.6794 25.8248 19.6794Z" stroke="#0A0B09" stroke-width="0.2"/>
<path fill-rule="evenodd" clip-rule="evenodd" d="M28.7305 23.8699C29.1218 24.205 28.7863 24.9314 28.3954 24.9314C28.0041 24.9314 27.2777 24.2608 27.6128 23.8142M30.3506 23.3671C29.9597 23.8142 29.7362 23.032 28.3391 23.032C26.9426 23.032 26.719 23.87 26.4955 23.7022C26.2719 23.5349 27.669 22.5287 28.1161 22.4729C28.5627 22.4171 29.8477 22.8642 30.3506 23.3671Z" fill="#0A0B09"/>
<path fill-rule="evenodd" clip-rule="evenodd" d="M27.0542 24.5406C27.2777 24.2051 27.557 24.8757 28.1719 24.8757C28.7863 24.8757 29.1218 24.7079 29.5127 24.4286C29.9035 24.1493 28.954 25.0993 28.3392 25.0993C27.7248 25.0993 26.8868 24.7637 27.0542 24.5406ZM26.887 24.3728C26.9427 23.7022 27.5014 23.5906 28.3955 23.5906C29.2892 23.5906 29.6806 24.2608 30.0156 24.4286C29.6243 24.4286 29.2892 23.87 28.3955 23.87C27.5014 23.87 27.5014 23.87 26.887 24.4286" fill="#0A0B09"/>
<path fill-rule="evenodd" clip-rule="evenodd" d="M25.8248 27.5015C26.2161 27.5015 26.3281 27.2222 26.7748 27.2222C27.2218 27.2222 27.8362 27.39 28.116 27.6135C28.1718 27.6693 27.9482 27.1665 27.5012 27.1107C27.0541 27.0549 27.2218 26.3285 26.719 26.2165C26.719 26.4401 26.8868 26.3843 26.9425 26.7194C26.9425 26.9987 26.4397 26.9987 26.3281 26.7194C26.4397 27.1665 26.1046 27.1665 25.8248 27.1665M25.8247 29.5691C27.2218 29.5691 26.9982 29.2893 28.8423 28.5071C27.5011 28.6749 27.2218 29.122 25.8247 29.122H25.5454M29.0654 29.0101C28.8424 28.6193 28.8981 28.7308 28.451 28.1164C28.8981 28.4515 29.0097 28.6193 29.0654 29.0101ZM25.8247 28.2279C26.1603 28.2279 26.2718 28.1164 26.7189 28.1164C27.166 28.1164 28.2275 28.7308 28.8423 28.5073C27.5568 29.0101 28.0597 28.675 25.8247 28.675H25.5454M28.9538 24.8756C29.6802 24.4843 29.2332 23.9257 28.9538 23.8142C29.0654 23.9257 29.5125 24.4843 28.9538 24.8756Z" fill="#0A0B09"/>
<path fill-rule="evenodd" clip-rule="evenodd" d="M22.9196 23.8699C22.5283 24.205 22.8638 24.9314 23.2547 24.9314C23.646 24.9314 24.3724 24.2608 24.0369 23.8142M21.2996 23.3671C21.6904 23.8142 21.914 23.032 23.3105 23.032C24.7076 23.032 24.9311 23.87 25.1546 23.7022C25.3782 23.5349 23.9812 22.5287 23.5341 22.4729C23.0874 22.4171 21.802 22.8642 21.2996 23.3671Z" fill="#0A0B09"/>
<path fill-rule="evenodd" clip-rule="evenodd" d="M24.5961 24.5406C24.3726 24.2051 24.0933 24.8757 23.4784 24.8757C22.864 24.8757 22.5285 24.7079 22.1376 24.4286C21.7463 24.1493 22.6962 25.0993 23.3106 25.0993C23.9255 25.0993 24.7634 24.7637 24.5961 24.5406ZM24.7635 24.3728C24.7077 23.7022 24.1491 23.5906 23.2549 23.5906C22.3607 23.5906 21.9699 24.2608 21.6348 24.4286C22.0256 24.4286 22.3607 23.87 23.2549 23.87C24.1491 23.87 24.1491 23.87 24.7635 24.4286" fill="#0A0B09"/>
<path fill-rule="evenodd" clip-rule="evenodd" d="M25.8248 27.5015C25.434 27.5015 25.322 27.2222 24.8749 27.2222C24.4283 27.2222 23.8139 27.39 23.5341 27.6135C23.4783 27.6693 23.7019 27.1665 24.1489 27.1107C24.596 27.0549 24.4283 26.3285 24.9311 26.2165C24.9311 26.4401 24.7633 26.3843 24.7076 26.7194C24.7076 26.9987 25.2104 26.9987 25.322 26.7194C25.2104 27.1665 25.5455 27.1665 25.8248 27.1665M25.8249 29.5691C24.4284 29.5691 24.6519 29.2893 22.8078 28.5071C24.149 28.6749 24.4284 29.122 25.8249 29.122H26.1047M22.5844 29.0101C22.8079 28.6193 22.7522 28.7308 23.1992 28.1164C22.7522 28.4515 22.6406 28.6193 22.5844 29.0101ZM25.8249 28.2279C25.4898 28.2279 25.3783 28.1164 24.9312 28.1164C24.4841 28.1164 23.4226 28.7308 22.8078 28.5073C24.0933 29.0101 23.5904 28.675 25.8249 28.675H26.1047M22.6963 24.8756C21.9699 24.4843 22.4169 23.9257 22.6963 23.8142C22.5843 23.9257 22.1376 24.4843 22.6963 24.8756Z" fill="#0A0B09"/>
<path fill-rule="evenodd" clip-rule="evenodd" d="M25.8251 30.0715C25.5458 30.0715 24.8194 30.2393 25.8251 30.2393C26.8308 30.2393 26.1049 30.0715 25.8251 30.0715Z" fill="#0A0B09"/>
</svg>
