<svg width="350" height="250" viewBox="0 0 350 250" fill="none" xmlns="http://www.w3.org/2000/svg">
<g id="flag / africa / morocco / b">
<g id="morocco b">
<g id="red">
<path fill-rule="evenodd" clip-rule="evenodd" d="M325 25V225H25V25H325ZM167.51 114.76L174.99 91.667L182.51 114.771H206.75L187.135 129.063L194.635 152.156L175 137.896C169.594 141.815 160.44 148.459 155.385 152.167L162.865 129.052L143.25 114.781L167.51 114.76ZM183.01 132.083L185.354 139.375L179.167 134.875V134.865L183.01 132.083ZM170.865 134.865L167.01 132.083L164.667 139.375L170.865 134.865ZM184.083 119.646H191.729L185.552 124.177L184.083 119.646ZM178.958 119.646H171.042L168.594 127.188L175 131.854L181.406 127.188L178.958 119.646ZM165.917 119.646L164.458 124.177L158.26 119.667L165.917 119.646ZM177.375 114.76L174.99 107.479L172.625 114.771L177.375 114.76Z" fill="#AF2B30" fill-opacity="1"/>
<path d="M325 225V226H326V225H325ZM325 25H326V24H325V25ZM25 225H24V226H25V225ZM25 25V24H24V25H25ZM174.99 91.667L175.941 91.3575L174.988 88.4289L174.039 91.3589L174.99 91.667ZM167.51 114.76L167.511 115.76L168.237 115.759L168.461 115.068L167.51 114.76ZM182.51 114.771L181.559 115.08L181.784 115.771H182.51V114.771ZM206.75 114.771L207.339 115.579L209.821 113.771H206.75V114.771ZM187.135 129.063L186.546 128.255L185.96 128.682L186.184 129.372L187.135 129.063ZM194.635 152.156L194.047 152.965L196.536 154.773L195.586 151.847L194.635 152.156ZM175 137.896L175.588 137.087L175.001 136.66L174.413 137.086L175 137.896ZM155.385 152.167L154.434 151.859L153.481 154.804L155.976 152.973L155.385 152.167ZM162.865 129.052L163.816 129.36L164.04 128.67L163.453 128.243L162.865 129.052ZM143.25 114.781L143.249 113.781L140.179 113.784L142.662 115.59L143.25 114.781ZM185.354 139.375L184.766 140.184L187.244 141.986L186.306 139.069L185.354 139.375ZM183.01 132.083L183.962 131.777L183.54 130.465L182.424 131.273L183.01 132.083ZM179.167 134.875H178.167V135.384L178.579 135.684L179.167 134.875ZM179.167 134.865L178.581 134.055L178.167 134.354V134.865H179.167ZM167.01 132.083L167.595 131.272L166.479 130.467L166.058 131.777L167.01 132.083ZM170.865 134.865L171.453 135.674L172.569 134.862L171.45 134.054L170.865 134.865ZM164.667 139.375L163.715 139.069L162.778 141.987L165.255 140.184L164.667 139.375ZM191.729 119.646L192.32 120.452L194.783 118.646H191.729V119.646ZM184.083 119.646V118.646H182.708L183.132 119.954L184.083 119.646ZM185.552 124.177L184.601 124.485L185.028 125.802L186.143 124.983L185.552 124.177ZM171.042 119.646V118.646H170.315L170.091 119.337L171.042 119.646ZM178.958 119.646L179.909 119.337L179.685 118.646H178.958V119.646ZM168.594 127.188L167.643 126.879L167.419 127.569L168.005 127.996L168.594 127.188ZM175 131.854L174.411 132.662L175 133.091L175.589 132.662L175 131.854ZM181.406 127.188L181.995 127.996L182.581 127.569L182.357 126.879L181.406 127.188ZM164.458 124.177L163.87 124.986L164.986 125.798L165.41 124.484L164.458 124.177ZM165.917 119.646L166.869 119.953L167.291 118.642L165.914 118.646L165.917 119.646ZM158.26 119.667L158.257 118.667L155.198 118.675L157.672 120.476L158.26 119.667ZM174.99 107.479L175.94 107.168L174.985 104.252L174.039 107.17L174.99 107.479ZM177.375 114.76L177.377 115.76L178.754 115.757L178.325 114.449L177.375 114.76ZM172.625 114.771L171.674 114.462L171.248 115.774L172.627 115.771L172.625 114.771ZM326 225V25H324V225H326ZM25 226H325V224H25V226ZM24 25V225H26V25H24ZM325 24H25V26H325V24ZM174.039 91.3589L166.559 114.452L168.461 115.068L175.941 91.9751L174.039 91.3589ZM183.461 114.461L175.941 91.3575L174.039 91.9765L181.559 115.08L183.461 114.461ZM206.75 113.771H182.51V115.771H206.75V113.771ZM187.724 129.871L207.339 115.579L206.161 113.963L186.546 128.255L187.724 129.871ZM195.586 151.847L188.086 128.754L186.184 129.372L193.684 152.465L195.586 151.847ZM174.412 138.705L194.047 152.965L195.223 151.347L175.588 137.087L174.412 138.705ZM155.976 152.973C161.029 149.267 170.18 142.625 175.587 138.706L174.413 137.086C169.008 141.005 159.851 147.651 154.794 151.361L155.976 152.973ZM161.914 128.744L154.434 151.859L156.336 152.475L163.816 129.36L161.914 128.744ZM142.662 115.59L162.277 129.861L163.453 128.243L143.838 113.972L142.662 115.59ZM167.509 113.76L143.249 113.781L143.251 115.781L167.511 115.76L167.509 113.76ZM186.306 139.069L183.962 131.777L182.058 132.389L184.402 139.681L186.306 139.069ZM178.579 135.684L184.766 140.184L185.942 138.566L179.755 134.066L178.579 135.684ZM178.167 134.865V134.875H180.167V134.865H178.167ZM182.424 131.273L178.581 134.055L179.753 135.675L183.596 132.893L182.424 131.273ZM166.425 132.894L170.28 135.676L171.45 134.054L167.595 131.272L166.425 132.894ZM165.619 139.681L167.962 132.389L166.058 131.777L163.715 139.069L165.619 139.681ZM170.277 134.056L164.079 138.566L165.255 140.184L171.453 135.674L170.277 134.056ZM191.729 118.646H184.083V120.646H191.729V118.646ZM186.143 124.983L192.32 120.452L191.138 118.84L184.961 123.371L186.143 124.983ZM183.132 119.954L184.601 124.485L186.503 123.869L185.034 119.338L183.132 119.954ZM171.042 120.646H178.958V118.646H171.042V120.646ZM169.545 127.497L171.993 119.955L170.091 119.337L167.643 126.879L169.545 127.497ZM175.589 131.046L169.183 126.38L168.005 127.996L174.411 132.662L175.589 131.046ZM180.817 126.38L174.411 131.046L175.589 132.662L181.995 127.996L180.817 126.38ZM178.007 119.955L180.455 127.497L182.357 126.879L179.909 119.337L178.007 119.955ZM165.41 124.484L166.869 119.953L164.965 119.34L163.506 123.87L165.41 124.484ZM157.672 120.476L163.87 124.986L165.046 123.368L158.848 118.858L157.672 120.476ZM165.914 118.646L158.257 118.667L158.263 120.667L165.92 120.646L165.914 118.646ZM174.04 107.79L176.425 115.071L178.325 114.449L175.94 107.168L174.04 107.79ZM173.576 115.08L175.941 107.788L174.039 107.17L171.674 114.462L173.576 115.08ZM177.373 113.76L172.623 113.771L172.627 115.771L177.377 115.76L177.373 113.76Z" fill="white"/>
</g>
<g id="green">
<path fill-rule="evenodd" clip-rule="evenodd" d="M183.01 132.083L185.354 139.375L179.167 134.875V134.865L183.01 132.083ZM167.01 132.083L170.865 134.865L164.667 139.375L167.01 132.083ZM184.083 119.646H191.729L185.552 124.177L184.083 119.646ZM171.042 119.646H178.958L181.406 127.188L175 131.854L168.594 127.188L171.042 119.646ZM165.917 119.646L164.458 124.177L158.26 119.667L165.917 119.646ZM174.99 107.479L177.375 114.76L172.625 114.771L174.99 107.479ZM174.99 91.667L167.51 114.76L143.25 114.781L162.865 129.052L155.385 152.167C160.44 148.459 169.594 141.815 175 137.896L194.635 152.156L187.135 129.063L206.75 114.771H182.51L174.99 91.667Z" fill="#145830" fill-opacity="1"/>
<path d="M183.01 132.083L183.962 131.777L183.54 130.465L182.424 131.273L183.01 132.083ZM185.354 139.375L184.766 140.184L187.244 141.986L186.306 139.069L185.354 139.375ZM179.167 134.875H178.167V135.384L178.579 135.684L179.167 134.875ZM179.167 134.865L178.581 134.055L178.167 134.354V134.865H179.167ZM167.01 132.083L167.595 131.272L166.479 130.467L166.058 131.777L167.01 132.083ZM170.865 134.865L171.453 135.674L172.569 134.862L171.45 134.054L170.865 134.865ZM164.667 139.375L163.715 139.069L162.778 141.987L165.255 140.184L164.667 139.375ZM184.083 119.646V118.646H182.708L183.132 119.954L184.083 119.646ZM191.729 119.646L192.32 120.452L194.783 118.646H191.729V119.646ZM185.552 124.177L184.601 124.485L185.028 125.802L186.143 124.983L185.552 124.177ZM171.042 119.646V118.646H170.315L170.091 119.337L171.042 119.646ZM178.958 119.646L179.909 119.337L179.685 118.646H178.958V119.646ZM181.406 127.188L181.995 127.996L182.581 127.569L182.357 126.879L181.406 127.188ZM175 131.854L174.411 132.662L175 133.091L175.589 132.662L175 131.854ZM168.594 127.188L167.643 126.879L167.419 127.569L168.005 127.996L168.594 127.188ZM165.917 119.646L166.869 119.952L167.291 118.642L165.914 118.646L165.917 119.646ZM164.458 124.177L163.87 124.986L164.987 125.798L165.41 124.483L164.458 124.177ZM158.26 119.667L158.257 118.667L155.198 118.675L157.672 120.476L158.26 119.667ZM174.99 107.479L175.94 107.168L174.985 104.252L174.039 107.17L174.99 107.479ZM177.375 114.76L177.377 115.76L178.754 115.757L178.325 114.449L177.375 114.76ZM172.625 114.771L171.674 114.462L171.248 115.774L172.627 115.771L172.625 114.771ZM167.51 114.76L167.511 115.76L168.237 115.759L168.461 115.068L167.51 114.76ZM143.25 114.781L143.249 113.781L140.179 113.784L142.662 115.59L143.25 114.781ZM162.865 129.052L163.816 129.36L164.04 128.67L163.453 128.243L162.865 129.052ZM155.385 152.167L154.434 151.859L153.481 154.804L155.976 152.973L155.385 152.167ZM175 137.896L175.588 137.087L175.001 136.66L174.413 137.086L175 137.896ZM194.635 152.156L194.047 152.965L196.536 154.773L195.586 151.847L194.635 152.156ZM187.135 129.063L186.546 128.255L185.96 128.682L186.184 129.372L187.135 129.063ZM206.75 114.771L207.339 115.579L209.821 113.771H206.75V114.771ZM182.51 114.771L181.559 115.08L181.784 115.771H182.51V114.771ZM182.058 132.389L184.402 139.681L186.306 139.069L183.962 131.777L182.058 132.389ZM185.942 138.566L179.755 134.066L178.579 135.684L184.766 140.184L185.942 138.566ZM180.167 134.875V134.865H178.167V134.875H180.167ZM179.753 135.675L183.596 132.893L182.424 131.273L178.581 134.055L179.753 135.675ZM166.425 132.894L170.28 135.676L171.45 134.054L167.595 131.272L166.425 132.894ZM170.277 134.056L164.079 138.566L165.255 140.184L171.453 135.674L170.277 134.056ZM165.619 139.681L167.962 132.389L166.058 131.777L163.715 139.069L165.619 139.681ZM184.083 120.646H191.729V118.646H184.083V120.646ZM191.138 118.84L184.961 123.371L186.143 124.983L192.32 120.452L191.138 118.84ZM186.503 123.869L185.034 119.338L183.132 119.954L184.601 124.485L186.503 123.869ZM171.042 120.646H178.958V118.646H171.042V120.646ZM178.007 119.955L180.455 127.497L182.357 126.879L179.909 119.337L178.007 119.955ZM180.817 126.38L174.411 131.046L175.589 132.662L181.995 127.996L180.817 126.38ZM175.589 131.046L169.183 126.38L168.005 127.996L174.411 132.662L175.589 131.046ZM169.545 127.497L171.993 119.955L170.091 119.337L167.643 126.879L169.545 127.497ZM164.965 119.339L163.506 123.87L165.41 124.483L166.869 119.952L164.965 119.339ZM165.046 123.368L158.848 118.858L157.672 120.476L163.87 124.986L165.046 123.368ZM158.263 120.667L165.92 120.646L165.914 118.646L158.257 118.667L158.263 120.667ZM174.04 107.79L176.425 115.071L178.325 114.449L175.94 107.168L174.04 107.79ZM177.373 113.76L172.623 113.771L172.627 115.771L177.377 115.76L177.373 113.76ZM173.576 115.08L175.941 107.788L174.039 107.17L171.674 114.462L173.576 115.08ZM174.039 91.3588L166.559 114.452L168.461 115.068L175.941 91.9751L174.039 91.3588ZM167.509 113.76L143.249 113.781L143.251 115.781L167.511 115.76L167.509 113.76ZM142.662 115.59L162.277 129.861L163.453 128.243L143.838 113.972L142.662 115.59ZM161.914 128.744L154.434 151.859L156.336 152.475L163.816 129.36L161.914 128.744ZM155.976 152.973C161.029 149.267 170.18 142.625 175.587 138.706L174.413 137.086C169.008 141.005 159.851 147.651 154.794 151.361L155.976 152.973ZM174.412 138.705L194.047 152.965L195.223 151.347L175.588 137.087L174.412 138.705ZM195.586 151.847L188.086 128.754L186.184 129.372L193.684 152.465L195.586 151.847ZM187.724 129.871L207.339 115.579L206.161 113.963L186.546 128.255L187.724 129.871ZM206.75 113.771H182.51V115.771H206.75V113.771ZM183.461 114.461L175.941 91.3575L174.039 91.9765L181.559 115.08L183.461 114.461Z" fill="white"/>
</g>
</g>
</g>
</svg>
