<svg width="350" height="250" viewBox="0 0 350 250" fill="none" xmlns="http://www.w3.org/2000/svg">
<g id="flag / europe / greece / b">
<g id="greece b">
<g id="white">
<path fill-rule="evenodd" clip-rule="evenodd" d="M90.556 25H70.556V70.555H25V90.555H70.556V137.222H25V157.222H325V137.222H90.556V90.555H136.111V70.555H90.556V25ZM136.111 48.333V68.333H325V48.333H136.111ZM136.111 112.778V92.778H325V112.778H136.111ZM25 201.667V181.667H325V201.667H25Z" fill="white" fill-opacity="0.5"/>
<path d="M70.556 25V24H69.556V25H70.556ZM90.556 25H91.556V24H90.556V25ZM70.556 70.555V71.555H71.556V70.555H70.556ZM25 70.555V69.555H24V70.555H25ZM25 90.555H24V91.555H25V90.555ZM70.556 90.555H71.556V89.555H70.556V90.555ZM70.556 137.222V138.222H71.556V137.222H70.556ZM25 137.222V136.222H24V137.222H25ZM25 157.222H24V158.222H25V157.222ZM325 157.222V158.222H326V157.222H325ZM325 137.222H326V136.222H325V137.222ZM90.556 137.222H89.556V138.222H90.556V137.222ZM90.556 90.555V89.555H89.556V90.555H90.556ZM136.111 90.555V91.555H137.111V90.555H136.111ZM136.111 70.555H137.111V69.555H136.111V70.555ZM90.556 70.555H89.556V71.555H90.556V70.555ZM136.111 68.333H135.111V69.333H136.111V68.333ZM136.111 48.333V47.333H135.111V48.333H136.111ZM325 68.333V69.333H326V68.333H325ZM325 48.333H326V47.333H325V48.333ZM136.111 92.778V91.778H135.111V92.778H136.111ZM136.111 112.778H135.111V113.778H136.111V112.778ZM325 92.778H326V91.778H325V92.778ZM325 112.778V113.778H326V112.778H325ZM25 181.667V180.667H24V181.667H25ZM25 201.667H24V202.667H25V201.667ZM325 181.667H326V180.667H325V181.667ZM325 201.667V202.667H326V201.667H325ZM70.556 26H90.556V24H70.556V26ZM71.556 70.555V25H69.556V70.555H71.556ZM70.556 69.555H25V71.555H70.556V69.555ZM24 70.555V90.555H26V70.555H24ZM25 91.555H70.556V89.555H25V91.555ZM71.556 137.222V90.555H69.556V137.222H71.556ZM25 138.222H70.556V136.222H25V138.222ZM26 157.222V137.222H24V157.222H26ZM325 156.222H25V158.222H325V156.222ZM324 137.222V157.222H326V137.222H324ZM90.556 138.222H325V136.222H90.556V138.222ZM89.556 90.555V137.222H91.556V90.555H89.556ZM90.556 91.555H136.111V89.555H90.556V91.555ZM137.111 90.555V70.555H135.111V90.555H137.111ZM136.111 69.555H90.556V71.555H136.111V69.555ZM89.556 25V70.555H91.556V25H89.556ZM137.111 68.333V48.333H135.111V68.333H137.111ZM325 67.333H136.111V69.333H325V67.333ZM324 48.333V68.333H326V48.333H324ZM136.111 49.333H325V47.333H136.111V49.333ZM135.111 92.778V112.778H137.111V92.778H135.111ZM325 91.778H136.111V93.778H325V91.778ZM326 112.778V92.778H324V112.778H326ZM136.111 113.778H325V111.778H136.111V113.778ZM24 181.667V201.667H26V181.667H24ZM325 180.667H25V182.667H325V180.667ZM326 201.667V181.667H324V201.667H326ZM25 202.667H325V200.667H25V202.667Z" fill="white"/>
</g>
<g id="blue">
<path fill-rule="evenodd" clip-rule="evenodd" d="M25 225H325V201.667H25V225ZM325 157.222V181.667H25V157.222H325ZM325 137.222V112.778H136.111V92.778H325V68.333H136.111V48.333H325V25H90.556V70.555H136.111V90.555H90.556V137.222H325ZM70.556 137.222V90.555H25V137.222H70.556ZM70.556 70.555V25H25V70.555H70.556Z" fill="white" fill-opacity="0.5"/>
<path d="M325 225V226H326V225H325ZM25 225H24V226H25V225ZM325 201.667H326V200.667H325V201.667ZM25 201.667V200.667H24V201.667H25ZM325 181.667V182.667H326V181.667H325ZM325 157.222H326V156.222H325V157.222ZM25 181.667H24V182.667H25V181.667ZM25 157.222V156.222H24V157.222H25ZM325 112.778H326V111.778H325V112.778ZM325 137.222V138.222H326V137.222H325ZM136.111 112.778H135.111V113.778H136.111V112.778ZM136.111 92.778V91.778H135.111V92.778H136.111ZM325 92.778V93.778H326V92.778H325ZM325 68.333H326V67.333H325V68.333ZM136.111 68.333H135.111V69.333H136.111V68.333ZM136.111 48.333V47.333H135.111V48.333H136.111ZM325 48.333V49.333H326V48.333H325ZM325 25H326V24H325V25ZM90.556 25V24H89.556V25H90.556ZM90.556 70.555H89.556V71.555H90.556V70.555ZM136.111 70.555H137.111V69.555H136.111V70.555ZM136.111 90.555V91.555H137.111V90.555H136.111ZM90.556 90.555V89.555H89.556V90.555H90.556ZM90.556 137.222H89.556V138.222H90.556V137.222ZM70.556 137.222V138.222H71.556V137.222H70.556ZM70.556 90.555H71.556V89.555H70.556V90.555ZM25 90.555V89.555H24V90.555H25ZM25 137.222H24V138.222H25V137.222ZM70.556 70.555V71.555H71.556V70.555H70.556ZM70.556 25H71.556V24H70.556V25ZM25 25V24H24V25H25ZM25 70.555H24V71.555H25V70.555ZM325 224H25V226H325V224ZM324 201.667V225H326V201.667H324ZM25 202.667H325V200.667H25V202.667ZM26 225V201.667H24V225H26ZM326 181.667V157.222H324V181.667H326ZM25 182.667H325V180.667H25V182.667ZM24 157.222V181.667H26V157.222H24ZM325 156.222H25V158.222H325V156.222ZM324 112.778V137.222H326V112.778H324ZM136.111 113.778H325V111.778H136.111V113.778ZM135.111 92.778V112.778H137.111V92.778H135.111ZM325 91.778H136.111V93.778H325V91.778ZM324 68.333V92.778H326V68.333H324ZM136.111 69.333H325V67.333H136.111V69.333ZM135.111 48.333V68.333H137.111V48.333H135.111ZM325 47.333H136.111V49.333H325V47.333ZM324 25V48.333H326V25H324ZM90.556 26H325V24H90.556V26ZM89.556 25V70.555H91.556V25H89.556ZM136.111 69.555H90.556V71.555H136.111V69.555ZM137.111 90.555V70.555H135.111V90.555H137.111ZM90.556 91.555H136.111V89.555H90.556V91.555ZM89.556 90.555V137.222H91.556V90.555H89.556ZM325 136.222H90.556V138.222H325V136.222ZM71.556 137.222V90.555H69.556V137.222H71.556ZM25 91.555H70.556V89.555H25V91.555ZM26 137.222V90.555H24V137.222H26ZM70.556 136.222H25V138.222H70.556V136.222ZM71.556 70.555V25H69.556V70.555H71.556ZM25 26H70.556V24H25V26ZM26 70.555V25H24V70.555H26ZM70.556 69.555H25V71.555H70.556V69.555Z" fill="white"/>
</g>
</g>
</g>
</svg>
