<svg width="350" height="250" viewBox="0 0 350 250" fill="none" xmlns="http://www.w3.org/2000/svg">
<g id="flag / asia / brunei / b">
<g id="brunei b">
<g id="yellow">
<path fill-rule="evenodd" clip-rule="evenodd" d="M25 199.94H325V189.583L25 127.083V199.94ZM25 60.417L325 122.917V50H25V60.417Z" fill="#F3DE27" fill-opacity="1"/>
<path d="M325 199.94V200.94H326V199.94H325ZM25 199.94H24V200.94H25V199.94ZM325 189.583H326V188.77L325.204 188.604L325 189.583ZM25 127.083L25.204 126.104L24 125.853V127.083H25ZM325 122.917L324.796 123.896L326 124.147V122.917H325ZM25 60.417H24V61.2301L24.796 61.396L25 60.417ZM325 50H326V49H325V50ZM25 50V49H24V50H25ZM325 198.94H25V200.94H325V198.94ZM324 189.583V199.94H326V189.583H324ZM325.204 188.604L25.204 126.104L24.796 128.062L324.796 190.562L325.204 188.604ZM26 199.94V127.083H24V199.94H26ZM325.204 121.938L25.204 59.438L24.796 61.396L324.796 123.896L325.204 121.938ZM324 50V122.917H326V50H324ZM25 51H325V49H25V51ZM26 60.417V50H24V60.417H26Z" fill="white"/>
</g>
<path id="white" fill-rule="evenodd" clip-rule="evenodd" d="M325 122.917V158.333L25 95.833V60.417L325 122.917Z" fill="#FFFFFE" fill-opacity="1" stroke="white" stroke-width="2"/>
<g id="black">
<path fill-rule="evenodd" clip-rule="evenodd" d="M325 158.333V189.583L25 127.083V95.833L325 158.333Z" fill="#0A0B09" fill-opacity="1"/>
<path d="M325 158.333V189.583L25 127.083V95.833L325 158.333" stroke="white" stroke-width="2"/>
</g>
<g id="coa">
<path id="Fill 5" fill-rule="evenodd" clip-rule="evenodd" d="M169.947 168.691C165.912 168.157 162.214 166.873 159.645 165.114C159.148 164.773 158.68 164.494 158.606 164.494C158.532 164.494 158.472 164.873 158.471 165.341C158.471 166.67 157.937 167.337 156.595 167.685C155.311 168.018 153.353 167.346 151.766 166.029C150.122 164.665 148.224 163.624 146.618 163.206C145.295 162.862 143.54 162.917 142.271 163.342C141.682 163.54 141.009 163.819 140.777 163.962C140.545 164.106 140.286 164.223 140.201 164.223C139.976 164.223 140.009 162.795 140.244 162.34C140.554 161.742 141.319 161.152 142.209 160.828C142.66 160.664 143.028 160.452 143.028 160.358C143.028 160.264 142.877 159.921 142.691 159.597C142.087 158.54 142.334 157.514 143.389 156.709C144.469 155.884 146.295 155.742 147.911 156.356C148.317 156.51 148.696 156.637 148.752 156.637C148.964 156.637 148.834 156.341 148.25 155.487C147.574 154.5 147.441 154.012 147.525 152.838C147.633 151.349 148.846 150.133 150.331 150.026C151.544 149.938 152.299 150.345 154.087 152.05C159.432 157.147 165.242 159.954 172.019 160.715C173.729 160.907 177.17 160.804 179.189 160.5C185.287 159.582 191.431 156.516 196.23 151.996C197.559 150.744 198.198 150.412 199.288 150.408C200.236 150.405 200.899 150.71 201.578 151.461C202.198 152.148 202.407 152.8 202.341 153.843C202.298 154.513 202.189 154.841 201.791 155.489C201.204 156.447 201.304 156.534 202.466 156.083C204.037 155.472 205.972 155.754 207.017 156.746C207.935 157.618 208.022 158.491 207.309 159.675C207.048 160.109 206.835 160.515 206.835 160.579C206.835 160.698 207.033 160.755 207.987 160.908C209.235 161.108 209.951 162.036 209.951 163.453C209.951 163.877 209.898 164.223 209.834 164.223C209.77 164.223 209.297 164.05 208.784 163.839C207.328 163.238 206.501 163.083 204.803 163.094C203.508 163.102 203.062 163.163 202.161 163.457C200.778 163.908 199.302 164.778 198.097 165.853C196.771 167.036 195.936 167.409 194.643 167.397C193.443 167.386 192.623 167.037 192.19 166.352C191.958 165.985 191.925 165.762 191.981 164.934C192.018 164.394 192.011 163.952 191.966 163.952C191.921 163.952 191.453 164.249 190.927 164.612C189.544 165.564 188.661 166.034 187.079 166.66C182.249 168.572 175.282 169.398 169.947 168.691Z" fill="#535353"/>
<path id="Fill 6" fill-rule="evenodd" clip-rule="evenodd" d="M192.233 162.447C193.093 162.009 194.219 160.862 194.68 159.956C195.048 159.234 195.099 158.985 195.143 157.721C195.184 156.555 195.15 156.213 194.952 155.824C194.73 155.389 194.66 155.35 194.106 155.35C193.57 155.35 193.467 155.402 193.192 155.81C192.795 156.399 192.755 157.67 193.119 158.119C193.346 158.4 193.378 158.403 193.86 158.202C194.53 157.922 194.643 157.936 194.641 158.296C194.637 159.217 193.319 160.988 191.936 161.932C191.564 162.186 191.23 162.47 191.194 162.563C191.094 162.825 191.604 162.768 192.233 162.447Z" fill="#C4C4C4"/>
<path id="Fill 7" fill-rule="evenodd" clip-rule="evenodd" d="M173.134 167.462C173.966 167.187 174.439 166.684 174.779 165.714C174.949 165.229 175.063 164.726 175.034 164.596C174.963 164.286 174.605 164.301 174.208 164.632C173.937 164.858 173.904 164.974 173.982 165.435C174.179 166.603 173.765 166.892 171.555 167.129C171.337 167.152 170.703 167.115 170.146 167.046C169.096 166.915 168.721 167.019 169.102 167.335C169.217 167.431 169.509 167.56 169.751 167.622C170.339 167.773 172.503 167.671 173.134 167.462Z" fill="#C4C4C4"/>
<path id="Fill 8" fill-rule="evenodd" clip-rule="evenodd" d="M177.712 167.268C177.837 167.155 178.267 166.957 178.666 166.828C179.199 166.657 179.475 166.473 179.699 166.139C180.348 165.173 180.227 164.343 179.274 163.22C178.758 162.612 178.528 162.629 178.116 163.304C177.76 163.888 177.768 163.925 178.282 164.058C178.55 164.127 178.808 164.325 178.95 164.57C179.508 165.535 179.344 166.133 178.517 166.14C177.767 166.146 177.561 166.252 177.358 166.738C177.253 166.989 177.167 167.258 177.167 167.335C177.167 167.54 177.45 167.505 177.712 167.268Z" fill="#C4C4C4"/>
<path id="Fill 9" fill-rule="evenodd" clip-rule="evenodd" d="M176.211 166.177C176.353 165.793 176.401 165.104 176.386 163.699C176.375 162.627 176.333 161.718 176.292 161.677C176.167 161.553 175.55 161.949 175.469 162.206C175.426 162.339 175.495 162.647 175.62 162.89C175.812 163.262 175.838 163.61 175.778 165.071C175.704 166.917 175.825 167.227 176.211 166.177Z" fill="#C4C4C4"/>
<path id="Fill 10" fill-rule="evenodd" clip-rule="evenodd" d="M172.686 165.298C172.76 164.953 172.856 164.25 172.9 163.736C172.945 163.222 173.049 162.57 173.133 162.289C173.346 161.569 173.131 161.379 172.563 161.783L172.138 162.086L172.228 163.121C172.308 164.053 172.161 165.794 171.945 166.469C171.888 166.647 171.971 166.602 172.207 166.327C172.396 166.105 172.612 165.642 172.686 165.298Z" fill="#C4C4C4"/>
<path id="Fill 11" fill-rule="evenodd" clip-rule="evenodd" d="M169.559 165.8C170.055 165.347 170.157 165.063 170.345 163.614C170.441 162.868 170.56 162.061 170.608 161.819C170.715 161.276 170.501 161.239 169.925 161.7C169.548 162.002 169.533 162.049 169.675 162.511C169.863 163.124 169.695 164.638 169.387 165.108C169.153 165.466 168.673 165.546 168.221 165.304C168.022 165.198 167.981 165.073 168.043 164.765C168.159 164.187 167.827 164.119 166.913 164.533C166.057 164.92 165.728 164.886 165.844 164.424C165.89 164.238 165.841 164.053 165.717 163.95C165.53 163.795 165.346 163.798 164.094 163.98C163.885 164.011 163.823 163.943 163.823 163.681C163.823 163.495 163.781 163.278 163.73 163.199C163.676 163.117 163.072 163.047 162.322 163.034C160.877 163.01 159.853 162.771 159.143 162.292C158.418 161.804 158.353 161.419 158.839 160.478C159.064 160.042 159.319 159.466 159.405 159.199C159.491 158.932 159.743 158.54 159.965 158.327C160.187 158.115 160.369 157.883 160.369 157.813C160.369 157.633 159.457 157.801 159.076 158.051C158.816 158.221 158.773 158.34 158.833 158.712C158.915 159.217 158.595 159.967 157.992 160.683C157.33 161.47 156.356 161.147 155.061 159.711C154.573 159.169 154.39 159.044 154.265 159.167C154.032 159.396 154.215 160.194 154.579 160.534C154.988 160.917 156.562 161.649 156.982 161.651C157.404 161.654 157.539 161.752 157.795 162.242C158.118 162.863 160.183 163.492 162.197 163.583C162.834 163.612 162.877 163.637 162.943 164.02C163.011 164.423 163.02 164.427 163.993 164.466C164.972 164.506 165.112 164.574 164.821 164.864C164.737 164.949 164.705 165.116 164.751 165.236C164.821 165.417 164.98 165.441 165.682 165.375C166.148 165.332 166.652 165.267 166.802 165.232C167.008 165.183 167.124 165.275 167.278 165.61C167.434 165.95 167.591 166.072 167.955 166.137C168.624 166.257 169.19 166.138 169.559 165.8Z" fill="#C4C4C4"/>
<path id="Fill 12" fill-rule="evenodd" clip-rule="evenodd" d="M187.646 165.056C188.865 164.456 189.583 163.781 190.045 162.804C190.264 162.34 190.443 161.901 190.443 161.827C190.443 161.659 189.843 161.378 189.484 161.378C189.125 161.378 189.051 161.132 189.205 160.446C189.355 159.777 189.176 158.94 188.882 158.94C188.775 158.94 188.587 159.095 188.462 159.285C188.27 159.579 188.261 159.704 188.401 160.131C188.61 160.765 188.446 161.238 187.879 161.643C187.61 161.834 187.463 162.055 187.463 162.268C187.463 162.449 187.486 162.598 187.513 162.598C187.541 162.598 187.837 162.445 188.171 162.258L188.779 161.919L189.137 162.2C189.334 162.355 189.495 162.607 189.495 162.761C189.495 163.501 187.381 164.749 185.929 164.865C185.157 164.927 185.024 164.901 184.756 164.633C184.538 164.415 184.475 164.231 184.529 163.972C184.571 163.775 184.645 163.416 184.696 163.173C184.83 162.528 184.551 162.616 184.073 163.369C183.679 163.991 183.561 164.656 183.784 165.007C183.965 165.291 185.169 165.564 186.021 165.513C186.556 165.481 187.085 165.332 187.646 165.056Z" fill="#C4C4C4"/>
<path id="Fill 13" fill-rule="evenodd" clip-rule="evenodd" d="M193.615 157.247C193.292 156.755 193.486 156.163 193.968 156.163C194.255 156.163 194.31 156.233 194.344 156.644C194.373 156.987 194.308 157.194 194.118 157.367C193.86 157.6 193.843 157.596 193.615 157.247Z" fill="#535353"/>
<path id="Fill 14" fill-rule="evenodd" clip-rule="evenodd" d="M195.78 160.519C196.545 159.754 196.87 158.823 196.875 157.384L196.878 156.302L197.51 156.002C198.334 155.611 199.113 154.831 199.113 154.397C199.113 153.953 198.915 153.975 198.556 154.461C198.296 154.813 197.948 155.026 196.675 155.61C196.353 155.758 196.332 155.837 196.259 157.183C196.175 158.736 195.964 159.317 195.097 160.376C194.567 161.024 194.547 161.107 194.917 161.107C195.068 161.107 195.456 160.843 195.78 160.519Z" fill="#C4C4C4"/>
<path id="Fill 15" fill-rule="evenodd" clip-rule="evenodd" d="M157.108 159.493C157.339 159.201 157.685 158.607 157.876 158.172C158.067 157.738 158.352 157.244 158.508 157.075C158.876 156.68 158.67 156.436 158.079 156.566C157.766 156.635 157.64 156.751 157.586 157.02C157.409 157.904 157.09 158.808 156.805 159.229C156.288 159.992 156.276 160.024 156.488 160.024C156.598 160.024 156.877 159.785 157.108 159.493Z" fill="#C4C4C4"/>
<path id="Fill 16" fill-rule="evenodd" clip-rule="evenodd" d="M187.429 159.651C187.503 159.429 187.078 159.27 186.897 159.452C186.819 159.53 186.798 159.663 186.85 159.748C186.97 159.942 187.354 159.878 187.429 159.651Z" fill="#C4C4C4"/>
<path id="Fill 17" fill-rule="evenodd" clip-rule="evenodd" d="M154.277 158.193C154.967 157.843 155.627 157.025 155.627 156.52C155.627 156.189 155.072 155.824 154.568 155.824C154.345 155.824 153.925 156.007 153.589 156.25C152.539 157.011 151.415 156.856 150.801 155.864C150.295 155.048 149.767 154.605 149.301 154.605C148.719 154.605 148.695 154.97 149.265 155.169C149.54 155.265 149.769 155.497 149.958 155.873C150.512 156.975 150.835 157.171 152.308 157.3L153.256 157.382L153.298 157.958C153.321 158.274 153.399 158.534 153.472 158.534C153.545 158.534 153.907 158.38 154.277 158.193Z" fill="#C4C4C4"/>
<path id="Fill 18" fill-rule="evenodd" clip-rule="evenodd" d="M154.05 157.246C153.929 156.931 154.1 156.637 154.404 156.637C154.681 156.637 154.748 156.842 154.597 157.236C154.492 157.507 154.153 157.514 154.05 157.246Z" fill="#535353"/>
<path id="Fill 19" fill-rule="evenodd" clip-rule="evenodd" d="M198.944 156.671C199.018 156.448 198.594 156.289 198.411 156.472C198.334 156.549 198.313 156.683 198.365 156.768C198.485 156.962 198.869 156.897 198.944 156.671Z" fill="#C4C4C4"/>
<path id="Fill 20" fill-rule="evenodd" clip-rule="evenodd" d="M172.155 159.41C172.043 159.388 171.403 159.298 170.732 159.21C167.279 158.758 163.171 157.331 160.16 155.537C153.365 151.489 148.396 144.466 146.832 136.701C145.046 127.826 146.318 120.191 150.512 114.627C151.275 113.614 152.081 112.777 151.932 113.151C151.887 113.262 151.569 114.038 151.224 114.875C149.287 119.577 149.046 124.549 150.487 130.085C151.058 132.276 151.594 133.685 152.603 135.642C156.136 142.494 162.754 147.549 170.055 148.97C170.651 149.086 171.779 149.304 172.561 149.455C174.617 149.85 175.736 149.81 178.515 149.243C181.113 148.714 183.206 148.085 185.09 147.268C190.806 144.789 195.557 140.058 197.992 134.42C199.659 130.559 200.443 124.894 199.913 120.534C199.592 117.9 198.762 115.016 197.74 112.981C197.524 112.553 197.407 112.202 197.479 112.202C197.704 112.202 199.253 114.097 200.159 115.479C202.156 118.527 203.506 122.31 203.989 126.209C204.386 129.415 204.043 134.55 203.233 137.528C201.569 143.645 197.929 149.454 193.525 153.019C188.859 156.796 183.904 158.753 177.506 159.344C176.163 159.468 172.666 159.511 172.155 159.41Z" fill="#535353"/>
<path id="Fill 21" fill-rule="evenodd" clip-rule="evenodd" d="M183.972 156.803C184.101 156.691 184.246 156.39 184.294 156.133C184.342 155.877 184.45 155.648 184.533 155.625C184.617 155.603 184.943 155.514 185.258 155.429C185.642 155.324 185.947 155.12 186.186 154.807C186.729 154.095 186.677 153.176 185.972 151.006C185.66 150.042 185.359 149.101 185.304 148.915C185.174 148.472 185.06 148.488 184.664 149L184.337 149.425L184.677 149.828C185.128 150.364 185.854 152.563 185.875 153.454C185.886 153.929 185.812 154.284 185.65 154.532C185.388 154.931 185.523 154.923 183.568 154.656C183.134 154.597 182.857 154.648 182.446 154.862C181.723 155.239 181.396 155.224 181.205 154.804C180.968 154.284 180.757 154.482 180.757 155.226V155.892H182.239L182.326 156.414C182.373 156.701 182.492 156.985 182.589 157.045C182.835 157.197 183.69 157.048 183.972 156.803Z" fill="#C4C4C4"/>
<path id="Fill 22" fill-rule="evenodd" clip-rule="evenodd" d="M182.913 156.164C182.631 155.734 182.75 155.418 183.195 155.418C183.439 155.418 183.578 155.517 183.669 155.755C183.942 156.473 183.331 156.803 182.913 156.164Z" fill="#535353"/>
<path id="Fill 23" fill-rule="evenodd" clip-rule="evenodd" d="M165.767 155.549C166.194 155.365 166.702 154.979 167.128 154.514L167.808 153.771L168.593 153.866C169.565 153.984 169.581 153.994 169.581 154.458C169.581 154.827 169.605 154.839 170.495 154.923C170.998 154.971 171.661 155.01 171.969 155.01C172.363 155.011 172.583 155.087 172.714 155.27C172.889 155.514 172.99 155.521 174.457 155.389C175.828 155.265 176.098 155.277 176.716 155.487C177.155 155.637 177.638 155.701 178.005 155.66C179.055 155.542 180.507 154.678 180.717 154.047C180.743 153.971 181.123 153.836 181.563 153.749C182.623 153.537 182.671 153.309 181.682 153.185C181.253 153.132 180.608 152.972 180.249 152.83C179.89 152.689 179.398 152.573 179.156 152.573C178.624 152.573 178.115 152.903 178.115 153.248C178.115 153.473 178.196 153.493 178.826 153.429C179.421 153.369 179.599 153.406 179.911 153.653C180.117 153.816 180.25 154.006 180.207 154.076C180.067 154.302 178.83 154.867 178.282 154.954C177.917 155.013 177.618 154.971 177.329 154.822C176.849 154.574 176.142 154.535 176.009 154.751C175.952 154.844 175.802 154.786 175.594 154.59L175.268 154.285L174.529 154.591C173.781 154.901 173.509 154.885 173.509 154.528C173.509 154.365 173.29 154.347 172.188 154.418C170.973 154.496 170.848 154.481 170.621 154.228C170.412 153.994 170.401 153.912 170.55 153.673C170.689 153.451 170.691 153.358 170.559 153.226C170.427 153.094 170.262 153.094 169.781 153.222C168.574 153.545 168.226 153.366 168.226 152.423C168.226 151.598 167.552 151.244 166.878 151.716C165.771 152.492 165.483 153.41 166.236 153.768C166.789 154.032 166.648 154.344 165.779 154.779C164.536 155.401 163.441 155.322 161.356 154.459C160.843 154.246 160.711 154.331 160.829 154.8C160.944 155.259 161.363 155.511 162.409 155.75C163.533 156.007 164.892 155.925 165.767 155.549Z" fill="#C4C4C4"/>
<path id="Fill 24" fill-rule="evenodd" clip-rule="evenodd" d="M166.777 152.892C166.725 152.755 166.79 152.598 166.945 152.484C167.159 152.327 167.227 152.328 167.392 152.493C167.498 152.6 167.549 152.783 167.504 152.901C167.396 153.182 166.886 153.176 166.777 152.892Z" fill="#535353"/>
<path id="Fill 25" fill-rule="evenodd" clip-rule="evenodd" d="M165.02 153.251C165.756 152.783 165.739 152.82 165.845 151.523C165.919 150.609 165.906 150.541 165.658 150.541C165.298 150.541 165.11 150.935 165.11 151.689C165.11 152.172 165.034 152.39 164.778 152.647C164.165 153.259 162.643 152.979 162.453 152.22C162.387 151.958 162.47 151.723 162.789 151.27C163.454 150.327 163.303 150.097 162.489 150.812C161.93 151.303 161.829 151.318 161.935 150.894C162.033 150.505 161.83 150.349 161.373 150.464C161.139 150.523 161.013 150.67 160.957 150.953C160.901 151.23 160.775 151.382 160.554 151.438C160.184 151.531 159.556 151.181 159.556 150.883C159.556 150.662 160.497 149.513 161.707 148.258C162.163 147.784 162.536 147.342 162.536 147.276C162.536 147.209 162.292 147.154 161.994 147.154C161.558 147.154 161.452 147.203 161.452 147.404C161.452 147.541 160.843 148.34 160.098 149.179C158.544 150.929 158.415 151.293 159.183 151.761C159.803 152.139 160.595 152.11 161.218 151.687L161.723 151.344V151.967C161.723 152.763 161.882 153.049 162.507 153.379C163.291 153.793 164.241 153.745 165.02 153.251Z" fill="#C4C4C4"/>
<path id="Fill 26" fill-rule="evenodd" clip-rule="evenodd" d="M187.397 152.493C187.398 151.633 187.421 151.561 187.668 151.605C189.219 151.882 189.936 151.675 190.606 150.755C190.973 150.252 191.004 150.124 190.956 149.343L190.903 148.484L191.655 148.574C193.019 148.737 193.034 148.746 192.94 149.303C192.681 150.824 192.206 151.661 191.034 152.663C190.214 153.363 190.216 153.706 191.038 153.316C191.733 152.986 192.541 152.156 192.975 151.324C193.295 150.714 193.351 150.442 193.356 149.476C193.362 148.46 193.395 148.317 193.676 148.09C193.912 147.899 194.174 147.844 194.734 147.867C195.407 147.896 195.511 147.861 195.817 147.506C196.083 147.196 196.138 147.02 196.074 146.677C195.955 146.046 196.089 145.826 196.809 145.461C197.786 144.966 198.165 144.44 198.165 143.579C198.165 142.788 197.92 142.321 197.575 142.454C197.313 142.554 197.274 143.239 197.509 143.615C197.595 143.754 197.628 143.966 197.581 144.087C197.455 144.416 196.724 144.813 196.061 144.912C195.225 145.038 194.646 145.485 194.209 146.342C193.515 147.706 193.616 147.643 193.01 147.095C192.08 146.255 191.258 146.477 190.908 147.663L190.758 148.17L190.508 147.662C190.253 147.146 189.951 147.023 189.657 147.316C189.395 147.579 189.472 147.994 189.904 148.631C190.126 148.958 190.308 149.373 190.308 149.552C190.308 150.386 189.519 151.06 188.766 150.871C188.362 150.77 188.005 150.204 188.005 149.667C188.005 149.181 187.641 149.227 187.531 149.726C187.346 150.566 186.969 150.224 186.804 149.068C186.692 148.285 186.408 148.242 186.06 148.956C185.837 149.412 185.831 149.497 186.008 149.701C186.378 150.126 186.956 151.82 187.026 152.679C187.12 153.854 187.394 153.716 187.397 152.493Z" fill="#C4C4C4"/>
<path id="Fill 27" fill-rule="evenodd" clip-rule="evenodd" d="M191.869 147.918C191.539 147.677 191.69 147.289 192.116 147.289C192.502 147.289 192.808 147.609 192.698 147.897C192.6 148.152 192.202 148.162 191.869 147.918Z" fill="#535353"/>
<path id="Fill 28" fill-rule="evenodd" clip-rule="evenodd" d="M194.844 147.012C194.738 146.678 194.986 146.341 195.337 146.341C195.597 146.341 195.67 146.654 195.509 147.075C195.391 147.382 194.948 147.34 194.844 147.012Z" fill="#535353"/>
<path id="Fill 29" fill-rule="evenodd" clip-rule="evenodd" d="M159.396 152.392C159.422 152.262 159.354 152.166 159.235 152.166C158.983 152.166 158.831 152.387 158.951 152.58C159.073 152.778 159.344 152.664 159.396 152.392Z" fill="#C4C4C4"/>
<path id="Fill 30" fill-rule="evenodd" clip-rule="evenodd" d="M169.987 151.208C169.987 151.014 169.914 150.941 169.752 150.973C169.398 151.041 169.359 151.489 169.706 151.489C169.9 151.489 169.987 151.402 169.987 151.208Z" fill="#C4C4C4"/>
<path id="Subtract" fill-rule="evenodd" clip-rule="evenodd" d="M155.667 149.558L155.292 150.049C155.086 150.32 154.864 150.541 154.798 150.541C154.601 150.541 154.663 149.744 154.895 149.296C155.193 148.719 154.984 148.242 154.448 148.279C154.113 148.302 154.064 148.255 154.026 147.863C153.989 147.474 153.888 147.372 153.197 147.023C152.419 146.63 152.24 146.426 152.24 145.928C152.24 145.636 152.71 145.336 152.996 145.446C153.102 145.486 153.189 145.698 153.189 145.915C153.189 146.37 153.627 146.726 154.33 146.84C154.689 146.898 154.862 146.833 155.246 146.496C155.507 146.267 155.867 145.803 156.046 145.465C156.344 144.904 156.415 144.851 156.88 144.851C157.241 144.851 157.388 144.91 157.388 145.054C157.388 145.166 157.332 145.257 157.264 145.257C157.196 145.257 156.967 145.451 156.756 145.687C156.545 145.923 156.052 146.462 155.661 146.885C155.27 147.307 154.95 147.747 154.95 147.861C154.95 148.247 155.497 148.237 156.22 147.838C156.602 147.628 157.077 147.418 157.277 147.372C157.685 147.279 158.337 147.478 158.337 147.697C158.337 147.865 157.55 148.676 157.192 148.876C156.986 148.991 157.046 149.029 157.551 149.105C157.884 149.155 158.31 149.138 158.496 149.067C158.831 148.94 160.095 147.573 160.548 146.849C160.863 146.346 161.452 146.324 161.452 146.815C161.452 147.001 161.374 147.154 161.279 147.154C161.183 147.154 160.724 147.608 160.257 148.162C158.988 149.671 158.784 149.767 157.072 149.652L155.667 149.558ZM156.371 148.866C156.021 148.732 155.897 148.762 155.897 148.983C155.897 149.206 156.136 149.245 156.416 149.067C156.56 148.976 156.552 148.935 156.371 148.866Z" fill="#C4C4C4"/>
<path id="Fill 33" fill-rule="evenodd" clip-rule="evenodd" d="M156.439 148.395C156.439 148.277 157.032 147.967 157.258 147.967C157.522 147.967 157.376 148.344 157.082 148.423C156.656 148.537 156.439 148.528 156.439 148.395Z" fill="#535353"/>
<path id="Fill 34" fill-rule="evenodd" clip-rule="evenodd" d="M165.449 149.321C165.449 149.028 164.92 149.068 164.863 149.366C164.826 149.559 164.886 149.604 165.132 149.569C165.306 149.545 165.449 149.433 165.449 149.321Z" fill="#C4C4C4"/>
<path id="Fill 35" fill-rule="evenodd" clip-rule="evenodd" d="M188.792 147.254C188.846 146.974 188.455 146.785 188.249 146.991C188.042 147.198 188.231 147.589 188.511 147.535C188.641 147.51 188.767 147.383 188.792 147.254Z" fill="#C4C4C4"/>
<path id="Fill 36" fill-rule="evenodd" clip-rule="evenodd" d="M152.463 144.394C152.829 144.08 152.833 144.058 152.674 143.368C152.45 142.398 152.465 142.294 152.834 142.201C153.301 142.084 154.485 142.719 154.748 143.228C154.951 143.621 154.946 143.648 154.6 143.969C154.228 144.314 154.229 144.715 154.602 144.715C154.91 144.715 155.763 143.909 155.763 143.618C155.763 143.217 154.816 142.267 154.069 141.918C153.607 141.703 153.143 141.602 152.608 141.601C151.65 141.599 151.521 141.806 151.78 142.921C152.083 144.227 151.671 144.404 150.618 143.419C149.837 142.688 149.53 141.927 149.533 140.729C149.536 139.443 150.028 138.808 151.134 138.659C151.87 138.561 151.853 138.388 151.096 138.274C149.992 138.109 149.058 138.846 148.704 140.162C148.311 141.623 149.212 143.403 150.807 144.318C151.643 144.798 151.976 144.813 152.463 144.394Z" fill="#C4C4C4"/>
<path id="Fill 37" fill-rule="evenodd" clip-rule="evenodd" d="M195.97 142.792C196.06 142.702 196.133 142.501 196.133 142.344C196.133 142.187 196.285 141.852 196.472 141.599C196.658 141.347 196.81 141.089 196.81 141.027C196.81 140.77 196.388 140.779 196.053 141.043C195.712 141.311 195.456 141.317 195.456 141.057C195.456 140.991 195.619 140.857 195.818 140.76C196.315 140.518 196.357 140.279 195.936 140.088C195.399 139.843 194.86 140.29 194.805 141.025C194.768 141.518 194.808 141.602 195.187 141.825C195.534 142.029 195.598 142.138 195.54 142.43C195.439 142.936 195.65 143.112 195.97 142.792Z" fill="#C4C4C4"/>
<path id="Fill 38" fill-rule="evenodd" clip-rule="evenodd" d="M200.061 142.329C200.359 142.059 200.603 141.755 200.603 141.652C200.603 141.55 200.862 141.28 201.179 141.052C202.077 140.407 202.274 139.754 201.873 138.751C201.716 138.359 201.224 137.814 200.157 136.852C199.334 136.11 198.58 135.503 198.481 135.503C198.189 135.503 198.241 136.577 198.538 136.671C199.072 136.842 199.393 137.059 200.232 137.817C201.209 138.698 201.658 139.522 201.413 139.98C201.176 140.422 200.864 140.285 200.004 139.363C199.551 138.878 199.105 138.481 199.012 138.482C198.913 138.483 198.842 138.659 198.842 138.904C198.842 139.212 199.006 139.507 199.452 140.003C200.178 140.81 200.249 141.297 199.705 141.725C199.508 141.88 199.307 142.006 199.257 142.006C199.207 142.006 199.048 141.765 198.903 141.472C198.598 140.853 196.738 138.89 196.458 138.89C196.332 138.89 196.268 139.048 196.268 139.361C196.268 139.738 196.343 139.87 196.643 140.025C197.013 140.217 197.924 141.136 198.842 142.245C199.103 142.56 199.362 142.818 199.418 142.818C199.473 142.819 199.763 142.598 200.061 142.329Z" fill="#C4C4C4"/>
<path id="Fill 39" fill-rule="evenodd" clip-rule="evenodd" d="M201.885 137.105C201.764 136.717 199.269 134.149 199.012 134.149C198.878 134.149 198.838 134.306 198.868 134.715C198.905 135.211 198.959 135.295 199.299 135.385C199.513 135.442 200.17 135.958 200.759 136.531C201.348 137.104 201.865 137.539 201.907 137.497C201.948 137.455 201.939 137.279 201.885 137.105Z" fill="#C4C4C4"/>
<path id="Fill 40" fill-rule="evenodd" clip-rule="evenodd" d="M218.328 147.896C218.874 147.838 219.423 148.293 219.237 148.875C219.191 148.98 219.008 149.183 218.701 149.391C218.39 149.603 217.953 149.828 217.416 150.031C216.342 150.437 214.863 150.751 213.139 150.705C213.188 150.705 213.313 150.705 213.384 150.705C211.635 150.728 210.697 150.566 209.473 150.162C208.44 149.824 207.548 149.567 207.486 148.653C207.486 148.496 207.533 148.403 207.612 148.328C207.692 148.254 207.814 148.195 207.97 148.161C208.28 148.094 208.639 148.273 208.951 148.376C209.616 148.594 211.024 149.19 213.384 149.205C214.628 149.236 215.545 148.94 216.494 148.624C217.631 148.246 217.79 147.974 218.328 147.896Z" fill="#535353"/>
<path id="Fill 41" fill-rule="evenodd" clip-rule="evenodd" d="M224.682 113.063C224.698 113.064 224.712 113.068 224.726 113.072C224.783 113.09 224.843 113.131 224.903 113.245V113.25C224.924 113.285 224.977 113.473 224.992 113.732C225.007 113.991 225 114.329 224.977 114.726C224.932 115.519 224.817 116.54 224.647 117.628C224.309 119.805 223.761 122.261 223.181 123.729C222.614 125.088 221.371 126.306 220.161 127.404C218.951 128.502 217.771 129.46 217.346 130.45C217.267 130.627 217.23 130.874 217.189 131.227C217.148 131.581 217.118 132.031 217.09 132.555C217.037 133.605 217.004 134.951 216.992 136.398C216.973 138.696 216.997 141.223 217.036 143.227C216.98 143.251 216.92 143.277 216.859 143.305C216.567 143.439 216.223 143.613 215.841 143.788C215.076 144.137 214.152 144.476 213.194 144.447H213.189C211.256 144.433 210.395 143.867 209.74 143.615H209.735C209.61 143.567 209.472 143.53 209.332 143.507C209.356 141.669 209.526 128.927 209.524 126.715V126.711C209.503 126.105 210.076 125.333 210.823 124.644C211.569 123.955 212.452 123.343 212.968 122.957L212.973 122.952L212.982 122.947C213.289 122.675 213.913 122.016 214.503 121.363C214.797 121.036 215.082 120.71 215.305 120.443C215.527 120.176 215.681 119.99 215.757 119.837C215.779 119.794 215.9 119.635 216.067 119.473C216.234 119.312 216.45 119.136 216.682 118.986C216.914 118.836 217.164 118.713 217.386 118.662C217.607 118.61 217.788 118.624 217.937 118.716C218.069 118.797 218.121 118.928 218.114 119.168C218.107 119.409 218.02 119.734 217.883 120.074C217.608 120.753 217.14 121.509 216.8 121.973C216.593 122.256 216.401 122.728 216.215 123.277C216.028 123.825 215.856 124.441 215.733 124.969C215.609 125.497 215.528 125.902 215.546 126.159C215.55 126.224 215.527 126.299 215.649 126.396C215.71 126.444 215.817 126.452 215.875 126.43C215.933 126.408 215.963 126.378 215.988 126.351C216.089 126.245 216.157 126.108 216.269 125.859V125.854L216.274 125.85C216.443 125.417 217.103 124.935 217.942 124.447C218.78 123.96 219.779 123.449 220.584 122.829C220.777 122.672 220.826 122.439 220.884 122.164C220.941 121.89 220.997 121.547 221.115 121.126C221.351 120.286 221.837 119.128 223.088 117.658L223.152 117.584L223.132 117.486C222.858 116.085 223.228 114.737 223.732 113.904C223.985 113.487 224.278 113.204 224.49 113.107C224.57 113.071 224.632 113.059 224.682 113.063Z" fill="#535353"/>
<path id="Fill 42" fill-rule="evenodd" clip-rule="evenodd" d="M222.616 113.373C222.71 113.375 222.793 113.411 222.871 113.471C223.026 113.589 223.146 113.828 223.137 114.145C222.728 115.028 222.484 116.216 222.704 117.466C221.464 118.943 220.962 120.14 220.717 121.013C220.592 121.457 220.534 121.817 220.48 122.076C220.427 122.332 220.364 122.469 220.323 122.504C219.563 123.089 218.587 123.593 217.735 124.088C217.039 124.493 216.415 124.877 216.072 125.358C216.092 125.262 216.112 125.165 216.136 125.062C216.205 124.768 216.293 124.442 216.387 124.118C216.525 123.769 216.924 123.323 217.386 122.962C217.847 122.6 218.373 122.316 218.724 122.233L218.877 122.199L218.886 122.046C218.913 121.649 219.237 120.734 219.688 119.877C220.14 119.02 220.734 118.193 221.204 117.889L221.302 117.825L221.297 117.707C221.221 114.985 221.826 113.79 222.296 113.481C222.413 113.404 222.521 113.371 222.616 113.373Z" fill="#535353"/>
<path id="Fill 43" fill-rule="evenodd" clip-rule="evenodd" d="M220.889 113.879C220.96 113.884 221.013 113.906 221.076 113.983C221.135 114.055 221.197 114.184 221.238 114.376C220.99 115.108 220.847 116.154 220.879 117.609C220.306 118.028 219.762 118.839 219.319 119.68C218.891 120.493 218.568 121.311 218.488 121.869C218.061 122.002 217.576 122.287 217.13 122.637C217.011 122.73 216.895 122.826 216.785 122.927C216.912 122.61 217.039 122.349 217.135 122.219C217.493 121.73 217.97 120.958 218.266 120.226C218.367 119.977 218.449 119.735 218.493 119.503C218.977 118.997 219.438 118.08 219.324 117.176C219.223 116.016 219.705 114.877 220.224 114.293C220.485 114 220.745 113.871 220.889 113.879Z" fill="#535353"/>
<path id="Fill 44" fill-rule="evenodd" clip-rule="evenodd" d="M218.926 114.16C218.98 114.164 219.041 114.187 219.117 114.244C219.217 114.317 219.337 114.454 219.462 114.662C219.079 115.35 218.827 116.262 218.911 117.215V117.225C218.98 117.762 218.764 118.374 218.488 118.824C218.434 118.635 218.328 118.469 218.153 118.361C217.967 118.247 217.757 118.213 217.548 118.224C217.644 116.794 217.942 115.471 218.321 114.745C218.519 114.366 218.73 114.179 218.871 114.16C218.889 114.157 218.907 114.158 218.926 114.16Z" fill="#535353"/>
<path id="Fill 45" fill-rule="evenodd" clip-rule="evenodd" d="M215.959 126.12C215.98 126.149 215.96 126.153 215.959 126.135C215.959 126.131 215.959 126.125 215.959 126.12Z" fill="#535353"/>
<path id="Fill 46" fill-rule="evenodd" clip-rule="evenodd" d="M209.327 143.93C209.419 143.949 209.508 143.974 209.588 144.004C209.93 144.136 210.437 144.41 211.226 144.614L209.317 144.594C209.317 144.594 209.326 143.981 209.327 143.93Z" fill="#535353"/>
<path id="Fill 47" fill-rule="evenodd" clip-rule="evenodd" d="M217.024 143.66C217.429 143.603 217.836 144.058 217.698 144.639C217.664 144.744 217.528 144.947 217.301 145.155C217.07 145.367 216.746 145.592 216.348 145.795C215.551 146.201 214.455 146.515 213.177 146.469C213.213 146.469 213.306 146.469 213.359 146.469C212.062 146.492 211.366 146.33 210.459 145.926C209.693 145.588 209.032 145.331 208.985 144.417C208.985 144.26 209.02 144.168 209.079 144.093C209.138 144.017 209.229 143.959 209.344 143.925C209.575 143.858 209.84 144.037 210.072 144.14C210.565 144.358 211.609 144.954 213.359 144.969C214.281 145 214.961 144.704 215.665 144.388C216.507 144.01 216.625 143.738 217.024 143.66Z" fill="#535353"/>
<path id="Fill 48" fill-rule="evenodd" clip-rule="evenodd" d="M217.744 145.734C218.218 145.676 218.695 146.131 218.534 146.712C218.494 146.818 218.334 147.021 218.068 147.229C217.797 147.441 217.418 147.666 216.951 147.869C216.018 148.275 214.733 148.589 213.236 148.543C213.278 148.543 213.387 148.543 213.448 148.543C211.929 148.566 211.113 148.404 210.051 148C209.153 147.662 208.378 147.405 208.324 146.491C208.324 146.334 208.365 146.241 208.434 146.166C208.503 146.091 208.609 146.033 208.744 145.999C209.014 145.932 209.326 146.111 209.597 146.214C210.175 146.432 211.398 147.027 213.448 147.042C214.529 147.074 215.326 146.778 216.151 146.462C217.138 146.083 217.276 145.811 217.744 145.734Z" fill="#535353"/>
<path id="Fill 49" fill-rule="evenodd" clip-rule="evenodd" d="M131.672 147.896C131.126 147.838 130.577 148.293 130.763 148.875C130.809 148.98 130.992 149.183 131.299 149.391C131.61 149.603 132.047 149.828 132.584 150.031C133.658 150.437 135.137 150.751 136.86 150.705C136.812 150.705 136.687 150.705 136.616 150.705C138.365 150.728 139.303 150.566 140.526 150.162C141.56 149.824 142.452 149.567 142.514 148.653C142.514 148.496 142.467 148.403 142.387 148.328C142.308 148.254 142.185 148.195 142.03 148.161C141.72 148.094 141.361 148.273 141.049 148.376C140.384 148.594 138.975 149.19 136.616 149.205C135.372 149.236 134.455 148.94 133.505 148.624C132.369 148.246 132.21 147.974 131.672 147.896Z" fill="#535353"/>
<path id="Fill 50" fill-rule="evenodd" clip-rule="evenodd" d="M125.318 113.063C125.301 113.064 125.288 113.068 125.274 113.072C125.217 113.09 125.156 113.131 125.096 113.245V113.25C125.076 113.285 125.023 113.473 125.008 113.732C124.993 113.991 125 114.329 125.023 114.726C125.068 115.519 125.183 116.54 125.352 117.628C125.691 119.805 126.239 122.261 126.818 123.729C127.386 125.088 128.629 126.306 129.839 127.404C131.049 128.502 132.229 129.46 132.653 130.45C132.733 130.627 132.77 130.874 132.811 131.227C132.852 131.581 132.882 132.031 132.909 132.555C132.963 133.605 132.996 134.951 133.008 136.398C133.027 138.696 133.003 141.223 132.963 143.227C133.02 143.251 133.079 143.277 133.14 143.305C133.433 143.439 133.777 143.613 134.159 143.788C134.924 144.137 135.847 144.476 136.806 144.447H136.811C138.744 144.433 139.605 143.867 140.26 143.615H140.264C140.39 143.567 140.528 143.53 140.668 143.507C140.643 141.669 140.474 128.927 140.476 126.715V126.711C140.497 126.105 139.923 125.333 139.177 124.644C138.431 123.955 137.547 123.343 137.032 122.957L137.027 122.952L137.017 122.947C136.711 122.675 136.086 122.016 135.497 121.363C135.202 121.036 134.918 120.71 134.695 120.443C134.472 120.176 134.319 119.99 134.243 119.837C134.221 119.794 134.1 119.635 133.933 119.473C133.765 119.312 133.55 119.136 133.318 118.986C133.085 118.836 132.835 118.713 132.614 118.662C132.393 118.61 132.211 118.624 132.063 118.716C131.93 118.797 131.879 118.928 131.886 119.168C131.893 119.409 131.98 119.734 132.117 120.074C132.392 120.753 132.86 121.509 133.199 121.973C133.407 122.256 133.598 122.728 133.785 123.277C133.972 123.825 134.144 124.441 134.267 124.969C134.39 125.497 134.471 125.902 134.454 126.159C134.45 126.224 134.473 126.299 134.351 126.396C134.29 126.444 134.183 126.452 134.125 126.43C134.066 126.408 134.037 126.378 134.011 126.351C133.91 126.245 133.843 126.108 133.731 125.859V125.854L133.726 125.85C133.557 125.417 132.897 124.935 132.058 124.447C131.219 123.96 130.221 123.449 129.416 122.829C129.222 122.672 129.173 122.439 129.116 122.164C129.059 121.89 129.003 121.547 128.885 121.126C128.649 120.286 128.163 119.128 126.912 117.658L126.848 117.584L126.868 117.486C127.142 116.085 126.772 114.737 126.267 113.904C126.015 113.487 125.721 113.204 125.51 113.107C125.43 113.071 125.367 113.059 125.318 113.063Z" fill="#535353"/>
<path id="Fill 51" fill-rule="evenodd" clip-rule="evenodd" d="M127.384 113.373C127.29 113.375 127.207 113.411 127.128 113.471C126.974 113.589 126.854 113.828 126.863 114.145C127.272 115.028 127.516 116.216 127.296 117.466C128.536 118.943 129.038 120.14 129.283 121.013C129.408 121.457 129.466 121.817 129.519 122.076C129.573 122.332 129.636 122.469 129.677 122.504C130.437 123.089 131.413 123.593 132.265 124.088C132.961 124.493 133.585 124.877 133.928 125.358C133.908 125.262 133.888 125.165 133.864 125.062C133.795 124.768 133.707 124.442 133.613 124.118C133.474 123.769 133.075 123.323 132.614 122.962C132.153 122.6 131.627 122.316 131.276 122.233L131.123 122.199L131.113 122.046C131.087 121.649 130.763 120.734 130.311 119.877C129.86 119.02 129.265 118.193 128.796 117.889L128.698 117.825L128.703 117.707C128.778 114.985 128.174 113.79 127.704 113.481C127.586 113.404 127.479 113.371 127.384 113.373Z" fill="#535353"/>
<path id="Fill 52" fill-rule="evenodd" clip-rule="evenodd" d="M129.111 113.879C129.039 113.884 128.987 113.906 128.924 113.983C128.865 114.055 128.802 114.184 128.762 114.376C129.01 115.108 129.153 116.154 129.121 117.609C129.694 118.028 130.237 118.839 130.681 119.68C131.109 120.493 131.432 121.311 131.512 121.869C131.938 122.002 132.424 122.287 132.87 122.637C132.988 122.73 133.105 122.826 133.214 122.927C133.088 122.61 132.961 122.349 132.865 122.219C132.507 121.73 132.029 120.958 131.733 120.226C131.633 119.977 131.551 119.735 131.507 119.503C131.023 118.997 130.562 118.08 130.676 117.176C130.777 116.016 130.295 114.877 129.775 114.293C129.515 114 129.254 113.871 129.111 113.879Z" fill="#535353"/>
<path id="Fill 53" fill-rule="evenodd" clip-rule="evenodd" d="M131.074 114.16C131.02 114.164 130.959 114.187 130.882 114.244C130.783 114.317 130.662 114.454 130.538 114.662C130.921 115.35 131.173 116.262 131.089 117.215V117.225C131.02 117.762 131.236 118.374 131.512 118.824C131.565 118.635 131.672 118.469 131.847 118.361C132.033 118.247 132.243 118.213 132.452 118.224C132.355 116.794 132.058 115.471 131.679 114.745C131.481 114.366 131.27 114.179 131.128 114.16C131.111 114.157 131.092 114.158 131.074 114.16Z" fill="#535353"/>
<path id="Fill 54" fill-rule="evenodd" clip-rule="evenodd" d="M134.041 126.12C134.019 126.149 134.04 126.153 134.041 126.135C134.041 126.131 134.041 126.125 134.041 126.12Z" fill="#535353"/>
<path id="Fill 55" fill-rule="evenodd" clip-rule="evenodd" d="M140.673 143.93C140.58 143.949 140.491 143.974 140.412 144.004C140.07 144.136 139.563 144.41 138.774 144.614L140.683 144.594C140.683 144.594 140.674 143.981 140.673 143.93Z" fill="#535353"/>
<path id="Fill 56" fill-rule="evenodd" clip-rule="evenodd" d="M132.975 143.66C132.571 143.603 132.164 144.058 132.301 144.639C132.336 144.744 132.472 144.947 132.699 145.155C132.93 145.367 133.254 145.592 133.652 145.795C134.448 146.201 135.545 146.515 136.822 146.469C136.786 146.469 136.694 146.469 136.641 146.469C137.938 146.492 138.634 146.33 139.541 145.926C140.307 145.588 140.968 145.331 141.015 144.417C141.015 144.26 140.979 144.168 140.921 144.093C140.862 144.017 140.771 143.959 140.656 143.925C140.425 143.858 140.159 144.037 139.928 144.14C139.435 144.358 138.391 144.954 136.641 144.969C135.719 145 135.039 144.704 134.335 144.388C133.493 144.01 133.375 143.738 132.975 143.66Z" fill="#535353"/>
<path id="Fill 57" fill-rule="evenodd" clip-rule="evenodd" d="M132.255 145.734C131.781 145.676 131.304 146.131 131.465 146.712C131.505 146.818 131.665 147.021 131.931 147.229C132.202 147.441 132.581 147.666 133.048 147.869C133.981 148.275 135.266 148.589 136.763 148.543C136.721 148.543 136.612 148.543 136.55 148.543C138.07 148.566 138.885 148.404 139.948 148C140.846 147.662 141.621 147.405 141.675 146.491C141.675 146.334 141.634 146.241 141.565 146.166C141.496 146.091 141.39 146.033 141.255 145.999C140.985 145.932 140.673 146.111 140.402 146.214C139.824 146.432 138.601 147.027 136.551 147.042C135.47 147.074 134.673 146.778 133.848 146.462C132.861 146.083 132.723 145.811 132.255 145.734Z" fill="#535353"/>
<path id="Fill 58" fill-rule="evenodd" clip-rule="evenodd" d="M174.097 149.163C171.497 148.888 169.233 147.24 168.136 144.825C167.77 144.017 167.779 143.807 168.17 144.089C168.832 144.566 169.774 144.986 170.181 144.986C170.515 144.986 170.792 145.158 171.446 145.77C172.713 146.955 174.133 147.262 173.516 146.217C173.083 145.484 173.204 144.989 174.131 143.699C174.597 143.052 175.039 142.517 175.113 142.512C175.188 142.506 175.564 142.942 175.951 143.48C176.78 144.637 177.037 145.507 176.731 146.125C176.462 146.666 176.482 147.018 176.78 147.018C177.107 147.018 178.235 146.302 178.906 145.668C179.271 145.325 179.67 145.104 180.126 144.995C180.498 144.907 181.129 144.651 181.528 144.427C181.927 144.203 182.281 144.048 182.315 144.083C182.478 144.246 181.396 146.084 180.696 146.834C179.336 148.291 178.027 148.942 176.053 149.145C175.462 149.206 174.581 149.214 174.097 149.163Z" fill="#535353"/>
<path id="Fill 59" fill-rule="evenodd" clip-rule="evenodd" d="M177.402 145.879C177.359 145.768 177.359 145.62 177.402 145.552C177.565 145.287 177.049 144.033 176.409 143.141C176.042 142.629 175.643 142.072 175.522 141.904C175.402 141.737 175.228 141.599 175.135 141.599C174.937 141.599 173.654 143.342 173.115 144.343C172.91 144.723 172.743 145.237 172.743 145.485C172.743 145.732 172.677 145.935 172.598 145.935C172.225 145.935 171.49 145.156 171.084 144.33C170.673 143.494 170.643 143.341 170.65 142.076C170.659 140.474 170.894 139.461 171.769 137.265C172.33 135.854 172.39 135.597 172.396 134.555C172.403 133.3 172.166 132.642 171.473 131.995C171.06 131.61 171.121 131.439 171.672 131.439C172.185 131.439 172.99 131.849 173.394 132.317C173.779 132.762 174.026 132.617 174.144 131.876C174.189 131.598 174.405 131.157 174.625 130.897C174.956 130.504 175.067 130.448 175.272 130.567C175.642 130.783 176.129 131.833 176.129 132.416C176.129 133.085 176.339 133.076 177.016 132.376C177.614 131.759 178.02 131.518 178.669 131.394C179.256 131.283 179.246 131.525 178.64 132.112C177.936 132.795 177.584 133.648 177.576 134.69C177.569 135.694 177.705 136.183 178.446 137.819C179.146 139.361 179.516 140.856 179.516 142.139C179.516 143.519 179.238 144.395 178.554 145.172C177.873 145.946 177.513 146.168 177.402 145.879Z" fill="#535353"/>
<path id="Fill 60" fill-rule="evenodd" clip-rule="evenodd" d="M176.402 131.172C176.061 130.503 175.348 129.678 175.111 129.678C174.897 129.678 173.826 130.866 173.826 131.103C173.826 131.195 173.742 131.34 173.64 131.426C173.495 131.546 173.328 131.499 172.898 131.217C172.199 130.759 171.883 129.908 171.892 128.502C171.9 127.276 172.097 126.439 172.774 124.747C173.266 123.519 173.307 123.321 173.262 122.377C173.202 121.129 172.864 120.362 171.915 119.324C171.55 118.926 171.252 118.562 171.252 118.517C171.252 118.471 171.535 118.434 171.88 118.434C172.578 118.434 173.152 118.726 173.732 119.376C173.934 119.603 174.152 119.789 174.216 119.789C174.281 119.789 174.375 119.469 174.426 119.078C174.529 118.295 174.809 117.757 175.113 117.757C175.4 117.757 175.723 118.472 175.723 119.109C175.723 119.883 176 119.933 176.603 119.265C176.874 118.965 177.305 118.651 177.561 118.566C178.042 118.408 178.774 118.491 178.917 118.721C178.961 118.793 178.743 119.129 178.432 119.466C177.068 120.946 176.793 122.613 177.594 124.549C178.248 126.128 178.467 127.249 178.399 128.662C178.325 130.19 178.05 130.891 177.341 131.36C177.05 131.553 176.782 131.71 176.745 131.71C176.707 131.71 176.553 131.468 176.402 131.172Z" fill="#535353"/>
<path id="Fill 61" fill-rule="evenodd" clip-rule="evenodd" d="M173.252 118.103C172.552 117.589 172.321 117.099 172.321 116.131C172.321 115.635 172.413 115.367 172.739 114.917C173.221 114.251 173.133 114.04 172.452 114.236C171.357 114.55 170.834 114.263 170.796 113.329C170.778 112.873 170.875 112.679 171.489 111.941C171.981 111.349 172.16 111.039 172.063 110.943C171.967 110.846 171.384 111.35 170.191 112.564C169.239 113.533 168.168 114.523 167.812 114.764C165.763 116.149 163.805 116.362 162.91 115.299C162.452 114.755 162.477 114.447 163.007 114.119C163.249 113.969 163.661 113.623 163.921 113.351C164.536 112.71 166.366 111.389 167.274 110.931C168.011 110.559 168.188 110.306 167.709 110.306C167.087 110.306 165.095 111.603 163.586 112.99C163.141 113.4 162.502 113.856 162.166 114.005C161.412 114.338 159.932 114.46 159.274 114.243C158.807 114.089 157.961 113.29 157.961 113.004C157.961 112.929 158.154 112.763 158.389 112.636C158.625 112.509 159.047 112.205 159.327 111.959C160.535 110.9 162.824 109.809 164.642 109.428C165.219 109.307 165.006 109.014 164.361 109.043C163.115 109.098 160.638 110.258 159.158 111.479C157.424 112.909 154.81 112.774 153.968 111.211C153.823 110.942 153.738 110.69 153.778 110.65C153.818 110.61 154.334 110.455 154.924 110.306C155.561 110.145 156.822 109.623 158.029 109.022C159.928 108.075 160.488 107.873 161.796 107.664C162.384 107.57 162.414 107.282 161.843 107.215C161.107 107.128 159.98 107.496 157.99 108.476C155.432 109.734 154.714 109.951 153.366 109.87C152.137 109.797 151.444 109.481 150.447 108.537C149.794 107.92 148.868 106.348 149.05 106.167C149.093 106.124 149.393 106.166 149.717 106.261C150.076 106.367 151.103 106.437 152.339 106.44C154.071 106.444 154.531 106.398 155.454 106.131C156.997 105.685 159.051 104.642 160.453 103.593C163.139 101.585 165.329 100.778 168.121 100.767C170.698 100.757 172.337 101.352 173.79 102.825C174.281 103.322 174.7 103.645 174.768 103.578C174.833 103.513 174.903 102.642 174.924 101.643C174.924 101.643 175.684 101.57 175.843 101.782C175.843 103.404 175.862 103.532 176.097 103.532C176.252 103.532 176.418 103.374 176.52 103.127C176.74 102.597 177.557 101.868 178.428 101.427C180.315 100.471 183.578 100.441 186.197 101.357C187.302 101.743 188.527 102.436 189.694 103.335C190.863 104.235 193.257 105.44 194.673 105.842C196.104 106.248 198.626 106.35 199.922 106.056C200.455 105.934 200.955 105.835 201.033 105.835C201.511 105.835 200.697 107.426 199.744 108.357C198 110.059 195.732 110.051 192.538 108.332C190.55 107.26 188.171 106.676 188.171 107.258C188.171 107.379 188.296 107.461 188.481 107.461C189.172 107.461 190.508 107.924 192.37 108.809C194.386 109.767 195.517 110.17 196.188 110.17C196.675 110.17 196.69 110.473 196.236 111.14C195.754 111.85 194.937 112.203 193.784 112.199C192.68 112.196 192.068 111.955 191.083 111.136C189.436 109.765 185.33 108.236 185.487 109.051C185.518 109.215 185.717 109.315 186.14 109.379C187.569 109.597 189.247 110.399 190.963 111.684C191.492 112.081 192.041 112.473 192.181 112.555C192.417 112.693 192.421 112.736 192.234 113.084C191.927 113.658 191.15 114.105 190.309 114.191C189.219 114.304 188.27 113.98 187.29 113.159C185.218 111.425 183.267 110.17 182.642 110.17C182.131 110.17 182.36 110.452 183.261 110.929C184.444 111.556 185.66 112.405 186.555 113.228C186.98 113.618 187.456 114.006 187.614 114.091C187.99 114.292 187.975 114.584 187.563 115.125C187.143 115.676 186.446 115.916 185.543 115.821C183.743 115.631 182.339 114.762 180.133 112.473C179.27 111.579 178.501 110.848 178.423 110.848C178.129 110.848 178.301 111.247 178.87 111.883C179.575 112.671 179.711 113.116 179.444 113.754C179.208 114.32 178.816 114.451 178.011 114.235C177.189 114.013 177.061 114.215 177.599 114.886C178.405 115.888 178.285 117.114 177.299 117.958C176.993 118.22 176.672 118.434 176.586 118.434C176.5 118.434 176.283 118.21 176.103 117.937C175.469 116.975 174.911 116.98 174.295 117.955C174.082 118.293 173.901 118.568 173.893 118.566C173.885 118.564 173.597 118.356 173.252 118.103Z" fill="#535353"/>
<path id="Fill 62" fill-rule="evenodd" clip-rule="evenodd" d="M176.389 98.5469L175.321 99.3929L174.362 98.6699V104.451L176.389 104.475V98.5469Z" fill="#535353"/>
<path id="Fill 63" fill-rule="evenodd" clip-rule="evenodd" d="M174.365 91.1592C173.436 91.1752 172.456 91.1882 171.576 91.3612C170.964 91.4812 170.41 91.6782 169.947 92.0062C170.024 93.7832 178.489 94.5242 180.761 92.0402C180.283 91.6912 179.701 91.4862 179.059 91.3612C178.211 91.1972 177.273 91.1792 176.382 91.1642C176.384 91.6532 176.387 92.1422 176.387 92.6302L174.365 92.6252C174.365 92.1252 174.365 91.5932 174.365 91.1592Z" fill="#535353"/>
<path id="Fill 64" fill-rule="evenodd" clip-rule="evenodd" d="M176.019 82.3413L175.516 87.2663L180.583 89.7413L178.018 86.3123L181.521 85.1783L176.019 82.3413Z" fill="#535353"/>
<path id="Fill 65" fill-rule="evenodd" clip-rule="evenodd" d="M175.454 81.0591C174.685 81.0591 174.116 81.3461 174.116 81.6871C174.116 82.0281 174.685 82.3181 175.454 82.3181C176.224 82.3181 176.788 82.0281 176.788 81.6871C176.788 81.3461 176.224 81.0591 175.454 81.0591Z" fill="#535353"/>
<path id="Fill 66" fill-rule="evenodd" clip-rule="evenodd" d="M176.021 82.0771L174.706 82.0871V92.3761L176.047 92.3811L176.021 82.0771Z" fill="#535353"/>
<path id="Fill 67" fill-rule="evenodd" clip-rule="evenodd" d="M169.767 92.5512C169.554 95.2842 168.861 97.1902 167.897 99.2932L170.209 97.1482L171.817 99.0582L173.56 97.1152L175.335 98.7562L177.044 97.0482L178.82 99.1252L180.361 97.4162L182.975 99.2932C182.026 97.1902 180.742 95.4082 180.904 92.4512C178.372 94.3312 172.356 94.6702 169.767 92.5512Z" fill="#535353"/>
<path id="Fill 68" fill-rule="evenodd" clip-rule="evenodd" d="M186.978 166.019C186.979 166.207 186.813 166.359 186.608 166.36C186.403 166.36 186.237 166.208 186.236 166.02C186.236 166.02 186.236 166.02 186.236 166.019C186.236 165.831 186.402 165.679 186.607 165.679C186.812 165.678 186.978 165.83 186.978 166.018V166.019Z" fill="#C4C4C4"/>
<path id="Fill 69" fill-rule="evenodd" clip-rule="evenodd" d="M188.29 165.582C188.29 165.77 188.124 165.922 187.919 165.922C187.714 165.923 187.548 165.771 187.548 165.583V165.582C187.547 165.394 187.713 165.242 187.918 165.242C188.123 165.241 188.289 165.393 188.29 165.581V165.582Z" fill="#C4C4C4"/>
</g>
</g>
</g>
</svg>
