<svg width="350" height="250" viewBox="0 0 350 250" fill="none" xmlns="http://www.w3.org/2000/svg">
<g id="flag / europe / slovenia / b">
<g id="slovenia b">
<path id="Fill 1" fill-rule="evenodd" clip-rule="evenodd" d="M25 200H325V150H25V200Z" fill="#D8272D" fill-opacity="1" stroke="white" stroke-width="2"/>
<path id="Fill 3" fill-rule="evenodd" clip-rule="evenodd" d="M25 150H325V100H25V150Z" fill="#1C5490" fill-opacity="1" stroke="white" stroke-width="2"/>
<path id="Fill 4" fill-rule="evenodd" clip-rule="evenodd" d="M25 100H325V50H25V100Z" fill="#FFFFFE" fill-opacity="1" stroke="white" stroke-width="2"/>
<g id="coa" style="mix-blend-mode:luminosity">
<path id="Fill 5" fill-rule="evenodd" clip-rule="evenodd" d="M117.908 102.611L119.483 79.3662C107.202 73.5452 92.9549 73.5452 80.6729 79.3662L82.2479 102.611C82.9559 113.057 90.0559 121.973 100.079 124.999C110.101 121.973 117.201 113.057 117.908 102.611Z" fill="#1C5490"/>
<path id="Fill 6" fill-rule="evenodd" clip-rule="evenodd" d="M85.5244 105.761C87.2114 113.354 92.7224 119.525 100.078 122.056C107.433 119.525 112.944 113.354 114.631 105.761L107.354 96.058L104.444 99.939L100.078 91.207L95.7114 99.939L92.8014 96.058L85.5244 105.761Z" fill="#FFFFFE"/>
<path id="Fill 7" fill-rule="evenodd" clip-rule="evenodd" d="M86.1748 108.186C87.5138 110.507 90.4808 111.302 92.8018 109.962C94.3028 109.096 96.1518 109.096 97.6528 109.962C99.1538 110.829 101.003 110.829 102.504 109.962C104.005 109.096 105.855 109.096 107.355 109.962C109.676 111.302 112.643 110.507 113.982 108.186V109.587C112.643 111.907 109.676 112.702 107.355 111.363C105.855 110.496 104.005 110.496 102.504 111.363C101.003 112.229 99.1538 112.229 97.6528 111.363C96.1518 110.496 94.3028 110.496 92.8018 111.363C90.4808 112.702 87.5138 111.907 86.1748 109.587V108.186Z" fill="#1C5490"/>
<path id="Fill 8" fill-rule="evenodd" clip-rule="evenodd" d="M86.1748 110.987C87.5138 113.308 90.4808 114.103 92.8018 112.763C94.3028 111.896 96.1518 111.896 97.6528 112.763C99.1538 113.63 101.003 113.63 102.504 112.763C104.005 111.896 105.855 111.896 107.355 112.763C109.676 114.103 112.643 113.308 113.982 110.988C113.982 110.987 113.982 110.987 113.982 110.987V112.388C112.643 114.708 109.676 115.503 107.355 114.163C105.855 113.297 104.005 113.297 102.504 114.163C101.003 115.03 99.1538 115.03 97.6528 114.163C96.1518 113.297 94.3028 113.297 92.8018 114.163C90.4808 115.503 87.5138 114.708 86.1748 112.388V110.987Z" fill="#1C5490"/>
<path id="Fill 9" fill-rule="evenodd" clip-rule="evenodd" d="M100.079 84.5371L100.442 85.7261L101.654 85.4461L100.806 86.3561L101.654 87.2661L100.442 86.9861L100.079 88.1751L99.7149 86.9861L98.5029 87.2661L99.3499 86.3561L98.5029 85.4461L99.7149 85.7261L100.079 84.5371Z" fill="#FBDA20"/>
<path id="Fill 10" fill-rule="evenodd" clip-rule="evenodd" d="M94.6209 77.2603L94.9849 78.4493L96.1959 78.1703L95.3479 79.0793L96.1959 79.9893L94.9849 79.7093L94.6209 80.8983L94.2569 79.7093L93.0449 79.9893L93.8929 79.0793L93.0449 78.1703L94.2569 78.4493L94.6209 77.2603Z" fill="#FBDA20"/>
<path id="Fill 11" fill-rule="evenodd" clip-rule="evenodd" d="M105.536 77.2603L105.9 78.4493L107.112 78.1703L106.264 79.0793L107.112 79.9893L105.9 79.7093L105.536 80.8983L105.172 79.7093L103.96 79.9893L104.808 79.0793L103.96 78.1703L105.172 78.4493L105.536 77.2603Z" fill="#FBDA20"/>
<path id="Fill 12" fill-rule="evenodd" clip-rule="evenodd" d="M82.0349 78.7471L83.6459 102.517C84.3039 112.226 90.8149 120.552 100.079 123.531C109.342 120.552 115.853 112.226 116.511 102.517L118.122 78.7471C118.572 78.9611 119.026 79.1671 119.483 79.3651L117.908 102.611C117.201 113.056 110.101 121.972 100.079 124.999C90.0559 121.972 82.9559 113.056 82.2479 102.611L80.6729 79.3651C81.1309 79.1671 81.5849 78.9611 82.0349 78.7471Z" fill="#D8272D"/>
</g>
</g>
</g>
</svg>
