<svg width="350" height="250" viewBox="0 0 350 250" fill="none" xmlns="http://www.w3.org/2000/svg">
<g id="flag / asia / malaysia / b">
<g id="malaysia b">
<g id="red">
<path fill-rule="evenodd" clip-rule="evenodd" d="M325 189.286V178.571H25V189.286H325ZM325 157.143V167.857H25V157.143H325ZM325 146.429V135.714H175H25V146.429H325ZM325 114.285V125H175V114.285H325ZM325 103.571V92.857H175V103.571H325ZM325 71.428V82.143H175V71.428H325ZM325 60.714V50H175V60.714H325Z" fill="white" fill-opacity="0.5"/>
<path d="M325 178.571H326V177.571H325V178.571ZM325 189.286V190.286H326V189.286H325ZM25 178.571V177.571H24V178.571H25ZM25 189.286H24V190.286H25V189.286ZM325 167.857V168.857H326V167.857H325ZM325 157.143H326V156.143H325V157.143ZM25 167.857H24V168.857H25V167.857ZM25 157.143V156.143H24V157.143H25ZM325 135.714H326V134.714H325V135.714ZM325 146.429V147.429H326V146.429H325ZM25 135.714V134.714H24V135.714H25ZM25 146.429H24V147.429H25V146.429ZM325 125V126H326V125H325ZM325 114.285H326V113.285H325V114.285ZM175 125H174V126H175V125ZM175 114.285V113.285H174V114.285H175ZM325 92.857H326V91.857H325V92.857ZM325 103.571V104.571H326V103.571H325ZM175 92.857V91.857H174V92.857H175ZM175 103.571H174V104.571H175V103.571ZM325 82.143V83.143H326V82.143H325ZM325 71.428H326V70.428H325V71.428ZM175 82.143H174V83.143H175V82.143ZM175 71.428V70.428H174V71.428H175ZM325 60.714V61.714H326V60.714H325ZM325 50H326V49H325V50ZM175 50V49H174V50H175ZM175 60.714H174V61.714H175V60.714ZM324 178.571V189.286H326V178.571H324ZM25 179.571H325V177.571H25V179.571ZM26 189.286V178.571H24V189.286H26ZM325 188.286H25V190.286H325V188.286ZM326 167.857V157.143H324V167.857H326ZM25 168.857H325V166.857H25V168.857ZM24 157.143V167.857H26V157.143H24ZM325 156.143H25V158.143H325V156.143ZM324 135.714V146.429H326V135.714H324ZM175 136.714H325V134.714H175V136.714ZM25 136.714H175V134.714H25V136.714ZM26 146.429V135.714H24V146.429H26ZM325 145.429H25V147.429H325V145.429ZM326 125V114.285H324V125H326ZM175 126H325V124H175V126ZM174 114.285V125H176V114.285H174ZM325 113.285H175V115.285H325V113.285ZM324 92.857V103.571H326V92.857H324ZM175 93.857H325V91.857H175V93.857ZM176 103.571V92.857H174V103.571H176ZM325 102.571H175V104.571H325V102.571ZM326 82.143V71.428H324V82.143H326ZM175 83.143H325V81.143H175V83.143ZM174 71.428V82.143H176V71.428H174ZM175 72.428H325V70.428H175V72.428ZM326 60.714V50H324V60.714H326ZM325 49H175V51H325V49ZM174 50V60.714H176V50H174ZM325 59.714H175V61.714H325V59.714Z" fill="white"/>
</g>
<g id="white">
<path fill-rule="evenodd" clip-rule="evenodd" d="M325 71.428H175V60.714H325V71.428ZM175 92.857H325V82.143H175V92.857ZM325 114.285H175V103.571H325V114.285ZM175 135.714H325V125H175V135.714ZM25 157.143V146.429H325V157.143H25ZM325 178.571V167.857H25V178.571H325ZM325 199.94V189.286H25V199.94H325Z" fill="white" fill-opacity="0.5"/>
<path d="M175 71.428H174V72.428H175V71.428ZM325 71.428V72.428H326V71.428H325ZM175 60.714V59.714H174V60.714H175ZM325 60.714H326V59.714H325V60.714ZM325 92.857V93.857H326V92.857H325ZM175 92.857H174V93.857H175V92.857ZM325 82.143H326V81.143H325V82.143ZM175 82.143V81.143H174V82.143H175ZM175 114.285H174V115.285H175V114.285ZM325 114.285V115.285H326V114.285H325ZM175 103.571V102.571H174V103.571H175ZM325 103.571H326V102.571H325V103.571ZM325 135.714V136.714H326V135.714H325ZM175 135.714H174V136.714H175V135.714ZM325 125H326V124H325V125ZM175 125V124H174V125H175ZM25 146.429V145.429H24V146.429H25ZM25 157.143H24V158.143H25V157.143ZM325 146.429H326V145.429H325V146.429ZM325 157.143V158.143H326V157.143H325ZM325 167.857H326V166.857H325V167.857ZM325 178.571V179.571H326V178.571H325ZM25 167.857V166.857H24V167.857H25ZM25 178.571H24V179.571H25V178.571ZM325 189.286H326V188.286H325V189.286ZM325 199.94V200.94H326V199.94H325ZM25 189.286V188.286H24V189.286H25ZM25 199.94H24V200.94H25V199.94ZM175 72.428H325V70.428H175V72.428ZM174 60.714V71.428H176V60.714H174ZM325 59.714H175V61.714H325V59.714ZM326 71.428V60.714H324V71.428H326ZM325 91.857H175V93.857H325V91.857ZM324 82.143V92.857H326V82.143H324ZM175 83.143H325V81.143H175V83.143ZM176 92.857V82.143H174V92.857H176ZM175 115.285H325V113.285H175V115.285ZM174 103.571V114.285H176V103.571H174ZM325 102.571H175V104.571H325V102.571ZM326 114.285V103.571H324V114.285H326ZM325 134.714H175V136.714H325V134.714ZM324 125V135.714H326V125H324ZM175 126H325V124H175V126ZM176 135.714V125H174V135.714H176ZM24 146.429V157.143H26V146.429H24ZM325 145.429H25V147.429H325V145.429ZM326 157.143V146.429H324V157.143H326ZM25 158.143H325V156.143H25V158.143ZM324 167.857V178.571H326V167.857H324ZM25 168.857H325V166.857H25V168.857ZM26 178.571V167.857H24V178.571H26ZM325 177.571H25V179.571H325V177.571ZM324 189.286V199.94H326V189.286H324ZM25 190.286H325V188.286H25V190.286ZM26 199.94V189.286H24V199.94H26ZM325 198.94H25V200.94H325V198.94Z" fill="white"/>
</g>
<g id="blue">
<path fill-rule="evenodd" clip-rule="evenodd" d="M25 135.714H175V50H25V135.714ZM86.714 60.714C68.913 60.714 54.464 75.115 54.464 92.857C54.464 110.599 68.913 125 86.714 125C93.146 125 99.138 123.118 104.171 119.88C101.24 120.892 98.095 121.445 94.82 121.445C79.035 121.445 66.224 108.676 66.224 92.944C66.224 77.211 79.035 64.443 94.82 64.443C98.309 64.443 101.65 65.066 104.742 66.207C99.595 62.74 93.39 60.714 86.714 60.714ZM126.612 102.502L140.196 109.59L130.124 98.22L145.517 98.858L131.384 92.876L145.536 86.937L130.141 87.528L140.249 76.189L126.642 83.236L130.705 68.742L121.58 80.849L118.792 66.071L115.958 80.84L106.872 68.706L110.888 83.212L97.303 76.124L107.376 87.494L91.983 86.856L106.116 92.838L91.964 98.777L107.359 98.186L97.251 109.525L110.858 102.479L106.795 116.972L115.92 104.865L118.708 119.643L121.542 104.874L130.628 117.008L126.612 102.502Z" fill="white" fill-opacity="0.5"/>
<path d="M175 135.714V136.714H176V135.714H175ZM25 135.714H24V136.714H25V135.714ZM175 50H176V49H175V50ZM25 50V49H24V50H25ZM104.171 119.88L104.712 120.721L103.845 118.935L104.171 119.88ZM104.742 66.207L104.396 67.1452L105.301 65.3776L104.742 66.207ZM140.196 109.59L139.733 110.477L140.945 108.927L140.196 109.59ZM126.612 102.502L127.075 101.615L125.034 100.551L125.648 102.769L126.612 102.502ZM130.124 98.22L130.165 97.2209L127.817 97.1235L129.375 98.8831L130.124 98.22ZM145.517 98.858L145.476 99.8571L145.907 97.9371L145.517 98.858ZM131.384 92.876L130.997 91.9539L128.809 92.8721L130.994 93.7969L131.384 92.876ZM145.536 86.937L145.923 87.8591L145.498 85.9377L145.536 86.937ZM130.141 87.528L129.395 86.8626L127.83 88.6174L130.179 88.5273L130.141 87.528ZM140.249 76.189L140.995 76.8544L139.789 75.301L140.249 76.189ZM126.642 83.236L125.679 82.9661L125.058 85.1826L127.102 84.124L126.642 83.236ZM130.705 68.742L131.668 69.0119L129.906 68.1401L130.705 68.742ZM121.58 80.849L120.597 81.0344L121.017 83.2577L122.379 81.4509L121.58 80.849ZM118.792 66.071L119.775 65.8856L117.81 65.8825L118.792 66.071ZM115.958 80.84L115.158 81.4394L116.514 83.2505L116.94 81.0285L115.958 80.84ZM106.872 68.706L107.672 68.1066L105.908 68.9728L106.872 68.706ZM110.888 83.212L110.425 84.0986L112.466 85.1631L111.852 82.9452L110.888 83.212ZM97.303 76.124L97.7656 75.2374L96.5545 76.7871L97.303 76.124ZM107.376 87.494L107.335 88.4931L109.683 88.5905L108.125 86.8309L107.376 87.494ZM91.983 86.856L92.0244 85.8569L91.5932 87.7769L91.983 86.856ZM106.116 92.838L106.503 93.7601L108.691 92.8419L106.506 91.9171L106.116 92.838ZM91.964 98.777L91.577 97.8549L92.0024 99.7763L91.964 98.777ZM107.359 98.186L108.105 98.8514L109.67 97.0966L107.321 97.1867L107.359 98.186ZM97.251 109.525L96.5045 108.86L97.7108 110.413L97.251 109.525ZM110.858 102.479L111.821 102.749L112.442 100.533L110.398 101.591L110.858 102.479ZM106.795 116.972L105.832 116.702L107.594 117.574L106.795 116.972ZM115.92 104.865L116.903 104.68L116.483 102.456L115.121 104.263L115.92 104.865ZM118.708 119.643L117.725 119.828L119.69 119.831L118.708 119.643ZM121.542 104.874L122.342 104.275L120.986 102.464L120.56 104.686L121.542 104.874ZM130.628 117.008L129.828 117.607L131.592 116.741L130.628 117.008ZM175 134.714H25V136.714H175V134.714ZM174 50V135.714H176V50H174ZM25 51H175V49H25V51ZM26 135.714V50H24V135.714H26ZM55.464 92.857C55.464 75.6704 69.4622 61.714 86.714 61.714V59.714C68.3639 59.714 53.464 74.5596 53.464 92.857H55.464ZM86.714 124C69.4622 124 55.464 110.044 55.464 92.857H53.464C53.464 111.154 68.3639 126 86.714 126V124ZM103.63 119.039C98.7532 122.176 92.9482 124 86.714 124V126C93.3438 126 99.5228 124.06 104.712 120.721L103.63 119.039ZM94.82 122.445C98.2083 122.445 101.464 121.873 104.497 120.825L103.845 118.935C101.016 119.911 97.9817 120.445 94.82 120.445V122.445ZM65.224 92.944C65.224 109.231 78.4858 122.445 94.82 122.445V120.445C79.5842 120.445 67.224 108.121 67.224 92.944H65.224ZM94.82 63.443C78.4859 63.443 65.224 76.6556 65.224 92.944H67.224C67.224 77.7664 79.5841 65.443 94.82 65.443V63.443ZM105.088 65.2688C101.887 64.0876 98.4289 63.443 94.82 63.443V65.443C98.1891 65.443 101.413 66.0444 104.396 67.1452L105.088 65.2688ZM86.714 61.714C93.1848 61.714 99.1962 63.6771 104.183 67.0364L105.301 65.3776C99.9938 61.8029 93.5952 59.714 86.714 59.714V61.714ZM140.659 108.703L127.075 101.615L126.149 103.389L139.733 110.477L140.659 108.703ZM129.375 98.8831L139.447 110.253L140.945 108.927L130.873 97.5569L129.375 98.8831ZM145.558 97.8589L130.165 97.2209L130.083 99.2191L145.476 99.8571L145.558 97.8589ZM130.994 93.7969L145.127 99.7789L145.907 97.9371L131.774 91.9551L130.994 93.7969ZM145.149 86.0149L130.997 91.9539L131.771 93.7981L145.923 87.8591L145.149 86.0149ZM130.179 88.5273L145.574 87.9363L145.498 85.9377L130.103 86.5287L130.179 88.5273ZM139.503 75.5236L129.395 86.8626L130.887 88.1934L140.995 76.8544L139.503 75.5236ZM127.102 84.124L140.709 77.077L139.789 75.301L126.182 82.348L127.102 84.124ZM129.742 68.4721L125.679 82.9661L127.605 83.5059L131.668 69.0119L129.742 68.4721ZM122.379 81.4509L131.504 69.3439L129.906 68.1401L120.781 80.2471L122.379 81.4509ZM117.809 66.2564L120.597 81.0344L122.563 80.6636L119.775 65.8856L117.809 66.2564ZM116.94 81.0285L119.774 66.2594L117.81 65.8825L114.976 80.6516L116.94 81.0285ZM106.072 69.3054L115.158 81.4394L116.758 80.2406L107.672 68.1066L106.072 69.3054ZM111.852 82.9452L107.836 68.4392L105.908 68.9728L109.924 83.4788L111.852 82.9452ZM96.8404 77.0106L110.425 84.0986L111.351 82.3254L97.7656 75.2374L96.8404 77.0106ZM108.125 86.8309L98.0515 75.4609L96.5545 76.7871L106.627 88.1571L108.125 86.8309ZM91.9416 87.8551L107.335 88.4931L107.417 86.4949L92.0244 85.8569L91.9416 87.8551ZM106.506 91.9171L92.3728 85.9351L91.5932 87.7769L105.726 93.7589L106.506 91.9171ZM92.351 99.6991L106.503 93.7601L105.729 91.9159L91.577 97.8549L92.351 99.6991ZM107.321 97.1867L91.9256 97.7777L92.0024 99.7763L107.397 99.1853L107.321 97.1867ZM97.9975 110.19L108.105 98.8514L106.613 97.5206L96.5045 108.86L97.9975 110.19ZM110.398 101.591L96.7912 108.637L97.7108 110.413L111.318 103.367L110.398 101.591ZM107.758 117.242L111.821 102.749L109.895 102.209L105.832 116.702L107.758 117.242ZM115.121 104.263L105.996 116.37L107.594 117.574L116.719 105.467L115.121 104.263ZM119.691 119.458L116.903 104.68L114.937 105.05L117.725 119.828L119.691 119.458ZM120.56 104.686L117.726 119.455L119.69 119.831L122.524 105.062L120.56 104.686ZM131.428 116.409L122.342 104.275L120.742 105.473L129.828 117.607L131.428 116.409ZM125.648 102.769L129.664 117.275L131.592 116.741L127.576 102.235L125.648 102.769Z" fill="white"/>
</g>
<g id="yellow">
<path fill-rule="evenodd" clip-rule="evenodd" d="M54.4639 92.857C54.4639 75.115 68.9129 60.714 86.7139 60.714C93.3899 60.714 99.5949 62.74 104.742 66.207C101.65 65.066 98.3089 64.443 94.8199 64.443C79.0349 64.443 66.2239 77.211 66.2239 92.944C66.2239 108.676 79.0349 121.445 94.8199 121.445C98.0949 121.445 101.24 120.892 104.171 119.88C99.1379 123.118 93.1459 125 86.7139 125C68.9129 125 54.4639 110.599 54.4639 92.857ZM126.612 102.502L140.196 109.59L130.124 98.22L145.517 98.858L131.384 92.876L145.536 86.937L130.141 87.528L140.249 76.189L126.642 83.236L130.705 68.742L121.58 80.849L118.792 66.071L115.958 80.84L106.872 68.706L110.888 83.212L97.3029 76.124L107.376 87.494L91.9829 86.856L106.116 92.838L91.9639 98.777L107.359 98.186L97.2509 109.525L110.858 102.479L106.795 116.972L115.92 104.865L118.708 119.643L121.542 104.874L130.628 117.008L126.612 102.502Z" fill="white" fill-opacity="0.5"/>
<path d="M104.742 66.207L104.396 67.1452L105.301 65.3776L104.742 66.207ZM104.171 119.88L104.712 120.721L103.844 118.935L104.171 119.88ZM140.196 109.59L139.733 110.477L140.944 108.927L140.196 109.59ZM126.612 102.502L127.074 101.615L125.034 100.551L125.648 102.769L126.612 102.502ZM130.124 98.22L130.165 97.2208L127.817 97.1235L129.375 98.8831L130.124 98.22ZM145.517 98.858L145.475 99.8571L145.907 97.9371L145.517 98.858ZM131.384 92.876L130.997 91.9539L128.809 92.872L130.994 93.7969L131.384 92.876ZM145.536 86.937L145.923 87.8591L145.498 85.9377L145.536 86.937ZM130.141 87.528L129.394 86.8626L127.83 88.6174L130.179 88.5273L130.141 87.528ZM140.249 76.189L140.995 76.8544L139.789 75.301L140.249 76.189ZM126.642 83.236L125.679 82.9661L125.058 85.1826L127.102 84.124L126.642 83.236ZM130.705 68.742L131.668 69.0119L129.906 68.1401L130.705 68.742ZM121.58 80.849L120.597 81.0344L121.017 83.2577L122.378 81.4509L121.58 80.849ZM118.792 66.071L119.775 65.8856L117.81 65.8825L118.792 66.071ZM115.958 80.84L115.157 81.4394L116.514 83.2505L116.94 81.0284L115.958 80.84ZM106.872 68.706L107.672 68.1066L105.908 68.9728L106.872 68.706ZM110.888 83.212L110.425 84.0986L112.466 85.1631L111.852 82.9452L110.888 83.212ZM97.3029 76.124L97.7654 75.2374L96.5544 76.7871L97.3029 76.124ZM107.376 87.494L107.334 88.4931L109.683 88.5905L108.124 86.8309L107.376 87.494ZM91.9829 86.856L92.0243 85.8568L91.5931 87.7769L91.9829 86.856ZM106.116 92.838L106.503 93.7601L108.691 92.8419L106.506 91.9171L106.116 92.838ZM91.9639 98.777L91.5769 97.8549L92.0022 99.7763L91.9639 98.777ZM107.359 98.186L108.105 98.8514L109.67 97.0965L107.321 97.1867L107.359 98.186ZM97.2509 109.525L96.5044 108.86L97.7107 110.413L97.2509 109.525ZM110.858 102.479L111.821 102.749L112.442 100.533L110.398 101.591L110.858 102.479ZM106.795 116.972L105.832 116.702L107.593 117.574L106.795 116.972ZM115.92 104.865L116.903 104.68L116.483 102.456L115.121 104.263L115.92 104.865ZM118.708 119.643L117.725 119.828L119.69 119.831L118.708 119.643ZM121.542 104.874L122.342 104.275L120.986 102.464L120.56 104.686L121.542 104.874ZM130.628 117.008L129.827 117.607L131.592 116.741L130.628 117.008ZM86.7139 59.714C68.3637 59.714 53.4639 74.5596 53.4639 92.857H55.4639C55.4639 75.6704 69.462 61.714 86.7139 61.714V59.714ZM105.301 65.3776C99.9937 61.8029 93.5951 59.714 86.7139 59.714V61.714C93.1846 61.714 99.1961 63.6771 104.183 67.0364L105.301 65.3776ZM94.8199 65.443C98.1889 65.443 101.413 66.0444 104.396 67.1452L105.088 65.2688C101.887 64.0875 98.4288 63.443 94.8199 63.443V65.443ZM67.2239 92.944C67.2239 77.7664 79.584 65.443 94.8199 65.443V63.443C78.4857 63.443 65.2239 76.6556 65.2239 92.944H67.2239ZM94.8199 120.445C79.584 120.445 67.2239 108.121 67.2239 92.944H65.2239C65.2239 109.231 78.4857 122.445 94.8199 122.445V120.445ZM103.844 118.935C101.016 119.911 97.9815 120.445 94.8199 120.445V122.445C98.2082 122.445 101.463 121.873 104.497 120.825L103.844 118.935ZM86.7139 126C93.3437 126 99.5227 124.06 104.712 120.721L103.63 119.039C98.7531 122.176 92.948 124 86.7139 124V126ZM53.4639 92.857C53.4639 111.154 68.3637 126 86.7139 126V124C69.462 124 55.4639 110.044 55.4639 92.857H53.4639ZM140.658 108.703L127.074 101.615L126.149 103.389L139.733 110.477L140.658 108.703ZM129.375 98.8831L139.447 110.253L140.944 108.927L130.872 97.5569L129.375 98.8831ZM145.558 97.8588L130.165 97.2208L130.082 99.2191L145.475 99.8571L145.558 97.8588ZM130.994 93.7969L145.127 99.7789L145.907 97.9371L131.774 91.9551L130.994 93.7969ZM145.149 86.0149L130.997 91.9539L131.771 93.7981L145.923 87.8591L145.149 86.0149ZM130.179 88.5273L145.574 87.9363L145.498 85.9377L130.103 86.5287L130.179 88.5273ZM139.502 75.5236L129.394 86.8626L130.887 88.1934L140.995 76.8544L139.502 75.5236ZM127.102 84.124L140.709 77.077L139.789 75.301L126.182 82.348L127.102 84.124ZM129.742 68.4721L125.679 82.9661L127.605 83.5059L131.668 69.0119L129.742 68.4721ZM122.378 81.4509L131.503 69.3439L129.906 68.1401L120.781 80.2471L122.378 81.4509ZM117.809 66.2564L120.597 81.0344L122.563 80.6636L119.775 65.8856L117.809 66.2564ZM116.94 81.0284L119.774 66.2594L117.81 65.8825L114.976 80.6515L116.94 81.0284ZM106.071 69.3054L115.157 81.4394L116.758 80.2406L107.672 68.1066L106.071 69.3054ZM111.852 82.9452L107.836 68.4392L105.908 68.9728L109.924 83.4788L111.852 82.9452ZM96.8403 77.0106L110.425 84.0986L111.35 82.3254L97.7654 75.2374L96.8403 77.0106ZM108.124 86.8309L98.0514 75.4609L96.5544 76.7871L106.627 88.1571L108.124 86.8309ZM91.9415 87.8551L107.334 88.4931L107.417 86.4948L92.0243 85.8568L91.9415 87.8551ZM106.506 91.9171L92.3727 85.9351L91.5931 87.7769L105.726 93.7589L106.506 91.9171ZM92.3508 99.6991L106.503 93.7601L105.729 91.9159L91.5769 97.8549L92.3508 99.6991ZM107.321 97.1867L91.9255 97.7777L92.0022 99.7763L107.397 99.1853L107.321 97.1867ZM97.9973 110.19L108.105 98.8514L106.612 97.5206L96.5044 108.86L97.9973 110.19ZM110.398 101.591L96.791 108.637L97.7107 110.413L111.318 103.367L110.398 101.591ZM107.758 117.242L111.821 102.749L109.895 102.209L105.832 116.702L107.758 117.242ZM115.121 104.263L105.996 116.37L107.593 117.574L116.718 105.467L115.121 104.263ZM119.691 119.458L116.903 104.68L114.937 105.05L117.725 119.828L119.691 119.458ZM120.56 104.686L117.726 119.455L119.69 119.831L122.524 105.062L120.56 104.686ZM131.428 116.409L122.342 104.275L120.741 105.473L129.827 117.607L131.428 116.409ZM125.648 102.769L129.664 117.275L131.592 116.741L127.576 102.235L125.648 102.769Z" fill="white"/>
</g>
</g>
</g>
</svg>
