<svg width="350" height="250" viewBox="0 0 350 250" fill="none" xmlns="http://www.w3.org/2000/svg">
<g id="flag / africa / south africa / a">
<g id="south africa a">
<g id="Fill 1" filter="url(#filter0_b_7_59253)">
<path fill-rule="evenodd" clip-rule="evenodd" d="M184.999 158L85 224.667H324.907V158H184.999Z" fill="#002395"/>
</g>
<g id="Fill 5" filter="url(#filter1_b_7_59253)">
<path fill-rule="evenodd" clip-rule="evenodd" d="M85 25L184.999 91.667H324.907V25H85Z" fill="#DE3831"/>
</g>
<g id="Combined Shape" filter="url(#filter2_b_7_59253)">
<path fill-rule="evenodd" clip-rule="evenodd" d="M181.001 105L61.0004 25H85.0384L185.037 91.667H324.945V105H181.001ZM61 225L181.001 145H324.945V158.334H185.037L85.039 225H61Z" fill="white"/>
</g>
<g id="Fill 16" filter="url(#filter3_b_7_59253)">
<path fill-rule="evenodd" clip-rule="evenodd" d="M25 124.944V188.888L120.917 124.944L25 61V124.944Z" fill="black"/>
</g>
<g id="Fill 17" filter="url(#filter4_b_7_59253)">
<path fill-rule="evenodd" clip-rule="evenodd" d="M25 61.019L120.917 124.963L25 188.907V200.926L138.945 124.963L25 49V61.019Z" fill="#FFB612"/>
</g>
<path id="Fill 18" fill-rule="evenodd" clip-rule="evenodd" d="M25 25V49.037L138.945 125L25 200.963V225H61.055L181.055 145H325V105H181.055L61.055 25H25Z" fill="#007A4D"/>
</g>
</g>
<defs>
<filter id="filter0_b_7_59253" x="30.6344" y="103.634" width="348.638" height="175.398" filterUnits="userSpaceOnUse" color-interpolation-filters="sRGB">
<feFlood flood-opacity="0" result="BackgroundImageFix"/>
<feGaussianBlur in="BackgroundImageFix" stdDeviation="27.1828"/>
<feComposite in2="SourceAlpha" operator="in" result="effect1_backgroundBlur_7_59253"/>
<feBlend mode="normal" in="SourceGraphic" in2="effect1_backgroundBlur_7_59253" result="shape"/>
</filter>
<filter id="filter1_b_7_59253" x="30.6344" y="-29.3656" width="348.638" height="175.398" filterUnits="userSpaceOnUse" color-interpolation-filters="sRGB">
<feFlood flood-opacity="0" result="BackgroundImageFix"/>
<feGaussianBlur in="BackgroundImageFix" stdDeviation="27.1828"/>
<feComposite in2="SourceAlpha" operator="in" result="effect1_backgroundBlur_7_59253"/>
<feBlend mode="normal" in="SourceGraphic" in2="effect1_backgroundBlur_7_59253" result="shape"/>
</filter>
<filter id="filter2_b_7_59253" x="6.63437" y="-29.3656" width="372.677" height="308.731" filterUnits="userSpaceOnUse" color-interpolation-filters="sRGB">
<feFlood flood-opacity="0" result="BackgroundImageFix"/>
<feGaussianBlur in="BackgroundImageFix" stdDeviation="27.1828"/>
<feComposite in2="SourceAlpha" operator="in" result="effect1_backgroundBlur_7_59253"/>
<feBlend mode="normal" in="SourceGraphic" in2="effect1_backgroundBlur_7_59253" result="shape"/>
</filter>
<filter id="filter3_b_7_59253" x="-29.3656" y="6.63437" width="204.648" height="236.619" filterUnits="userSpaceOnUse" color-interpolation-filters="sRGB">
<feFlood flood-opacity="0" result="BackgroundImageFix"/>
<feGaussianBlur in="BackgroundImageFix" stdDeviation="27.1828"/>
<feComposite in2="SourceAlpha" operator="in" result="effect1_backgroundBlur_7_59253"/>
<feBlend mode="normal" in="SourceGraphic" in2="effect1_backgroundBlur_7_59253" result="shape"/>
</filter>
<filter id="filter4_b_7_59253" x="-29.3656" y="-5.36563" width="222.677" height="260.657" filterUnits="userSpaceOnUse" color-interpolation-filters="sRGB">
<feFlood flood-opacity="0" result="BackgroundImageFix"/>
<feGaussianBlur in="BackgroundImageFix" stdDeviation="27.1828"/>
<feComposite in2="SourceAlpha" operator="in" result="effect1_backgroundBlur_7_59253"/>
<feBlend mode="normal" in="SourceGraphic" in2="effect1_backgroundBlur_7_59253" result="shape"/>
</filter>
</defs>
</svg>
