<svg width="350" height="250" viewBox="0 0 350 250" fill="none" xmlns="http://www.w3.org/2000/svg">
<g id="flag / europe / iceland / b">
<g id="iceland b">
<g id="blue">
<path fill-rule="evenodd" clip-rule="evenodd" d="M157 233H325V149H157V233ZM109 233V149H25V233H109ZM157 101H325V17H157V101ZM109 17V101H25V17H109Z" fill="white" fill-opacity="0.5"/>
<path d="M325 233V234H326V233H325ZM157 233H156V234H157V233ZM325 149H326V148H325V149ZM157 149V148H156V149H157ZM109 233V234H110V233H109ZM109 149H110V148H109V149ZM25 149V148H24V149H25ZM25 233H24V234H25V233ZM157 101H156V102H157V101ZM325 101V102H326V101H325ZM325 17H326V16H325V17ZM157 17V16H156V17H157ZM109 101V102H110V101H109ZM109 17H110V16H109V17ZM25 101H24V102H25V101ZM25 17V16H24V17H25ZM325 232H157V234H325V232ZM324 149V233H326V149H324ZM157 150H325V148H157V150ZM156 149V233H158V149H156ZM110 233V149H108V233H110ZM25 150H109V148H25V150ZM26 233V149H24V233H26ZM109 232H25V234H109V232ZM157 102H325V100H157V102ZM326 101V17H324V101H326ZM325 16H157V18H325V16ZM156 17V101H158V17H156ZM110 101V17H108V101H110ZM25 102H109V100H25V102ZM24 17V101H26V17H24ZM109 16H25V18H109V16Z" fill="white"/>
</g>
<g id="white">
<path fill-rule="evenodd" clip-rule="evenodd" d="M121 17H109V101H25V113H121V17ZM145 17V113H325V101H157V17H145ZM121 137H25V149H109V233H121V137ZM145 233H157V149H325V137H145V233Z" fill="white" fill-opacity="0.5"/>
<path d="M109 17V16H108V17H109ZM121 17H122V16H121V17ZM109 101V102H110V101H109ZM25 101V100H24V101H25ZM25 113H24V114H25V113ZM121 113V114H122V113H121ZM145 17V16H144V17H145ZM145 113H144V114H145V113ZM325 113V114H326V113H325ZM325 101H326V100H325V101ZM157 101H156V102H157V101ZM157 17H158V16H157V17ZM121 137H122V136H121V137ZM25 137V136H24V137H25ZM25 149H24V150H25V149ZM109 149H110V148H109V149ZM109 233H108V234H109V233ZM121 233V234H122V233H121ZM145 233H144V234H145V233ZM157 233V234H158V233H157ZM157 149V148H156V149H157ZM325 149V150H326V149H325ZM325 137H326V136H325V137ZM145 137V136H144V137H145ZM109 18H121V16H109V18ZM110 101V17H108V101H110ZM25 102H109V100H25V102ZM26 113V101H24V113H26ZM121 112H25V114H121V112ZM122 113V17H120V113H122ZM144 17V113H146V17H144ZM325 112H145V114H325V112ZM324 101V113H326V101H324ZM157 102H325V100H157V102ZM156 17V101H158V17H156ZM145 18H157V16H145V18ZM121 136H25V138H121V136ZM24 137V149H26V137H24ZM25 150H109V148H25V150ZM108 149V233H110V149H108ZM109 234H121V232H109V234ZM122 233V137H120V233H122ZM145 234H157V232H145V234ZM158 233V149H156V233H158ZM157 150H325V148H157V150ZM326 149V137H324V149H326ZM325 136H145V138H325V136ZM144 137V233H146V137H144Z" fill="white"/>
</g>
<g id="red">
<path fill-rule="evenodd" clip-rule="evenodd" d="M145 17H121V113H25V137H121V233H145V137H325V113H145V17Z" fill="white" fill-opacity="0.5"/>
<path d="M121 17V16H120V17H121ZM145 17H146V16H145V17ZM121 113V114H122V113H121ZM25 113V112H24V113H25ZM25 137H24V138H25V137ZM121 137H122V136H121V137ZM121 233H120V234H121V233ZM145 233V234H146V233H145ZM145 137V136H144V137H145ZM325 137V138H326V137H325ZM325 113H326V112H325V113ZM145 113H144V114H145V113ZM121 18H145V16H121V18ZM122 113V17H120V113H122ZM25 114H121V112H25V114ZM26 137V113H24V137H26ZM121 136H25V138H121V136ZM122 233V137H120V233H122ZM145 232H121V234H145V232ZM144 137V233H146V137H144ZM325 136H145V138H325V136ZM324 113V137H326V113H324ZM145 114H325V112H145V114ZM144 17V113H146V17H144Z" fill="white"/>
</g>
</g>
</g>
</svg>
