<svg width="350" height="250" viewBox="0 0 350 250" fill="none" xmlns="http://www.w3.org/2000/svg">
<g id="flag / south america / uruguay / a">
<g id="uruguay a">
<path id="white" fill-rule="evenodd" clip-rule="evenodd" d="M25 225H325V202.778H25V225ZM25 180.556V158.333H325V180.556H25ZM25 136.111H325V113.889H136.111V91.667H325V69.444H136.111V47.222H325V25H25V136.111Z" fill="white"/>
<path id="blue" fill-rule="evenodd" clip-rule="evenodd" d="M325 69.4439H136.111V47.2219H325V69.4439ZM325 113.889H136.111V91.6669H325V113.889ZM25 158.333H325V136.111H25V158.333ZM325 202.778H25V180.556H325V202.778Z" fill="#233A82"/>
<g id="sun">
<path id="Fill 6" fill-rule="evenodd" clip-rule="evenodd" d="M78.0401 91.4199L81.7181 96.9119C66.6041 107.85 75.8311 114.318 65.1201 117.819C71.7821 111.318 64.0721 110.77 69.6841 97.2189" fill="#F6CD2B"/>
<path id="Stroke 7" d="M78.0401 91.4199L81.7181 96.9119C66.6041 107.85 75.8311 114.318 65.1201 117.819C71.7821 111.318 64.0721 110.77 69.6841 97.2189" stroke="#0A0B09" stroke-width="0.2" stroke-linecap="square"/>
<path id="Stroke 8" d="M75.4101 92.9768C67.0721 106.721 72.5411 114.278 65.1201 117.819" stroke="#0A0B09" stroke-width="0.2"/>
<path id="Fill 9" fill-rule="evenodd" clip-rule="evenodd" d="M80.5552 80.5559H87.8892L80.5552 120.889L73.2222 80.5559H80.5552V120.889Z" fill="#F6CD2B"/>
<path id="Stroke 10" d="M80.5552 80.5559H87.8892L80.5552 120.889L73.2222 80.5559H80.5552V120.889" stroke="#0A0B09" stroke-width="0.2"/>
<path id="Fill 11" fill-rule="evenodd" clip-rule="evenodd" d="M71.094 86.4589L69.812 92.9429C51.39 89.9899 53.341 101.089 43.292 95.9909C52.6 96.1039 47.535 90.2639 61.085 84.6519" fill="#F6CD2B"/>
<path id="Stroke 12" d="M71.094 86.4589L69.812 92.9429C51.39 89.9899 53.341 101.089 43.292 95.9909C52.6 96.1039 47.535 90.2639 61.085 84.6519" stroke="#0A0B09" stroke-width="0.2" stroke-linecap="square"/>
<path id="Stroke 13" d="M68.134 85.7009C52.519 89.5229 51.043 98.7329 43.292 95.9909" stroke="#0A0B09" stroke-width="0.2"/>
<path id="Fill 14" fill-rule="evenodd" clip-rule="evenodd" d="M80.5552 80.5559L85.7412 85.7409L52.0352 109.076L75.3702 75.3699L80.5552 80.5559L52.0352 109.076Z" fill="#F6CD2B"/>
<path id="Stroke 15" d="M80.5552 80.5559L85.7412 85.7409L52.0352 109.076L75.3702 75.3699L80.5552 80.5559L52.0352 109.076" stroke="#0A0B09" stroke-width="0.2"/>
<path id="Fill 16" fill-rule="evenodd" clip-rule="evenodd" d="M69.691 78.0398L64.199 81.7178C53.261 66.6038 46.793 75.8308 43.292 65.1208C49.794 71.7818 50.341 64.0718 63.892 69.6848" fill="#F6CD2B"/>
<path id="Stroke 17" d="M69.691 78.0398L64.199 81.7178C53.261 66.6038 46.793 75.8308 43.292 65.1208C49.794 71.7818 50.341 64.0718 63.892 69.6848" stroke="#0A0B09" stroke-width="0.2" stroke-linecap="square"/>
<path id="Stroke 18" d="M68.134 75.4108C54.391 67.0718 46.834 72.5408 43.292 65.1208" stroke="#0A0B09" stroke-width="0.2"/>
<path id="Fill 19" fill-rule="evenodd" clip-rule="evenodd" d="M80.5552 80.5559V87.8889L40.2222 80.5559L80.5552 73.2219V80.5559H40.2222Z" fill="#F6CD2B"/>
<path id="Stroke 20" d="M80.5552 80.5559V87.8889L40.2222 80.5559L80.5552 73.2219V80.5559H40.2222" stroke="#0A0B09" stroke-width="0.2"/>
<path id="Fill 21" fill-rule="evenodd" clip-rule="evenodd" d="M74.6521 71.094L68.1681 69.812C71.1211 51.391 60.0231 53.342 65.1201 43.293C65.0071 52.6 70.8471 47.535 76.4591 61.086" fill="#F6CD2B"/>
<path id="Stroke 22" d="M74.6521 71.094L68.1681 69.812C71.1211 51.391 60.0231 53.342 65.1201 43.293C65.0071 52.6 70.8471 47.535 76.4591 61.086" stroke="#0A0B09" stroke-width="0.2" stroke-linecap="square"/>
<path id="Stroke 23" d="M75.4101 68.134C71.5881 52.52 62.3781 51.043 65.1201 43.293" stroke="#0A0B09" stroke-width="0.2"/>
<path id="Fill 24" fill-rule="evenodd" clip-rule="evenodd" d="M80.5552 80.5559L75.3702 85.7409L52.0352 52.0359L85.7412 75.3699L80.5552 80.5559L52.0352 52.0359Z" fill="#F6CD2B"/>
<path id="Stroke 25" d="M80.5552 80.5559L75.3702 85.7409L52.0352 52.0359L85.7412 75.3699L80.5552 80.5559L52.0352 52.0359" stroke="#0A0B09" stroke-width="0.2"/>
<path id="Fill 26" fill-rule="evenodd" clip-rule="evenodd" d="M83.0711 69.691L79.3931 64.199C94.5071 53.261 85.2801 46.794 95.9901 43.293C89.3291 49.794 97.0391 50.341 91.4271 63.892" fill="#F6CD2B"/>
<path id="Stroke 27" d="M83.0711 69.691L79.3931 64.199C94.5071 53.261 85.2801 46.794 95.9901 43.293C89.3291 49.794 97.0391 50.341 91.4271 63.892" stroke="#0A0B09" stroke-width="0.2" stroke-linecap="square"/>
<path id="Stroke 28" d="M85.7012 68.134C94.0392 54.391 88.5702 46.834 95.9902 43.293" stroke="#0A0B09" stroke-width="0.2"/>
<path id="Fill 29" fill-rule="evenodd" clip-rule="evenodd" d="M80.5552 80.5559H73.2222L80.5552 40.2219L87.8892 80.5559H80.5552V40.2219Z" fill="#F6CD2B"/>
<path id="Stroke 30" d="M80.5552 80.5559H73.2222L80.5552 40.2219L87.8892 80.5559H80.5552V40.2219" stroke="#0A0B09" stroke-width="0.2"/>
<path id="Fill 31" fill-rule="evenodd" clip-rule="evenodd" d="M90.0171 74.6519L91.2991 68.1679C109.721 71.1209 107.769 60.0229 117.819 65.1209C108.511 65.0069 113.576 70.8469 100.026 76.4599" fill="#F6CD2B"/>
<path id="Stroke 32" d="M90.0171 74.6519L91.2991 68.1679C109.721 71.1209 107.769 60.0229 117.819 65.1209C108.511 65.0069 113.576 70.8469 100.026 76.4599" stroke="#0A0B09" stroke-width="0.2" stroke-linecap="square"/>
<path id="Stroke 33" d="M92.9771 75.4109C108.591 71.5889 110.068 62.3779 117.819 65.1209" stroke="#0A0B09" stroke-width="0.2"/>
<path id="Fill 34" fill-rule="evenodd" clip-rule="evenodd" d="M80.5551 80.5559L75.3701 75.3699L109.075 52.0359L85.7411 85.7409L80.5551 80.5559L109.075 52.0359Z" fill="#F6CD2B"/>
<path id="Stroke 35" d="M80.5551 80.5559L75.3701 75.3699L109.075 52.0359L85.7411 85.7409L80.5551 80.5559L109.075 52.0359" stroke="#0A0B09" stroke-width="0.2"/>
<path id="Fill 36" fill-rule="evenodd" clip-rule="evenodd" d="M91.4199 83.0708L96.9119 79.3928C107.85 94.5068 114.318 85.2798 117.819 95.9908C111.317 89.3288 110.769 97.0388 97.2189 91.4268" fill="#F6CD2B"/>
<path id="Stroke 37" d="M91.4199 83.0708L96.9119 79.3928C107.85 94.5068 114.318 85.2798 117.819 95.9908C111.317 89.3288 110.769 97.0388 97.2189 91.4268" stroke="#0A0B09" stroke-width="0.2" stroke-linecap="square"/>
<path id="Stroke 38" d="M92.9771 85.7009C106.72 94.0389 114.277 88.5709 117.819 95.9909" stroke="#0A0B09" stroke-width="0.2"/>
<path id="Fill 39" fill-rule="evenodd" clip-rule="evenodd" d="M80.5552 80.5559V73.2219L120.889 80.5559L80.5552 87.8889V80.5559H120.889Z" fill="#F6CD2B"/>
<path id="Stroke 40" d="M80.5552 80.5559V73.2219L120.889 80.5559L80.5552 87.8889V80.5559H120.889" stroke="#0A0B09" stroke-width="0.2"/>
<path id="Fill 41" fill-rule="evenodd" clip-rule="evenodd" d="M86.4594 90.0168L92.9434 91.2988C89.9904 109.721 101.088 107.77 95.9904 117.819C96.1044 108.511 90.2644 113.576 84.6514 100.026" fill="#F6CD2B"/>
<path id="Stroke 42" d="M86.4594 90.0168L92.9434 91.2988C89.9904 109.721 101.088 107.77 95.9904 117.819C96.1044 108.511 90.2644 113.576 84.6514 100.026" stroke="#0A0B09" stroke-width="0.2" stroke-linecap="square"/>
<path id="Stroke 43" d="M85.7012 92.9768C89.5222 108.591 98.7332 110.068 95.9902 117.819" stroke="#0A0B09" stroke-width="0.2"/>
<path id="Fill 44" fill-rule="evenodd" clip-rule="evenodd" d="M80.5551 80.5559L85.7411 75.3699L109.075 109.076L75.3701 85.7409L80.5551 80.5559L109.075 109.076Z" fill="#F6CD2B"/>
<path id="Stroke 45" d="M80.5551 80.5559L85.7411 75.3699L109.075 109.076L75.3701 85.7409L80.5551 80.5559L109.075 109.076" stroke="#0A0B09" stroke-width="0.2"/>
<path id="Fill 46" fill-rule="evenodd" clip-rule="evenodd" d="M80.5553 67.1108C87.9813 67.1108 94.0003 73.1298 94.0003 80.5558C94.0003 87.9808 87.9813 93.9998 80.5553 93.9998C73.1303 93.9998 67.1113 87.9808 67.1113 80.5558C67.1113 73.1298 73.1303 67.1108 80.5553 67.1108Z" fill="#F6CD2B"/>
<path id="Stroke 47" fill-rule="evenodd" clip-rule="evenodd" d="M80.5553 67.1108C87.9813 67.1108 94.0003 73.1298 94.0003 80.5558C94.0003 87.9808 87.9813 93.9998 80.5553 93.9998C73.1303 93.9998 67.1113 87.9808 67.1113 80.5558C67.1113 73.1298 73.1303 67.1108 80.5553 67.1108Z" stroke="#0A0B09" stroke-width="0.2"/>
<path id="Fill 48" fill-rule="evenodd" clip-rule="evenodd" d="M86.9113 76.278C87.7673 77.011 87.0333 78.6 86.1783 78.6C85.3223 78.6 83.7333 77.133 84.4663 76.156M90.4553 75.178C89.6003 76.156 89.1113 74.445 86.0553 74.445C83.0003 74.445 82.5113 76.278 82.0223 75.911C81.5333 75.545 84.5893 73.344 85.5673 73.222C86.5443 73.1 89.3553 74.078 90.4553 75.178Z" fill="#0A0B09"/>
<path id="Fill 49" fill-rule="evenodd" clip-rule="evenodd" d="M83.2439 77.745C83.7329 77.011 84.3439 78.478 85.6889 78.478C87.0329 78.478 87.7669 78.111 88.6219 77.5C89.4769 76.889 87.3999 78.967 86.0549 78.967C84.7109 78.967 82.8779 78.233 83.2439 77.745ZM82.8779 77.378C82.9999 75.911 84.2219 75.667 86.1779 75.667C88.1329 75.667 88.9889 77.133 89.7219 77.5C88.8659 77.5 88.1329 76.278 86.1779 76.278C84.2219 76.278 84.2219 76.278 82.8779 77.5" fill="#0A0B09"/>
<path id="Fill 50" fill-rule="evenodd" clip-rule="evenodd" d="M80.5553 84.222C81.4113 84.222 81.6563 83.611 82.6333 83.611C83.6113 83.611 84.9553 83.978 85.5673 84.467C85.6893 84.589 85.2003 83.489 84.2223 83.367C83.2443 83.245 83.6113 81.656 82.5113 81.411C82.5113 81.9 82.8783 81.778 83.0003 82.511C83.0003 83.122 81.9003 83.122 81.6563 82.511C81.9003 83.489 81.1673 83.489 80.5553 83.489M80.5553 88.745C83.6113 88.745 83.1223 88.133 87.1563 86.422C84.2223 86.789 83.6113 87.767 80.5553 87.767H79.9443M87.6443 87.522C87.1563 86.667 87.2783 86.911 86.3003 85.567C87.2783 86.3 87.5223 86.667 87.6443 87.522ZM80.5553 85.811C81.2893 85.811 81.5333 85.567 82.5113 85.567C83.4893 85.567 85.8113 86.911 87.1563 86.422C84.3443 87.522 85.4443 86.789 80.5553 86.789H79.9443M87.4003 78.478C88.9893 77.622 88.0113 76.4 87.4003 76.156C87.6443 76.4 88.6223 77.622 87.4003 78.478Z" fill="#0A0B09"/>
<path id="Fill 51" fill-rule="evenodd" clip-rule="evenodd" d="M74.2003 76.278C73.3442 77.011 74.0782 78.6 74.9332 78.6C75.7892 78.6 77.3783 77.133 76.6442 76.156M70.6562 75.178C71.5113 76.156 72.0003 74.445 75.0553 74.445C78.1112 74.445 78.6002 76.278 79.0892 75.911C79.5782 75.545 76.5223 73.344 75.5443 73.222C74.5673 73.1 71.7552 74.078 70.6562 75.178Z" fill="#0A0B09"/>
<path id="Fill 52" fill-rule="evenodd" clip-rule="evenodd" d="M77.8672 77.745C77.3782 77.011 76.7672 78.478 75.4222 78.478C74.0782 78.478 73.3442 78.111 72.4892 77.5C71.6332 76.889 73.7112 78.967 75.0552 78.967C76.4002 78.967 78.2332 78.233 77.8672 77.745ZM78.2332 77.378C78.1112 75.911 76.8892 75.667 74.9332 75.667C72.9772 75.667 72.1222 77.133 71.3892 77.5C72.2442 77.5 72.9772 76.278 74.9332 76.278C76.8892 76.278 76.8892 76.278 78.2332 77.5" fill="#0A0B09"/>
<path id="Fill 53" fill-rule="evenodd" clip-rule="evenodd" d="M80.5551 84.222C79.7001 84.222 79.4551 83.611 78.4771 83.611C77.5001 83.611 76.1561 83.978 75.5441 84.467C75.4221 84.589 75.9111 83.489 76.8891 83.367C77.8671 83.245 77.5001 81.656 78.6001 81.411C78.6001 81.9 78.2331 81.778 78.1111 82.511C78.1111 83.122 79.2111 83.122 79.4551 82.511C79.2111 83.489 79.9441 83.489 80.5551 83.489M80.5551 88.745C77.5001 88.745 77.9891 88.133 73.9551 86.422C76.8891 86.789 77.5001 87.767 80.5551 87.767H81.1671M73.4661 87.522C73.9551 86.667 73.8331 86.911 74.8111 85.567C73.8331 86.3 73.5891 86.667 73.4661 87.522ZM80.5551 85.811C79.8221 85.811 79.5781 85.567 78.6001 85.567C77.6221 85.567 75.3001 86.911 73.9551 86.422C76.7671 87.522 75.6671 86.789 80.5551 86.789H81.1671M73.7111 78.478C72.1221 77.622 73.1001 76.4 73.7111 76.156C73.4661 76.4 72.4891 77.622 73.7111 78.478Z" fill="#0A0B09"/>
<path id="Fill 54" fill-rule="evenodd" clip-rule="evenodd" d="M80.555 89.844C79.944 89.844 78.355 90.211 80.555 90.211C82.755 90.211 81.167 89.844 80.555 89.844Z" fill="#0A0B09"/>
</g>
</g>
</g>
</svg>
