<svg width="350" height="250" viewBox="0 0 350 250" fill="none" xmlns="http://www.w3.org/2000/svg">
<g id="flag / asia / tajikistan / b">
<g id="tajikistan b">
<path id="green" fill-rule="evenodd" clip-rule="evenodd" d="M25 200H325V157H25V200Z" fill="white" fill-opacity="0.5" stroke="white" stroke-width="2"/>
<g id="white">
<path fill-rule="evenodd" clip-rule="evenodd" d="M325 93V157H25V93H325ZM172.662 122.038C171.383 121.294 169.744 121.728 169 123.007C168.571 121.715 168.571 120.319 169 119.027C170.099 115.713 173.676 113.918 176.99 115.017C180.304 116.116 182.099 119.694 181 123.007C180.535 122.208 179.691 121.705 178.767 121.676C177.288 121.631 176.053 122.793 176.007 124.271L176.007 130.706C176.409 135.185 180.366 138.49 184.846 138.088C186.657 137.925 188.362 137.161 189.688 135.916C191.418 140.259 196.341 142.377 200.684 140.647C201.323 140.393 201.929 140.061 202.488 139.659C201.706 147.465 190.006 145.871 189.134 138.282C185.459 144.734 177.379 142.888 175.011 134.986H174.988C172.621 142.888 164.541 144.734 160.866 138.282C159.994 145.871 148.293 147.465 147.511 139.659C148.071 140.061 148.677 140.393 149.316 140.647C153.659 142.377 158.582 140.259 160.312 135.916C161.638 137.161 163.343 137.925 165.154 138.088C169.633 138.49 173.59 135.185 173.993 130.706V124.271C173.964 123.347 173.461 122.503 172.662 122.038ZM166.18 144.566L166.18 144.567C166.16 144.555 165.334 144.072 163.634 144.292C163.386 143.181 162.412 142.225 161.714 141.748C161.048 142.481 160.576 143.837 160.806 144.817C159.578 145.04 158.43 145.851 158.43 145.851C161.284 148.696 164.547 148.091 166.18 144.567L166.18 144.567V144.566ZM178.951 144.168L178.951 144.167V144.168L178.951 144.168ZM176.483 143.482C178.193 143.541 178.931 144.151 178.951 144.168C176.767 147.379 173.449 147.445 171.096 144.173C171.096 144.173 172.36 143.56 173.608 143.54C173.54 142.535 174.227 141.274 175.003 140.659C175.614 141.243 176.42 142.345 176.483 143.482ZM191.617 145.853C188.938 148.666 185.654 148.191 183.865 144.58C183.865 144.58 185.212 144.181 186.447 144.364C186.544 143.362 187.427 142.229 188.293 141.749C188.801 142.425 189.416 143.643 189.293 144.775C190.994 145.117 191.617 145.853 191.617 145.853ZM153.643 150.512L154.785 154.346C167.975 150.419 182.024 150.419 195.215 154.346L196.357 150.512C182.42 146.363 167.579 146.363 153.643 150.512ZM200 129.677L203.161 131.973L201.954 135.69L205.115 133.393L208.277 135.69L207.069 131.973L210.23 129.677H206.31L205.115 126L203.921 129.677H200ZM143.161 131.973L140 129.677H143.921L145.115 126L146.31 129.677H150.23L147.069 131.973L148.277 135.69L145.115 133.393L141.954 135.69L143.161 131.973ZM196 114.677L199.161 116.973L197.954 120.69L201.115 118.393L204.277 120.69L203.069 116.973L206.23 114.677H202.31L201.115 111L199.921 114.677H196ZM147.161 116.973L144 114.677H147.921L149.115 111L150.31 114.677H154.23L151.069 116.973L152.277 120.69L149.115 118.393L145.954 120.69L147.161 116.973ZM185 103.677L188.161 105.973L186.954 109.69L190.115 107.393L193.277 109.69L192.069 105.973L195.23 103.677H191.31L190.115 100L188.921 103.677H185ZM158.161 105.973L155 103.677H158.921L160.115 100L161.31 103.677H165.23L162.069 105.973L163.277 109.69L160.115 107.393L156.954 109.69L158.161 105.973ZM170 99.6766L173.161 101.973L171.954 105.69L175.115 103.393L178.277 105.69L177.069 101.973L180.23 99.6766H176.31L175.115 96L173.921 99.6766H170ZM175 122.257C174.076 120.666 172.239 119.842 170.436 120.211C170.717 118.164 172.326 116.555 174.373 116.273C176.894 115.927 179.218 117.69 179.564 120.211C177.761 119.842 175.924 120.666 175 122.257Z" fill="white" fill-opacity="0.5"/>
<path d="M325 157V158H326V157H325ZM325 93H326V92H325V93ZM25 157H24V158H25V157ZM25 93V92H24V93H25ZM169 123.007L168.051 123.322L168.75 125.426L169.864 123.51L169 123.007ZM172.662 122.038L173.165 121.174L173.165 121.174L172.662 122.038ZM169 119.027L169.949 119.342L169.949 119.342L169 119.027ZM176.99 115.017L176.675 115.966L176.99 115.017ZM181 123.007L180.136 123.51L181.251 125.426L181.949 123.322L181 123.007ZM178.767 121.676L178.798 120.676L178.797 120.676L178.767 121.676ZM176.007 124.271L175.007 124.24L175.007 124.255V124.271L176.007 124.271ZM176.007 130.706L175.007 130.706V130.751L175.011 130.795L176.007 130.706ZM184.846 138.088L184.935 139.084L184.936 139.084L184.846 138.088ZM189.688 135.916L190.617 135.546L190.074 134.182L189.003 135.187L189.688 135.916ZM200.684 140.647L200.315 139.718L200.314 139.718L200.684 140.647ZM202.488 139.659L203.483 139.759L203.704 137.553L201.904 138.847L202.488 139.659ZM189.134 138.282L190.127 138.168L189.778 135.13L188.265 137.787L189.134 138.282ZM175.011 134.986L175.969 134.699L175.755 133.986H175.011V134.986ZM174.988 134.986V133.986H174.243L174.03 134.699L174.988 134.986ZM160.866 138.282L161.735 137.787L160.222 135.13L159.873 138.168L160.866 138.282ZM147.511 139.659L148.094 138.847L146.295 137.555L146.516 139.759L147.511 139.659ZM149.316 140.647L149.686 139.718L149.685 139.718L149.316 140.647ZM160.312 135.916L160.996 135.187L159.926 134.182L159.383 135.546L160.312 135.916ZM165.154 138.088L165.064 139.084L165.065 139.084L165.154 138.088ZM173.993 130.706L174.989 130.796L174.993 130.751V130.706H173.993ZM173.993 124.271H174.993V124.255L174.993 124.24L173.993 124.271ZM166.18 144.566H167.18L165.27 144.152L166.18 144.566ZM163.634 144.292L162.658 144.51L162.857 145.401L163.763 145.284L163.634 144.292ZM161.714 141.748L162.278 140.922L161.559 140.431L160.974 141.076L161.714 141.748ZM160.806 144.817L160.985 145.801L162.02 145.613L161.78 144.589L160.806 144.817ZM158.43 145.851L157.853 145.034L156.882 145.72L157.724 146.559L158.43 145.851ZM166.18 144.567L165.711 145.45L167.18 146.231V144.567H166.18ZM178.951 144.167H179.951V140.88L178.12 143.61L178.951 144.167ZM178.951 144.168L178.342 144.961L179.951 146.196V144.168H178.951ZM176.483 143.482L175.485 143.537L175.535 144.45L176.448 144.481L176.483 143.482ZM171.096 144.173L170.66 143.273L169.59 143.792L170.284 144.757L171.096 144.173ZM173.608 143.54L173.624 144.54L174.677 144.523L174.606 143.472L173.608 143.54ZM175.003 140.659L175.694 139.936L175.064 139.334L174.382 139.875L175.003 140.659ZM183.865 144.58L183.581 143.621L182.441 143.959L182.969 145.024L183.865 144.58ZM191.617 145.853L192.341 146.543L192.96 145.892L192.38 145.207L191.617 145.853ZM186.447 144.364L186.3 145.353L187.341 145.507L187.442 144.46L186.447 144.364ZM188.293 141.749L189.092 141.148L188.57 140.452L187.808 140.874L188.293 141.749ZM189.293 144.775L188.299 144.667L188.2 145.575L189.096 145.755L189.293 144.775ZM154.785 154.346L153.826 154.631L154.112 155.59L155.07 155.304L154.785 154.346ZM153.643 150.512L153.358 149.554L152.4 149.839L152.685 150.797L153.643 150.512ZM195.215 154.346L194.93 155.304L195.888 155.59L196.174 154.631L195.215 154.346ZM196.357 150.512L197.315 150.797L197.6 149.839L196.642 149.554L196.357 150.512ZM203.161 131.973L204.112 132.282L204.337 131.592L203.749 131.164L203.161 131.973ZM200 129.677V128.677H196.922L199.412 130.486L200 129.677ZM201.954 135.69L201.003 135.381L200.052 138.308L202.542 136.499L201.954 135.69ZM205.115 133.393L205.703 132.584L205.115 132.157L204.527 132.584L205.115 133.393ZM208.277 135.69L207.689 136.499L210.179 138.308L209.228 135.381L208.277 135.69ZM207.069 131.973L206.481 131.164L205.893 131.592L206.118 132.282L207.069 131.973ZM210.23 129.677L210.818 130.486L213.308 128.677H210.23V129.677ZM206.31 129.677L205.359 129.986L205.583 130.677H206.31V129.677ZM205.115 126L206.066 125.691L205.115 122.764L204.164 125.691L205.115 126ZM203.921 129.677V130.677H204.647L204.872 129.986L203.921 129.677ZM140 129.677V128.677H136.922L139.412 130.486L140 129.677ZM143.161 131.973L144.112 132.282L144.337 131.592L143.749 131.164L143.161 131.973ZM143.921 129.677V130.677H144.647L144.872 129.986L143.921 129.677ZM145.115 126L146.066 125.691L145.115 122.764L144.164 125.691L145.115 126ZM146.31 129.677L145.359 129.986L145.583 130.677H146.31V129.677ZM150.23 129.677L150.818 130.486L153.308 128.677H150.23V129.677ZM147.069 131.973L146.481 131.164L145.893 131.592L146.118 132.282L147.069 131.973ZM148.277 135.69L147.689 136.499L150.179 138.308L149.228 135.381L148.277 135.69ZM145.115 133.393L145.703 132.584L145.115 132.157L144.527 132.584L145.115 133.393ZM141.954 135.69L141.003 135.381L140.052 138.308L142.542 136.499L141.954 135.69ZM199.161 116.973L200.112 117.282L200.337 116.592L199.749 116.164L199.161 116.973ZM196 114.677V113.677H192.922L195.412 115.486L196 114.677ZM197.954 120.69L197.003 120.381L196.052 123.308L198.542 121.499L197.954 120.69ZM201.115 118.393L201.703 117.584L201.115 117.157L200.527 117.584L201.115 118.393ZM204.277 120.69L203.689 121.499L206.179 123.308L205.228 120.381L204.277 120.69ZM203.069 116.973L202.481 116.164L201.893 116.592L202.118 117.282L203.069 116.973ZM206.23 114.677L206.818 115.486L209.308 113.677H206.23V114.677ZM202.31 114.677L201.359 114.986L201.583 115.677H202.31V114.677ZM201.115 111L202.066 110.691L201.115 107.764L200.164 110.691L201.115 111ZM199.921 114.677V115.677H200.647L200.872 114.986L199.921 114.677ZM144 114.677V113.677H140.922L143.412 115.486L144 114.677ZM147.161 116.973L148.112 117.282L148.337 116.592L147.749 116.164L147.161 116.973ZM147.921 114.677V115.677H148.647L148.872 114.986L147.921 114.677ZM149.115 111L150.066 110.691L149.115 107.764L148.164 110.691L149.115 111ZM150.31 114.677L149.359 114.986L149.583 115.677H150.31V114.677ZM154.23 114.677L154.818 115.486L157.308 113.677H154.23V114.677ZM151.069 116.973L150.481 116.164L149.893 116.592L150.118 117.282L151.069 116.973ZM152.277 120.69L151.689 121.499L154.179 123.308L153.228 120.381L152.277 120.69ZM149.115 118.393L149.703 117.584L149.115 117.157L148.527 117.584L149.115 118.393ZM145.954 120.69L145.003 120.381L144.052 123.308L146.542 121.499L145.954 120.69ZM188.161 105.973L189.112 106.282L189.337 105.592L188.749 105.164L188.161 105.973ZM185 103.677V102.677H181.922L184.412 104.486L185 103.677ZM186.954 109.69L186.003 109.381L185.052 112.308L187.542 110.499L186.954 109.69ZM190.115 107.393L190.703 106.584L190.115 106.157L189.527 106.584L190.115 107.393ZM193.277 109.69L192.689 110.499L195.179 112.308L194.228 109.381L193.277 109.69ZM192.069 105.973L191.481 105.164L190.893 105.592L191.118 106.282L192.069 105.973ZM195.23 103.677L195.818 104.486L198.308 102.677H195.23V103.677ZM191.31 103.677L190.359 103.986L190.583 104.677H191.31V103.677ZM190.115 100L191.066 99.691L190.115 96.7638L189.164 99.691L190.115 100ZM188.921 103.677V104.677H189.647L189.872 103.986L188.921 103.677ZM155 103.677V102.677H151.922L154.412 104.486L155 103.677ZM158.161 105.973L159.112 106.282L159.337 105.592L158.749 105.164L158.161 105.973ZM158.921 103.677V104.677H159.647L159.872 103.986L158.921 103.677ZM160.115 100L161.066 99.691L160.115 96.7638L159.164 99.691L160.115 100ZM161.31 103.677L160.359 103.986L160.583 104.677H161.31V103.677ZM165.23 103.677L165.818 104.486L168.308 102.677H165.23V103.677ZM162.069 105.973L161.481 105.164L160.893 105.592L161.118 106.282L162.069 105.973ZM163.277 109.69L162.689 110.499L165.179 112.308L164.228 109.381L163.277 109.69ZM160.115 107.393L160.703 106.584L160.115 106.157L159.527 106.584L160.115 107.393ZM156.954 109.69L156.003 109.381L155.052 112.308L157.542 110.499L156.954 109.69ZM173.161 101.973L174.112 102.282L174.337 101.592L173.749 101.164L173.161 101.973ZM170 99.6766V98.6766H166.922L169.412 100.486L170 99.6766ZM171.954 105.69L171.003 105.381L170.052 108.308L172.542 106.499L171.954 105.69ZM175.115 103.393L175.703 102.584L175.115 102.157L174.527 102.584L175.115 103.393ZM178.277 105.69L177.689 106.499L180.179 108.308L179.228 105.381L178.277 105.69ZM177.069 101.973L176.481 101.164L175.893 101.592L176.118 102.282L177.069 101.973ZM180.23 99.6766L180.818 100.486L183.308 98.6766H180.23V99.6766ZM176.31 99.6766L175.359 99.9857L175.583 100.677H176.31V99.6766ZM175.115 96L176.066 95.691L175.115 92.7638L174.164 95.691L175.115 96ZM173.921 99.6766V100.677H174.647L174.872 99.9856L173.921 99.6766ZM170.436 120.211L169.445 120.075L169.253 121.474L170.637 121.191L170.436 120.211ZM175 122.257L174.135 122.759L175 124.248L175.865 122.759L175 122.257ZM174.373 116.273L174.237 115.282L174.237 115.282L174.373 116.273ZM179.564 120.211L179.364 121.191L180.747 121.474L180.555 120.075L179.564 120.211ZM326 157V93H324V157H326ZM25 158H325V156H25V158ZM24 93V157H26V93H24ZM325 92H25V94H325V92ZM169.864 123.51C170.331 122.708 171.358 122.436 172.159 122.902L173.165 121.174C171.408 120.152 169.157 120.748 168.136 122.504L169.864 123.51ZM168.051 118.712C167.554 120.208 167.554 121.826 168.051 123.322L169.949 122.692C169.588 121.604 169.588 120.43 169.949 119.342L168.051 118.712ZM177.305 114.068C173.467 112.795 169.324 114.874 168.051 118.712L169.949 119.342C170.874 116.552 173.885 115.041 176.675 115.966L177.305 114.068ZM181.949 123.322C183.222 119.485 181.143 115.341 177.305 114.068L176.675 115.966C179.465 116.891 180.976 119.903 180.051 122.692L181.949 123.322ZM178.736 122.676C179.315 122.694 179.844 123.009 180.136 123.51L181.864 122.504C181.226 121.407 180.067 120.716 178.798 120.676L178.736 122.676ZM177.007 124.302C177.035 123.376 177.809 122.647 178.737 122.676L178.797 120.676C176.767 120.615 175.071 122.21 175.007 124.24L177.007 124.302ZM177.007 130.706L177.007 124.271L175.007 124.271L175.007 130.706L177.007 130.706ZM184.757 137.092C180.827 137.445 177.356 134.545 177.003 130.617L175.011 130.795C175.462 135.825 179.905 139.535 184.935 139.084L184.757 137.092ZM189.003 135.187C187.841 136.279 186.345 136.949 184.756 137.092L184.936 139.084C186.969 138.901 188.883 138.043 190.372 136.645L189.003 135.187ZM200.314 139.718C196.484 141.244 192.143 139.376 190.617 135.546L188.759 136.286C190.693 141.142 196.198 143.51 201.054 141.576L200.314 139.718ZM201.904 138.847C201.411 139.202 200.877 139.494 200.315 139.718L201.053 141.576C201.769 141.292 202.447 140.92 203.072 140.471L201.904 138.847ZM188.141 138.396C188.641 142.75 192.241 145.323 195.727 145.737C197.482 145.945 199.299 145.622 200.756 144.631C202.239 143.623 203.26 141.983 203.483 139.759L201.493 139.559C201.325 141.238 200.59 142.326 199.632 142.977C198.649 143.646 197.339 143.914 195.963 143.751C193.185 143.421 190.499 141.403 190.127 138.168L188.141 138.396ZM174.053 135.273C175.318 139.495 178.164 142.251 181.357 142.991C184.599 143.742 187.966 142.353 190.003 138.777L188.265 137.787C186.627 140.663 184.115 141.577 181.808 141.042C179.45 140.496 177.071 138.378 175.969 134.699L174.053 135.273ZM174.988 135.986H175.011V133.986H174.988V135.986ZM159.997 138.777C162.034 142.353 165.401 143.742 168.643 142.991C171.836 142.251 174.681 139.495 175.946 135.273L174.03 134.699C172.928 138.378 170.55 140.496 168.192 141.042C165.885 141.577 163.373 140.663 161.735 137.787L159.997 138.777ZM146.516 139.759C146.739 141.983 147.76 143.623 149.243 144.631C150.7 145.622 152.517 145.945 154.273 145.737C157.759 145.323 161.359 142.75 161.859 138.396L159.873 138.168C159.501 141.403 156.815 143.421 154.037 143.751C152.661 143.914 151.351 143.646 150.367 142.977C149.409 142.326 148.674 141.238 148.506 139.559L146.516 139.759ZM149.685 139.718C149.123 139.494 148.588 139.201 148.094 138.847L146.928 140.471C147.554 140.921 148.231 141.292 148.947 141.576L149.685 139.718ZM159.383 135.546C157.857 139.376 153.516 141.244 149.686 139.718L148.946 141.576C153.802 143.51 159.307 141.142 161.241 136.286L159.383 135.546ZM165.244 137.092C163.655 136.949 162.159 136.279 160.996 135.187L159.628 136.645C161.117 138.043 163.031 138.901 165.064 139.084L165.244 137.092ZM172.997 130.616C172.643 134.546 169.172 137.445 165.243 137.092L165.065 139.084C170.094 139.535 174.536 135.824 174.989 130.796L172.997 130.616ZM172.993 124.271V130.706H174.993V124.271H172.993ZM172.159 122.902C172.66 123.194 172.975 123.723 172.993 124.302L174.993 124.24C174.953 122.971 174.262 121.812 173.165 121.174L172.159 122.902ZM167.09 144.981L167.09 144.98L165.27 144.152L165.269 144.153L167.09 144.981ZM163.763 145.284C165.216 145.095 165.82 145.516 165.669 145.427L166.69 143.707C166.501 143.595 165.451 143.048 163.505 143.3L163.763 145.284ZM161.15 142.574C161.765 142.994 162.491 143.764 162.658 144.51L164.61 144.074C164.281 142.598 163.059 141.456 162.278 140.922L161.15 142.574ZM161.78 144.589C161.718 144.328 161.739 143.934 161.879 143.488C162.016 143.047 162.236 142.66 162.454 142.42L160.974 141.076C160.526 141.569 160.177 142.226 159.969 142.892C159.764 143.552 159.664 144.326 159.832 145.045L161.78 144.589ZM158.43 145.851C159.007 146.668 159.007 146.668 159.007 146.668C159.007 146.668 159.007 146.668 159.006 146.668C159.006 146.668 159.006 146.668 159.006 146.668C159.006 146.669 159.006 146.669 159.005 146.669C159.005 146.669 159.005 146.669 159.005 146.669C159.006 146.668 159.008 146.667 159.01 146.666C159.015 146.662 159.025 146.656 159.038 146.647C159.064 146.629 159.105 146.602 159.16 146.568C159.269 146.5 159.428 146.405 159.621 146.304C160.019 146.095 160.511 145.887 160.985 145.801L160.627 143.833C159.873 143.97 159.177 144.279 158.694 144.532C158.446 144.661 158.242 144.783 158.097 144.874C158.025 144.919 157.967 144.957 157.926 144.985C157.905 144.998 157.888 145.01 157.876 145.018C157.87 145.022 157.865 145.026 157.861 145.028C157.859 145.03 157.858 145.031 157.856 145.032C157.856 145.032 157.855 145.033 157.854 145.033C157.854 145.033 157.854 145.034 157.854 145.034C157.854 145.034 157.853 145.034 157.853 145.034C157.853 145.034 157.853 145.034 158.43 145.851ZM165.272 144.146C164.55 145.706 163.555 146.447 162.594 146.612C161.63 146.777 160.41 146.413 159.136 145.143L157.724 146.559C159.304 148.134 161.142 148.89 162.932 148.583C164.724 148.276 166.176 146.952 167.087 144.987L165.272 144.146ZM166.649 143.684L166.649 143.684L165.71 145.45L165.711 145.45L166.649 143.684ZM165.18 144.566V144.567H167.18V144.566H165.18ZM178.12 143.61L178.12 143.611L179.781 144.725L179.782 144.724L178.12 143.61ZM179.951 144.168V144.167H177.951V144.168H179.951ZM178.342 144.961L178.342 144.961L179.56 143.375L179.559 143.374L178.342 144.961ZM179.593 143.402C179.422 143.258 178.475 142.55 176.518 142.483L176.448 144.481C177.911 144.532 178.439 145.044 178.308 144.934L179.593 143.402ZM170.284 144.757C171.586 146.568 173.277 147.613 175.093 147.601C176.911 147.59 178.56 146.521 179.777 144.73L178.124 143.605C177.158 145.026 176.055 145.595 175.08 145.602C174.103 145.608 172.958 145.05 171.908 143.589L170.284 144.757ZM173.592 142.54C172.825 142.552 172.089 142.743 171.571 142.914C171.306 143.002 171.084 143.089 170.927 143.154C170.848 143.188 170.785 143.216 170.739 143.236C170.717 143.246 170.698 143.255 170.685 143.261C170.678 143.264 170.673 143.267 170.669 143.269C170.667 143.27 170.665 143.271 170.663 143.271C170.662 143.272 170.662 143.272 170.661 143.272C170.661 143.273 170.661 143.273 170.66 143.273C170.66 143.273 170.66 143.273 170.66 143.273C170.66 143.273 170.66 143.273 171.096 144.173C171.532 145.073 171.532 145.073 171.532 145.073C171.532 145.073 171.532 145.073 171.532 145.073C171.532 145.073 171.531 145.073 171.531 145.073C171.531 145.073 171.531 145.074 171.531 145.074C171.53 145.074 171.53 145.074 171.531 145.074C171.531 145.073 171.533 145.072 171.536 145.071C171.542 145.068 171.552 145.064 171.566 145.057C171.595 145.044 171.64 145.024 171.699 144.999C171.818 144.95 171.99 144.882 172.197 144.814C172.623 144.673 173.143 144.548 173.624 144.54L173.592 142.54ZM174.382 139.875C173.86 140.289 173.409 140.881 173.096 141.504C172.785 142.122 172.56 142.87 172.61 143.608L174.606 143.472C174.588 143.205 174.672 142.82 174.882 142.402C175.09 141.99 175.37 141.644 175.624 141.443L174.382 139.875ZM177.481 143.427C177.398 141.916 176.377 140.589 175.694 139.936L174.312 141.382C174.851 141.897 175.442 142.774 175.485 143.537L177.481 143.427ZM182.969 145.024C183.959 147.023 185.457 148.329 187.251 148.613C189.047 148.898 190.847 148.111 192.341 146.543L190.893 145.163C189.708 146.408 188.527 146.79 187.564 146.638C186.598 146.485 185.56 145.748 184.761 144.136L182.969 145.024ZM186.594 143.375C185.835 143.262 185.077 143.331 184.538 143.415C184.263 143.459 184.03 143.508 183.864 143.548C183.781 143.567 183.714 143.585 183.666 143.598C183.642 143.604 183.622 143.609 183.608 143.613C183.601 143.615 183.595 143.617 183.591 143.618C183.588 143.619 183.586 143.62 183.585 143.62C183.584 143.62 183.583 143.621 183.583 143.621C183.582 143.621 183.582 143.621 183.582 143.621C183.582 143.621 183.581 143.621 183.581 143.621C183.581 143.621 183.581 143.621 183.865 144.58C184.149 145.539 184.149 145.539 184.149 145.539C184.149 145.539 184.148 145.539 184.148 145.539C184.148 145.539 184.148 145.539 184.148 145.539C184.148 145.539 184.147 145.539 184.147 145.539C184.147 145.539 184.147 145.539 184.147 145.539C184.148 145.539 184.15 145.539 184.153 145.538C184.159 145.536 184.17 145.533 184.185 145.529C184.215 145.521 184.263 145.508 184.326 145.493C184.451 145.464 184.632 145.425 184.848 145.391C185.291 145.322 185.824 145.283 186.3 145.353L186.594 143.375ZM187.808 140.874C187.226 141.197 186.684 141.708 186.273 142.272C185.866 142.831 185.523 143.532 185.452 144.268L187.442 144.46C187.468 144.194 187.615 143.827 187.89 143.449C188.162 143.076 188.494 142.781 188.778 142.624L187.808 140.874ZM190.287 144.883C190.451 143.379 189.661 141.905 189.092 141.148L187.494 142.35C187.941 142.945 188.381 143.907 188.299 144.667L190.287 144.883ZM191.617 145.853C192.38 145.207 192.38 145.206 192.38 145.206C192.379 145.206 192.379 145.206 192.379 145.205C192.378 145.205 192.378 145.204 192.377 145.203C192.376 145.202 192.375 145.201 192.374 145.2C192.372 145.197 192.37 145.194 192.367 145.191C192.362 145.186 192.356 145.179 192.349 145.172C192.336 145.157 192.32 145.14 192.301 145.121C192.264 145.082 192.214 145.035 192.152 144.98C192.026 144.871 191.851 144.734 191.617 144.591C191.148 144.302 190.456 143.989 189.49 143.795L189.096 145.755C189.831 145.903 190.301 146.129 190.569 146.294C190.703 146.377 190.79 146.446 190.835 146.485C190.857 146.505 190.869 146.517 190.872 146.52C190.874 146.522 190.873 146.521 190.87 146.517C190.868 146.516 190.866 146.513 190.863 146.51C190.862 146.509 190.861 146.507 190.859 146.505C190.858 146.504 190.857 146.503 190.856 146.502C190.856 146.502 190.856 146.501 190.855 146.501C190.855 146.5 190.855 146.5 190.854 146.5C190.854 146.499 190.854 146.499 191.617 145.853ZM155.743 154.061L154.602 150.227L152.685 150.797L153.826 154.631L155.743 154.061ZM195.501 153.387C182.123 149.405 167.876 149.405 154.499 153.387L155.07 155.304C168.074 151.433 181.925 151.433 194.93 155.304L195.501 153.387ZM195.398 150.227L194.257 154.061L196.174 154.631L197.315 150.797L195.398 150.227ZM153.929 151.471C167.678 147.377 182.321 147.377 196.071 151.471L196.642 149.554C182.519 145.349 167.48 145.349 153.358 149.554L153.929 151.471ZM203.749 131.164L200.588 128.868L199.412 130.486L202.574 132.783L203.749 131.164ZM202.905 135.999L204.112 132.282L202.21 131.664L201.003 135.381L202.905 135.999ZM204.527 132.584L201.366 134.881L202.542 136.499L205.703 134.202L204.527 132.584ZM208.864 134.881L205.703 132.584L204.527 134.202L207.689 136.499L208.864 134.881ZM206.118 132.282L207.325 135.999L209.228 135.381L208.02 131.664L206.118 132.282ZM209.643 128.868L206.481 131.164L207.657 132.783L210.818 130.486L209.643 128.868ZM206.31 130.677H210.23V128.677H206.31V130.677ZM204.164 126.309L205.359 129.986L207.261 129.368L206.066 125.691L204.164 126.309ZM204.872 129.986L206.066 126.309L204.164 125.691L202.97 129.368L204.872 129.986ZM200 130.677H203.921V128.677H200V130.677ZM139.412 130.486L142.574 132.783L143.749 131.164L140.588 128.868L139.412 130.486ZM143.921 128.677H140V130.677H143.921V128.677ZM144.164 125.691L142.97 129.368L144.872 129.986L146.066 126.309L144.164 125.691ZM147.261 129.368L146.066 125.691L144.164 126.309L145.359 129.986L147.261 129.368ZM150.23 128.677H146.31V130.677H150.23V128.677ZM147.657 132.783L150.818 130.486L149.643 128.868L146.481 131.164L147.657 132.783ZM149.228 135.381L148.02 131.664L146.118 132.282L147.325 135.999L149.228 135.381ZM144.527 134.202L147.689 136.499L148.864 134.881L145.703 132.584L144.527 134.202ZM142.542 136.499L145.703 134.202L144.527 132.584L141.366 134.881L142.542 136.499ZM142.21 131.664L141.003 135.381L142.905 135.999L144.112 132.282L142.21 131.664ZM199.749 116.164L196.588 113.868L195.412 115.486L198.574 117.783L199.749 116.164ZM198.905 120.999L200.112 117.282L198.21 116.664L197.003 120.381L198.905 120.999ZM200.527 117.584L197.366 119.881L198.542 121.499L201.703 119.202L200.527 117.584ZM204.864 119.881L201.703 117.584L200.527 119.202L203.689 121.499L204.864 119.881ZM202.118 117.282L203.325 120.999L205.228 120.381L204.02 116.664L202.118 117.282ZM205.643 113.868L202.481 116.164L203.657 117.783L206.818 115.486L205.643 113.868ZM202.31 115.677H206.23V113.677H202.31V115.677ZM200.164 111.309L201.359 114.986L203.261 114.368L202.066 110.691L200.164 111.309ZM200.872 114.986L202.066 111.309L200.164 110.691L198.97 114.368L200.872 114.986ZM196 115.677H199.921V113.677H196V115.677ZM143.412 115.486L146.574 117.783L147.749 116.164L144.588 113.868L143.412 115.486ZM147.921 113.677H144V115.677H147.921V113.677ZM148.164 110.691L146.97 114.368L148.872 114.986L150.066 111.309L148.164 110.691ZM151.261 114.368L150.066 110.691L148.164 111.309L149.359 114.986L151.261 114.368ZM154.23 113.677H150.31V115.677H154.23V113.677ZM151.657 117.783L154.818 115.486L153.643 113.868L150.481 116.164L151.657 117.783ZM153.228 120.381L152.02 116.664L150.118 117.282L151.325 120.999L153.228 120.381ZM148.527 119.202L151.689 121.499L152.864 119.881L149.703 117.584L148.527 119.202ZM146.542 121.499L149.703 119.202L148.527 117.584L145.366 119.881L146.542 121.499ZM146.21 116.664L145.003 120.381L146.905 120.999L148.112 117.282L146.21 116.664ZM188.749 105.164L185.588 102.868L184.412 104.486L187.574 106.783L188.749 105.164ZM187.905 109.999L189.112 106.282L187.21 105.664L186.003 109.381L187.905 109.999ZM189.527 106.584L186.366 108.881L187.542 110.499L190.703 108.202L189.527 106.584ZM193.864 108.881L190.703 106.584L189.527 108.202L192.689 110.499L193.864 108.881ZM191.118 106.282L192.325 109.999L194.228 109.381L193.02 105.664L191.118 106.282ZM194.643 102.868L191.481 105.164L192.657 106.783L195.818 104.486L194.643 102.868ZM191.31 104.677H195.23V102.677H191.31V104.677ZM189.164 100.309L190.359 103.986L192.261 103.368L191.066 99.691L189.164 100.309ZM189.872 103.986L191.066 100.309L189.164 99.691L187.97 103.368L189.872 103.986ZM185 104.677H188.921V102.677H185V104.677ZM154.412 104.486L157.574 106.783L158.749 105.164L155.588 102.868L154.412 104.486ZM158.921 102.677H155V104.677H158.921V102.677ZM159.164 99.691L157.97 103.368L159.872 103.986L161.066 100.309L159.164 99.691ZM162.261 103.368L161.066 99.691L159.164 100.309L160.359 103.986L162.261 103.368ZM165.23 102.677H161.31V104.677H165.23V102.677ZM162.657 106.783L165.818 104.486L164.643 102.868L161.481 105.164L162.657 106.783ZM164.228 109.381L163.02 105.664L161.118 106.282L162.325 109.999L164.228 109.381ZM159.527 108.202L162.689 110.499L163.864 108.881L160.703 106.584L159.527 108.202ZM157.542 110.499L160.703 108.202L159.527 106.584L156.366 108.881L157.542 110.499ZM157.21 105.664L156.003 109.381L157.905 109.999L159.112 106.282L157.21 105.664ZM173.749 101.164L170.588 98.8676L169.412 100.486L172.574 102.783L173.749 101.164ZM172.905 105.999L174.112 102.282L172.21 101.664L171.003 105.381L172.905 105.999ZM174.527 102.584L171.366 104.881L172.542 106.499L175.703 104.202L174.527 102.584ZM178.864 104.881L175.703 102.584L174.527 104.202L177.689 106.499L178.864 104.881ZM176.118 102.282L177.325 105.999L179.228 105.381L178.02 101.664L176.118 102.282ZM179.643 98.8676L176.481 101.164L177.657 102.783L180.818 100.486L179.643 98.8676ZM176.31 100.677H180.23V98.6766H176.31V100.677ZM174.164 96.309L175.359 99.9857L177.261 99.3676L176.066 95.691L174.164 96.309ZM174.872 99.9856L176.066 96.309L174.164 95.691L172.97 99.3676L174.872 99.9856ZM170 100.677H173.921V98.6766H170V100.677ZM170.637 121.191C172.019 120.908 173.427 121.539 174.135 122.759L175.865 121.755C174.725 119.793 172.459 118.776 170.236 119.231L170.637 121.191ZM174.237 115.282C171.746 115.626 169.787 117.584 169.445 120.075L171.427 120.347C171.647 118.744 172.906 117.484 174.509 117.264L174.237 115.282ZM180.555 120.075C180.134 117.007 177.305 114.861 174.237 115.282L174.509 117.264C176.483 116.993 178.302 118.373 178.573 120.347L180.555 120.075ZM175.865 122.759C176.573 121.539 177.981 120.908 179.364 121.191L179.765 119.231C177.541 118.776 175.275 119.793 174.135 121.755L175.865 122.759Z" fill="white"/>
</g>
<path id="red" fill-rule="evenodd" clip-rule="evenodd" d="M25 93H325V50H25V93Z" fill="white" fill-opacity="0.5" stroke="white" stroke-width="2"/>
<g id="gold">
<path fill-rule="evenodd" clip-rule="evenodd" d="M170 99.6766L173.161 101.973L171.954 105.69L175.115 103.393L178.277 105.69L177.069 101.973L180.23 99.6766H176.31L175.115 96L173.921 99.6766H170ZM185 103.677L188.161 105.973L186.954 109.69L190.115 107.393L193.277 109.69L192.069 105.973L195.23 103.677H191.31L190.115 100L188.921 103.677H185ZM196 114.677L199.161 116.973L197.954 120.69L201.115 118.393L204.277 120.69L203.069 116.973L206.23 114.677H202.31L201.115 111L199.921 114.677H196ZM169 123.007C169.744 121.728 171.383 121.294 172.662 122.038C173.461 122.503 173.964 123.347 173.993 124.271V130.706C173.59 135.185 169.633 138.49 165.154 138.088C163.343 137.925 161.638 137.161 160.312 135.916C158.582 140.259 153.659 142.377 149.316 140.647C148.677 140.393 148.071 140.061 147.511 139.659C148.293 147.465 159.994 145.871 160.866 138.282C164.541 144.734 172.621 142.888 174.988 134.986H175.011C177.379 142.888 185.459 144.734 189.134 138.282C190.006 145.871 201.706 147.465 202.488 139.659C201.929 140.061 201.323 140.393 200.684 140.647C196.341 142.377 191.418 140.259 189.688 135.916C188.362 137.161 186.657 137.925 184.846 138.088C180.366 138.49 176.409 135.185 176.007 130.706V124.271C176.053 122.793 177.288 121.631 178.767 121.676C179.691 121.705 180.535 122.208 181 123.007C182.099 119.694 180.304 116.116 176.99 115.017C173.676 113.918 170.099 115.713 169 119.027C168.571 120.319 168.571 121.715 169 123.007ZM166.18 144.566L166.18 144.567C166.16 144.555 165.333 144.072 163.634 144.292C163.386 143.181 162.412 142.225 161.714 141.748C161.048 142.481 160.576 143.837 160.806 144.817C159.578 145.04 158.43 145.851 158.43 145.851C161.284 148.696 164.547 148.091 166.18 144.567L166.18 144.567V144.566ZM178.951 144.168L178.951 144.167V144.168L178.951 144.168ZM176.483 143.482C178.193 143.541 178.93 144.151 178.951 144.168C176.767 147.379 173.449 147.445 171.096 144.173C171.096 144.173 172.36 143.56 173.608 143.54C173.54 142.535 174.227 141.274 175.003 140.659C175.614 141.243 176.42 142.345 176.483 143.482ZM191.617 145.853C188.938 148.666 185.654 148.191 183.865 144.58C183.865 144.58 185.212 144.181 186.447 144.364C186.544 143.362 187.427 142.229 188.293 141.749C188.801 142.425 189.416 143.643 189.293 144.775C190.994 145.117 191.617 145.853 191.617 145.853ZM153.643 150.512L154.785 154.346C167.975 150.419 182.024 150.419 195.215 154.346L196.357 150.512C182.42 146.363 167.579 146.363 153.643 150.512ZM200 129.677L203.161 131.973L201.954 135.69L205.115 133.393L208.277 135.69L207.069 131.973L210.23 129.677H206.31L205.115 126L203.921 129.677H200ZM143.161 131.973L140 129.677H143.921L145.115 126L146.31 129.677H150.23L147.069 131.973L148.277 135.69L145.115 133.393L141.954 135.69L143.161 131.973ZM147.161 116.973L144 114.677H147.921L149.115 111L150.31 114.677H154.23L151.069 116.973L152.277 120.69L149.115 118.393L145.954 120.69L147.161 116.973ZM158.161 105.973L155 103.677H158.921L160.115 100L161.31 103.677H165.23L162.069 105.973L163.277 109.69L160.115 107.393L156.954 109.69L158.161 105.973ZM175 122.257C174.076 120.666 172.239 119.842 170.436 120.211C170.717 118.164 172.326 116.555 174.373 116.273C176.894 115.927 179.218 117.69 179.564 120.211C177.761 119.842 175.924 120.666 175 122.257Z" fill="white" fill-opacity="0.5"/>
<path d="M173.161 101.973L174.112 102.282L174.337 101.592L173.749 101.164L173.161 101.973ZM170 99.6766V98.6766H166.922L169.412 100.486L170 99.6766ZM171.954 105.69L171.003 105.381L170.052 108.308L172.542 106.499L171.954 105.69ZM175.115 103.393L175.703 102.584L175.115 102.157L174.527 102.584L175.115 103.393ZM178.277 105.69L177.689 106.499L180.179 108.308L179.228 105.381L178.277 105.69ZM177.069 101.973L176.481 101.164L175.893 101.592L176.118 102.282L177.069 101.973ZM180.23 99.6766L180.818 100.486L183.308 98.6766H180.23V99.6766ZM176.31 99.6766L175.359 99.9857L175.583 100.677H176.31V99.6766ZM175.115 96L176.066 95.691L175.115 92.7638L174.164 95.691L175.115 96ZM173.921 99.6766V100.677H174.647L174.872 99.9856L173.921 99.6766ZM188.161 105.973L189.112 106.282L189.337 105.592L188.749 105.164L188.161 105.973ZM185 103.677V102.677H181.922L184.412 104.486L185 103.677ZM186.954 109.69L186.003 109.381L185.052 112.308L187.542 110.499L186.954 109.69ZM190.115 107.393L190.703 106.584L190.115 106.157L189.527 106.584L190.115 107.393ZM193.277 109.69L192.689 110.499L195.179 112.308L194.228 109.381L193.277 109.69ZM192.069 105.973L191.481 105.164L190.893 105.592L191.118 106.282L192.069 105.973ZM195.23 103.677L195.818 104.486L198.308 102.677H195.23V103.677ZM191.31 103.677L190.359 103.986L190.583 104.677H191.31V103.677ZM190.115 100L191.066 99.691L190.115 96.7638L189.164 99.691L190.115 100ZM188.921 103.677V104.677H189.647L189.872 103.986L188.921 103.677ZM199.161 116.973L200.112 117.282L200.337 116.592L199.749 116.164L199.161 116.973ZM196 114.677V113.677H192.922L195.412 115.486L196 114.677ZM197.954 120.69L197.003 120.381L196.052 123.308L198.542 121.499L197.954 120.69ZM201.115 118.393L201.703 117.584L201.115 117.157L200.527 117.584L201.115 118.393ZM204.277 120.69L203.689 121.499L206.179 123.308L205.228 120.381L204.277 120.69ZM203.069 116.973L202.481 116.164L201.893 116.592L202.118 117.282L203.069 116.973ZM206.23 114.677L206.818 115.486L209.308 113.677H206.23V114.677ZM202.31 114.677L201.359 114.986L201.583 115.677H202.31V114.677ZM201.115 111L202.066 110.691L201.115 107.764L200.164 110.691L201.115 111ZM199.921 114.677V115.677H200.647L200.872 114.986L199.921 114.677ZM172.662 122.038L173.165 121.174L173.165 121.174L172.662 122.038ZM169 123.007L168.051 123.322L168.75 125.426L169.864 123.51L169 123.007ZM173.993 124.271H174.993V124.255L174.993 124.24L173.993 124.271ZM173.993 130.706L174.989 130.796L174.993 130.751V130.706H173.993ZM165.154 138.088L165.064 139.084L165.065 139.084L165.154 138.088ZM160.312 135.916L160.996 135.187L159.926 134.182L159.383 135.546L160.312 135.916ZM149.316 140.647L149.686 139.718L149.685 139.718L149.316 140.647ZM147.511 139.659L148.094 138.847L146.295 137.555L146.516 139.759L147.511 139.659ZM160.866 138.282L161.735 137.787L160.222 135.13L159.873 138.168L160.866 138.282ZM174.988 134.986V133.986H174.243L174.03 134.699L174.988 134.986ZM175.011 134.986L175.969 134.699L175.755 133.986H175.011V134.986ZM189.134 138.282L190.127 138.168L189.778 135.13L188.265 137.787L189.134 138.282ZM202.488 139.659L203.483 139.759L203.704 137.553L201.904 138.847L202.488 139.659ZM200.684 140.647L200.315 139.718L200.314 139.718L200.684 140.647ZM189.688 135.916L190.617 135.546L190.074 134.182L189.004 135.187L189.688 135.916ZM184.846 138.088L184.935 139.084L184.936 139.084L184.846 138.088ZM176.007 130.706H175.007V130.751L175.011 130.795L176.007 130.706ZM176.007 124.271L175.007 124.24L175.007 124.255V124.271H176.007ZM178.767 121.676L178.798 120.676L178.797 120.676L178.767 121.676ZM181 123.007L180.136 123.51L181.251 125.426L181.949 123.322L181 123.007ZM176.99 115.017L176.675 115.966L176.99 115.017ZM169 119.027L169.949 119.342L169.949 119.342L169 119.027ZM166.18 144.566H167.18L165.273 144.145L166.18 144.566ZM163.634 144.292L162.658 144.51L162.857 145.401L163.763 145.284L163.634 144.292ZM161.714 141.748L162.278 140.922L161.559 140.431L160.974 141.076L161.714 141.748ZM160.806 144.817L160.985 145.801L162.02 145.613L161.78 144.589L160.806 144.817ZM158.43 145.851L157.853 145.034L156.882 145.72L157.724 146.559L158.43 145.851ZM166.18 144.567L165.674 145.43L167.18 146.313V144.567H166.18ZM178.951 144.167H179.951V140.92L178.124 143.604L178.951 144.167ZM178.951 144.168L178.322 144.946L179.951 146.263V144.168H178.951ZM176.483 143.482L175.485 143.537L175.535 144.45L176.448 144.481L176.483 143.482ZM171.096 144.173L170.66 143.273L169.59 143.792L170.284 144.757L171.096 144.173ZM173.608 143.54L173.624 144.54L174.677 144.523L174.606 143.472L173.608 143.54ZM175.003 140.659L175.694 139.936L175.064 139.334L174.382 139.875L175.003 140.659ZM183.865 144.58L183.581 143.621L182.441 143.959L182.969 145.024L183.865 144.58ZM191.617 145.853L192.341 146.543L192.96 145.892L192.38 145.207L191.617 145.853ZM186.447 144.364L186.3 145.353L187.341 145.507L187.442 144.46L186.447 144.364ZM188.293 141.749L189.092 141.148L188.57 140.452L187.808 140.874L188.293 141.749ZM189.293 144.775L188.299 144.667L188.2 145.575L189.096 145.755L189.293 144.775ZM154.785 154.346L153.826 154.631L154.112 155.59L155.07 155.304L154.785 154.346ZM153.643 150.512L153.358 149.554L152.4 149.839L152.685 150.797L153.643 150.512ZM195.215 154.346L194.93 155.304L195.888 155.59L196.174 154.631L195.215 154.346ZM196.357 150.512L197.315 150.797L197.6 149.839L196.642 149.554L196.357 150.512ZM203.161 131.973L204.112 132.282L204.337 131.592L203.749 131.164L203.161 131.973ZM200 129.677V128.677H196.922L199.412 130.486L200 129.677ZM201.954 135.69L201.003 135.381L200.052 138.308L202.542 136.499L201.954 135.69ZM205.115 133.393L205.703 132.584L205.115 132.157L204.527 132.584L205.115 133.393ZM208.277 135.69L207.689 136.499L210.179 138.308L209.228 135.381L208.277 135.69ZM207.069 131.973L206.481 131.164L205.893 131.592L206.118 132.282L207.069 131.973ZM210.23 129.677L210.818 130.486L213.308 128.677H210.23V129.677ZM206.31 129.677L205.359 129.986L205.583 130.677H206.31V129.677ZM205.115 126L206.066 125.691L205.115 122.764L204.164 125.691L205.115 126ZM203.921 129.677V130.677H204.647L204.872 129.986L203.921 129.677ZM140 129.677V128.677H136.922L139.412 130.486L140 129.677ZM143.161 131.973L144.112 132.282L144.337 131.592L143.749 131.164L143.161 131.973ZM143.921 129.677V130.677H144.647L144.872 129.986L143.921 129.677ZM145.115 126L146.066 125.691L145.115 122.764L144.164 125.691L145.115 126ZM146.31 129.677L145.359 129.986L145.583 130.677H146.31V129.677ZM150.23 129.677L150.818 130.486L153.308 128.677H150.23V129.677ZM147.069 131.973L146.481 131.164L145.893 131.592L146.118 132.282L147.069 131.973ZM148.277 135.69L147.689 136.499L150.179 138.308L149.228 135.381L148.277 135.69ZM145.115 133.393L145.703 132.584L145.115 132.157L144.527 132.584L145.115 133.393ZM141.954 135.69L141.003 135.381L140.052 138.308L142.542 136.499L141.954 135.69ZM144 114.677V113.677H140.922L143.412 115.486L144 114.677ZM147.161 116.973L148.112 117.282L148.337 116.592L147.749 116.164L147.161 116.973ZM147.921 114.677V115.677H148.647L148.872 114.986L147.921 114.677ZM149.115 111L150.066 110.691L149.115 107.764L148.164 110.691L149.115 111ZM150.31 114.677L149.359 114.986L149.583 115.677H150.31V114.677ZM154.23 114.677L154.818 115.486L157.308 113.677H154.23V114.677ZM151.069 116.973L150.481 116.164L149.893 116.592L150.118 117.282L151.069 116.973ZM152.277 120.69L151.689 121.499L154.179 123.308L153.228 120.381L152.277 120.69ZM149.115 118.393L149.703 117.584L149.115 117.157L148.527 117.584L149.115 118.393ZM145.954 120.69L145.003 120.381L144.052 123.308L146.542 121.499L145.954 120.69ZM155 103.677V102.677H151.922L154.412 104.486L155 103.677ZM158.161 105.973L159.112 106.282L159.337 105.592L158.749 105.164L158.161 105.973ZM158.921 103.677V104.677H159.647L159.872 103.986L158.921 103.677ZM160.115 100L161.066 99.691L160.115 96.7638L159.164 99.691L160.115 100ZM161.31 103.677L160.359 103.986L160.583 104.677H161.31V103.677ZM165.23 103.677L165.818 104.486L168.308 102.677H165.23V103.677ZM162.069 105.973L161.481 105.164L160.893 105.592L161.118 106.282L162.069 105.973ZM163.277 109.69L162.689 110.499L165.179 112.308L164.228 109.381L163.277 109.69ZM160.115 107.393L160.703 106.584L160.115 106.157L159.527 106.584L160.115 107.393ZM156.954 109.69L156.003 109.381L155.052 112.308L157.542 110.499L156.954 109.69ZM170.436 120.211L169.445 120.075L169.253 121.474L170.637 121.191L170.436 120.211ZM175 122.257L174.135 122.759L175 124.248L175.865 122.759L175 122.257ZM174.373 116.273L174.237 115.282L174.237 115.282L174.373 116.273ZM179.564 120.211L179.363 121.191L180.747 121.474L180.555 120.075L179.564 120.211ZM173.749 101.164L170.588 98.8676L169.412 100.486L172.574 102.783L173.749 101.164ZM172.905 105.999L174.112 102.282L172.21 101.664L171.003 105.381L172.905 105.999ZM174.527 102.584L171.366 104.881L172.542 106.499L175.703 104.202L174.527 102.584ZM178.864 104.881L175.703 102.584L174.527 104.202L177.689 106.499L178.864 104.881ZM176.118 102.282L177.325 105.999L179.228 105.381L178.02 101.664L176.118 102.282ZM179.643 98.8676L176.481 101.164L177.657 102.783L180.818 100.486L179.643 98.8676ZM176.31 100.677H180.23V98.6766H176.31V100.677ZM174.164 96.309L175.359 99.9857L177.261 99.3676L176.066 95.691L174.164 96.309ZM174.872 99.9856L176.066 96.309L174.164 95.691L172.97 99.3676L174.872 99.9856ZM170 100.677H173.921V98.6766H170V100.677ZM188.749 105.164L185.588 102.868L184.412 104.486L187.574 106.783L188.749 105.164ZM187.905 109.999L189.112 106.282L187.21 105.664L186.003 109.381L187.905 109.999ZM189.527 106.584L186.366 108.881L187.542 110.499L190.703 108.202L189.527 106.584ZM193.864 108.881L190.703 106.584L189.527 108.202L192.689 110.499L193.864 108.881ZM191.118 106.282L192.325 109.999L194.228 109.381L193.02 105.664L191.118 106.282ZM194.643 102.868L191.481 105.164L192.657 106.783L195.818 104.486L194.643 102.868ZM191.31 104.677H195.23V102.677H191.31V104.677ZM189.164 100.309L190.359 103.986L192.261 103.368L191.066 99.691L189.164 100.309ZM189.872 103.986L191.066 100.309L189.164 99.691L187.97 103.368L189.872 103.986ZM185 104.677H188.921V102.677H185V104.677ZM199.749 116.164L196.588 113.868L195.412 115.486L198.574 117.783L199.749 116.164ZM198.905 120.999L200.112 117.282L198.21 116.664L197.003 120.381L198.905 120.999ZM200.527 117.584L197.366 119.881L198.542 121.499L201.703 119.202L200.527 117.584ZM204.864 119.881L201.703 117.584L200.527 119.202L203.689 121.499L204.864 119.881ZM202.118 117.282L203.325 120.999L205.228 120.381L204.02 116.664L202.118 117.282ZM205.643 113.868L202.481 116.164L203.657 117.783L206.818 115.486L205.643 113.868ZM202.31 115.677H206.23V113.677H202.31V115.677ZM200.164 111.309L201.359 114.986L203.261 114.368L202.066 110.691L200.164 111.309ZM200.872 114.986L202.066 111.309L200.164 110.691L198.97 114.368L200.872 114.986ZM196 115.677H199.921V113.677H196V115.677ZM173.165 121.174C171.408 120.152 169.157 120.748 168.136 122.504L169.864 123.51C170.331 122.708 171.358 122.436 172.159 122.902L173.165 121.174ZM174.993 124.24C174.953 122.971 174.262 121.812 173.165 121.174L172.159 122.902C172.66 123.194 172.975 123.723 172.993 124.302L174.993 124.24ZM174.993 130.706V124.271H172.993V130.706H174.993ZM165.065 139.084C170.094 139.535 174.537 135.824 174.989 130.796L172.997 130.616C172.643 134.546 169.172 137.445 165.243 137.092L165.065 139.084ZM159.628 136.645C161.117 138.043 163.031 138.901 165.064 139.084L165.244 137.092C163.655 136.949 162.159 136.279 160.996 135.187L159.628 136.645ZM148.946 141.576C153.802 143.51 159.307 141.142 161.241 136.286L159.383 135.546C157.857 139.376 153.516 141.244 149.686 139.718L148.946 141.576ZM146.928 140.471C147.554 140.921 148.231 141.292 148.947 141.576L149.685 139.718C149.123 139.494 148.588 139.201 148.094 138.847L146.928 140.471ZM159.873 138.168C159.501 141.403 156.815 143.421 154.037 143.751C152.661 143.914 151.351 143.646 150.367 142.977C149.409 142.326 148.674 141.238 148.506 139.559L146.516 139.759C146.739 141.983 147.76 143.623 149.243 144.631C150.7 145.622 152.517 145.945 154.272 145.737C157.759 145.323 161.359 142.75 161.859 138.396L159.873 138.168ZM174.03 134.699C172.928 138.378 170.55 140.496 168.192 141.042C165.884 141.577 163.373 140.663 161.735 137.787L159.997 138.777C162.034 142.353 165.401 143.742 168.643 142.991C171.836 142.251 174.681 139.495 175.946 135.273L174.03 134.699ZM175.011 133.986H174.988V135.986H175.011V133.986ZM188.265 137.787C186.627 140.663 184.116 141.577 181.808 141.042C179.45 140.496 177.071 138.378 175.969 134.699L174.053 135.273C175.318 139.495 178.164 142.251 181.357 142.991C184.599 143.742 187.966 142.353 190.003 138.777L188.265 137.787ZM201.493 139.559C201.325 141.238 200.59 142.326 199.632 142.977C198.649 143.646 197.339 143.914 195.963 143.751C193.185 143.421 190.499 141.403 190.127 138.168L188.141 138.396C188.641 142.75 192.241 145.323 195.727 145.737C197.482 145.945 199.299 145.622 200.756 144.631C202.239 143.623 203.26 141.983 203.483 139.759L201.493 139.559ZM201.053 141.576C201.769 141.292 202.447 140.92 203.072 140.471L201.904 138.847C201.411 139.202 200.877 139.494 200.315 139.718L201.053 141.576ZM188.759 136.286C190.693 141.142 196.198 143.51 201.054 141.576L200.314 139.718C196.484 141.244 192.143 139.376 190.617 135.546L188.759 136.286ZM184.936 139.084C186.969 138.901 188.883 138.043 190.372 136.645L189.004 135.187C187.841 136.279 186.345 136.949 184.756 137.092L184.936 139.084ZM175.011 130.795C175.462 135.825 179.905 139.535 184.935 139.084L184.757 137.092C180.827 137.445 177.356 134.545 177.003 130.617L175.011 130.795ZM175.007 124.271V130.706H177.007V124.271H175.007ZM178.797 120.676C176.767 120.615 175.071 122.21 175.007 124.24L177.007 124.302C177.035 123.376 177.809 122.647 178.737 122.676L178.797 120.676ZM181.864 122.504C181.226 121.407 180.067 120.716 178.798 120.676L178.736 122.676C179.315 122.694 179.844 123.009 180.136 123.51L181.864 122.504ZM176.675 115.966C179.465 116.891 180.976 119.903 180.051 122.692L181.949 123.322C183.222 119.485 181.143 115.341 177.305 114.068L176.675 115.966ZM169.949 119.342C170.874 116.552 173.885 115.041 176.675 115.966L177.305 114.068C173.467 112.795 169.324 114.874 168.051 118.712L169.949 119.342ZM169.949 122.692C169.588 121.604 169.588 120.43 169.949 119.342L168.051 118.712C167.554 120.208 167.554 121.826 168.051 123.322L169.949 122.692ZM167.087 144.987L167.087 144.987L165.273 144.145L165.272 144.146L167.087 144.987ZM163.763 145.284C165.216 145.095 165.82 145.516 165.669 145.427L166.69 143.707C166.5 143.594 165.45 143.048 163.505 143.3L163.763 145.284ZM161.15 142.574C161.765 142.994 162.491 143.764 162.658 144.51L164.61 144.074C164.281 142.598 163.059 141.456 162.278 140.922L161.15 142.574ZM161.78 144.589C161.718 144.328 161.739 143.934 161.879 143.488C162.016 143.047 162.236 142.66 162.454 142.42L160.974 141.076C160.526 141.569 160.177 142.226 159.969 142.892C159.764 143.552 159.664 144.326 159.832 145.045L161.78 144.589ZM158.43 145.851C159.007 146.668 159.007 146.668 159.007 146.668C159.007 146.668 159.007 146.668 159.006 146.668C159.006 146.668 159.006 146.668 159.006 146.668C159.006 146.669 159.006 146.669 159.005 146.669C159.005 146.669 159.005 146.669 159.005 146.669C159.006 146.668 159.008 146.667 159.01 146.666C159.015 146.662 159.025 146.656 159.038 146.647C159.064 146.629 159.105 146.602 159.16 146.568C159.269 146.5 159.428 146.405 159.621 146.304C160.019 146.095 160.511 145.887 160.985 145.801L160.627 143.833C159.873 143.97 159.177 144.279 158.694 144.532C158.446 144.661 158.242 144.783 158.097 144.874C158.025 144.919 157.967 144.957 157.926 144.985C157.905 144.998 157.888 145.01 157.876 145.018C157.87 145.022 157.865 145.026 157.861 145.028C157.859 145.03 157.858 145.031 157.856 145.032C157.856 145.032 157.855 145.033 157.854 145.033C157.854 145.033 157.854 145.034 157.854 145.034C157.854 145.034 157.853 145.034 157.853 145.034C157.853 145.034 157.853 145.034 158.43 145.851ZM165.272 144.146C164.55 145.706 163.555 146.447 162.594 146.612C161.63 146.777 160.41 146.413 159.136 145.143L157.724 146.559C159.304 148.134 161.142 148.89 162.932 148.583C164.724 148.276 166.176 146.952 167.087 144.987L165.272 144.146ZM166.686 143.704L166.685 143.704L165.674 145.429L165.674 145.43L166.686 143.704ZM165.18 144.566V144.567H167.18V144.566H165.18ZM178.124 143.604L178.124 143.605L179.777 144.73L179.778 144.73L178.124 143.604ZM179.951 144.168V144.167H177.951V144.168H179.951ZM178.322 144.945L178.322 144.946L179.58 143.39L179.579 143.39L178.322 144.945ZM179.594 143.402C179.422 143.258 178.475 142.55 176.518 142.483L176.448 144.481C177.911 144.532 178.439 145.044 178.308 144.934L179.594 143.402ZM170.284 144.757C171.586 146.568 173.277 147.613 175.093 147.601C176.911 147.59 178.56 146.521 179.777 144.73L178.124 143.605C177.158 145.026 176.055 145.595 175.08 145.602C174.103 145.608 172.958 145.05 171.908 143.589L170.284 144.757ZM173.592 142.54C172.825 142.552 172.089 142.743 171.571 142.914C171.306 143.002 171.084 143.089 170.927 143.154C170.848 143.188 170.785 143.216 170.739 143.236C170.717 143.246 170.698 143.255 170.685 143.261C170.678 143.264 170.673 143.267 170.669 143.269C170.667 143.27 170.665 143.271 170.663 143.271C170.662 143.272 170.662 143.272 170.661 143.272C170.661 143.273 170.661 143.273 170.66 143.273C170.66 143.273 170.66 143.273 170.66 143.273C170.66 143.273 170.66 143.273 171.096 144.173C171.532 145.073 171.532 145.073 171.532 145.073C171.532 145.073 171.532 145.073 171.532 145.073C171.532 145.073 171.531 145.073 171.531 145.073C171.531 145.073 171.531 145.074 171.531 145.074C171.53 145.074 171.53 145.074 171.531 145.074C171.531 145.073 171.533 145.072 171.536 145.071C171.542 145.068 171.552 145.064 171.566 145.057C171.595 145.044 171.64 145.024 171.699 144.999C171.818 144.95 171.99 144.882 172.197 144.814C172.623 144.673 173.143 144.548 173.624 144.54L173.592 142.54ZM174.382 139.875C173.86 140.289 173.409 140.881 173.096 141.504C172.785 142.122 172.56 142.87 172.61 143.608L174.606 143.472C174.588 143.205 174.672 142.82 174.882 142.402C175.09 141.99 175.37 141.644 175.624 141.443L174.382 139.875ZM177.481 143.427C177.398 141.916 176.377 140.589 175.694 139.936L174.312 141.382C174.851 141.897 175.442 142.774 175.485 143.537L177.481 143.427ZM182.969 145.024C183.959 147.023 185.457 148.329 187.251 148.613C189.047 148.898 190.847 148.111 192.341 146.543L190.893 145.163C189.708 146.408 188.527 146.79 187.564 146.638C186.598 146.485 185.56 145.748 184.761 144.136L182.969 145.024ZM186.594 143.375C185.835 143.262 185.077 143.331 184.538 143.415C184.263 143.459 184.03 143.508 183.864 143.548C183.781 143.567 183.714 143.585 183.666 143.598C183.642 143.604 183.622 143.609 183.608 143.613C183.601 143.615 183.595 143.617 183.591 143.618C183.588 143.619 183.586 143.62 183.585 143.62C183.584 143.62 183.583 143.621 183.583 143.621C183.582 143.621 183.582 143.621 183.582 143.621C183.582 143.621 183.581 143.621 183.581 143.621C183.581 143.621 183.581 143.621 183.865 144.58C184.149 145.539 184.149 145.539 184.149 145.539C184.149 145.539 184.148 145.539 184.148 145.539C184.148 145.539 184.148 145.539 184.148 145.539C184.148 145.539 184.147 145.539 184.147 145.539C184.147 145.539 184.147 145.539 184.147 145.539C184.148 145.539 184.15 145.539 184.153 145.538C184.159 145.536 184.17 145.533 184.185 145.529C184.215 145.521 184.263 145.508 184.326 145.493C184.451 145.464 184.632 145.425 184.848 145.391C185.291 145.322 185.824 145.283 186.3 145.353L186.594 143.375ZM187.808 140.874C187.226 141.197 186.684 141.708 186.273 142.272C185.866 142.831 185.523 143.532 185.452 144.268L187.442 144.46C187.468 144.194 187.615 143.827 187.89 143.449C188.162 143.076 188.494 142.781 188.778 142.624L187.808 140.874ZM190.287 144.883C190.451 143.379 189.661 141.905 189.092 141.148L187.494 142.35C187.941 142.945 188.381 143.907 188.299 144.667L190.287 144.883ZM191.617 145.853C192.38 145.207 192.38 145.207 192.38 145.206C192.379 145.206 192.379 145.206 192.379 145.205C192.378 145.205 192.378 145.204 192.377 145.203C192.376 145.202 192.375 145.201 192.374 145.2C192.372 145.197 192.369 145.194 192.367 145.191C192.362 145.186 192.356 145.179 192.349 145.172C192.336 145.157 192.32 145.14 192.301 145.121C192.264 145.082 192.214 145.035 192.151 144.98C192.026 144.871 191.851 144.734 191.617 144.591C191.148 144.302 190.456 143.989 189.49 143.795L189.096 145.755C189.831 145.903 190.301 146.129 190.569 146.294C190.703 146.377 190.79 146.446 190.835 146.485C190.857 146.505 190.869 146.517 190.872 146.52C190.874 146.522 190.873 146.521 190.87 146.517C190.868 146.516 190.866 146.513 190.863 146.51C190.862 146.509 190.861 146.507 190.859 146.505C190.858 146.504 190.857 146.503 190.856 146.502C190.856 146.502 190.856 146.501 190.855 146.501C190.855 146.5 190.855 146.5 190.854 146.5C190.854 146.499 190.854 146.499 191.617 145.853ZM155.743 154.061L154.602 150.227L152.685 150.797L153.826 154.631L155.743 154.061ZM195.501 153.387C182.123 149.405 167.876 149.405 154.499 153.387L155.07 155.304C168.074 151.433 181.925 151.433 194.93 155.304L195.501 153.387ZM195.398 150.227L194.257 154.061L196.174 154.631L197.315 150.797L195.398 150.227ZM153.929 151.471C167.678 147.377 182.321 147.377 196.071 151.471L196.642 149.554C182.519 145.349 167.48 145.349 153.358 149.554L153.929 151.471ZM203.749 131.164L200.588 128.868L199.412 130.486L202.574 132.783L203.749 131.164ZM202.905 135.999L204.112 132.282L202.21 131.664L201.003 135.381L202.905 135.999ZM204.527 132.584L201.366 134.881L202.542 136.499L205.703 134.202L204.527 132.584ZM208.864 134.881L205.703 132.584L204.527 134.202L207.689 136.499L208.864 134.881ZM206.118 132.282L207.325 135.999L209.228 135.381L208.02 131.664L206.118 132.282ZM209.643 128.868L206.481 131.164L207.657 132.783L210.818 130.486L209.643 128.868ZM206.31 130.677H210.23V128.677H206.31V130.677ZM204.164 126.309L205.359 129.986L207.261 129.368L206.066 125.691L204.164 126.309ZM204.872 129.986L206.066 126.309L204.164 125.691L202.97 129.368L204.872 129.986ZM200 130.677H203.921V128.677H200V130.677ZM139.412 130.486L142.574 132.783L143.749 131.164L140.588 128.868L139.412 130.486ZM143.921 128.677H140V130.677H143.921V128.677ZM144.164 125.691L142.97 129.368L144.872 129.986L146.066 126.309L144.164 125.691ZM147.261 129.368L146.066 125.691L144.164 126.309L145.359 129.986L147.261 129.368ZM150.23 128.677H146.31V130.677H150.23V128.677ZM147.657 132.783L150.818 130.486L149.643 128.868L146.481 131.164L147.657 132.783ZM149.228 135.381L148.02 131.664L146.118 132.282L147.325 135.999L149.228 135.381ZM144.527 134.202L147.689 136.499L148.864 134.881L145.703 132.584L144.527 134.202ZM142.542 136.499L145.703 134.202L144.527 132.584L141.366 134.881L142.542 136.499ZM142.21 131.664L141.003 135.381L142.905 135.999L144.112 132.282L142.21 131.664ZM143.412 115.486L146.574 117.783L147.749 116.164L144.588 113.868L143.412 115.486ZM147.921 113.677H144V115.677H147.921V113.677ZM148.164 110.691L146.97 114.368L148.872 114.986L150.066 111.309L148.164 110.691ZM151.261 114.368L150.066 110.691L148.164 111.309L149.359 114.986L151.261 114.368ZM154.23 113.677H150.31V115.677H154.23V113.677ZM151.657 117.783L154.818 115.486L153.643 113.868L150.481 116.164L151.657 117.783ZM153.228 120.381L152.02 116.664L150.118 117.282L151.325 120.999L153.228 120.381ZM148.527 119.202L151.689 121.499L152.864 119.881L149.703 117.584L148.527 119.202ZM146.542 121.499L149.703 119.202L148.527 117.584L145.366 119.881L146.542 121.499ZM146.21 116.664L145.003 120.381L146.905 120.999L148.112 117.282L146.21 116.664ZM154.412 104.486L157.574 106.783L158.749 105.164L155.588 102.868L154.412 104.486ZM158.921 102.677H155V104.677H158.921V102.677ZM159.164 99.691L157.97 103.368L159.872 103.986L161.066 100.309L159.164 99.691ZM162.261 103.368L161.066 99.691L159.164 100.309L160.359 103.986L162.261 103.368ZM165.23 102.677H161.31V104.677H165.23V102.677ZM162.657 106.783L165.818 104.486L164.643 102.868L161.481 105.164L162.657 106.783ZM164.228 109.381L163.02 105.664L161.118 106.282L162.325 109.999L164.228 109.381ZM159.527 108.202L162.689 110.499L163.864 108.881L160.703 106.584L159.527 108.202ZM157.542 110.499L160.703 108.202L159.527 106.584L156.366 108.881L157.542 110.499ZM157.21 105.664L156.003 109.381L157.905 109.999L159.112 106.282L157.21 105.664ZM170.637 121.191C172.019 120.908 173.427 121.539 174.135 122.759L175.865 121.755C174.725 119.793 172.459 118.776 170.235 119.231L170.637 121.191ZM174.237 115.282C171.746 115.626 169.787 117.584 169.445 120.075L171.427 120.347C171.647 118.744 172.906 117.484 174.509 117.264L174.237 115.282ZM180.555 120.075C180.134 117.007 177.305 114.861 174.237 115.282L174.509 117.264C176.483 116.993 178.302 118.373 178.573 120.347L180.555 120.075ZM175.865 122.759C176.573 121.539 177.981 120.908 179.363 121.191L179.765 119.231C177.541 118.776 175.275 119.793 174.135 121.755L175.865 122.759Z" fill="white"/>
</g>
</g>
</g>
</svg>
