<svg width="350" height="250" viewBox="0 0 350 250" fill="none" xmlns="http://www.w3.org/2000/svg">
<g id="flag / europe / czech republic / b">
<g id="czech republic b">
<g id="red">
<path fill-rule="evenodd" clip-rule="evenodd" d="M175 125L25 225H325V125H175Z" fill="#C4242B" fill-opacity="1"/>
<path d="M25 225L24.4453 224.168L21.6972 226H25V225ZM175 125V124H174.697L174.445 124.168L175 125ZM325 225V226H326V225H325ZM325 125H326V124H325V125ZM25.5547 225.832L175.555 125.832L174.445 124.168L24.4453 224.168L25.5547 225.832ZM25 226H325V224H25V226ZM326 225V125H324V225H326ZM325 124H175V126H325V124Z" fill="white"/>
</g>
<g id="white">
<path fill-rule="evenodd" clip-rule="evenodd" d="M325 125H175L25 25H325V125Z" fill="#FFFFFE" fill-opacity="1"/>
<path d="M175 125L174.445 125.832L174.697 126H175V125ZM325 125V126H326V125H325ZM25 25V24H21.6972L24.4453 25.8321L25 25ZM325 25H326V24H325V25ZM175 126H325V124H175V126ZM175.555 124.168L25.5547 24.1679L24.4453 25.8321L174.445 125.832L175.555 124.168ZM325 24H25V26H325V24ZM326 125V25H324V125H326Z" fill="white"/>
</g>
<g id="blue">
<path fill-rule="evenodd" clip-rule="evenodd" d="M175 125L25 25V225L175 125Z" fill="#213F6A" fill-opacity="1"/>
<path d="M175 125L25 25V225L175 125" stroke="white" stroke-width="2"/>
</g>
</g>
</g>
</svg>
