<svg width="350" height="250" viewBox="0 0 350 250" fill="none" xmlns="http://www.w3.org/2000/svg">
<g id="flag / north america / saint lucia / b">
<g id="saint lucia b">
<g id="sky">
<path fill-rule="evenodd" clip-rule="evenodd" d="M325 199.94V50H25V199.94H325ZM225 187H125L175 63.5L225 187Z" fill="#72C3E2" fill-opacity="1"/>
<path d="M325 50H326V49H325V50ZM325 199.94V200.94H326V199.94H325ZM25 50V49H24V50H25ZM25 199.94H24V200.94H25V199.94ZM125 187L124.073 186.625L123.516 188H125V187ZM225 187V188H226.484L225.927 186.625L225 187ZM175 63.5L175.927 63.1247L175 60.8352L174.073 63.1247L175 63.5ZM324 50V199.94H326V50H324ZM25 51H325V49H25V51ZM26 199.94V50H24V199.94H26ZM325 198.94H25V200.94H325V198.94ZM125 188H225V186H125V188ZM125.927 187.375L175.927 63.8753L174.073 63.1247L124.073 186.625L125.927 187.375ZM174.073 63.8753L224.073 187.375L225.927 186.625L175.927 63.1247L174.073 63.8753Z" fill="white"/>
</g>
<g id="black">
<path fill-rule="evenodd" clip-rule="evenodd" d="M211.467 170.219L175 80L138.533 170.219L175 125L211.467 170.219Z" fill="#0A0B09" fill-opacity="1"/>
<path d="M211.467 170.219L210.689 170.847L212.394 169.844L211.467 170.219ZM175 80L175.927 79.6253L175 77.3316L174.073 79.6253L175 80ZM138.533 170.219L137.606 169.844L139.311 170.847L138.533 170.219ZM175 125L175.778 124.372L175 123.407L174.221 124.372L175 125ZM212.394 169.844L175.927 79.6253L174.073 80.3747L210.54 170.594L212.394 169.844ZM174.073 79.6253L137.606 169.844L139.46 170.594L175.927 80.3747L174.073 79.6253ZM174.221 124.372L137.754 169.591L139.311 170.847L175.778 125.628L174.221 124.372ZM212.245 169.591L175.778 124.372L174.221 125.628L210.689 170.847L212.245 169.591Z" fill="white"/>
</g>
<g id="white">
<path fill-rule="evenodd" clip-rule="evenodd" d="M125 187L175 63.5L225 187L211.467 170.219L175 80L138.533 170.219L125 187Z" fill="white" fill-opacity="1"/>
<path d="M175 63.5L175.927 63.1247C175.774 62.7471 175.407 62.5 175 62.5C174.593 62.5 174.226 62.7471 174.073 63.1247L175 63.5ZM125 187L124.073 186.625C123.887 187.084 124.066 187.611 124.493 187.862C124.92 188.113 125.467 188.014 125.778 187.628L125 187ZM225 187L224.222 187.628C224.533 188.014 225.08 188.113 225.507 187.862C225.934 187.611 226.113 187.084 225.927 186.625L225 187ZM211.467 170.219L210.54 170.594C210.577 170.685 210.627 170.77 210.689 170.847L211.467 170.219ZM175 80L175.927 79.6252C175.774 79.2474 175.408 79 175 79C174.592 79 174.226 79.2474 174.073 79.6252L175 80ZM138.533 170.219L139.311 170.847C139.373 170.77 139.423 170.685 139.46 170.594L138.533 170.219ZM174.073 63.1247L124.073 186.625L125.927 187.375L175.927 63.8753L174.073 63.1247ZM225.927 186.625L175.927 63.1247L174.073 63.8753L224.073 187.375L225.927 186.625ZM225.778 186.372L212.246 169.591L210.689 170.847L224.222 187.628L225.778 186.372ZM212.394 169.844L175.927 79.6252L174.073 80.3748L210.54 170.594L212.394 169.844ZM174.073 79.6252L137.606 169.844L139.46 170.594L175.927 80.3748L174.073 79.6252ZM137.754 169.591L124.222 186.372L125.778 187.628L139.311 170.847L137.754 169.591Z" fill="white"/>
</g>
<g id="yellow">
<path fill-rule="evenodd" clip-rule="evenodd" d="M125 187H225L175 125L125 187Z" fill="#F6CD2B" fill-opacity="1"/>
<path d="M125 187H225L175 125L125 187" stroke="white" stroke-width="2"/>
</g>
</g>
</g>
</svg>
