<svg width="350" height="250" viewBox="0 0 350 250" fill="none" xmlns="http://www.w3.org/2000/svg">
<g id="flag / africa / namibia / a">
<g id="namibia a">
<path id="sun" fill-rule="evenodd" clip-rule="evenodd" d="M85 46.667L90.176 60.682L101.667 51.133L99.142 65.858L113.867 63.333L104.318 74.824L118.333 80L104.318 85.176L113.867 96.667L99.142 94.142L101.667 108.868L90.176 99.319L85 113.333L79.824 99.319L68.333 108.868L70.858 94.142L56.132 96.667L65.681 85.176L51.667 80L65.681 74.824L56.132 63.333L70.858 65.858L68.333 51.133L79.824 60.682L85 46.667ZM85 60.667C95.6773 60.667 104.333 69.3227 104.333 80C104.333 90.6773 95.6773 99.333 85 99.333C74.3227 99.333 65.667 90.6773 65.667 80C65.667 69.3227 74.3227 60.667 85 60.667ZM67.667 80C67.667 70.4273 75.4273 62.667 85 62.667C94.5727 62.667 102.333 70.4273 102.333 80C102.333 89.5727 94.5727 97.333 85 97.333C75.4273 97.333 67.667 89.5727 67.667 80Z" fill="#F8CA23"/>
<path id="green" fill-rule="evenodd" clip-rule="evenodd" d="M79.083 225H325V61.0554L79.083 225Z" fill="#0D8B44"/>
<path id="white" fill-rule="evenodd" clip-rule="evenodd" d="M61.0555 225H79.0833L325 61.0555V49.037L61.0555 225ZM288.944 25H270.917L25 188.944V200.963L288.944 25Z" fill="white"/>
<path id="red" fill-rule="evenodd" clip-rule="evenodd" d="M325 49.037L61.0555 225H25V200.963L288.944 25H325V49.037Z" fill="#C02537"/>
<path id="blue" fill-rule="evenodd" clip-rule="evenodd" d="M270.917 25L25 188.944V25H270.917ZM90.176 60.682L85 46.667L79.824 60.682L68.333 51.133L70.858 65.858L56.132 63.333L65.681 74.824L51.667 80L65.681 85.176L56.132 96.667L70.858 94.142L68.333 108.868L79.824 99.319L85 113.333L90.176 99.319L101.667 108.868L99.142 94.142L113.867 96.667L104.318 85.176L118.333 80L104.318 74.824L113.867 63.333L99.142 65.858L101.667 51.133L90.176 60.682ZM85 60.667C95.6773 60.667 104.333 69.3227 104.333 80C104.333 90.6773 95.6773 99.333 85 99.333C74.3227 99.333 65.667 90.6773 65.667 80C65.667 69.3227 74.3227 60.667 85 60.667ZM67.667 80C67.667 70.4273 75.4273 62.667 85 62.667C94.5727 62.667 102.333 70.4273 102.333 80C102.333 89.5727 94.5727 97.333 85 97.333C75.4273 97.333 67.667 89.5727 67.667 80Z" fill="#273566"/>
</g>
</g>
</svg>
