<svg width="350" height="250" viewBox="0 0 350 250" fill="none" xmlns="http://www.w3.org/2000/svg">
<g id="flag / asia / azerbaijan / b">
<g id="azerbaijan b">
<path id="sky" fill-rule="evenodd" clip-rule="evenodd" d="M25 100H325V50H25V100Z" fill="white" fill-opacity="0.5" stroke="white" stroke-width="2"/>
<g id="red">
<path fill-rule="evenodd" clip-rule="evenodd" d="M25 150V100H325V150H25ZM175 143.75C180.522 143.75 185.487 141.363 188.918 137.564C184.876 143.558 178.023 147.5 170.25 147.5C157.823 147.5 147.75 137.426 147.75 125C147.75 112.574 157.823 102.5 170.25 102.5C178.023 102.5 184.876 106.442 188.918 112.436C185.487 108.637 180.522 106.25 175 106.25C164.645 106.25 156.25 114.645 156.25 125C156.25 135.355 164.645 143.75 175 143.75ZM197.646 130.773L204.095 133.833L201.026 127.388L207.75 124.991L201.022 122.604L204.083 116.155L197.638 119.224L195.241 112.5L192.854 119.228L186.405 116.167L189.474 122.612L182.75 125.009L189.477 127.396L186.417 133.845L192.862 130.776L195.259 137.5L197.646 130.773Z" fill="white" fill-opacity="0.5"/>
<path d="M25 100V99H24V100H25ZM25 150H24V151H25V150ZM325 100H326V99H325V100ZM325 150V151H326V150H325ZM188.918 137.564L189.747 138.123L188.176 136.894L188.918 137.564ZM188.918 112.436L188.176 113.106L189.747 111.877L188.918 112.436ZM204.095 133.833L203.666 134.736L206.207 135.942L204.998 133.403L204.095 133.833ZM197.646 130.773L198.075 129.87L197.074 129.395L196.704 130.439L197.646 130.773ZM201.026 127.388L200.69 126.446L199.647 126.818L200.123 127.818L201.026 127.388ZM207.75 124.991L208.086 125.933L210.734 124.989L208.084 124.049L207.75 124.991ZM201.022 122.604L200.119 122.175L199.644 123.176L200.688 123.546L201.022 122.604ZM204.083 116.155L204.986 116.584L206.192 114.043L203.653 115.252L204.083 116.155ZM197.638 119.224L196.696 119.56L197.068 120.603L198.068 120.127L197.638 119.224ZM195.241 112.5L196.183 112.164L195.239 109.516L194.299 112.166L195.241 112.5ZM192.854 119.228L192.425 120.131L193.426 120.606L193.796 119.562L192.854 119.228ZM186.405 116.167L186.834 115.264L184.293 114.058L185.502 116.597L186.405 116.167ZM189.474 122.612L189.81 123.554L190.853 123.182L190.377 122.182L189.474 122.612ZM182.75 125.009L182.414 124.067L179.766 125.011L182.416 125.951L182.75 125.009ZM189.477 127.396L190.38 127.825L190.855 126.824L189.811 126.454L189.477 127.396ZM186.417 133.845L185.514 133.416L184.308 135.957L186.847 134.748L186.417 133.845ZM192.862 130.776L193.804 130.44L193.432 129.397L192.432 129.873L192.862 130.776ZM195.259 137.5L194.317 137.836L195.261 140.484L196.201 137.834L195.259 137.5ZM24 100V150H26V100H24ZM325 99H25V101H325V99ZM326 150V100H324V150H326ZM25 151H325V149H25V151ZM188.176 136.894C184.926 140.491 180.227 142.75 175 142.75V144.75C180.817 144.75 186.047 142.234 189.66 138.234L188.176 136.894ZM170.25 148.5C178.37 148.5 185.527 144.381 189.747 138.123L188.089 137.005C184.225 142.735 177.677 146.5 170.25 146.5V148.5ZM146.75 125C146.75 137.978 157.271 148.5 170.25 148.5V146.5C158.375 146.5 148.75 136.874 148.75 125H146.75ZM170.25 101.5C157.271 101.5 146.75 112.022 146.75 125H148.75C148.75 113.126 158.375 103.5 170.25 103.5V101.5ZM189.747 111.877C185.527 105.619 178.37 101.5 170.25 101.5V103.5C177.677 103.5 184.225 107.265 188.089 112.995L189.747 111.877ZM175 107.25C180.227 107.25 184.926 109.509 188.176 113.106L189.66 111.766C186.047 107.766 180.817 105.25 175 105.25V107.25ZM157.25 125C157.25 115.197 165.197 107.25 175 107.25V105.25C164.093 105.25 155.25 114.093 155.25 125H157.25ZM175 142.75C165.197 142.75 157.25 134.803 157.25 125H155.25C155.25 135.907 164.093 144.75 175 144.75V142.75ZM204.524 132.93L198.075 129.87L197.217 131.676L203.666 134.736L204.524 132.93ZM200.123 127.818L203.192 134.263L204.998 133.403L201.929 126.958L200.123 127.818ZM207.414 124.049L200.69 126.446L201.362 128.33L208.086 125.933L207.414 124.049ZM200.688 123.546L207.416 125.933L208.084 124.049L201.356 121.662L200.688 123.546ZM203.18 115.726L200.119 122.175L201.925 123.033L204.986 116.584L203.18 115.726ZM198.068 120.127L204.513 117.058L203.653 115.252L197.208 118.321L198.068 120.127ZM194.299 112.836L196.696 119.56L198.58 118.888L196.183 112.164L194.299 112.836ZM193.796 119.562L196.183 112.834L194.299 112.166L191.912 118.894L193.796 119.562ZM185.976 117.07L192.425 120.131L193.283 118.325L186.834 115.264L185.976 117.07ZM190.377 122.182L187.308 115.737L185.502 116.597L188.571 123.042L190.377 122.182ZM183.086 125.951L189.81 123.554L189.138 121.67L182.414 124.067L183.086 125.951ZM189.811 126.454L183.084 124.067L182.416 125.951L189.143 128.338L189.811 126.454ZM187.32 134.274L190.38 127.825L188.574 126.967L185.514 133.416L187.32 134.274ZM192.432 129.873L185.987 132.942L186.847 134.748L193.292 131.679L192.432 129.873ZM196.201 137.164L193.804 130.44L191.92 131.112L194.317 137.836L196.201 137.164ZM196.704 130.439L194.317 137.166L196.201 137.834L198.588 131.107L196.704 130.439Z" fill="white"/>
</g>
<path id="green" fill-rule="evenodd" clip-rule="evenodd" d="M25 200H325V150H25V200Z" fill="white" fill-opacity="0.5" stroke="white" stroke-width="2"/>
<g id="white">
<path fill-rule="evenodd" clip-rule="evenodd" d="M170.25 102.5C178.023 102.5 184.876 106.442 188.918 112.436C185.487 108.637 180.522 106.25 175 106.25C164.645 106.25 156.25 114.645 156.25 125C156.25 135.355 164.645 143.75 175 143.75C180.522 143.75 185.487 141.363 188.918 137.564C184.876 143.558 178.023 147.5 170.25 147.5C157.823 147.5 147.75 137.426 147.75 125C147.75 112.574 157.823 102.5 170.25 102.5ZM197.646 130.773L204.095 133.833L201.026 127.388L207.75 124.991L201.022 122.604L204.083 116.155L197.638 119.224L195.241 112.5L192.854 119.228L186.405 116.167L189.474 122.612L182.75 125.009L189.477 127.396L186.417 133.845L192.862 130.776L195.259 137.5L197.646 130.773Z" fill="white" fill-opacity="0.5"/>
<path d="M188.918 112.436L188.176 113.106L189.747 111.877L188.918 112.436ZM188.918 137.564L189.747 138.123L188.176 136.894L188.918 137.564ZM204.095 133.833L203.666 134.736L206.207 135.942L204.998 133.403L204.095 133.833ZM197.646 130.773L198.075 129.87L197.074 129.395L196.704 130.439L197.646 130.773ZM201.026 127.388L200.69 126.446L199.647 126.818L200.123 127.818L201.026 127.388ZM207.75 124.991L208.086 125.933L210.734 124.989L208.084 124.049L207.75 124.991ZM201.022 122.604L200.119 122.175L199.644 123.176L200.688 123.546L201.022 122.604ZM204.083 116.155L204.986 116.584L206.192 114.043L203.653 115.252L204.083 116.155ZM197.638 119.224L196.696 119.56L197.068 120.603L198.068 120.127L197.638 119.224ZM195.241 112.5L196.183 112.164L195.239 109.516L194.299 112.166L195.241 112.5ZM192.854 119.228L192.425 120.131L193.426 120.606L193.796 119.562L192.854 119.228ZM186.405 116.167L186.834 115.264L184.293 114.058L185.502 116.597L186.405 116.167ZM189.474 122.612L189.81 123.554L190.853 123.182L190.377 122.182L189.474 122.612ZM182.75 125.009L182.414 124.067L179.766 125.011L182.416 125.951L182.75 125.009ZM189.477 127.396L190.38 127.825L190.855 126.824L189.811 126.454L189.477 127.396ZM186.417 133.845L185.514 133.416L184.308 135.957L186.847 134.748L186.417 133.845ZM192.862 130.776L193.804 130.44L193.432 129.397L192.432 129.873L192.862 130.776ZM195.259 137.5L194.317 137.836L195.261 140.484L196.201 137.834L195.259 137.5ZM189.747 111.877C185.527 105.619 178.37 101.5 170.25 101.5V103.5C177.677 103.5 184.225 107.265 188.089 112.995L189.747 111.877ZM175 107.25C180.227 107.25 184.926 109.509 188.176 113.106L189.66 111.766C186.047 107.766 180.817 105.25 175 105.25V107.25ZM157.25 125C157.25 115.197 165.197 107.25 175 107.25V105.25C164.093 105.25 155.25 114.093 155.25 125H157.25ZM175 142.75C165.197 142.75 157.25 134.803 157.25 125H155.25C155.25 135.907 164.093 144.75 175 144.75V142.75ZM188.176 136.894C184.926 140.491 180.227 142.75 175 142.75V144.75C180.817 144.75 186.047 142.234 189.66 138.234L188.176 136.894ZM170.25 148.5C178.37 148.5 185.527 144.381 189.747 138.123L188.089 137.005C184.225 142.735 177.677 146.5 170.25 146.5V148.5ZM146.75 125C146.75 137.978 157.271 148.5 170.25 148.5V146.5C158.375 146.5 148.75 136.874 148.75 125H146.75ZM170.25 101.5C157.271 101.5 146.75 112.022 146.75 125H148.75C148.75 113.126 158.375 103.5 170.25 103.5V101.5ZM204.524 132.93L198.075 129.87L197.217 131.676L203.666 134.736L204.524 132.93ZM200.123 127.818L203.192 134.263L204.998 133.403L201.929 126.958L200.123 127.818ZM207.414 124.049L200.69 126.446L201.362 128.33L208.086 125.933L207.414 124.049ZM200.688 123.546L207.416 125.933L208.084 124.049L201.356 121.662L200.688 123.546ZM203.18 115.726L200.119 122.175L201.925 123.033L204.986 116.584L203.18 115.726ZM198.068 120.127L204.513 117.058L203.653 115.252L197.208 118.321L198.068 120.127ZM194.299 112.836L196.696 119.56L198.58 118.888L196.183 112.164L194.299 112.836ZM193.796 119.562L196.183 112.834L194.299 112.166L191.912 118.894L193.796 119.562ZM185.976 117.07L192.425 120.131L193.283 118.325L186.834 115.264L185.976 117.07ZM190.377 122.182L187.308 115.737L185.502 116.597L188.571 123.042L190.377 122.182ZM183.086 125.951L189.81 123.554L189.138 121.67L182.414 124.067L183.086 125.951ZM189.811 126.454L183.084 124.067L182.416 125.951L189.143 128.338L189.811 126.454ZM187.32 134.274L190.38 127.825L188.574 126.967L185.514 133.416L187.32 134.274ZM192.432 129.873L185.987 132.942L186.847 134.748L193.292 131.679L192.432 129.873ZM196.201 137.164L193.804 130.44L191.92 131.112L194.317 137.836L196.201 137.164ZM196.704 130.439L194.317 137.166L196.201 137.834L198.588 131.107L196.704 130.439Z" fill="white"/>
</g>
</g>
</g>
</svg>
