<svg width="350" height="250" viewBox="0 0 350 250" fill="none" xmlns="http://www.w3.org/2000/svg">
<g id="flag / asia / kyrgystan / a">
<g id="kyrgyzstan a">
<path id="red" fill-rule="evenodd" clip-rule="evenodd" d="M325 35V214.94H25V35H325ZM177.16 82.9424C176.807 86.3514 176.451 89.7997 177.52 92.6C177.548 92.673 177.575 92.7452 177.601 92.8165C177.593 92.7463 177.586 92.6755 177.579 92.604C177.272 89.2805 178.832 85.9606 180.426 82.5687C182.085 79.0401 183.779 75.4335 183.447 71.664C186.086 74.8801 184.908 79.3041 183.712 83.7984C182.831 87.1102 181.939 90.4601 182.557 93.393C182.564 93.4279 182.572 93.4626 182.579 93.4971C182.587 93.5387 182.595 93.5801 182.603 93.6211C182.606 93.5503 182.61 93.4789 182.615 93.407C182.832 90.0752 184.892 87.0398 186.998 83.9386C189.188 80.7132 191.425 77.4167 191.687 73.642C193.789 77.2308 191.935 81.4154 190.051 85.6667C188.662 88.8002 187.257 91.97 187.409 94.964C187.413 95.0425 187.416 95.1198 187.419 95.1961C187.433 95.1269 187.448 95.0571 187.464 94.987C188.199 91.7308 190.709 89.0554 193.273 86.3219C195.94 83.4787 198.666 80.5726 199.515 76.885C201.031 80.7589 198.544 84.6019 196.018 88.5061C194.156 91.3836 192.273 94.2943 191.955 97.275C191.947 97.3521 191.938 97.428 191.929 97.5027C191.953 97.4374 191.979 97.3719 192.005 97.306C193.241 94.2049 196.138 91.9552 199.098 89.6568C202.178 87.2659 205.325 84.8224 206.74 81.313C207.631 85.3759 204.574 88.7828 201.468 92.2441C199.179 94.7948 196.864 97.375 196.083 100.269C196.063 100.344 196.042 100.418 196.021 100.49C196.039 100.459 196.057 100.428 196.075 100.397C196.092 100.367 196.11 100.337 196.128 100.307C197.833 97.4376 201.047 95.6689 204.331 93.8617C207.746 91.982 211.237 90.0607 213.184 86.816C213.428 90.9679 209.876 93.8545 206.267 96.787C203.607 98.9483 200.916 101.135 199.692 103.871C199.66 103.944 199.627 104.015 199.594 104.085C199.639 104.029 199.684 103.973 199.731 103.917C201.864 101.349 205.316 100.104 208.842 98.8327C212.509 97.5103 216.257 96.1587 218.687 93.259C218.279 97.3984 214.318 99.6939 210.295 102.026C207.329 103.745 204.33 105.483 202.693 107.994C202.65 108.06 202.607 108.125 202.564 108.188L202.616 108.141L202.653 108.108C202.676 108.087 202.7 108.066 202.724 108.045C205.233 105.843 208.836 105.154 212.517 104.449C216.346 103.717 220.26 102.969 223.114 100.484C222.063 104.509 217.793 106.156 213.454 107.83C210.257 109.064 207.022 110.312 205.013 112.536L204.972 112.581L204.935 112.621C204.909 112.65 204.883 112.678 204.857 112.706C204.915 112.667 204.975 112.629 205.035 112.591C207.858 110.808 211.525 110.691 215.271 110.571C219.168 110.447 223.15 110.32 226.357 108.313C224.689 112.124 220.213 113.083 215.666 114.057C212.315 114.775 208.926 115.502 206.593 117.384C206.532 117.433 206.471 117.482 206.411 117.529C206.475 117.499 206.541 117.471 206.607 117.442C209.674 116.122 213.314 116.58 217.032 117.048C220.9 117.535 224.853 118.033 228.335 116.552C226.092 120.055 221.521 120.303 216.877 120.554C213.455 120.739 209.994 120.926 207.395 122.42C207.327 122.459 207.26 122.497 207.194 122.534C207.262 122.515 207.33 122.497 207.4 122.479C210.635 121.656 214.158 122.678 217.758 123.722C221.502 124.808 225.329 125.918 229 125C226.237 128.109 221.683 127.638 217.058 127.16C213.649 126.807 210.2 126.451 207.4 127.52C207.327 127.548 207.255 127.575 207.184 127.6C207.221 127.596 207.259 127.592 207.296 127.589L207.357 127.583L207.395 127.579C210.719 127.272 214.04 128.832 217.432 130.426C220.96 132.085 224.566 133.779 228.335 133.447C225.119 136.086 220.695 134.908 216.201 133.712C212.89 132.831 209.54 131.939 206.607 132.557L206.535 132.572L206.481 132.583L206.448 132.59L206.379 132.603C206.45 132.606 206.521 132.61 206.593 132.615C209.924 132.832 212.959 134.892 216.06 136.998C219.286 139.187 222.582 141.425 226.357 141.687C222.768 143.789 218.583 141.935 214.332 140.05C211.198 138.661 208.029 137.257 205.035 137.408L204.973 137.411C204.914 137.414 204.857 137.416 204.8 137.418C204.87 137.432 204.941 137.448 205.013 137.464C208.269 138.199 210.945 140.709 213.678 143.273C216.521 145.94 219.427 148.666 223.114 149.515C219.241 151.03 215.398 148.544 211.493 146.018C208.616 144.156 205.705 142.273 202.724 141.954C202.646 141.946 202.568 141.937 202.493 141.927C202.521 141.938 202.55 141.949 202.579 141.96L202.638 141.983L202.693 142.005C205.794 143.24 208.044 146.138 210.343 149.099C212.734 152.178 215.178 155.325 218.687 156.74C214.624 157.631 211.216 154.573 207.755 151.468C205.205 149.179 202.625 146.864 199.731 146.083C199.655 146.063 199.581 146.042 199.508 146.021C199.569 146.056 199.63 146.091 199.692 146.128C202.562 147.833 204.331 151.047 206.138 154.331C208.018 157.746 209.939 161.236 213.184 163.183C209.031 163.428 206.144 159.875 203.212 156.266C201.05 153.606 198.864 150.916 196.128 149.692C196.093 149.676 196.058 149.661 196.024 149.645L195.965 149.618L195.916 149.595C195.972 149.64 196.027 149.685 196.083 149.731C198.65 151.864 199.895 155.315 201.166 158.841C202.489 162.508 203.84 166.257 206.74 168.687C202.601 168.278 200.306 164.318 197.974 160.295C196.255 157.33 194.517 154.33 192.005 152.693C191.94 152.651 191.876 152.608 191.814 152.566C191.861 152.618 191.908 152.67 191.955 152.724C194.157 155.233 194.846 158.836 195.551 162.518C196.283 166.347 197.031 170.26 199.515 173.114C195.491 172.063 193.843 167.792 192.169 163.453C190.935 160.256 189.688 157.022 187.464 155.012C187.406 154.959 187.349 154.907 187.293 154.854C187.332 154.914 187.37 154.974 187.409 155.035C189.192 157.857 189.309 161.524 189.428 165.27C189.553 169.167 189.68 173.149 191.687 176.357C187.876 174.689 186.917 170.213 185.942 165.666C185.224 162.315 184.497 158.925 182.615 156.592C182.565 156.53 182.517 156.469 182.469 156.408C182.499 156.474 182.528 156.54 182.557 156.607C183.877 159.674 183.419 163.314 182.951 167.032C182.464 170.9 181.966 174.853 183.447 178.335C179.945 176.092 179.697 171.521 179.446 166.878C179.261 163.455 179.073 159.993 177.579 157.395C177.54 157.327 177.502 157.26 177.466 157.194C177.484 157.262 177.502 157.33 177.52 157.4C178.343 160.635 177.322 164.159 176.278 167.758C175.192 171.503 174.082 175.329 175 179C171.891 176.237 172.362 171.683 172.84 167.058C173.193 163.649 173.549 160.2 172.48 157.4C172.452 157.326 172.424 157.252 172.398 157.18C172.406 157.251 172.413 157.323 172.42 157.395C172.727 160.72 171.167 164.04 169.573 167.432C167.915 170.96 166.22 174.566 166.552 178.335C163.914 175.119 165.091 170.696 166.287 166.202C167.169 162.89 168.06 159.54 167.442 156.607C167.426 156.53 167.41 156.454 167.396 156.379L167.393 156.439C167.39 156.489 167.387 156.541 167.384 156.592C167.168 159.924 165.107 162.96 163.002 166.061C160.812 169.286 158.575 172.583 158.313 176.357C156.21 172.768 158.065 168.583 159.949 164.331C161.338 161.198 162.742 158.029 162.591 155.035C162.587 154.956 162.584 154.879 162.581 154.803C162.567 154.872 162.552 154.942 162.536 155.012C161.801 158.269 159.29 160.945 156.726 163.678C154.059 166.521 151.333 169.427 150.484 173.114C148.969 169.241 151.455 165.398 153.981 161.493C155.843 158.616 157.726 155.705 158.045 152.724C158.053 152.646 158.062 152.569 158.072 152.493C158.047 152.559 158.021 152.626 157.994 152.693C156.759 155.794 153.861 158.044 150.9 160.343C147.821 162.734 144.674 165.178 143.259 168.687C142.368 164.623 145.426 161.216 148.532 157.755C150.821 155.204 153.136 152.624 153.917 149.731C153.927 149.694 153.937 149.658 153.947 149.621C153.958 149.583 153.969 149.545 153.979 149.508C153.944 149.569 153.909 149.63 153.872 149.692C152.167 152.562 148.952 154.331 145.668 156.139C142.253 158.018 138.762 159.939 136.816 163.183C136.572 159.031 140.124 156.145 143.733 153.212C146.393 151.051 149.084 148.864 150.308 146.128C150.34 146.056 150.372 145.986 150.405 145.916C150.36 145.972 150.315 146.027 150.269 146.083C148.136 148.65 144.685 149.895 141.159 151.166C137.492 152.489 133.743 153.84 131.313 156.74C131.721 152.601 135.682 150.305 139.705 147.973C142.67 146.254 145.669 144.516 147.306 142.005C147.327 141.973 147.347 141.942 147.368 141.91C147.39 141.877 147.413 141.844 147.435 141.811C147.382 141.859 147.329 141.906 147.275 141.954C144.766 144.157 141.162 144.846 137.481 145.551C133.652 146.283 129.739 147.031 126.885 149.515C127.936 145.49 132.207 143.842 136.546 142.169C139.744 140.935 142.978 139.688 144.987 137.464C145.041 137.405 145.094 137.347 145.147 137.29C145.119 137.309 145.09 137.327 145.062 137.346L145.02 137.373L144.964 137.408C142.141 139.191 138.475 139.308 134.728 139.428C130.832 139.553 126.85 139.68 123.643 141.687C125.31 137.876 129.787 136.916 134.334 135.942C137.685 135.223 141.074 134.497 143.407 132.615C143.441 132.587 143.475 132.56 143.509 132.533C143.536 132.512 143.563 132.491 143.589 132.47C143.525 132.5 143.459 132.528 143.393 132.557C140.326 133.877 136.686 133.419 132.967 132.951C129.099 132.464 125.146 131.967 121.665 133.447C123.908 129.945 128.478 129.697 133.122 129.446C136.544 129.261 140.006 129.073 142.605 127.579C142.673 127.54 142.74 127.502 142.806 127.466C142.767 127.476 142.726 127.487 142.686 127.498L142.634 127.511L142.6 127.52C139.365 128.343 135.841 127.322 132.242 126.278C128.497 125.192 124.671 124.082 121 125C123.763 121.891 128.316 122.362 132.942 122.84C136.351 123.192 139.8 123.549 142.6 122.479C142.673 122.451 142.745 122.424 142.816 122.399C142.746 122.406 142.676 122.413 142.605 122.42C139.28 122.727 135.96 121.167 132.568 119.573C129.04 117.915 125.434 116.22 121.665 116.552C124.88 113.914 129.303 115.091 133.797 116.287C137.109 117.169 140.46 118.06 143.393 117.442C143.423 117.436 143.452 117.43 143.482 117.424C143.529 117.414 143.575 117.405 143.621 117.396L143.569 117.393L143.529 117.391C143.488 117.389 143.448 117.387 143.407 117.384C140.076 117.167 137.041 115.107 133.94 113.002C130.714 110.812 127.418 108.575 123.643 108.313C127.232 106.21 131.417 108.065 135.669 109.949C138.802 111.338 141.971 112.742 144.964 112.591C145.043 112.587 145.12 112.584 145.196 112.581C145.127 112.567 145.057 112.552 144.987 112.536C141.731 111.801 139.056 109.291 136.322 106.727C133.479 104.059 130.573 101.333 126.885 100.484C130.759 98.9687 134.603 101.455 138.507 103.982C141.385 105.843 144.295 107.726 147.275 108.045C147.353 108.053 147.431 108.062 147.506 108.072C147.44 108.047 147.373 108.021 147.306 107.994C144.205 106.759 141.955 103.861 139.656 100.9C137.266 97.8213 134.822 94.6743 131.313 93.259C135.376 92.3684 138.783 95.4255 142.244 98.5314C144.795 100.82 147.375 103.136 150.269 103.917C150.346 103.938 150.422 103.959 150.496 103.98C150.433 103.945 150.371 103.908 150.308 103.871C147.438 102.166 145.669 98.9518 143.862 95.6683C141.982 92.253 140.061 88.7625 136.816 86.816C140.968 86.5719 143.855 90.1241 146.788 93.7329C148.949 96.3926 151.136 99.0829 153.872 100.307C153.943 100.339 154.012 100.37 154.081 100.402C154.026 100.359 153.972 100.314 153.917 100.269C151.349 98.1358 150.105 94.6847 148.833 91.1589C147.511 87.4916 146.159 83.7434 143.259 81.313C147.398 81.7212 149.694 85.6815 152.026 89.7049C153.745 92.6699 155.483 95.6691 157.994 97.306C158.06 97.349 158.124 97.3919 158.188 97.4347C158.14 97.3824 158.093 97.3291 158.045 97.275C155.843 94.7664 155.154 91.1633 154.449 87.482C153.717 83.6528 152.969 79.7391 150.484 76.885C154.509 77.9363 156.157 82.2069 157.83 86.5454C159.064 89.7428 160.312 92.9772 162.536 94.987C162.567 95.0146 162.597 95.0421 162.626 95.0695L162.658 95.0985L162.707 95.1444L162.66 95.0722C162.637 95.0365 162.614 95.0004 162.591 94.964C160.808 92.1417 160.691 88.4751 160.572 84.729C160.447 80.8325 160.32 76.8499 158.313 73.642C162.124 75.3099 163.083 79.7858 164.057 84.333C164.775 87.6841 165.502 91.0739 167.384 93.407C167.405 93.4328 167.425 93.4585 167.446 93.4841C167.474 93.5193 167.501 93.5544 167.529 93.5894C167.499 93.5247 167.471 93.4593 167.442 93.393C166.123 90.3268 166.581 86.6873 167.049 82.9688C167.536 79.1004 168.033 75.1465 166.552 71.664C170.055 73.9077 170.303 78.479 170.554 83.1227C170.739 86.5446 170.926 90.0058 172.42 92.604L172.446 92.6495L172.463 92.6798L172.491 92.7296L172.508 92.7603L172.535 92.808C172.516 92.7394 172.498 92.6701 172.48 92.6C171.657 89.3649 172.678 85.8414 173.722 82.2416C174.808 78.4975 175.918 74.6708 175 71C178.109 73.7634 177.638 78.3167 177.16 82.9424ZM175.03 93.848C191.963 93.8461 205.692 107.571 205.695 124.513C205.697 141.447 191.972 155.176 175.039 155.178C158.106 155.181 144.377 141.456 144.374 124.513C144.372 107.58 158.097 93.8509 175.03 93.848ZM165.103 145.414C168.129 146.804 171.488 147.585 175.029 147.585C178.57 147.585 181.929 146.804 184.956 145.414C184.959 145.318 184.962 145.222 184.965 145.126L184.965 145.124C184.974 144.866 184.982 144.607 184.982 144.346C184.982 134.859 181.179 126.27 175.029 120.054C168.88 126.27 165.076 134.859 165.076 144.346C165.076 144.618 165.085 144.889 165.095 145.16L165.095 145.161C165.097 145.245 165.1 145.33 165.103 145.414ZM192.173 106.276C187.73 106.484 183.489 107.47 179.577 109.1C179.018 108.771 178.452 108.456 177.876 108.154C181.978 106.441 186.433 105.423 191.101 105.236C191.469 105.571 191.826 105.919 192.173 106.276ZM182.368 114.424C181.799 114.749 181.241 115.091 180.692 115.448C187.445 121.32 192.108 129.569 193.431 138.909C194.11 138.092 194.735 137.228 195.304 136.324C193.507 127.612 188.854 119.959 182.368 114.424ZM199.058 123.293C199.058 126.205 198.55 128.997 197.621 131.585C195.232 124.258 190.855 117.846 185.121 113.016C188.278 111.578 191.689 110.611 195.269 110.207C197.664 113.984 199.058 118.473 199.058 123.293ZM173.614 115.442C174.095 115.795 174.567 116.158 175.029 116.534C175.49 116.158 175.963 115.795 176.443 115.442C175.981 115.077 175.509 114.724 175.029 114.382C174.549 114.724 174.077 115.078 173.614 115.442ZM172.182 108.155C171.607 108.456 171.041 108.772 170.482 109.1C166.57 107.47 162.329 106.484 157.887 106.276C158.234 105.919 158.59 105.572 158.959 105.236C163.626 105.423 168.081 106.441 172.182 108.155ZM175.029 109.489C174.45 109.788 173.881 110.102 173.319 110.43C173.898 110.731 174.468 111.045 175.029 111.375C175.591 111.045 176.161 110.731 176.739 110.43C176.178 110.102 175.608 109.788 175.029 109.489ZM183.247 111.532C182.797 111.196 182.342 110.865 181.878 110.547C185.503 109.013 189.428 108.065 193.538 107.802C193.801 108.123 194.057 108.45 194.303 108.785C190.407 109.099 186.686 110.043 183.247 111.532ZM175.029 106.788C179.388 104.923 184.142 103.821 189.125 103.624C185.165 100.718 180.297 99 175.029 99C169.762 99 164.894 100.718 160.933 103.624C165.917 103.821 170.67 104.923 175.029 106.788ZM180.46 112.89C179.886 113.202 179.32 113.528 178.766 113.87C178.305 113.52 177.836 113.182 177.359 112.852C177.919 112.516 178.49 112.196 179.068 111.89C179.54 112.212 180.003 112.547 180.46 112.89ZM156.628 138.909C157.951 129.569 162.614 121.321 169.367 115.448C168.818 115.091 168.26 114.749 167.691 114.424C161.205 119.959 156.552 127.612 154.754 136.324C155.324 137.228 155.948 138.092 156.628 138.909ZM154.789 110.207C158.369 110.611 161.781 111.578 164.938 113.016C159.204 117.846 154.827 124.259 152.438 131.585C151.508 128.997 151 126.205 151 123.293C151 118.473 152.395 113.985 154.789 110.207ZM166.81 111.532C167.261 111.196 167.716 110.865 168.181 110.547C164.556 109.013 160.63 108.064 156.52 107.802C156.257 108.122 156.001 108.45 155.755 108.785C159.651 109.099 163.372 110.043 166.81 111.532ZM171.293 113.87C170.739 113.527 170.173 113.202 169.599 112.89C170.056 112.547 170.518 112.212 170.991 111.89C171.569 112.196 172.14 112.515 172.7 112.852C172.224 113.181 171.754 113.519 171.293 113.87ZM188.201 143.606C188.948 143.11 189.668 142.578 190.353 142.003C189.735 132.119 185.244 123.3 178.391 117.082C177.91 117.456 177.44 117.843 176.979 118.242C183.726 124.6 187.999 133.596 188.201 143.606ZM161.857 143.606C161.11 143.11 160.391 142.577 159.705 142.003C160.323 132.119 164.814 123.3 171.667 117.082C172.149 117.456 172.619 117.843 173.08 118.242C166.333 124.6 162.059 133.596 161.857 143.606Z" fill="#D32432"/>
<path id="yellow" fill-rule="evenodd" clip-rule="evenodd" d="M177.52 92.6C176.451 89.7997 176.807 86.3514 177.16 82.9424C177.638 78.3167 178.109 73.7634 175 71C175.918 74.6708 174.808 78.4975 173.722 82.2416C172.678 85.8414 171.657 89.3649 172.48 92.6C172.498 92.6701 172.516 92.7394 172.535 92.808C172.498 92.7406 172.459 92.6726 172.42 92.604C170.926 90.0058 170.739 86.5446 170.554 83.1227C170.303 78.479 170.055 73.9077 166.552 71.664C168.033 75.1465 167.536 79.1004 167.049 82.9688C166.581 86.6873 166.123 90.3268 167.442 93.393C167.471 93.4593 167.499 93.5247 167.529 93.5894C167.482 93.529 167.433 93.4683 167.384 93.407C165.502 91.0739 164.775 87.6841 164.057 84.333C163.083 79.7858 162.124 75.3099 158.313 73.642C160.32 76.8499 160.447 80.8325 160.572 84.729C160.691 88.4751 160.808 92.1417 162.591 94.964C162.63 95.025 162.668 95.0851 162.707 95.1444C162.651 95.0922 162.594 95.0397 162.536 94.987C160.312 92.9772 159.064 89.7428 157.83 86.5454C156.157 82.2069 154.509 77.9363 150.484 76.885C152.969 79.7391 153.717 83.6528 154.449 87.482C155.154 91.1633 155.843 94.7664 158.045 97.275C158.093 97.3291 158.14 97.3824 158.188 97.4348C158.124 97.3919 158.06 97.349 157.994 97.306C155.483 95.6691 153.745 92.6699 152.026 89.7049C149.694 85.6815 147.398 81.7212 143.259 81.313C146.159 83.7434 147.511 87.4916 148.833 91.1589C150.105 94.6847 151.349 98.1358 153.917 100.269C153.972 100.314 154.026 100.359 154.08 100.402C154.012 100.37 153.943 100.339 153.872 100.307C151.136 99.0829 148.949 96.3926 146.788 93.7329C143.855 90.1241 140.968 86.5719 136.816 86.816C140.061 88.7625 141.982 92.253 143.862 95.6682C145.669 98.9518 147.438 102.166 150.308 103.871C150.371 103.908 150.433 103.945 150.496 103.98C150.422 103.959 150.346 103.938 150.269 103.917C147.375 103.136 144.795 100.82 142.244 98.5314C138.783 95.4255 135.376 92.3684 131.313 93.259C134.822 94.6743 137.266 97.8213 139.656 100.9C141.955 103.861 144.205 106.759 147.306 107.994C147.373 108.021 147.44 108.047 147.506 108.072C147.431 108.062 147.353 108.053 147.275 108.045C144.295 107.726 141.385 105.843 138.507 103.982C134.603 101.455 130.759 98.9687 126.885 100.484C130.573 101.333 133.479 104.059 136.322 106.727C139.056 109.291 141.731 111.801 144.987 112.536C145.057 112.552 145.127 112.567 145.196 112.581C145.12 112.584 145.043 112.587 144.964 112.591C141.971 112.742 138.802 111.338 135.669 109.949C131.417 108.065 127.232 106.21 123.643 108.313C127.418 108.575 130.714 110.812 133.94 113.002C137.041 115.107 140.076 117.167 143.407 117.384C143.479 117.389 143.55 117.393 143.621 117.396C143.546 117.41 143.47 117.426 143.393 117.442C140.46 118.06 137.109 117.169 133.797 116.287C129.303 115.091 124.88 113.914 121.665 116.552C125.434 116.22 129.04 117.915 132.568 119.573C135.96 121.167 139.28 122.727 142.605 122.42C142.676 122.413 142.746 122.406 142.816 122.399C142.745 122.424 142.673 122.451 142.6 122.479C139.8 123.549 136.351 123.192 132.942 122.84C128.316 122.362 123.763 121.891 121 125C124.671 124.082 128.497 125.192 132.242 126.278C135.841 127.322 139.365 128.343 142.6 127.52C142.67 127.502 142.738 127.484 142.806 127.466C142.74 127.502 142.673 127.54 142.605 127.579C140.006 129.073 136.544 129.261 133.122 129.446C128.478 129.697 123.908 129.945 121.665 133.447C125.146 131.967 129.099 132.464 132.967 132.951C136.686 133.419 140.326 133.877 143.393 132.557C143.459 132.528 143.525 132.5 143.589 132.47C143.529 132.517 143.468 132.566 143.407 132.615C141.074 134.497 137.685 135.223 134.334 135.942C129.787 136.916 125.31 137.876 123.643 141.687C126.85 139.68 130.832 139.553 134.728 139.428C138.475 139.308 142.141 139.191 144.964 137.408C145.026 137.369 145.087 137.33 145.147 137.29C145.094 137.347 145.041 137.405 144.987 137.464C142.978 139.688 139.744 140.935 136.546 142.169C132.207 143.842 127.936 145.49 126.885 149.515C129.739 147.031 133.652 146.283 137.481 145.551C141.162 144.846 144.766 144.157 147.275 141.954C147.329 141.906 147.382 141.859 147.435 141.811C147.392 141.874 147.349 141.939 147.306 142.005C145.669 144.516 142.67 146.254 139.705 147.973C135.682 150.305 131.721 152.601 131.313 156.74C133.743 153.84 137.492 152.489 141.159 151.166C144.685 149.895 148.136 148.65 150.269 146.083C150.315 146.027 150.36 145.972 150.405 145.916C150.372 145.986 150.34 146.056 150.308 146.128C149.084 148.864 146.393 151.051 143.733 153.212C140.124 156.145 136.572 159.031 136.816 163.183C138.762 159.939 142.253 158.018 145.668 156.139C148.952 154.331 152.167 152.562 153.872 149.692C153.909 149.63 153.944 149.569 153.979 149.508C153.958 149.581 153.937 149.655 153.917 149.731C153.136 152.624 150.821 155.204 148.532 157.755C145.426 161.216 142.368 164.623 143.259 168.687C144.674 165.178 147.821 162.734 150.9 160.343C153.861 158.044 156.759 155.794 157.994 152.693C158.021 152.626 158.047 152.559 158.072 152.493C158.062 152.569 158.053 152.646 158.045 152.724C157.726 155.705 155.843 158.616 153.981 161.493C151.455 165.398 148.969 169.241 150.484 173.114C151.333 169.427 154.059 166.521 156.726 163.678C159.29 160.945 161.801 158.269 162.536 155.012C162.552 154.942 162.567 154.872 162.581 154.803C162.584 154.879 162.587 154.956 162.591 155.035C162.742 158.029 161.338 161.198 159.949 164.331C158.065 168.583 156.21 172.768 158.313 176.357C158.575 172.583 160.812 169.286 163.002 166.061C165.107 162.96 167.168 159.924 167.384 156.592C167.389 156.52 167.393 156.449 167.396 156.379L167.411 156.454L167.417 156.488C167.425 156.527 167.434 156.567 167.442 156.607C168.06 159.54 167.169 162.89 166.287 166.202C165.091 170.696 163.914 175.119 166.552 178.335C166.22 174.566 167.915 170.96 169.573 167.432C171.167 164.04 172.727 160.72 172.42 157.395C172.413 157.323 172.406 157.251 172.398 157.18C172.424 157.252 172.452 157.326 172.48 157.4C173.549 160.2 173.193 163.649 172.84 167.058C172.362 171.683 171.891 176.237 175 179C174.082 175.329 175.192 171.503 176.278 167.758C177.322 164.159 178.343 160.635 177.52 157.4C177.502 157.33 177.484 157.262 177.466 157.194C177.502 157.26 177.54 157.327 177.579 157.395C179.073 159.993 179.261 163.455 179.446 166.878C179.697 171.521 179.945 176.092 183.447 178.335C181.966 174.853 182.464 170.9 182.951 167.032C183.419 163.314 183.877 159.674 182.557 156.607C182.528 156.54 182.499 156.474 182.469 156.408C182.517 156.469 182.565 156.53 182.615 156.592C184.497 158.925 185.224 162.315 185.942 165.666C186.917 170.213 187.876 174.689 191.687 176.357C189.68 173.149 189.553 169.167 189.428 165.27C189.309 161.524 189.192 157.857 187.409 155.035C187.37 154.974 187.332 154.914 187.293 154.855C187.349 154.907 187.406 154.959 187.464 155.012C189.688 157.022 190.935 160.256 192.169 163.453C193.843 167.792 195.491 172.063 199.515 173.114C197.031 170.26 196.283 166.347 195.551 162.518C194.846 158.836 194.157 155.233 191.955 152.724L191.912 152.676L191.874 152.633C191.854 152.611 191.834 152.588 191.814 152.566C191.876 152.608 191.94 152.651 192.005 152.693C194.517 154.33 196.255 157.33 197.974 160.295C200.306 164.318 202.601 168.278 206.74 168.687C203.84 166.257 202.489 162.508 201.166 158.841C199.895 155.315 198.65 151.864 196.083 149.731C196.027 149.685 195.972 149.64 195.916 149.595L195.969 149.62L196.023 149.645C196.058 149.66 196.093 149.676 196.128 149.692C198.864 150.916 201.05 153.606 203.212 156.266C206.144 159.875 209.031 163.428 213.184 163.183C209.939 161.236 208.018 157.746 206.138 154.331C204.331 151.047 202.562 147.833 199.692 146.128C199.63 146.091 199.569 146.056 199.508 146.021L199.58 146.041L199.636 146.057L199.699 146.074L199.731 146.083C202.625 146.864 205.205 149.179 207.755 151.468C211.216 154.573 214.624 157.631 218.687 156.74C215.178 155.325 212.734 152.178 210.343 149.099C208.044 146.138 205.794 143.24 202.693 142.005C202.626 141.978 202.559 141.952 202.493 141.927C202.568 141.937 202.646 141.946 202.724 141.954C205.705 142.273 208.616 144.156 211.493 146.018C215.398 148.544 219.241 151.03 223.114 149.515C219.427 148.666 216.521 145.94 213.678 143.273C210.945 140.709 208.269 138.199 205.013 137.464C204.941 137.448 204.87 137.432 204.8 137.418C204.877 137.415 204.955 137.412 205.035 137.408C208.029 137.257 211.198 138.661 214.332 140.05L214.332 140.05C218.583 141.935 222.768 143.789 226.357 141.687C222.582 141.425 219.286 139.187 216.06 136.998C212.959 134.892 209.924 132.832 206.593 132.615C206.521 132.61 206.45 132.606 206.379 132.603C206.454 132.589 206.53 132.573 206.607 132.557C209.54 131.939 212.89 132.831 216.201 133.712C220.695 134.908 225.119 136.086 228.335 133.447C224.566 133.779 220.96 132.085 217.432 130.426C214.04 128.832 210.719 127.272 207.395 127.579C207.324 127.586 207.254 127.593 207.184 127.6C207.255 127.575 207.327 127.548 207.4 127.52C210.2 126.451 213.649 126.807 217.058 127.16C221.683 127.638 226.237 128.109 229 125C225.329 125.918 221.502 124.808 217.758 123.722C214.158 122.678 210.635 121.656 207.4 122.479C207.33 122.497 207.262 122.515 207.193 122.534C207.247 122.504 207.302 122.473 207.357 122.442L207.395 122.42C209.994 120.926 213.455 120.739 216.877 120.554C221.521 120.303 226.092 120.055 228.335 116.552C224.853 118.033 220.9 117.535 217.032 117.048C213.314 116.58 209.674 116.122 206.607 117.442C206.541 117.471 206.475 117.499 206.411 117.529C206.471 117.482 206.532 117.433 206.593 117.384C208.926 115.502 212.315 114.775 215.666 114.057C220.213 113.083 224.689 112.124 226.357 108.313C223.15 110.32 219.168 110.447 215.271 110.571C211.525 110.691 207.858 110.808 205.035 112.591C204.975 112.629 204.915 112.667 204.857 112.706C204.909 112.65 204.961 112.594 205.013 112.536C207.022 110.312 210.257 109.064 213.454 107.83C217.793 106.156 222.063 104.509 223.114 100.484C220.26 102.969 216.346 103.717 212.517 104.449C208.836 105.154 205.233 105.843 202.724 108.045C202.67 108.093 202.617 108.14 202.564 108.188C202.607 108.125 202.65 108.06 202.693 107.994C204.33 105.483 207.329 103.745 210.295 102.026C214.318 99.6939 218.279 97.3984 218.687 93.259C216.257 96.1587 212.509 97.5103 208.842 98.8327C205.316 100.104 201.864 101.349 199.731 103.917C199.684 103.973 199.639 104.029 199.594 104.085C199.627 104.015 199.66 103.944 199.692 103.871C200.916 101.135 203.607 98.9483 206.267 96.787C209.876 93.8545 213.428 90.9679 213.184 86.816C211.237 90.0607 207.746 91.9819 204.331 93.8617C201.047 95.6689 197.833 97.4376 196.128 100.307C196.092 100.368 196.056 100.429 196.021 100.49C196.042 100.418 196.063 100.344 196.083 100.269C196.864 97.375 199.179 94.7948 201.468 92.2441C204.574 88.7828 207.631 85.3759 206.74 81.313C205.325 84.8224 202.178 87.2659 199.098 89.6568C196.138 91.9552 193.241 94.2049 192.005 97.306C191.979 97.3719 191.953 97.4374 191.929 97.5027C191.938 97.428 191.947 97.3521 191.955 97.275C192.273 94.2943 194.156 91.3836 196.018 88.5061C198.544 84.6019 201.031 80.7589 199.515 76.885C198.666 80.5726 195.94 83.4787 193.273 86.3219C190.709 89.0554 188.199 91.7308 187.464 94.987C187.448 95.0572 187.433 95.1269 187.419 95.1961C187.416 95.1198 187.413 95.0425 187.409 94.964C187.257 91.97 188.662 88.8002 190.051 85.6667C191.935 81.4154 193.789 77.2308 191.687 73.642C191.425 77.4167 189.188 80.7132 186.998 83.9386C184.892 87.0398 182.832 90.0753 182.615 93.407C182.61 93.4789 182.606 93.5503 182.603 93.6211C182.589 93.5461 182.573 93.47 182.557 93.393C181.939 90.4601 182.831 87.1102 183.712 83.7984C184.908 79.3041 186.086 74.8801 183.447 71.664C183.779 75.4335 182.085 79.0401 180.426 82.5687C178.832 85.9606 177.272 89.2805 177.579 92.604C177.586 92.6755 177.593 92.7464 177.601 92.8166C177.575 92.7452 177.548 92.673 177.52 92.6ZM175.03 93.848C191.963 93.8461 205.692 107.571 205.695 124.513C205.697 141.447 191.972 155.176 175.039 155.178C158.106 155.181 144.377 141.456 144.374 124.513C144.372 107.58 158.097 93.8509 175.03 93.848ZM165.103 145.414C168.129 146.804 171.488 147.585 175.029 147.585C178.57 147.585 181.929 146.804 184.956 145.414C184.959 145.318 184.962 145.221 184.965 145.125V145.125V145.124V145.124V145.124V145.124V145.124V145.124V145.124V145.124V145.124V145.123V145.123V145.123V145.123V145.123C184.974 144.865 184.982 144.606 184.982 144.346C184.982 134.859 181.179 126.27 175.029 120.054C168.88 126.27 165.076 134.859 165.076 144.346C165.076 144.619 165.085 144.889 165.095 145.16V145.16V145.16V145.16V145.16V145.16V145.16V145.16V145.161V145.161V145.161V145.161V145.161V145.161V145.161L165.095 145.162L165.095 145.163L165.095 145.164C165.098 145.247 165.1 145.331 165.103 145.414ZM192.173 106.276C187.73 106.484 183.489 107.47 179.577 109.1C179.018 108.771 178.452 108.456 177.876 108.154C181.978 106.441 186.433 105.423 191.101 105.236C191.469 105.571 191.826 105.919 192.173 106.276ZM182.368 114.424C181.799 114.749 181.241 115.091 180.692 115.448C187.445 121.32 192.108 129.569 193.431 138.909C194.11 138.092 194.735 137.228 195.304 136.324C193.507 127.612 188.854 119.959 182.368 114.424ZM199.058 123.293C199.058 126.205 198.55 128.997 197.621 131.585C195.232 124.258 190.855 117.846 185.121 113.016C188.278 111.578 191.689 110.611 195.269 110.207C197.664 113.984 199.058 118.473 199.058 123.293ZM173.614 115.442C174.095 115.795 174.567 116.158 175.029 116.534C175.49 116.158 175.963 115.795 176.443 115.442C175.981 115.077 175.509 114.724 175.029 114.382C174.549 114.724 174.077 115.078 173.614 115.442ZM172.182 108.155C171.607 108.456 171.041 108.772 170.482 109.1C166.569 107.47 162.329 106.484 157.887 106.276C158.234 105.919 158.59 105.572 158.958 105.236C163.625 105.423 168.081 106.441 172.182 108.155ZM175.029 109.489C174.45 109.788 173.881 110.102 173.319 110.43C173.898 110.731 174.468 111.045 175.029 111.375C175.591 111.045 176.161 110.731 176.739 110.43C176.178 110.102 175.608 109.788 175.029 109.489ZM183.247 111.532C182.796 111.196 182.342 110.865 181.877 110.547C185.503 109.013 189.428 108.065 193.538 107.802C193.801 108.123 194.056 108.45 194.303 108.785C190.407 109.099 186.686 110.043 183.247 111.532ZM175.029 106.788C179.388 104.923 184.142 103.821 189.125 103.624C185.165 100.718 180.297 99 175.029 99C169.762 99 164.894 100.718 160.933 103.624C165.917 103.821 170.67 104.923 175.029 106.788ZM180.46 112.89C179.886 113.202 179.32 113.528 178.766 113.87C178.305 113.52 177.836 113.182 177.359 112.852C177.919 112.516 178.49 112.196 179.068 111.89C179.54 112.212 180.003 112.547 180.46 112.89ZM156.628 138.909C157.951 129.569 162.614 121.321 169.367 115.448C168.818 115.091 168.26 114.749 167.691 114.424C161.205 119.959 156.552 127.612 154.754 136.324C155.324 137.228 155.948 138.092 156.628 138.909ZM154.789 110.207C158.369 110.611 161.781 111.578 164.938 113.016C159.204 117.846 154.827 124.259 152.438 131.585C151.508 128.997 151 126.205 151 123.293C151 118.473 152.395 113.985 154.789 110.207ZM166.81 111.532C167.261 111.196 167.716 110.865 168.181 110.547C164.556 109.013 160.63 108.064 156.52 107.802C156.257 108.122 156.001 108.45 155.755 108.785C159.651 109.099 163.372 110.043 166.81 111.532ZM171.293 113.87C170.739 113.527 170.173 113.202 169.599 112.89C170.056 112.547 170.518 112.212 170.991 111.89C171.569 112.196 172.14 112.515 172.7 112.852C172.224 113.181 171.754 113.519 171.293 113.87ZM188.201 143.606C188.948 143.11 189.668 142.578 190.353 142.003C189.735 132.119 185.244 123.3 178.391 117.082C177.91 117.456 177.44 117.843 176.979 118.242C183.726 124.6 187.999 133.596 188.201 143.606ZM161.857 143.606C161.11 143.11 160.391 142.577 159.705 142.003C160.323 132.119 164.814 123.3 171.667 117.082C172.149 117.456 172.619 117.843 173.08 118.242C166.333 124.6 162.059 133.596 161.857 143.606Z" fill="#FBEC29"/>
</g>
</g>
</svg>
