<svg width="350" height="250" viewBox="0 0 350 250" fill="none" xmlns="http://www.w3.org/2000/svg">
<g id="flag / africa / eritrea / a">
<g id="eritrea a">
<path id="red" fill-rule="evenodd" clip-rule="evenodd" d="M25.24 199.94H25V50L325 125L25.24 199.94ZM89.02 166.534C88.972 164.16 90.832 161.644 94.075 160.749C81.755 160.233 74.681 158.193 70.945 153.529C68.371 151.842 65.176 150.773 61.17 149.848C63.5773 146.984 69.1776 149.595 72.2596 151.032C72.3283 151.064 72.3958 151.095 72.462 151.126C71.8257 150.161 70.2028 149.239 68.1895 148.094C63.1343 145.221 55.6177 140.948 55.077 131.09C57.816 135.051 61.985 139.775 66.201 141.971C60.601 134.794 53.902 125.708 58.125 118.007C58.4944 120.197 59.3563 122.064 60.1854 123.861C60.6715 124.915 61.1463 125.944 61.504 126.999C58.825 116.333 59.056 103.522 61.909 101.346C63.77 104.34 63.962 110.148 63.725 114.668C64.3579 113.382 64.4121 110.811 64.4757 107.791C64.6146 101.196 64.7987 92.4573 71.152 90.27C70.5756 92.1931 70.2406 94.0063 69.8889 95.91C69.5077 97.973 69.1069 100.142 68.358 102.673C68.5224 102.411 68.6876 102.132 68.8597 101.841C69.7863 100.275 70.9122 98.372 73.191 97.085C76.036 91.649 84.295 82.499 87.561 84.065C86.105 86.25 83.468 88.957 81.799 90.484C87.77 86.388 97.223 82.912 101.001 85.732C99.0972 87.3429 96.1556 88.1045 93.2145 88.866C91.0343 89.4304 88.8545 89.9948 87.098 90.905C89.693 91.715 93.813 91.477 96.455 90.333C95.088 93.417 91.707 93.711 89.541 93.721C89.2452 93.7223 88.9472 93.7204 88.6489 93.7184C86.1632 93.7024 83.6673 93.6862 82.411 95.53C84.344 95.917 86.516 95.827 88.354 95.118C87.537 97.026 84.629 97.547 83.187 97.554C76.668 97.582 71.224 99.725 69.128 107.916C70.235 106.617 71.0575 105.521 71.7639 104.579C72.9325 103.022 73.7837 101.887 75.08 100.957C76.896 103.813 74.108 107.981 71.896 109.147C68.761 110.904 65.53 115.277 65.994 118.009C67.3149 116.458 67.7089 115.507 68.0171 114.763C68.2082 114.302 68.3663 113.92 68.692 113.524C69.58 116.201 68.446 118.569 67.113 121.222C66.3736 122.835 66.1973 124.475 65.9872 126.428C65.8692 127.526 65.7404 128.723 65.495 130.07C66.5314 128.431 67.1063 125.923 67.7113 123.284C67.9077 122.427 68.1074 121.556 68.327 120.697C68.4747 122.54 69.0847 124.674 69.6255 126.567C70.0842 128.172 70.4931 129.602 70.528 130.534C70.5854 132.085 70.0317 133.225 69.5226 134.273C69.1189 135.104 68.7433 135.877 68.723 136.751C68.7572 138.584 69.1005 139.453 69.551 140.594C69.7332 141.055 69.9331 141.561 70.137 142.193C70.319 138.807 70.264 136.966 69.739 135.155C71.7743 136.999 73.2986 140.936 74.4948 144.026L74.54 144.143C74.7881 143.522 74.8113 142.945 74.8334 142.397C74.8568 141.816 74.8789 141.267 75.166 140.731C77.113 147.062 82.991 155.669 90.401 155.957C91.7578 156.083 92.3619 156.387 93.0373 156.727C93.691 157.057 94.4115 157.419 95.946 157.687C95.8111 155.171 95.6477 152.458 95.4842 149.745C95.3206 147.029 95.1571 144.313 95.022 141.794C92.953 143.368 81.916 145.144 81.871 134.916C84.209 137.164 85.806 138.535 89.425 138.692C86.345 137.164 81.579 133.747 82.006 130.06C82.006 130.06 86.255 133.297 88.211 133.702C86.929 132.083 84.636 129.184 85.243 126.958C87.199 127.7 90.705 130.667 93.471 134.646C93.2939 131.049 93.233 128.003 93.1739 125.051C93.1429 123.502 93.1125 121.979 93.066 120.416C88.323 122.26 84.794 120.663 84.164 112.391C85.828 114.976 86.952 116.145 87.941 115.088C85.85 112.593 85.243 108.142 85.917 104.365C86.614 107.422 88.93 110.48 90.975 111.986C87.603 107.288 89.357 105.084 91.515 107.197C94.032 109.76 94.258 112.121 94.078 115.29C97.96 110.19 97.901 107.53 96.573 104.028C94.036 104.422 91.737 103.814 89.916 100.393C92.896 101.433 95.065 101.9 95.899 99.172C92.369 100.914 90.079 99.508 88.599 97.911C90.783 95.956 94.063 96.719 96.391 98.101C95.827 96.011 95.739 95.4 96.033 92.833C100.992 93.946 100.752 98.922 98.462 101.465C98.5292 102.723 98.7512 103.625 99.0222 104.727C99.227 105.559 99.4598 106.505 99.675 107.804C100.908 103.449 103.334 100.669 107.571 101.513C105.786 102.289 105.267 103.952 104.78 105.514C104.618 106.031 104.46 106.537 104.261 106.996C106.861 106.565 107.499 105.481 108.281 104.151C108.419 103.916 108.562 103.672 108.721 103.424C111.237 107.785 106.648 110.62 104.014 112.216C106.202 112.389 108.343 111.752 109.387 110.113C110.191 114.256 105.984 115.944 102.929 115.771C101.965 115.702 101.102 115.469 100.345 115.264C98.6115 114.795 97.4314 114.476 96.851 116.62L96.8427 116.652C96.2936 118.757 95.5593 121.573 95.629 125.474C96.554 121.508 97.718 118.019 99.311 116.342C98.738 119.053 98.738 121.525 99.406 123.855C102.259 122.429 104.396 119.333 104.531 116.572C108.577 119.176 105.71 124.164 102.079 126.815C105.312 127.611 108.306 126.928 110.014 124.719C110.504 131.25 103.898 131.25 99.945 130.195C98.33 129.896 94.9 130.879 96.374 134.598C97.1221 136.422 97.4517 138.47 97.7737 140.471C98.059 142.244 98.3385 143.98 98.898 145.492C99.625 141.535 100.317 138.42 101.462 136.865C104.494 132.835 106.75 134.299 104.197 139.192C106.579 137.903 108.149 135.61 109.148 133.701C110.62 137.383 108.409 139.912 106.425 142.181C105.988 142.681 105.562 143.168 105.189 143.652C107.102 143.566 108.871 141.62 109.402 139.627C112.088 145.952 104.58 148.979 102.104 148.539C99.567 148.178 98.241 154.503 98.684 157.536C99.1659 157.339 99.6208 157.15 100.059 156.968C103.253 155.64 105.568 154.678 111.025 153.595C114.94 152.834 115.844 150.01 116.579 147.717C116.749 147.185 116.91 146.682 117.098 146.239C117.658 144.947 118.889 143.681 120.097 142.441C121.079 141.431 122.046 140.439 122.622 139.461C122.998 140.815 122.611 142.98 122.271 144.239C123.897 142.766 124.895 140.654 124.858 138.867C124.846 136.151 124.934 136.034 125.721 134.988C125.799 134.885 125.884 134.772 125.977 134.646C127.029 133.153 126.421 129.813 125.508 128.068C124.288 125.775 125.3 121.221 127.89 120.515C127.146 124.549 129.169 129.632 131.238 131.139C131.709 127.048 130.599 125.011 129.601 123.178C129.513 123.017 129.426 122.857 129.341 122.698C127.783 119.9 127.246 116.826 127.199 113.152C123.742 110.743 118.665 104.949 121.026 100.061C122.982 101.176 123.782 102.786 124.458 104.148C125.234 105.713 125.848 106.949 127.866 106.726C127.688 106.429 127.513 106.137 127.341 105.848C125.863 103.372 124.57 101.205 122.74 99.037C122.295 98.4707 121.602 98.6931 120.56 99.0277C119.646 99.3212 118.462 99.7012 116.94 99.711C113.294 99.735 111.888 98.328 109.791 96.205C112.098 96.494 115.693 96.496 116.616 96.022C113 93.965 109.209 93.605 105.673 94.285C102.7 94.896 99.197 93.086 96.937 90.007C98.58 90.863 100.557 91.527 101.389 90.952C101.216 90.5215 100.748 90.1694 100.248 89.7933C99.6459 89.3405 98.9979 88.8529 98.763 88.152C101.196 88.9694 102.837 88.3861 104.307 87.8633C105.187 87.5508 106.005 87.26 106.895 87.303C108.42 87.378 109.895 88.7948 111.346 90.1881C112.739 91.5263 114.11 92.8428 115.481 92.928C110.114 88.942 109.659 85.909 109.109 82.065C114.009 85.2 118.908 89.575 121.661 94.856C125.065 97.278 126.656 99.749 128.056 103.03C128.013 98.24 127.159 93.499 125.208 91.762C131.352 91.587 132.348 103.858 132.722 109.693C133.937 109.367 134.293 102.127 133.411 99.56C140.132 106.662 137.172 117.434 134.07 126.014C135.276 125.7 138.007 121.524 137.687 117.73C143.245 123.473 138.308 130.683 133.403 137.847C132.716 138.851 132.03 139.853 131.373 140.851C133.707 139.625 139.188 135.06 140.997 129.542C143.324 139.476 129.009 148.742 124.23 150.95C125.072 151.114 126.055 150.912 127.094 150.698C128.538 150.4 130.087 150.08 131.508 150.697C129.04 154.454 115.463 160.308 99.833 160.631C103.028 161.56 105.127 163.919 104.983 166.47L89.02 166.534Z" fill="#D52239"/>
<path id="blue" fill-rule="evenodd" clip-rule="evenodd" d="M25 200H325V125L25 200Z" fill="#4D7BB1"/>
<path id="green" fill-rule="evenodd" clip-rule="evenodd" d="M25 50H325V125L25 50Z" fill="#19A448"/>
<path id="yellow" fill-rule="evenodd" clip-rule="evenodd" d="M94.0751 160.749C90.8321 161.644 88.9721 164.16 89.0201 166.534L104.983 166.47C105.127 163.919 103.028 161.56 99.8331 160.631C115.463 160.308 129.04 154.454 131.508 150.697C129.066 149.637 126.243 151.343 124.23 150.95C129.009 148.742 143.324 139.476 140.997 129.542C139.188 135.06 133.707 139.625 131.373 140.851C136.72 132.731 144.023 124.277 137.687 117.73C138.007 121.524 135.276 125.7 134.07 126.014C137.172 117.434 140.132 106.662 133.411 99.5599C134.293 102.127 133.937 109.367 132.722 109.693C132.348 103.858 131.352 91.5869 125.208 91.7619C127.159 93.4989 128.013 98.2399 128.056 103.03C126.656 99.7489 125.065 97.2779 121.661 94.8559C118.908 89.5749 114.009 85.1999 109.109 82.0649C109.659 85.9089 110.114 88.9419 115.481 92.9279C112.683 92.7539 109.885 87.4499 106.895 87.3029C104.516 87.1879 102.65 89.4579 98.7631 88.1519C99.1931 89.4349 101.007 90.0029 101.389 90.9519C100.557 91.5269 98.5802 90.8629 96.9371 90.0069C99.1971 93.0859 102.7 94.8959 105.673 94.2849C109.209 93.6049 113 93.9649 116.616 96.0219C115.693 96.4959 112.098 96.4939 109.791 96.2049C111.888 98.3279 113.294 99.7349 116.94 99.7109C120.197 99.6899 121.904 97.9739 122.74 99.0369C124.783 101.457 126.157 103.876 127.866 106.726C124.092 107.143 125.23 102.457 121.026 100.061C118.665 104.949 123.742 110.743 127.199 113.152C127.246 116.826 127.783 119.9 129.341 122.698C130.392 124.669 131.75 126.688 131.238 131.139C129.169 129.632 127.146 124.549 127.89 120.515C125.3 121.221 124.288 125.775 125.508 128.068C126.421 129.813 127.029 133.153 125.977 134.646C124.952 136.037 124.845 135.881 124.858 138.867C124.895 140.654 123.897 142.766 122.271 144.239C122.611 142.98 122.998 140.815 122.622 139.461C121.337 141.641 118.113 143.896 117.098 146.239C116.102 148.588 115.849 152.657 111.025 153.595C104.819 154.827 102.677 155.902 98.6841 157.536C98.2411 154.503 99.5672 148.178 102.104 148.539C104.58 148.979 112.088 145.952 109.402 139.627C108.871 141.62 107.102 143.566 105.189 143.652C107.256 140.97 110.944 138.194 109.148 133.701C108.149 135.61 106.579 137.903 104.197 139.192C106.75 134.299 104.494 132.835 101.462 136.865C100.317 138.42 99.6251 141.535 98.8981 145.492C97.7071 142.274 97.7851 138.038 96.3741 134.598C94.9002 130.879 98.3301 129.896 99.9451 130.195C103.898 131.25 110.504 131.25 110.014 124.719C108.306 126.928 105.312 127.611 102.079 126.815C105.71 124.164 108.577 119.176 104.531 116.572C104.396 119.333 102.259 122.429 99.4061 123.855C98.7381 121.525 98.7381 119.053 99.3111 116.342C97.7182 118.019 96.5541 121.508 95.6291 125.474C95.5591 121.553 96.3011 118.729 96.8511 116.62C97.6851 113.539 99.7571 115.544 102.929 115.771C105.984 115.944 110.191 114.256 109.387 110.113C108.343 111.752 106.202 112.389 104.014 112.216C106.648 110.62 111.237 107.785 108.721 103.424C107.663 105.076 107.321 106.489 104.261 106.996C105.062 105.152 105.195 102.546 107.571 101.513C103.334 100.669 100.908 103.449 99.6751 107.804C99.1751 104.785 98.5801 103.674 98.4621 101.465C100.752 98.9219 100.992 93.9459 96.0331 92.8329C95.7392 95.3999 95.8271 96.0109 96.3911 98.1009C94.0631 96.7189 90.7831 95.9559 88.5991 97.9109C90.0791 99.5079 92.3691 100.914 95.8991 99.1719C95.0651 101.9 92.8961 101.433 89.9161 100.393C91.7371 103.814 94.0361 104.422 96.5731 104.028C97.9011 107.53 97.9601 110.19 94.0781 115.29C94.2581 112.121 94.0321 109.76 91.5151 107.197C89.3571 105.084 87.6031 107.288 90.9751 111.986C88.9301 110.48 86.6141 107.422 85.9171 104.365C85.2431 108.142 85.8501 112.593 87.9411 115.088C86.9521 116.145 85.8281 114.976 84.1641 112.391C84.7941 120.663 88.3231 122.26 93.0661 120.416C93.2011 124.957 93.2011 129.161 93.4711 134.646C90.7052 130.667 87.1992 127.7 85.2431 126.958C84.6361 129.184 86.9291 132.083 88.2111 133.702C86.2551 133.297 82.0061 130.06 82.0061 130.06C81.5791 133.747 86.3451 137.164 89.4251 138.692C85.8061 138.535 84.2091 137.164 81.8711 134.916C81.9161 145.144 92.9531 143.368 95.0221 141.794C95.2921 146.83 95.6761 152.652 95.9461 157.687C92.8261 157.143 93.0712 156.205 90.4011 155.957C82.9911 155.669 77.1131 147.062 75.1661 140.731C74.6081 141.773 75.0511 142.863 74.5401 144.143C73.3371 141.036 71.8001 137.022 69.7391 135.155C70.2641 136.966 70.3191 138.807 70.1371 142.193C69.4291 139.999 68.7711 139.326 68.7231 136.751C68.7691 134.774 70.6311 133.315 70.5281 130.534C70.4521 128.504 68.6001 124.104 68.3271 120.697C67.4311 124.203 66.8681 127.899 65.4951 130.07C66.1771 126.326 65.9581 123.742 67.1131 121.222C68.4461 118.569 69.5801 116.201 68.6921 113.524C67.8411 114.558 68.1341 115.497 65.9941 118.009C65.5301 115.277 68.7611 110.904 71.8961 109.147C74.1081 107.981 76.8961 103.813 75.0801 100.957C73.0001 102.45 72.0661 104.468 69.1281 107.916C71.2241 99.7249 76.6681 97.5819 83.1871 97.5539C84.6291 97.5469 87.5371 97.0259 88.3541 95.1179C86.5161 95.8269 84.3441 95.9169 82.4111 95.5299C83.8181 93.4649 86.7801 93.7329 89.5411 93.7209C91.7071 93.7109 95.0881 93.4169 96.4551 90.3329C93.8131 91.4769 89.6931 91.7149 87.0981 90.9049C91.2241 88.7669 97.6861 88.5369 101.001 85.7319C97.2231 82.9119 87.7701 86.3879 81.7991 90.4839C83.4681 88.9569 86.1052 86.2499 87.5611 84.0649C84.2951 82.4989 76.0361 91.6489 73.1911 97.0849C70.4891 98.6109 69.4081 101.003 68.3581 102.673C69.7981 97.8069 69.9511 94.2769 71.1521 90.2699C61.8891 93.4589 65.7401 110.574 63.7251 114.668C63.9621 110.148 63.7701 104.34 61.9091 101.346C59.0561 103.522 58.8251 116.333 61.5041 126.999C60.5361 124.144 58.7111 121.48 58.1251 118.007C53.9021 125.708 60.6011 134.794 66.2011 141.971C61.9851 139.775 57.8161 135.051 55.0771 131.09C55.8331 144.874 70.2281 147.738 72.4621 151.126C69.4291 149.714 63.6311 146.92 61.1701 149.848C65.1761 150.773 68.3711 151.842 70.9451 153.529C74.6811 158.193 81.7551 160.233 94.0751 160.749Z" fill="#CF292A"/>
</g>
</g>
</svg>
