<svg width="350" height="250" viewBox="0 0 350 250" fill="none" xmlns="http://www.w3.org/2000/svg">
<g id="flag / asia / india / b">
<g id="india b">
<path id="orange" fill-rule="evenodd" clip-rule="evenodd" d="M25 92H325V25H25V92Z" fill="white" fill-opacity="0.5" stroke="white" stroke-width="2"/>
<path id="white" fill-rule="evenodd" clip-rule="evenodd" d="M25 158H325V92H25V158Z" fill="white" fill-opacity="0.5" stroke="white" stroke-width="2"/>
<path id="green" fill-rule="evenodd" clip-rule="evenodd" d="M25 225H325V158H25V225Z" fill="white" fill-opacity="0.5" stroke="white" stroke-width="2"/>
<g id="wheel" style="mix-blend-mode:luminosity">
<path id="blue" fill-rule="evenodd" clip-rule="evenodd" d="M175 98.333C189.727 98.333 201.667 110.273 201.667 125C201.667 139.728 189.727 151.667 175 151.667C160.272 151.667 148.333 139.728 148.333 125C148.333 110.273 160.272 98.333 175 98.333ZM175 101.667C175.635 101.667 176.264 101.692 176.886 101.742C176.818 102.37 177.263 102.94 177.893 103.023C178.524 103.106 179.103 102.67 179.198 102.044C180.451 102.271 181.668 102.599 182.842 103.018C182.612 103.608 182.894 104.277 183.483 104.521C184.071 104.764 184.743 104.492 184.998 103.911C186.14 104.454 187.231 105.086 188.263 105.8C187.89 106.31 187.99 107.028 188.494 107.414C188.997 107.8 189.716 107.713 190.112 107.221C191.071 108.037 191.963 108.929 192.779 109.888C192.287 110.284 192.2 111.003 192.586 111.506C192.972 112.01 193.69 112.11 194.2 111.737C194.914 112.769 195.546 113.86 196.089 115.002C195.508 115.257 195.236 115.929 195.479 116.517C195.723 117.106 196.392 117.388 196.982 117.157C197.401 118.331 197.729 119.549 197.956 120.802C197.33 120.897 196.894 121.476 196.977 122.107C197.06 122.737 197.63 123.182 198.258 123.114C198.308 123.736 198.333 124.365 198.333 125L184.333 124.2L179.661 124.761C179.648 124.51 179.616 124.264 179.565 124.025L184.222 123.357L197.538 118.961L183.808 121.812L179.441 123.562C179.364 123.325 179.269 123.096 179.157 122.877L183.483 121.026L195.207 113.333L182.683 119.641L178.917 122.462C178.782 122.254 178.631 122.057 178.465 121.874L182.165 118.966L191.499 108.501L181.034 117.835L178.126 121.535C177.943 121.369 177.746 121.218 177.538 121.083L180.359 117.317L186.667 104.793L178.974 116.517L177.123 120.843C176.904 120.731 176.675 120.636 176.438 120.559L178.188 116.192L181.039 102.462L176.643 115.778L175.975 120.435C175.736 120.384 175.49 120.352 175.239 120.339L175.8 115.667L175 101.667ZM175 148.333C175.635 148.333 176.264 148.308 176.886 148.258C176.818 147.63 177.263 147.06 177.893 146.977C178.523 146.894 179.102 147.331 179.198 147.956C180.451 147.729 181.668 147.401 182.842 146.982C182.612 146.392 182.894 145.723 183.483 145.479C184.071 145.236 184.743 145.509 184.998 146.089C186.14 145.546 187.231 144.914 188.263 144.2C187.89 143.69 187.99 142.972 188.494 142.586C188.997 142.2 189.716 142.287 190.112 142.779C191.071 141.963 191.963 141.071 192.779 140.112C192.287 139.716 192.2 138.997 192.586 138.494C192.972 137.99 193.69 137.89 194.2 138.263C194.914 137.231 195.546 136.14 196.089 134.998C195.508 134.744 195.236 134.071 195.479 133.483C195.723 132.895 196.392 132.612 196.982 132.844C197.401 131.669 197.729 130.451 197.956 129.198C197.33 129.103 196.894 128.524 196.977 127.893C197.06 127.264 197.63 126.818 198.258 126.886C198.308 126.264 198.333 125.635 198.333 125L184.333 125.8L179.661 125.239C179.648 125.49 179.616 125.736 179.565 125.975L184.222 126.643L197.538 131.039L183.808 128.189L179.441 126.438C179.364 126.675 179.269 126.904 179.157 127.123L183.483 128.974L195.207 136.667L182.683 130.36L178.917 127.538C178.782 127.746 178.63 127.943 178.464 128.127L182.165 131.034L191.499 141.499L181.034 132.165L178.126 128.465C177.943 128.631 177.746 128.782 177.538 128.917L180.359 132.683L186.667 145.207L178.974 133.483L177.123 129.157C176.904 129.269 176.675 129.364 176.438 129.441L178.188 133.808L181.039 147.538L176.643 134.222L175.975 129.565C175.736 129.616 175.49 129.648 175.239 129.661L175.8 134.333L175 148.333ZM151.667 125L165.667 125.8L170.339 125.239C170.352 125.49 170.384 125.736 170.435 125.975L165.778 126.643L152.462 131.039L166.192 128.189L170.559 126.438C170.636 126.675 170.731 126.904 170.843 127.123L166.517 128.974L154.793 136.667L167.317 130.36L171.083 127.538C171.218 127.746 171.37 127.943 171.535 128.126L167.835 131.034L158.501 141.499L168.966 132.165L171.874 128.465C172.057 128.63 172.254 128.782 172.462 128.917L169.64 132.683L163.333 145.207L171.026 133.483L172.877 129.157C173.096 129.269 173.325 129.364 173.562 129.441L171.811 133.808L168.961 147.538L173.357 134.222L174.025 129.565C174.264 129.616 174.51 129.648 174.761 129.661L174.2 134.333L175 148.333C174.365 148.333 173.736 148.308 173.114 148.258C173.182 147.63 172.736 147.06 172.107 146.977C171.477 146.894 170.898 147.331 170.802 147.956C169.549 147.729 168.331 147.401 167.157 146.982C167.388 146.391 167.105 145.723 166.517 145.479C165.929 145.236 165.256 145.509 165.002 146.089C163.86 145.546 162.769 144.914 161.737 144.2C162.11 143.69 162.01 142.972 161.506 142.586C161.003 142.2 160.284 142.287 159.888 142.779C158.929 141.963 158.037 141.071 157.221 140.112C157.713 139.716 157.8 138.997 157.414 138.494C157.028 137.99 156.31 137.89 155.8 138.263C155.086 137.231 154.454 136.14 153.911 134.998C154.491 134.744 154.764 134.071 154.521 133.483C154.277 132.895 153.609 132.612 153.018 132.843C152.599 131.669 152.271 130.451 152.044 129.198C152.669 129.102 153.106 128.523 153.023 127.893C152.94 127.264 152.37 126.818 151.742 126.886C151.692 126.264 151.667 125.635 151.667 125ZM151.667 125L165.667 124.2L170.339 124.761C170.352 124.51 170.384 124.264 170.435 124.025L165.778 123.357L152.462 118.961L166.192 121.812L170.559 123.562C170.636 123.325 170.731 123.096 170.843 122.877L166.517 121.026L154.793 113.333L167.317 119.641L171.083 122.462C171.218 122.254 171.369 122.057 171.535 121.874L167.835 118.966L158.501 108.501L168.966 117.835L171.873 121.536C172.057 121.37 172.254 121.218 172.462 121.083L169.64 117.317L163.333 104.793L171.026 116.517L172.877 120.843C173.096 120.731 173.325 120.636 173.562 120.559L171.811 116.192L168.961 102.462L173.357 115.778L174.025 120.435C174.264 120.384 174.51 120.352 174.761 120.339L174.2 115.667L175 101.667C174.365 101.667 173.736 101.692 173.114 101.742C173.182 102.37 172.736 102.94 172.107 103.023C171.476 103.106 170.897 102.67 170.802 102.044C169.549 102.271 168.331 102.599 167.157 103.018C167.388 103.609 167.105 104.277 166.517 104.521C165.929 104.764 165.256 104.492 165.002 103.911C163.86 104.454 162.769 105.086 161.737 105.8C162.11 106.31 162.01 107.028 161.506 107.414C161.003 107.8 160.284 107.713 159.888 107.221C158.929 108.037 158.037 108.929 157.221 109.888C157.713 110.284 157.8 111.003 157.414 111.506C157.028 112.01 156.31 112.11 155.8 111.737C155.086 112.769 154.454 113.86 153.911 115.002C154.491 115.257 154.764 115.929 154.521 116.517C154.277 117.106 153.608 117.388 153.018 117.158C152.599 118.332 152.271 119.549 152.044 120.802C152.669 120.898 153.106 121.477 153.023 122.107C152.94 122.737 152.37 123.182 151.742 123.114C151.692 123.736 151.667 124.365 151.667 125Z" fill="#282862"/>
</g>
</g>
</g>
</svg>
