<svg width="350" height="250" viewBox="0 0 350 250" fill="none" xmlns="http://www.w3.org/2000/svg">
<g id="flag / africa / ethiopia / b">
<g id="ethiopia b">
<g id="red">
<path fill-rule="evenodd" clip-rule="evenodd" d="M131.689 150H25V200H325V150L218.311 150C209.665 164.945 193.507 175 175 175C156.493 175 140.335 164.945 131.689 150Z" fill="#C6242B" fill-opacity="1"/>
<path d="M131.689 150L132.555 149.499L132.266 149H131.689V150ZM25 150V149H24V150H25ZM25 200H24V201H25V200ZM325 200V201H326V200H325ZM325 150H326V149H325V150ZM218.311 150V149H217.734L217.445 149.499L218.311 150ZM131.689 149H25V151H131.689V149ZM24 150V200H26V150H24ZM25 201H325V199H25V201ZM326 200V150H324V200H326ZM325 149H218.311V151H325V149ZM217.445 149.499C208.971 164.148 193.135 174 175 174V176C193.878 176 210.36 165.742 219.176 150.501L217.445 149.499ZM175 174C156.865 174 141.029 164.148 132.555 149.499L130.824 150.501C139.64 165.742 156.122 176 175 176V174Z" fill="white"/>
</g>
<g id="yellow">
<path fill-rule="evenodd" clip-rule="evenodd" d="M175 84.844L183.98 112.484H205.245L200.657 115.817H169.756L170.839 112.484H180.476L173.248 90.238L175 84.844ZM131.689 100H25V150H131.689C127.435 142.646 125 134.107 125 125C125 115.893 127.435 107.354 131.689 100ZM218.311 150H325V100H218.311C222.565 107.354 225 115.893 225 125C225 134.107 222.565 142.646 218.311 150ZM189.531 129.566L213.042 112.484H207.371L188.448 126.233L185.47 117.067H181.965L191.514 146.456L196.102 149.789L189.531 129.566ZM198.511 157.205L175 140.123L157.797 152.622L159.549 147.228L184.549 129.065L185.632 132.399L177.835 138.063L196.759 151.812L198.511 157.205ZM160.469 129.566L151.489 157.205L156.076 153.872L163.305 131.626L171.101 137.29L173.937 135.23L148.937 117.067H143.266L160.469 129.566ZM136.958 112.484H166.019L172.59 92.26L174.343 97.654L164.794 127.043L161.958 124.983L164.936 115.817H141.546L136.958 112.484ZM212.784 138.154L192.178 131.458L192.694 129.872L213.3 136.568L212.784 138.154ZM186.45 110.658L199.185 93.1289L197.837 92.1491L185.102 109.678L186.45 110.658ZM163.55 110.658L164.898 109.678L152.163 92.1491L150.815 93.1289L163.55 110.658ZM157.306 129.872L157.822 131.458L137.216 138.154L136.7 136.568L157.306 129.872ZM175.834 165V143.333H174.167V165H175.834Z" fill="#F8DA21" fill-opacity="1"/>
<path d="M183.98 112.484L183.029 112.793L183.253 113.484H183.98V112.484ZM175 84.844L175.951 84.535L175 81.6073L174.049 84.5351L175 84.844ZM205.245 112.484L205.833 113.293L208.323 111.484H205.245V112.484ZM200.657 115.817V116.817H200.982L201.245 116.626L200.657 115.817ZM169.756 115.817L168.805 115.508L168.38 116.817H169.756V115.817ZM170.839 112.484V111.484H170.112L169.888 112.175L170.839 112.484ZM180.476 112.484V113.484H181.852L181.427 112.175L180.476 112.484ZM173.248 90.238L172.297 89.9291L172.197 90.238L172.297 90.547L173.248 90.238ZM25 100V99H24V100H25ZM131.689 100L132.555 100.501L133.423 99H131.689V100ZM25 150H24V151H25V150ZM131.689 150V151H133.423L132.555 149.499L131.689 150ZM325 150V151H326V150H325ZM218.311 150L217.445 149.499L216.577 151H218.311V150ZM325 100H326V99H325V100ZM218.311 100V99H216.577L217.445 100.501L218.311 100ZM213.042 112.484L213.63 113.293L216.12 111.484H213.042V112.484ZM189.531 129.566L188.943 128.757L188.355 129.184L188.58 129.875L189.531 129.566ZM207.371 112.484V111.484H207.046L206.783 111.675L207.371 112.484ZM188.448 126.233L187.497 126.542L187.922 127.851L189.036 127.042L188.448 126.233ZM185.47 117.067L186.421 116.758L186.197 116.067H185.47V117.067ZM181.965 117.067V116.067H180.589L181.014 117.376L181.965 117.067ZM191.514 146.456L190.563 146.765L190.663 147.074L190.926 147.265L191.514 146.456ZM196.102 149.789L195.514 150.598L198.004 152.407L197.053 149.48L196.102 149.789ZM175 140.123L175.588 139.314L175 138.887L174.412 139.314L175 140.123ZM198.511 157.205L197.923 158.014L200.413 159.823L199.462 156.896L198.511 157.205ZM157.797 152.622L156.846 152.313L155.895 155.24L158.385 153.431L157.797 152.622ZM159.549 147.228L158.961 146.419L158.698 146.61L158.598 146.919L159.549 147.228ZM184.549 129.065L185.5 128.756L185.075 127.447L183.961 128.256L184.549 129.065ZM185.632 132.399L186.22 133.208L186.808 132.781L186.583 132.09L185.632 132.399ZM177.835 138.063L177.247 137.254L176.134 138.063L177.247 138.872L177.835 138.063ZM196.759 151.812L197.71 151.503L197.61 151.194L197.347 151.003L196.759 151.812ZM151.489 157.205L150.538 156.896L149.587 159.823L152.077 158.014L151.489 157.205ZM160.469 129.566L161.42 129.875L161.645 129.184L161.057 128.757L160.469 129.566ZM156.076 153.872L156.664 154.681L156.927 154.49L157.027 154.181L156.076 153.872ZM163.305 131.626L163.893 130.817L162.779 130.008L162.354 131.317L163.305 131.626ZM171.101 137.29L170.513 138.099L171.101 138.526L171.689 138.099L171.101 137.29ZM173.937 135.23L174.525 136.039L175.638 135.23L174.525 134.421L173.937 135.23ZM148.937 117.067L149.525 116.258L149.262 116.067H148.937V117.067ZM143.266 117.067V116.067H140.188L142.678 117.876L143.266 117.067ZM166.019 112.484V113.484H166.746L166.97 112.793L166.019 112.484ZM136.958 112.484V111.484H133.88L136.37 113.293L136.958 112.484ZM172.59 92.26L173.541 91.9509L172.59 89.0242L171.639 91.951L172.59 92.26ZM174.343 97.654L175.294 97.963L175.394 97.654L175.294 97.3449L174.343 97.654ZM164.794 127.043L164.206 127.852L165.32 128.661L165.745 127.352L164.794 127.043ZM161.958 124.983L161.007 124.674L160.782 125.365L161.37 125.792L161.958 124.983ZM164.936 115.817L165.887 116.126L166.312 114.817H164.936V115.817ZM141.546 115.817L140.958 116.626L141.221 116.817H141.546V115.817ZM192.178 131.458L191.227 131.149L190.918 132.1L191.869 132.409L192.178 131.458ZM212.784 138.154L212.475 139.105L213.426 139.414L213.735 138.463L212.784 138.154ZM192.694 129.872L193.003 128.921L192.052 128.612L191.743 129.563L192.694 129.872ZM213.3 136.568L214.251 136.877L214.56 135.926L213.609 135.617L213.3 136.568ZM199.185 93.1289L199.994 93.7167L200.582 92.9076L199.773 92.3199L199.185 93.1289ZM186.45 110.658L185.863 111.467L186.672 112.055L187.259 111.246L186.45 110.658ZM197.837 92.1491L198.424 91.3401L197.615 90.7523L197.028 91.5613L197.837 92.1491ZM185.102 109.678L184.293 109.09L183.705 109.899L184.514 110.487L185.102 109.678ZM164.898 109.678L165.486 110.487L166.295 109.899L165.707 109.09L164.898 109.678ZM163.55 110.658L162.741 111.246L163.328 112.055L164.137 111.467L163.55 110.658ZM152.163 92.1491L152.972 91.5613L152.385 90.7523L151.576 91.3401L152.163 92.1491ZM150.815 93.1289L150.227 92.3199L149.418 92.9076L150.006 93.7167L150.815 93.1289ZM157.822 131.458L158.131 132.409L159.082 132.1L158.773 131.149L157.822 131.458ZM157.306 129.872L158.257 129.563L157.948 128.612L156.997 128.921L157.306 129.872ZM137.216 138.154L136.265 138.463L136.574 139.414L137.525 139.105L137.216 138.154ZM136.7 136.568L136.391 135.617L135.44 135.926L135.749 136.877L136.7 136.568ZM175.834 143.333H176.834V142.333H175.834V143.333ZM175.834 165V166H176.834V165H175.834ZM174.167 143.333V142.333H173.167V143.333H174.167ZM174.167 165H173.167V166H174.167V165ZM184.931 112.175L175.951 84.535L174.049 85.153L183.029 112.793L184.931 112.175ZM205.245 111.484H183.98V113.484H205.245V111.484ZM201.245 116.626L205.833 113.293L204.657 111.675L200.069 115.008L201.245 116.626ZM169.756 116.817H200.657V114.817H169.756V116.817ZM169.888 112.175L168.805 115.508L170.707 116.126L171.79 112.793L169.888 112.175ZM180.476 111.484H170.839V113.484H180.476V111.484ZM172.297 90.547L179.525 112.793L181.427 112.175L174.199 89.929L172.297 90.547ZM174.049 84.5351L172.297 89.9291L174.199 90.5469L175.951 85.1529L174.049 84.5351ZM25 101H131.689V99H25V101ZM26 150V100H24V150H26ZM131.689 149H25V151H131.689V149ZM124 125C124 134.288 126.484 142.998 130.824 150.501L132.555 149.499C128.386 142.293 126 133.927 126 125H124ZM130.824 99.4993C126.484 107.002 124 115.712 124 125H126C126 116.073 128.386 107.707 132.555 100.501L130.824 99.4993ZM325 149H218.311V151H325V149ZM324 100V150H326V100H324ZM218.311 101H325V99H218.311V101ZM226 125C226 115.712 223.516 107.002 219.176 99.4993L217.445 100.501C221.614 107.707 224 116.073 224 125H226ZM219.176 150.501C223.516 142.998 226 134.288 226 125H224C224 133.927 221.614 142.293 217.445 149.499L219.176 150.501ZM212.454 111.675L188.943 128.757L190.119 130.375L213.63 113.293L212.454 111.675ZM207.371 113.484H213.042V111.484H207.371V113.484ZM189.036 127.042L207.959 113.293L206.783 111.675L187.86 125.424L189.036 127.042ZM184.519 117.376L187.497 126.542L189.399 125.924L186.421 116.758L184.519 117.376ZM181.965 118.067H185.47V116.067H181.965V118.067ZM192.465 146.147L182.916 116.758L181.014 117.376L190.563 146.765L192.465 146.147ZM196.69 148.98L192.102 145.647L190.926 147.265L195.514 150.598L196.69 148.98ZM188.58 129.875L195.151 150.098L197.053 149.48L190.482 129.257L188.58 129.875ZM174.412 140.932L197.923 158.014L199.099 156.396L175.588 139.314L174.412 140.932ZM158.385 153.431L175.588 140.932L174.412 139.314L157.209 151.813L158.385 153.431ZM158.598 146.919L156.846 152.313L158.748 152.931L160.5 147.537L158.598 146.919ZM183.961 128.256L158.961 146.419L160.137 148.037L185.137 129.874L183.961 128.256ZM186.583 132.09L185.5 128.756L183.598 129.374L184.681 132.708L186.583 132.09ZM178.423 138.872L186.22 133.208L185.044 131.59L177.247 137.254L178.423 138.872ZM197.347 151.003L178.423 137.254L177.247 138.872L196.171 152.621L197.347 151.003ZM199.462 156.896L197.71 151.503L195.808 152.121L197.56 157.514L199.462 156.896ZM152.44 157.514L161.42 129.875L159.518 129.257L150.538 156.896L152.44 157.514ZM155.488 153.063L150.901 156.396L152.077 158.014L156.664 154.681L155.488 153.063ZM162.354 131.317L155.125 153.563L157.027 154.181L164.256 131.935L162.354 131.317ZM171.689 136.481L163.893 130.817L162.717 132.435L170.513 138.099L171.689 136.481ZM173.349 134.421L170.513 136.481L171.689 138.099L174.525 136.039L173.349 134.421ZM148.349 117.876L173.349 136.039L174.525 134.421L149.525 116.258L148.349 117.876ZM143.266 118.067H148.937V116.067H143.266V118.067ZM161.057 128.757L143.854 116.258L142.678 117.876L159.881 130.375L161.057 128.757ZM166.019 111.484H136.958V113.484H166.019V111.484ZM171.639 91.951L165.068 112.175L166.97 112.793L173.541 92.569L171.639 91.951ZM175.294 97.3449L173.541 91.9509L171.639 92.5691L173.392 97.9631L175.294 97.3449ZM165.745 127.352L175.294 97.963L173.392 97.345L163.843 126.734L165.745 127.352ZM161.37 125.792L164.206 127.852L165.382 126.234L162.546 124.174L161.37 125.792ZM163.985 115.508L161.007 124.674L162.909 125.292L165.887 116.126L163.985 115.508ZM141.546 116.817H164.936V114.817H141.546V116.817ZM136.37 113.293L140.958 116.626L142.134 115.008L137.546 111.675L136.37 113.293ZM191.869 132.409L212.475 139.105L213.093 137.203L192.487 130.507L191.869 132.409ZM191.743 129.563L191.227 131.149L193.129 131.767L193.645 130.181L191.743 129.563ZM213.609 135.617L193.003 128.921L192.385 130.823L212.991 137.519L213.609 135.617ZM213.735 138.463L214.251 136.877L212.349 136.259L211.833 137.845L213.735 138.463ZM198.376 92.5411L185.641 110.07L187.259 111.246L199.994 93.7167L198.376 92.5411ZM197.249 92.9581L198.598 93.9379L199.773 92.3199L198.424 91.3401L197.249 92.9581ZM185.911 110.266L198.646 92.7369L197.028 91.5613L184.293 109.09L185.911 110.266ZM187.038 109.849L185.689 108.869L184.514 110.487L185.863 111.467L187.038 109.849ZM164.311 108.869L162.962 109.849L164.137 111.467L165.486 110.487L164.311 108.869ZM151.354 92.7369L164.089 110.266L165.707 109.09L152.972 91.5613L151.354 92.7369ZM151.402 93.9379L152.751 92.9581L151.576 91.3401L150.227 92.3199L151.402 93.9379ZM164.359 110.07L151.624 92.5411L150.006 93.7167L162.741 111.246L164.359 110.07ZM158.773 131.149L158.257 129.563L156.355 130.181L156.871 131.767L158.773 131.149ZM137.525 139.105L158.131 132.409L157.513 130.507L136.907 137.203L137.525 139.105ZM135.749 136.877L136.265 138.463L138.167 137.845L137.651 136.259L135.749 136.877ZM156.997 128.921L136.391 135.617L137.009 137.519L157.615 130.823L156.997 128.921ZM174.834 143.333V165H176.834V143.333H174.834ZM174.167 144.333H175.834V142.333H174.167V144.333ZM175.167 165V143.333H173.167V165H175.167ZM175.834 164H174.167V166H175.834V164Z" fill="white"/>
</g>
<g id="green">
<path fill-rule="evenodd" clip-rule="evenodd" d="M131.689 100H25V50H325V100H218.311C209.665 85.055 193.507 75 175 75C156.493 75 140.335 85.055 131.689 100Z" fill="#168041" fill-opacity="1"/>
<path d="M25 100H24V101H25V100ZM131.689 100V101H132.266L132.555 100.501L131.689 100ZM25 50V49H24V50H25ZM325 50H326V49H325V50ZM325 100V101H326V100H325ZM218.311 100L217.445 100.501L217.734 101H218.311V100ZM25 101H131.689V99H25V101ZM24 50V100H26V50H24ZM325 49H25V51H325V49ZM326 100V50H324V100H326ZM218.311 101H325V99H218.311V101ZM175 76C193.135 76 208.971 85.852 217.445 100.501L219.176 99.4993C210.36 84.258 193.878 74 175 74V76ZM132.555 100.501C141.029 85.852 156.865 76 175 76V74C156.122 74 139.64 84.258 130.824 99.4993L132.555 100.501Z" fill="white"/>
</g>
<g id="blue">
<path fill-rule="evenodd" clip-rule="evenodd" d="M175 75C202.614 75 225 97.386 225 125C225 152.614 202.614 175 175 175C147.386 175 125 152.614 125 125C125 97.386 147.386 75 175 75ZM175 84.844L183.98 112.484H205.245L200.657 115.817H169.756L170.839 112.484H180.476L173.248 90.238L175 84.844ZM189.531 129.566L213.042 112.484H207.371L188.448 126.233L185.47 117.067H181.965L191.514 146.456L196.102 149.789L189.531 129.566ZM198.511 157.205L175 140.123L157.797 152.622L159.549 147.228L184.549 129.065L185.632 132.399L177.835 138.063L196.759 151.812L198.511 157.205ZM160.469 129.566L151.489 157.205L156.076 153.872L163.305 131.626L171.101 137.29L173.937 135.23L148.937 117.067H143.266L160.469 129.566ZM136.958 112.484H166.019L172.59 92.26L174.343 97.654L164.794 127.043L161.958 124.983L164.936 115.817H141.546L136.958 112.484ZM212.784 138.154L192.178 131.458L192.694 129.872L213.3 136.568L212.784 138.154ZM186.45 110.658L199.185 93.1289L197.837 92.1491L185.102 109.678L186.45 110.658ZM163.55 110.658L164.898 109.678L152.163 92.1491L150.815 93.1289L163.55 110.658ZM157.306 129.872L157.822 131.458L137.216 138.154L136.7 136.568L157.306 129.872ZM175.833 165V143.333H174.167V165H175.833Z" fill="#274489" fill-opacity="1"/>
<path d="M183.98 112.484L183.029 112.793L183.253 113.484H183.98V112.484ZM175 84.844L175.951 84.535L175 81.6073L174.049 84.5351L175 84.844ZM205.245 112.484L205.833 113.293L208.323 111.484H205.245V112.484ZM200.657 115.817V116.817H200.982L201.245 116.626L200.657 115.817ZM169.756 115.817L168.805 115.508L168.38 116.817H169.756V115.817ZM170.839 112.484V111.484H170.112L169.888 112.175L170.839 112.484ZM180.476 112.484V113.484H181.852L181.427 112.175L180.476 112.484ZM173.248 90.238L172.297 89.9291L172.197 90.2381L172.297 90.547L173.248 90.238ZM213.042 112.484L213.63 113.293L216.12 111.484H213.042V112.484ZM189.531 129.566L188.943 128.757L188.355 129.184L188.58 129.875L189.531 129.566ZM207.371 112.484V111.484H207.046L206.783 111.675L207.371 112.484ZM188.448 126.233L187.497 126.542L187.922 127.851L189.036 127.042L188.448 126.233ZM185.47 117.067L186.421 116.758L186.197 116.067H185.47V117.067ZM181.965 117.067V116.067H180.589L181.014 117.376L181.965 117.067ZM191.514 146.456L190.563 146.765L190.663 147.074L190.926 147.265L191.514 146.456ZM196.102 149.789L195.514 150.598L198.004 152.407L197.053 149.48L196.102 149.789ZM175 140.123L175.588 139.314L175 138.887L174.412 139.314L175 140.123ZM198.511 157.205L197.923 158.014L200.413 159.823L199.462 156.896L198.511 157.205ZM157.797 152.622L156.846 152.313L155.895 155.24L158.385 153.431L157.797 152.622ZM159.549 147.228L158.961 146.419L158.698 146.61L158.598 146.919L159.549 147.228ZM184.549 129.065L185.5 128.756L185.075 127.447L183.961 128.256L184.549 129.065ZM185.632 132.399L186.22 133.208L186.808 132.781L186.583 132.09L185.632 132.399ZM177.835 138.063L177.247 137.254L176.134 138.063L177.247 138.872L177.835 138.063ZM196.759 151.812L197.71 151.503L197.61 151.194L197.347 151.003L196.759 151.812ZM151.489 157.205L150.538 156.896L149.587 159.823L152.077 158.014L151.489 157.205ZM160.469 129.566L161.42 129.875L161.645 129.184L161.057 128.757L160.469 129.566ZM156.076 153.872L156.664 154.681L156.927 154.49L157.027 154.181L156.076 153.872ZM163.305 131.626L163.893 130.817L162.779 130.008L162.354 131.317L163.305 131.626ZM171.101 137.29L170.513 138.099L171.101 138.526L171.689 138.099L171.101 137.29ZM173.937 135.23L174.525 136.039L175.638 135.23L174.525 134.421L173.937 135.23ZM148.937 117.067L149.525 116.258L149.262 116.067H148.937V117.067ZM143.266 117.067V116.067H140.188L142.678 117.876L143.266 117.067ZM166.019 112.484V113.484H166.746L166.97 112.793L166.019 112.484ZM136.958 112.484V111.484H133.88L136.37 113.293L136.958 112.484ZM172.59 92.26L173.541 91.9509L172.59 89.0242L171.639 91.951L172.59 92.26ZM174.343 97.654L175.294 97.963L175.394 97.654L175.294 97.3449L174.343 97.654ZM164.794 127.043L164.206 127.852L165.32 128.661L165.745 127.352L164.794 127.043ZM161.958 124.983L161.007 124.674L160.782 125.365L161.37 125.792L161.958 124.983ZM164.936 115.817L165.887 116.126L166.312 114.817H164.936V115.817ZM141.546 115.817L140.958 116.626L141.221 116.817H141.546V115.817ZM192.178 131.458L191.227 131.149L190.918 132.1L191.869 132.409L192.178 131.458ZM212.784 138.154L212.475 139.105L213.426 139.414L213.735 138.463L212.784 138.154ZM192.694 129.872L193.003 128.921L192.052 128.612L191.743 129.563L192.694 129.872ZM213.3 136.568L214.251 136.877L214.56 135.926L213.609 135.617L213.3 136.568ZM199.185 93.1289L199.994 93.7167L200.582 92.9076L199.773 92.3199L199.185 93.1289ZM186.45 110.658L185.863 111.467L186.672 112.055L187.259 111.246L186.45 110.658ZM197.837 92.1491L198.424 91.3401L197.615 90.7523L197.028 91.5613L197.837 92.1491ZM185.102 109.678L184.293 109.09L183.705 109.899L184.514 110.487L185.102 109.678ZM164.898 109.678L165.486 110.487L166.295 109.899L165.707 109.09L164.898 109.678ZM163.55 110.658L162.741 111.246L163.328 112.055L164.137 111.467L163.55 110.658ZM152.163 92.1491L152.972 91.5613L152.385 90.7523L151.576 91.3401L152.163 92.1491ZM150.815 93.1289L150.227 92.3199L149.418 92.9076L150.006 93.7167L150.815 93.1289ZM157.822 131.458L158.131 132.409L159.082 132.1L158.773 131.149L157.822 131.458ZM157.306 129.872L158.257 129.563L157.948 128.612L156.997 128.921L157.306 129.872ZM137.216 138.154L136.265 138.463L136.574 139.414L137.525 139.105L137.216 138.154ZM136.7 136.568L136.391 135.617L135.44 135.926L135.749 136.877L136.7 136.568ZM175.833 143.333H176.833V142.333H175.833V143.333ZM175.833 165V166H176.833V165H175.833ZM174.167 143.333V142.333H173.167V143.333H174.167ZM174.167 165H173.167V166H174.167V165ZM226 125C226 96.8337 203.166 74 175 74V76C202.062 76 224 97.9383 224 125H226ZM175 176C203.166 176 226 153.166 226 125H224C224 152.062 202.062 174 175 174V176ZM124 125C124 153.166 146.834 176 175 176V174C147.938 174 126 152.062 126 125H124ZM175 74C146.834 74 124 96.8337 124 125H126C126 97.9383 147.938 76 175 76V74ZM184.931 112.175L175.951 84.535L174.049 85.153L183.029 112.793L184.931 112.175ZM205.245 111.484H183.98V113.484H205.245V111.484ZM201.245 116.626L205.833 113.293L204.657 111.675L200.069 115.008L201.245 116.626ZM169.756 116.817H200.657V114.817H169.756V116.817ZM169.888 112.175L168.805 115.508L170.707 116.126L171.79 112.793L169.888 112.175ZM180.476 111.484H170.839V113.484H180.476V111.484ZM172.297 90.547L179.525 112.793L181.427 112.175L174.199 89.929L172.297 90.547ZM174.049 84.5351L172.297 89.9291L174.199 90.5469L175.951 85.1529L174.049 84.5351ZM212.454 111.675L188.943 128.757L190.119 130.375L213.63 113.293L212.454 111.675ZM207.371 113.484H213.042V111.484H207.371V113.484ZM189.036 127.042L207.959 113.293L206.783 111.675L187.86 125.424L189.036 127.042ZM184.519 117.376L187.497 126.542L189.399 125.924L186.421 116.758L184.519 117.376ZM181.965 118.067H185.47V116.067H181.965V118.067ZM192.465 146.147L182.916 116.758L181.014 117.376L190.563 146.765L192.465 146.147ZM196.69 148.98L192.102 145.647L190.926 147.265L195.514 150.598L196.69 148.98ZM188.58 129.875L195.151 150.098L197.053 149.48L190.482 129.257L188.58 129.875ZM174.412 140.932L197.923 158.014L199.099 156.396L175.588 139.314L174.412 140.932ZM158.385 153.431L175.588 140.932L174.412 139.314L157.209 151.813L158.385 153.431ZM158.598 146.919L156.846 152.313L158.748 152.931L160.5 147.537L158.598 146.919ZM183.961 128.256L158.961 146.419L160.137 148.037L185.137 129.874L183.961 128.256ZM186.583 132.09L185.5 128.756L183.598 129.374L184.681 132.708L186.583 132.09ZM178.423 138.872L186.22 133.208L185.044 131.59L177.247 137.254L178.423 138.872ZM197.347 151.003L178.423 137.254L177.247 138.872L196.171 152.621L197.347 151.003ZM199.462 156.896L197.71 151.503L195.808 152.121L197.56 157.514L199.462 156.896ZM152.44 157.514L161.42 129.875L159.518 129.257L150.538 156.896L152.44 157.514ZM155.488 153.063L150.901 156.396L152.077 158.014L156.664 154.681L155.488 153.063ZM162.354 131.317L155.125 153.563L157.027 154.181L164.256 131.935L162.354 131.317ZM171.689 136.481L163.893 130.817L162.717 132.435L170.513 138.099L171.689 136.481ZM173.349 134.421L170.513 136.481L171.689 138.099L174.525 136.039L173.349 134.421ZM148.349 117.876L173.349 136.039L174.525 134.421L149.525 116.258L148.349 117.876ZM143.266 118.067H148.937V116.067H143.266V118.067ZM161.057 128.757L143.854 116.258L142.678 117.876L159.881 130.375L161.057 128.757ZM166.019 111.484H136.958V113.484H166.019V111.484ZM171.639 91.951L165.068 112.175L166.97 112.793L173.541 92.569L171.639 91.951ZM175.294 97.3449L173.541 91.9509L171.639 92.5691L173.392 97.9631L175.294 97.3449ZM165.745 127.352L175.294 97.963L173.392 97.345L163.843 126.734L165.745 127.352ZM161.37 125.792L164.206 127.852L165.382 126.234L162.546 124.174L161.37 125.792ZM163.985 115.508L161.007 124.674L162.909 125.292L165.887 116.126L163.985 115.508ZM141.546 116.817H164.936V114.817H141.546V116.817ZM136.37 113.293L140.958 116.626L142.134 115.008L137.546 111.675L136.37 113.293ZM191.869 132.409L212.475 139.105L213.093 137.203L192.487 130.507L191.869 132.409ZM191.743 129.563L191.227 131.149L193.129 131.767L193.645 130.181L191.743 129.563ZM213.609 135.617L193.003 128.921L192.385 130.823L212.991 137.519L213.609 135.617ZM213.735 138.463L214.251 136.877L212.349 136.259L211.833 137.845L213.735 138.463ZM198.376 92.5411L185.641 110.07L187.259 111.246L199.994 93.7167L198.376 92.5411ZM197.249 92.9581L198.598 93.9379L199.773 92.3199L198.424 91.3401L197.249 92.9581ZM185.911 110.266L198.646 92.7369L197.028 91.5613L184.293 109.09L185.911 110.266ZM187.038 109.849L185.689 108.869L184.514 110.487L185.863 111.467L187.038 109.849ZM164.311 108.869L162.962 109.849L164.137 111.467L165.486 110.487L164.311 108.869ZM151.354 92.7369L164.089 110.266L165.707 109.09L152.972 91.5613L151.354 92.7369ZM151.402 93.9379L152.751 92.9581L151.576 91.3401L150.227 92.3199L151.402 93.9379ZM164.359 110.07L151.624 92.5411L150.006 93.7167L162.741 111.246L164.359 110.07ZM158.773 131.149L158.257 129.563L156.355 130.181L156.871 131.767L158.773 131.149ZM137.525 139.105L158.131 132.409L157.513 130.507L136.907 137.203L137.525 139.105ZM135.749 136.877L136.265 138.463L138.167 137.845L137.651 136.259L135.749 136.877ZM156.997 128.921L136.391 135.617L137.009 137.519L157.615 130.823L156.997 128.921ZM174.833 143.333V165H176.833V143.333H174.833ZM174.167 144.333H175.833V142.333H174.167V144.333ZM175.167 165V143.333H173.167V165H175.167ZM175.833 164H174.167V166H175.833V164Z" fill="white"/>
</g>
</g>
</g>
</svg>
