<svg width="350" height="250" viewBox="0 0 350 250" fill="none" xmlns="http://www.w3.org/2000/svg">
<g id="flag / europe / poland / b">
<g id="poland b">
<g id="blue">
<path fill-rule="evenodd" clip-rule="evenodd" d="M325 31V125H25V31H325Z" fill="#FFFFFE" fill-opacity="1"/>
<path d="M325 125V126H326V125H325ZM325 31H326V30H325V31ZM25 125H24V126H25V125ZM25 31V30H24V31H25ZM326 125V31H324V125H326ZM325 124H25V126H325V124ZM24 31V125H26V31H24ZM325 30H25V32H325V30Z" fill="white"/>
</g>
<path id="yellow" fill-rule="evenodd" clip-rule="evenodd" d="M25 219H325V125H25V219Z" fill="#C9233D" fill-opacity="1" stroke="white" stroke-width="2"/>
</g>
</g>
</svg>
