<svg width="350" height="250" viewBox="0 0 350 250" fill="none" xmlns="http://www.w3.org/2000/svg">
<g id="flag / africa / senegal / a">
<g id="senegal a">
<path id="green" fill-rule="evenodd" clip-rule="evenodd" d="M125 225H25V25H125V225ZM162.891 128.935L143.298 114.699H167.516L175 91.667L182.484 114.699H206.702L187.109 128.935L194.593 151.967L175 137.732L155.407 151.967L162.891 128.935Z" fill="#107C40"/>
<path id="yellow" fill-rule="evenodd" clip-rule="evenodd" d="M225 25V225H125V25H225ZM162.891 128.935L143.298 114.699H167.516L175 91.667L182.484 114.699H206.702L187.109 128.935L194.593 151.967L175 137.732L155.407 151.967L162.891 128.935Z" fill="#F8EC4C"/>
<path id="red" fill-rule="evenodd" clip-rule="evenodd" d="M225 225H325V25H225V225Z" fill="#CF232A"/>
</g>
</g>
</svg>
