<svg width="232" height="209" viewBox="0 0 232 209" fill="none" xmlns="http://www.w3.org/2000/svg">
<path id="logo" fill-rule="evenodd" clip-rule="evenodd" d="M106.545 10.9231L105.256 10.9481C105.065 10.9521 104.916 10.7831 104.945 10.5941L105.4 7.64207C105.422 7.49507 105.548 7.38507 105.697 7.38207L107.203 7.35107C107.353 7.34807 107.479 7.23907 107.501 7.09207L108.55 0.333069C108.572 0.185069 108.698 0.0750692 108.848 0.0720692L112.497 6.92043e-05C112.689 -0.0039308 112.837 0.166069 112.808 0.354069L111.792 6.89907C111.763 7.08807 111.911 7.25807 112.103 7.25407L114.731 7.20107C114.922 7.19707 115.069 7.36707 115.041 7.55507L114.587 10.5071C114.565 10.6551 114.439 10.7651 114.289 10.7681L111.445 10.8251C111.296 10.8281 111.17 10.9381 111.148 11.0861L110.378 16.1011C110.146 17.5101 110.543 17.8281 111.229 17.8141C111.718 17.8041 112.131 17.6311 112.443 17.4601C112.596 17.3751 112.789 17.4411 112.864 17.5991L114.042 20.0741C114.106 20.2081 114.067 20.3681 113.946 20.4551C113.235 20.9701 112.304 21.4491 110.551 21.4841C107.811 21.5391 105.437 20.3451 106.102 16.0561L106.856 11.2781C106.886 11.0901 106.736 10.9191 106.545 10.9231ZM72.7322 30.4492C72.5552 30.5232 72.3552 30.4202 72.3122 30.2332L67.1192 7.52017C67.0852 7.37517 67.1622 7.22617 67.2992 7.16917L70.6932 5.73817C70.8702 5.66417 71.0702 5.76617 71.1132 5.95317L73.4652 16.2552C73.5352 16.5572 73.9582 16.5812 74.0562 16.2882C74.5142 14.9202 75.3382 13.9442 76.7742 13.3382C79.5712 12.1602 82.2562 13.8262 83.1462 17.7012L83.9642 21.3232C84.1022 21.9022 84.3712 22.0372 84.8222 21.8462L85.3882 21.6082C85.5642 21.5342 85.7642 21.6362 85.8072 21.8222L86.4092 24.4062C86.4432 24.5522 86.3672 24.7022 86.2292 24.7592L85.1742 25.2042C82.4382 26.3572 80.6922 25.9962 79.9742 22.8632L79.1972 19.5072C78.7752 17.6672 77.7152 17.0862 76.3022 17.6812C74.7082 18.3532 74.2262 19.4772 74.6682 21.4512L76.3062 28.6672C76.3392 28.8122 76.2632 28.9602 76.1252 29.0182L72.7322 30.4492ZM54.7531 43.9872C54.6371 44.0812 54.4721 44.0792 54.3591 43.9832L37.4631 29.6642C37.3151 29.5402 37.3171 29.3122 37.4661 29.1902L40.5721 26.6622C40.6881 26.5672 40.8561 26.5702 40.9681 26.6702L47.3521 32.2532C48.1061 32.9142 49.0451 33.8502 49.7111 34.5322C49.9311 34.7582 50.3081 34.5452 50.2281 34.2402C49.9811 33.2992 49.6641 31.9592 49.5371 30.8522L48.2881 20.3122C48.2751 20.2082 48.3171 20.1042 48.3991 20.0382L48.4401 20.0042C48.5471 19.9172 48.7001 19.9122 48.8131 19.9932L56.0791 25.1902C56.8971 25.7672 57.9741 26.6622 58.7181 27.2982C58.9561 27.5012 59.3091 27.2622 59.2101 26.9662C58.9061 26.0622 58.4991 24.7592 58.2941 23.7232L56.3491 14.0292C56.3271 13.9172 56.3691 13.8012 56.4571 13.7292L59.4591 11.2862C59.6381 11.1392 59.9101 11.2372 59.9551 11.4652L64.6931 35.6842C64.7141 35.7952 64.6731 35.9102 64.5861 35.9822L64.5811 35.9852C64.4731 36.0732 64.3211 36.0782 64.2091 35.9972L55.5791 29.8472C54.8671 29.3332 53.9881 28.5602 53.3741 28.0002C53.1491 27.7962 52.7971 28.0042 52.8671 28.2982C53.0671 29.1342 53.3311 30.3322 53.4391 31.2532L54.8641 43.7132C54.8761 43.8182 54.8341 43.9212 54.7531 43.9872ZM93.5086 23.3735C95.3996 23.0065 96.2756 22.0385 97.0276 20.2645L97.0906 20.4185C97.5266 21.4635 98.0986 22.1845 101.175 21.5875L102.522 21.3255C102.669 21.2975 102.774 21.1675 102.771 21.0175L102.714 18.3645C102.71 18.1735 102.535 18.0335 102.348 18.0695L101.744 18.1865C101.265 18.2795 101.028 18.0925 101.013 17.4965L100.841 7.85847C100.837 7.66647 100.662 7.52547 100.475 7.56147L96.8696 8.26047C96.7176 8.28947 96.6116 8.42747 96.6206 8.58047L96.6886 9.70047C96.7046 9.97847 96.3776 10.1295 96.1706 9.94447C94.9726 8.86747 93.4656 8.62147 91.8706 8.93147C88.4106 9.60247 85.9346 12.9415 86.8906 17.8755C87.6676 21.8795 90.5616 23.9455 93.5086 23.3735ZM129.012 23.5418C130.726 23.9128 131.742 23.6628 132.554 23.3258C132.69 23.2698 132.766 23.1218 132.735 22.9778L132.161 20.2978C132.124 20.1258 131.951 20.0178 131.783 20.0628C131.44 20.1578 130.998 20.2308 130.52 20.1278C129.85 19.9828 129.536 19.5808 130.088 18.2658L131.997 13.5628C132.053 13.4248 132.201 13.3468 132.347 13.3778L135.126 13.9798C135.273 14.0118 135.421 13.9348 135.477 13.7958L136.601 11.0288C136.673 10.8518 136.568 10.6518 136.381 10.6118L133.812 10.0558C133.624 10.0158 133.52 9.81477 133.592 9.63877L136.093 3.50577C136.165 3.32877 136.06 3.12977 135.873 3.08877L132.306 2.31577C132.159 2.28377 132.012 2.36177 131.955 2.50077L129.372 8.83377C129.317 8.97177 129.168 9.04977 129.023 9.01777L127.55 8.69877C127.405 8.66777 127.256 8.74477 127.2 8.88377L126.076 11.6498C126.004 11.8278 126.11 12.0258 126.296 12.0668L127.557 12.3408C127.744 12.3808 127.849 12.5808 127.777 12.7578L125.938 17.2318C124.299 21.2518 126.333 22.9608 129.012 23.5418ZM137.677 25.6733L134.271 24.2713C134.094 24.1983 134.026 23.9833 134.128 23.8223L146.599 4.13927C146.679 4.01327 146.838 3.96227 146.976 4.01927L150.381 5.42127C150.558 5.49527 150.626 5.70927 150.524 5.87227L144.866 14.7973C144.7 15.0583 144.981 15.3753 145.259 15.2393C146.552 14.6023 147.826 14.4993 149.266 15.0923C152.073 16.2483 152.782 19.3293 150.656 22.6893L148.661 25.8203C148.346 26.3263 148.441 26.6123 148.893 26.7983L149.461 27.0323C149.637 27.1043 149.706 27.3183 149.604 27.4803L148.193 29.7273C148.114 29.8543 147.954 29.9063 147.816 29.8483L146.757 29.4133C144.011 28.2823 143.039 26.7873 144.757 24.0713L146.593 21.1573C147.603 19.5603 147.269 18.4003 145.851 17.8153C144.251 17.1573 143.114 17.6063 142.024 19.3103L138.054 25.5543C137.974 25.6803 137.815 25.7303 137.677 25.6733ZM155.843 35.3345C157.905 36.7285 159.636 37.1645 161.48 37.1075C161.664 37.1015 161.803 36.9395 161.779 36.7565L161.35 33.6335C161.329 33.4785 161.195 33.3645 161.038 33.3675C160.153 33.3885 159.071 33.3015 157.824 32.4595C156.299 31.4285 155.839 30.1715 156.231 28.8715C156.292 28.6735 156.528 28.5905 156.699 28.7065L164.692 34.1055C164.821 34.1925 164.998 34.1695 165.098 34.0505C168.135 30.4355 168.067 26.1065 164.034 23.3825C160.518 21.0075 155.909 21.3605 153.351 25.1465C151.032 28.5805 151.841 32.6315 155.843 35.3345ZM191.854 128.05C192.397 126.21 194.328 125.16 196.168 125.703C198.007 126.247 199.058 128.179 198.515 130.018C195.132 141.466 191.298 150.499 186.792 157.635C182.69 164.133 178.143 168.871 172.891 172.122C168.028 175.132 163.095 176.517 158.275 177.094C157.033 181.621 155.884 185.473 154.88 188.12C151.943 195.869 147.952 201.578 143.022 205.089C139.437 207.642 135.443 208.953 131.328 208.953C130.324 208.953 129.314 208.876 128.3 208.718C123.755 208.014 119.422 205.733 116.1 202.294C112.74 198.818 110.76 194.529 110.523 190.219C110.292 186.02 111.719 182.073 114.651 178.809C117.757 175.35 122.442 172.757 128.575 171.101C133.633 169.737 138.963 170.001 144.607 170.281L144.623 170.281L144.623 170.281C147.345 170.417 150.099 170.554 152.853 170.498C153.657 167.44 154.494 164.176 155.347 160.845L155.348 160.843L155.35 160.834L155.47 160.369L155.547 160.066C156.747 155.387 157.959 150.659 159.164 146.161C156.992 147.404 154.691 148.054 152.281 148.099L152.278 148.099C152.203 148.1 152.13 148.101 152.057 148.101C148.49 148.101 145.753 146.516 144.258 143.66C144.092 143.86 143.926 144.053 143.759 144.239C140.158 148.248 136.342 148.824 133.42 148.878C133.359 148.879 133.297 148.88 133.236 148.88C130.553 148.88 128.31 147.795 126.904 145.812C126.475 145.208 126.132 144.528 125.869 143.774C125.795 143.849 125.721 143.924 125.647 143.998C122.402 147.206 118.774 148.869 114.865 148.942C114.79 148.943 114.716 148.944 114.642 148.944C110.675 148.944 107.737 146.984 106.388 143.497C106.032 143.833 105.669 144.161 105.296 144.474C101.834 147.37 97.8635 149.004 94.1155 149.072C94.0405 149.074 93.9645 149.074 93.8885 149.074C91.8625 149.074 89.1685 148.573 87.3775 146.297C84.9595 143.224 85.7195 138.896 86.5005 135.906C86.8725 134.484 87.6295 132.572 88.7744 129.68L88.7745 129.68L88.778 129.671C91.6719 122.358 97.0563 108.75 103.913 83.6636C104.419 81.8136 106.329 80.7236 108.179 81.2296C110.03 81.7356 111.119 83.6456 110.614 85.4946C103.653 110.961 98.1755 124.801 95.2325 132.237C94.2185 134.798 93.4865 136.649 93.2205 137.664C92.4005 140.801 92.7475 141.809 92.8265 141.981C92.9165 142.022 93.2405 142.144 93.9885 142.128C99.6625 142.024 104.793 135.943 106.815 130.19C107.76 126.684 109.064 123.39 110.097 121.038C111.05 118.87 116.044 107.932 120.804 105.498C127.603 102.022 132.639 104.335 136.126 107.104C136.417 106.686 136.723 106.271 137.047 105.859C138.233 104.35 140.415 104.089 141.924 105.274C143.432 106.459 143.694 108.642 142.508 110.151C140.032 113.302 138.865 116.764 137.25 121.556L137.229 121.618L137.228 121.619C136.612 123.444 135.916 125.51 135.074 127.758C135.038 127.85 135.004 127.94 134.969 128.031C134.934 128.217 134.883 128.403 134.815 128.585C130.869 139.21 132.498 141.694 132.57 141.794C132.671 141.938 133.189 141.936 133.292 141.934C135.404 141.895 136.874 141.511 138.591 139.599C140.525 137.445 142.521 133.584 144.658 127.849C145.545 124.912 146.627 122.208 147.512 120.195C148.465 118.028 153.459 107.089 158.22 104.655C165.018 101.179 170.054 103.492 173.542 106.261C173.832 105.843 174.139 105.428 174.463 105.016C175.648 103.508 177.831 103.245 179.339 104.431C180.847 105.616 181.109 107.8 179.924 109.308C177.449 112.455 176.283 115.913 174.67 120.698L174.665 120.713C174.045 122.554 173.342 124.641 172.489 126.915C172.136 127.856 171.778 128.762 171.415 129.635C168.565 137.251 165.195 150.402 162.199 162.094C161.532 164.698 160.872 167.269 160.23 169.742C163.283 169.118 166.299 168.033 169.235 166.216C178.575 160.435 185.974 147.951 191.854 128.05ZM23.6384 128.74C23.9494 128.74 24.2634 128.698 24.5764 128.61C26.4234 128.094 27.5014 126.177 26.9854 124.33C24.7604 116.386 23.6914 108.137 23.8074 99.811C24.0544 81.912 29.7214 64.818 40.1944 50.379C41.3204 48.826 40.9744 46.654 39.4214 45.528C37.8684 44.402 35.6984 44.748 34.5724 46.301C23.2534 61.906 17.1294 80.377 16.8624 99.716C16.7374 108.707 17.8924 117.618 20.2964 126.203C20.7254 127.737 22.1194 128.74 23.6384 128.74ZM59.4081 170.296C71.7541 179.697 86.4191 185.591 101.82 187.34C103.725 187.556 105.095 189.277 104.879 191.182C104.677 192.955 103.174 194.264 101.432 194.264C101.301 194.264 101.17 194.256 101.036 194.241C84.3911 192.352 68.5421 185.983 55.2001 175.821C53.6741 174.659 53.3791 172.481 54.5411 170.955C55.7031 169.429 57.8821 169.133 59.4081 170.296ZM230.421 43.4734C229.26 42.3714 227.495 42.2064 226.15 43.0744C217.582 48.5944 205.4 52.3764 190.766 54.0844C187.214 47.9954 182.978 42.3114 178.145 37.1634C176.831 35.7654 174.634 35.6964 173.235 37.0094C171.837 38.3224 171.768 40.5204 173.08 41.9174C176.805 45.8844 180.149 50.1944 183.061 54.7784C170.669 55.5714 159.234 54.8264 152.257 53.7764C140.7 52.0377 131.917 50.0244 124.861 48.407L124.845 48.4034C117.919 46.8154 112.449 45.5614 107.076 45.1314C101.161 44.6584 95.9206 45.2414 90.0846 47.0204C88.8626 47.3924 87.6866 47.7934 86.5476 48.2184C85.9296 48.2844 85.3416 48.5144 84.8466 48.8804C76.1436 52.424 69.81 57.3543 64.1145 61.7879L64.1126 61.7894C59.8156 65.1364 56.1036 68.0274 52.1426 69.7094C47.9896 71.4754 44.0276 71.7044 39.2996 70.4564C37.4446 69.9674 35.5446 71.0744 35.0546 72.9284C34.5656 74.7834 35.6716 76.6834 37.5256 77.1724C40.1666 77.8694 42.6096 78.1814 44.9016 78.1814C54.3656 78.1804 61.2146 72.8504 68.3796 67.2704C72.1196 64.3584 76.1556 61.2164 80.9666 58.4874C77.7286 68.3794 72.6956 84.2104 67.6886 99.9764C64.4096 100.331 61.5416 100.91 58.9646 101.724C49.8506 104.603 44.6046 110.53 43.3746 119.339C43.1086 121.239 44.4346 122.993 46.3336 123.259C46.4966 123.282 46.6586 123.292 46.8176 123.292C48.5236 123.292 50.0116 122.036 50.2536 120.299C51.2526 113.142 55.8736 108.976 65.3526 107.331C59.0646 127.126 52.9196 146.425 51.0776 151.561C49.0166 157.311 46.0256 162.542 42.6566 166.291C38.8206 170.561 34.6096 172.911 30.1426 173.278C24.8016 173.713 19.6586 172.634 15.6616 170.235C11.2726 167.6 8.48561 163.611 7.38261 158.377C7.01261 156.62 6.34961 152.075 8.19261 147.823C9.96161 143.743 13.6316 141.017 19.0996 139.722C22.9836 138.803 26.3586 139.498 29.1246 141.791C32.1766 144.319 33.8816 148.44 33.7666 150.963C33.6796 152.879 35.1616 154.503 37.0776 154.59C37.1316 154.593 37.1856 154.594 37.2386 154.594C39.0836 154.594 40.6206 153.141 40.7046 151.279C40.8936 147.141 38.7356 140.734 33.5566 136.443C30.4386 133.859 25.1216 131.159 17.4986 132.963C1.62961 136.72 -1.52939 149.774 0.586614 159.81C2.08361 166.909 6.06061 172.573 12.0866 176.19C16.5786 178.886 22.0876 180.318 27.8436 180.318C28.7936 180.318 29.7496 180.279 30.7086 180.2C36.9156 179.691 42.8336 176.488 47.8226 170.934C52.8946 165.29 55.9476 158.559 57.6166 153.905C59.5906 148.399 65.9866 128.279 72.8776 106.583C76.6766 106.429 81.0046 106.522 85.9046 106.849C87.8176 106.978 89.4746 105.53 89.6026 103.616C89.7296 101.702 88.2816 100.046 86.3676 99.9184C82.1936 99.6404 78.4676 99.5204 75.1086 99.5614C81.1006 80.6994 86.9856 62.2114 89.6106 54.4954C90.4236 54.2024 91.2556 53.9244 92.1096 53.6634C102.667 50.4454 109.993 52.1244 123.292 55.1734C130.467 56.8184 139.397 58.8654 151.224 60.6444C159.379 61.8704 173.287 62.7064 187.864 61.3704C195.835 60.6404 203.239 59.3424 209.87 57.5114C213.188 56.5954 216.317 55.5444 219.243 54.3634L204.552 80.0474C203.904 81.1794 203.945 82.5774 204.657 83.6694L218.796 105.338C204.584 114.007 198.294 113.928 188.105 113.004C186.194 112.827 184.506 114.239 184.332 116.149C184.159 118.059 185.567 119.748 187.478 119.921C190.21 120.169 192.719 120.334 195.145 120.334C204.133 120.334 211.946 118.064 225.517 109.32C226.293 108.819 226.839 108.03 227.031 107.125C227.225 106.221 227.049 105.277 226.544 104.502L211.635 81.6534L231.046 47.7174C231.841 46.3284 231.582 44.5764 230.421 43.4734ZM96.7896 15.0915C96.4166 13.1685 95.2446 12.0995 93.5466 12.4295C91.6896 12.7895 90.8266 14.5195 91.2756 16.8255C91.6476 18.7475 92.8326 19.7145 94.4986 19.3915C96.2926 19.0435 97.2116 17.2705 96.7896 15.0915ZM158.114 26.2195C159.342 25.2475 160.689 25.2575 162.009 26.1485C163.368 27.0675 163.705 28.3865 163.002 29.6185C162.914 29.7715 162.712 29.8135 162.565 29.7145L158.13 26.7185C157.956 26.6015 157.949 26.3495 158.114 26.2195ZM152.154 141.154C154.246 141.115 156.218 140.154 158.178 138.216C160.583 135.838 162.862 132.087 164.968 127.046C165.167 126.516 165.365 126.008 165.563 125.525C165.601 125.43 165.644 125.339 165.69 125.249L165.713 125.188C165.803 124.953 165.894 124.716 165.985 124.476C166.784 122.343 167.43 120.428 168.054 118.577L168.083 118.494C168.787 116.405 169.451 114.435 170.217 112.552C166.541 109.21 164.264 109.368 161.393 110.834C160.361 111.445 156.95 115.867 153.708 123.364C153.323 124.255 152.965 125.133 152.635 125.995C152.605 126.17 152.56 126.345 152.501 126.519C152.074 127.776 151.655 128.962 151.239 130.086C149.999 134.265 149.587 137.743 150.162 139.794C150.438 140.774 150.775 141.178 152.154 141.154ZM148.386 185.657C145.944 192.098 142.783 196.732 138.993 199.431C136.038 201.534 132.708 202.373 129.364 201.855C126.307 201.381 123.37 199.822 121.095 197.468C118.927 195.224 117.602 192.443 117.458 189.837C117.329 187.487 118.123 185.338 119.82 183.449C122.014 181.005 125.569 179.108 130.385 177.807C132.666 177.192 135.207 177.005 137.913 177.005C139.938 177.005 142.055 177.109 144.224 177.217L144.225 177.217L144.262 177.219L144.292 177.22C146.454 177.328 148.685 177.439 150.967 177.456C150.019 180.819 149.147 183.652 148.386 185.657ZM120.763 139.059C123.561 136.293 126.187 131.67 128.57 125.319C129.366 123.194 130.01 121.286 130.632 119.443L130.668 119.338C131.371 117.248 132.036 115.278 132.802 113.395C129.125 110.053 126.848 110.211 123.978 111.677C122.946 112.287 119.534 116.709 116.292 124.207C115.144 126.863 114.236 129.411 113.595 131.721C113.566 131.876 113.526 132.03 113.474 132.185C113.471 132.193 113.467 132.202 113.464 132.211C113.461 132.219 113.458 132.228 113.455 132.237C112.506 135.831 112.233 138.804 112.747 140.637C113.023 141.616 113.36 142.022 114.739 141.996C116.831 141.958 118.802 140.997 120.763 139.059Z" fill="#1E243E"/>
</svg>
