<svg width="59" height="50" viewBox="0 0 59 50" fill="none" xmlns="http://www.w3.org/2000/svg">
<path id="logo fly" fill-rule="evenodd" clip-rule="evenodd" d="M57.439 3.89536C57.8611 3.6752 58.3753 3.7633 58.7031 4.11144C59.0308 4.45971 59.0941 4.98545 58.8586 5.40367L52.8699 16.037L57.4697 23.197C57.6255 23.4396 57.6797 23.7353 57.6202 24.0187C57.5607 24.302 57.3924 24.5495 57.1527 24.7064C55.8078 25.5864 54.2107 26.2967 52.4056 26.8176C50.6949 27.3113 48.7414 27.6507 46.5996 27.8266C45.3872 27.9261 44.1114 27.9761 42.765 27.9761C39.6578 27.9761 36.1742 27.7101 32.2229 27.174C31.6364 27.0944 31.2244 26.5469 31.3027 25.9512C31.3811 25.3555 31.9202 24.9373 32.5067 25.0167C38.017 25.7643 42.5704 25.974 46.4269 25.6573C49.9445 25.3684 52.8422 24.6199 55.0601 23.4293L50.7172 16.6689C50.4974 16.3268 50.4848 15.8886 50.6844 15.534L55.3124 7.31675C51.523 8.96178 47.8269 9.94326 44.0941 10.3016C40.0338 10.6913 36.6257 10.2668 33.8871 9.9255C31.3872 9.61401 29.4062 9.36772 27.8825 9.81737C27.8733 9.89555 27.8559 9.9739 27.8291 10.0512C27.1377 12.047 25.1763 18.303 23.177 24.6953C24.2134 24.6825 25.363 24.7203 26.6508 24.8076C27.2413 24.8477 27.688 25.3663 27.6486 25.9659C27.6092 26.5656 27.0995 27.0196 26.508 26.9792C24.9961 26.8766 23.6609 26.8473 22.4888 26.8957C20.3629 33.6938 18.3892 39.9985 17.7803 41.7238C17.2654 43.182 16.3233 45.2915 14.7587 47.0599C13.2193 48.7998 11.3934 49.8038 9.47849 49.9631C9.1825 49.9878 8.88742 50 8.59443 50C6.81855 50 5.11887 49.5516 3.73305 48.7068C1.87367 47.5733 0.646733 45.7985 0.184836 43.5742C-0.0210614 42.5827 -0.346322 40.0423 1.07691 37.8738C2.01447 36.4452 3.48592 35.5293 5.45038 35.1517C7.39513 34.7777 9.01685 35.0925 10.2708 36.0873C12.3292 37.7203 12.5135 40.5767 12.5204 40.6975L10.3809 40.8225L10.3812 40.8271C10.3799 40.8071 10.2354 38.8118 8.94206 37.795C8.19639 37.2088 7.15581 37.0389 5.84902 37.2901C4.47177 37.5549 3.46616 38.1574 2.86008 39.0809C1.86043 40.604 2.16469 42.5614 2.28169 43.1251C2.62226 44.765 3.48155 46.0151 4.83591 46.8407C6.06923 47.5926 7.65589 47.9311 9.3035 47.794C10.6821 47.6793 11.9812 46.9428 13.1648 45.6051C14.2041 44.4304 15.1269 42.7911 15.763 40.9892C16.331 39.3801 18.227 33.3329 20.1671 27.13C17.2427 27.6453 15.8169 28.9511 15.5086 31.1938C15.4337 31.738 14.9748 32.1316 14.4487 32.1316C14.3994 32.1316 14.3495 32.1282 14.2992 32.1211C13.7131 32.0379 13.3043 31.4881 13.3862 30.8928C13.7657 28.1325 15.384 26.2754 18.1963 25.3733C18.9912 25.1183 19.8761 24.9368 20.8877 24.8256C22.5981 19.3564 24.318 13.8623 25.2855 10.8956C23.3913 11.9079 21.9419 13.2075 20.6186 14.3947C18.5729 16.2298 16.6191 17.9824 13.7413 17.9825C13.0751 17.9825 12.3597 17.8886 11.5818 17.6801C11.0097 17.5267 10.6683 16.9313 10.8193 16.3502C10.9703 15.769 11.5569 15.4224 12.1288 15.5758C13.5334 15.9524 14.6797 15.8695 15.8456 15.3071C16.9674 14.7661 18.0018 13.8382 19.1996 12.7638L19.1999 12.7635L19.1999 12.7634C21.1217 11.0394 23.5134 8.89377 27.1975 7.75312C29.1635 7.14438 31.4727 7.43202 34.1463 7.76505L34.148 7.76526C37.1216 8.13574 40.6999 8.58116 45.0614 7.99797C43.3047 6.40422 41.3274 5.10846 39.1614 4.13421C36.2732 2.83514 33.1934 2.17642 30.0076 2.17642C26.9521 2.17642 23.9885 2.78395 21.1993 3.98207C18.5047 5.13958 16.0845 6.79689 14.0058 8.90797C11.9272 11.0191 10.2954 13.4771 9.15563 16.2138C7.97592 19.0465 7.37773 22.0563 7.37773 25.1595C7.37773 27.4892 7.71954 29.7874 8.39367 31.9901C8.56931 32.564 8.25361 33.1739 7.68851 33.3523C7.58264 33.3857 7.4755 33.4016 7.37015 33.4016C6.91331 33.4016 6.49003 33.1025 6.3473 32.6361C5.60905 30.224 5.23476 27.7085 5.23476 25.1595C5.23476 21.7634 5.88987 18.4684 7.18195 15.3659C8.42976 12.3698 10.2158 9.67926 12.4905 7.36902C14.7653 5.05879 17.4144 3.24483 20.3645 1.97763C23.4193 0.665376 26.6637 0 30.0076 0C33.4942 0 36.866 0.721398 40.0292 2.14426C42.9069 3.43862 45.4801 5.25097 47.6862 7.53535C50.6035 6.89631 53.8399 5.77262 57.439 3.89536ZM52.8657 27.9424C52.9478 27.3441 53.4898 26.9271 54.0762 27.0107C54.6627 27.0944 55.0716 27.6473 54.9895 28.2456C54.1686 34.2294 51.2515 39.7296 46.7755 43.733C44.5626 45.7122 42.0536 47.2587 39.3182 48.3294C36.4863 49.4379 33.4991 50 30.4397 50C28.3295 50 26.233 49.7288 24.2085 49.194C22.2433 48.6748 20.3422 47.9066 18.5578 46.9106C18.0383 46.6207 17.8475 45.9559 18.1318 45.426C18.416 44.896 19.0677 44.7015 19.5871 44.9914C22.8935 46.8368 26.6462 47.8123 30.4397 47.8123C33.2355 47.8123 35.9641 47.299 38.5499 46.2869C41.0481 45.309 43.34 43.8963 45.3618 42.088C49.4511 38.4304 52.1161 33.4068 52.8657 27.9424Z" fill="#303756"/>
</svg>
