<svg width="76" height="104" viewBox="0 0 76 104" fill="none" xmlns="http://www.w3.org/2000/svg">
<g filter="url(#filter0_bd_1008_1702)">
<path fill-rule="evenodd" clip-rule="evenodd" d="M25.4856 2.00237C23.5513 2.00237 19.463 1.88369 18.6334 3.32693C18.0437 4.35295 18.598 8.21446 17.8721 8.84594C15.1989 11.1713 13.219 15.0282 12.0351 18.1179C11.5619 19.3527 16.0179 32.179 16.8569 32.9088C18.1969 34.0745 20.7846 34.5594 22.1864 35.7787C24.0541 37.4034 23.2842 45.4971 22.4402 47.6998C21.3609 50.5164 22.911 54.6072 21.425 57.1925C17.1326 64.6603 17.4486 78.3117 25.7393 81.9177C28.0474 82.9215 26.7545 74.4361 26.7545 73.308C26.7545 68.2617 29.3707 64.4094 32.8453 61.3869C35.8207 58.7987 42.9921 57.421 45.0268 53.8811C46.4892 51.3369 49.0771 43.9558 50.8638 42.4015C53.187 40.3807 56.5701 40.0869 58.4773 38.4278C59.8415 37.2411 57.7115 33.1335 58.9849 32.0258C60.7312 30.5067 66.0408 26.6406 63.8068 22.7539C61.5365 18.8041 56.6994 21.6488 53.4017 18.7802C47.6786 13.8018 41.8781 6.81416 34.8755 3.76845C32.1198 2.56988 28.6956 3.2716 25.4856 2.00237Z" fill="white" fill-opacity="0.7"/>
<path fill-rule="evenodd" clip-rule="evenodd" d="M25.4856 2.00237C23.5513 2.00237 19.463 1.88369 18.6334 3.32693C18.0437 4.35295 18.598 8.21446 17.8721 8.84594C15.1989 11.1713 13.219 15.0282 12.0351 18.1179C11.5619 19.3527 16.0179 32.179 16.8569 32.9088C18.1969 34.0745 20.7846 34.5594 22.1864 35.7787C24.0541 37.4034 23.2842 45.4971 22.4402 47.6998C21.3609 50.5164 22.911 54.6072 21.425 57.1925C17.1326 64.6603 17.4486 78.3117 25.7393 81.9177C28.0474 82.9215 26.7545 74.4361 26.7545 73.308C26.7545 68.2617 29.3707 64.4094 32.8453 61.3869C35.8207 58.7987 42.9921 57.421 45.0268 53.8811C46.4892 51.3369 49.0771 43.9558 50.8638 42.4015C53.187 40.3807 56.5701 40.0869 58.4773 38.4278C59.8415 37.2411 57.7115 33.1335 58.9849 32.0258C60.7312 30.5067 66.0408 26.6406 63.8068 22.7539C61.5365 18.8041 56.6994 21.6488 53.4017 18.7802C47.6786 13.8018 41.8781 6.81416 34.8755 3.76845C32.1198 2.56988 28.6956 3.2716 25.4856 2.00237Z" stroke="white" stroke-width="3" stroke-linejoin="round"/>
</g>
<defs>
<filter id="filter0_bd_1008_1702" x="-21.5002" y="-31.5002" width="119.351" height="147" filterUnits="userSpaceOnUse" color-interpolation-filters="sRGB">
<feFlood flood-opacity="0" result="BackgroundImageFix"/>
<feGaussianBlur in="BackgroundImageFix" stdDeviation="16"/>
<feComposite in2="SourceAlpha" operator="in" result="effect1_backgroundBlur_1008_1702"/>
<feColorMatrix in="SourceAlpha" type="matrix" values="0 0 0 0 0 0 0 0 0 0 0 0 0 0 0 0 0 0 127 0" result="hardAlpha"/>
<feOffset dy="10"/>
<feGaussianBlur stdDeviation="5"/>
<feColorMatrix type="matrix" values="0 0 0 0 0 0 0 0 0 0 0 0 0 0 0 0 0 0 0.1 0"/>
<feBlend mode="normal" in2="effect1_backgroundBlur_1008_1702" result="effect2_dropShadow_1008_1702"/>
<feBlend mode="normal" in="SourceGraphic" in2="effect2_dropShadow_1008_1702" result="shape"/>
</filter>
</defs>
</svg>
