<svg width="88" height="88" viewBox="0 0 88 88" fill="none" xmlns="http://www.w3.org/2000/svg">
<g filter="url(#filter0_d_41_2106)">
<circle cx="44" cy="40" r="27" fill="white" fill-opacity="0.5" stroke="white" stroke-width="2"/>
<path d="M44 28.375C37.5781 28.375 32.375 33.625 32.375 40C32.375 46.4219 37.5781 51.625 44 51.625C50.375 51.625 55.625 46.4219 55.625 40C55.625 33.625 50.375 28.375 44 28.375ZM51.5 38.5V38.8281C51.5 39.1094 51.3125 39.3438 51.0781 39.4844L50.375 39.8125C50.2812 39.8594 50.1406 39.9062 50.0469 39.9062C49.9062 39.9062 49.7188 39.8594 49.625 39.8125L48.7812 39.2031C48.6875 39.1562 48.5 39.1094 48.3594 39.1094C48.3125 39.1094 48.2188 39.1094 48.125 39.1562H48.0312C47.5625 39.3438 47.375 39.8594 47.6562 40.2812L48.2656 41.2188C48.4062 41.4062 48.6406 41.5469 48.875 41.5469H49.25C49.6719 41.5469 50 41.8281 50 42.25V42.7656C50 42.9531 49.9062 43.0938 49.8125 43.2344L48.9688 44.4062C48.875 44.5 48.8281 44.5938 48.8281 44.6875L48.6406 45.7656C48.5938 45.9062 48.5 46.0469 48.4062 46.1406C48.0312 46.5156 47.5156 47.125 47.2344 47.5469L46.625 48.4375C46.3906 48.7656 45.9219 49.0469 45.5469 49.0469C45.0312 49.0469 44.6094 48.7656 44.375 48.2969C44.1406 47.875 44 47.125 44 46.6562V45.25C44 44.8281 43.6719 44.5 43.25 44.5H42.0312C41.375 44.5 40.7188 44.2656 40.2031 43.75C39.8281 43.375 39.4531 42.5312 39.4531 41.9688V41.3125C39.4531 40.5156 39.875 39.7188 40.4844 39.25L41.7969 38.2656C42.1719 37.9844 42.875 37.75 43.3438 37.75H43.3906C43.7656 37.75 44.1406 37.8438 44.5156 38.0312L45.2188 38.4062C45.3594 38.4531 45.5938 38.5 45.7812 38.4062L47.9844 37.7031C48.2656 37.6094 48.4531 37.3281 48.4531 37C48.4531 36.5781 48.1719 36.25 47.75 36.25H47.2812C47.0938 36.25 46.9062 36.2031 46.7656 36.0625L46.4375 35.7344C46.3438 35.6406 46.1094 35.5 45.9219 35.5H41.7031C41.2812 35.5 41 35.2188 41 34.7969V34.6094C41 34.2344 41.1875 33.9531 41.5156 33.9062L42.2188 33.7188C42.3594 33.6719 42.5469 33.5781 42.6406 33.3906L43.0156 32.8281C43.1562 32.6406 43.3906 32.5 43.625 32.5H44.75C45.1719 32.5 45.5 32.2188 45.5 31.7969V30.7656C49.2031 31.375 52.1562 34.1875 53.0469 37.75H52.2031C51.7812 37.75 51.5 38.0781 51.5 38.5Z" fill="#1E243E"/>
</g>
<defs>
<filter id="filter0_d_41_2106" x="0" y="0" width="88" height="88" filterUnits="userSpaceOnUse" color-interpolation-filters="sRGB">
<feFlood flood-opacity="0" result="BackgroundImageFix"/>
<feColorMatrix in="SourceAlpha" type="matrix" values="0 0 0 0 0 0 0 0 0 0 0 0 0 0 0 0 0 0 127 0" result="hardAlpha"/>
<feOffset dy="4"/>
<feGaussianBlur stdDeviation="8"/>
<feColorMatrix type="matrix" values="0 0 0 0 0 0 0 0 0 0 0 0 0 0 0 0 0 0 0.08 0"/>
<feBlend mode="normal" in2="BackgroundImageFix" result="effect1_dropShadow_41_2106"/>
<feBlend mode="normal" in="SourceGraphic" in2="effect1_dropShadow_41_2106" result="shape"/>
</filter>
</defs>
</svg>
