<svg width="70" height="70" viewBox="0 0 70 70" fill="none" xmlns="http://www.w3.org/2000/svg">
<path d="M35 0.125C15.7344 0.125 0.125 15.875 0.125 35C0.125 54.2656 15.7344 69.875 35 69.875C54.125 69.875 69.875 54.2656 69.875 35C69.875 15.875 54.125 0.125 35 0.125ZM57.5 30.5V31.4844C57.5 32.3281 56.9375 33.0312 56.2344 33.4531L54.125 34.4375C53.8438 34.5781 53.4219 34.7188 53.1406 34.7188C52.7188 34.7188 52.1562 34.5781 51.875 34.4375L49.3438 32.6094C49.0625 32.4688 48.5 32.3281 48.0781 32.3281C47.9375 32.3281 47.6562 32.3281 47.375 32.4688H47.0938C45.6875 33.0312 45.125 34.5781 45.9688 35.8438L47.7969 38.6562C48.2188 39.2188 48.9219 39.6406 49.625 39.6406H50.75C52.0156 39.6406 53 40.4844 53 41.75V43.2969C53 43.8594 52.7188 44.2812 52.4375 44.7031L49.9062 48.2188C49.625 48.5 49.4844 48.7812 49.4844 49.0625L48.9219 52.2969C48.7812 52.7188 48.5 53.1406 48.2188 53.4219C47.0938 54.5469 45.5469 56.375 44.7031 57.6406L42.875 60.3125C42.1719 61.2969 40.7656 62.1406 39.6406 62.1406C38.0938 62.1406 36.8281 61.2969 36.125 59.8906C35.4219 58.625 35 56.375 35 54.9688V50.75C35 49.4844 34.0156 48.5 32.75 48.5H29.0938C27.125 48.5 25.1562 47.7969 23.6094 46.25C22.4844 45.125 21.3594 42.5938 21.3594 40.9062V38.9375C21.3594 36.5469 22.625 34.1562 24.4531 32.75L28.3906 29.7969C29.5156 28.9531 31.625 28.25 33.0312 28.25H33.1719C34.2969 28.25 35.4219 28.5312 36.5469 29.0938L38.6562 30.2188C39.0781 30.3594 39.7812 30.5 40.3438 30.2188L46.9531 28.1094C47.7969 27.8281 48.3594 26.9844 48.3594 26C48.3594 24.7344 47.5156 23.75 46.25 23.75H44.8438C44.2812 23.75 43.7188 23.6094 43.2969 23.1875L42.3125 22.2031C42.0312 21.9219 41.3281 21.5 40.7656 21.5H28.1094C26.8438 21.5 26 20.6562 26 19.3906V18.8281C26 17.7031 26.5625 16.8594 27.5469 16.7188L29.6562 16.1562C30.0781 16.0156 30.6406 15.7344 30.9219 15.1719L32.0469 13.4844C32.4688 12.9219 33.1719 12.5 33.875 12.5H37.25C38.5156 12.5 39.5 11.6562 39.5 10.3906V7.29688C50.6094 9.125 59.4688 17.5625 62.1406 28.25H59.6094C58.3438 28.25 57.5 29.2344 57.5 30.5Z" fill="#1E243E"/>
</svg>
