<svg width="350" height="250" viewBox="0 0 350 250" fill="none" xmlns="http://www.w3.org/2000/svg">
<g id="flag / asia / north korea / b">
<g id="north korea b">
<g id="blue">
<path fill-rule="evenodd" clip-rule="evenodd" d="M325 199.94H25V175H325V199.94ZM325 75H25V50H325V75Z" fill="white" fill-opacity="0.5"/>
<path d="M25 199.94H24V200.94H25V199.94ZM325 199.94V200.94H326V199.94H325ZM25 175V174H24V175H25ZM325 175H326V174H325V175ZM325 75V76H326V75H325ZM25 75H24V76H25V75ZM25 50V49H24V50H25ZM325 50H326V49H325V50ZM25 200.94H325V198.94H25V200.94ZM24 175V199.94H26V175H24ZM25 176H325V174H25V176ZM326 199.94V175H324V199.94H326ZM325 74H25V76H325V74ZM24 50V75H26V50H24ZM325 49H25V51H325V49ZM326 75V50H324V75H326Z" fill="white"/>
</g>
<g id="white">
<path fill-rule="evenodd" clip-rule="evenodd" d="M325 175H25V170.833H325V175ZM325 79.167H25V75H325V79.167ZM125 91.667C143.409 91.667 158.333 106.591 158.333 125C158.333 143.41 143.409 158.333 125 158.333C106.59 158.333 91.666 143.41 91.666 125C91.666 106.591 106.59 91.667 125 91.667ZM113.269 128.812L94.289 115.021H117.75L125 92.708L132.25 115.021H155.711L136.731 128.812L143.98 151.125L125 137.334L106.019 151.125L113.269 128.812Z" fill="white" fill-opacity="0.5"/>
<path d="M25 175H24C24 175.552 24.4477 176 25 176V175ZM325 175V176C325.552 176 326 175.552 326 175H325ZM25 170.833V169.833C24.4477 169.833 24 170.281 24 170.833H25ZM325 170.833H326C326 170.281 325.552 169.833 325 169.833V170.833ZM25 79.167H24C24 79.7193 24.4477 80.167 25 80.167V79.167ZM325 79.167V80.167C325.552 80.167 326 79.7193 326 79.167H325ZM25 75V74C24.4477 74 24 74.4477 24 75H25ZM325 75H326C326 74.4477 325.552 74 325 74V75ZM94.289 115.021V114.021C93.8558 114.021 93.4718 114.3 93.338 114.712C93.2041 115.124 93.3507 115.575 93.7012 115.83L94.289 115.021ZM113.269 128.812L114.22 129.121C114.354 128.709 114.207 128.258 113.857 128.003L113.269 128.812ZM117.75 115.021V116.021C118.183 116.021 118.567 115.742 118.701 115.33L117.75 115.021ZM125 92.708L125.951 92.399C125.817 91.987 125.433 91.708 125 91.708C124.567 91.708 124.183 91.987 124.049 92.399L125 92.708ZM132.25 115.021L131.299 115.33C131.433 115.742 131.817 116.021 132.25 116.021V115.021ZM155.711 115.021L156.299 115.83C156.649 115.575 156.796 115.124 156.662 114.712C156.528 114.3 156.144 114.021 155.711 114.021V115.021ZM136.731 128.812L136.143 128.003C135.793 128.258 135.646 128.709 135.78 129.121L136.731 128.812ZM143.98 151.125L143.392 151.934C143.743 152.189 144.217 152.189 144.568 151.934C144.918 151.679 145.065 151.228 144.931 150.816L143.98 151.125ZM125 137.334L125.588 136.525C125.237 136.27 124.763 136.27 124.412 136.525L125 137.334ZM106.019 151.125L105.068 150.816C104.934 151.228 105.081 151.679 105.431 151.934C105.782 152.189 106.256 152.189 106.607 151.934L106.019 151.125ZM25 176H325V174H25V176ZM24 170.833V175H26V170.833H24ZM325 169.833H25V171.833H325V169.833ZM326 175V170.833H324V175H326ZM25 80.167H325V78.167H25V80.167ZM24 75V79.167H26V75H24ZM325 74H25V76H325V74ZM326 79.167V75H324V79.167H326ZM159.333 125C159.333 106.039 143.961 90.667 125 90.667V92.667C142.857 92.667 157.333 107.143 157.333 125H159.333ZM125 159.333C143.961 159.333 159.333 143.962 159.333 125H157.333C157.333 142.858 142.857 157.333 125 157.333V159.333ZM90.666 125C90.666 143.962 106.038 159.333 125 159.333V157.333C107.142 157.333 92.666 142.858 92.666 125H90.666ZM125 90.667C106.038 90.667 90.666 106.039 90.666 125H92.666C92.666 107.143 107.142 92.667 125 92.667V90.667ZM93.7012 115.83L112.681 129.621L113.857 128.003L94.8768 114.212L93.7012 115.83ZM117.75 114.021H94.289V116.021H117.75V114.021ZM124.049 92.399L116.799 114.712L118.701 115.33L125.951 93.017L124.049 92.399ZM133.201 114.712L125.951 92.399L124.049 93.017L131.299 115.33L133.201 114.712ZM155.711 114.021H132.25V116.021H155.711V114.021ZM137.319 129.621L156.299 115.83L155.123 114.212L136.143 128.003L137.319 129.621ZM144.931 150.816L137.682 128.503L135.78 129.121L143.029 151.434L144.931 150.816ZM124.412 138.143L143.392 151.934L144.568 150.316L125.588 136.525L124.412 138.143ZM106.607 151.934L125.588 138.143L124.412 136.525L105.431 150.316L106.607 151.934ZM112.318 128.503L105.068 150.816L106.97 151.434L114.22 129.121L112.318 128.503Z" fill="white"/>
</g>
<g id="red">
<path fill-rule="evenodd" clip-rule="evenodd" d="M25 170.833H325V79.167H25V170.833ZM125 91.667C143.409 91.667 158.333 106.591 158.333 125C158.333 143.41 143.409 158.333 125 158.333C106.59 158.333 91.666 143.41 91.666 125C91.666 106.591 106.59 91.667 125 91.667ZM113.269 128.812L94.289 115.021H117.75L125 92.708L132.25 115.021H155.711L136.731 128.812L143.98 151.125L125 137.334L106.019 151.125L113.269 128.812Z" fill="white" fill-opacity="0.5"/>
<path d="M325 170.833V171.833C325.552 171.833 326 171.385 326 170.833H325ZM25 170.833H24C24 171.385 24.4477 171.833 25 171.833V170.833ZM325 79.167H326C326 78.6147 325.552 78.167 325 78.167V79.167ZM25 79.167V78.167C24.4477 78.167 24 78.6147 24 79.167H25ZM94.289 115.021V114.021C93.8558 114.021 93.4718 114.3 93.338 114.712C93.2041 115.124 93.3507 115.575 93.7012 115.83L94.289 115.021ZM113.269 128.812L114.22 129.121C114.354 128.709 114.207 128.258 113.857 128.003L113.269 128.812ZM117.75 115.021V116.021C118.183 116.021 118.567 115.742 118.701 115.33L117.75 115.021ZM125 92.708L125.951 92.399C125.817 91.987 125.433 91.708 125 91.708C124.567 91.708 124.183 91.987 124.049 92.399L125 92.708ZM132.25 115.021L131.299 115.33C131.433 115.742 131.817 116.021 132.25 116.021V115.021ZM155.711 115.021L156.299 115.83C156.649 115.575 156.796 115.124 156.662 114.712C156.528 114.3 156.144 114.021 155.711 114.021V115.021ZM136.731 128.812L136.143 128.003C135.793 128.258 135.646 128.709 135.78 129.121L136.731 128.812ZM143.98 151.125L143.392 151.934C143.743 152.189 144.217 152.189 144.568 151.934C144.918 151.679 145.065 151.228 144.931 150.816L143.98 151.125ZM125 137.334L125.588 136.525C125.237 136.27 124.763 136.27 124.412 136.525L125 137.334ZM106.019 151.125L105.068 150.816C104.934 151.228 105.081 151.679 105.431 151.934C105.782 152.189 106.256 152.189 106.607 151.934L106.019 151.125ZM325 169.833H25V171.833H325V169.833ZM324 79.167V170.833H326V79.167H324ZM25 80.167H325V78.167H25V80.167ZM26 170.833V79.167H24V170.833H26ZM159.333 125C159.333 106.039 143.961 90.667 125 90.667V92.667C142.857 92.667 157.333 107.143 157.333 125H159.333ZM125 159.333C143.961 159.333 159.333 143.962 159.333 125H157.333C157.333 142.858 142.857 157.333 125 157.333V159.333ZM90.666 125C90.666 143.962 106.038 159.333 125 159.333V157.333C107.142 157.333 92.666 142.858 92.666 125H90.666ZM125 90.667C106.038 90.667 90.666 106.039 90.666 125H92.666C92.666 107.143 107.142 92.667 125 92.667V90.667ZM93.7012 115.83L112.681 129.621L113.857 128.003L94.8768 114.212L93.7012 115.83ZM117.75 114.021H94.289V116.021H117.75V114.021ZM124.049 92.399L116.799 114.712L118.701 115.33L125.951 93.017L124.049 92.399ZM133.201 114.712L125.951 92.399L124.049 93.017L131.299 115.33L133.201 114.712ZM155.711 114.021H132.25V116.021H155.711V114.021ZM137.319 129.621L156.299 115.83L155.123 114.212L136.143 128.003L137.319 129.621ZM144.931 150.816L137.682 128.503L135.78 129.121L143.029 151.434L144.931 150.816ZM124.412 138.143L143.392 151.934L144.568 150.316L125.588 136.525L124.412 138.143ZM106.607 151.934L125.588 138.143L124.412 136.525L105.431 150.316L106.607 151.934ZM112.318 128.503L105.068 150.816L106.97 151.434L114.22 129.121L112.318 128.503Z" fill="white"/>
</g>
</g>
</g>
</svg>
