<svg width="350" height="250" viewBox="0 0 350 250" fill="none" xmlns="http://www.w3.org/2000/svg">
<g id="flag / oceania / salomon islands / a">
<g id="solomon islands a">
<path id="yellow" fill-rule="evenodd" clip-rule="evenodd" d="M25 191.615L308.229 50H325V58.3853L41.7705 200H25V191.615Z" fill="#F6CD2B"/>
<path id="green" fill-rule="evenodd" clip-rule="evenodd" d="M41.8906 199.94H325V58.3853L41.8906 199.94Z" fill="#225132"/>
<path id="blue" fill-rule="evenodd" clip-rule="evenodd" d="M25 50H308.229L25 191.615V50ZM42.439 71.39L33.623 64.985H44.521L47.888 54.62L51.256 64.985H62.154L53.337 71.39L56.705 81.755L47.888 75.349L39.071 81.755L42.439 71.39ZM92.846 64.985L101.662 71.39L98.295 81.755L107.111 75.349L115.928 81.755L112.561 71.39L121.377 64.985H110.479L107.112 54.62L103.744 64.985H92.846ZM72.051 96.77L63.234 90.365H74.132L77.5 80L80.868 90.365H91.766L82.949 96.771L86.317 107.135L77.5 100.73L68.683 107.135L72.051 96.77ZM33.623 115.745L42.439 122.151L39.071 132.516L47.888 126.11L56.705 132.516L53.337 122.151L62.154 115.745H51.256L47.888 105.38L44.521 115.745H33.623ZM101.662 122.151L92.846 115.745H103.744L107.112 105.38L110.479 115.745H121.377L112.561 122.151L115.928 132.516L107.111 126.11L98.295 132.516L101.662 122.151Z" fill="#274D90"/>
<path id="white" fill-rule="evenodd" clip-rule="evenodd" d="M33.623 64.9851L42.439 71.3901L39.071 81.7551L47.888 75.3491L56.705 81.7551L53.337 71.3901L62.154 64.9851H51.256L47.888 54.6201L44.521 64.9851H33.623ZM92.846 64.9851L101.662 71.3901L98.295 81.7551L107.111 75.3491L115.928 81.7551L112.561 71.3901L121.377 64.9851H110.479L107.112 54.6201L103.744 64.9851H92.846ZM72.051 96.7701L63.234 90.3651H74.132L77.5 80.0001L80.868 90.3651H91.766L82.949 96.7711L86.317 107.135L77.5 100.73L68.683 107.135L72.051 96.7701ZM33.623 115.745L42.439 122.151L39.071 132.516L47.888 126.11L56.705 132.516L53.337 122.151L62.154 115.745H51.256L47.888 105.38L44.521 115.745H33.623ZM101.662 122.151L92.846 115.745H103.744L107.112 105.38L110.479 115.745H121.377L112.561 122.151L115.928 132.516L107.111 126.11L98.295 132.516L101.662 122.151Z" fill="#FFFFFE"/>
</g>
</g>
</svg>
