<svg width="350" height="250" viewBox="0 0 350 250" fill="none" xmlns="http://www.w3.org/2000/svg">
<g id="flag / oceania / salomon islands / b">
<g id="solomon islands b">
<g id="yellow">
<path fill-rule="evenodd" clip-rule="evenodd" d="M25 191.615L308.229 50H325V58.3853L41.7705 200H25V191.615Z" fill="#F6CD2B" fill-opacity="1"/>
<path d="M25 191.615L24.5528 190.72L24 190.997V191.615H25ZM308.229 50V49H307.993L307.782 49.1056L308.229 50ZM325 50H326V49H325V50ZM325 58.3853L325.447 59.2797L326 59.0033V58.3853H325ZM41.7705 200V201H42.0066L42.2177 200.894L41.7705 200ZM25 200H24V201H25V200ZM25.4472 192.509L308.677 50.8944L307.782 49.1056L24.5528 190.72L25.4472 192.509ZM308.229 51H325V49H308.229V51ZM324 50V58.3853H326V50H324ZM324.553 57.4908L41.3233 199.106L42.2177 200.894L325.447 59.2797L324.553 57.4908ZM41.7705 199H25V201H41.7705V199ZM26 200V191.615H24V200H26Z" fill="white"/>
</g>
<g id="green">
<path fill-rule="evenodd" clip-rule="evenodd" d="M41.8906 199.94H325V58.3853L41.8906 199.94Z" fill="#225132" fill-opacity="1"/>
<path d="M41.8906 199.94L41.4434 199.046L41.8906 200.94V199.94ZM325 199.94V200.94H326V199.94H325ZM325 58.3853H326V56.7672L324.553 57.4908L325 58.3853ZM41.8906 200.94H325V198.94H41.8906V200.94ZM326 199.94V58.3853H324V199.94H326ZM324.553 57.4908L41.4434 199.046L42.3378 200.834L325.447 59.2797L324.553 57.4908Z" fill="white"/>
</g>
<g id="blue">
<path fill-rule="evenodd" clip-rule="evenodd" d="M25 50H308.229L25 191.615V50ZM42.439 71.39L33.623 64.985H44.521L47.888 54.62L51.256 64.985H62.154L53.337 71.39L56.705 81.755L47.888 75.349L39.071 81.755L42.439 71.39ZM92.846 64.985L101.662 71.39L98.295 81.755L107.111 75.349L115.928 81.755L112.561 71.39L121.377 64.985H110.479L107.112 54.62L103.744 64.985H92.846ZM72.051 96.77L63.234 90.365H74.132L77.5 80L80.868 90.365H91.766L82.949 96.771L86.317 107.135L77.5 100.73L68.683 107.135L72.051 96.77ZM33.623 115.745L42.439 122.151L39.071 132.516L47.888 126.11L56.705 132.516L53.337 122.151L62.154 115.745H51.256L47.888 105.38L44.521 115.745H33.623ZM101.662 122.151L92.846 115.745H103.744L107.112 105.38L110.479 115.745H121.377L112.561 122.151L115.928 132.516L107.111 126.11L98.295 132.516L101.662 122.151Z" fill="#274D90" fill-opacity="1"/>
<path d="M308.229 50L308.677 50.8944L308.229 49V50ZM25 50V49H24V50H25ZM25 191.615H24V193.233L25.4472 192.509L25 191.615ZM33.623 64.985V63.985H30.5452L33.0352 65.794L33.623 64.985ZM42.439 71.39L43.3901 71.699L43.6146 71.008L43.0268 70.581L42.439 71.39ZM44.521 64.985V65.985H45.2476L45.4721 65.294L44.521 64.985ZM47.888 54.62L48.8391 54.311L47.8879 51.3837L46.9369 54.311L47.888 54.62ZM51.256 64.985L50.3049 65.294L50.5295 65.985H51.256V64.985ZM62.154 64.985L62.7417 65.7941L65.232 63.985H62.154V64.985ZM53.337 71.39L52.7493 70.5809L52.1614 71.008L52.386 71.699L53.337 71.39ZM56.705 81.755L56.1172 82.564L58.6072 84.3731L57.6561 81.446L56.705 81.755ZM47.888 75.349L48.4758 74.54L47.888 74.1129L47.3002 74.54L47.888 75.349ZM39.071 81.755L38.1199 81.446L37.1688 84.3731L39.6588 82.564L39.071 81.755ZM101.662 71.39L102.613 71.699L102.838 71.008L102.25 70.581L101.662 71.39ZM92.846 64.985V63.985H89.7682L92.2582 65.794L92.846 64.985ZM98.295 81.755L97.3439 81.446L96.3931 84.3731L98.8828 82.564L98.295 81.755ZM107.111 75.349L107.699 74.54L107.111 74.1129L106.523 74.54L107.111 75.349ZM115.928 81.755L115.34 82.564L117.83 84.3728L116.879 81.4461L115.928 81.755ZM112.561 71.39L111.973 70.581L111.385 71.008L111.61 71.6989L112.561 71.39ZM121.377 64.985L121.965 65.794L124.455 63.985H121.377V64.985ZM110.479 64.985L109.528 65.294L109.752 65.985H110.479V64.985ZM107.112 54.62L108.063 54.311L107.112 51.3837L106.161 54.311L107.112 54.62ZM103.744 64.985V65.985H104.471L104.695 65.294L103.744 64.985ZM63.234 90.365V89.365H60.156L62.6463 91.1741L63.234 90.365ZM72.051 96.77L73.0021 97.079L73.2266 96.388L72.6387 95.9609L72.051 96.77ZM74.132 90.365V91.365H74.8585L75.083 90.674L74.132 90.365ZM77.5 80L78.451 79.691L77.5 76.7641L76.549 79.691L77.5 80ZM80.868 90.365L79.917 90.674L80.1415 91.365H80.868V90.365ZM91.766 90.365L92.3538 91.174L94.8437 89.365H91.766V90.365ZM82.949 96.771L82.3612 95.962L81.7734 96.3891L81.998 97.0801L82.949 96.771ZM86.317 107.135L85.7293 107.944L88.2192 109.753L87.268 106.826L86.317 107.135ZM77.5 100.73L78.0877 99.9209L77.5 99.494L76.9123 99.9209L77.5 100.73ZM68.683 107.135L67.732 106.826L66.7809 109.753L69.2707 107.944L68.683 107.135ZM42.439 122.151L43.3901 122.46L43.6146 121.769L43.0268 121.342L42.439 122.151ZM33.623 115.745V114.745H30.5456L33.0352 116.554L33.623 115.745ZM39.071 132.516L38.1199 132.207L37.1688 135.134L39.6588 133.325L39.071 132.516ZM47.888 126.11L48.4758 125.301L47.888 124.874L47.3002 125.301L47.888 126.11ZM56.705 132.516L56.1172 133.325L58.6072 135.134L57.6561 132.207L56.705 132.516ZM53.337 122.151L52.7492 121.342L52.1614 121.769L52.386 122.46L53.337 122.151ZM62.154 115.745L62.7418 116.554L65.2317 114.745H62.154V115.745ZM51.256 115.745L50.3049 116.054L50.5295 116.745H51.256V115.745ZM47.888 105.38L48.8391 105.071L47.8879 102.144L46.9369 105.071L47.888 105.38ZM44.521 115.745V116.745H45.2476L45.4721 116.054L44.521 115.745ZM92.846 115.745V114.745H89.7686L92.2582 116.554L92.846 115.745ZM101.662 122.151L102.613 122.46L102.838 121.769L102.25 121.342L101.662 122.151ZM103.744 115.745V116.745H104.471L104.695 116.054L103.744 115.745ZM107.112 105.38L108.063 105.071L107.112 102.144L106.161 105.071L107.112 105.38ZM110.479 115.745L109.528 116.054L109.752 116.745H110.479V115.745ZM121.377 115.745L121.965 116.554L124.454 114.745H121.377V115.745ZM112.561 122.151L111.973 121.342L111.385 121.769L111.61 122.46L112.561 122.151ZM115.928 132.516L115.34 133.325L117.83 135.134L116.879 132.207L115.928 132.516ZM107.111 126.11L107.699 125.301L107.111 124.874L106.523 125.301L107.111 126.11ZM98.295 132.516L97.3439 132.207L96.3931 135.134L98.8828 133.325L98.295 132.516ZM308.229 49H25V51H308.229V49ZM25.4472 192.509L308.677 50.8944L307.782 49.1056L24.5528 190.72L25.4472 192.509ZM24 50V191.615H26V50H24ZM33.0352 65.794L41.8512 72.199L43.0268 70.581L34.2108 64.176L33.0352 65.794ZM44.521 63.985H33.623V65.985H44.521V63.985ZM46.9369 54.311L43.5699 64.676L45.4721 65.294L48.8391 54.929L46.9369 54.311ZM52.2071 64.676L48.8391 54.311L46.9369 54.929L50.3049 65.294L52.2071 64.676ZM62.154 63.985H51.256V65.985H62.154V63.985ZM53.9247 72.1991L62.7417 65.7941L61.5663 64.1759L52.7493 70.5809L53.9247 72.1991ZM57.6561 81.446L54.2881 71.081L52.386 71.699L55.754 82.064L57.6561 81.446ZM47.3002 76.158L56.1172 82.564L57.2928 80.946L48.4758 74.54L47.3002 76.158ZM39.6588 82.564L48.4758 76.158L47.3002 74.54L38.4832 80.946L39.6588 82.564ZM41.4879 71.081L38.1199 81.446L40.0221 82.064L43.3901 71.699L41.4879 71.081ZM102.25 70.581L93.4338 64.176L92.2582 65.794L101.074 72.199L102.25 70.581ZM99.2461 82.064L102.613 71.699L100.711 71.081L97.3439 81.446L99.2461 82.064ZM106.523 74.54L97.7072 80.946L98.8828 82.564L107.699 76.158L106.523 74.54ZM116.516 80.946L107.699 74.54L106.523 76.158L115.34 82.564L116.516 80.946ZM111.61 71.6989L114.977 82.064L116.879 81.4461L113.512 71.081L111.61 71.6989ZM120.789 64.176L111.973 70.581L113.149 72.199L121.965 65.794L120.789 64.176ZM110.479 65.985H121.377V63.985H110.479V65.985ZM106.161 54.929L109.528 65.294L111.43 64.676L108.063 54.311L106.161 54.929ZM104.695 65.294L108.063 54.929L106.161 54.311L102.793 64.676L104.695 65.294ZM92.846 65.985H103.744V63.985H92.846V65.985ZM62.6463 91.1741L71.4633 97.5791L72.6387 95.9609L63.8217 89.5559L62.6463 91.1741ZM74.132 89.365H63.234V91.365H74.132V89.365ZM76.549 79.691L73.181 90.056L75.083 90.674L78.451 80.309L76.549 79.691ZM81.8191 90.056L78.451 79.691L76.549 80.309L79.917 90.674L81.8191 90.056ZM91.766 89.365H80.868V91.365H91.766V89.365ZM83.5368 97.58L92.3538 91.174L91.1782 89.556L82.3612 95.962L83.5368 97.58ZM87.268 106.826L83.9 96.4619L81.998 97.0801L85.366 107.444L87.268 106.826ZM76.9123 101.539L85.7293 107.944L86.9047 106.326L78.0877 99.9209L76.9123 101.539ZM69.2707 107.944L78.0877 101.539L76.9123 99.9209L68.0953 106.326L69.2707 107.944ZM71.1 96.461L67.732 106.826L69.6341 107.444L73.0021 97.079L71.1 96.461ZM43.0268 121.342L34.2108 114.936L33.0352 116.554L41.8512 122.96L43.0268 121.342ZM40.0221 132.825L43.3901 122.46L41.4879 121.842L38.1199 132.207L40.0221 132.825ZM47.3002 125.301L38.4832 131.707L39.6588 133.325L48.4758 126.919L47.3002 125.301ZM57.2928 131.707L48.4758 125.301L47.3002 126.919L56.1172 133.325L57.2928 131.707ZM52.386 122.46L55.754 132.825L57.6561 132.207L54.2881 121.842L52.386 122.46ZM61.5662 114.936L52.7492 121.342L53.9248 122.96L62.7418 116.554L61.5662 114.936ZM51.256 116.745H62.154V114.745H51.256V116.745ZM46.9369 105.689L50.3049 116.054L52.2071 115.436L48.8391 105.071L46.9369 105.689ZM45.4721 116.054L48.8391 105.689L46.9369 105.071L43.5699 115.436L45.4721 116.054ZM33.623 116.745H44.521V114.745H33.623V116.745ZM92.2582 116.554L101.074 122.96L102.25 121.342L93.4338 114.936L92.2582 116.554ZM103.744 114.745H92.846V116.745H103.744V114.745ZM106.161 105.071L102.793 115.436L104.695 116.054L108.063 105.689L106.161 105.071ZM111.43 115.436L108.063 105.071L106.161 105.689L109.528 116.054L111.43 115.436ZM121.377 114.745H110.479V116.745H121.377V114.745ZM113.149 122.96L121.965 116.554L120.789 114.936L111.973 121.342L113.149 122.96ZM116.879 132.207L113.512 121.842L111.61 122.46L114.977 132.825L116.879 132.207ZM106.523 126.919L115.34 133.325L116.516 131.707L107.699 125.301L106.523 126.919ZM98.8828 133.325L107.699 126.919L106.523 125.301L97.7072 131.707L98.8828 133.325ZM100.711 121.842L97.3439 132.207L99.2461 132.825L102.613 122.46L100.711 121.842Z" fill="white"/>
</g>
<g id="white">
<path fill-rule="evenodd" clip-rule="evenodd" d="M33.623 64.9851L42.439 71.3901L39.071 81.7551L47.888 75.3491L56.705 81.7551L53.337 71.3901L62.154 64.9851H51.256L47.888 54.6201L44.521 64.9851H33.623ZM92.846 64.9851L101.662 71.3901L98.295 81.7551L107.111 75.3491L115.928 81.7551L112.561 71.3901L121.377 64.9851H110.479L107.112 54.6201L103.744 64.9851H92.846ZM72.051 96.7701L63.234 90.3651H74.132L77.5 80.0001L80.868 90.3651H91.766L82.949 96.7711L86.317 107.135L77.5 100.73L68.683 107.135L72.051 96.7701ZM33.623 115.745L42.439 122.151L39.071 132.516L47.888 126.11L56.705 132.516L53.337 122.151L62.154 115.745H51.256L47.888 105.38L44.521 115.745H33.623ZM101.662 122.151L92.846 115.745H103.744L107.112 105.38L110.479 115.745H121.377L112.561 122.151L115.928 132.516L107.111 126.11L98.295 132.516L101.662 122.151Z" fill="#FFFFFE" fill-opacity="1"/>
<path d="M42.439 71.3901L43.3901 71.6992L43.6146 71.0081L43.0268 70.5811L42.439 71.3901ZM33.623 64.9851V63.9851H30.5453L33.0353 65.7941L33.623 64.9851ZM39.071 81.7551L38.12 81.4461L37.1688 84.3732L39.6588 82.5641L39.071 81.7551ZM47.888 75.3491L48.4758 74.5401L47.888 74.113L47.3003 74.5401L47.888 75.3491ZM56.705 81.7551L56.1173 82.5641L58.6072 84.3732L57.6561 81.4461L56.705 81.7551ZM53.337 71.3901L52.7493 70.5811L52.1614 71.0081L52.386 71.6992L53.337 71.3901ZM62.154 64.9851L62.7418 65.7942L65.2321 63.9851H62.154V64.9851ZM51.256 64.9851L50.305 65.2942L50.5295 65.9851H51.256V64.9851ZM47.888 54.6201L48.8391 54.3111L47.8879 51.3838L46.937 54.3112L47.888 54.6201ZM44.521 64.9851V65.9851H45.2476L45.4721 65.2941L44.521 64.9851ZM101.662 71.3901L102.613 71.6991L102.838 71.0081L102.25 70.5811L101.662 71.3901ZM92.846 64.9851V63.9851H89.7683L92.2583 65.7941L92.846 64.9851ZM98.295 81.7551L97.344 81.4462L96.3931 84.3732L98.8829 82.5641L98.295 81.7551ZM107.111 75.3491L107.699 74.5401L107.111 74.113L106.523 74.5401L107.111 75.3491ZM115.928 81.7551L115.34 82.5641L117.83 84.373L116.879 81.4462L115.928 81.7551ZM112.561 71.3901L111.973 70.5811L111.386 71.0081L111.61 71.6991L112.561 71.3901ZM121.377 64.9851L121.965 65.7941L124.455 63.9851H121.377V64.9851ZM110.479 64.9851L109.528 65.2941L109.752 65.9851H110.479V64.9851ZM107.112 54.6201L108.063 54.3112L107.112 51.3838L106.161 54.3111L107.112 54.6201ZM103.744 64.9851V65.9851H104.471L104.695 65.2942L103.744 64.9851ZM63.234 90.3651V89.3651H60.156L62.6463 91.1742L63.234 90.3651ZM72.051 96.7701L73.0021 97.0792L73.2266 96.3881L72.6388 95.9611L72.051 96.7701ZM74.132 90.3651V91.3651H74.8586L75.0831 90.6741L74.132 90.3651ZM77.5 80.0001L78.4511 79.6911L77.5 76.7642L76.549 79.6911L77.5 80.0001ZM80.868 90.3651L79.917 90.6742L80.1415 91.3651H80.868V90.3651ZM91.766 90.3651L92.3538 91.1741L94.8437 89.3651H91.766V90.3651ZM82.949 96.7711L82.3613 95.9621L81.7734 96.3892L81.998 97.0802L82.949 96.7711ZM86.317 107.135L85.7293 107.944L88.2192 109.753L87.2681 106.826L86.317 107.135ZM77.5 100.73L78.0878 99.9211L77.5 99.4941L76.9123 99.9211L77.5 100.73ZM68.683 107.135L67.732 106.826L66.781 109.753L69.2708 107.944L68.683 107.135ZM42.439 122.151L43.3901 122.46L43.6146 121.769L43.0269 121.342L42.439 122.151ZM33.623 115.745V114.745H30.5457L33.0352 116.554L33.623 115.745ZM39.071 132.516L38.12 132.207L37.1688 135.134L39.6588 133.325L39.071 132.516ZM47.888 126.11L48.4758 125.301L47.888 124.874L47.3003 125.301L47.888 126.11ZM56.705 132.516L56.1173 133.325L58.6072 135.134L57.6561 132.207L56.705 132.516ZM53.337 122.151L52.7493 121.342L52.1615 121.769L52.386 122.46L53.337 122.151ZM62.154 115.745L62.7418 116.554L65.2317 114.745H62.154V115.745ZM51.256 115.745L50.305 116.054L50.5295 116.745H51.256V115.745ZM47.888 105.38L48.8391 105.071L47.8879 102.144L46.937 105.071L47.888 105.38ZM44.521 115.745V116.745H45.2476L45.4721 116.054L44.521 115.745ZM92.846 115.745V114.745H89.7687L92.2582 116.554L92.846 115.745ZM101.662 122.151L102.613 122.46L102.838 121.769L102.25 121.342L101.662 122.151ZM103.744 115.745V116.745H104.471L104.695 116.054L103.744 115.745ZM107.112 105.38L108.063 105.071L107.112 102.144L106.161 105.071L107.112 105.38ZM110.479 115.745L109.528 116.054L109.752 116.745H110.479V115.745ZM121.377 115.745L121.965 116.554L124.454 114.745H121.377V115.745ZM112.561 122.151L111.973 121.342L111.386 121.769L111.61 122.46L112.561 122.151ZM115.928 132.516L115.34 133.325L117.83 135.134L116.879 132.207L115.928 132.516ZM107.111 126.11L107.699 125.301L107.111 124.874L106.523 125.301L107.111 126.11ZM98.295 132.516L97.344 132.207L96.3931 135.134L98.8829 133.325L98.295 132.516ZM43.0268 70.5811L34.2108 64.1761L33.0353 65.7941L41.8513 72.1991L43.0268 70.5811ZM40.0221 82.0642L43.3901 71.6992L41.488 71.0811L38.12 81.4461L40.0221 82.0642ZM47.3003 74.5401L38.4833 80.9461L39.6588 82.5641L48.4758 76.1581L47.3003 74.5401ZM57.2928 80.9461L48.4758 74.5401L47.3003 76.1581L56.1173 82.5641L57.2928 80.9461ZM52.386 71.6992L55.754 82.0642L57.6561 81.4461L54.2881 71.0811L52.386 71.6992ZM61.5663 64.1761L52.7493 70.5811L53.9248 72.1992L62.7418 65.7942L61.5663 64.1761ZM51.256 65.9851H62.154V63.9851H51.256V65.9851ZM46.937 54.9292L50.305 65.2942L52.2071 64.6761L48.8391 54.3111L46.937 54.9292ZM45.4721 65.2941L48.8391 54.9291L46.937 54.3112L43.57 64.6762L45.4721 65.2941ZM33.623 65.9851H44.521V63.9851H33.623V65.9851ZM102.25 70.5811L93.4338 64.1761L92.2583 65.7941L101.074 72.1991L102.25 70.5811ZM99.2461 82.0641L102.613 71.6991L100.711 71.0812L97.344 81.4462L99.2461 82.0641ZM106.523 74.5401L97.7072 80.9461L98.8829 82.5641L107.699 76.1581L106.523 74.5401ZM116.516 80.9461L107.699 74.5401L106.523 76.1581L115.34 82.5641L116.516 80.9461ZM111.61 71.6991L114.977 82.0641L116.879 81.4462L113.512 71.0812L111.61 71.6991ZM120.789 64.1761L111.973 70.5811L113.149 72.1991L121.965 65.7941L120.789 64.1761ZM110.479 65.9851H121.377V63.9851H110.479V65.9851ZM106.161 54.9291L109.528 65.2941L111.43 64.6762L108.063 54.3112L106.161 54.9291ZM104.695 65.2942L108.063 54.9292L106.161 54.3111L102.793 64.6761L104.695 65.2942ZM92.846 65.9851H103.744V63.9851H92.846V65.9851ZM62.6463 91.1742L71.4633 97.5792L72.6388 95.9611L63.8218 89.5561L62.6463 91.1742ZM74.132 89.3651H63.234V91.3651H74.132V89.3651ZM76.549 79.6911L73.181 90.0561L75.0831 90.6741L78.4511 80.3092L76.549 79.6911ZM81.8191 90.0561L78.4511 79.6911L76.549 80.3092L79.917 90.6742L81.8191 90.0561ZM91.766 89.3651H80.868V91.3651H91.766V89.3651ZM83.5368 97.5801L92.3538 91.1741L91.1783 89.5561L82.3613 95.9621L83.5368 97.5801ZM87.2681 106.826L83.9001 96.4621L81.998 97.0802L85.366 107.444L87.2681 106.826ZM76.9123 101.539L85.7293 107.944L86.9048 106.326L78.0878 99.9211L76.9123 101.539ZM69.2708 107.944L78.0878 101.539L76.9123 99.9211L68.0953 106.326L69.2708 107.944ZM71.1 96.4611L67.732 106.826L69.6341 107.444L73.0021 97.0792L71.1 96.4611ZM43.0269 121.342L34.2109 114.936L33.0352 116.554L41.8512 122.96L43.0269 121.342ZM40.0221 132.825L43.3901 122.46L41.488 121.842L38.12 132.207L40.0221 132.825ZM47.3003 125.301L38.4833 131.707L39.6588 133.325L48.4758 126.919L47.3003 125.301ZM57.2928 131.707L48.4758 125.301L47.3003 126.919L56.1173 133.325L57.2928 131.707ZM52.386 122.46L55.754 132.825L57.6561 132.207L54.2881 121.842L52.386 122.46ZM61.5663 114.936L52.7493 121.342L53.9248 122.96L62.7418 116.554L61.5663 114.936ZM51.256 116.745H62.154V114.745H51.256V116.745ZM46.937 105.689L50.305 116.054L52.2071 115.436L48.8391 105.071L46.937 105.689ZM45.4721 116.054L48.8391 105.689L46.937 105.071L43.57 115.436L45.4721 116.054ZM33.623 116.745H44.521V114.745H33.623V116.745ZM92.2582 116.554L101.074 122.96L102.25 121.342L93.4339 114.936L92.2582 116.554ZM103.744 114.745H92.846V116.745H103.744V114.745ZM106.161 105.071L102.793 115.436L104.695 116.054L108.063 105.689L106.161 105.071ZM111.43 115.436L108.063 105.071L106.161 105.689L109.528 116.054L111.43 115.436ZM121.377 114.745H110.479V116.745H121.377V114.745ZM113.149 122.96L121.965 116.554L120.789 114.936L111.973 121.342L113.149 122.96ZM116.879 132.207L113.512 121.842L111.61 122.46L114.977 132.825L116.879 132.207ZM106.523 126.919L115.34 133.325L116.516 131.707L107.699 125.301L106.523 126.919ZM98.8829 133.325L107.699 126.919L106.523 125.301L97.7072 131.707L98.8829 133.325ZM100.711 121.842L97.344 132.207L99.2461 132.825L102.613 122.46L100.711 121.842Z" fill="white"/>
</g>
</g>
</g>
</svg>
