<svg width="350" height="250" viewBox="0 0 350 250" fill="none" xmlns="http://www.w3.org/2000/svg">
<g id="flag / africa / seychelles / b">
<g id="seychelles b">
<g id="red">
<path fill-rule="evenodd" clip-rule="evenodd" d="M25.0801 199.94H25.1801L325 100V50H225L25.0801 199.94Z" fill="#C32B2C" fill-opacity="0.5"/>
<path d="M25.1801 199.94V200.94C25.2876 200.94 25.3943 200.923 25.4963 200.889L25.1801 199.94ZM25.0801 199.94L24.4801 199.14C24.1357 199.398 23.9953 199.848 24.1314 200.256C24.2675 200.665 24.6496 200.94 25.0801 200.94V199.94ZM325 100L325.316 100.949C325.725 100.813 326 100.43 326 100H325ZM325 50H326C326 49.4477 325.552 49 325 49V50ZM225 50V49C224.784 49 224.573 49.0702 224.4 49.2L225 50ZM25.1801 198.94H25.0801V200.94H25.1801V198.94ZM324.684 99.0513L24.8638 198.991L25.4963 200.889L325.316 100.949L324.684 99.0513ZM324 50V100H326V50H324ZM225 51H325V49H225V51ZM224.4 49.2L24.4801 199.14L25.6801 200.74L225.6 50.8L224.4 49.2Z" fill="white"/>
</g>
<g id="yellow">
<path fill-rule="evenodd" clip-rule="evenodd" d="M225 50H125L25 200L225 50Z" fill="#F8D45A" fill-opacity="0.5"/>
<path d="M125 50V49C124.666 49 124.353 49.1671 124.168 49.4453L125 50ZM225 50L225.6 50.8C225.944 50.5417 226.085 50.0921 225.949 49.6838C225.813 49.2754 225.43 49 225 49V50ZM25 200L24.1679 199.445C23.8977 199.851 23.9589 200.392 24.3128 200.726C24.6667 201.061 25.2103 201.092 25.6 200.8L25 200ZM125 51H225V49H125V51ZM124.168 49.4453L24.1679 199.445L25.8321 200.555L125.832 50.5547L124.168 49.4453ZM224.4 49.2L24.4 199.2L25.6 200.8L225.6 50.8L224.4 49.2Z" fill="white"/>
</g>
<g id="white">
<path fill-rule="evenodd" clip-rule="evenodd" d="M325 150V100L25 200L325 150Z" fill="#FFFFFE" fill-opacity="0.5"/>
<path d="M325 100H326C326 99.6786 325.845 99.3767 325.585 99.1888C325.324 99.0008 324.989 98.9497 324.684 99.0513L325 100ZM325 150L325.164 150.986C325.647 150.906 326 150.489 326 150H325ZM25 200L24.6838 199.051C24.1886 199.216 23.9037 199.734 24.0295 200.241C24.1553 200.748 24.6496 201.072 25.1644 200.986L25 200ZM324 100V150H326V100H324ZM25.3162 200.949L325.316 100.949L324.684 99.0513L24.6838 199.051L25.3162 200.949ZM324.836 149.014L24.8356 199.014L25.1644 200.986L325.164 150.986L324.836 149.014Z" fill="white"/>
</g>
<g id="blue">
<path fill-rule="evenodd" clip-rule="evenodd" d="M25 50H125L25 200V50Z" fill="#253B6E" fill-opacity="0.5"/>
<path d="M25 50H125L25 200V50" stroke="white" stroke-width="2" stroke-linejoin="round"/>
</g>
<g id="green">
<path fill-rule="evenodd" clip-rule="evenodd" d="M25 200H325V150L25 200Z" fill="#14713C" fill-opacity="0.5"/>
<path d="M25 200H325V150L25 200" stroke="white" stroke-width="2" stroke-linejoin="round"/>
</g>
</g>
</g>
</svg>
