<svg width="350" height="250" viewBox="0 0 350 250" fill="none" xmlns="http://www.w3.org/2000/svg">
<g id="flag / asia / nepal / b">
<g id="nepal b">
<g id="blue">
<path fill-rule="evenodd" clip-rule="evenodd" d="M85 11V239H260.751L146.122 124.042H265L85 11ZM251.115 120.045H136.33L251.115 235.002H89.0044V18.2366L251.115 120.045Z" fill="white" fill-opacity="0.5"/>
<path d="M85 239H84V240H85V239ZM85 11L85.5318 10.1531L84 9.19114V11H85ZM260.751 239V240H263.16L261.459 238.294L260.751 239ZM146.122 124.042V123.042H143.713L145.414 124.748L146.122 124.042ZM265 124.042V125.042H268.473L265.532 123.195L265 124.042ZM136.33 120.045V119.045H133.918L135.622 120.751L136.33 120.045ZM251.115 120.045V121.045H254.587L251.647 119.198L251.115 120.045ZM251.115 235.002V236.002H253.526L251.822 234.296L251.115 235.002ZM89.0044 235.002H88.0044V236.002H89.0044V235.002ZM89.0044 18.2366L89.5362 17.3898L88.0044 16.4277V18.2366H89.0044ZM86 239V11H84V239H86ZM260.751 238H85V240H260.751V238ZM145.414 124.748L260.043 239.706L261.459 238.294L146.83 123.336L145.414 124.748ZM265 123.042H146.122V125.042H265V123.042ZM84.4682 11.8469L264.468 124.889L265.532 123.195L85.5318 10.1531L84.4682 11.8469ZM136.33 121.045H251.115V119.045H136.33V121.045ZM251.822 234.296L137.037 119.338L135.622 120.751L250.407 235.709L251.822 234.296ZM89.0044 236.002H251.115V234.002H89.0044V236.002ZM88.0044 18.2366V235.002H90.0044V18.2366H88.0044ZM251.647 119.198L89.5362 17.3898L88.4726 19.0834L250.583 120.891L251.647 119.198Z" fill="white"/>
</g>
<g id="red">
<path fill-rule="evenodd" clip-rule="evenodd" d="M136.33 120.045H251.115L89.0049 18.2366V235.002H251.115L136.33 120.045ZM161.82 81.8666C158.993 89.0811 153.868 95.0886 147.322 99.0093L144.557 96.9344L149.998 92.852L143.418 91.1696L143.416 91.1642L146.882 85.3088L140.157 86.2801L141.125 79.535L135.286 83.0109L135.281 83.0089L133.603 76.4102L129.532 81.8666L125.461 76.4102L123.784 83.0089L123.779 83.0109L117.939 79.535L118.908 86.2798L118.908 86.2801L112.182 85.3088L115.648 91.1643L115.646 91.1696L109.066 92.852L114.507 96.9344L111.741 99.0102C105.372 95.2011 100.167 89.3235 97.2447 81.8666C97.2447 99.7496 111.7 114.247 129.532 114.247C147.364 114.247 161.82 99.7496 161.82 81.8666ZM113.974 161.921L112.186 147.394L123.838 156.21L129.532 142.732L135.226 156.21L146.878 147.394L145.09 161.921L159.576 160.128L150.784 171.813L164.224 177.523L150.784 183.234L159.576 194.919L145.09 193.126L146.878 207.654L135.226 198.837L129.532 212.314L123.838 198.837L112.186 207.654L113.974 193.126L99.4881 194.919L108.28 183.234L94.8405 177.523L108.28 171.813L99.4881 160.128L113.974 161.921Z" fill="white" fill-opacity="0.5"/>
<path d="M251.115 120.045V121.045H254.588L251.647 119.198L251.115 120.045ZM136.33 120.045V119.045H133.919L135.623 120.751L136.33 120.045ZM89.0049 18.2366L89.5367 17.3897L88.0049 16.4277V18.2366H89.0049ZM89.0049 235.002H88.0049V236.002H89.0049V235.002ZM251.115 235.002V236.002H253.527L251.823 234.296L251.115 235.002ZM147.322 99.0093L146.722 99.8092L147.259 100.213L147.836 99.8672L147.322 99.0093ZM161.82 81.8666H162.82L160.889 81.5017L161.82 81.8666ZM144.557 96.9344L143.957 96.1345L142.891 96.9343L143.957 97.7342L144.557 96.9344ZM149.998 92.852L150.598 93.6518L152.267 92.3999L150.246 91.8831L149.998 92.852ZM143.418 91.1696L142.494 91.5515L142.685 92.0143L143.17 92.1384L143.418 91.1696ZM143.416 91.1642L142.555 90.6548L142.301 91.0845L142.492 91.5461L143.416 91.1642ZM146.882 85.3088L147.743 85.8182L148.807 84.0204L146.739 84.319L146.882 85.3088ZM140.157 86.2801L139.167 86.138L138.977 87.4609L140.3 87.2698L140.157 86.2801ZM141.125 79.535L142.115 79.6771L142.412 77.6048L140.614 78.6757L141.125 79.535ZM135.286 83.0109L134.902 83.934L135.366 84.1274L135.798 83.8702L135.286 83.0109ZM135.281 83.0089L134.312 83.2554L134.435 83.7398L134.897 83.932L135.281 83.0089ZM133.603 76.4102L134.572 76.1637L134.055 74.1315L132.801 75.8122L133.603 76.4102ZM129.532 81.8666L128.731 82.4646L129.533 83.5389L130.334 82.4645L129.532 81.8666ZM125.461 76.4102L126.263 75.8122L125.009 74.1315L124.492 76.1638L125.461 76.4102ZM123.784 83.0089L124.167 83.9324L124.63 83.7404L124.753 83.2553L123.784 83.0089ZM123.779 83.0109L123.267 83.8702L123.699 84.1269L124.162 83.9345L123.779 83.0109ZM117.939 79.535L118.451 78.6757L116.652 77.6048L116.949 79.6772L117.939 79.535ZM118.908 86.2798L119.618 86.9845L119.969 86.6309L119.898 86.1376L118.908 86.2798ZM118.908 86.2801L118.765 87.2699L119.263 87.3418L119.618 86.9848L118.908 86.2801ZM112.182 85.3088L112.325 84.319L110.258 84.0204L111.322 85.8182L112.182 85.3088ZM115.648 91.1643L116.573 91.5464L116.763 91.0848L116.509 90.6549L115.648 91.1643ZM115.646 91.1696L115.894 92.1384L116.379 92.0144L116.57 91.5517L115.646 91.1696ZM109.066 92.852L108.819 91.8831L106.798 92.3999L108.466 93.6518L109.066 92.852ZM114.507 96.9344L115.108 97.7342L116.173 96.9343L115.107 96.1345L114.507 96.9344ZM111.741 99.0102L111.228 99.8684L111.804 100.213L112.341 99.81L111.741 99.0102ZM97.2447 81.8666L98.1757 81.5017L96.2447 81.8666H97.2447ZM112.186 147.394L112.79 146.596L110.905 145.17L111.194 147.516L112.186 147.394ZM113.974 161.921L113.852 162.913L115.124 163.071L114.967 161.799L113.974 161.921ZM123.838 156.21L123.234 157.008L124.259 157.783L124.759 156.599L123.838 156.21ZM129.532 142.732L130.454 142.343L129.533 140.163L128.611 142.343L129.532 142.732ZM135.226 156.21L134.305 156.599L134.805 157.783L135.83 157.008L135.226 156.21ZM146.878 147.394L147.871 147.516L148.16 145.17L146.275 146.596L146.878 147.394ZM145.09 161.921L144.098 161.799L143.941 163.071L145.213 162.913L145.09 161.921ZM159.576 160.128L160.375 160.729L161.792 158.846L159.453 159.135L159.576 160.128ZM150.784 171.813L149.985 171.211L149.217 172.233L150.393 172.733L150.784 171.813ZM164.224 177.523L164.615 178.444L166.781 177.523L164.615 176.603L164.224 177.523ZM150.784 183.234L150.393 182.314L149.217 182.814L149.985 183.835L150.784 183.234ZM159.576 194.919L159.453 195.912L161.792 196.201L160.375 194.318L159.576 194.919ZM145.09 193.126L145.213 192.133L143.941 191.976L144.098 193.248L145.09 193.126ZM146.878 207.654L146.275 208.451L148.16 209.877L147.871 207.531L146.878 207.654ZM135.226 198.837L135.83 198.039L134.805 197.264L134.305 198.447L135.226 198.837ZM129.532 212.314L128.611 212.704L129.533 214.884L130.454 212.704L129.532 212.314ZM123.838 198.837L124.759 198.447L124.259 197.264L123.234 198.039L123.838 198.837ZM112.186 207.654L111.194 207.531L110.905 209.877L112.79 208.451L112.186 207.654ZM113.974 193.126L114.967 193.248L115.124 191.976L113.852 192.133L113.974 193.126ZM99.4881 194.919L98.689 194.318L97.2721 196.201L99.6109 195.912L99.4881 194.919ZM108.28 183.234L109.079 183.835L109.848 182.814L108.671 182.314L108.28 183.234ZM94.8405 177.523L94.4494 176.603L92.2835 177.523L94.4494 178.444L94.8405 177.523ZM108.28 171.813L108.671 172.733L109.848 172.233L109.079 171.211L108.28 171.813ZM99.4881 160.128L99.6109 159.135L97.2721 158.846L98.689 160.729L99.4881 160.128ZM251.115 119.045H136.33V121.045H251.115V119.045ZM88.473 19.0834L250.583 120.891L251.647 119.198L89.5367 17.3897L88.473 19.0834ZM90.0049 235.002V18.2366H88.0049V235.002H90.0049ZM251.115 234.002H89.0049V236.002H251.115V234.002ZM135.623 120.751L250.408 235.709L251.823 234.296L137.038 119.338L135.623 120.751ZM147.836 99.8672C154.57 95.8334 159.843 89.653 162.751 82.2314L160.889 81.5017C158.143 88.5092 153.165 94.3438 146.808 98.1515L147.836 99.8672ZM143.957 97.7342L146.722 99.8092L147.922 98.2095L145.157 96.1345L143.957 97.7342ZM149.398 92.0521L143.957 96.1345L145.157 97.7342L150.598 93.6518L149.398 92.0521ZM143.17 92.1384L149.75 93.8208L150.246 91.8831L143.666 90.2007L143.17 92.1384ZM142.492 91.5461L142.494 91.5515L144.342 90.7877L144.34 90.7822L142.492 91.5461ZM146.022 84.7994L142.555 90.6548L144.277 91.6736L147.743 85.8182L146.022 84.7994ZM140.3 87.2698L147.025 86.2985L146.739 84.319L140.014 85.2904L140.3 87.2698ZM140.135 79.3929L139.167 86.138L141.147 86.4222L142.115 79.6771L140.135 79.3929ZM135.798 83.8702L141.637 80.3942L140.614 78.6757L134.775 82.1517L135.798 83.8702ZM134.897 83.932L134.902 83.934L135.671 82.0878L135.666 82.0858L134.897 83.932ZM132.634 76.6567L134.312 83.2554L136.25 82.7624L134.572 76.1637L132.634 76.6567ZM130.334 82.4645L134.404 77.0081L132.801 75.8122L128.731 81.2686L130.334 82.4645ZM124.66 77.0082L128.731 82.4646L130.334 81.2686L126.263 75.8122L124.66 77.0082ZM124.753 83.2553L126.431 76.6566L124.492 76.1638L122.815 82.7624L124.753 83.2553ZM124.162 83.9345L124.167 83.9324L123.4 82.0853L123.395 82.0873L124.162 83.9345ZM117.428 80.3943L123.267 83.8702L124.29 82.1516L118.451 78.6757L117.428 80.3943ZM119.898 86.1376L118.929 79.3928L116.949 79.6772L117.918 86.422L119.898 86.1376ZM119.618 86.9848L119.618 86.9845L118.199 85.5752L118.198 85.5755L119.618 86.9848ZM112.039 86.2985L118.765 87.2699L119.051 85.2904L112.325 84.319L112.039 86.2985ZM116.509 90.6549L113.043 84.7994L111.322 85.8182L114.788 91.6737L116.509 90.6549ZM116.57 91.5517L116.573 91.5464L114.724 90.7821L114.722 90.7874L116.57 91.5517ZM109.314 93.8208L115.894 92.1384L115.399 90.2007L108.819 91.8831L109.314 93.8208ZM115.107 96.1345L109.667 92.0521L108.466 93.6518L113.907 97.7342L115.107 96.1345ZM112.341 99.81L115.108 97.7342L113.907 96.1345L111.141 98.2104L112.341 99.81ZM96.3136 82.2315C99.3196 89.9013 104.675 95.9494 111.228 99.8684L112.254 98.152C106.069 94.4527 101.015 88.7457 98.1757 81.5017L96.3136 82.2315ZM129.532 113.247C112.255 113.247 98.2447 99.2 98.2447 81.8666H96.2447C96.2447 100.299 111.146 115.247 129.532 115.247V113.247ZM160.82 81.8666C160.82 99.2 146.809 113.247 129.532 113.247V115.247C147.919 115.247 162.82 100.299 162.82 81.8666H160.82ZM111.194 147.516L112.982 162.043L114.967 161.799L113.179 147.272L111.194 147.516ZM124.441 155.413L112.79 146.596L111.583 148.191L123.234 157.008L124.441 155.413ZM128.611 142.343L122.917 155.821L124.759 156.599L130.454 143.122L128.611 142.343ZM136.148 155.821L130.454 142.343L128.611 143.122L134.305 156.599L136.148 155.821ZM146.275 146.596L134.623 155.413L135.83 157.008L147.482 148.191L146.275 146.596ZM146.083 162.043L147.871 147.516L145.886 147.272L144.098 161.799L146.083 162.043ZM159.453 159.135L144.968 160.929L145.213 162.913L159.699 161.12L159.453 159.135ZM151.584 172.414L160.375 160.729L158.777 159.526L149.985 171.211L151.584 172.414ZM164.615 176.603L151.176 170.892L150.393 172.733L163.833 178.444L164.615 176.603ZM151.176 184.155L164.615 178.444L163.833 176.603L150.393 182.314L151.176 184.155ZM160.375 194.318L151.584 182.633L149.985 183.835L158.777 195.52L160.375 194.318ZM144.968 194.118L159.453 195.912L159.699 193.927L145.213 192.133L144.968 194.118ZM147.871 207.531L146.083 193.004L144.098 193.248L145.886 207.776L147.871 207.531ZM134.623 199.634L146.275 208.451L147.482 206.856L135.83 198.039L134.623 199.634ZM130.454 212.704L136.148 199.226L134.305 198.447L128.611 211.925L130.454 212.704ZM122.917 199.226L128.611 212.704L130.454 211.925L124.759 198.447L122.917 199.226ZM112.79 208.451L124.441 199.634L123.234 198.039L111.583 206.856L112.79 208.451ZM112.982 193.004L111.194 207.531L113.179 207.776L114.967 193.248L112.982 193.004ZM99.6109 195.912L114.097 194.118L113.852 192.133L99.3652 193.927L99.6109 195.912ZM107.481 182.633L98.689 194.318L100.287 195.52L109.079 183.835L107.481 182.633ZM94.4494 178.444L107.889 184.155L108.671 182.314L95.2316 176.603L94.4494 178.444ZM107.889 170.892L94.4494 176.603L95.2316 178.444L108.671 172.733L107.889 170.892ZM98.689 160.729L107.481 172.414L109.079 171.211L100.287 159.526L98.689 160.729ZM114.097 160.929L99.6109 159.135L99.3652 161.12L113.852 162.913L114.097 160.929Z" fill="white"/>
</g>
<g id="white">
<path fill-rule="evenodd" clip-rule="evenodd" d="M133.602 76.4102L135.281 83.0089L135.285 83.0109L141.124 79.535L140.156 86.2801L140.156 86.2801L146.881 85.3088L143.415 91.1642L143.418 91.1696L149.997 92.852L144.556 96.9344L147.321 99.0093C153.867 95.0885 158.992 89.0811 161.819 81.8666C161.819 99.7496 147.364 114.247 129.532 114.247C111.7 114.247 97.244 99.7496 97.244 81.8666C100.167 89.3235 105.372 95.201 111.74 99.0102L114.507 96.9344L109.066 92.852L115.646 91.1695L115.648 91.1642L112.182 85.3088L118.907 86.2801L118.908 86.2798L117.939 79.535L123.778 83.0109L123.783 83.0088L125.461 76.4102L129.532 81.8666L133.602 76.4102ZM113.974 161.921L112.186 147.394L123.837 156.21L129.532 142.732L135.226 156.21L146.878 147.394L145.09 161.921L159.576 160.128L150.784 171.813L164.223 177.523L150.784 183.234L159.576 194.919L145.09 193.126L146.878 207.654L135.226 198.837L129.532 212.314L123.837 198.837L112.186 207.654L113.974 193.126L99.4874 194.919L108.279 183.234L94.8398 177.523L108.279 171.813L99.4874 160.128L113.974 161.921Z" fill="white" fill-opacity="0.5"/>
<path d="M135.281 83.0089L134.311 83.2554L134.435 83.7402L134.897 83.9323L135.281 83.0089ZM133.602 76.4102L134.571 76.1637L134.055 74.1315L132.801 75.8122L133.602 76.4102ZM135.285 83.0109L134.902 83.9343L135.365 84.1271L135.797 83.8702L135.285 83.0109ZM141.124 79.535L142.114 79.6771L142.412 77.6048L140.613 78.6757L141.124 79.535ZM140.156 86.2801L139.166 86.138L139.094 86.6439L139.461 86.9991L140.156 86.2801ZM140.156 86.2801L139.461 86.9991L139.814 87.34L140.299 87.2699L140.156 86.2801ZM146.881 85.3088L147.742 85.8181L148.806 84.0204L146.738 84.319L146.881 85.3088ZM143.415 91.1642L142.555 90.6548L142.3 91.0848L142.491 91.5465L143.415 91.1642ZM143.418 91.1696L142.494 91.5519L142.685 92.0144L143.17 92.1384L143.418 91.1696ZM149.997 92.852L150.597 93.6518L152.266 92.3999L150.245 91.8831L149.997 92.852ZM144.556 96.9344L143.956 96.1345L142.89 96.9343L143.956 97.7342L144.556 96.9344ZM147.321 99.0093L146.721 99.8092L147.259 100.213L147.835 99.8672L147.321 99.0093ZM161.819 81.8666H162.819L160.888 81.5017L161.819 81.8666ZM97.244 81.8666L98.1751 81.5017L96.244 81.8666H97.244ZM111.74 99.0102L111.227 99.8684L111.804 100.213L112.341 99.81L111.74 99.0102ZM114.507 96.9344L115.107 97.7342L116.173 96.9343L115.107 96.1345L114.507 96.9344ZM109.066 92.852L108.818 91.8831L106.797 92.3999L108.466 93.6518L109.066 92.852ZM115.646 91.1695L115.893 92.1384L116.378 92.0143L116.57 91.5516L115.646 91.1695ZM115.648 91.1642L116.572 91.5464L116.763 91.0847L116.508 90.6549L115.648 91.1642ZM112.182 85.3088L112.325 84.319L110.257 84.0204L111.321 85.8181L112.182 85.3088ZM118.907 86.2801L118.764 87.2698L119.26 87.3414L119.614 86.9872L118.907 86.2801ZM118.908 86.2798L119.615 86.9869L119.969 86.633L119.897 86.1376L118.908 86.2798ZM117.939 79.535L118.45 78.6757L116.651 77.6048L116.949 79.6772L117.939 79.535ZM123.778 83.0109L123.267 83.8702L123.698 84.1271L124.162 83.9342L123.778 83.0109ZM123.783 83.0088L124.167 83.9322L124.629 83.7401L124.752 83.2552L123.783 83.0088ZM125.461 76.4102L126.262 75.8122L125.008 74.1315L124.492 76.1637L125.461 76.4102ZM129.532 81.8666L128.73 82.4646L129.532 83.5389L130.333 82.4645L129.532 81.8666ZM112.186 147.394L112.789 146.596L110.905 145.17L111.193 147.516L112.186 147.394ZM113.974 161.921L113.851 162.913L115.123 163.071L114.966 161.799L113.974 161.921ZM123.837 156.21L123.234 157.008L124.258 157.783L124.758 156.599L123.837 156.21ZM129.532 142.732L130.453 142.343L129.532 140.163L128.611 142.343L129.532 142.732ZM135.226 156.21L134.305 156.599L134.805 157.783L135.829 157.008L135.226 156.21ZM146.878 147.394L147.87 147.516L148.159 145.17L146.274 146.596L146.878 147.394ZM145.09 161.921L144.097 161.799L143.941 163.071L145.213 162.913L145.09 161.921ZM159.576 160.128L160.375 160.729L161.792 158.846L159.453 159.135L159.576 160.128ZM150.784 171.813L149.985 171.211L149.216 172.233L150.393 172.733L150.784 171.813ZM164.223 177.523L164.614 178.444L166.78 177.523L164.614 176.603L164.223 177.523ZM150.784 183.234L150.393 182.314L149.216 182.814L149.985 183.835L150.784 183.234ZM159.576 194.919L159.453 195.912L161.792 196.201L160.375 194.318L159.576 194.919ZM145.09 193.126L145.213 192.133L143.941 191.976L144.097 193.248L145.09 193.126ZM146.878 207.654L146.274 208.451L148.159 209.877L147.87 207.531L146.878 207.654ZM135.226 198.837L135.829 198.039L134.805 197.264L134.305 198.447L135.226 198.837ZM129.532 212.314L128.611 212.704L129.532 214.884L130.453 212.704L129.532 212.314ZM123.837 198.837L124.758 198.447L124.258 197.264L123.234 198.039L123.837 198.837ZM112.186 207.654L111.193 207.531L110.905 209.877L112.789 208.451L112.186 207.654ZM113.974 193.126L114.966 193.248L115.123 191.976L113.851 192.133L113.974 193.126ZM99.4874 194.919L98.6884 194.318L97.2714 196.201L99.6103 195.912L99.4874 194.919ZM108.279 183.234L109.078 183.835L109.847 182.814L108.67 182.314L108.279 183.234ZM94.8398 177.523L94.4488 176.603L92.2829 177.523L94.4488 178.444L94.8398 177.523ZM108.279 171.813L108.67 172.733L109.847 172.233L109.078 171.211L108.279 171.813ZM99.4874 160.128L99.6103 159.135L97.2714 158.846L98.6884 160.729L99.4874 160.128ZM136.25 82.7624L134.571 76.1637L132.633 76.6566L134.311 83.2554L136.25 82.7624ZM135.669 82.0875L135.664 82.0855L134.897 83.9323L134.902 83.9343L135.669 82.0875ZM140.613 78.6757L134.774 82.1516L135.797 83.8702L141.636 80.3942L140.613 78.6757ZM141.146 86.4222L142.114 79.6771L140.135 79.3928L139.166 86.138L141.146 86.4222ZM140.851 85.5612L140.851 85.5611L139.461 86.9991L139.461 86.9991L140.851 85.5612ZM146.738 84.319L140.013 85.2904L140.299 87.2699L147.024 86.2985L146.738 84.319ZM144.276 91.6736L147.742 85.8181L146.021 84.7994L142.555 90.6548L144.276 91.6736ZM144.342 90.7872L144.339 90.7818L142.491 91.5465L142.494 91.5519L144.342 90.7872ZM150.245 91.8831L143.665 90.2007L143.17 92.1384L149.75 93.8208L150.245 91.8831ZM145.157 97.7342L150.597 93.6518L149.397 92.0521L143.956 96.1345L145.157 97.7342ZM147.922 98.2095L145.157 96.1345L143.956 97.7342L146.721 99.8092L147.922 98.2095ZM160.888 81.5017C158.142 88.5092 153.164 94.3437 146.808 98.1515L147.835 99.8672C154.57 95.8333 159.842 89.653 162.75 82.2314L160.888 81.5017ZM129.532 115.247C147.919 115.247 162.819 100.299 162.819 81.8666H160.819C160.819 99.2 146.809 113.247 129.532 113.247V115.247ZM96.244 81.8666C96.244 100.299 111.145 115.247 129.532 115.247V113.247C112.255 113.247 98.244 99.2 98.244 81.8666H96.244ZM112.254 98.152C106.069 94.4527 101.014 88.7457 98.1751 81.5017L96.313 82.2314C99.3189 89.9013 104.675 95.9494 111.227 99.8684L112.254 98.152ZM113.906 96.1345L111.14 98.2104L112.341 99.81L115.107 97.7342L113.906 96.1345ZM108.466 93.6518L113.906 97.7342L115.107 96.1345L109.666 92.0521L108.466 93.6518ZM115.398 90.2007L108.818 91.8831L109.314 93.8208L115.893 92.1384L115.398 90.2007ZM114.724 90.7821L114.722 90.7874L116.57 91.5516L116.572 91.5464L114.724 90.7821ZM111.321 85.8181L114.787 91.6736L116.508 90.6549L113.042 84.7994L111.321 85.8181ZM119.05 85.2904L112.325 84.319L112.039 86.2985L118.764 87.2698L119.05 85.2904ZM118.2 85.5727L118.2 85.573L119.614 86.9872L119.615 86.9869L118.2 85.5727ZM116.949 79.6772L117.918 86.422L119.897 86.1376L118.928 79.3928L116.949 79.6772ZM124.29 82.1516L118.45 78.6757L117.427 80.3942L123.267 83.8702L124.29 82.1516ZM123.399 82.0855L123.394 82.0875L124.162 83.9342L124.167 83.9322L123.399 82.0855ZM124.492 76.1637L122.814 82.7624L124.752 83.2552L126.43 76.6566L124.492 76.1637ZM130.333 81.2686L126.262 75.8122L124.659 77.0082L128.73 82.4646L130.333 81.2686ZM132.801 75.8122L128.73 81.2686L130.333 82.4645L134.404 77.0081L132.801 75.8122ZM111.193 147.516L112.981 162.043L114.966 161.799L113.178 147.272L111.193 147.516ZM124.441 155.413L112.789 146.596L111.582 148.191L123.234 157.008L124.441 155.413ZM128.611 142.343L122.916 155.821L124.758 156.599L130.453 143.122L128.611 142.343ZM136.147 155.821L130.453 142.343L128.611 143.122L134.305 156.599L136.147 155.821ZM146.274 146.596L134.622 155.413L135.829 157.008L147.481 148.191L146.274 146.596ZM146.082 162.043L147.87 147.516L145.885 147.272L144.097 161.799L146.082 162.043ZM159.453 159.135L144.967 160.929L145.213 162.913L159.699 161.12L159.453 159.135ZM151.583 172.414L160.375 160.729L158.777 159.526L149.985 171.211L151.583 172.414ZM164.614 176.603L151.175 170.892L150.393 172.733L163.832 178.444L164.614 176.603ZM151.175 184.155L164.614 178.444L163.832 176.603L150.393 182.314L151.175 184.155ZM160.375 194.318L151.583 182.633L149.985 183.835L158.777 195.52L160.375 194.318ZM144.967 194.118L159.453 195.912L159.699 193.927L145.213 192.133L144.967 194.118ZM147.87 207.531L146.082 193.004L144.097 193.248L145.885 207.776L147.87 207.531ZM134.622 199.634L146.274 208.451L147.481 206.856L135.829 198.039L134.622 199.634ZM130.453 212.704L136.147 199.226L134.305 198.447L128.611 211.925L130.453 212.704ZM122.916 199.226L128.611 212.704L130.453 211.925L124.758 198.447L122.916 199.226ZM112.789 208.451L124.441 199.634L123.234 198.039L111.582 206.856L112.789 208.451ZM112.981 193.004L111.193 207.531L113.178 207.776L114.966 193.248L112.981 193.004ZM99.6103 195.912L114.097 194.118L113.851 192.133L99.3646 193.927L99.6103 195.912ZM107.48 182.633L98.6884 194.318L100.287 195.52L109.078 183.835L107.48 182.633ZM94.4488 178.444L107.888 184.155L108.67 182.314L95.2309 176.603L94.4488 178.444ZM107.888 170.892L94.4488 176.603L95.2309 178.444L108.67 172.733L107.888 170.892ZM98.6884 160.729L107.48 172.414L109.078 171.211L100.287 159.526L98.6884 160.729ZM114.097 160.929L99.6103 159.135L99.3646 161.12L113.851 162.913L114.097 160.929Z" fill="white"/>
</g>
</g>
</g>
</svg>
