<svg width="350" height="250" viewBox="0 0 350 250" fill="none" xmlns="http://www.w3.org/2000/svg">
<g id="flag / north america / cuba / b">
<g id="cuba b">
<g id="blue">
<path fill-rule="evenodd" clip-rule="evenodd" d="M325 199.94H25.1039L76.9608 170H325V199.94ZM76.9608 80L25 50H325V80H76.9608ZM128.922 110H325V140H128.922L154.902 125L128.922 110Z" fill="white" fill-opacity="0.5"/>
<path d="M25.1039 199.94L24.6039 199.074L21.3719 200.94H25.1039V199.94ZM325 199.94V200.94H326V199.94H325ZM76.9608 170V169H76.6928L76.4608 169.134L76.9608 170ZM325 170H326V169H325V170ZM76.9608 80L76.4608 80.866L76.6928 81H76.9608V80ZM25 50V49H21.268L24.5 50.866L25 50ZM325 50H326V49H325V50ZM325 80V81H326V80H325ZM128.922 110V109H125.19L128.422 110.866L128.922 110ZM325 110H326V109H325V110ZM325 140V141H326V140H325ZM128.922 140L128.422 139.134L125.19 141H128.922V140ZM154.902 125L155.402 125.866L156.902 125L155.402 124.134L154.902 125ZM25.1039 200.94H325V198.94H25.1039V200.94ZM25.6039 200.806L77.4608 170.866L76.4608 169.134L24.6039 199.074L25.6039 200.806ZM325 169H76.9608V171H325V169ZM326 199.94V170H324V199.94H326ZM77.4608 79.134L25.5 49.134L24.5 50.866L76.4608 80.866L77.4608 79.134ZM325 49H25V51H325V49ZM326 80V50H324V80H326ZM76.9608 81H325V79H76.9608V81ZM128.922 111H325V109H128.922V111ZM324 110V140H326V110H324ZM325 139H128.922V141H325V139ZM129.422 140.866L155.402 125.866L154.402 124.134L128.422 139.134L129.422 140.866ZM155.402 124.134L129.422 109.134L128.422 110.866L154.402 125.866L155.402 124.134Z" fill="white"/>
</g>
<g id="white">
<path fill-rule="evenodd" clip-rule="evenodd" d="M76.9607 80L128.921 110H325V80H76.9607ZM128.921 140L76.9607 170H325V140H128.921ZM63.2499 118.051L68.3009 102.5L73.3519 118.051H89.6989L76.4799 127.66L81.5309 143.199L68.3009 133.59L55.0699 143.199L60.1209 127.66L46.9019 118.051H63.2499Z" fill="white" fill-opacity="0.5"/>
<path d="M128.921 110L128.421 110.866L128.653 111H128.921V110ZM76.9607 80V79H73.2286L76.4606 80.866L76.9607 80ZM325 110V111H326V110H325ZM325 80H326V79H325V80ZM76.9607 170L76.4606 169.134L73.2286 171H76.9607V170ZM128.921 140V139H128.653L128.421 139.134L128.921 140ZM325 170V171H326V170H325ZM325 140H326V139H325V140ZM68.3009 102.5L69.2519 102.191L68.3009 99.2629L67.3498 102.191L68.3009 102.5ZM63.2499 118.051V119.051H63.9765L64.2009 118.36L63.2499 118.051ZM73.3519 118.051L72.4008 118.36L72.6252 119.051H73.3519V118.051ZM89.6989 118.051L90.2868 118.86L92.7753 117.051H89.6989V118.051ZM76.4799 127.66L75.8919 126.851L75.3043 127.278L75.5288 127.969L76.4799 127.66ZM81.5309 143.199L80.9432 144.008L83.4332 145.817L82.4819 142.89L81.5309 143.199ZM68.3009 133.59L68.8885 132.781L68.3009 132.354L67.7132 132.781L68.3009 133.59ZM55.0699 143.199L54.1188 142.89L53.1675 145.816L55.6575 144.008L55.0699 143.199ZM60.1209 127.66L61.0719 127.969L61.2964 127.278L60.7088 126.851L60.1209 127.66ZM46.9019 118.051V117.051H43.8254L46.3139 118.86L46.9019 118.051ZM129.421 109.134L77.4607 79.134L76.4606 80.866L128.421 110.866L129.421 109.134ZM325 109H128.921V111H325V109ZM324 80V110H326V80H324ZM76.9607 81H325V79H76.9607V81ZM77.4607 170.866L129.421 140.866L128.421 139.134L76.4606 169.134L77.4607 170.866ZM325 169H76.9607V171H325V169ZM324 140V170H326V140H324ZM128.921 141H325V139H128.921V141ZM67.3498 102.191L62.2988 117.742L64.2009 118.36L69.2519 102.809L67.3498 102.191ZM74.3029 117.742L69.2519 102.191L67.3498 102.809L72.4008 118.36L74.3029 117.742ZM89.6989 117.051H73.3519V119.051H89.6989V117.051ZM77.0678 128.469L90.2868 118.86L89.1109 117.242L75.8919 126.851L77.0678 128.469ZM82.4819 142.89L77.4309 127.351L75.5288 127.969L80.5798 143.508L82.4819 142.89ZM67.7132 134.399L80.9432 144.008L82.1185 142.39L68.8885 132.781L67.7132 134.399ZM55.6575 144.008L68.8885 134.399L67.7132 132.781L54.4822 142.39L55.6575 144.008ZM59.1698 127.351L54.1188 142.89L56.0209 143.508L61.0719 127.969L59.1698 127.351ZM46.3139 118.86L59.5329 128.469L60.7088 126.851L47.4898 117.242L46.3139 118.86ZM63.2499 117.051H46.9019V119.051H63.2499V117.051Z" fill="white"/>
</g>
<g id="red">
<path fill-rule="evenodd" clip-rule="evenodd" d="M154.902 125L25 200V50L154.902 125ZM63.25 118.051L68.301 102.5L73.352 118.051H89.699L76.48 127.66L81.531 143.199L68.301 133.59L55.07 143.199L60.121 127.66L46.902 118.051H63.25Z" fill="white" fill-opacity="0.5"/>
<path d="M25 200H24V201.732L25.5 200.866L25 200ZM154.902 125L155.402 125.866L156.902 125L155.402 124.134L154.902 125ZM25 50L25.5 49.134L24 48.2679V50H25ZM68.301 102.5L69.2521 102.191L68.301 99.2629L67.3499 102.191L68.301 102.5ZM63.25 118.051V119.051H63.9766L64.2011 118.36L63.25 118.051ZM73.352 118.051L72.4009 118.36L72.6254 119.051H73.352V118.051ZM89.699 118.051L90.287 118.86L92.7754 117.051H89.699V118.051ZM76.48 127.66L75.892 126.851L75.3044 127.278L75.529 127.969L76.48 127.66ZM81.531 143.199L80.9433 144.008L83.4334 145.817L82.482 142.89L81.531 143.199ZM68.301 133.59L68.8887 132.781L68.301 132.354L67.7134 132.781L68.301 133.59ZM55.07 143.199L54.119 142.89L53.1677 145.816L55.6576 144.008L55.07 143.199ZM60.121 127.66L61.072 127.969L61.2966 127.278L60.709 126.851L60.121 127.66ZM46.902 118.051V117.051H43.8256L46.314 118.86L46.902 118.051ZM25.5 200.866L155.402 125.866L154.402 124.134L24.5 199.134L25.5 200.866ZM24 50V200H26V50H24ZM155.402 124.134L25.5 49.134L24.5 50.866L154.402 125.866L155.402 124.134ZM67.3499 102.191L62.2989 117.742L64.2011 118.36L69.2521 102.809L67.3499 102.191ZM74.3031 117.742L69.2521 102.191L67.3499 102.809L72.4009 118.36L74.3031 117.742ZM89.699 117.051H73.352V119.051H89.699V117.051ZM77.068 128.469L90.287 118.86L89.111 117.242L75.892 126.851L77.068 128.469ZM82.482 142.89L77.431 127.351L75.529 127.969L80.58 143.508L82.482 142.89ZM67.7133 134.399L80.9433 144.008L82.1187 142.39L68.8887 132.781L67.7133 134.399ZM55.6576 144.008L68.8886 134.399L67.7134 132.781L54.4824 142.39L55.6576 144.008ZM59.17 127.351L54.119 142.89L56.021 143.508L61.072 127.969L59.17 127.351ZM46.314 118.86L59.533 128.469L60.709 126.851L47.49 117.242L46.314 118.86ZM63.25 117.051H46.902V119.051H63.25V117.051Z" fill="white"/>
</g>
</g>
</g>
</svg>
