<svg width="350" height="250" viewBox="0 0 350 250" fill="none" xmlns="http://www.w3.org/2000/svg">
<g id="flag / asia / singapore / b">
<g id="singapore b">
<g id="red">
<path fill-rule="evenodd" clip-rule="evenodd" d="M325 125H25V25H325V125ZM90.29 112.604C94.6396 112.604 98.8167 111.866 102.703 110.507C83.758 109.736 68.636 94.1342 68.636 75C68.636 55.8658 83.758 40.2643 102.703 39.4929C98.8166 38.1345 94.6396 37.396 90.29 37.396C69.522 37.396 52.686 54.232 52.686 75C52.686 95.768 69.522 112.604 90.29 112.604ZM89.836 71.988L94.944 75.907L92.976 69.589L98.099 65.692L91.776 65.708L89.834 59.38L87.894 65.708L81.57 65.695L86.695 69.59L84.729 75.909L89.836 71.988ZM135.027 75.907L129.918 71.988L124.811 75.909L126.777 69.59L121.653 65.695L127.976 65.708L129.916 59.38L131.858 65.708L138.182 65.692L133.058 69.589L135.027 75.907ZM109.897 57.113L115.006 61.031L113.037 54.713L118.161 50.816L111.837 50.832L109.895 44.504L107.955 50.832L101.632 50.819L106.756 54.714L104.79 61.033L109.897 57.113ZM102.444 99.709L97.336 95.79L92.229 99.711L94.195 93.392L89.07 89.497L95.394 89.51L97.334 83.182L99.276 89.51L105.599 89.494L100.476 93.391L102.444 99.709ZM122.418 95.79L127.527 99.709L125.558 93.391L130.682 89.494L124.358 89.51L122.416 83.182L120.476 89.51L114.153 89.497L119.277 93.392L117.311 99.711L122.418 95.79Z" fill="#D92D3A" fill-opacity="1"/>
<path d="M25 125H24V126H25V125ZM325 125V126H326V125H325ZM25 25V24H24V25H25ZM325 25H326V24H325V25ZM102.703 110.507L103.033 111.451L102.743 109.508L102.703 110.507ZM102.703 39.4929L102.743 40.4921L103.033 38.5489L102.703 39.4929ZM94.944 75.907L94.3353 76.7004L96.8362 78.6192L95.8988 75.6096L94.944 75.907ZM89.836 71.988L90.4447 71.1946L89.8358 70.7274L89.227 71.1948L89.836 71.988ZM92.976 69.589L92.3706 68.7931L91.8128 69.2174L92.0212 69.8864L92.976 69.589ZM98.099 65.692L98.7044 66.4879L101.075 64.6845L98.0965 64.692L98.099 65.692ZM91.776 65.708L90.82 66.0014L91.0374 66.7099L91.7785 66.708L91.776 65.708ZM89.834 59.38L90.79 59.0866L89.8335 55.9699L88.8779 59.0869L89.834 59.38ZM87.894 65.708L87.8919 66.708L88.6329 66.7095L88.8501 66.0011L87.894 65.708ZM81.57 65.695L81.5721 64.695L78.5935 64.6889L80.9649 66.4912L81.57 65.695ZM86.695 69.59L87.6499 69.8871L87.8581 69.2179L87.3001 68.7938L86.695 69.59ZM84.729 75.909L83.7741 75.6119L82.8377 78.6218L85.338 76.7022L84.729 75.909ZM129.918 71.988L130.527 71.1945L129.918 70.7275L129.309 71.1948L129.918 71.988ZM135.027 75.907L134.418 76.7005L136.92 78.6192L135.982 75.6095L135.027 75.907ZM124.811 75.909L123.856 75.6119L122.92 78.6218L125.42 76.7022L124.811 75.909ZM126.777 69.59L127.732 69.8871L127.94 69.218L127.382 68.7939L126.777 69.59ZM121.653 65.695L121.655 64.695L118.677 64.6889L121.048 66.4911L121.653 65.695ZM127.976 65.708L127.974 66.708L128.715 66.7095L128.932 66.0011L127.976 65.708ZM129.916 59.38L130.872 59.0866L129.916 55.9699L128.96 59.0869L129.916 59.38ZM131.858 65.708L130.902 66.0014L131.119 66.7099L131.861 66.708L131.858 65.708ZM138.182 65.692L138.787 66.488L141.159 64.6845L138.179 64.692L138.182 65.692ZM133.058 69.589L132.453 68.793L131.895 69.2174L132.103 69.8865L133.058 69.589ZM115.006 61.031L114.397 61.8245L116.898 63.7425L115.961 60.7335L115.006 61.031ZM109.897 57.113L110.506 56.3195L109.897 55.8526L109.288 56.3197L109.897 57.113ZM113.037 54.713L112.432 53.917L111.874 54.3414L112.082 55.0105L113.037 54.713ZM118.161 50.816L118.766 51.612L121.138 49.8085L118.158 49.816L118.161 50.816ZM111.837 50.832L110.881 51.1254L111.098 51.8339L111.84 51.832L111.837 50.832ZM109.895 44.504L110.851 44.2106L109.895 41.0939L108.939 44.2109L109.895 44.504ZM107.955 50.832L107.953 51.832L108.694 51.8335L108.911 51.1251L107.955 50.832ZM101.632 50.819L101.634 49.819L98.656 49.8129L101.027 51.6151L101.632 50.819ZM106.756 54.714L107.711 55.0111L107.919 54.342L107.361 53.9179L106.756 54.714ZM104.79 61.033L103.835 60.7359L102.899 63.7452L105.399 61.8263L104.79 61.033ZM97.336 95.79L97.9447 94.9966L97.3358 94.5294L96.727 94.9968L97.336 95.79ZM102.444 99.709L101.835 100.502L104.336 102.421L103.399 99.4116L102.444 99.709ZM92.229 99.711L91.2741 99.4139L90.3377 102.424L92.838 100.504L92.229 99.711ZM94.195 93.392L95.1498 93.6891L95.3581 93.0199L94.8001 92.5958L94.195 93.392ZM89.07 89.497L89.0721 88.497L86.0935 88.4909L88.4649 90.2932L89.07 89.497ZM95.394 89.51L95.3919 90.51L96.1329 90.5115L96.3501 89.8031L95.394 89.51ZM97.334 83.182L98.29 82.8886L97.3335 79.7719L96.3779 82.8889L97.334 83.182ZM99.276 89.51L98.32 89.8034L98.5374 90.5119L99.2785 90.51L99.276 89.51ZM105.599 89.494L106.204 90.2899L108.575 88.4865L105.596 88.494L105.599 89.494ZM100.476 93.391L99.8706 92.5951L99.3128 93.0194L99.5212 93.6884L100.476 93.391ZM127.527 99.709L126.918 100.502L129.42 102.421L128.482 99.4115L127.527 99.709ZM122.418 95.79L123.027 94.9966L122.418 94.5295L121.809 94.9968L122.418 95.79ZM125.558 93.391L124.953 92.595L124.395 93.0194L124.603 93.6885L125.558 93.391ZM130.682 89.494L131.287 90.2899L133.659 88.4865L130.679 88.494L130.682 89.494ZM124.358 89.51L123.402 89.8034L123.619 90.5119L124.361 90.51L124.358 89.51ZM122.416 83.182L123.372 82.8886L122.416 79.7719L121.46 82.8889L122.416 83.182ZM120.476 89.51L120.474 90.51L121.215 90.5115L121.432 89.8031L120.476 89.51ZM114.153 89.497L114.155 88.497L111.177 88.4909L113.548 90.2931L114.153 89.497ZM119.277 93.392L120.232 93.6891L120.44 93.02L119.882 92.5959L119.277 93.392ZM117.311 99.711L116.356 99.4139L115.42 102.424L117.92 100.504L117.311 99.711ZM25 126H325V124H25V126ZM24 25V125H26V25H24ZM325 24H25V26H325V24ZM326 125V25H324V125H326ZM102.373 109.563C98.5913 110.885 94.5257 111.604 90.29 111.604V113.604C94.7534 113.604 99.042 112.846 103.033 111.451L102.373 109.563ZM67.636 75C67.636 94.6729 83.1835 110.713 102.662 111.506L102.743 109.508C84.3325 108.758 69.636 93.5955 69.636 75H67.636ZM102.662 38.4937C83.1835 39.2869 67.636 55.3271 67.636 75H69.636C69.636 56.4045 84.3324 41.2418 102.743 40.4921L102.662 38.4937ZM90.29 38.396C94.5257 38.396 98.5913 39.115 102.373 40.4369L103.033 38.5489C99.042 37.1539 94.7534 36.396 90.29 36.396V38.396ZM53.686 75C53.686 54.7843 70.0743 38.396 90.29 38.396V36.396C68.9697 36.396 51.686 53.6797 51.686 75H53.686ZM90.29 111.604C70.0743 111.604 53.686 95.2157 53.686 75H51.686C51.686 96.3203 68.9697 113.604 90.29 113.604V111.604ZM95.5527 75.1136L90.4447 71.1946L89.2273 72.7814L94.3353 76.7004L95.5527 75.1136ZM92.0212 69.8864L93.9893 76.2044L95.8988 75.6096L93.9307 69.2916L92.0212 69.8864ZM97.4936 64.8961L92.3706 68.7931L93.5814 70.3849L98.7044 66.4879L97.4936 64.8961ZM91.7785 66.708L98.1015 66.692L98.0965 64.692L91.7735 64.708L91.7785 66.708ZM88.878 59.6734L90.82 66.0014L92.732 65.4146L90.79 59.0866L88.878 59.6734ZM88.8501 66.0011L90.7901 59.6731L88.8779 59.0869L86.9379 65.4149L88.8501 66.0011ZM81.5679 66.695L87.8919 66.708L87.8961 64.708L81.5721 64.695L81.5679 66.695ZM87.3001 68.7938L82.1751 64.8988L80.9649 66.4912L86.0899 70.3862L87.3001 68.7938ZM85.6839 76.2061L87.6499 69.8871L85.7401 69.2929L83.7741 75.6119L85.6839 76.2061ZM89.227 71.1948L84.12 75.1158L85.338 76.7022L90.445 72.7812L89.227 71.1948ZM129.309 72.7814L134.418 76.7005L135.636 75.1136L130.527 71.1945L129.309 72.7814ZM125.42 76.7022L130.527 72.7812L129.309 71.1948L124.202 75.1158L125.42 76.7022ZM125.822 69.2929L123.856 75.6119L125.766 76.2061L127.732 69.8871L125.822 69.2929ZM121.048 66.4911L126.172 70.3861L127.382 68.7939L122.258 64.8989L121.048 66.4911ZM127.978 64.708L121.655 64.695L121.651 66.695L127.974 66.708L127.978 64.708ZM128.96 59.0869L127.02 65.4149L128.932 66.0011L130.872 59.6731L128.96 59.0869ZM132.814 65.4146L130.872 59.0866L128.96 59.6734L130.902 66.0014L132.814 65.4146ZM138.179 64.692L131.855 64.708L131.861 66.708L138.185 66.692L138.179 64.692ZM133.663 70.385L138.787 66.488L137.577 64.896L132.453 68.793L133.663 70.385ZM135.982 75.6095L134.013 69.2915L132.103 69.8865L134.072 76.2045L135.982 75.6095ZM115.615 60.2375L110.506 56.3195L109.288 57.9065L114.397 61.8245L115.615 60.2375ZM112.082 55.0105L114.051 61.3285L115.961 60.7335L113.992 54.4155L112.082 55.0105ZM117.556 50.02L112.432 53.917L113.642 55.509L118.766 51.612L117.556 50.02ZM111.84 51.832L118.164 51.816L118.158 49.816L111.834 49.832L111.84 51.832ZM108.939 44.7974L110.881 51.1254L112.793 50.5386L110.851 44.2106L108.939 44.7974ZM108.911 51.1251L110.851 44.7971L108.939 44.2109L106.999 50.5389L108.911 51.1251ZM101.63 51.819L107.953 51.832L107.957 49.832L101.634 49.819L101.63 51.819ZM107.361 53.9179L102.237 50.0229L101.027 51.6151L106.151 55.5101L107.361 53.9179ZM105.745 61.3301L107.711 55.0111L105.801 54.4169L103.835 60.7359L105.745 61.3301ZM109.288 56.3197L104.181 60.2397L105.399 61.8263L110.506 57.9063L109.288 56.3197ZM96.7273 96.5834L101.835 100.502L103.053 98.9156L97.9447 94.9966L96.7273 96.5834ZM92.838 100.504L97.945 96.5832L96.727 94.9968L91.62 98.9178L92.838 100.504ZM93.2402 93.0949L91.2741 99.4139L93.1838 100.008L95.1498 93.6891L93.2402 93.0949ZM88.4649 90.2932L93.5899 94.1882L94.8001 92.5958L89.6751 88.7008L88.4649 90.2932ZM95.396 88.51L89.0721 88.497L89.0679 90.497L95.3919 90.51L95.396 88.51ZM96.3779 82.8889L94.4379 89.2169L96.3501 89.8031L98.2901 83.4751L96.3779 82.8889ZM100.232 89.2166L98.29 82.8886L96.378 83.4754L98.32 89.8034L100.232 89.2166ZM105.596 88.494L99.2735 88.51L99.2785 90.51L105.602 90.494L105.596 88.494ZM101.081 94.1869L106.204 90.2899L104.994 88.6981L99.8706 92.5951L101.081 94.1869ZM103.399 99.4116L101.431 93.0936L99.5212 93.6884L101.489 100.006L103.399 99.4116ZM128.136 98.9156L123.027 94.9966L121.809 96.5835L126.918 100.502L128.136 98.9156ZM124.603 93.6885L126.572 100.007L128.482 99.4115L126.513 93.0935L124.603 93.6885ZM130.077 88.698L124.953 92.595L126.163 94.187L131.287 90.2899L130.077 88.698ZM124.361 90.51L130.685 90.494L130.679 88.494L124.355 88.51L124.361 90.51ZM121.46 83.4754L123.402 89.8034L125.314 89.2166L123.372 82.8886L121.46 83.4754ZM121.432 89.8031L123.372 83.4751L121.46 82.8889L119.52 89.2169L121.432 89.8031ZM114.151 90.497L120.474 90.51L120.478 88.51L114.155 88.497L114.151 90.497ZM119.882 92.5959L114.758 88.7009L113.548 90.2931L118.672 94.1881L119.882 92.5959ZM118.266 100.008L120.232 93.6891L118.322 93.0949L116.356 99.4139L118.266 100.008ZM121.809 94.9968L116.702 98.9178L117.92 100.504L123.027 96.5832L121.809 94.9968Z" fill="white"/>
</g>
<g id="white">
<path fill-rule="evenodd" clip-rule="evenodd" d="M90.29 112.604C94.6396 112.604 98.8167 111.866 102.703 110.507C83.758 109.736 68.636 94.1342 68.636 75C68.636 55.8658 83.758 40.2643 102.703 39.4929C98.8166 38.1345 94.6396 37.396 90.29 37.396C69.522 37.396 52.686 54.232 52.686 75C52.686 95.768 69.522 112.604 90.29 112.604ZM325 225H25V125H325V225ZM89.836 71.988L94.944 75.907L92.976 69.589L98.099 65.692L91.776 65.708L89.834 59.38L87.894 65.708L81.57 65.695L86.695 69.59L84.729 75.909L89.836 71.988ZM135.027 75.907L129.918 71.988L124.811 75.909L126.777 69.59L121.653 65.695L127.976 65.708L129.916 59.38L131.858 65.708L138.182 65.692L133.058 69.589L135.027 75.907ZM109.897 57.113L115.006 61.031L113.037 54.713L118.161 50.816L111.837 50.832L109.895 44.504L107.955 50.832L101.632 50.819L106.756 54.714L104.79 61.033L109.897 57.113ZM102.444 99.709L97.336 95.79L92.229 99.711L94.195 93.392L89.07 89.497L95.394 89.51L97.334 83.182L99.276 89.51L105.599 89.494L100.476 93.391L102.444 99.709ZM122.418 95.79L127.527 99.709L125.558 93.391L130.682 89.494L124.358 89.51L122.416 83.182L120.476 89.51L114.153 89.497L119.277 93.392L117.311 99.711L122.418 95.79Z" fill="#FFFFFE" fill-opacity="1"/>
<path d="M102.703 110.507L103.033 111.451L102.743 109.508L102.703 110.507ZM102.703 39.4929L102.743 40.4921L103.033 38.5489L102.703 39.4929ZM25 225H24V226H25V225ZM325 225V226H326V225H325ZM25 125V124H24V125H25ZM325 125H326V124H325V125ZM94.944 75.907L94.3353 76.7004L96.8362 78.6192L95.8988 75.6096L94.944 75.907ZM89.836 71.988L90.4447 71.1946L89.8358 70.7274L89.227 71.1948L89.836 71.988ZM92.976 69.589L92.3706 68.7931L91.8128 69.2174L92.0212 69.8864L92.976 69.589ZM98.099 65.692L98.7044 66.4879L101.075 64.6845L98.0965 64.692L98.099 65.692ZM91.776 65.708L90.82 66.0014L91.0374 66.7099L91.7785 66.708L91.776 65.708ZM89.834 59.38L90.79 59.0866L89.8335 55.9699L88.8779 59.0869L89.834 59.38ZM87.894 65.708L87.8919 66.708L88.6329 66.7095L88.8501 66.0011L87.894 65.708ZM81.57 65.695L81.5721 64.695L78.5935 64.6889L80.9649 66.4912L81.57 65.695ZM86.695 69.59L87.6499 69.8871L87.8581 69.2179L87.3001 68.7938L86.695 69.59ZM84.729 75.909L83.7741 75.6119L82.8377 78.6218L85.338 76.7022L84.729 75.909ZM129.918 71.988L130.527 71.1945L129.918 70.7275L129.309 71.1948L129.918 71.988ZM135.027 75.907L134.418 76.7004L136.92 78.6192L135.982 75.6095L135.027 75.907ZM124.811 75.909L123.856 75.6119L122.92 78.6218L125.42 76.7022L124.811 75.909ZM126.777 69.59L127.732 69.8871L127.94 69.218L127.382 68.7939L126.777 69.59ZM121.653 65.695L121.655 64.695L118.677 64.6889L121.048 66.4911L121.653 65.695ZM127.976 65.708L127.974 66.708L128.715 66.7095L128.932 66.0011L127.976 65.708ZM129.916 59.38L130.872 59.0866L129.916 55.9699L128.96 59.0869L129.916 59.38ZM131.858 65.708L130.902 66.0014L131.119 66.7099L131.861 66.708L131.858 65.708ZM138.182 65.692L138.787 66.488L141.159 64.6845L138.179 64.692L138.182 65.692ZM133.058 69.589L132.453 68.793L131.895 69.2174L132.103 69.8865L133.058 69.589ZM115.006 61.031L114.397 61.8245L116.898 63.7425L115.961 60.7335L115.006 61.031ZM109.897 57.113L110.506 56.3195L109.897 55.8526L109.288 56.3197L109.897 57.113ZM113.037 54.713L112.432 53.917L111.874 54.3413L112.082 55.0105L113.037 54.713ZM118.161 50.816L118.766 51.612L121.138 49.8085L118.158 49.816L118.161 50.816ZM111.837 50.832L110.881 51.1254L111.098 51.8339L111.84 51.832L111.837 50.832ZM109.895 44.504L110.851 44.2106L109.895 41.0939L108.939 44.2109L109.895 44.504ZM107.955 50.832L107.953 51.832L108.694 51.8335L108.911 51.1251L107.955 50.832ZM101.632 50.819L101.634 49.819L98.656 49.8129L101.027 51.6151L101.632 50.819ZM106.756 54.714L107.711 55.0111L107.919 54.342L107.361 53.9179L106.756 54.714ZM104.79 61.033L103.835 60.7359L102.899 63.7452L105.399 61.8263L104.79 61.033ZM97.336 95.79L97.9447 94.9966L97.3358 94.5294L96.727 94.9968L97.336 95.79ZM102.444 99.709L101.835 100.502L104.336 102.421L103.399 99.4116L102.444 99.709ZM92.229 99.711L91.2741 99.4139L90.3377 102.424L92.838 100.504L92.229 99.711ZM94.195 93.392L95.1498 93.6891L95.3581 93.0199L94.8001 92.5958L94.195 93.392ZM89.07 89.497L89.0721 88.497L86.0935 88.4909L88.4649 90.2932L89.07 89.497ZM95.394 89.51L95.3919 90.51L96.1329 90.5115L96.3501 89.8031L95.394 89.51ZM97.334 83.182L98.29 82.8886L97.3335 79.7719L96.3779 82.8889L97.334 83.182ZM99.276 89.51L98.32 89.8034L98.5374 90.5119L99.2785 90.51L99.276 89.51ZM105.599 89.494L106.204 90.2899L108.575 88.4865L105.596 88.494L105.599 89.494ZM100.476 93.391L99.8706 92.5951L99.3128 93.0194L99.5212 93.6884L100.476 93.391ZM127.527 99.709L126.918 100.502L129.42 102.421L128.482 99.4115L127.527 99.709ZM122.418 95.79L123.027 94.9965L122.418 94.5295L121.809 94.9968L122.418 95.79ZM125.558 93.391L124.953 92.595L124.395 93.0193L124.603 93.6885L125.558 93.391ZM130.682 89.494L131.287 90.29L133.659 88.4865L130.679 88.494L130.682 89.494ZM124.358 89.51L123.402 89.8034L123.619 90.5119L124.361 90.51L124.358 89.51ZM122.416 83.182L123.372 82.8886L122.416 79.7719L121.46 82.8889L122.416 83.182ZM120.476 89.51L120.474 90.51L121.215 90.5115L121.432 89.8031L120.476 89.51ZM114.153 89.497L114.155 88.497L111.177 88.4909L113.548 90.2931L114.153 89.497ZM119.277 93.392L120.232 93.6891L120.44 93.02L119.882 92.5959L119.277 93.392ZM117.311 99.711L116.356 99.4139L115.42 102.424L117.92 100.504L117.311 99.711ZM102.373 109.563C98.5913 110.885 94.5257 111.604 90.29 111.604V113.604C94.7535 113.604 99.042 112.846 103.033 111.451L102.373 109.563ZM67.636 75C67.636 94.6729 83.1835 110.713 102.662 111.506L102.743 109.508C84.3325 108.758 69.636 93.5955 69.636 75H67.636ZM102.662 38.4937C83.1835 39.2869 67.636 55.3271 67.636 75H69.636C69.636 56.4045 84.3324 41.2418 102.743 40.4921L102.662 38.4937ZM90.29 38.396C94.5257 38.396 98.5913 39.115 102.373 40.4369L103.033 38.5489C99.042 37.1539 94.7534 36.396 90.29 36.396V38.396ZM53.686 75C53.686 54.7843 70.0743 38.396 90.29 38.396V36.396C68.9697 36.396 51.686 53.6797 51.686 75H53.686ZM90.29 111.604C70.0743 111.604 53.686 95.2157 53.686 75H51.686C51.686 96.3203 68.9697 113.604 90.29 113.604V111.604ZM25 226H325V224H25V226ZM24 125V225H26V125H24ZM325 124H25V126H325V124ZM326 225V125H324V225H326ZM95.5527 75.1136L90.4447 71.1946L89.2273 72.7814L94.3353 76.7004L95.5527 75.1136ZM92.0212 69.8864L93.9893 76.2044L95.8988 75.6096L93.9307 69.2916L92.0212 69.8864ZM97.4936 64.8961L92.3706 68.7931L93.5814 70.3849L98.7044 66.4879L97.4936 64.8961ZM91.7785 66.708L98.1015 66.692L98.0965 64.692L91.7735 64.708L91.7785 66.708ZM88.878 59.6734L90.82 66.0014L92.732 65.4146L90.79 59.0866L88.878 59.6734ZM88.8501 66.0011L90.7901 59.6731L88.8779 59.0869L86.9379 65.4149L88.8501 66.0011ZM81.5679 66.695L87.8919 66.708L87.8961 64.708L81.5721 64.695L81.5679 66.695ZM87.3001 68.7938L82.1751 64.8988L80.9649 66.4912L86.0899 70.3862L87.3001 68.7938ZM85.6839 76.2061L87.6499 69.8871L85.7401 69.2929L83.7741 75.6119L85.6839 76.2061ZM89.227 71.1948L84.12 75.1158L85.338 76.7022L90.445 72.7812L89.227 71.1948ZM129.309 72.7814L134.418 76.7004L135.636 75.1135L130.527 71.1945L129.309 72.7814ZM125.42 76.7022L130.527 72.7812L129.309 71.1948L124.202 75.1158L125.42 76.7022ZM125.822 69.2929L123.856 75.6119L125.766 76.2061L127.732 69.8871L125.822 69.2929ZM121.048 66.4911L126.172 70.3861L127.382 68.7939L122.258 64.8989L121.048 66.4911ZM127.978 64.708L121.655 64.695L121.651 66.695L127.974 66.708L127.978 64.708ZM128.96 59.0869L127.02 65.4149L128.932 66.0011L130.872 59.6731L128.96 59.0869ZM132.814 65.4146L130.872 59.0866L128.96 59.6734L130.902 66.0014L132.814 65.4146ZM138.179 64.692L131.855 64.708L131.861 66.708L138.185 66.692L138.179 64.692ZM133.663 70.385L138.787 66.488L137.577 64.896L132.453 68.793L133.663 70.385ZM135.982 75.6095L134.013 69.2915L132.103 69.8865L134.072 76.2045L135.982 75.6095ZM115.615 60.2375L110.506 56.3195L109.288 57.9065L114.397 61.8245L115.615 60.2375ZM112.082 55.0105L114.051 61.3285L115.961 60.7335L113.992 54.4155L112.082 55.0105ZM117.556 50.02L112.432 53.917L113.642 55.509L118.766 51.612L117.556 50.02ZM111.84 51.832L118.164 51.816L118.158 49.816L111.834 49.832L111.84 51.832ZM108.939 44.7974L110.881 51.1254L112.793 50.5386L110.851 44.2106L108.939 44.7974ZM108.911 51.1251L110.851 44.7971L108.939 44.2109L106.999 50.5389L108.911 51.1251ZM101.63 51.819L107.953 51.832L107.957 49.832L101.634 49.819L101.63 51.819ZM107.361 53.9179L102.237 50.0229L101.027 51.6151L106.151 55.5101L107.361 53.9179ZM105.745 61.3301L107.711 55.0111L105.801 54.4169L103.835 60.7359L105.745 61.3301ZM109.288 56.3197L104.181 60.2397L105.399 61.8263L110.506 57.9063L109.288 56.3197ZM96.7273 96.5834L101.835 100.502L103.053 98.9156L97.9447 94.9966L96.7273 96.5834ZM92.838 100.504L97.945 96.5832L96.727 94.9968L91.62 98.9178L92.838 100.504ZM93.2402 93.0949L91.2741 99.4139L93.1838 100.008L95.1498 93.6891L93.2402 93.0949ZM88.4649 90.2932L93.5899 94.1882L94.8001 92.5958L89.6751 88.7008L88.4649 90.2932ZM95.396 88.51L89.0721 88.497L89.0679 90.497L95.3919 90.51L95.396 88.51ZM96.3779 82.8889L94.4379 89.2169L96.3501 89.8031L98.2901 83.4751L96.3779 82.8889ZM100.232 89.2166L98.29 82.8886L96.378 83.4754L98.32 89.8034L100.232 89.2166ZM105.596 88.494L99.2735 88.51L99.2785 90.51L105.602 90.494L105.596 88.494ZM101.081 94.1869L106.204 90.2899L104.994 88.6981L99.8706 92.5951L101.081 94.1869ZM103.399 99.4116L101.431 93.0936L99.5212 93.6884L101.489 100.006L103.399 99.4116ZM128.136 98.9155L123.027 94.9965L121.809 96.5834L126.918 100.502L128.136 98.9155ZM124.603 93.6885L126.572 100.007L128.482 99.4115L126.513 93.0935L124.603 93.6885ZM130.077 88.698L124.953 92.595L126.163 94.187L131.287 90.29L130.077 88.698ZM124.361 90.51L130.685 90.494L130.679 88.494L124.355 88.51L124.361 90.51ZM121.46 83.4754L123.402 89.8034L125.314 89.2166L123.372 82.8886L121.46 83.4754ZM121.432 89.8031L123.372 83.4751L121.46 82.8889L119.52 89.2169L121.432 89.8031ZM114.151 90.497L120.474 90.51L120.478 88.51L114.155 88.497L114.151 90.497ZM119.882 92.5959L114.758 88.7009L113.548 90.2931L118.672 94.1881L119.882 92.5959ZM118.266 100.008L120.232 93.6891L118.322 93.0949L116.356 99.4139L118.266 100.008ZM121.809 94.9968L116.702 98.9178L117.92 100.504L123.027 96.5832L121.809 94.9968Z" fill="white"/>
</g>
</g>
</g>
</svg>
