<svg width="350" height="250" viewBox="0 0 350 250" fill="none" xmlns="http://www.w3.org/2000/svg">
<g id="flag / south america / chile / b">
<g id="chile b">
<path id="red" fill-rule="evenodd" clip-rule="evenodd" d="M25 225H325V125H25V225Z" fill="white" fill-opacity="0.5" stroke="white" stroke-width="2"/>
<g id="Combined Shape">
<path fill-rule="evenodd" clip-rule="evenodd" d="M125 25V125H25V25H125ZM65.918 77.951L51.223 67.275H69.387L75 50L80.613 67.275H98.776L84.082 77.951L89.694 95.225L75 84.549L60.305 95.225L65.918 77.951Z" fill="white" fill-opacity="0.5"/>
<path d="M125 125V126H126V125H125ZM125 25H126V24H125V25ZM25 125H24V126H25V125ZM25 25V24H24V25H25ZM51.223 67.275V66.275H48.1452L50.6352 68.084L51.223 67.275ZM65.918 77.951L66.869 78.26L67.0936 77.569L66.5058 77.142L65.918 77.951ZM69.387 67.275V68.275H70.1135L70.3381 67.584L69.387 67.275ZM75 50L75.9511 49.691L75 46.7639L74.0489 49.691L75 50ZM80.613 67.275L79.6619 67.584L79.8865 68.275H80.613V67.275ZM98.776 67.275L99.3638 68.084L101.854 66.275H98.776V67.275ZM84.082 77.951L83.4942 77.142L82.9065 77.569L83.1309 78.26L84.082 77.951ZM89.694 95.225L89.1062 96.034L91.596 97.843L90.6451 94.916L89.694 95.225ZM75 84.549L75.5878 83.74L75 83.3129L74.4122 83.74L75 84.549ZM60.305 95.225L59.354 94.916L58.4029 97.843L60.8928 96.034L60.305 95.225ZM126 125V25H124V125H126ZM25 126H125V124H25V126ZM24 25V125H26V25H24ZM125 24H25V26H125V24ZM50.6352 68.084L65.3302 78.76L66.5058 77.142L51.8108 66.466L50.6352 68.084ZM69.387 66.275H51.223V68.275H69.387V66.275ZM74.0489 49.691L68.4359 66.966L70.3381 67.584L75.9511 50.309L74.0489 49.691ZM81.5641 66.966L75.9511 49.691L74.0489 50.309L79.6619 67.584L81.5641 66.966ZM98.776 66.275H80.613V68.275H98.776V66.275ZM84.6698 78.76L99.3638 68.084L98.1882 66.466L83.4942 77.142L84.6698 78.76ZM90.6451 94.916L85.0331 77.642L83.1309 78.26L88.7429 95.534L90.6451 94.916ZM74.4122 85.358L89.1062 96.034L90.2818 94.416L75.5878 83.74L74.4122 85.358ZM60.8928 96.034L75.5878 85.358L74.4122 83.74L59.7172 94.416L60.8928 96.034ZM64.9669 77.642L59.354 94.916L61.2561 95.534L66.869 78.26L64.9669 77.642Z" fill="white"/>
</g>
<g id="white">
<path fill-rule="evenodd" clip-rule="evenodd" d="M325 25V125H125V25H325ZM65.9181 77.951L51.2231 67.275H69.3871L75.0001 50L80.6131 67.275H98.7761L84.0821 77.951L89.6941 95.225L75.0001 84.549L60.3051 95.225L65.9181 77.951Z" fill="white" fill-opacity="0.5"/>
<path d="M325 125V126H326V125H325ZM325 25H326V24H325V25ZM125 125H124V126H125V125ZM125 25V24H124V25H125ZM51.2231 67.275V66.275H48.1453L50.6354 68.084L51.2231 67.275ZM65.9181 77.951L66.8692 78.26L67.0937 77.569L66.5059 77.142L65.9181 77.951ZM69.3871 67.275V68.275H70.1137L70.3382 67.584L69.3871 67.275ZM75.0001 50L75.9512 49.691L75.0001 46.7639L74.0491 49.691L75.0001 50ZM80.6131 67.275L79.6621 67.584L79.8866 68.275H80.6131V67.275ZM98.7761 67.275L99.3639 68.084L101.854 66.275H98.7761V67.275ZM84.0821 77.951L83.4944 77.142L82.9066 77.569L83.1311 78.26L84.0821 77.951ZM89.6941 95.225L89.1064 96.034L91.5961 97.843L90.6452 94.916L89.6941 95.225ZM75.0001 84.549L75.5879 83.74L75.0002 83.3129L74.4124 83.74L75.0001 84.549ZM60.3051 95.225L59.3541 94.916L58.403 97.843L60.8929 96.034L60.3051 95.225ZM326 125V25H324V125H326ZM125 126H325V124H125V126ZM124 25V125H126V25H124ZM325 24H125V26H325V24ZM50.6354 68.084L65.3304 78.76L66.5059 77.142L51.8109 66.466L50.6354 68.084ZM69.3871 66.275H51.2231V68.275H69.3871V66.275ZM74.0491 49.691L68.4361 66.966L70.3382 67.584L75.9512 50.309L74.0491 49.691ZM81.5642 66.966L75.9512 49.691L74.0491 50.309L79.6621 67.584L81.5642 66.966ZM98.7761 66.275H80.6131V68.275H98.7761V66.275ZM84.6699 78.76L99.3639 68.084L98.1884 66.466L83.4944 77.142L84.6699 78.76ZM90.6452 94.916L85.0332 77.642L83.1311 78.26L88.7431 95.534L90.6452 94.916ZM74.4124 85.358L89.1064 96.034L90.2819 94.416L75.5879 83.74L74.4124 85.358ZM60.8929 96.034L75.5879 85.358L74.4124 83.74L59.7174 94.416L60.8929 96.034ZM64.9671 77.642L59.3541 94.916L61.2562 95.534L66.8692 78.26L64.9671 77.642Z" fill="white"/>
</g>
</g>
</g>
</svg>
