<svg width="350" height="250" viewBox="0 0 350 250" fill="none" xmlns="http://www.w3.org/2000/svg">
<g id="flag / north america / jamaica / b">
<g id="jamaica b">
<g id="black">
<path fill-rule="evenodd" clip-rule="evenodd" d="M325 188.82L197.361 125L325 61.1804V188.82ZM152.639 125L25 188.82V61.1804L152.639 125Z" fill="white" fill-opacity="0.5"/>
<path d="M197.361 125L196.913 124.106L195.125 125L196.913 125.895L197.361 125ZM325 188.82L324.553 189.714L326 190.438V188.82H325ZM325 61.1804H326V59.5624L324.553 60.286L325 61.1804ZM25 188.82H24V190.438L25.4472 189.714L25 188.82ZM152.639 125L153.087 125.895L154.875 125L153.087 124.106L152.639 125ZM25 61.1804L25.4472 60.286L24 59.5624V61.1804H25ZM196.913 125.895L324.553 189.714L325.447 187.925L197.808 124.106L196.913 125.895ZM324.553 60.286L196.913 124.106L197.808 125.895L325.447 62.0748L324.553 60.286ZM326 188.82V61.1804H324V188.82H326ZM25.4472 189.714L153.087 125.895L152.192 124.106L24.5528 187.925L25.4472 189.714ZM24 61.1804V188.82H26V61.1804H24ZM153.087 124.106L25.4472 60.286L24.5528 62.0748L152.192 125.895L153.087 124.106Z" fill="white"/>
</g>
<g id="green">
<path fill-rule="evenodd" clip-rule="evenodd" d="M302.519 199.94L175 136.18L47.4808 199.94H302.519ZM175 113.82L47.3608 50H302.639L175 113.82Z" fill="white" fill-opacity="0.5"/>
<path d="M175 136.18L175.447 135.286L175 135.062L174.553 135.286L175 136.18ZM302.519 199.94V200.94L302.967 199.046L302.519 199.94ZM47.4808 199.94L47.0336 199.046L47.4808 200.94V199.94ZM47.3608 50V49L46.9136 50.8944L47.3608 50ZM175 113.82L174.553 114.714L175 114.938L175.447 114.714L175 113.82ZM302.639 50L303.087 50.8944L302.639 49V50ZM174.553 137.075L302.072 200.834L302.967 199.046L175.447 135.286L174.553 137.075ZM47.9281 200.834L175.447 137.075L174.553 135.286L47.0336 199.046L47.9281 200.834ZM302.519 198.94H47.4808V200.94H302.519V198.94ZM46.9136 50.8944L174.553 114.714L175.447 112.925L47.8081 49.1056L46.9136 50.8944ZM302.639 49H47.3608V51H302.639V49ZM175.447 114.714L303.087 50.8944L302.192 49.1056L174.553 112.925L175.447 114.714Z" fill="white"/>
</g>
<g id="yellow">
<path fill-rule="evenodd" clip-rule="evenodd" d="M47.3607 50H25V61.1803L152.639 125L25 188.82V199.94H47.4807L175 136.18L302.519 199.94H325V188.82L197.361 125L325 61.1803V50H302.639L175 113.82L47.3607 50Z" fill="white" fill-opacity="0.5"/>
<path d="M25 50V49H24V50H25ZM47.3607 50L47.8079 49.1056L47.5967 49H47.3607V50ZM25 61.1803H24V61.7984L24.5528 62.0748L25 61.1803ZM152.639 125L153.087 125.894L154.875 125L153.087 124.106L152.639 125ZM25 188.82L24.5528 187.925L24 188.202V188.82H25ZM25 199.94H24V200.94H25V199.94ZM47.4807 199.94V200.94H47.7167L47.9279 200.834L47.4807 199.94ZM175 136.18L175.447 135.286L175 135.062L174.553 135.286L175 136.18ZM302.519 199.94L302.072 200.834L302.283 200.94H302.519V199.94ZM325 199.94V200.94H326V199.94H325ZM325 188.82H326V188.202L325.447 187.925L325 188.82ZM197.361 125L196.913 124.106L195.125 125L196.913 125.894L197.361 125ZM325 61.1803L325.447 62.0748L326 61.7984V61.1803H325ZM325 50H326V49H325V50ZM302.639 50V49H302.403L302.192 49.1056L302.639 50ZM175 113.82L174.553 114.714L175 114.938L175.447 114.714L175 113.82ZM25 51H47.3607V49H25V51ZM26 61.1803V50H24V61.1803H26ZM24.5528 62.0748L152.192 125.894L153.087 124.106L25.4472 60.2859L24.5528 62.0748ZM152.192 124.106L24.5528 187.925L25.4472 189.714L153.087 125.894L152.192 124.106ZM26 199.94V188.82H24V199.94H26ZM47.4807 198.94H25V200.94H47.4807V198.94ZM47.9279 200.834L175.447 137.075L174.553 135.286L47.0335 199.046L47.9279 200.834ZM174.553 137.075L302.072 200.834L302.967 199.046L175.447 135.286L174.553 137.075ZM325 198.94H302.519V200.94H325V198.94ZM324 188.82V199.94H326V188.82H324ZM325.447 187.925L197.808 124.106L196.913 125.894L324.553 189.714L325.447 187.925ZM197.808 125.894L325.447 62.0748L324.553 60.2859L196.913 124.106L197.808 125.894ZM324 50V61.1803H326V50H324ZM302.639 51H325V49H302.639V51ZM302.192 49.1056L174.553 112.925L175.447 114.714L303.087 50.8944L302.192 49.1056ZM175.447 112.925L47.8079 49.1056L46.9135 50.8944L174.553 114.714L175.447 112.925Z" fill="white"/>
</g>
</g>
</g>
</svg>
