<svg width="350" height="250" viewBox="0 0 350 250" fill="none" xmlns="http://www.w3.org/2000/svg">
<g id="flag / europe / north macedonia / b">
<g id="macedonia b">
<g id="Combined Shape">
<path fill-rule="evenodd" clip-rule="evenodd" d="M324.868 50H325V110L201.663 122.417C201.744 123.267 201.786 124.128 201.786 125C201.786 125.872 201.744 126.733 201.663 127.583L325 140V200H190L178.691 151.533C177.485 151.7 176.252 151.786 175 151.786C173.748 151.786 172.515 151.7 171.309 151.533L160 200H25V199.991H70.0233L154.27 141.965C153.019 140.438 151.934 138.771 151.041 136.99L25 199.991V140L148.337 127.583C148.256 126.733 148.214 125.872 148.214 125C148.214 124.128 148.256 123.267 148.337 122.417L25 110V50L151.045 113.003C151.938 111.222 153.024 109.555 154.275 108.029L70.0233 50H160L171.309 98.4665C172.515 98.3002 173.748 98.2143 175 98.2143C176.252 98.2143 177.485 98.3002 178.691 98.4665L190 50H279.844L195.677 107.971C196.936 109.498 198.029 111.167 198.929 112.95L324.868 50ZM198.932 137.043C198.033 138.826 196.941 140.496 195.682 142.023L279.844 199.991H324.868L198.932 137.043ZM175 103.571C186.835 103.571 196.429 113.165 196.429 125C196.429 136.835 186.835 146.429 175 146.429C163.165 146.429 153.571 136.835 153.571 125C153.571 113.165 163.165 103.571 175 103.571Z" fill="white" fill-opacity="0.5"/>
<path d="M325 50H326C326 49.4477 325.552 49 325 49V50ZM324.868 50V49C324.712 49 324.559 49.0361 324.421 49.1055L324.868 50ZM325 110L325.1 110.995C325.611 110.944 326 110.513 326 110H325ZM201.663 122.417L201.563 121.422C201.015 121.477 200.615 121.964 200.667 122.512L201.663 122.417ZM201.663 127.583L200.667 127.488C200.615 128.036 201.015 128.523 201.563 128.578L201.663 127.583ZM325 140H326C326 139.487 325.611 139.056 325.1 139.005L325 140ZM325 200V201C325.552 201 326 200.552 326 200H325ZM190 200L189.026 200.227C189.132 200.68 189.535 201 190 201V200ZM178.691 151.533L179.665 151.306C179.548 150.803 179.066 150.472 178.555 150.543L178.691 151.533ZM171.309 151.533L171.445 150.543C170.934 150.472 170.452 150.803 170.335 151.306L171.309 151.533ZM160 200V201C160.465 201 160.868 200.68 160.974 200.227L160 200ZM25 200H24C24 200.552 24.4477 201 25 201V200ZM70.0233 199.991V200.991C70.2259 200.991 70.4237 200.929 70.5905 200.814L70.0233 199.991ZM154.27 141.965L154.838 142.789C155.068 142.63 155.221 142.382 155.26 142.105C155.3 141.828 155.221 141.548 155.044 141.331L154.27 141.965ZM151.041 136.99L151.935 136.542C151.688 136.048 151.087 135.849 150.594 136.095L151.041 136.99ZM25 140L24.8998 139.005C24.3889 139.056 24 139.487 24 140H25ZM148.337 127.583L148.437 128.578C148.985 128.523 149.385 128.036 149.333 127.488L148.337 127.583ZM148.337 122.417L149.333 122.512C149.385 121.964 148.985 121.477 148.437 121.422L148.337 122.417ZM25 110H24C24 110.513 24.3889 110.944 24.8998 110.995L25 110ZM25 50L25.4471 49.1055C25.1371 48.9506 24.769 48.9672 24.4742 49.1494C24.1794 49.3316 24 49.6534 24 50H25ZM151.045 113.003L150.598 113.897C151.091 114.144 151.691 113.944 151.939 113.451L151.045 113.003ZM154.275 108.029L155.049 108.663C155.226 108.447 155.305 108.166 155.265 107.889C155.226 107.612 155.073 107.364 154.843 107.205L154.275 108.029ZM70.0233 50V49C69.5854 49 69.1985 49.2849 69.0684 49.703C68.9384 50.1211 69.0955 50.5752 69.4561 50.8236L70.0233 50ZM160 50L160.974 49.7728C160.868 49.3202 160.465 49 160 49V50ZM171.309 98.4665L170.335 98.6937C170.452 99.1968 170.934 99.5277 171.445 99.4571L171.309 98.4665ZM178.691 98.4665L178.555 99.4571C179.066 99.5277 179.548 99.1968 179.665 98.6937L178.691 98.4665ZM190 50V49C189.535 49 189.132 49.3202 189.026 49.7728L190 50ZM279.844 50L280.412 50.8236C280.772 50.5752 280.929 50.1211 280.799 49.703C280.669 49.2849 280.282 49 279.844 49V50ZM195.677 107.971L195.11 107.147C194.879 107.306 194.725 107.555 194.686 107.832C194.648 108.11 194.727 108.391 194.905 108.607L195.677 107.971ZM198.929 112.95L198.036 113.4C198.284 113.892 198.883 114.09 199.376 113.844L198.929 112.95ZM195.682 142.023L194.91 141.387C194.732 141.603 194.653 141.884 194.691 142.162C194.73 142.439 194.884 142.688 195.115 142.847L195.682 142.023ZM198.932 137.043L199.38 136.148C198.887 135.902 198.288 136.101 198.04 136.593L198.932 137.043ZM279.844 199.991L279.277 200.814C279.444 200.929 279.642 200.991 279.844 200.991V199.991ZM324.868 199.991V200.991C325.331 200.991 325.734 200.672 325.841 200.22C325.947 199.769 325.73 199.303 325.315 199.096L324.868 199.991ZM325 49H324.868V51H325V49ZM326 110V50H324V110H326ZM201.763 123.411L325.1 110.995L324.9 109.005L201.563 121.422L201.763 123.411ZM202.786 125C202.786 124.097 202.743 123.203 202.658 122.321L200.667 122.512C200.746 123.33 200.786 124.16 200.786 125H202.786ZM202.658 127.679C202.743 126.797 202.786 125.903 202.786 125H200.786C200.786 125.84 200.746 126.67 200.667 127.488L202.658 127.679ZM325.1 139.005L201.763 126.589L201.563 128.578L324.9 140.995L325.1 139.005ZM326 200V140H324V200H326ZM190 201H325V199H190V201ZM177.717 151.761L189.026 200.227L190.974 199.773L179.665 151.306L177.717 151.761ZM175 152.786C176.298 152.786 177.576 152.697 178.828 152.524L178.555 150.543C177.393 150.703 176.207 150.786 175 150.786V152.786ZM171.172 152.524C172.424 152.697 173.702 152.786 175 152.786V150.786C173.793 150.786 172.607 150.703 171.445 150.543L171.172 152.524ZM160.974 200.227L172.283 151.761L170.335 151.306L159.026 199.773L160.974 200.227ZM25 201H160V199H25V201ZM24 199.991V200H26V199.991H24ZM70.0233 198.991H25V200.991H70.0233V198.991ZM153.703 141.141L69.4561 199.167L70.5905 200.814L154.838 142.789L153.703 141.141ZM150.147 137.438C151.073 139.286 152.199 141.015 153.497 142.599L155.044 141.331C153.839 139.861 152.794 138.256 151.935 136.542L150.147 137.438ZM25.4471 200.885L151.488 137.884L150.594 136.095L24.5529 199.096L25.4471 200.885ZM24 140V199.991H26V140H24ZM148.237 126.589L24.8998 139.005L25.1002 140.995L148.437 128.578L148.237 126.589ZM147.214 125C147.214 125.903 147.257 126.797 147.342 127.679L149.333 127.488C149.254 126.67 149.214 125.84 149.214 125H147.214ZM147.342 122.321C147.257 123.203 147.214 124.097 147.214 125H149.214C149.214 124.16 149.254 123.33 149.333 122.512L147.342 122.321ZM24.8998 110.995L148.237 123.411L148.437 121.422L25.1002 109.005L24.8998 110.995ZM24 50V110H26V50H24ZM151.492 112.108L25.4471 49.1055L24.5529 50.8945L150.598 113.897L151.492 112.108ZM153.502 107.395C152.204 108.978 151.078 110.707 150.151 112.554L151.939 113.451C152.798 111.737 153.844 110.133 155.049 108.663L153.502 107.395ZM69.4561 50.8236L153.708 108.853L154.843 107.205L70.5905 49.1764L69.4561 50.8236ZM160 49H70.0233V51H160V49ZM172.283 98.2393L160.974 49.7728L159.026 50.2272L170.335 98.6937L172.283 98.2393ZM175 97.2143C173.702 97.2143 172.424 97.3034 171.172 97.4759L171.445 99.4571C172.607 99.2971 173.793 99.2143 175 99.2143V97.2143ZM178.828 97.4759C177.576 97.3034 176.298 97.2143 175 97.2143V99.2143C176.207 99.2143 177.393 99.2971 178.555 99.4571L178.828 97.4759ZM189.026 49.7728L177.717 98.2393L179.665 98.6937L190.974 50.2272L189.026 49.7728ZM279.844 49H190V51H279.844V49ZM196.244 108.794L280.412 50.8236L279.277 49.1764L195.11 107.147L196.244 108.794ZM199.821 112.499C198.888 110.649 197.754 108.918 196.448 107.335L194.905 108.607C196.118 110.077 197.17 111.684 198.036 113.4L199.821 112.499ZM324.421 49.1055L198.482 112.055L199.376 113.844L325.315 50.8945L324.421 49.1055ZM196.454 142.659C197.759 141.075 198.893 139.343 199.825 137.493L198.04 136.593C197.174 138.309 196.122 139.916 194.91 141.387L196.454 142.659ZM280.412 199.167L196.249 141.2L195.115 142.847L279.277 200.814L280.412 199.167ZM324.868 198.991H279.844V200.991H324.868V198.991ZM198.485 137.937L324.421 200.885L325.315 199.096L199.38 136.148L198.485 137.937ZM197.429 125C197.429 112.613 187.387 102.571 175 102.571V104.571C186.283 104.571 195.429 113.717 195.429 125H197.429ZM175 147.429C187.387 147.429 197.429 137.387 197.429 125H195.429C195.429 136.283 186.283 145.429 175 145.429V147.429ZM152.571 125C152.571 137.387 162.613 147.429 175 147.429V145.429C163.717 145.429 154.571 136.283 154.571 125H152.571ZM175 102.571C162.613 102.571 152.571 112.613 152.571 125H154.571C154.571 113.717 163.717 104.571 175 104.571V102.571Z" fill="white"/>
</g>
<g id="Combined Shape_2">
<path fill-rule="evenodd" clip-rule="evenodd" d="M175 98.2143C176.252 98.2143 177.485 98.3002 178.691 98.4665L190 50H160L171.309 98.4665C172.515 98.3002 173.748 98.2143 175 98.2143ZM195.677 107.971C196.936 109.498 198.029 111.167 198.929 112.95L324.868 50H279.844L195.677 107.971ZM201.786 125C201.786 125.872 201.744 126.733 201.663 127.583L325 140V110L201.663 122.417C201.744 123.267 201.786 124.128 201.786 125ZM198.932 137.043C198.033 138.826 196.941 140.496 195.682 142.023L279.844 199.991H324.868L198.932 137.043ZM175 151.786C173.748 151.786 172.515 151.7 171.309 151.533L160 200H190L178.691 151.533C177.485 151.7 176.252 151.786 175 151.786ZM154.27 141.965C153.019 140.438 151.934 138.771 151.041 136.99L25 199.991H70.0233L154.27 141.965ZM148.214 125C148.214 124.128 148.256 123.267 148.337 122.417L25 110V140L148.337 127.583C148.256 126.733 148.214 125.872 148.214 125ZM154.275 108.029C153.024 109.555 151.938 111.222 151.045 113.003L25 50H70.0233L154.275 108.029ZM175 103.571C186.835 103.571 196.429 113.165 196.429 125C196.429 136.835 186.835 146.429 175 146.429C163.165 146.429 153.571 136.835 153.571 125C153.571 113.165 163.165 103.571 175 103.571Z" fill="white" fill-opacity="0.5"/>
<path d="M178.691 98.4665L178.555 99.4571C179.066 99.5277 179.548 99.1968 179.665 98.6937L178.691 98.4665ZM190 50L190.974 50.2272C191.043 49.93 190.973 49.6175 190.783 49.3784C190.594 49.1393 190.305 49 190 49V50ZM160 50V49C159.695 49 159.406 49.1393 159.217 49.3784C159.027 49.6175 158.957 49.93 159.026 50.2272L160 50ZM171.309 98.4665L170.335 98.6937C170.452 99.1968 170.934 99.5277 171.445 99.4571L171.309 98.4665ZM198.929 112.95L198.036 113.4C198.284 113.892 198.883 114.09 199.376 113.844L198.929 112.95ZM195.677 107.971L195.11 107.147C194.879 107.306 194.725 107.555 194.686 107.832C194.648 108.11 194.727 108.391 194.905 108.607L195.677 107.971ZM324.868 50L325.315 50.8945C325.73 50.6871 325.947 50.2217 325.841 49.7703C325.734 49.3189 325.331 49 324.868 49V50ZM279.844 50V49C279.642 49 279.444 49.0615 279.277 49.1764L279.844 50ZM201.663 127.583L200.667 127.488C200.615 128.036 201.015 128.523 201.563 128.578L201.663 127.583ZM325 140L324.9 140.995C325.181 141.023 325.461 140.931 325.671 140.742C325.88 140.552 326 140.283 326 140H325ZM325 110H326C326 109.717 325.88 109.448 325.671 109.258C325.461 109.069 325.181 108.977 324.9 109.005L325 110ZM201.663 122.417L201.563 121.422C201.015 121.477 200.615 121.964 200.667 122.512L201.663 122.417ZM195.682 142.023L194.91 141.387C194.732 141.603 194.653 141.884 194.691 142.162C194.73 142.439 194.884 142.688 195.115 142.847L195.682 142.023ZM198.932 137.043L199.38 136.148C198.887 135.902 198.288 136.101 198.04 136.593L198.932 137.043ZM279.844 199.991L279.277 200.814C279.444 200.929 279.642 200.991 279.844 200.991V199.991ZM324.868 199.991V200.991C325.331 200.991 325.734 200.672 325.841 200.22C325.947 199.769 325.73 199.303 325.315 199.096L324.868 199.991ZM171.309 151.533L171.445 150.543C170.934 150.472 170.452 150.803 170.335 151.306L171.309 151.533ZM160 200L159.026 199.773C158.957 200.07 159.027 200.383 159.217 200.622C159.406 200.861 159.695 201 160 201V200ZM190 200V201C190.305 201 190.594 200.861 190.783 200.622C190.973 200.383 191.043 200.07 190.974 199.773L190 200ZM178.691 151.533L179.665 151.306C179.548 150.803 179.066 150.472 178.555 150.543L178.691 151.533ZM151.041 136.99L151.935 136.542C151.688 136.048 151.087 135.849 150.594 136.095L151.041 136.99ZM154.27 141.965L154.838 142.789C155.068 142.63 155.221 142.382 155.26 142.105C155.3 141.828 155.221 141.548 155.044 141.331L154.27 141.965ZM25 199.991L24.5529 199.096C24.138 199.303 23.9202 199.769 24.0267 200.22C24.1333 200.672 24.5362 200.991 25 200.991V199.991ZM70.0233 199.991V200.991C70.2259 200.991 70.4237 200.929 70.5905 200.814L70.0233 199.991ZM148.337 122.417L149.333 122.512C149.385 121.964 148.985 121.477 148.437 121.422L148.337 122.417ZM25 110L25.1002 109.005C24.8189 108.977 24.5389 109.069 24.3292 109.258C24.1196 109.448 24 109.717 24 110H25ZM25 140H24C24 140.283 24.1196 140.552 24.3292 140.742C24.5389 140.931 24.8189 141.023 25.1002 140.995L25 140ZM148.337 127.583L148.437 128.578C148.985 128.523 149.385 128.036 149.333 127.488L148.337 127.583ZM151.045 113.003L150.598 113.897C151.091 114.144 151.691 113.944 151.939 113.451L151.045 113.003ZM154.275 108.029L155.049 108.663C155.226 108.447 155.305 108.166 155.265 107.889C155.226 107.612 155.073 107.364 154.843 107.205L154.275 108.029ZM25 50V49C24.5362 49 24.1333 49.3189 24.0267 49.7703C23.9202 50.2217 24.138 50.6871 24.5529 50.8945L25 50ZM70.0233 50L70.5905 49.1764C70.4237 49.0615 70.2259 49 70.0233 49V50ZM178.828 97.4759C177.576 97.3034 176.298 97.2143 175 97.2143V99.2143C176.207 99.2143 177.393 99.2971 178.555 99.4571L178.828 97.4759ZM189.026 49.7728L177.717 98.2393L179.665 98.6937L190.974 50.2272L189.026 49.7728ZM160 51H190V49H160V51ZM172.283 98.2393L160.974 49.7728L159.026 50.2272L170.335 98.6937L172.283 98.2393ZM175 97.2143C173.702 97.2143 172.424 97.3034 171.172 97.4759L171.445 99.4571C172.607 99.2971 173.793 99.2143 175 99.2143V97.2143ZM199.821 112.499C198.888 110.649 197.754 108.918 196.448 107.335L194.905 108.607C196.118 110.077 197.17 111.684 198.036 113.4L199.821 112.499ZM324.421 49.1055L198.482 112.055L199.376 113.844L325.315 50.8945L324.421 49.1055ZM279.844 51H324.868V49H279.844V51ZM196.244 108.794L280.412 50.8236L279.277 49.1764L195.11 107.147L196.244 108.794ZM202.658 127.679C202.743 126.797 202.786 125.903 202.786 125H200.786C200.786 125.84 200.746 126.67 200.667 127.488L202.658 127.679ZM325.1 139.005L201.763 126.589L201.563 128.578L324.9 140.995L325.1 139.005ZM324 110V140H326V110H324ZM201.763 123.411L325.1 110.995L324.9 109.005L201.563 121.422L201.763 123.411ZM202.786 125C202.786 124.097 202.743 123.203 202.658 122.321L200.667 122.512C200.746 123.33 200.786 124.16 200.786 125H202.786ZM196.454 142.659C197.759 141.075 198.893 139.343 199.825 137.493L198.04 136.593C197.174 138.309 196.122 139.916 194.91 141.387L196.454 142.659ZM280.412 199.167L196.249 141.2L195.115 142.847L279.277 200.814L280.412 199.167ZM324.868 198.991H279.844V200.991H324.868V198.991ZM198.485 137.937L324.421 200.885L325.315 199.096L199.38 136.148L198.485 137.937ZM171.172 152.524C172.424 152.697 173.702 152.786 175 152.786V150.786C173.793 150.786 172.607 150.703 171.445 150.543L171.172 152.524ZM160.974 200.227L172.283 151.761L170.335 151.306L159.026 199.773L160.974 200.227ZM190 199H160V201H190V199ZM177.717 151.761L189.026 200.227L190.974 199.773L179.665 151.306L177.717 151.761ZM175 152.786C176.298 152.786 177.576 152.697 178.828 152.524L178.555 150.543C177.393 150.703 176.207 150.786 175 150.786V152.786ZM150.147 137.438C151.073 139.286 152.199 141.015 153.497 142.599L155.044 141.331C153.839 139.861 152.794 138.256 151.935 136.542L150.147 137.438ZM25.4471 200.885L151.488 137.884L150.594 136.095L24.5529 199.096L25.4471 200.885ZM70.0233 198.991H25V200.991H70.0233V198.991ZM153.703 141.141L69.4561 199.167L70.5905 200.814L154.838 142.789L153.703 141.141ZM147.342 122.321C147.257 123.203 147.214 124.097 147.214 125H149.214C149.214 124.16 149.254 123.33 149.333 122.512L147.342 122.321ZM24.8998 110.995L148.237 123.411L148.437 121.422L25.1002 109.005L24.8998 110.995ZM26 140V110H24V140H26ZM148.237 126.589L24.8998 139.005L25.1002 140.995L148.437 128.578L148.237 126.589ZM147.214 125C147.214 125.903 147.257 126.797 147.342 127.679L149.333 127.488C149.254 126.67 149.214 125.84 149.214 125H147.214ZM151.939 113.451C152.798 111.737 153.844 110.133 155.049 108.663L153.502 107.395C152.204 108.978 151.078 110.707 150.151 112.554L151.939 113.451ZM24.5529 50.8945L150.598 113.897L151.492 112.108L25.4471 49.1055L24.5529 50.8945ZM70.0233 49H25V51H70.0233V49ZM154.843 107.205L70.5905 49.1764L69.4561 50.8236L153.708 108.853L154.843 107.205ZM197.429 125C197.429 112.613 187.387 102.571 175 102.571V104.571C186.283 104.571 195.429 113.717 195.429 125H197.429ZM175 147.429C187.387 147.429 197.429 137.387 197.429 125H195.429C195.429 136.283 186.283 145.429 175 145.429V147.429ZM152.571 125C152.571 137.387 162.613 147.429 175 147.429V145.429C163.717 145.429 154.571 136.283 154.571 125H152.571ZM175 102.571C162.613 102.571 152.571 112.613 152.571 125H154.571C154.571 113.717 163.717 104.571 175 104.571V102.571Z" fill="white"/>
</g>
</g>
</g>
</svg>
