<svg width="350" height="250" viewBox="0 0 350 250" fill="none" xmlns="http://www.w3.org/2000/svg">
<g id="flag / africa / ghana / a">
<g id="ghana a">
<path id="green" fill-rule="evenodd" clip-rule="evenodd" d="M25 225H325V158H25V225Z" fill="#14623C"/>
<path id="yellow" fill-rule="evenodd" clip-rule="evenodd" d="M153.252 158H25V92H174.697L166.506 117.21H140L161.444 132.79L153.252 158ZM196.142 158L187.951 132.79L209.394 117.21H182.888L174.697 92H325V158H196.142ZM196.142 158L174.697 142.419L153.252 158H196.142Z" fill="#F6CD2B"/>
<path id="black" fill-rule="evenodd" clip-rule="evenodd" d="M140 117.21L161.444 132.79L153.252 158L174.697 142.419L196.142 158L187.951 132.79L209.394 117.21H182.888L174.697 92L166.506 117.21H140Z" fill="#0A0B09"/>
<path id="red" fill-rule="evenodd" clip-rule="evenodd" d="M25 92H325V25H25V92Z" fill="#BC242C"/>
</g>
</g>
</svg>
