<svg width="350" height="250" viewBox="0 0 350 250" fill="none" xmlns="http://www.w3.org/2000/svg">
<g id="flag / south america / brazil / b">
<g id="brazil b">
<g id="yellow">
<path fill-rule="evenodd" clip-rule="evenodd" d="M227.5 125C227.5 127.497 227.314 129.95 226.977 132.354C226.577 135.206 225.958 137.986 225.12 140.672C218.454 162.012 198.537 177.5 175 177.5C146.005 177.5 122.5 153.995 122.5 125C122.5 120.442 123.083 116.021 124.174 111.806C124.893 109.03 125.843 106.351 126.984 103.773C135.138 85.355 153.562 72.5 175 72.5C203.995 72.5 227.5 96.005 227.5 125ZM50.5 125L175 204.5L299.5 125L175 45.5L50.5 125Z" fill="white" fill-opacity="0.5"/>
<path d="M226.977 132.354L227.967 132.493L227.967 132.493L226.977 132.354ZM225.12 140.672L226.075 140.97L226.075 140.97L225.12 140.672ZM124.174 111.806L123.206 111.555L123.206 111.555L124.174 111.806ZM126.984 103.773L126.07 103.368L126.07 103.368L126.984 103.773ZM50.5 125L49.9618 124.157L48.6419 125L49.9618 125.843L50.5 125ZM175 204.5L174.462 205.343L175 205.686L175.538 205.343L175 204.5ZM299.5 125L300.038 125.843L301.358 125L300.038 124.157L299.5 125ZM175 45.5L175.538 44.6572L175 44.3135L174.462 44.6572L175 45.5ZM226.5 125C226.5 127.447 226.318 129.854 225.987 132.215L227.967 132.493C228.31 130.046 228.5 127.547 228.5 125H226.5ZM225.987 132.215C225.594 135.015 224.987 137.742 224.165 140.374L226.075 140.97C226.929 138.23 227.56 135.397 227.967 132.493L225.987 132.215ZM224.165 140.374C217.626 161.308 198.087 176.5 175 176.5V178.5C198.987 178.5 219.282 162.716 226.075 140.97L224.165 140.374ZM175 176.5C146.557 176.5 123.5 153.443 123.5 125H121.5C121.5 154.547 145.453 178.5 175 178.5V176.5ZM123.5 125C123.5 120.528 124.072 116.191 125.142 112.057L123.206 111.555C122.094 115.851 121.5 120.356 121.5 125H123.5ZM125.142 112.057C125.847 109.337 126.778 106.709 127.898 104.178L126.07 103.368C124.908 105.993 123.939 108.723 123.206 111.555L125.142 112.057ZM127.898 104.178C135.898 86.1081 153.972 73.5 175 73.5V71.5C153.152 71.5 134.378 84.6019 126.07 103.368L127.898 104.178ZM175 73.5C203.443 73.5 226.5 96.5573 226.5 125H228.5C228.5 95.4527 204.547 71.5 175 71.5V73.5ZM49.9618 125.843L174.462 205.343L175.538 203.657L51.0382 124.157L49.9618 125.843ZM175.538 205.343L300.038 125.843L298.962 124.157L174.462 203.657L175.538 205.343ZM300.038 124.157L175.538 44.6572L174.462 46.3428L298.962 125.843L300.038 124.157ZM174.462 44.6572L49.9618 124.157L51.0382 125.843L175.538 46.3428L174.462 44.6572Z" fill="white"/>
</g>
<g id="blue">
<mask id="path-3-outside-1_7_20456" maskUnits="userSpaceOnUse" x="120.5" y="70.5005" width="109" height="109" fill="black">
<rect fill="white" x="120.5" y="70.5005" width="109" height="109"/>
<path fill-rule="evenodd" clip-rule="evenodd" d="M145 102.5C138.884 102.5 132.871 102.94 126.984 103.773C135.138 85.3555 153.563 72.5005 175 72.5005C203.995 72.5005 227.5 96.0055 227.5 125C227.5 127.497 227.314 129.95 226.977 132.354C204.812 113.726 176.22 102.5 145 102.5ZM122.5 125C122.5 120.442 123.082 116.022 124.174 111.806C130.938 110.621 137.896 110 145 110C175.794 110 203.874 121.605 225.12 140.672C218.454 162.012 198.537 177.5 175 177.5C146.005 177.5 122.5 153.995 122.5 125Z"/>
</mask>
<path fill-rule="evenodd" clip-rule="evenodd" d="M145 102.5C138.884 102.5 132.871 102.94 126.984 103.773C135.138 85.3555 153.563 72.5005 175 72.5005C203.995 72.5005 227.5 96.0055 227.5 125C227.5 127.497 227.314 129.95 226.977 132.354C204.812 113.726 176.22 102.5 145 102.5ZM122.5 125C122.5 120.442 123.082 116.022 124.174 111.806C130.938 110.621 137.896 110 145 110C175.794 110 203.874 121.605 225.12 140.672C218.454 162.012 198.537 177.5 175 177.5C146.005 177.5 122.5 153.995 122.5 125Z" fill="white" fill-opacity="0.5"/>
<path d="M126.984 103.773L125.155 102.964L123.696 106.259L127.264 105.754L126.984 103.773ZM226.977 132.354L225.69 133.886L228.456 136.21L228.957 132.632L226.977 132.354ZM124.174 111.806L123.829 109.836L122.561 110.058L122.238 111.305L124.174 111.806ZM225.12 140.672L227.029 141.269L227.412 140.042L226.456 139.184L225.12 140.672ZM127.264 105.754C133.06 104.934 138.98 104.5 145 104.5V100.5C138.787 100.5 132.681 100.947 126.703 101.793L127.264 105.754ZM175 70.5005C152.742 70.5005 133.617 83.8493 125.155 102.964L128.812 104.583C136.658 86.8617 154.383 74.5005 175 74.5005V70.5005ZM229.5 125C229.5 94.9009 205.099 70.5005 175 70.5005V74.5005C202.89 74.5005 225.5 97.1101 225.5 125H229.5ZM228.957 132.632C229.306 130.143 229.5 127.597 229.5 125H225.5C225.5 127.398 225.321 129.758 224.996 132.077L228.957 132.632ZM145 104.5C175.731 104.5 203.871 115.549 225.69 133.886L228.263 130.823C205.752 111.904 176.708 100.5 145 100.5V104.5ZM122.238 111.305C121.104 115.683 120.5 120.271 120.5 125H124.5C124.5 120.613 125.06 116.362 126.11 112.308L122.238 111.305ZM145 108C137.779 108 130.706 108.632 123.829 109.836L124.519 113.776C131.17 112.611 138.013 112 145 112V108ZM226.456 139.184C204.857 119.801 176.306 108 145 108V112C175.282 112 202.891 123.41 223.784 142.161L226.456 139.184ZM175 179.5C199.437 179.5 220.11 163.42 227.029 141.269L223.211 140.076C216.798 160.605 197.637 175.5 175 175.5V179.5ZM120.5 125C120.5 155.1 144.9 179.5 175 179.5V175.5C147.11 175.5 124.5 152.891 124.5 125H120.5Z" fill="white" mask="url(#path-3-outside-1_7_20456)"/>
</g>
<g id="green">
<path fill-rule="evenodd" clip-rule="evenodd" d="M25 20.0005V230H264.999H272.5H325V20.0005H25ZM50.501 124.999L174.999 45.5005L299.5 124.999L174.999 204.5L50.501 124.999Z" fill="white" fill-opacity="0.5"/>
<path d="M25 20.0005V19.0005H24V20.0005H25ZM25 230H24V231H25V230ZM325 230V231H326V230H325ZM325 20.0005H326V19.0005H325V20.0005ZM50.501 124.999L49.9628 124.157L48.6429 124.999L49.9628 125.842L50.501 124.999ZM174.999 45.5005L175.537 44.6577L174.999 44.314L174.461 44.6577L174.999 45.5005ZM299.5 124.999L300.038 125.842L301.358 124.999L300.038 124.157L299.5 124.999ZM174.999 204.5L174.461 205.343L174.999 205.687L175.537 205.343L174.999 204.5ZM24 20.0005V230H26V20.0005H24ZM25 231H264.999V229H25V231ZM264.999 231H272.5V229H264.999V231ZM272.5 231H325V229H272.5V231ZM326 230V20.0005H324V230H326ZM325 19.0005H25V21.0005H325V19.0005ZM51.0392 125.842L175.537 46.3433L174.461 44.6577L49.9628 124.157L51.0392 125.842ZM174.461 46.3433L298.962 125.842L300.038 124.157L175.537 44.6577L174.461 46.3433ZM298.962 124.157L174.461 203.658L175.537 205.343L300.038 125.842L298.962 124.157ZM175.537 203.658L51.0392 124.157L49.9628 125.842L174.461 205.343L175.537 203.658Z" fill="white"/>
</g>
<path id="white" d="M126.844 102.783L126.294 102.861L126.069 103.369C124.908 105.992 123.939 108.724 123.206 111.555L122.816 113.058L124.346 112.791C131.055 111.616 137.955 111 145 111C175.539 111 203.383 122.507 224.452 141.417L225.61 142.456L226.074 140.971C226.93 138.231 227.56 135.397 227.967 132.493L228.044 131.945L227.62 131.589C205.282 112.815 176.463 101.5 145 101.5C138.836 101.5 132.776 101.944 126.844 102.783Z" fill="white" fill-opacity="0.5" stroke="white" stroke-width="2"/>
<g id="stars">
<path id="Fill 60" fill-rule="evenodd" clip-rule="evenodd" d="M190.346 110.145L191.457 109.338L192.568 110.145L192.143 108.838L193.254 108.032H191.881L191.457 106.726L191.033 108.032H189.659L190.77 108.838L190.346 110.145Z" fill="white" fill-opacity="0.5"/>
<path id="Fill 62" fill-rule="evenodd" clip-rule="evenodd" d="M132.648 114.876L132.144 113.321L131.638 114.876H130.003L131.326 115.837L130.82 117.392L132.144 116.432L133.466 117.392L132.96 115.837L134.283 114.876H132.648Z" fill="white" fill-opacity="0.5"/>
<path id="Fill 64" fill-rule="evenodd" clip-rule="evenodd" d="M188.462 123.634L189.377 122.969L190.292 123.634L189.942 122.558L190.858 121.893H189.727L189.377 120.818L189.032 121.893H187.896L188.811 122.558L188.462 123.634Z" fill="white" fill-opacity="0.5"/>
<path id="Fill 66" fill-rule="evenodd" clip-rule="evenodd" d="M142.098 134.21L141.886 133.556L141.673 134.21H140.985L141.545 134.603L141.329 135.269L141.886 134.864L142.442 135.269L142.23 134.614L142.786 134.21H142.098Z" fill="white" fill-opacity="0.5"/>
<path id="Fill 68" fill-rule="evenodd" clip-rule="evenodd" d="M137.292 136.948L136.787 135.393H136.778L136.28 136.948H134.646L135.969 137.909L135.464 139.464L136.787 138.503L138.109 139.464L137.604 137.909L138.926 136.948H137.292Z" fill="white" fill-opacity="0.5"/>
<path id="Fill 70" fill-rule="evenodd" clip-rule="evenodd" d="M130.778 141.777L130.357 140.482L129.936 141.777H128.574L129.676 142.578L129.255 143.874L130.357 143.073L131.459 143.874L131.038 142.578L132.141 141.777H130.778Z" fill="white" fill-opacity="0.5"/>
<path id="Fill 72" fill-rule="evenodd" clip-rule="evenodd" d="M153.953 128.583L155.033 127.798L156.113 128.583L155.7 127.313L156.78 126.528H155.445L155.033 125.259L154.62 126.528H153.286L154.365 127.313L153.953 128.583Z" fill="white" fill-opacity="0.5"/>
<path id="Fill 74" fill-rule="evenodd" clip-rule="evenodd" d="M146.841 144.103L147.837 143.379L148.833 144.103L148.452 142.932L149.448 142.208H148.217L147.837 141.038L147.456 142.208H146.225L147.221 142.932L146.841 144.103Z" fill="white" fill-opacity="0.5"/>
<path id="Fill 76" fill-rule="evenodd" clip-rule="evenodd" d="M145.659 148.366L145.31 149.442L146.225 148.777L147.14 149.442L146.79 148.366L147.705 147.702H146.574L146.225 146.626L145.88 147.702H144.743L145.659 148.366Z" fill="white" fill-opacity="0.5"/>
<path id="Fill 78" fill-rule="evenodd" clip-rule="evenodd" d="M152.651 154.4L153.974 153.438L155.296 154.4L154.791 152.844L156.113 151.883H154.479L153.974 150.33L153.468 151.883H151.834L153.156 152.844L152.651 154.4Z" fill="white" fill-opacity="0.5"/>
<path id="Fill 80" fill-rule="evenodd" clip-rule="evenodd" d="M173.889 135.149L175 134.341L176.112 135.149L175.687 133.843L176.798 133.037H175.418L175 131.73L174.576 133.037H173.202L174.313 133.843L173.889 135.149Z" fill="white" fill-opacity="0.5"/>
<path id="Fill 82" fill-rule="evenodd" clip-rule="evenodd" d="M168.779 139.506L169.692 138.839L170.61 139.506L170.259 138.43L171.175 137.765H170.044L169.695 136.69L169.344 137.765H168.213L169.129 138.43L168.779 139.506Z" fill="white" fill-opacity="0.5"/>
<path id="Fill 84" fill-rule="evenodd" clip-rule="evenodd" d="M171.765 142.443L172.322 142.04L172.878 142.443L172.665 141.789L173.223 141.384H172.534L172.322 140.73L172.109 141.384H171.421L171.977 141.789L171.765 142.443Z" fill="white" fill-opacity="0.5"/>
<path id="Fill 86" fill-rule="evenodd" clip-rule="evenodd" d="M179.957 139.739L181.068 138.931L182.179 139.739L181.754 138.432L182.866 137.626H181.492L181.068 136.32L180.65 137.626H179.27L180.381 138.432L179.957 139.739Z" fill="white" fill-opacity="0.5"/>
<path id="Fill 88" fill-rule="evenodd" clip-rule="evenodd" d="M175.505 148.112L175 146.557L174.502 148.112H172.86L174.183 149.073L173.677 150.628L175 149.667L176.322 150.628L175.817 149.073L177.14 148.112H175.505Z" fill="white" fill-opacity="0.5"/>
<path id="Fill 90" fill-rule="evenodd" clip-rule="evenodd" d="M175.129 165.847L174.966 165.348L174.807 165.847H174.28L174.705 166.155L174.543 166.654L174.967 166.345L175.391 166.654L175.229 166.155L175.653 165.847H175.129Z" fill="white" fill-opacity="0.5"/>
<path id="Fill 92" fill-rule="evenodd" clip-rule="evenodd" d="M185.644 155.729L186.559 155.065L187.474 155.729L187.124 154.653L188.04 153.989H186.909L186.559 152.913L186.214 153.989H185.078L185.993 154.653L185.644 155.729Z" fill="white" fill-opacity="0.5"/>
<path id="Fill 94" fill-rule="evenodd" clip-rule="evenodd" d="M190.269 159.751H188.896L190.007 160.558L189.582 161.864L190.693 161.057L191.805 161.864L191.38 160.558L192.491 159.751H191.118L190.693 158.445L190.269 159.751Z" fill="white" fill-opacity="0.5"/>
<path id="Fill 96" fill-rule="evenodd" clip-rule="evenodd" d="M194.322 156.922L195.237 156.257L196.152 156.922L195.802 155.846L196.718 155.181H195.587L195.237 154.106L194.892 155.181H193.756L194.671 155.846L194.322 156.922Z" fill="white" fill-opacity="0.5"/>
<path id="Fill 98" fill-rule="evenodd" clip-rule="evenodd" d="M200.16 155.179L201.075 154.515L201.99 155.179L201.64 154.104L202.556 153.439H201.425L201.075 152.363L200.725 153.439H199.594L200.509 154.104L200.16 155.179Z" fill="white" fill-opacity="0.5"/>
<path id="Fill 100" fill-rule="evenodd" clip-rule="evenodd" d="M200.099 160.516L201.21 159.708L202.321 160.516L201.896 159.209L203.008 158.403H201.634L201.21 157.097L200.786 158.403H199.412L200.524 159.209L200.099 160.516Z" fill="white" fill-opacity="0.5"/>
<path id="Fill 102" fill-rule="evenodd" clip-rule="evenodd" d="M201.679 163.886L201.335 162.81L200.99 163.886H199.853L200.769 164.551L200.419 165.627L201.335 164.962L202.25 165.627L201.9 164.551L202.815 163.886H201.679Z" fill="white" fill-opacity="0.5"/>
<path id="Fill 104" fill-rule="evenodd" clip-rule="evenodd" d="M205.646 156.118L206.561 155.453L207.476 156.118L207.126 155.042L208.042 154.377H206.911L206.561 153.302L206.211 154.377H205.08L205.995 155.042L205.646 156.118Z" fill="white" fill-opacity="0.5"/>
<path id="Fill 106" fill-rule="evenodd" clip-rule="evenodd" d="M209.651 153.771L210.762 152.963L211.873 153.771L211.449 152.465L212.56 151.659H211.187L210.762 150.352L210.344 151.659L208.996 151.652L208.964 151.659L210.076 152.465L209.651 153.771Z" fill="white" fill-opacity="0.5"/>
<path id="Fill 108" fill-rule="evenodd" clip-rule="evenodd" d="M213.493 147.562H212.12L213.231 148.369L212.806 149.675L213.918 148.868L215.029 149.675L214.604 148.37L215.715 147.562H214.342L213.917 146.256L213.493 147.562Z" fill="white" fill-opacity="0.5"/>
<path id="Fill 110" fill-rule="evenodd" clip-rule="evenodd" d="M210.455 145.21L211.777 144.249L213.1 145.21L212.595 143.655L213.917 142.694H212.283L211.777 141.141L211.272 142.694H209.638L210.96 143.655L210.455 145.21Z" fill="white" fill-opacity="0.5"/>
<path id="Fill 112" fill-rule="evenodd" clip-rule="evenodd" d="M218.213 145.228L219.128 144.563L220.043 145.228L219.693 144.153L220.609 143.488H219.478L219.128 142.412L218.783 143.488H217.647L218.562 144.153L218.213 145.228Z" fill="white" fill-opacity="0.5"/>
</g>
</g>
</g>
</svg>
