<svg width="350" height="250" viewBox="0 0 350 250" fill="none" xmlns="http://www.w3.org/2000/svg">
<g id="flag / africa / guinea-bissau / a">
<g id="guinea bissau a">
<path id="red" fill-rule="evenodd" clip-rule="evenodd" d="M125 50V199.94H25V50H125ZM65.918 127.951L51.224 117.275H69.387L75 100L80.613 117.275H98.776L84.082 127.951L89.695 145.226L75 134.549L60.305 145.226L65.918 127.951Z" fill="#BC242C"/>
<path id="yellow" fill-rule="evenodd" clip-rule="evenodd" d="M125 125H325V50H125V125Z" fill="#F6CD2B"/>
<path id="green" fill-rule="evenodd" clip-rule="evenodd" d="M125 199.94H325V125H125V199.94Z" fill="#0B9446"/>
<path id="black" fill-rule="evenodd" clip-rule="evenodd" d="M51.2236 117.275L65.9176 127.951L60.3046 145.226L74.9996 134.549L89.6946 145.226L84.0816 127.951L98.7756 117.275H80.6126L74.9996 100L69.3866 117.275H51.2236Z" fill="#0A0B09"/>
</g>
</g>
</svg>
