<svg width="350" height="250" viewBox="0 0 350 250" fill="none" xmlns="http://www.w3.org/2000/svg">
<g id="flag / oceania / palau / a">
<g id="palau a">
<path id="sky" fill-rule="evenodd" clip-rule="evenodd" d="M325 219H25V31.5H325V219ZM212.5 125.25C212.5 94.184 187.316 69 156.25 69C125.184 69 100 94.184 100 125.25C100 156.316 125.184 181.5 156.25 181.5C187.316 181.5 212.5 156.316 212.5 125.25Z" fill="#50A4C4"/>
<path id="yellow" fill-rule="evenodd" clip-rule="evenodd" d="M156.25 69C187.316 69 212.5 94.184 212.5 125.25C212.5 156.316 187.316 181.5 156.25 181.5C125.184 181.5 100 156.316 100 125.25C100 94.184 125.184 69 156.25 69Z" fill="#FBDB1E"/>
</g>
</g>
</svg>
