<svg version="1.2" xmlns="http://www.w3.org/2000/svg" viewBox="0 0 106 80" width="106" height="80">
	<title>lock-svg</title>
	<style>
		.s0 { opacity: .5;fill: #ffffff } 
		.s1 { fill: #1e243e } 
	</style>
	<path class="s0" d="m30 10h46c16.6 0 30 13.4 30 30 0 16.6-13.4 30-30 30h-46c-16.6 0-30-13.4-30-30 0-16.6 13.4-30 30-30z"/>
	<path class="s1" d="m57.9 29.1c-4 0-7.3-2.6-12.2-2.6-1.9 0-3.5 0.4-5.1 1 0.2-0.5 0.3-1.1 0.3-1.5 0-0.1-0.1-0.2-0.1-0.3 0-2.1-1.8-3.8-3.9-3.9-2.4-0.1-4.3 1.8-4.3 4.1 0 1.5 0.7 2.7 1.8 3.4v28.7c0 1 0.7 1.7 1.8 1.7h1.1c1 0 1.8-0.7 1.8-1.7v-7c2.1-0.9 4.7-1.6 8.5-1.6 4 0 7.3 2.6 12.2 2.6 3.6 0 6.5-1.3 9.2-3.1 0.6-0.4 1-1.2 1-1.9v-18.1c0-1.7-1.9-2.8-3.4-2.2-2.5 1.2-5.7 2.4-8.7 2.4z"/>
	<path fill-rule="evenodd" class="s1" d="m60 9.5v6c0 0.8-0.7 1.5-1.5 1.5h-11c-0.8 0-1.5-0.7-1.5-1.5v-6c0-0.8 0.7-1.5 1.5-1.5h0.8l-0.1-2.3c0-2.5 2.2-4.7 4.8-4.7 2.6 0 4.8 2.2 4.8 4.8v2.2h0.7c0.8 0 1.5 0.7 1.5 1.5zm-4.8-3.8c0.1-1.2-1-2.2-2.2-2.2-1.2 0-2.2 1-2.2 2.3v2.2h4.5z"/>
</svg>