<svg width="350" height="250" viewBox="0 0 350 250" fill="none" xmlns="http://www.w3.org/2000/svg">
<g id="flag / oceania / australia / a">
<g id="australia a">
<path id="navy" fill-rule="evenodd" clip-rule="evenodd" d="M175 50H325V200H25V125H39.5499L87.54 101V125H112V101L159.99 125H175V118.004L139 100H175V75.0255H139L175 57.0218V50ZM112.457 74.275V50H160.997L112.457 74.275ZM87.464 50V74.275L38.924 50H87.464ZM25.0005 56.971V74.9965H61.044L25.0005 56.971ZM25 99.995V118.021L61.044 99.995H25ZM100 140L104.339 153.49L117.591 148.472L109.749 160.275L121.936 167.507L107.818 168.735L109.762 182.772L100 172.5L90.238 182.772L92.182 168.735L78.064 167.507L90.251 160.275L82.409 148.472L95.661 153.49L100 140ZM252.066 170.71L250 164.286L247.934 170.71L241.623 168.32L245.357 173.94L239.554 177.384L246.277 177.969L245.351 184.653L250 179.762L254.649 184.653L253.723 177.969L260.446 177.384L254.642 173.94L258.377 168.32L252.066 170.71ZM212.5 104.911L214.566 111.335L220.877 108.945L217.142 114.565L222.946 118.009L216.223 118.594L217.149 125.278L212.5 120.387L207.851 125.278L208.777 118.594L202.054 118.009L207.857 114.565L204.123 108.945L210.434 111.335L212.5 104.911ZM252.066 70.71L250 64.286L247.934 70.71L241.623 68.32L245.357 73.94L239.554 77.384L246.277 77.969L245.351 84.653L250 79.762L254.649 84.653L253.723 77.969L260.446 77.384L254.642 73.94L258.377 68.32L252.066 70.71ZM283.333 94.911L285.399 101.335L291.71 98.945L287.976 104.565L293.779 108.009L287.056 108.594L287.982 115.278L283.333 110.387L278.684 115.278L279.61 108.594L272.888 108.009L278.691 104.565L274.956 98.945L281.267 101.335L283.333 94.911ZM266.633 129.003L265 125L263.367 129.003L259.056 129.319L262.358 132.108L261.326 136.306L265 134.028L268.674 136.306L267.642 132.108L270.944 129.319L266.633 129.003Z" fill="#282965"/>
<path id="white" fill-rule="evenodd" clip-rule="evenodd" d="M174.895 125H159.99L112 101V125H107.501V94.9776H175V100H139L175 118.004V125H174.895ZM175 79.9834H107.501V50H112.457V74.275L160.997 50H166.594L116.7 74.9965H125.027L175 50V57.0218L139 75.0255H175V79.9834ZM92.4993 50H87.464V74.275L38.924 50H25L74.9605 75.016H66.6335L25 54.1925V79.9834H92.4993V50ZM25 94.9776V99.995H61.044L25 118.021V124.991V125H39.5499L87.54 101V125H92.4993V94.9776H25ZM25 124.991L74.8945 99.9935H83.2215H83.3L33.327 124.991H25ZM25.0005 74.9965V56.971L61.044 74.9965H25.0005ZM124.935 99.984H133.262L174.895 120.808V125L124.935 99.984ZM100 140L104.339 153.49L117.591 148.472L109.749 160.275L121.936 167.507L107.818 168.735L109.762 182.772L100 172.5L90.238 182.772L92.182 168.735L78.064 167.507L90.251 160.275L82.409 148.472L95.661 153.49L100 140ZM252.066 170.71L250 164.286L247.934 170.71L241.623 168.32L245.357 173.94L239.554 177.384L246.277 177.969L245.351 184.653L250 179.762L254.649 184.653L253.723 177.969L260.446 177.384L254.642 173.94L258.377 168.32L252.066 170.71ZM212.5 104.911L214.566 111.335L220.877 108.945L217.142 114.565L222.946 118.009L216.223 118.594L217.149 125.278L212.5 120.387L207.851 125.278L208.777 118.594L202.054 118.009L207.857 114.565L204.123 108.945L210.434 111.335L212.5 104.911ZM252.066 70.71L250 64.286L247.934 70.71L241.623 68.32L245.357 73.94L239.554 77.384L246.277 77.969L245.351 84.653L250 79.762L254.649 84.653L253.723 77.969L260.446 77.384L254.642 73.94L258.377 68.32L252.066 70.71ZM283.333 94.911L285.399 101.335L291.71 98.945L287.976 104.565L293.779 108.009L287.056 108.594L287.982 115.278L283.333 110.387L278.684 115.278L279.61 108.594L272.888 108.009L278.691 104.565L274.956 98.945L281.267 101.335L283.333 94.911ZM266.633 129.003L265 125L263.367 129.003L259.056 129.319L262.358 132.108L261.326 136.306L265 134.028L268.674 136.306L267.642 132.108L270.944 129.319L266.633 129.003Z" fill="white"/>
<path id="red" fill-rule="evenodd" clip-rule="evenodd" d="M92.4993 94.9776V125H107.501V94.9776H175V79.9834H107.501V50H92.4993V79.9834H25V94.9776H92.4993ZM174.921 50H166.594L116.7 74.9965H125.027L175 50H174.921ZM74.8945 99.9935H83.2215H83.3L33.327 124.991H25L74.8945 99.9935ZM66.6335 75.016H74.9605L25 50V54.1925L66.6335 75.016ZM124.935 99.984H133.262L174.895 120.808V125L124.935 99.984Z" fill="#D9252A"/>
</g>
</g>
</svg>
