<svg width="350" height="250" viewBox="0 0 350 250" fill="none" xmlns="http://www.w3.org/2000/svg">
<g id="flag / north america / grenada / a">
<g id="grenada a">
<path id="red" fill-rule="evenodd" clip-rule="evenodd" d="M325 35V214.94H25V35H325ZM299.8 189.8H50.2V60.2H299.8V189.8ZM103.873 43.985L110.749 48.981L108.123 57.065L115 52.069L121.877 57.065L119.25 48.981L126.127 43.985H117.588L115 35.9L112.412 43.985H103.873ZM170.749 48.981L163.872 43.985H172.411L175 35.9L177.588 43.985H186.127L179.25 48.981L181.877 57.065L175 52.069L168.122 57.065L170.749 48.981ZM223.873 43.985L230.75 48.981L228.123 57.065L235 52.069L241.877 57.065L239.25 48.981L246.127 43.985H237.588L235 35.9L232.412 43.985H223.873ZM230.25 204.981L223.373 199.985H231.912L234.5 191.9L237.088 199.985H245.627L238.75 204.981L241.377 213.066L234.5 208.069L227.623 213.066L230.25 204.981ZM163.373 199.985L170.25 204.981L167.623 213.066L174.5 208.069L181.377 213.066L178.75 204.981L185.627 199.985H177.088L174.5 191.9L171.912 199.985H163.373ZM110.249 204.981L103.373 199.985H111.912L114.5 191.9L117.088 199.985H125.627L118.75 204.981L121.377 213.066L114.5 208.069L107.623 213.066L110.249 204.981ZM175 103.4C186.929 103.4 196.6 113.071 196.6 125C196.6 136.93 186.929 146.6 175 146.6C163.07 146.6 153.4 136.93 153.4 125C153.4 113.071 163.07 103.4 175 103.4ZM167.807 127.337L156.169 118.882H170.555L175 105.2L179.445 118.882H193.831L182.193 127.337L186.638 141.019L175 132.563L163.362 141.019L167.807 127.337ZM70.8364 132.242C73.1595 134.655 75.7722 136.666 78.199 137.684C78.2371 135.017 77.7619 131.959 76.9466 128.902C74.8971 126.987 72.5752 125.359 70.308 124.496C69.9796 126.93 70.2075 129.641 70.8364 132.242Z" fill="#BC242C"/>
<path id="green" fill-rule="evenodd" clip-rule="evenodd" d="M50.3854 60.2H50.2002V189.8L155.826 134.956C154.276 131.977 153.4 128.591 153.4 125C153.4 121.379 154.291 117.966 155.866 114.969L50.3854 60.2ZM194.048 114.806C195.677 117.842 196.6 121.313 196.6 125C196.6 128.591 195.724 131.976 194.174 134.956L299.8 189.8V60.2H299.215L194.048 114.806ZM70.8365 132.242C73.1597 134.655 75.7724 136.666 78.1992 137.684C78.2373 135.017 77.7621 131.959 76.9468 128.902C79.345 131.143 81.3702 133.776 82.4982 136.034C86.7823 120.476 77.4164 116.438 69.4343 112.996C65.98 111.507 62.7849 110.129 61.0672 107.978C62.3044 110.557 61.7464 114.265 61.143 118.276C59.8359 126.963 58.3153 137.068 74.3612 140.192C72.8133 138.08 71.5597 135.234 70.8365 132.242Z" fill="#137156"/>
<path id="yellow" fill-rule="evenodd" clip-rule="evenodd" d="M103.873 43.9849L110.749 48.9809L108.123 57.0649L115 52.0689L121.877 57.0649L119.25 48.9809L126.127 43.9849H117.588L115 35.8999L112.412 43.9849H103.873ZM155.866 114.969C159.479 108.091 166.691 103.4 175 103.4C183.242 103.4 190.407 108.017 194.048 114.806L299.6 59.9999H50L155.866 114.969ZM155.826 134.956L50.2 189.8H299.8L194.174 134.956C190.574 141.875 183.339 146.6 175 146.6C166.661 146.6 159.426 141.875 155.826 134.956ZM61.067 107.978C62.3042 110.557 61.7462 114.265 61.1428 118.276C59.8357 126.963 58.3151 137.068 74.361 140.192C71.467 136.244 69.602 129.728 70.308 124.496C75.228 126.368 80.406 131.846 82.498 136.034C86.7821 120.476 77.4162 116.438 69.4341 112.996C65.9798 111.507 62.7847 110.129 61.067 107.978ZM167.807 127.337L156.169 118.882H170.555L175 105.2L179.445 118.882H193.831L182.193 127.337L186.638 141.019L175 132.563L163.362 141.019L167.807 127.337ZM170.749 48.9809L163.872 43.9849H172.411L175 35.8999L177.588 43.9849H186.127L179.25 48.9809L181.877 57.0649L175 52.0689L168.122 57.0649L170.749 48.9809ZM223.873 43.9849L230.75 48.9809L228.123 57.0649L235 52.0689L241.877 57.0649L239.25 48.9809L246.127 43.9849H237.588L235 35.8999L232.412 43.9849H223.873ZM230.25 204.981L223.373 199.985H231.912L234.5 191.9L237.088 199.985H245.627L238.75 204.981L241.377 213.066L234.5 208.069L227.623 213.066L230.25 204.981ZM163.373 199.985L170.25 204.981L167.623 213.066L174.5 208.069L181.377 213.066L178.75 204.981L185.627 199.985H177.088L174.5 191.9L171.912 199.985H163.373ZM110.249 204.981L103.373 199.985H111.912L114.5 191.9L117.088 199.985H125.627L118.75 204.981L121.377 213.066L114.5 208.069L107.623 213.066L110.249 204.981Z" fill="#F6CD2B"/>
</g>
</g>
</svg>
