<svg width="350" height="250" viewBox="0 0 350 250" fill="none" xmlns="http://www.w3.org/2000/svg">
<g id="flag / asia / japan / a">
<g id="japan a">
<path id="white" fill-rule="evenodd" clip-rule="evenodd" d="M325 25V225H25V25H325ZM235 125C235 91.863 208.137 65 175 65C141.863 65 115 91.863 115 125C115 158.137 141.863 185 175 185C208.137 185 235 158.137 235 125Z" fill="#FFFFFE"/>
<path id="red" fill-rule="evenodd" clip-rule="evenodd" d="M175 65C208.137 65 235 91.863 235 125C235 158.137 208.137 185 175 185C141.863 185 115 158.137 115 125C115 91.863 141.863 65 175 65Z" fill="#A92532"/>
</g>
</g>
</svg>
