<svg width="350" height="250" viewBox="0 0 350 250" fill="none" xmlns="http://www.w3.org/2000/svg">
<g id="flag / north america / dominica / a">
<g id="dominica a">
<path id="green" fill-rule="evenodd" clip-rule="evenodd" d="M325 199.94H193.75V157.79C199.547 154.436 204.36 149.576 207.658 143.75H325V199.94ZM207.659 106.25H325V50H193.75V92.2099C199.543 95.5609 204.359 100.418 207.659 106.25ZM156.25 92.2093V50H25V106.25H142.341C145.639 100.423 150.452 95.563 156.25 92.2093ZM142.342 143.75H25V199.94H156.25V157.789C150.458 154.438 145.642 149.582 142.342 143.75ZM173.797 95.397C173.797 95.343 175 91.968 175 91.968L176.092 95.343C176.092 95.343 179.479 95.4438 179.739 95.4026C179.51 95.5345 176.857 97.61 176.857 97.61C176.857 97.61 178.225 101.482 178.17 101.373C178.115 101.262 175 99.05 175 99.05C175 99.05 172.073 101.092 171.893 101.252C172.009 101.044 173.087 97.61 173.087 97.61L170.245 95.452L173.797 95.397ZM171.893 101.252C171.891 101.256 171.889 101.259 171.887 101.261L171.886 101.262L171.885 101.262C171.883 101.262 171.886 101.259 171.893 101.252ZM179.755 95.397C179.755 95.3947 179.75 95.3967 179.739 95.4026C179.75 95.401 179.755 95.3991 179.755 95.397ZM175 158.117C175 158.117 176.202 154.742 176.202 154.688L179.755 154.633L176.912 152.475C176.912 152.475 177.991 149.041 178.107 148.832C178.114 148.825 178.117 148.822 178.115 148.822C178.113 148.822 178.111 148.825 178.107 148.832C177.927 148.992 175 151.038 175 151.038C175 151.038 171.885 148.822 171.83 148.712C171.775 148.603 173.143 152.475 173.143 152.475C173.143 152.475 170.49 154.55 170.261 154.682C170.25 154.684 170.245 154.686 170.245 154.688C170.245 154.69 170.25 154.688 170.261 154.682C170.52 154.641 173.907 154.742 173.907 154.742L175 158.117ZM192.43 103.865C192.43 103.92 191.227 107.295 191.227 107.295L190.132 103.92C190.132 103.92 186.75 103.818 186.488 103.859C186.719 103.727 189.367 101.653 189.367 101.653C189.367 101.653 188.002 97.78 188.057 97.89C188.11 98 191.227 100.212 191.227 100.212C191.227 100.212 194.154 98.1695 194.334 98.0099C194.218 98.2183 193.14 101.653 193.14 101.653L195.982 103.81L192.43 103.865ZM194.342 98C194.34 98 194.338 98.0033 194.334 98.0099C194.341 98.0034 194.344 98 194.342 98ZM186.472 103.865C186.472 103.867 186.477 103.865 186.488 103.859C186.477 103.861 186.472 103.863 186.472 103.865ZM201.75 138.058C201.75 138.058 202.952 134.683 202.952 134.627L206.505 134.572L203.662 132.415C203.662 132.415 204.746 128.976 204.858 128.772C204.864 128.766 204.867 128.763 204.865 128.763C204.863 128.763 204.861 128.766 204.858 128.772C204.683 128.929 201.75 130.975 201.75 130.975C201.75 130.975 198.635 128.763 198.58 128.652C198.525 128.542 199.892 132.415 199.892 132.415C199.892 132.415 197.244 134.488 197.011 134.621C197.001 134.623 196.995 134.625 196.995 134.627C196.995 134.629 197.001 134.627 197.011 134.621C197.275 134.58 200.657 134.683 200.657 134.683L201.75 138.058ZM149.447 135.508C149.447 135.562 148.245 138.935 148.245 138.935L147.152 135.562C147.152 135.562 143.772 135.459 143.506 135.502C143.74 135.366 146.387 133.292 146.387 133.292C146.387 133.292 145.02 129.42 145.075 129.532C145.13 129.643 148.245 131.855 148.245 131.855C148.245 131.855 151.172 129.813 151.352 129.653C151.236 129.861 150.157 133.292 150.157 133.292L153 135.45L149.447 135.508ZM151.36 129.643C151.358 129.643 151.356 129.646 151.352 129.653C151.359 129.646 151.362 129.643 151.36 129.643ZM143.49 135.508C143.49 135.51 143.496 135.508 143.506 135.502C143.496 135.504 143.49 135.506 143.49 135.508ZM157.96 107.655C157.96 107.655 159.163 104.28 159.163 104.225L162.715 104.17L159.873 102.012C159.873 102.012 160.951 98.5783 161.067 98.3699L161.072 98.3655L161.074 98.3633C161.076 98.3611 161.076 98.36 161.075 98.36C161.073 98.36 161.071 98.3634 161.067 98.3699C160.887 98.5295 157.96 100.572 157.96 100.572C157.96 100.572 154.842 98.36 154.79 98.25C154.735 98.14 156.1 102.012 156.1 102.012C156.1 102.012 153.452 104.087 153.221 104.219C153.21 104.221 153.205 104.223 153.205 104.225C153.205 104.227 153.21 104.225 153.221 104.219C153.483 104.178 156.865 104.28 156.865 104.28L157.96 107.655ZM146.83 115.465C146.83 115.41 148.032 112.035 148.032 112.035L149.125 115.41C149.125 115.41 152.51 115.512 152.772 115.471C152.541 115.603 149.89 117.677 149.89 117.677C149.89 117.677 151.257 121.55 151.202 121.44C151.147 121.33 148.032 119.117 148.032 119.117C148.032 119.117 145.102 121.163 144.926 121.32C145.038 121.114 146.12 117.677 146.12 117.677L143.277 115.52L146.83 115.465ZM144.918 121.33C144.92 121.33 144.922 121.327 144.926 121.32C144.918 121.327 144.916 121.33 144.918 121.33ZM152.788 115.465C152.788 115.463 152.783 115.465 152.772 115.471C152.783 115.469 152.788 115.467 152.788 115.465ZM158.487 142.742C158.487 142.742 157.285 146.115 157.285 146.173L153.732 146.228L156.575 148.385C156.575 148.385 155.496 151.816 155.381 152.025C155.374 152.032 155.371 152.035 155.373 152.035C155.375 152.035 155.377 152.032 155.381 152.025C155.561 151.865 158.487 149.822 158.487 149.822C158.487 149.822 161.603 152.035 161.657 152.145C161.712 152.258 160.347 148.385 160.347 148.385C160.347 148.385 162.989 146.313 163.225 146.179C163.236 146.177 163.242 146.175 163.242 146.173C163.242 146.173 163.242 146.172 163.241 146.172C163.241 146.172 163.24 146.172 163.238 146.172C163.235 146.173 163.231 146.176 163.225 146.179C162.957 146.219 159.58 146.115 159.58 146.115L158.487 142.742ZM200.357 114.647C200.357 114.59 201.56 111.218 201.56 111.218L202.652 114.59C202.652 114.59 206.032 114.693 206.298 114.653C206.064 114.787 203.417 116.86 203.417 116.86C203.417 116.86 204.785 120.732 204.73 120.62C204.675 120.51 201.56 118.298 201.56 118.298C201.56 118.298 198.631 120.342 198.453 120.5C198.567 120.293 199.647 116.86 199.647 116.86L196.805 114.702L200.357 114.647ZM198.453 120.5C198.449 120.507 198.447 120.51 198.445 120.51C198.444 120.51 198.444 120.509 198.445 120.508C198.447 120.506 198.449 120.504 198.453 120.5ZM206.298 114.653C206.304 114.65 206.308 114.648 206.311 114.647C206.314 114.646 206.315 114.646 206.315 114.647C206.315 114.649 206.309 114.651 206.298 114.653ZM191.815 142.452C191.815 142.452 190.612 145.827 190.612 145.883L187.06 145.937L189.902 148.095C189.902 148.095 188.824 151.527 188.708 151.735C188.701 151.742 188.698 151.745 188.7 151.745C188.702 151.745 188.704 151.742 188.708 151.735C188.888 151.575 191.815 149.532 191.815 149.532C191.815 149.532 194.93 151.745 194.985 151.857C195.04 151.968 193.672 148.095 193.672 148.095C193.672 148.095 196.323 146.02 196.554 145.889C196.565 145.887 196.57 145.885 196.57 145.883C196.57 145.881 196.564 145.883 196.554 145.889C196.292 145.929 192.907 145.827 192.907 145.827L191.815 142.452Z" fill="#14623C"/>
<path id="white" fill-rule="evenodd" clip-rule="evenodd" d="M181.25 199.94H193.75V157.79C189.955 159.985 185.739 161.534 181.25 162.287V199.94ZM142.342 143.75C140.19 139.949 138.683 135.733 137.969 131.25H25V143.75H142.342ZM181.25 87.7109V50H193.75V92.2099C189.952 90.013 185.735 88.4634 181.25 87.7109ZM212.032 131.25C211.319 135.729 209.811 139.945 207.658 143.75H325V131.25H212.032Z" fill="#FFFFFE"/>
<path id="black" fill-rule="evenodd" clip-rule="evenodd" d="M168.75 199.94H181.25V162.287C179.315 162.612 177.33 162.788 175.306 162.805C173.071 162.823 170.88 162.646 168.75 162.288V199.94ZM137.969 131.25C137.676 129.412 137.517 127.529 137.501 125.611C137.499 125.407 137.499 125.203 137.501 124.999C137.484 122.871 137.644 120.784 137.968 118.75H25V131.25H137.969ZM168.75 87.7116V50H181.25V87.7109C179.12 87.3534 176.929 87.1758 174.694 87.194C172.67 87.2105 170.685 87.3871 168.75 87.7116ZM212.032 118.75C212.324 120.587 212.483 122.47 212.499 124.387C212.501 124.591 212.501 124.795 212.499 124.999C212.516 127.127 212.356 129.216 212.032 131.25H325V118.75H212.032Z" fill="#0A0B09"/>
<path id="yellow" fill-rule="evenodd" clip-rule="evenodd" d="M156.25 199.94H168.75V162.288C164.265 161.535 160.048 159.986 156.25 157.789V199.94ZM137.968 118.75C138.681 114.271 140.188 110.055 142.341 106.25H25V118.75H137.968ZM156.25 92.2093V50H168.75V87.7116C164.261 88.4647 160.045 90.0143 156.25 92.2093ZM207.659 106.25C209.811 110.051 211.318 114.267 212.032 118.75H325V106.25H207.659Z" fill="#F6CD2B"/>
<path id="red" fill-rule="evenodd" clip-rule="evenodd" d="M212.499 124.999C212.668 145.71 196.016 162.636 175.306 162.805C154.596 162.974 137.67 146.321 137.501 125.611C137.499 125.407 137.499 125.203 137.501 124.999C137.332 104.289 153.984 87.3631 174.694 87.1941C195.404 87.0251 212.33 103.677 212.499 124.387C212.501 124.591 212.501 124.795 212.499 124.999ZM173.797 95.3971C173.797 95.3431 175 91.9681 175 91.9681L176.092 95.3431C176.092 95.3431 179.48 95.4439 179.739 95.4028C179.51 95.5346 176.857 97.6101 176.857 97.6101C176.857 97.6101 178.225 101.482 178.17 101.373C178.115 101.262 175 99.0501 175 99.0501C175 99.0501 172.073 101.093 171.893 101.252C172.009 101.044 173.087 97.6101 173.087 97.6101L170.245 95.4521L173.797 95.3971ZM171.885 101.262C171.887 101.262 171.889 101.259 171.893 101.252C171.886 101.259 171.883 101.262 171.885 101.262ZM179.755 95.3971C179.755 95.3948 179.75 95.3968 179.739 95.4028C179.75 95.4011 179.755 95.3993 179.755 95.3971ZM175 158.117C175 158.117 176.202 154.742 176.202 154.688L179.755 154.633L176.912 152.475C176.912 152.475 177.991 149.041 178.107 148.832C178.114 148.826 178.117 148.822 178.115 148.822C178.113 148.822 178.111 148.826 178.107 148.832C177.927 148.992 175 151.038 175 151.038C175 151.038 171.885 148.822 171.83 148.712C171.775 148.603 173.143 152.475 173.143 152.475C173.143 152.475 170.49 154.551 170.261 154.683C170.25 154.684 170.245 154.686 170.245 154.688C170.245 154.69 170.25 154.688 170.261 154.683C170.52 154.641 173.907 154.742 173.907 154.742L175 158.117ZM192.43 103.865C192.43 103.92 191.227 107.295 191.227 107.295L190.132 103.92C190.132 103.92 186.75 103.818 186.488 103.859C186.719 103.727 189.367 101.653 189.367 101.653C189.367 101.653 188.002 97.7801 188.057 97.8901C188.11 98.0001 191.227 100.212 191.227 100.212C191.227 100.212 194.154 98.1696 194.334 98.01C194.218 98.2184 193.14 101.653 193.14 101.653L195.982 103.81L192.43 103.865ZM194.342 98.0001C194.34 98.0001 194.338 98.0035 194.334 98.01C194.341 98.0035 194.344 98.0001 194.342 98.0001ZM186.472 103.865C186.472 103.868 186.478 103.866 186.488 103.859C186.477 103.861 186.472 103.863 186.472 103.865ZM201.75 138.058C201.75 138.058 202.952 134.683 202.952 134.627L206.505 134.572L203.662 132.415C203.662 132.415 204.746 128.976 204.858 128.773C204.865 128.766 204.867 128.763 204.865 128.763C204.863 128.763 204.861 128.766 204.858 128.773C204.683 128.929 201.75 130.975 201.75 130.975C201.75 130.975 198.635 128.763 198.58 128.652C198.525 128.542 199.892 132.415 199.892 132.415C199.892 132.415 197.244 134.488 197.011 134.621C197.001 134.623 196.995 134.625 196.995 134.627C196.995 134.63 197.001 134.628 197.011 134.621C197.275 134.581 200.657 134.683 200.657 134.683L201.75 138.058ZM149.447 135.508C149.447 135.562 148.245 138.935 148.245 138.935L147.152 135.562C147.152 135.562 143.772 135.459 143.506 135.502C143.74 135.366 146.387 133.292 146.387 133.292C146.387 133.292 145.02 129.42 145.075 129.532C145.13 129.643 148.245 131.855 148.245 131.855C148.245 131.855 151.172 129.813 151.352 129.653C151.236 129.861 150.157 133.292 150.157 133.292L153 135.45L149.447 135.508ZM151.36 129.643C151.358 129.643 151.356 129.647 151.352 129.653C151.359 129.647 151.362 129.643 151.36 129.643ZM143.49 135.508C143.49 135.511 143.496 135.508 143.506 135.502C143.496 135.504 143.49 135.506 143.49 135.508ZM157.96 107.655C157.96 107.655 159.163 104.28 159.163 104.225L162.715 104.17L159.873 102.012C159.873 102.012 160.951 98.5784 161.067 98.37C161.074 98.3635 161.077 98.3601 161.075 98.3601C161.073 98.3601 161.071 98.3635 161.067 98.37C160.887 98.5298 157.96 100.572 157.96 100.572C157.96 100.572 154.842 98.3601 154.79 98.2501C154.735 98.1401 156.1 102.012 156.1 102.012C156.1 102.012 153.452 104.087 153.221 104.219C153.21 104.221 153.205 104.223 153.205 104.225C153.205 104.228 153.211 104.226 153.221 104.219C153.483 104.178 156.865 104.28 156.865 104.28L157.96 107.655ZM146.83 115.465C146.83 115.41 148.032 112.035 148.032 112.035L149.125 115.41C149.125 115.41 152.51 115.512 152.772 115.471C152.541 115.603 149.89 117.677 149.89 117.677C149.89 117.677 151.257 121.55 151.202 121.44C151.147 121.33 148.032 119.117 148.032 119.117C148.032 119.117 145.102 121.163 144.926 121.321C145.038 121.115 146.12 117.677 146.12 117.677L143.277 115.52L146.83 115.465ZM144.918 121.33C144.92 121.33 144.922 121.327 144.926 121.321C144.918 121.327 144.916 121.33 144.918 121.33ZM152.788 115.465C152.788 115.463 152.783 115.465 152.772 115.471C152.783 115.469 152.788 115.467 152.788 115.465ZM158.487 142.742C158.487 142.742 157.285 146.115 157.285 146.173L153.732 146.228L156.575 148.385C156.575 148.385 155.496 151.816 155.381 152.025C155.378 152.028 155.375 152.03 155.374 152.032C155.372 152.034 155.372 152.035 155.373 152.035C155.375 152.035 155.377 152.032 155.381 152.025C155.561 151.865 158.487 149.822 158.487 149.822C158.487 149.822 161.603 152.035 161.657 152.145C161.712 152.258 160.347 148.385 160.347 148.385C160.347 148.385 162.989 146.314 163.225 146.179C163.236 146.177 163.242 146.175 163.242 146.173C163.242 146.171 163.236 146.173 163.225 146.179C162.957 146.219 159.58 146.115 159.58 146.115L158.487 142.742ZM200.357 114.647C200.357 114.59 201.56 111.218 201.56 111.218L202.652 114.59C202.652 114.59 206.032 114.694 206.298 114.653C206.064 114.787 203.417 116.86 203.417 116.86C203.417 116.86 204.785 120.732 204.73 120.62C204.675 120.51 201.56 118.298 201.56 118.298C201.56 118.298 198.631 120.342 198.453 120.5C198.567 120.294 199.647 116.86 199.647 116.86L196.805 114.702L200.357 114.647ZM198.453 120.5C198.451 120.504 198.449 120.507 198.448 120.508C198.447 120.51 198.446 120.51 198.445 120.51C198.443 120.51 198.446 120.507 198.453 120.5ZM206.298 114.653C206.309 114.647 206.315 114.645 206.315 114.647C206.315 114.648 206.313 114.649 206.31 114.65C206.307 114.651 206.303 114.652 206.298 114.653ZM191.815 142.452C191.815 142.452 190.612 145.827 190.612 145.883L187.06 145.937L189.902 148.095C189.902 148.095 188.824 151.527 188.708 151.735C188.701 151.742 188.698 151.745 188.7 151.745C188.702 151.745 188.704 151.742 188.708 151.735C188.888 151.575 191.815 149.532 191.815 149.532C191.815 149.532 194.93 151.745 194.985 151.857C195.04 151.968 193.672 148.095 193.672 148.095C193.672 148.095 196.323 146.021 196.554 145.889C196.565 145.887 196.57 145.885 196.57 145.883C196.57 145.881 196.565 145.883 196.554 145.889C196.292 145.929 192.907 145.827 192.907 145.827L191.815 142.452Z" fill="#C12533"/>
<g id="graphic">
<g id="star stroke">
<path id="Stroke 13" fill-rule="evenodd" clip-rule="evenodd" d="M173.797 95.3968C173.797 95.3428 175 91.9678 175 91.9678L176.092 95.3428C176.092 95.3428 179.755 95.4518 179.755 95.3968C179.755 95.3428 176.857 97.6098 176.857 97.6098C176.857 97.6098 178.225 101.482 178.17 101.373C178.115 101.262 175 99.0498 175 99.0498C175 99.0498 171.83 101.262 171.885 101.262C171.94 101.262 173.087 97.6098 173.087 97.6098L170.245 95.4518L173.797 95.3968Z" stroke="#0A0B09" stroke-width="0.5"/>
<path id="Stroke 15" fill-rule="evenodd" clip-rule="evenodd" d="M176.202 154.688C176.202 154.742 175 158.117 175 158.117L173.907 154.742C173.907 154.742 170.245 154.633 170.245 154.688C170.245 154.742 173.143 152.475 173.143 152.475C173.143 152.475 171.775 148.603 171.83 148.712C171.885 148.822 175 151.038 175 151.038C175 151.038 178.17 148.822 178.115 148.822C178.06 148.822 176.912 152.475 176.912 152.475L179.755 154.633L176.202 154.688Z" stroke="#0A0B09" stroke-width="0.5"/>
<path id="Stroke 17" fill-rule="evenodd" clip-rule="evenodd" d="M192.43 103.865C192.43 103.92 191.227 107.295 191.227 107.295L190.132 103.92C190.132 103.92 186.472 103.81 186.472 103.865C186.472 103.92 189.367 101.653 189.367 101.653C189.367 101.653 188.002 97.78 188.057 97.89C188.11 98 191.227 100.212 191.227 100.212C191.227 100.212 194.397 98 194.342 98C194.287 98 193.14 101.653 193.14 101.653L195.982 103.81L192.43 103.865Z" stroke="#0A0B09" stroke-width="0.5"/>
<path id="Stroke 19" fill-rule="evenodd" clip-rule="evenodd" d="M202.952 134.627C202.952 134.683 201.75 138.058 201.75 138.058L200.657 134.683C200.657 134.683 196.995 134.572 196.995 134.627C196.995 134.683 199.892 132.415 199.892 132.415C199.892 132.415 198.525 128.542 198.58 128.652C198.635 128.763 201.75 130.975 201.75 130.975C201.75 130.975 204.92 128.763 204.865 128.763C204.813 128.763 203.662 132.415 203.662 132.415L206.505 134.572L202.952 134.627Z" stroke="#0A0B09" stroke-width="0.5"/>
<path id="Stroke 21" fill-rule="evenodd" clip-rule="evenodd" d="M149.447 135.508C149.447 135.562 148.245 138.935 148.245 138.935L147.152 135.562C147.152 135.562 143.49 135.45 143.49 135.508C143.49 135.562 146.387 133.292 146.387 133.292C146.387 133.292 145.02 129.42 145.075 129.532C145.13 129.643 148.245 131.855 148.245 131.855C148.245 131.855 151.415 129.643 151.36 129.643C151.305 129.643 150.157 133.292 150.157 133.292L153 135.45L149.447 135.508Z" stroke="#0A0B09" stroke-width="0.5"/>
<path id="Stroke 23" fill-rule="evenodd" clip-rule="evenodd" d="M159.163 104.225C159.163 104.28 157.96 107.655 157.96 107.655L156.865 104.28C156.865 104.28 153.205 104.17 153.205 104.225C153.205 104.28 156.1 102.012 156.1 102.012C156.1 102.012 154.735 98.1399 154.79 98.2499C154.842 98.3599 157.96 100.572 157.96 100.572C157.96 100.572 161.13 98.3599 161.075 98.3599C161.02 98.3599 159.873 102.012 159.873 102.012L162.715 104.17L159.163 104.225Z" stroke="#0A0B09" stroke-width="0.5"/>
<path id="Stroke 25" fill-rule="evenodd" clip-rule="evenodd" d="M146.83 115.465C146.83 115.41 148.032 112.035 148.032 112.035L149.125 115.41C149.125 115.41 152.788 115.52 152.788 115.465C152.788 115.41 149.89 117.677 149.89 117.677C149.89 117.677 151.257 121.55 151.202 121.44C151.147 121.33 148.032 119.117 148.032 119.117C148.032 119.117 144.862 121.33 144.918 121.33C144.97 121.33 146.12 117.677 146.12 117.677L143.277 115.52L146.83 115.465Z" stroke="#0A0B09" stroke-width="0.5"/>
<path id="Stroke 27" fill-rule="evenodd" clip-rule="evenodd" d="M157.285 146.173C157.285 146.115 158.487 142.742 158.487 142.742L159.58 146.115C159.58 146.115 163.242 146.228 163.242 146.173C163.242 146.115 160.347 148.385 160.347 148.385C160.347 148.385 161.712 152.258 161.657 152.145C161.603 152.035 158.487 149.822 158.487 149.822C158.487 149.822 155.317 152.035 155.373 152.035C155.427 152.035 156.575 148.385 156.575 148.385L153.732 146.228L157.285 146.173Z" stroke="#0A0B09" stroke-width="0.5"/>
<path id="Stroke 29" fill-rule="evenodd" clip-rule="evenodd" d="M200.357 114.647C200.357 114.59 201.56 111.218 201.56 111.218L202.652 114.59C202.652 114.59 206.315 114.702 206.315 114.647C206.315 114.59 203.417 116.86 203.417 116.86C203.417 116.86 204.785 120.732 204.73 120.62C204.675 120.51 201.56 118.298 201.56 118.298C201.56 118.298 198.39 120.51 198.445 120.51C198.499 120.51 199.647 116.86 199.647 116.86L196.805 114.702L200.357 114.647Z" stroke="#0A0B09" stroke-width="0.5"/>
<path id="Stroke 31" fill-rule="evenodd" clip-rule="evenodd" d="M190.612 145.883C190.612 145.827 191.815 142.452 191.815 142.452L192.907 145.827C192.907 145.827 196.57 145.937 196.57 145.883C196.57 145.827 193.672 148.095 193.672 148.095C193.672 148.095 195.04 151.968 194.985 151.857C194.93 151.745 191.815 149.532 191.815 149.532C191.815 149.532 188.645 151.745 188.7 151.745C188.755 151.745 189.902 148.095 189.902 148.095L187.06 145.937L190.612 145.883Z" stroke="#0A0B09" stroke-width="0.5"/>
</g>
<g id="parrot">
<path id="Fill 42" fill-rule="evenodd" clip-rule="evenodd" d="M179.353 123.897C180.584 123.769 181.936 128.6 182.37 134.686C182.805 140.774 182.159 145.812 180.928 145.941C179.696 146.069 178.345 141.239 177.91 135.151C177.476 129.064 178.122 124.026 179.353 123.897Z" fill="#14623C"/>
<path id="Stroke 43" fill-rule="evenodd" clip-rule="evenodd" d="M179.353 123.897C180.584 123.769 181.936 128.6 182.37 134.686C182.805 140.774 182.159 145.812 180.928 145.941C179.696 146.069 178.345 141.239 177.91 135.151C177.476 129.064 178.122 124.026 179.353 123.897Z" stroke="#0A0B09" stroke-width="0.375"/>
<path id="Fill 44" fill-rule="evenodd" clip-rule="evenodd" d="M181.549 123.874C182.852 123.738 184.262 128.562 184.699 134.649C185.137 140.736 184.435 145.781 183.133 145.916C181.83 146.052 180.419 141.227 179.982 135.14C179.545 129.053 180.247 124.009 181.549 123.874Z" fill="#14623C"/>
<path id="Stroke 45" fill-rule="evenodd" clip-rule="evenodd" d="M181.549 123.874C182.852 123.738 184.262 128.562 184.699 134.649C185.137 140.736 184.435 145.781 183.133 145.916C181.83 146.052 180.419 141.227 179.982 135.14C179.545 129.053 180.247 124.009 181.549 123.874Z" stroke="#0A0B09" stroke-width="0.375"/>
<path id="Fill 46" fill-rule="evenodd" clip-rule="evenodd" d="M180.45 123.301C181.492 123.191 182.717 128.557 183.186 135.286C183.655 142.015 183.19 147.56 182.148 147.67C181.106 147.78 179.881 142.414 179.413 135.685C178.943 128.956 179.408 123.412 180.45 123.301Z" fill="#14623C"/>
<path id="Stroke 47" fill-rule="evenodd" clip-rule="evenodd" d="M180.45 123.301C181.492 123.191 182.717 128.557 183.186 135.286C183.655 142.015 183.19 147.56 182.148 147.67C181.106 147.78 179.881 142.414 179.413 135.685C178.943 128.956 179.408 123.412 180.45 123.301Z" stroke="#0A0B09" stroke-width="0.375"/>
<path id="Fill 48" fill-rule="evenodd" clip-rule="evenodd" d="M163.947 140.641C165.861 140.561 165.03 139.537 165.997 138.992C166.962 138.448 168.338 138.808 168.751 139.489C169.163 140.169 168.832 140.838 169.363 140.847C169.895 140.856 184.345 140.25 184.865 140.821C185.387 141.391 185.473 142.515 184.933 142.952C184.393 143.395 166.124 143.599 165.495 143.136C164.866 142.681 163.944 140.754 163.947 140.641Z" fill="#8C4728"/>
<path id="Stroke 49" fill-rule="evenodd" clip-rule="evenodd" d="M163.947 140.641C165.861 140.561 165.03 139.537 165.997 138.992C166.962 138.448 168.338 138.808 168.751 139.489C169.163 140.169 168.832 140.838 169.363 140.847C169.895 140.856 184.345 140.25 184.865 140.821C185.387 141.391 185.473 142.515 184.933 142.952C184.393 143.395 166.124 143.599 165.495 143.136C164.866 142.681 163.944 140.754 163.947 140.641Z" stroke="#0A0B09" stroke-width="0.375"/>
<path id="Fill 50" fill-rule="evenodd" clip-rule="evenodd" d="M174.156 142.049C174.121 143.493 176.256 143.084 176.286 144.29C176.222 145.568 172.705 144.368 172.671 142.029C172.817 139.693 176.259 138.539 176.302 139.873C176.333 140.981 174.19 140.604 174.156 142.049Z" fill="#F6CD2B"/>
<path id="Stroke 51" fill-rule="evenodd" clip-rule="evenodd" d="M174.156 142.049C174.121 143.493 176.256 143.084 176.286 144.29C176.222 145.568 172.705 144.368 172.671 142.029C172.817 139.693 176.259 138.539 176.302 139.873C176.333 140.981 174.19 140.604 174.156 142.049Z" stroke="#0A0B09" stroke-width="0.375"/>
<path id="Fill 52" fill-rule="evenodd" clip-rule="evenodd" d="M175.416 142.065C175.381 143.509 177.517 143.101 177.546 144.306C177.481 145.584 173.965 144.384 173.931 142.046C174.077 139.71 177.52 138.555 177.562 139.89C177.594 140.998 175.45 140.621 175.416 142.065Z" fill="#F6CD2B"/>
<path id="Stroke 53" fill-rule="evenodd" clip-rule="evenodd" d="M175.416 142.065C175.381 143.509 177.517 143.101 177.546 144.306C177.481 145.584 173.965 144.384 173.931 142.046C174.077 139.71 177.52 138.555 177.562 139.89C177.594 140.998 175.45 140.621 175.416 142.065Z" stroke="#0A0B09" stroke-width="0.375"/>
<path id="Fill 54" fill-rule="evenodd" clip-rule="evenodd" d="M176.768 142.015C176.733 143.458 178.868 143.049 178.898 144.255C178.833 145.534 175.316 144.333 175.283 141.995C175.429 139.659 178.871 138.504 178.914 139.839C178.945 140.947 176.802 140.57 176.768 142.015Z" fill="#F6CD2B"/>
<path id="Stroke 55" fill-rule="evenodd" clip-rule="evenodd" d="M176.768 142.015C176.733 143.458 178.868 143.049 178.898 144.255C178.833 145.534 175.316 144.333 175.283 141.995C175.429 139.659 178.871 138.504 178.914 139.839C178.945 140.947 176.802 140.57 176.768 142.015Z" stroke="#0A0B09" stroke-width="0.375"/>
<path id="Fill 56" fill-rule="evenodd" clip-rule="evenodd" d="M178.028 142.031C177.993 143.475 180.128 143.066 180.158 144.272C180.094 145.55 176.577 144.35 176.543 142.012C176.689 139.675 180.131 138.521 180.174 139.855C180.206 140.964 178.063 140.587 178.028 142.031Z" fill="#F6CD2B"/>
<path id="Stroke 57" fill-rule="evenodd" clip-rule="evenodd" d="M178.028 142.031C177.993 143.475 180.128 143.066 180.158 144.272C180.094 145.55 176.577 144.35 176.543 142.012C176.689 139.675 180.131 138.521 180.174 139.855C180.206 140.964 178.063 140.587 178.028 142.031Z" stroke="#0A0B09" stroke-width="0.375"/>
<path id="Fill 58" fill-rule="evenodd" clip-rule="evenodd" d="M184.064 140.61C184.738 140.62 185.272 141.183 185.258 141.866C185.243 142.549 184.686 143.095 184.013 143.085C183.339 143.074 182.805 142.512 182.819 141.829C182.834 141.145 183.392 140.6 184.064 140.61Z" fill="#8C4728"/>
<path id="Stroke 59" fill-rule="evenodd" clip-rule="evenodd" d="M184.064 140.61C184.738 140.62 185.272 141.183 185.258 141.866C185.243 142.549 184.686 143.095 184.013 143.085C183.339 143.074 182.805 142.512 182.819 141.829C182.834 141.145 183.392 140.6 184.064 140.61Z" stroke="#0A0B09" stroke-width="0.375"/>
<path id="Fill 60" fill-rule="evenodd" clip-rule="evenodd" d="M176.46 135.319C177.056 135.229 177.653 136.225 177.794 137.542C177.935 138.859 177.566 139.999 176.97 140.09C176.374 140.18 175.776 139.185 175.636 137.867C175.495 136.55 175.864 135.409 176.46 135.319Z" fill="#14623C"/>
<path id="Stroke 61" fill-rule="evenodd" clip-rule="evenodd" d="M176.46 135.319C177.056 135.229 177.653 136.225 177.794 137.542C177.935 138.859 177.566 139.999 176.97 140.09C176.374 140.18 175.776 139.185 175.636 137.867C175.495 136.55 175.864 135.409 176.46 135.319Z" stroke="#0A0B09" stroke-width="0.375"/>
<path id="Fill 62" fill-rule="evenodd" clip-rule="evenodd" d="M174.621 135.175C175.217 135.084 175.814 136.079 175.955 137.396C176.096 138.714 175.727 139.854 175.131 139.944C174.535 140.034 173.938 139.04 173.796 137.723C173.656 136.405 174.024 135.265 174.621 135.175Z" fill="#14623C"/>
<path id="Stroke 63" fill-rule="evenodd" clip-rule="evenodd" d="M174.621 135.175C175.217 135.084 175.814 136.079 175.955 137.396C176.096 138.714 175.727 139.854 175.131 139.944C174.535 140.034 173.938 139.04 173.796 137.723C173.656 136.405 174.024 135.265 174.621 135.175Z" stroke="#0A0B09" stroke-width="0.375"/>
<path id="Fill 64" fill-rule="evenodd" clip-rule="evenodd" d="M173.304 132.82C173.899 132.73 174.497 133.726 174.638 135.042C174.779 136.359 174.41 137.5 173.814 137.59C173.218 137.68 172.62 136.686 172.48 135.368C172.338 134.051 172.708 132.91 173.304 132.82Z" fill="#14623C"/>
<path id="Stroke 65" fill-rule="evenodd" clip-rule="evenodd" d="M173.304 132.82C173.899 132.73 174.497 133.726 174.638 135.042C174.779 136.359 174.41 137.5 173.814 137.59C173.218 137.68 172.62 136.686 172.48 135.368C172.338 134.051 172.708 132.91 173.304 132.82Z" stroke="#0A0B09" stroke-width="0.375"/>
<path id="Fill 66" fill-rule="evenodd" clip-rule="evenodd" d="M175.144 132.472C175.716 132.381 176.306 133.485 176.46 134.938C176.615 136.392 176.275 137.644 175.703 137.734C175.129 137.825 174.54 136.72 174.385 135.267C174.231 133.813 174.57 132.562 175.144 132.472Z" fill="#14623C"/>
<path id="Stroke 67" fill-rule="evenodd" clip-rule="evenodd" d="M175.144 132.472C175.716 132.381 176.306 133.485 176.46 134.938C176.615 136.392 176.275 137.644 175.703 137.734C175.129 137.825 174.54 136.72 174.385 135.267C174.231 133.813 174.57 132.562 175.144 132.472Z" stroke="#0A0B09" stroke-width="0.375"/>
<path id="Fill 68" fill-rule="evenodd" clip-rule="evenodd" d="M177.732 132.659C178.305 132.57 178.888 133.603 179.033 134.966C179.178 136.328 178.831 137.505 178.258 137.593C177.685 137.682 177.102 136.649 176.957 135.287C176.811 133.924 177.159 132.748 177.732 132.659Z" fill="#0D8B44"/>
<path id="Stroke 69" fill-rule="evenodd" clip-rule="evenodd" d="M177.732 132.659C178.305 132.57 178.888 133.603 179.033 134.966C179.178 136.328 178.831 137.505 178.258 137.593C177.685 137.682 177.102 136.649 176.957 135.287C176.811 133.924 177.159 132.748 177.732 132.659Z" stroke="#0A0B09" stroke-width="0.375"/>
<path id="Fill 70" fill-rule="evenodd" clip-rule="evenodd" d="M176.319 131.808C176.892 131.719 177.475 132.751 177.62 134.114C177.765 135.477 177.418 136.653 176.845 136.742C176.271 136.83 175.689 135.798 175.543 134.435C175.398 133.072 175.746 131.896 176.319 131.808Z" fill="#0D8B44"/>
<path id="Stroke 71" fill-rule="evenodd" clip-rule="evenodd" d="M176.319 131.808C176.892 131.719 177.475 132.751 177.62 134.114C177.765 135.477 177.418 136.653 176.845 136.742C176.271 136.83 175.689 135.798 175.543 134.435C175.398 133.072 175.746 131.896 176.319 131.808Z" stroke="#0A0B09" stroke-width="0.375"/>
<path id="Fill 72" fill-rule="evenodd" clip-rule="evenodd" d="M174.535 130.579C175.109 130.49 175.691 131.522 175.836 132.885C175.981 134.248 175.635 135.424 175.061 135.513C174.488 135.602 173.905 134.569 173.76 133.206C173.615 131.844 173.962 130.667 174.535 130.579Z" fill="#0D8B44"/>
<path id="Stroke 73" fill-rule="evenodd" clip-rule="evenodd" d="M174.535 130.579C175.109 130.49 175.691 131.522 175.836 132.885C175.981 134.248 175.635 135.424 175.061 135.513C174.488 135.602 173.905 134.569 173.76 133.206C173.615 131.844 173.962 130.667 174.535 130.579Z" stroke="#0A0B09" stroke-width="0.375"/>
<path id="Fill 74" fill-rule="evenodd" clip-rule="evenodd" d="M172.884 129.834C173.458 129.745 174.04 130.778 174.185 132.141C174.331 133.503 173.983 134.68 173.41 134.769C172.837 134.857 172.254 133.824 172.109 132.462C171.964 131.099 172.311 129.923 172.884 129.834Z" fill="#14623C"/>
<path id="Stroke 75" fill-rule="evenodd" clip-rule="evenodd" d="M172.884 129.834C173.458 129.745 174.04 130.778 174.185 132.141C174.331 133.503 173.983 134.68 173.41 134.769C172.837 134.857 172.254 133.824 172.109 132.462C171.964 131.099 172.311 129.923 172.884 129.834Z" stroke="#0A0B09" stroke-width="0.375"/>
<path id="Fill 76" fill-rule="evenodd" clip-rule="evenodd" d="M171.316 111.829C171.316 111.829 167.652 115.008 168.064 123.614C168.525 132.27 176.162 136.338 176.162 136.338C176.162 136.338 178.108 133.881 177.882 126.927C177.336 116.76 173.73 112.268 173.73 112.268L171.316 111.829Z" fill="#7E5B97"/>
<path id="Stroke 77" fill-rule="evenodd" clip-rule="evenodd" d="M171.316 111.829C171.316 111.829 167.652 115.008 168.064 123.614C168.525 132.27 176.162 136.338 176.162 136.338C176.162 136.338 178.108 133.881 177.882 126.927C177.336 116.76 173.73 112.268 173.73 112.268L171.316 111.829Z" stroke="#0A0B09" stroke-width="0.375"/>
<path id="Fill 78" fill-rule="evenodd" clip-rule="evenodd" d="M179.742 135.589C180.345 135.607 180.755 136.692 180.659 138.014C180.563 139.335 179.997 140.392 179.394 140.374C178.792 140.356 178.381 139.27 178.477 137.949C178.573 136.628 179.14 135.571 179.742 135.589Z" fill="#14623C"/>
<path id="Stroke 79" fill-rule="evenodd" clip-rule="evenodd" d="M179.742 135.589C180.345 135.607 180.755 136.692 180.659 138.014C180.563 139.335 179.997 140.392 179.394 140.374C178.792 140.356 178.381 139.27 178.477 137.949C178.573 136.628 179.14 135.571 179.742 135.589Z" stroke="#0A0B09" stroke-width="0.375"/>
<path id="Fill 80" fill-rule="evenodd" clip-rule="evenodd" d="M177.958 135.119C178.561 135.137 178.971 136.222 178.875 137.543C178.779 138.865 178.212 139.921 177.61 139.903C177.007 139.886 176.597 138.8 176.693 137.479C176.789 136.158 177.355 135.102 177.958 135.119Z" fill="#14623C"/>
<path id="Stroke 81" fill-rule="evenodd" clip-rule="evenodd" d="M177.958 135.119C178.561 135.137 178.971 136.222 178.875 137.543C178.779 138.865 178.212 139.921 177.61 139.903C177.007 139.886 176.597 138.8 176.693 137.479C176.789 136.158 177.355 135.102 177.958 135.119Z" stroke="#0A0B09" stroke-width="0.375"/>
<path id="Fill 82" fill-rule="evenodd" clip-rule="evenodd" d="M177.082 132.567C177.684 132.585 178.095 133.671 177.999 134.992C177.902 136.313 177.336 137.37 176.733 137.353C176.131 137.335 175.72 136.249 175.816 134.928C175.913 133.606 176.479 132.55 177.082 132.567Z" fill="#14623C"/>
<path id="Stroke 83" fill-rule="evenodd" clip-rule="evenodd" d="M177.082 132.567C177.684 132.585 178.095 133.671 177.999 134.992C177.902 136.313 177.336 137.37 176.733 137.353C176.131 137.335 175.72 136.249 175.816 134.928C175.913 133.606 176.479 132.55 177.082 132.567Z" stroke="#0A0B09" stroke-width="0.375"/>
<path id="Fill 84" fill-rule="evenodd" clip-rule="evenodd" d="M178.954 132.553C179.534 132.565 179.918 133.758 179.811 135.215C179.704 136.672 179.146 137.844 178.566 137.83C177.986 137.817 177.603 136.625 177.71 135.168C177.817 133.71 178.374 132.54 178.954 132.553Z" fill="#14623C"/>
<path id="Stroke 85" fill-rule="evenodd" clip-rule="evenodd" d="M178.954 132.553C179.534 132.565 179.918 133.758 179.811 135.215C179.704 136.672 179.146 137.844 178.566 137.83C177.986 137.817 177.603 136.625 177.71 135.168C177.817 133.71 178.374 132.54 178.954 132.553Z" stroke="#0A0B09" stroke-width="0.375"/>
<path id="Fill 86" fill-rule="evenodd" clip-rule="evenodd" d="M181.468 133.198C182.048 133.213 182.437 134.333 182.337 135.7C182.237 137.066 181.686 138.162 181.106 138.147C180.526 138.132 180.137 137.013 180.237 135.645C180.337 134.279 180.888 133.184 181.468 133.198Z" fill="#14623C"/>
<path id="Stroke 87" fill-rule="evenodd" clip-rule="evenodd" d="M181.468 133.198C182.048 133.213 182.437 134.333 182.337 135.7C182.237 137.066 181.686 138.162 181.106 138.147C180.526 138.132 180.137 137.013 180.237 135.645C180.337 134.279 180.888 133.184 181.468 133.198Z" stroke="#0A0B09" stroke-width="0.375"/>
<path id="Fill 88" fill-rule="evenodd" clip-rule="evenodd" d="M180.229 132.108C180.809 132.123 181.198 133.243 181.098 134.61C180.999 135.977 180.447 137.072 179.867 137.058C179.287 137.042 178.898 135.922 178.998 134.556C179.098 133.189 179.649 132.094 180.229 132.108Z" fill="#14623C"/>
<path id="Stroke 89" fill-rule="evenodd" clip-rule="evenodd" d="M180.229 132.108C180.809 132.123 181.198 133.243 181.098 134.61C180.999 135.977 180.447 137.072 179.867 137.058C179.287 137.042 178.898 135.922 178.998 134.556C179.098 133.189 179.649 132.094 180.229 132.108Z" stroke="#0A0B09" stroke-width="0.375"/>
<path id="Fill 90" fill-rule="evenodd" clip-rule="evenodd" d="M178.693 130.582C179.273 130.597 179.663 131.717 179.563 133.083C179.462 134.45 178.911 135.545 178.332 135.53C177.751 135.516 177.362 134.395 177.462 133.029C177.563 131.662 178.113 130.566 178.693 130.582Z" fill="#14623C"/>
<path id="Stroke 91" fill-rule="evenodd" clip-rule="evenodd" d="M178.693 130.582C179.273 130.597 179.663 131.717 179.563 133.083C179.462 134.45 178.911 135.545 178.332 135.53C177.751 135.516 177.362 134.395 177.462 133.029C177.563 131.662 178.113 130.566 178.693 130.582Z" stroke="#0A0B09" stroke-width="0.375"/>
<path id="Fill 92" fill-rule="evenodd" clip-rule="evenodd" d="M177.201 129.555C177.781 129.569 178.17 130.689 178.07 132.056C177.97 133.423 177.419 134.519 176.839 134.504C176.259 134.488 175.87 133.369 175.97 132.002C176.07 130.635 176.621 129.54 177.201 129.555Z" fill="#14623C"/>
<path id="Stroke 93" fill-rule="evenodd" clip-rule="evenodd" d="M177.201 129.555C177.781 129.569 178.17 130.689 178.07 132.056C177.97 133.423 177.419 134.519 176.839 134.504C176.259 134.488 175.87 133.369 175.97 132.002C176.07 130.635 176.621 129.54 177.201 129.555Z" stroke="#0A0B09" stroke-width="0.375"/>
<path id="Fill 94" fill-rule="evenodd" clip-rule="evenodd" d="M175.345 117.892C176.938 117.277 179.903 120.684 181.969 125.501C184.035 130.319 184.419 134.723 182.827 135.338C181.234 135.953 178.269 132.546 176.203 127.728C174.137 122.911 173.753 118.507 175.345 117.892Z" fill="#C12533"/>
<path id="Stroke 95" fill-rule="evenodd" clip-rule="evenodd" d="M175.345 117.892C176.938 117.277 179.903 120.684 181.969 125.501C184.035 130.319 184.419 134.723 182.827 135.338C181.234 135.953 178.269 132.546 176.203 127.728C174.137 122.911 173.753 118.507 175.345 117.892Z" stroke="#0A0B09" stroke-width="0.375"/>
<path id="Fill 96" fill-rule="evenodd" clip-rule="evenodd" d="M176.73 116.508C177.474 116.521 178.068 117.065 178.057 117.722C178.045 118.379 177.432 118.902 176.688 118.888C175.943 118.875 175.349 118.331 175.36 117.674C175.372 117.017 175.985 116.494 176.73 116.508Z" fill="#0D8B44"/>
<path id="Stroke 97" fill-rule="evenodd" clip-rule="evenodd" d="M176.73 116.508C177.474 116.521 178.068 117.065 178.057 117.722C178.045 118.379 177.432 118.902 176.688 118.888C175.943 118.875 175.349 118.331 175.36 117.674C175.372 117.017 175.985 116.494 176.73 116.508Z" stroke="#0A0B09" stroke-width="0.375"/>
<path id="Fill 98" fill-rule="evenodd" clip-rule="evenodd" d="M177.743 114.825C178.41 114.837 178.941 115.379 178.93 116.036C178.918 116.694 178.368 117.217 177.701 117.205C177.034 117.194 176.502 116.651 176.514 115.993C176.526 115.336 177.076 114.813 177.743 114.825Z" fill="#0D8B44"/>
<path id="Stroke 99" fill-rule="evenodd" clip-rule="evenodd" d="M177.743 114.825C178.41 114.837 178.941 115.379 178.93 116.036C178.918 116.694 178.368 117.217 177.701 117.205C177.034 117.194 176.502 116.651 176.514 115.993C176.526 115.336 177.076 114.813 177.743 114.825Z" stroke="#0A0B09" stroke-width="0.375"/>
<path id="Fill 100" fill-rule="evenodd" clip-rule="evenodd" d="M176.114 114.796C176.781 114.808 177.313 115.35 177.301 116.008C177.289 116.665 176.739 117.188 176.072 117.176C175.404 117.165 174.873 116.622 174.885 115.965C174.896 115.307 175.447 114.784 176.114 114.796Z" fill="#0D8B44"/>
<path id="Stroke 101" fill-rule="evenodd" clip-rule="evenodd" d="M176.114 114.796C176.781 114.808 177.313 115.35 177.301 116.008C177.289 116.665 176.739 117.188 176.072 117.176C175.404 117.165 174.873 116.622 174.885 115.965C174.896 115.307 175.447 114.784 176.114 114.796Z" stroke="#0A0B09" stroke-width="0.375"/>
<path id="Fill 102" fill-rule="evenodd" clip-rule="evenodd" d="M176.472 113.635C177.17 113.648 177.727 114.158 177.716 114.776C177.705 115.393 177.13 115.883 176.432 115.871C175.734 115.858 175.177 115.348 175.188 114.73C175.199 114.113 175.774 113.623 176.472 113.635Z" fill="#14623C"/>
<path id="Stroke 103" fill-rule="evenodd" clip-rule="evenodd" d="M176.472 113.635C177.17 113.648 177.727 114.158 177.716 114.776C177.705 115.393 177.13 115.883 176.432 115.871C175.734 115.858 175.177 115.348 175.188 114.73C175.199 114.113 175.774 113.623 176.472 113.635Z" stroke="#0A0B09" stroke-width="0.375"/>
<path id="Fill 104" fill-rule="evenodd" clip-rule="evenodd" d="M176.328 112.224C177.026 112.236 177.583 112.746 177.572 113.364C177.561 113.981 176.987 114.471 176.289 114.458C175.59 114.446 175.034 113.936 175.044 113.319C175.056 112.701 175.63 112.211 176.328 112.224Z" fill="#14623C"/>
<path id="Stroke 105" fill-rule="evenodd" clip-rule="evenodd" d="M176.328 112.224C177.026 112.236 177.583 112.746 177.572 113.364C177.561 113.981 176.987 114.471 176.289 114.458C175.59 114.446 175.034 113.936 175.044 113.319C175.056 112.701 175.63 112.211 176.328 112.224Z" stroke="#0A0B09" stroke-width="0.375"/>
<path id="Fill 106" fill-rule="evenodd" clip-rule="evenodd" d="M174.558 113.844C175.225 113.856 175.756 114.399 175.744 115.056C175.732 115.714 175.182 116.237 174.515 116.225C173.848 116.213 173.317 115.671 173.329 115.013C173.34 114.356 173.891 113.833 174.558 113.844Z" fill="#14623C"/>
<path id="Stroke 107" fill-rule="evenodd" clip-rule="evenodd" d="M174.558 113.844C175.225 113.856 175.756 114.399 175.744 115.056C175.732 115.714 175.182 116.237 174.515 116.225C173.848 116.213 173.317 115.671 173.329 115.013C173.34 114.356 173.891 113.833 174.558 113.844Z" stroke="#0A0B09" stroke-width="0.375"/>
<path id="Fill 108" fill-rule="evenodd" clip-rule="evenodd" d="M174.921 112.344C175.588 112.356 176.12 112.888 176.108 113.532C176.097 114.176 175.547 114.688 174.88 114.676C174.213 114.665 173.682 114.133 173.693 113.489C173.705 112.845 174.254 112.332 174.921 112.344Z" fill="#14623C"/>
<path id="Stroke 109" fill-rule="evenodd" clip-rule="evenodd" d="M174.921 112.344C175.588 112.356 176.12 112.888 176.108 113.532C176.097 114.176 175.547 114.688 174.88 114.676C174.213 114.665 173.682 114.133 173.693 113.489C173.705 112.845 174.254 112.332 174.921 112.344Z" stroke="#0A0B09" stroke-width="0.375"/>
<path id="Fill 110" fill-rule="evenodd" clip-rule="evenodd" d="M172.926 112.357C173.671 112.371 174.265 112.914 174.253 113.572C174.241 114.229 173.628 114.751 172.884 114.738C172.139 114.725 171.545 114.181 171.557 113.524C171.568 112.866 172.182 112.344 172.926 112.357Z" fill="#14623C"/>
<path id="Stroke 111" fill-rule="evenodd" clip-rule="evenodd" d="M172.926 112.357C173.671 112.371 174.265 112.914 174.253 113.572C174.241 114.229 173.628 114.751 172.884 114.738C172.139 114.725 171.545 114.181 171.557 113.524C171.568 112.866 172.182 112.344 172.926 112.357Z" stroke="#0A0B09" stroke-width="0.375"/>
<path id="Fill 112" fill-rule="evenodd" clip-rule="evenodd" d="M175.404 110.457C176.103 110.47 176.66 110.98 176.648 111.597C176.638 112.215 176.063 112.705 175.365 112.693C174.667 112.68 174.109 112.17 174.121 111.552C174.132 110.935 174.707 110.445 175.404 110.457Z" fill="#14623C"/>
<path id="Stroke 113" fill-rule="evenodd" clip-rule="evenodd" d="M175.404 110.457C176.103 110.47 176.66 110.98 176.648 111.597C176.638 112.215 176.063 112.705 175.365 112.693C174.667 112.68 174.109 112.17 174.121 111.552C174.132 110.935 174.707 110.445 175.404 110.457Z" stroke="#0A0B09" stroke-width="0.375"/>
<path id="Fill 114" fill-rule="evenodd" clip-rule="evenodd" d="M173.716 110.622C174.383 110.634 174.914 111.166 174.903 111.81C174.891 112.453 174.341 112.966 173.674 112.954C173.007 112.942 172.476 112.41 172.487 111.766C172.499 111.123 173.049 110.61 173.716 110.622Z" fill="#14623C"/>
<path id="Stroke 115" fill-rule="evenodd" clip-rule="evenodd" d="M173.716 110.622C174.383 110.634 174.914 111.166 174.903 111.81C174.891 112.453 174.341 112.966 173.674 112.954C173.007 112.942 172.476 112.41 172.487 111.766C172.499 111.123 173.049 110.61 173.716 110.622Z" stroke="#0A0B09" stroke-width="0.375"/>
<path id="Fill 116" fill-rule="evenodd" clip-rule="evenodd" d="M171.155 112.423C171.822 112.435 172.353 112.978 172.341 113.635C172.33 114.292 171.78 114.816 171.113 114.804C170.445 114.792 169.914 114.249 169.926 113.592C169.938 112.935 170.488 112.411 171.155 112.423Z" fill="#14623C"/>
<path id="Stroke 117" fill-rule="evenodd" clip-rule="evenodd" d="M171.155 112.423C171.822 112.435 172.353 112.978 172.341 113.635C172.33 114.292 171.78 114.816 171.113 114.804C170.445 114.792 169.914 114.249 169.926 113.592C169.938 112.935 170.488 112.411 171.155 112.423Z" stroke="#0A0B09" stroke-width="0.375"/>
<path id="Fill 118" fill-rule="evenodd" clip-rule="evenodd" d="M171.574 111.559C172.241 111.571 172.773 112.103 172.761 112.747C172.75 113.391 172.2 113.903 171.533 113.891C170.866 113.88 170.334 113.348 170.346 112.704C170.357 112.06 170.907 111.547 171.574 111.559Z" fill="#14623C"/>
<path id="Stroke 119" fill-rule="evenodd" clip-rule="evenodd" d="M171.574 111.559C172.241 111.571 172.773 112.103 172.761 112.747C172.75 113.391 172.2 113.903 171.533 113.891C170.866 113.88 170.334 113.348 170.346 112.704C170.357 112.06 170.907 111.547 171.574 111.559Z" stroke="#0A0B09" stroke-width="0.375"/>
<path id="Fill 120" fill-rule="evenodd" clip-rule="evenodd" d="M172.087 110.578C172.754 110.59 173.286 111.122 173.274 111.766C173.263 112.41 172.712 112.922 172.045 112.91C171.378 112.898 170.847 112.367 170.858 111.723C170.87 111.079 171.42 110.566 172.087 110.578Z" fill="#14623C"/>
<path id="Stroke 121" fill-rule="evenodd" clip-rule="evenodd" d="M172.087 110.578C172.754 110.59 173.286 111.122 173.274 111.766C173.263 112.41 172.712 112.922 172.045 112.91C171.378 112.898 170.847 112.367 170.858 111.723C170.87 111.079 171.42 110.566 172.087 110.578Z" stroke="#0A0B09" stroke-width="0.375"/>
<path id="Fill 122" fill-rule="evenodd" clip-rule="evenodd" d="M175.522 114.751C177.564 114.03 181.218 118.095 183.684 123.832C186.149 129.567 186.492 134.802 184.45 135.523C182.408 136.244 178.754 132.179 176.289 126.442C173.823 120.706 173.48 115.472 175.522 114.751Z" fill="#14623C"/>
<path id="Stroke 123" fill-rule="evenodd" clip-rule="evenodd" d="M175.522 114.751C177.564 114.03 181.218 118.095 183.684 123.832C186.149 129.567 186.492 134.802 184.45 135.523C182.408 136.244 178.754 132.179 176.289 126.442C173.823 120.706 173.48 115.472 175.522 114.751Z" stroke="#0A0B09" stroke-width="0.375"/>
<path id="Fill 124" fill-rule="evenodd" clip-rule="evenodd" d="M182.244 124.79C182.623 124.61 183.362 125.432 183.895 126.625C184.429 127.819 184.555 128.933 184.176 129.113C183.798 129.293 183.059 128.471 182.525 127.277C181.992 126.083 181.866 124.969 182.244 124.79Z" fill="#14623C"/>
<path id="Stroke 125" fill-rule="evenodd" clip-rule="evenodd" d="M182.244 124.79C182.623 124.61 183.362 125.432 183.895 126.625C184.429 127.819 184.555 128.933 184.176 129.113C183.798 129.293 183.059 128.471 182.525 127.277C181.992 126.083 181.866 124.969 182.244 124.79Z" stroke="#0A0B09" stroke-width="0.375"/>
<path id="Fill 126" fill-rule="evenodd" clip-rule="evenodd" d="M182.865 126.95C186.068 130.849 185.664 133.325 185.33 135.421C184.324 133.005 183.774 131.484 180.571 127.584C177.368 123.684 178.966 120.947 179.186 119.505C179.668 120.753 179.662 123.05 182.865 126.95Z" fill="#14623C"/>
<path id="Stroke 127" fill-rule="evenodd" clip-rule="evenodd" d="M182.865 126.95C186.068 130.849 185.664 133.325 185.33 135.421C184.324 133.005 183.774 131.484 180.571 127.584C177.368 123.684 178.966 120.947 179.186 119.505C179.668 120.753 179.662 123.05 182.865 126.95Z" stroke="#0A0B09" stroke-width="0.375"/>
<path id="Fill 128" fill-rule="evenodd" clip-rule="evenodd" d="M183.154 130.1C186.356 133.999 185.952 136.476 185.618 138.57C184.612 136.154 184.063 134.634 180.859 130.733C177.656 126.833 179.255 124.097 179.475 122.655C179.957 123.903 179.951 126.199 183.154 130.1Z" fill="#14623C"/>
<path id="Stroke 129" fill-rule="evenodd" clip-rule="evenodd" d="M183.154 130.1C186.356 133.999 185.952 136.476 185.618 138.57C184.612 136.154 184.063 134.634 180.859 130.733C177.656 126.833 179.255 124.097 179.475 122.655C179.957 123.903 179.951 126.199 183.154 130.1Z" stroke="#0A0B09" stroke-width="0.375"/>
<path id="Fill 130" fill-rule="evenodd" clip-rule="evenodd" d="M183.25 132.637C186.53 136.467 186.175 138.951 185.883 141.053C184.829 138.659 184.249 137.15 180.969 133.319C177.688 129.488 179.232 126.718 179.423 125.271C179.93 126.509 179.97 128.805 183.25 132.637Z" fill="#14623C"/>
<path id="Stroke 131" fill-rule="evenodd" clip-rule="evenodd" d="M183.25 132.637C186.53 136.467 186.175 138.951 185.883 141.053C184.829 138.659 184.249 137.15 180.969 133.319C177.688 129.488 179.232 126.718 179.423 125.271C179.93 126.509 179.97 128.805 183.25 132.637Z" stroke="#0A0B09" stroke-width="0.375"/>
<path id="Fill 132" fill-rule="evenodd" clip-rule="evenodd" d="M179.272 119.423C180.022 119.232 181.393 120.801 182.333 122.929C183.273 125.056 183.428 126.936 182.677 127.126C181.927 127.317 180.557 125.747 179.617 123.62C178.676 121.493 178.522 119.614 179.272 119.423Z" fill="#14623C"/>
<path id="Stroke 133" fill-rule="evenodd" clip-rule="evenodd" d="M179.272 119.423C180.022 119.232 181.393 120.801 182.333 122.929C183.273 125.056 183.428 126.936 182.677 127.126C181.927 127.317 180.557 125.747 179.617 123.62C178.676 121.493 178.522 119.614 179.272 119.423Z" stroke="#0A0B09" stroke-width="0.375"/>
<path id="Fill 134" fill-rule="evenodd" clip-rule="evenodd" d="M178.38 122.251C179.055 122.135 180.194 123.469 180.925 125.23C181.656 126.991 181.702 128.513 181.027 128.629C180.352 128.745 179.212 127.411 178.481 125.65C177.751 123.889 177.705 122.367 178.38 122.251Z" fill="#14623C"/>
<path id="Stroke 135" fill-rule="evenodd" clip-rule="evenodd" d="M178.38 122.251C179.055 122.135 180.194 123.469 180.925 125.23C181.656 126.991 181.702 128.513 181.027 128.629C180.352 128.745 179.212 127.411 178.481 125.65C177.751 123.889 177.705 122.367 178.38 122.251Z" stroke="#0A0B09" stroke-width="0.375"/>
<path id="Fill 136" fill-rule="evenodd" clip-rule="evenodd" d="M176.928 123.696C177.605 123.594 178.717 124.952 179.412 126.728C180.106 128.504 180.12 130.026 179.442 130.128C178.766 130.229 177.654 128.872 176.959 127.096C176.265 125.32 176.251 123.798 176.928 123.696Z" fill="#14623C"/>
<path id="Stroke 137" fill-rule="evenodd" clip-rule="evenodd" d="M176.928 123.696C177.605 123.594 178.717 124.952 179.412 126.728C180.106 128.504 180.12 130.026 179.442 130.128C178.766 130.229 177.654 128.872 176.959 127.096C176.265 125.32 176.251 123.798 176.928 123.696Z" stroke="#0A0B09" stroke-width="0.375"/>
<path id="Fill 138" fill-rule="evenodd" clip-rule="evenodd" d="M178.305 119.206C178.851 119.106 179.802 120.089 180.43 121.402C181.058 122.715 181.125 123.86 180.58 123.96C180.034 124.06 179.083 123.077 178.455 121.764C177.827 120.451 177.76 119.306 178.305 119.206Z" fill="#14623C"/>
<path id="Stroke 139" fill-rule="evenodd" clip-rule="evenodd" d="M178.305 119.206C178.851 119.106 179.802 120.089 180.43 121.402C181.058 122.715 181.125 123.86 180.58 123.96C180.034 124.06 179.083 123.077 178.455 121.764C177.827 120.451 177.76 119.306 178.305 119.206Z" stroke="#0A0B09" stroke-width="0.375"/>
<path id="Fill 140" fill-rule="evenodd" clip-rule="evenodd" d="M177.168 120.135C177.719 120.065 178.607 121.099 179.153 122.444C179.698 123.788 179.693 124.935 179.143 125.005C178.592 125.075 177.703 124.041 177.158 122.697C176.612 121.352 176.617 120.205 177.168 120.135Z" fill="#14623C"/>
<path id="Stroke 141" fill-rule="evenodd" clip-rule="evenodd" d="M177.168 120.135C177.719 120.065 178.607 121.099 179.153 122.444C179.698 123.788 179.693 124.935 179.143 125.005C178.592 125.075 177.703 124.041 177.158 122.697C176.612 121.352 176.617 120.205 177.168 120.135Z" stroke="#0A0B09" stroke-width="0.375"/>
<path id="Fill 142" fill-rule="evenodd" clip-rule="evenodd" d="M177.155 121.058C178.102 123.372 178.485 125.452 178.01 125.702C177.535 125.952 176.381 124.277 175.435 121.964" fill="#14623C"/>
<path id="Stroke 143" d="M177.155 121.058C178.102 123.372 178.485 125.452 178.01 125.702C177.535 125.952 176.381 124.277 175.435 121.964" stroke="#0A0B09" stroke-width="0.375"/>
<path id="Fill 144" fill-rule="evenodd" clip-rule="evenodd" d="M177.012 117.417C177.563 117.347 178.452 118.381 178.997 119.726C179.542 121.07 179.538 122.217 178.987 122.287C178.436 122.357 177.547 121.323 177.002 119.979C176.457 118.634 176.461 117.487 177.012 117.417Z" fill="#14623C"/>
<path id="Stroke 145" fill-rule="evenodd" clip-rule="evenodd" d="M177.012 117.417C177.563 117.347 178.452 118.381 178.997 119.726C179.542 121.07 179.538 122.217 178.987 122.287C178.436 122.357 177.547 121.323 177.002 119.979C176.457 118.634 176.461 117.487 177.012 117.417Z" stroke="#0A0B09" stroke-width="0.375"/>
<path id="Fill 146" fill-rule="evenodd" clip-rule="evenodd" d="M175.481 118.162C176.034 118.103 176.899 119.153 177.414 120.508C177.929 121.863 177.899 123.009 177.347 123.069C176.794 123.128 175.929 122.077 175.414 120.722C174.899 119.367 174.929 118.221 175.481 118.162Z" fill="#14623C"/>
<path id="Stroke 147" fill-rule="evenodd" clip-rule="evenodd" d="M175.481 118.162C176.034 118.103 176.899 119.153 177.414 120.508C177.929 121.863 177.899 123.009 177.347 123.069C176.794 123.128 175.929 122.077 175.414 120.722C174.899 119.367 174.929 118.221 175.481 118.162Z" stroke="#0A0B09" stroke-width="0.375"/>
<path id="Fill 148" fill-rule="evenodd" clip-rule="evenodd" d="M175.506 117.916C176.426 119.479 176.921 120.939 176.611 121.175C176.301 121.41 175.304 120.333 174.384 118.769" fill="#14623C"/>
<path id="Stroke 149" d="M175.506 117.916C176.426 119.479 176.921 120.939 176.611 121.175C176.301 121.41 175.304 120.333 174.384 118.769" stroke="#0A0B09" stroke-width="0.375"/>
<path id="Fill 150" fill-rule="evenodd" clip-rule="evenodd" d="M176.143 116.879C177.063 118.442 177.558 119.902 177.248 120.138C176.938 120.374 175.94 119.296 175.021 117.732" fill="#14623C"/>
<path id="Stroke 151" d="M176.143 116.879C177.063 118.442 177.558 119.902 177.248 120.138C176.938 120.374 175.94 119.296 175.021 117.732" stroke="#0A0B09" stroke-width="0.375"/>
<path id="Fill 152" fill-rule="evenodd" clip-rule="evenodd" d="M179.003 117.098C180.284 119.234 180.974 121.228 180.542 121.551C180.11 121.873 178.72 120.401 177.439 118.266" fill="#14623C"/>
<path id="Stroke 153" d="M179.003 117.098C180.284 119.234 180.974 121.228 180.542 121.551C180.11 121.873 178.72 120.401 177.439 118.266" stroke="#0A0B09" stroke-width="0.375"/>
<path id="Fill 154" fill-rule="evenodd" clip-rule="evenodd" d="M177.113 115.979C178.036 117.706 178.535 119.316 178.225 119.576C177.916 119.835 176.916 118.644 175.993 116.918" fill="#14623C"/>
<path id="Stroke 155" d="M177.113 115.979C178.036 117.706 178.535 119.316 178.225 119.576C177.916 119.835 176.916 118.644 175.993 116.918" stroke="#0A0B09" stroke-width="0.375"/>
<path id="Fill 156" fill-rule="evenodd" clip-rule="evenodd" d="M177.031 113.478C176.415 114.099 177.018 115.259 177.582 115.679C178.215 116.252 181.768 120 184.274 116.847C182.266 116.81 178.518 112.096 177.031 113.478Z" fill="#7E5B97"/>
<path id="Stroke 157" fill-rule="evenodd" clip-rule="evenodd" d="M177.031 113.478C176.415 114.099 177.018 115.259 177.582 115.679C178.215 116.252 181.768 120 184.274 116.847C182.266 116.81 178.518 112.096 177.031 113.478Z" stroke="#0A0B09" stroke-width="0.375"/>
<path id="Fill 158" fill-rule="evenodd" clip-rule="evenodd" d="M176.592 111.629C175.976 112.249 176.579 113.409 177.144 113.829C177.776 114.403 181.329 118.15 183.835 114.997C181.827 114.96 178.079 110.246 176.592 111.629Z" fill="#7E5B97"/>
<path id="Stroke 159" fill-rule="evenodd" clip-rule="evenodd" d="M176.592 111.629C175.976 112.249 176.579 113.409 177.144 113.829C177.776 114.403 181.329 118.15 183.835 114.997C181.827 114.96 178.079 110.246 176.592 111.629Z" stroke="#0A0B09" stroke-width="0.375"/>
<path id="Fill 160" fill-rule="evenodd" clip-rule="evenodd" d="M176.03 109.856C175.414 110.477 176.018 111.637 176.582 112.056C177.214 112.63 180.768 116.378 183.274 113.224C181.266 113.188 177.517 108.473 176.03 109.856Z" fill="#7E5B97"/>
<path id="Stroke 161" fill-rule="evenodd" clip-rule="evenodd" d="M176.03 109.856C175.414 110.477 176.018 111.637 176.582 112.056C177.214 112.63 180.768 116.378 183.274 113.224C181.266 113.188 177.517 108.473 176.03 109.856Z" stroke="#0A0B09" stroke-width="0.375"/>
<path id="Fill 162" fill-rule="evenodd" clip-rule="evenodd" d="M174.81 107.828C174.194 108.449 174.797 109.609 175.361 110.029C175.994 110.602 179.547 114.35 182.054 111.197C180.045 111.16 176.297 106.446 174.81 107.828Z" fill="#7E5B97"/>
<path id="Stroke 163" fill-rule="evenodd" clip-rule="evenodd" d="M174.81 107.828C174.194 108.449 174.797 109.609 175.361 110.029C175.994 110.602 179.547 114.35 182.054 111.197C180.045 111.16 176.297 106.446 174.81 107.828Z" stroke="#0A0B09" stroke-width="0.375"/>
<path id="Fill 164" fill-rule="evenodd" clip-rule="evenodd" d="M170.432 105.888C171.702 104.943 174.035 104.667 175.852 105.592C177.366 106.334 179.889 109.36 181.786 110.076C180.451 110.314 179.639 110.113 178.785 109.703C177.101 110.923 176.501 111.106 174.783 111.345C172.395 111.69 170.414 111.068 169.717 109.823C169.007 108.648 169.313 106.763 170.432 105.888Z" fill="#7E5B97"/>
<path id="Stroke 165" fill-rule="evenodd" clip-rule="evenodd" d="M170.432 105.888C171.702 104.943 174.035 104.667 175.852 105.592C177.366 106.334 179.889 109.36 181.786 110.076C180.451 110.314 179.639 110.113 178.785 109.703C177.101 110.923 176.501 111.106 174.783 111.345C172.395 111.69 170.414 111.068 169.717 109.823C169.007 108.648 169.313 106.763 170.432 105.888Z" stroke="#0A0B09" stroke-width="0.375"/>
<path id="Fill 166" fill-rule="evenodd" clip-rule="evenodd" d="M173.137 107.138C173.741 107.149 174.226 107.442 174.219 107.792C174.213 108.142 173.718 108.418 173.114 108.407C172.51 108.396 172.025 108.103 172.032 107.753C172.038 107.403 172.533 107.127 173.137 107.138Z" fill="#C12533"/>
<path id="Stroke 167" fill-rule="evenodd" clip-rule="evenodd" d="M173.137 107.138C173.741 107.149 174.226 107.442 174.219 107.792C174.213 108.142 173.718 108.418 173.114 108.407C172.51 108.396 172.025 108.103 172.032 107.753C172.038 107.403 172.533 107.127 173.137 107.138Z" stroke="#0A0B09" stroke-width="0.375"/>
<path id="Fill 168" fill-rule="evenodd" clip-rule="evenodd" d="M169.467 109.469C170.256 109.175 171.04 109.327 171.219 109.808C171.397 110.29 170.902 110.917 170.113 111.211C169.324 111.505 168.54 111.353 168.361 110.871C168.183 110.39 168.678 109.762 169.467 109.469Z" fill="#F6CD2B"/>
<path id="Stroke 169" fill-rule="evenodd" clip-rule="evenodd" d="M169.467 109.469C170.256 109.175 171.04 109.327 171.219 109.808C171.397 110.29 170.902 110.917 170.113 111.211C169.324 111.505 168.54 111.353 168.361 110.871C168.183 110.39 168.678 109.762 169.467 109.469Z" stroke="#0A0B09" stroke-width="0.375"/>
<path id="Fill 170" fill-rule="evenodd" clip-rule="evenodd" d="M173.076 107.39C173.293 107.394 173.467 107.549 173.463 107.737C173.46 107.925 173.281 108.074 173.064 108.07C172.847 108.066 172.674 107.911 172.677 107.723C172.68 107.535 172.859 107.386 173.076 107.39Z" fill="#0A0B09"/>
<path id="Fill 171" fill-rule="evenodd" clip-rule="evenodd" d="M170.718 108.621C170.818 109.109 170.457 109.767 169.673 110C168.874 110.331 168.268 111.081 167.919 112.307C166.705 109.511 167.477 108.328 168.766 108.04C169.875 107.686 170.543 107.731 170.718 108.621Z" fill="#F6CD2B"/>
<path id="Stroke 172" fill-rule="evenodd" clip-rule="evenodd" d="M170.718 108.621C170.818 109.109 170.457 109.767 169.673 110C168.874 110.331 168.268 111.081 167.919 112.307C166.705 109.511 167.477 108.328 168.766 108.04C169.875 107.686 170.543 107.731 170.718 108.621Z" stroke="#0A0B09" stroke-width="0.375"/>
<path id="Fill 173" fill-rule="evenodd" clip-rule="evenodd" d="M169.531 108.549C169.684 108.541 169.815 108.662 169.824 108.819C169.833 108.976 169.715 109.11 169.562 109.118C169.409 109.126 169.277 109.005 169.269 108.848C169.26 108.691 169.377 108.557 169.531 108.549Z" fill="#0A0B09"/>
</g>
</g>
</g>
</g>
</svg>
