<svg width="350" height="250" viewBox="0 0 350 250" fill="none" xmlns="http://www.w3.org/2000/svg">
<g id="flag / africa / cameroon / a">
<g id="cameroon a">
<path id="green" fill-rule="evenodd" clip-rule="evenodd" d="M25 225H125V25H25V225Z" fill="#137156"/>
<path id="red" fill-rule="evenodd" clip-rule="evenodd" d="M225 25V225H125V25H225ZM165.313 128.147L149.638 116.759H169.101L175 98.333L180.899 116.759H200.361L184.687 128.147L190.674 146.574L175 135.186L159.326 146.574L165.313 128.147Z" fill="#BC242C"/>
<path id="yellow" fill-rule="evenodd" clip-rule="evenodd" d="M325 225H225V25H325V225ZM165.313 128.147L149.638 116.759H169.101L175 98.333L180.899 116.759H200.361L184.687 128.147L190.674 146.574L175 135.186L159.326 146.574L165.313 128.147Z" fill="#F6CD2B"/>
</g>
</g>
</svg>
