<svg width="19" height="18" viewBox="0 0 19 18" fill="none" xmlns="http://www.w3.org/2000/svg">
<path d="M7.92188 1.61719C7.53125 2.00781 7.57031 2.59375 7.92188 2.98438L12.6484 7.4375H1.4375C0.890625 7.4375 0.5 7.86719 0.5 8.375V9.625C0.5 10.1719 0.890625 10.5625 1.4375 10.5625H12.6484L7.92188 15.0547C7.57031 15.4453 7.57031 16.0312 7.92188 16.4219L8.78125 17.2812C9.17188 17.6328 9.75781 17.6328 10.1094 17.2812L17.7266 9.66406C18.0781 9.3125 18.0781 8.72656 17.7266 8.33594L10.1094 0.757812C9.75781 0.40625 9.17188 0.40625 8.78125 0.757812L7.92188 1.61719Z" fill="#1E243E"/>
</svg>
