<svg width="18" height="19" viewBox="0 0 18 19" fill="none" xmlns="http://www.w3.org/2000/svg">
<path d="M10.2891 16.9219C10.6797 16.5312 10.6406 15.9453 10.2891 15.5547L5.5625 11.0625H16.8125C17.3203 11.0625 17.75 10.6719 17.75 10.125V8.875C17.75 8.36719 17.3203 7.9375 16.8125 7.9375H5.5625L10.2891 3.48438C10.6406 3.09375 10.6797 2.50781 10.2891 2.11719L9.42969 1.25781C9.07812 0.90625 8.45312 0.90625 8.10156 1.25781L0.523438 8.875C0.132812 9.22656 0.132812 9.8125 0.523438 10.1641L8.10156 17.7812C8.45312 18.1328 9.03906 18.1328 9.42969 17.7812L10.2891 16.9219Z" fill="#1E243E"/>
</svg>
