<svg width="28" height="25" viewBox="0 0 28 25" fill="none" xmlns="http://www.w3.org/2000/svg">
<path d="M23.2344 0H19.4844L22.7188 7.5H27.5L23.2344 0ZM17.2344 0H10.7188L7.48438 7.5H20.4688L17.2344 0ZM4.71875 0L0.5 7.5H5.23438L8.46875 0H4.71875ZM0.5 9L10.7188 20.9531C10.8594 21.0938 11.0469 20.9531 10.9531 20.8125L5.1875 9H0.5ZM7.4375 9L13.8594 23.9531C13.9062 24.0469 14.0469 24.0469 14.0938 23.9531L20.5156 9H7.4375ZM17 20.8125C16.9062 20.9531 17.1406 21.0938 17.2344 20.9531L27.5 9H22.7656L17 20.8125Z" fill="#1E243E"/>
</svg>
