<svg width="20" height="21" viewBox="0 0 20 21" fill="none" xmlns="http://www.w3.org/2000/svg">
<path d="M13.6328 4.86719C11.5234 4.86719 9.80469 3.5 7.1875 3.5C6.21094 3.5 5.35156 3.69531 4.53125 4.00781C4.60938 3.77344 4.6875 3.42188 4.6875 3.22656C4.6875 3.1875 4.64844 3.10938 4.64844 3.07031C4.60938 1.97656 3.67188 1.07812 2.57812 1.03906C1.32812 0.960938 0.3125 1.97656 0.3125 3.1875C0.3125 3.96875 0.664062 4.59375 1.25 4.98438V20.0625C1.25 20.6094 1.64062 21 2.1875 21H2.8125C3.32031 21 3.75 20.6094 3.75 20.0625V16.3906C4.84375 15.9219 6.21094 15.5312 8.20312 15.5312C10.3125 15.5312 12.0312 16.8984 14.6484 16.8984C16.5234 16.8984 18.0469 16.2344 19.4531 15.2969C19.7656 15.0625 20 14.6719 20 14.2812V4.75C20 3.85156 19.0234 3.26562 18.2031 3.61719C16.875 4.24219 15.2344 4.86719 13.6328 4.86719Z" fill="#1E243E"/>
</svg>
