<svg width="24" height="22" viewBox="0 0 24 22" fill="none" xmlns="http://www.w3.org/2000/svg">
<path d="M1.5 20C1.5 20.8438 2.15625 21.5 3 21.5H10.5V14H1.5V20ZM13.5 21.5H21C21.7969 21.5 22.5 20.8438 22.5 20V14H13.5V21.5ZM22.5 6.5H20.4844C20.8125 5.9375 21 5.32812 21 4.625C21 2.375 19.125 0.5 16.875 0.5C14.9062 0.5 13.6406 1.53125 12.0469 3.73438C10.4062 1.53125 9.14062 0.5 7.21875 0.5C4.92188 0.5 3.09375 2.375 3.09375 4.625C3.09375 5.32812 3.23438 5.9375 3.5625 6.5H1.5C0.65625 6.5 0 7.20312 0 8V11.75C0 12.1719 0.328125 12.5 0.75 12.5H23.25C23.625 12.5 24 12.1719 24 11.75V8C24 7.20312 23.2969 6.5 22.5 6.5ZM7.17188 6.5C6.14062 6.5 5.29688 5.70312 5.29688 4.625C5.29688 3.59375 6.14062 2.75 7.17188 2.75C8.10938 2.75 8.8125 2.9375 11.25 6.5H7.17188ZM16.875 6.5H12.7969C15.2344 2.9375 15.8906 2.75 16.875 2.75C17.9062 2.75 18.75 3.59375 18.75 4.625C18.75 5.70312 17.9062 6.5 16.875 6.5Z" fill="#1E243E"/>
</svg>
