<svg width="32" height="26" viewBox="0 0 32 26" fill="none" xmlns="http://www.w3.org/2000/svg">
<path d="M30.6719 22.5156L24.1562 17.4531C24.2031 17.2188 24.25 16.9375 24.25 16.6562C24.25 11.4531 19.5625 9.48438 17.3594 2.07812C16.9844 0.71875 15.0156 0.625 14.5938 2.07812C13.8906 4.51562 12.8594 6.39062 11.875 7.9375L3.10938 1.1875C2.78125 0.90625 2.3125 1 2.07812 1.32812L1.14062 2.5C0.859375 2.82812 0.953125 3.29688 1.28125 3.53125L28.8438 24.8594C29.1719 25.1406 29.6406 25.0469 29.9219 24.7188L30.8125 23.5469C31.0938 23.2188 31 22.75 30.6719 22.5156ZM7.75 16.6562C7.75 21.2969 11.4062 25 16 25C18.0625 25 19.9844 24.25 21.4375 22.9375L8.59375 13C8.07812 14.125 7.75 15.2969 7.75 16.6562Z" fill="#1E243E"/>
</svg>
