<svg width="24" height="19" viewBox="0 0 24 19" fill="none" xmlns="http://www.w3.org/2000/svg">
<path d="M11.6875 5.32031L4.5 11.2578V17.625C4.5 17.9766 4.77344 18.25 5.125 18.25H9.5C9.8125 18.25 10.0859 17.9766 10.0859 17.625V13.875C10.0859 13.5625 10.3984 13.25 10.7109 13.25H13.2109C13.5625 13.25 13.8359 13.5625 13.8359 13.875V17.625C13.8359 17.9766 14.1484 18.25 14.4609 18.25H18.875C19.1875 18.25 19.5 17.9766 19.5 17.625V11.2188L12.2734 5.32031C12.1953 5.24219 12.0781 5.20312 12 5.20312C11.8828 5.20312 11.7656 5.24219 11.6875 5.32031ZM23.0547 9.34375L19.8125 6.64844V1.25781C19.8125 0.984375 19.5781 0.789062 19.3438 0.789062H17.1562C16.8828 0.789062 16.6875 0.984375 16.6875 1.25781V4.07031L13.1719 1.17969C12.8984 0.945312 12.3516 0.789062 11.9609 0.789062C11.6094 0.789062 11.0625 0.945312 10.7891 1.17969L0.90625 9.34375C0.789062 9.42188 0.710938 9.57812 0.710938 9.69531C0.710938 9.8125 0.789062 9.92969 0.828125 10.0078L1.84375 11.2188C1.92188 11.2969 2.07812 11.375 2.19531 11.375C2.27344 11.375 2.42969 11.3359 2.50781 11.2578L11.6875 3.71875C11.7656 3.64062 11.8828 3.60156 12 3.60156C12.0781 3.60156 12.1953 3.64062 12.2734 3.71875L21.4531 11.2578C21.5312 11.3359 21.6875 11.375 21.7656 11.375C21.8828 11.375 22.0391 11.2969 22.1172 11.2188L23.1328 10.0078C23.1719 9.92969 23.25 9.8125 23.25 9.69531C23.25 9.57812 23.1719 9.42188 23.0547 9.34375Z" fill="#1E243E"/>
</svg>
