<svg width="24" height="24" viewBox="0 0 24 24" fill="none" xmlns="http://www.w3.org/2000/svg">
<path d="M12 0.375C5.57812 0.375 0.375 5.625 0.375 12C0.375 18.4219 5.57812 23.625 12 23.625C18.375 23.625 23.625 18.4219 23.625 12C23.625 5.625 18.375 0.375 12 0.375ZM19.5 10.5V10.8281C19.5 11.1094 19.3125 11.3438 19.0781 11.4844L18.375 11.8125C18.2812 11.8594 18.1406 11.9062 18.0469 11.9062C17.9062 11.9062 17.7188 11.8594 17.625 11.8125L16.7812 11.2031C16.6875 11.1562 16.5 11.1094 16.3594 11.1094C16.3125 11.1094 16.2188 11.1094 16.125 11.1562H16.0312C15.5625 11.3438 15.375 11.8594 15.6562 12.2812L16.2656 13.2188C16.4062 13.4062 16.6406 13.5469 16.875 13.5469H17.25C17.6719 13.5469 18 13.8281 18 14.25V14.7656C18 14.9531 17.9062 15.0938 17.8125 15.2344L16.9688 16.4062C16.875 16.5 16.8281 16.5938 16.8281 16.6875L16.6406 17.7656C16.5938 17.9062 16.5 18.0469 16.4062 18.1406C16.0312 18.5156 15.5156 19.125 15.2344 19.5469L14.625 20.4375C14.3906 20.7656 13.9219 21.0469 13.5469 21.0469C13.0312 21.0469 12.6094 20.7656 12.375 20.2969C12.1406 19.875 12 19.125 12 18.6562V17.25C12 16.8281 11.6719 16.5 11.25 16.5H10.0312C9.375 16.5 8.71875 16.2656 8.20312 15.75C7.82812 15.375 7.45312 14.5312 7.45312 13.9688V13.3125C7.45312 12.5156 7.875 11.7188 8.48438 11.25L9.79688 10.2656C10.1719 9.98438 10.875 9.75 11.3438 9.75H11.3906C11.7656 9.75 12.1406 9.84375 12.5156 10.0312L13.2188 10.4062C13.3594 10.4531 13.5938 10.5 13.7812 10.4062L15.9844 9.70312C16.2656 9.60938 16.4531 9.32812 16.4531 9C16.4531 8.57812 16.1719 8.25 15.75 8.25H15.2812C15.0938 8.25 14.9062 8.20312 14.7656 8.0625L14.4375 7.73438C14.3438 7.64062 14.1094 7.5 13.9219 7.5H9.70312C9.28125 7.5 9 7.21875 9 6.79688V6.60938C9 6.23438 9.1875 5.95312 9.51562 5.90625L10.2188 5.71875C10.3594 5.67188 10.5469 5.57812 10.6406 5.39062L11.0156 4.82812C11.1562 4.64062 11.3906 4.5 11.625 4.5H12.75C13.1719 4.5 13.5 4.21875 13.5 3.79688V2.76562C17.2031 3.375 20.1562 6.1875 21.0469 9.75H20.2031C19.7812 9.75 19.5 10.0781 19.5 10.5Z" fill="#1E243E"/>
</svg>
