<svg width="350" height="250" viewBox="0 0 350 250" fill="none" xmlns="http://www.w3.org/2000/svg">
<g id="flag / asia / philippines / b">
<g id="philippines b">
<g id="blue">
<path fill-rule="evenodd" clip-rule="evenodd" d="M325 125H155L25 50H325V125Z" fill="#233A82" fill-opacity="1"/>
<path d="M155 125L154.5 125.866L154.732 126H155V125ZM325 125V126H326V125H325ZM25 50V49H21.2656L24.5003 50.8662L25 50ZM325 50H326V49H325V50ZM155 126H325V124H155V126ZM24.5003 50.8662L154.5 125.866L155.5 124.134L25.4997 49.1338L24.5003 50.8662ZM325 49H25V51H325V49ZM326 125V50H324V125H326Z" fill="white"/>
</g>
<g id="red">
<path fill-rule="evenodd" clip-rule="evenodd" d="M25 200L155 125H325V200H25Z" fill="#BC242C" fill-opacity="1"/>
<path d="M155 125V124H154.732L154.5 124.134L155 125ZM25 200L24.5003 199.134L21.2656 201H25V200ZM325 125H326V124H325V125ZM325 200V201H326V200H325ZM154.5 124.134L24.5003 199.134L25.4997 200.866L155.5 125.866L154.5 124.134ZM325 124H155V126H325V124ZM326 200V125H324V200H326ZM25 201H325V199H25V201Z" fill="white"/>
</g>
<g id="white">
<path fill-rule="evenodd" clip-rule="evenodd" d="M155 125L25 200V50L155 125ZM80.7989 113.099C81.0585 113.299 81.3114 113.507 81.5572 113.722L91.304 102.608H94.058V105.363L82.9445 115.11C83.1603 115.355 83.3682 115.608 83.5677 115.868L94.339 107.603V109.851L84.1402 116.666C85.2178 118.275 85.9922 120.105 86.3815 122.073L98.41 119.68L100 121.27L86.5403 123.042C86.5824 123.364 86.6142 123.69 86.6354 124.019L101.385 123.052L103.333 125L101.385 126.948L86.6354 125.981C86.6142 126.31 86.5824 126.636 86.5403 126.958L100 128.73L98.41 130.32L86.3815 127.927C85.9922 129.895 85.2178 131.725 84.1402 133.334L94.339 140.149V142.397L83.5678 134.132C83.3682 134.392 83.1603 134.645 82.9445 134.89L94.058 144.637V147.392H91.304L81.5572 136.278C81.3114 136.493 81.0585 136.701 80.7989 136.901L89.064 147.672H86.816L80.0014 137.473C78.3917 138.551 76.5618 139.325 74.5935 139.715L76.986 151.744L75.397 153.333L73.6251 139.873C73.3025 139.915 72.9768 139.947 72.6481 139.968L73.615 154.719L71.667 156.667L69.719 154.719L70.6859 139.968C70.3572 139.947 70.0315 139.915 69.7089 139.873L67.937 153.333L66.347 151.744L68.7399 139.715C66.7717 139.325 64.942 138.551 63.3325 137.473L56.518 147.672H54.269L62.5347 136.901C62.2752 136.701 62.0224 136.494 61.7767 136.278L52.03 147.392H49.275V144.637L60.3891 134.89C60.1733 134.644 59.9654 134.391 59.7659 134.132L48.994 142.397V140.149L59.1934 133.334C58.1159 131.725 57.3417 129.895 56.9524 127.927L44.923 130.32L43.333 128.73L56.7936 126.958C56.7516 126.635 56.7198 126.31 56.6986 125.981L41.948 126.948L40 125L41.948 123.052L56.6986 124.019C56.7198 123.69 56.7516 123.365 56.7936 123.042L43.333 121.27L44.923 119.68L56.9524 122.073C57.3417 120.105 58.1159 118.275 59.1934 116.666L48.994 109.851V107.603L59.7659 115.868C59.9654 115.609 60.1733 115.356 60.3891 115.11L49.275 105.363V102.608H52.03L61.7767 113.722C62.0224 113.506 62.2752 113.299 62.5347 113.099L54.269 102.328H56.518L63.3325 112.527C64.942 111.449 66.7717 110.675 68.7399 110.285L66.347 98.256L67.937 96.667L69.7089 110.127C70.0315 110.085 70.3572 110.053 70.6859 110.032L69.719 95.281L71.667 93.333L73.615 95.281L72.6481 110.032C72.9768 110.053 73.3025 110.085 73.6251 110.127L75.397 96.667L76.986 98.256L74.5935 110.285C76.5618 110.675 78.3917 111.449 80.0014 112.527L86.816 102.328H89.064L80.7989 113.099ZM34.436 72.685L28.515 71.94L33.621 68.852L32.5 62.991L37.015 66.892L42.242 64.014L39.927 69.514L44.28 73.597L38.333 73.094L35.796 78.495L34.436 72.685ZM28.515 178.06L33.621 181.149L32.5 187.01L37.015 183.108L42.242 185.986L39.927 180.486L44.28 176.403L38.333 176.906L35.796 171.505L34.436 177.316L28.515 178.06ZM128.237 125L124.828 120.102L130.54 121.83L134.146 117.074L134.267 123.041L139.904 125L134.267 126.959L134.146 132.925L130.54 128.17L124.828 129.898L128.237 125Z" fill="#FFFFFE" fill-opacity="1"/>
<path d="M25 200H24V201.731L25.4997 200.866L25 200ZM155 125L155.5 125.866L157.001 125L155.5 124.134L155 125ZM25 50L25.4997 49.1338L24 48.2686V50H25ZM81.5572 113.722L80.8975 114.474L81.6494 115.134L82.309 114.382L81.5572 113.722ZM80.7989 113.099L80.0055 112.49L79.3972 113.283L80.1895 113.892L80.7989 113.099ZM91.304 102.608V101.608H90.8509L90.5522 101.949L91.304 102.608ZM94.058 102.608H95.058V101.608H94.058V102.608ZM94.058 105.363L94.7174 106.115L95.058 105.816V105.363H94.058ZM82.9445 115.11L82.2851 114.358L81.533 115.017L82.1929 115.769L82.9445 115.11ZM83.5677 115.868L82.7748 116.477L83.3837 117.27L84.1765 116.661L83.5677 115.868ZM94.339 107.603H95.339V105.575L93.7302 106.81L94.339 107.603ZM94.339 109.851L94.8946 110.682L95.339 110.386V109.851H94.339ZM84.1402 116.666L83.5847 115.834L82.7524 116.39L83.3093 117.222L84.1402 116.666ZM86.3815 122.073L85.4005 122.267L85.5948 123.249L86.5766 123.054L86.3815 122.073ZM98.41 119.68L99.1171 118.973L98.7391 118.595L98.2149 118.699L98.41 119.68ZM100 121.27L100.131 122.261L102.141 121.997L100.707 120.563L100 121.27ZM86.5403 123.042L86.4098 122.05L85.4196 122.181L85.5487 123.171L86.5403 123.042ZM86.6354 124.019L85.6375 124.083L85.702 125.082L86.7008 125.017L86.6354 124.019ZM101.385 123.052L102.092 122.345L101.772 122.025L101.32 122.054L101.385 123.052ZM103.333 125L104.04 125.707L104.747 125L104.04 124.293L103.333 125ZM101.385 126.948L101.32 127.946L101.772 127.975L102.092 127.655L101.385 126.948ZM86.6354 125.981L86.7008 124.983L85.702 124.918L85.6375 125.917L86.6354 125.981ZM86.5403 126.958L85.5487 126.829L85.4196 127.819L86.4098 127.95L86.5403 126.958ZM100 128.73L100.707 129.437L102.141 128.003L100.131 127.739L100 128.73ZM98.41 130.32L98.2149 131.301L98.7391 131.405L99.1171 131.027L98.41 130.32ZM86.3815 127.927L86.5766 126.946L85.5948 126.751L85.4005 127.733L86.3815 127.927ZM84.1402 133.334L83.3093 132.778L82.7524 133.61L83.5847 134.166L84.1402 133.334ZM94.339 140.149H95.339V139.614L94.8946 139.318L94.339 140.149ZM94.339 142.397L93.7302 143.19L95.339 144.425V142.397H94.339ZM83.5678 134.132L84.1765 133.339L83.3838 132.73L82.7748 133.523L83.5678 134.132ZM82.9445 134.89L82.1929 134.231L81.533 134.983L82.2851 135.642L82.9445 134.89ZM94.058 144.637H95.058V144.184L94.7174 143.885L94.058 144.637ZM94.058 147.392V148.392H95.058V147.392H94.058ZM91.304 147.392L90.5522 148.051L90.8509 148.392H91.304V147.392ZM81.5572 136.278L82.309 135.618L81.6494 134.866L80.8975 135.526L81.5572 136.278ZM80.7989 136.901L80.1895 136.108L79.3972 136.717L80.0055 137.51L80.7989 136.901ZM89.064 147.672V148.672H91.0918L89.8573 147.063L89.064 147.672ZM86.816 147.672L85.9845 148.228L86.2815 148.672H86.816V147.672ZM80.0014 137.473L80.8329 136.918L80.2768 136.085L79.445 136.642L80.0014 137.473ZM74.5935 139.715L74.3995 138.734L73.4175 138.928L73.6127 139.91L74.5935 139.715ZM76.986 151.744L77.6931 152.451L78.0711 152.073L77.9668 151.549L76.986 151.744ZM75.397 153.333L74.4056 153.464L74.6702 155.474L76.1041 154.04L75.397 153.333ZM73.6251 139.873L74.6165 139.743L74.4861 138.753L73.4958 138.882L73.6251 139.873ZM72.6481 139.968L72.5837 138.97L71.5848 139.035L71.6503 140.034L72.6481 139.968ZM73.615 154.719L74.3221 155.426L74.6425 155.106L74.6129 154.654L73.615 154.719ZM71.667 156.667L70.9599 157.374L71.667 158.081L72.3741 157.374L71.667 156.667ZM69.719 154.719L68.7211 154.654L68.6915 155.106L69.0119 155.426L69.719 154.719ZM70.6859 139.968L71.6837 140.034L71.7492 139.035L70.7503 138.971L70.6859 139.968ZM69.7089 139.873L69.8382 138.882L68.8479 138.753L68.7175 139.743L69.7089 139.873ZM67.937 153.333L67.2301 154.04L68.6639 155.473L68.9284 153.464L67.937 153.333ZM66.347 151.744L65.3662 151.549L65.2619 152.073L65.6401 152.451L66.347 151.744ZM68.7399 139.715L69.7207 139.91L69.916 138.928L68.934 138.734L68.7399 139.715ZM63.3325 137.473L63.8888 136.642L63.0571 136.086L62.501 136.918L63.3325 137.473ZM56.518 147.672V148.672H57.0525L57.3495 148.228L56.518 147.672ZM54.269 147.672L53.4757 147.063L52.2411 148.672H54.269V147.672ZM62.5347 136.901L63.328 137.509L63.9363 136.717L63.144 136.108L62.5347 136.901ZM61.7767 136.278L62.4363 135.526L61.6844 134.866L61.0248 135.619L61.7767 136.278ZM52.03 147.392V148.392H52.4831L52.7818 148.051L52.03 147.392ZM49.275 147.392H48.275V148.392H49.275V147.392ZM49.275 144.637L48.6157 143.885L48.275 144.184V144.637H49.275ZM60.3891 134.89L61.0484 135.642L61.8006 134.983L61.1407 134.231L60.3891 134.89ZM59.7659 134.132L60.5588 133.522L59.9499 132.73L59.1571 133.338L59.7659 134.132ZM48.994 142.397H47.994V144.425L49.6027 143.19L48.994 142.397ZM48.994 140.149L48.4384 139.318L47.994 139.614V140.149H48.994ZM59.1934 133.334L59.749 134.166L60.5812 133.61L60.0244 132.778L59.1934 133.334ZM56.9524 127.927L57.9334 127.733L57.7392 126.751L56.7573 126.946L56.9524 127.927ZM44.923 130.32L44.2159 131.027L44.5939 131.405L45.1181 131.301L44.923 130.32ZM43.333 128.73L43.2025 127.739L41.192 128.003L42.6259 129.437L43.333 128.73ZM56.7936 126.958L56.9241 127.949L57.9143 127.819L57.7852 126.829L56.7936 126.958ZM56.6986 125.981L57.6965 125.917L57.632 124.918L56.6332 124.983L56.6986 125.981ZM41.948 126.948L41.2409 127.655L41.5613 127.975L42.0134 127.946L41.948 126.948ZM40 125L39.2929 124.293L38.5858 125L39.2929 125.707L40 125ZM41.948 123.052L42.0134 122.054L41.5613 122.025L41.2409 122.345L41.948 123.052ZM56.6986 124.019L56.6332 125.017L57.632 125.082L57.6965 124.083L56.6986 124.019ZM56.7936 123.042L57.7852 123.171L57.9143 122.181L56.9241 122.051L56.7936 123.042ZM43.333 121.27L42.6259 120.563L41.192 121.997L43.2025 122.261L43.333 121.27ZM44.923 119.68L45.1181 118.699L44.5939 118.595L44.2159 118.973L44.923 119.68ZM56.9524 122.073L56.7573 123.054L57.7392 123.249L57.9334 122.267L56.9524 122.073ZM59.1934 116.666L60.0244 117.222L60.5812 116.39L59.749 115.834L59.1934 116.666ZM48.994 109.851H47.994V110.386L48.4384 110.682L48.994 109.851ZM48.994 107.603L49.6027 106.81L47.994 105.575V107.603H48.994ZM59.7659 115.868L59.1571 116.662L59.9499 117.27L60.5588 116.478L59.7659 115.868ZM60.3891 115.11L61.1407 115.769L61.8006 115.017L61.0484 114.358L60.3891 115.11ZM49.275 105.363H48.275V105.816L48.6157 106.115L49.275 105.363ZM49.275 102.608V101.608H48.275V102.608H49.275ZM52.03 102.608L52.7818 101.949L52.4831 101.608H52.03V102.608ZM61.7767 113.722L61.0248 114.381L61.6844 115.134L62.4363 114.474L61.7767 113.722ZM62.5347 113.099L63.144 113.892L63.9363 113.283L63.328 112.491L62.5347 113.099ZM54.269 102.328V101.328H52.2411L53.4757 102.937L54.269 102.328ZM56.518 102.328L57.3495 101.772L57.0525 101.328H56.518V102.328ZM63.3325 112.527L62.501 113.082L63.0571 113.914L63.8888 113.358L63.3325 112.527ZM68.7399 110.285L68.934 111.266L69.916 111.072L69.7207 110.09L68.7399 110.285ZM66.347 98.256L65.6401 97.5487L65.2619 97.9267L65.3662 98.4511L66.347 98.256ZM67.937 96.667L68.9284 96.5365L68.6639 94.5268L67.2301 95.9597L67.937 96.667ZM69.7089 110.127L68.7175 110.257L68.8479 111.247L69.8382 111.118L69.7089 110.127ZM70.6859 110.032L70.7503 111.029L71.7492 110.965L71.6837 109.966L70.6859 110.032ZM69.719 95.281L69.0119 94.5739L68.6915 94.8943L68.7211 95.3464L69.719 95.281ZM71.667 93.333L72.3741 92.6259L71.667 91.9188L70.9599 92.6259L71.667 93.333ZM73.615 95.281L74.6129 95.3464L74.6425 94.8943L74.3221 94.5739L73.615 95.281ZM72.6481 110.032L71.6503 109.966L71.5848 110.965L72.5837 111.029L72.6481 110.032ZM73.6251 110.127L73.4958 111.118L74.4861 111.247L74.6165 110.257L73.6251 110.127ZM75.397 96.667L76.1041 95.9599L74.6702 94.526L74.4056 96.5365L75.397 96.667ZM76.986 98.256L77.9668 98.4511L78.0711 97.9268L77.6931 97.5489L76.986 98.256ZM74.5935 110.285L73.6127 110.09L73.4175 111.072L74.3995 111.266L74.5935 110.285ZM80.0014 112.527L79.445 113.358L80.2768 113.915L80.8328 113.082L80.0014 112.527ZM86.816 102.328V101.328H86.2815L85.9845 101.772L86.816 102.328ZM89.064 102.328L89.8573 102.937L91.0918 101.328H89.064V102.328ZM28.515 71.94L27.9975 71.0843L25.5359 72.573L28.3902 72.9322L28.515 71.94ZM34.436 72.685L35.4097 72.4571L35.2511 71.7797L34.5608 71.6928L34.436 72.685ZM33.621 68.852L34.1385 69.7077L34.7339 69.3476L34.6032 68.6641L33.621 68.852ZM32.5 62.991L33.1538 62.2343L30.9775 60.354L31.5178 63.1789L32.5 62.991ZM37.015 66.892L36.3612 67.6487L36.8878 68.1036L37.4973 67.768L37.015 66.892ZM42.242 64.014L43.1637 64.4019L44.2797 61.7505L41.7597 63.138L42.242 64.014ZM39.927 69.514L39.0053 69.1261L38.7354 69.7674L39.2429 70.2434L39.927 69.514ZM44.28 73.597L44.1957 74.5934L47.0626 74.8359L44.9641 72.8676L44.28 73.597ZM38.333 73.094L38.4173 72.0976L37.7238 72.0389L37.4279 72.6688L38.333 73.094ZM35.796 78.495L34.8223 78.7229L35.478 81.524L36.7011 78.9202L35.796 78.495ZM33.621 181.149L34.6032 181.337L34.7339 180.654L34.1386 180.293L33.621 181.149ZM28.515 178.06L28.3903 177.068L25.5359 177.426L27.9974 178.916L28.515 178.06ZM32.5 187.01L31.5178 186.822L30.9774 189.648L33.1539 187.767L32.5 187.01ZM37.015 183.108L37.4973 182.232L36.8877 181.896L36.3611 182.351L37.015 183.108ZM42.242 185.986L41.7597 186.862L44.2797 188.25L43.1637 185.598L42.242 185.986ZM39.927 180.486L39.2429 179.757L38.7354 180.233L39.0053 180.874L39.927 180.486ZM44.28 176.403L44.9641 177.132L47.0626 175.164L44.1957 175.407L44.28 176.403ZM38.333 176.906L37.4279 177.331L37.7238 177.961L38.4173 177.902L38.333 176.906ZM35.796 171.505L36.7011 171.08L35.4779 168.476L34.8223 171.277L35.796 171.505ZM34.436 177.316L34.5607 178.308L35.2511 178.221L35.4097 177.544L34.436 177.316ZM124.828 120.102L125.118 119.145L122.364 118.312L124.007 120.673L124.828 120.102ZM128.237 125L129.058 125.571L129.455 125L129.058 124.429L128.237 125ZM130.54 121.83L130.25 122.787L130.916 122.989L131.337 122.434L130.54 121.83ZM134.146 117.074L135.146 117.054L135.087 114.177L133.349 116.47L134.146 117.074ZM134.267 123.041L133.267 123.061L133.281 123.757L133.939 123.986L134.267 123.041ZM139.904 125L140.232 125.945L142.95 125L140.232 124.055L139.904 125ZM134.267 126.959L133.939 126.014L133.281 126.243L133.267 126.939L134.267 126.959ZM134.146 132.925L133.349 133.529L135.087 135.821L135.146 132.945L134.146 132.925ZM130.54 128.17L131.337 127.566L130.916 127.011L130.25 127.213L130.54 128.17ZM124.828 129.898L124.007 129.327L122.364 131.688L125.118 130.855L124.828 129.898ZM25.4997 200.866L155.5 125.866L154.5 124.134L24.5003 199.134L25.4997 200.866ZM24 50V200H26V50H24ZM155.5 124.134L25.4997 49.1338L24.5003 50.8662L154.5 125.866L155.5 124.134ZM82.2168 112.971C81.9547 112.741 81.685 112.519 81.4082 112.306L80.1895 113.892C80.4319 114.078 80.668 114.272 80.8975 114.474L82.2168 112.971ZM90.5522 101.949L80.8053 113.063L82.309 114.382L92.0558 103.267L90.5522 101.949ZM94.058 101.608H91.304V103.608H94.058V101.608ZM95.058 105.363V102.608H93.058V105.363H95.058ZM83.6038 115.861L94.7174 106.115L93.3986 104.611L82.2851 114.358L83.6038 115.861ZM84.3607 115.259C84.1478 114.982 83.9262 114.712 83.696 114.45L82.1929 115.769C82.3944 115.999 82.5885 116.235 82.7748 116.477L84.3607 115.259ZM93.7302 106.81L82.959 115.075L84.1765 116.661L94.9478 108.396L93.7302 106.81ZM95.339 109.851V107.603H93.339V109.851H95.339ZM84.6958 117.497L94.8946 110.682L93.7834 109.02L83.5847 115.834L84.6958 117.497ZM87.3625 121.879C86.947 119.778 86.1206 117.826 84.9712 116.109L83.3093 117.222C84.3151 118.724 85.0374 120.431 85.4005 122.267L87.3625 121.879ZM98.2149 118.699L86.1864 121.092L86.5766 123.054L98.6051 120.661L98.2149 118.699ZM100.707 120.563L99.1171 118.973L97.7029 120.387L99.2929 121.977L100.707 120.563ZM86.6709 124.033L100.131 122.261L99.8695 120.279L86.4098 122.05L86.6709 124.033ZM87.6333 123.954C87.6107 123.604 87.5768 123.257 87.532 122.913L85.5487 123.171C85.588 123.472 85.6177 123.776 85.6375 124.083L87.6333 123.954ZM101.32 122.054L86.57 123.021L86.7008 125.017L101.45 124.05L101.32 122.054ZM104.04 124.293L102.092 122.345L100.678 123.759L102.626 125.707L104.04 124.293ZM102.092 127.655L104.04 125.707L102.626 124.293L100.678 126.241L102.092 127.655ZM86.57 126.979L101.32 127.946L101.45 125.95L86.7008 124.983L86.57 126.979ZM87.532 127.087C87.5768 126.743 87.6107 126.396 87.6333 126.046L85.6375 125.917C85.6177 126.224 85.588 126.528 85.5487 126.829L87.532 127.087ZM100.131 127.739L86.6709 125.967L86.4098 127.95L99.8695 129.721L100.131 127.739ZM99.1171 131.027L100.707 129.437L99.2929 128.023L97.7029 129.613L99.1171 131.027ZM86.1864 128.908L98.2149 131.301L98.6051 129.339L86.5766 126.946L86.1864 128.908ZM84.9712 133.891C86.1206 132.174 86.947 130.222 87.3625 128.121L85.4005 127.733C85.0374 129.569 84.3151 131.276 83.3093 132.778L84.9712 133.891ZM94.8946 139.318L84.6958 132.503L83.5847 134.166L93.7834 140.98L94.8946 139.318ZM95.339 142.397V140.149H93.339V142.397H95.339ZM82.959 134.925L93.7302 143.19L94.9478 141.604L84.1765 133.339L82.959 134.925ZM83.696 135.55C83.9262 135.288 84.1478 135.018 84.3607 134.741L82.7748 133.523C82.5885 133.765 82.3944 134.001 82.1929 134.231L83.696 135.55ZM94.7174 143.885L83.6038 134.139L82.2851 135.642L93.3986 145.389L94.7174 143.885ZM95.058 147.392V144.637H93.058V147.392H95.058ZM91.304 148.392H94.058V146.392H91.304V148.392ZM80.8053 136.937L90.5522 148.051L92.0558 146.733L82.309 135.618L80.8053 136.937ZM81.4082 137.694C81.685 137.481 81.9547 137.259 82.2168 137.029L80.8975 135.526C80.668 135.728 80.4319 135.922 80.1895 136.108L81.4082 137.694ZM89.8573 147.063L81.5922 136.292L80.0055 137.51L88.2706 148.281L89.8573 147.063ZM86.816 148.672H89.064V146.672H86.816V148.672ZM79.1699 138.029L85.9845 148.228L87.6475 147.116L80.8329 136.918L79.1699 138.029ZM74.7876 140.696C76.8882 140.28 78.8408 139.454 80.5577 138.304L79.445 136.642C77.9426 137.648 76.2354 138.371 74.3995 138.734L74.7876 140.696ZM77.9668 151.549L75.5743 139.52L73.6127 139.91L76.0052 151.939L77.9668 151.549ZM76.1041 154.04L77.6931 152.451L76.2789 151.037L74.6899 152.626L76.1041 154.04ZM72.6336 140.004L74.4056 153.464L76.3884 153.202L74.6165 139.743L72.6336 140.004ZM72.7126 140.966C73.0629 140.944 73.4103 140.91 73.7543 140.865L73.4958 138.882C73.1947 138.921 72.8906 138.951 72.5837 138.97L72.7126 140.966ZM74.6129 154.654L73.646 139.903L71.6503 140.034L72.6171 154.784L74.6129 154.654ZM72.3741 157.374L74.3221 155.426L72.9079 154.012L70.9599 155.96L72.3741 157.374ZM69.0119 155.426L70.9599 157.374L72.3741 155.96L70.4261 154.012L69.0119 155.426ZM69.688 139.903L68.7211 154.654L70.7169 154.784L71.6837 140.034L69.688 139.903ZM69.5797 140.865C69.9237 140.91 70.2711 140.944 70.6214 140.966L70.7503 138.971C70.4433 138.951 70.1392 138.921 69.8382 138.882L69.5797 140.865ZM68.9284 153.464L70.7004 140.004L68.7175 139.743L66.9456 153.202L68.9284 153.464ZM65.6401 152.451L67.2301 154.04L68.6439 152.626L67.0539 151.037L65.6401 152.451ZM67.7591 139.519L65.3662 151.549L67.3278 151.939L69.7207 139.91L67.7591 139.519ZM62.7762 138.304C64.4929 139.454 66.4453 140.28 68.5459 140.696L68.934 138.734C67.0981 138.37 65.3911 137.648 63.8888 136.642L62.7762 138.304ZM57.3495 148.228L64.164 138.029L62.501 136.918L55.6865 147.116L57.3495 148.228ZM54.269 148.672H56.518V146.672H54.269V148.672ZM61.7413 136.292L53.4757 147.063L55.0623 148.281L63.328 137.509L61.7413 136.292ZM61.117 137.029C61.379 137.259 61.6486 137.481 61.9253 137.694L63.144 136.108C62.9018 135.922 62.6657 135.728 62.4363 135.526L61.117 137.029ZM52.7818 148.051L62.5285 136.937L61.0248 135.619L51.2782 146.733L52.7818 148.051ZM49.275 148.392H52.03V146.392H49.275V148.392ZM48.275 144.637V147.392H50.275V144.637H48.275ZM59.7298 134.138L48.6157 143.885L49.9343 145.389L61.0484 135.642L59.7298 134.138ZM58.9729 134.741C59.1858 135.018 59.4074 135.288 59.6375 135.55L61.1407 134.231C60.9392 134.001 60.7451 133.765 60.5588 133.522L58.9729 134.741ZM49.6027 143.19L60.3746 134.925L59.1571 133.338L48.3853 141.604L49.6027 143.19ZM47.994 140.149V142.397H49.994V140.149H47.994ZM58.6379 132.503L48.4384 139.318L49.5496 140.98L59.749 134.166L58.6379 132.503ZM55.9714 128.121C56.3869 130.222 57.2132 132.174 58.3624 133.891L60.0244 132.778C59.0187 131.276 58.2965 129.569 57.9334 127.733L55.9714 128.121ZM45.1181 131.301L57.1475 128.908L56.7573 126.946L44.7279 129.339L45.1181 131.301ZM42.6259 129.437L44.2159 131.027L45.6301 129.613L44.0401 128.023L42.6259 129.437ZM56.6631 125.967L43.2025 127.739L43.4635 129.721L56.9241 127.949L56.6631 125.967ZM55.7007 126.046C55.7233 126.396 55.7572 126.743 55.802 127.087L57.7852 126.829C57.746 126.528 57.7163 126.224 57.6965 125.917L55.7007 126.046ZM42.0134 127.946L56.764 126.979L56.6332 124.983L41.8826 125.95L42.0134 127.946ZM39.2929 125.707L41.2409 127.655L42.6551 126.241L40.7071 124.293L39.2929 125.707ZM41.2409 122.345L39.2929 124.293L40.7071 125.707L42.6551 123.759L41.2409 122.345ZM56.764 123.021L42.0134 122.054L41.8826 124.05L56.6332 125.017L56.764 123.021ZM55.802 122.913C55.7572 123.257 55.7233 123.604 55.7007 123.954L57.6965 124.083C57.7163 123.776 57.746 123.472 57.7852 123.171L55.802 122.913ZM43.2025 122.261L56.6631 124.033L56.9241 122.051L43.4635 120.279L43.2025 122.261ZM44.2159 118.973L42.6259 120.563L44.0401 121.977L45.6301 120.387L44.2159 118.973ZM57.1475 121.092L45.1181 118.699L44.7279 120.661L56.7573 123.054L57.1475 121.092ZM58.3624 116.109C57.2132 117.826 56.3869 119.778 55.9714 121.879L57.9334 122.267C58.2965 120.431 59.0187 118.724 60.0244 117.222L58.3624 116.109ZM48.4384 110.682L58.6379 117.497L59.749 115.834L49.5496 109.02L48.4384 110.682ZM47.994 107.603V109.851H49.994V107.603H47.994ZM60.3746 115.075L49.6027 106.81L48.3853 108.396L59.1571 116.662L60.3746 115.075ZM59.6375 114.45C59.4074 114.712 59.1857 114.982 58.9729 115.259L60.5588 116.478C60.7451 116.235 60.9392 115.999 61.1407 115.769L59.6375 114.45ZM48.6157 106.115L59.7298 115.862L61.0484 114.358L49.9343 104.611L48.6157 106.115ZM48.275 102.608V105.363H50.275V102.608H48.275ZM52.03 101.608H49.275V103.608H52.03V101.608ZM62.5285 113.063L52.7818 101.949L51.2782 103.267L61.0248 114.381L62.5285 113.063ZM61.9253 112.306C61.6486 112.519 61.379 112.741 61.117 112.971L62.4363 114.474C62.6657 114.272 62.9017 114.078 63.144 113.892L61.9253 112.306ZM53.4757 102.937L61.7413 113.708L63.328 112.491L55.0623 101.719L53.4757 102.937ZM56.518 101.328H54.269V103.328H56.518V101.328ZM64.164 111.971L57.3495 101.772L55.6865 102.884L62.501 113.082L64.164 111.971ZM68.5459 109.304C66.4453 109.72 64.4929 110.546 62.7762 111.696L63.8888 113.358C65.3911 112.352 67.0981 111.63 68.934 111.266L68.5459 109.304ZM65.3662 98.4511L67.7591 110.481L69.7207 110.09L67.3278 98.0609L65.3662 98.4511ZM67.2301 95.9597L65.6401 97.5487L67.0539 98.9633L68.6439 97.3743L67.2301 95.9597ZM70.7004 109.996L68.9284 96.5365L66.9456 96.7975L68.7175 110.257L70.7004 109.996ZM70.6214 109.034C70.2711 109.056 69.9237 109.09 69.5797 109.135L69.8382 111.118C70.1392 111.079 70.4434 111.049 70.7503 111.029L70.6214 109.034ZM68.7211 95.3464L69.688 110.097L71.6837 109.966L70.7169 95.2156L68.7211 95.3464ZM70.9599 92.6259L69.0119 94.5739L70.4261 95.9881L72.3741 94.0401L70.9599 92.6259ZM74.3221 94.5739L72.3741 92.6259L70.9599 94.0401L72.9079 95.9881L74.3221 94.5739ZM73.646 110.097L74.6129 95.3464L72.6171 95.2156L71.6503 109.966L73.646 110.097ZM73.7543 109.135C73.4103 109.09 73.0629 109.056 72.7126 109.034L72.5837 111.029C72.8906 111.049 73.1947 111.079 73.4958 111.118L73.7543 109.135ZM74.4056 96.5365L72.6336 109.996L74.6165 110.257L76.3884 96.7975L74.4056 96.5365ZM77.6931 97.5489L76.1041 95.9599L74.6899 97.3741L76.2789 98.9631L77.6931 97.5489ZM75.5743 110.48L77.9668 98.4511L76.0052 98.0609L73.6127 110.09L75.5743 110.48ZM80.5577 111.696C78.8408 110.546 76.8882 109.72 74.7876 109.304L74.3995 111.266C76.2354 111.629 77.9426 112.352 79.445 113.358L80.5577 111.696ZM85.9845 101.772L79.1699 111.971L80.8328 113.082L87.6475 102.884L85.9845 101.772ZM89.064 101.328H86.816V103.328H89.064V101.328ZM81.5922 113.708L89.8573 102.937L88.2706 101.719L80.0055 112.49L81.5922 113.708ZM28.3902 72.9322L34.3112 73.6772L34.5608 71.6928L28.6398 70.9478L28.3902 72.9322ZM33.1035 67.9963L27.9975 71.0843L29.0325 72.7957L34.1385 69.7077L33.1035 67.9963ZM31.5178 63.1789L32.6388 69.0399L34.6032 68.6641L33.4822 62.8031L31.5178 63.1789ZM37.6688 66.1353L33.1538 62.2343L31.8462 63.7477L36.3612 67.6487L37.6688 66.1353ZM41.7597 63.138L36.5327 66.016L37.4973 67.768L42.7243 64.89L41.7597 63.138ZM40.8487 69.9019L43.1637 64.4019L41.3203 63.6261L39.0053 69.1261L40.8487 69.9019ZM44.9641 72.8676L40.6111 68.7846L39.2429 70.2434L43.5959 74.3264L44.9641 72.8676ZM38.2487 74.0904L44.1957 74.5934L44.3643 72.6006L38.4173 72.0976L38.2487 74.0904ZM36.7011 78.9202L39.2381 73.5192L37.4279 72.6688L34.8909 78.0698L36.7011 78.9202ZM33.4623 72.9129L34.8223 78.7229L36.7697 78.2671L35.4097 72.4571L33.4623 72.9129ZM34.1386 180.293L29.0326 177.204L27.9974 178.916L33.1034 182.005L34.1386 180.293ZM33.4822 187.198L34.6032 181.337L32.6388 180.961L31.5178 186.822L33.4822 187.198ZM36.3611 182.351L31.8461 186.253L33.1539 187.767L37.6689 183.865L36.3611 182.351ZM42.7243 185.11L37.4973 182.232L36.5327 183.984L41.7597 186.862L42.7243 185.11ZM39.0053 180.874L41.3203 186.374L43.1637 185.598L40.8487 180.098L39.0053 180.874ZM43.5959 175.674L39.2429 179.757L40.6111 181.215L44.9641 177.132L43.5959 175.674ZM38.4173 177.902L44.3643 177.399L44.1957 175.407L38.2487 175.91L38.4173 177.902ZM34.8909 171.93L37.4279 177.331L39.2381 176.481L36.7011 171.08L34.8909 171.93ZM35.4097 177.544L36.7697 171.733L34.8223 171.277L33.4623 177.088L35.4097 177.544ZM28.6397 179.052L34.5607 178.308L34.3113 176.324L28.3903 177.068L28.6397 179.052ZM124.007 120.673L127.416 125.571L129.058 124.429L125.649 119.531L124.007 120.673ZM130.83 120.873L125.118 119.145L124.538 121.059L130.25 122.787L130.83 120.873ZM133.349 116.47L129.743 121.226L131.337 122.434L134.943 117.678L133.349 116.47ZM135.267 123.021L135.146 117.054L133.146 117.094L133.267 123.061L135.267 123.021ZM140.232 124.055L134.595 122.096L133.939 123.986L139.576 125.945L140.232 124.055ZM134.595 127.904L140.232 125.945L139.576 124.055L133.939 126.014L134.595 127.904ZM135.146 132.945L135.267 126.979L133.267 126.939L133.146 132.905L135.146 132.945ZM129.743 128.774L133.349 133.529L134.943 132.321L131.337 127.566L129.743 128.774ZM125.118 130.855L130.83 129.127L130.25 127.213L124.538 128.941L125.118 130.855ZM127.416 124.429L124.007 129.327L125.649 130.469L129.058 125.571L127.416 124.429Z" fill="white"/>
</g>
<g id="yellow">
<path fill-rule="evenodd" clip-rule="evenodd" d="M34.4356 72.685L28.5146 71.94L33.6206 68.852L32.4996 62.991L37.0146 66.892L42.2416 64.014L39.9266 69.514L44.2796 73.597L38.3326 73.094L35.7956 78.495L34.4356 72.685ZM69.7186 95.281L71.6666 93.333L73.6146 95.281L72.6478 110.032C72.9764 110.053 73.3022 110.085 73.6247 110.127L75.3966 96.667L76.9856 98.256L74.5932 110.285C76.5615 110.675 78.3914 111.449 80.001 112.527L86.8157 102.328H89.0636L80.7985 113.099C81.0581 113.299 81.311 113.507 81.5568 113.722L91.3036 102.608H94.0576V105.363L82.9441 115.11C83.1599 115.355 83.3678 115.608 83.5674 115.868L94.3387 107.603V109.851L84.1399 116.666C85.2175 118.275 85.9918 120.105 86.3812 122.073L98.4097 119.68L99.9996 121.27L86.54 123.042C86.582 123.364 86.6138 123.69 86.6351 124.019L101.385 123.052L103.333 125L101.385 126.948L86.6351 125.981C86.6138 126.31 86.582 126.635 86.54 126.958L99.9996 128.73L98.4097 130.32L86.3812 127.927C85.9918 129.895 85.2175 131.725 84.1399 133.334L94.3387 140.149V142.397L83.5674 134.132C83.3678 134.392 83.1599 134.645 82.9441 134.89L94.0576 144.637V147.392H91.3036L81.5568 136.278C81.311 136.493 81.0581 136.701 80.7985 136.901L89.0636 147.672H86.8157L80.001 137.473C78.3914 138.551 76.5615 139.325 74.5932 139.715L76.9856 151.744L75.3966 153.333L73.6247 139.873C73.3022 139.915 72.9764 139.947 72.6478 139.968L73.6146 154.719L71.6666 156.667L69.7186 154.719L70.6855 139.968C70.3569 139.947 70.0311 139.915 69.7086 139.873L67.9366 153.333L66.3466 151.744L68.7396 139.715C66.7714 139.325 64.9416 138.551 63.3321 137.473L56.5176 147.672H54.2686L62.5343 136.901C62.2748 136.701 62.022 136.493 61.7763 136.278L52.0296 147.392H49.2746V144.637L60.3887 134.89C60.173 134.644 59.9651 134.391 59.7655 134.132L48.9936 142.397V140.149L59.1931 133.334C58.1156 131.725 57.3413 129.895 56.9521 127.927L44.9226 130.32L43.3326 128.73L56.7933 126.958C56.7512 126.635 56.7194 126.31 56.6982 125.981L41.9476 126.948L39.9996 125L41.9476 123.052L56.6982 124.019C56.7194 123.69 56.7512 123.364 56.7933 123.042L43.3326 121.27L44.9226 119.68L56.9521 122.073C57.3413 120.105 58.1156 118.275 59.1931 116.666L48.9936 109.851V107.603L59.7655 115.868C59.9651 115.609 60.173 115.356 60.3888 115.11L49.2746 105.363V102.608H52.0296L61.7763 113.722C62.022 113.506 62.2748 113.299 62.5343 113.099L54.2686 102.328H56.5176L63.3321 112.527C64.9416 111.449 66.7714 110.675 68.7396 110.285L66.3466 98.256L67.9366 96.667L69.7086 110.127C70.0311 110.085 70.3569 110.053 70.6855 110.032L69.7186 95.281ZM28.5146 178.06L33.6206 181.149L32.4996 187.01L37.0146 183.108L42.2416 185.986L39.9266 180.486L44.2796 176.403L38.3326 176.906L35.7956 171.505L34.4356 177.316L28.5146 178.06ZM128.237 125L124.828 120.102L130.54 121.83L134.146 117.074L134.267 123.041L139.904 125L134.267 126.959L134.146 132.925L130.54 128.17L124.828 129.898L128.237 125Z" fill="#F6CD2B" fill-opacity="1"/>
<path d="M28.5146 71.94L27.9971 71.0843L25.5355 72.573L28.3898 72.9321L28.5146 71.94ZM34.4356 72.685L35.4093 72.457L35.2508 71.7796L34.5605 71.6928L34.4356 72.685ZM33.6206 68.852L34.1381 69.7077L34.7336 69.3476L34.6028 68.6641L33.6206 68.852ZM32.4996 62.991L33.1534 62.2343L30.9772 60.354L31.5175 63.1788L32.4996 62.991ZM37.0146 66.892L36.3609 67.6487L36.8874 68.1036L37.497 67.768L37.0146 66.892ZM42.2416 64.014L43.1633 64.4019L44.2794 61.7504L41.7593 63.138L42.2416 64.014ZM39.9266 69.514L39.005 69.126L38.735 69.7673L39.2425 70.2433L39.9266 69.514ZM44.2796 73.597L44.1954 74.5934L47.0622 74.8359L44.9638 72.8676L44.2796 73.597ZM38.3326 73.094L38.4169 72.0975L37.7234 72.0389L37.4275 72.6688L38.3326 73.094ZM35.7956 78.495L34.822 78.7229L35.4777 81.524L36.7008 78.9201L35.7956 78.495ZM71.6666 93.333L72.3738 92.6259L71.6666 91.9188L70.9595 92.6259L71.6666 93.333ZM69.7186 95.281L69.0115 94.5739L68.6912 94.8942L68.7208 95.3464L69.7186 95.281ZM73.6146 95.281L74.6125 95.3464L74.6421 94.8942L74.3218 94.5739L73.6146 95.281ZM72.6478 110.032L71.6499 109.966L71.5845 110.965L72.5833 111.029L72.6478 110.032ZM73.6247 110.127L73.4954 111.118L74.4858 111.247L74.6161 110.257L73.6247 110.127ZM75.3966 96.667L76.1038 95.9599L74.6699 94.526L74.4052 96.5364L75.3966 96.667ZM76.9856 98.256L77.9664 98.451L78.0707 97.9268L77.6928 97.5489L76.9856 98.256ZM74.5932 110.285L73.6124 110.09L73.4171 111.072L74.3992 111.266L74.5932 110.285ZM80.001 112.527L79.4447 113.358L80.2764 113.915L80.8325 113.082L80.001 112.527ZM86.8157 102.328V101.328H86.2811L85.9842 101.772L86.8157 102.328ZM89.0636 102.328L89.857 102.937L91.0915 101.328H89.0636V102.328ZM80.7985 113.099L80.0052 112.49L79.3968 113.283L80.1892 113.892L80.7985 113.099ZM81.5568 113.722L80.8972 114.474L81.649 115.134L82.3086 114.382L81.5568 113.722ZM91.3036 102.608V101.608H90.8506L90.5518 101.949L91.3036 102.608ZM94.0576 102.608H95.0576V101.608H94.0576V102.608ZM94.0576 105.363L94.717 106.115L95.0576 105.816V105.363H94.0576ZM82.9441 115.11L82.2848 114.358L81.5326 115.017L82.1926 115.769L82.9441 115.11ZM83.5674 115.868L82.7745 116.477L83.3834 117.27L84.1762 116.661L83.5674 115.868ZM94.3387 107.603H95.3387V105.575L93.7299 106.81L94.3387 107.603ZM94.3387 109.851L94.8942 110.682L95.3387 110.385V109.851H94.3387ZM84.1399 116.666L83.5843 115.834L82.7521 116.39L83.3089 117.222L84.1399 116.666ZM86.3812 122.073L85.4002 122.267L85.5944 123.249L86.5763 123.054L86.3812 122.073ZM98.4097 119.68L99.1168 118.973L98.7388 118.595L98.2145 118.699L98.4097 119.68ZM99.9996 121.27L100.13 122.261L102.141 121.997L100.707 120.563L99.9996 121.27ZM86.54 123.042L86.4095 122.05L85.4193 122.181L85.5484 123.171L86.54 123.042ZM86.6351 124.019L85.6371 124.083L85.7016 125.082L86.7005 125.017L86.6351 124.019ZM101.385 123.052L102.092 122.345L101.771 122.024L101.319 122.054L101.385 123.052ZM103.333 125L104.04 125.707L104.747 125L104.04 124.293L103.333 125ZM101.385 126.948L101.319 127.946L101.771 127.975L102.092 127.655L101.385 126.948ZM86.6351 125.981L86.7005 124.983L85.7016 124.918L85.6371 125.917L86.6351 125.981ZM86.54 126.958L85.5484 126.829L85.4193 127.819L86.4095 127.949L86.54 126.958ZM99.9996 128.73L100.707 129.437L102.141 128.003L100.13 127.739L99.9996 128.73ZM98.4097 130.32L98.2145 131.301L98.7388 131.405L99.1168 131.027L98.4097 130.32ZM86.3812 127.927L86.5763 126.946L85.5944 126.751L85.4002 127.733L86.3812 127.927ZM84.1399 133.334L83.3089 132.778L82.7521 133.61L83.5843 134.166L84.1399 133.334ZM94.3387 140.149H95.3387V139.614L94.8942 139.317L94.3387 140.149ZM94.3387 142.397L93.7299 143.19L95.3387 144.425V142.397H94.3387ZM83.5674 134.132L84.1762 133.338L83.3834 132.73L82.7745 133.522L83.5674 134.132ZM82.9441 134.89L82.1926 134.231L81.5326 134.983L82.2848 135.642L82.9441 134.89ZM94.0576 144.637H95.0576V144.184L94.717 143.885L94.0576 144.637ZM94.0576 147.392V148.392H95.0576V147.392H94.0576ZM91.3036 147.392L90.5518 148.051L90.8506 148.392H91.3036V147.392ZM81.5568 136.278L82.3086 135.618L81.649 134.866L80.8972 135.526L81.5568 136.278ZM80.7985 136.901L80.1892 136.108L79.3968 136.717L80.0052 137.509L80.7985 136.901ZM89.0636 147.672V148.672H91.0915L89.857 147.063L89.0636 147.672ZM86.8157 147.672L85.9842 148.228L86.2811 148.672H86.8157V147.672ZM80.001 137.473L80.8325 136.918L80.2764 136.085L79.4447 136.642L80.001 137.473ZM74.5932 139.715L74.3992 138.734L73.4171 138.928L73.6124 139.91L74.5932 139.715ZM76.9856 151.744L77.6928 152.451L78.0707 152.073L77.9664 151.549L76.9856 151.744ZM75.3966 153.333L74.4052 153.463L74.6699 155.474L76.1038 154.04L75.3966 153.333ZM73.6247 139.873L74.6161 139.743L74.4858 138.753L73.4954 138.882L73.6247 139.873ZM72.6478 139.968L72.5834 138.97L71.5845 139.035L71.6499 140.034L72.6478 139.968ZM73.6146 154.719L74.3218 155.426L74.6421 155.106L74.6125 154.654L73.6146 154.719ZM71.6666 156.667L70.9595 157.374L71.6666 158.081L72.3738 157.374L71.6666 156.667ZM69.7186 154.719L68.7208 154.654L68.6912 155.106L69.0115 155.426L69.7186 154.719ZM70.6855 139.968L71.6834 140.034L71.7488 139.035L70.7499 138.97L70.6855 139.968ZM69.7086 139.873L69.8379 138.882L68.8475 138.753L68.7171 139.743L69.7086 139.873ZM67.9366 153.333L67.2298 154.04L68.6635 155.473L68.9281 153.463L67.9366 153.333ZM66.3466 151.744L65.3659 151.549L65.2615 152.073L65.6398 152.451L66.3466 151.744ZM68.7396 139.715L69.7204 139.91L69.9157 138.928L68.9336 138.734L68.7396 139.715ZM63.3321 137.473L63.8885 136.642L63.0567 136.086L62.5007 136.918L63.3321 137.473ZM56.5176 147.672V148.672H57.0522L57.3491 148.228L56.5176 147.672ZM54.2686 147.672L53.4753 147.063L52.2408 148.672H54.2686V147.672ZM62.5343 136.901L63.3276 137.509L63.936 136.717L63.1437 136.108L62.5343 136.901ZM61.7763 136.278L62.436 135.526L61.6841 134.866L61.0245 135.619L61.7763 136.278ZM52.0296 147.392V148.392H52.4827L52.7815 148.051L52.0296 147.392ZM49.2746 147.392H48.2746V148.392H49.2746V147.392ZM49.2746 144.637L48.6153 143.885L48.2746 144.184V144.637H49.2746ZM60.3887 134.89L61.0481 135.642L61.8002 134.983L61.1403 134.231L60.3887 134.89ZM59.7655 134.132L60.5584 133.522L59.9496 132.73L59.1568 133.338L59.7655 134.132ZM48.9936 142.397H47.9936V144.425L49.6024 143.19L48.9936 142.397ZM48.9936 140.149L48.4381 139.317L47.9936 139.614V140.149H48.9936ZM59.1931 133.334L59.7486 134.166L60.5808 133.61L60.024 132.778L59.1931 133.334ZM56.9521 127.927L57.9331 127.733L57.7388 126.751L56.757 126.946L56.9521 127.927ZM44.9226 130.32L44.2155 131.027L44.5935 131.405L45.1177 131.301L44.9226 130.32ZM43.3326 128.73L43.2021 127.739L41.1917 128.003L42.6255 129.437L43.3326 128.73ZM56.7933 126.958L56.9238 127.949L57.914 127.819L57.7849 126.829L56.7933 126.958ZM56.6982 125.981L57.6961 125.917L57.6317 124.918L56.6328 124.983L56.6982 125.981ZM41.9476 126.948L41.2405 127.655L41.5609 127.975L42.0131 127.946L41.9476 126.948ZM39.9996 125L39.2925 124.293L38.5854 125L39.2925 125.707L39.9996 125ZM41.9476 123.052L42.0131 122.054L41.5609 122.024L41.2405 122.345L41.9476 123.052ZM56.6982 124.019L56.6328 125.017L57.6317 125.082L57.6961 124.083L56.6982 124.019ZM56.7933 123.042L57.7849 123.171L57.914 122.181L56.9238 122.051L56.7933 123.042ZM43.3326 121.27L42.6255 120.563L41.1917 121.997L43.2021 122.261L43.3326 121.27ZM44.9226 119.68L45.1177 118.699L44.5935 118.595L44.2155 118.973L44.9226 119.68ZM56.9521 122.073L56.757 123.054L57.7388 123.249L57.9331 122.267L56.9521 122.073ZM59.1931 116.666L60.024 117.222L60.5809 116.39L59.7486 115.834L59.1931 116.666ZM48.9936 109.851H47.9936V110.385L48.4381 110.682L48.9936 109.851ZM48.9936 107.603L49.6024 106.81L47.9936 105.575V107.603H48.9936ZM59.7655 115.868L59.1568 116.662L59.9496 117.27L60.5584 116.478L59.7655 115.868ZM60.3888 115.11L61.1403 115.769L61.8002 115.017L61.0481 114.358L60.3888 115.11ZM49.2746 105.363H48.2746V105.816L48.6153 106.115L49.2746 105.363ZM49.2746 102.608V101.608H48.2746V102.608H49.2746ZM52.0296 102.608L52.7815 101.949L52.4827 101.608H52.0296V102.608ZM61.7763 113.722L61.0245 114.381L61.6841 115.134L62.436 114.474L61.7763 113.722ZM62.5343 113.099L63.1437 113.892L63.936 113.283L63.3276 112.49L62.5343 113.099ZM54.2686 102.328V101.328H52.2408L53.4753 102.937L54.2686 102.328ZM56.5176 102.328L57.3491 101.772L57.0522 101.328H56.5176V102.328ZM63.3321 112.527L62.5007 113.082L63.0567 113.914L63.8885 113.357L63.3321 112.527ZM68.7396 110.285L68.9336 111.266L69.9157 111.072L69.7204 110.09L68.7396 110.285ZM66.3466 98.256L65.6398 97.5486L65.2615 97.9266L65.3659 98.4511L66.3466 98.256ZM67.9366 96.667L68.9281 96.5364L68.6635 94.5268L67.2298 95.9596L67.9366 96.667ZM69.7086 110.127L68.7171 110.257L68.8475 111.247L69.8378 111.118L69.7086 110.127ZM70.6855 110.032L70.7499 111.029L71.7488 110.965L71.6834 109.966L70.6855 110.032ZM33.6206 181.149L34.6028 181.337L34.7335 180.653L34.1383 180.293L33.6206 181.149ZM28.5146 178.06L28.39 177.068L25.5355 177.426L27.997 178.916L28.5146 178.06ZM32.4996 187.01L31.5175 186.822L30.977 189.648L33.1535 187.767L32.4996 187.01ZM37.0146 183.108L37.497 182.232L36.8873 181.896L36.3608 182.351L37.0146 183.108ZM42.2416 185.986L41.7593 186.862L44.2794 188.25L43.1633 185.598L42.2416 185.986ZM39.9266 180.486L39.2425 179.757L38.735 180.233L39.005 180.874L39.9266 180.486ZM44.2796 176.403L44.9638 177.132L47.0622 175.164L44.1954 175.407L44.2796 176.403ZM38.3326 176.906L37.4275 177.331L37.7234 177.961L38.4169 177.902L38.3326 176.906ZM35.7956 171.505L36.7008 171.08L35.4776 168.476L34.822 171.277L35.7956 171.505ZM34.4356 177.316L34.5603 178.308L35.2508 178.221L35.4093 177.544L34.4356 177.316ZM124.828 120.102L125.117 119.145L122.363 118.312L124.007 120.673L124.828 120.102ZM128.237 125L129.057 125.571L129.455 125L129.057 124.429L128.237 125ZM130.54 121.83L130.25 122.787L130.916 122.989L131.337 122.434L130.54 121.83ZM134.146 117.074L135.145 117.054L135.087 114.177L133.349 116.47L134.146 117.074ZM134.267 123.041L133.267 123.061L133.281 123.757L133.938 123.986L134.267 123.041ZM139.904 125L140.232 125.945L142.95 125L140.232 124.055L139.904 125ZM134.267 126.959L133.938 126.014L133.281 126.243L133.267 126.939L134.267 126.959ZM134.146 132.925L133.349 133.529L135.087 135.821L135.145 132.945L134.146 132.925ZM130.54 128.17L131.336 127.566L130.916 127.011L130.25 127.213L130.54 128.17ZM124.828 129.898L124.007 129.327L122.363 131.688L125.117 130.855L124.828 129.898ZM28.3898 72.9321L34.3108 73.6771L34.5605 71.6928L28.6395 70.9478L28.3898 72.9321ZM33.1031 67.9963L27.9971 71.0843L29.0321 72.7957L34.1381 69.7077L33.1031 67.9963ZM31.5175 63.1788L32.6385 69.0398L34.6028 68.6641L33.4818 62.8031L31.5175 63.1788ZM37.6684 66.1353L33.1534 62.2343L31.8459 63.7477L36.3609 67.6487L37.6684 66.1353ZM41.7593 63.138L36.5323 66.016L37.497 67.768L42.724 64.89L41.7593 63.138ZM40.8483 69.9019L43.1633 64.4019L41.32 63.626L39.005 69.126L40.8483 69.9019ZM44.9638 72.8676L40.6108 68.7846L39.2425 70.2433L43.5955 74.3263L44.9638 72.8676ZM38.2484 74.0904L44.1954 74.5934L44.3639 72.6005L38.4169 72.0975L38.2484 74.0904ZM36.7008 78.9201L39.2378 73.5191L37.4275 72.6688L34.8905 78.0698L36.7008 78.9201ZM33.462 72.9129L34.822 78.7229L36.7693 78.267L35.4093 72.457L33.462 72.9129ZM70.9595 92.6259L69.0115 94.5739L70.4258 95.9881L72.3738 94.0401L70.9595 92.6259ZM74.3218 94.5739L72.3738 92.6259L70.9595 94.0401L72.9075 95.9881L74.3218 94.5739ZM73.6456 110.097L74.6125 95.3464L72.6168 95.2156L71.6499 109.966L73.6456 110.097ZM73.754 109.135C73.41 109.09 73.0626 109.056 72.7122 109.034L72.5833 111.029C72.8903 111.049 73.1944 111.079 73.4954 111.118L73.754 109.135ZM74.4052 96.5364L72.6333 109.996L74.6161 110.257L76.3881 96.7975L74.4052 96.5364ZM77.6928 97.5489L76.1038 95.9599L74.6895 97.3741L76.2785 98.9631L77.6928 97.5489ZM75.574 110.48L77.9664 98.451L76.0049 98.0609L73.6124 110.09L75.574 110.48ZM80.5574 111.696C78.8405 110.546 76.8879 109.72 74.7872 109.304L74.3992 111.266C76.2351 111.629 77.9422 112.352 79.4447 113.358L80.5574 111.696ZM85.9842 101.772L79.1696 111.971L80.8325 113.082L87.6471 102.884L85.9842 101.772ZM89.0636 101.328H86.8157V103.328H89.0636V101.328ZM81.5919 113.708L89.857 102.937L88.2703 101.719L80.0052 112.49L81.5919 113.708ZM82.2164 112.971C81.9544 112.741 81.6847 112.519 81.4079 112.306L80.1892 113.892C80.4315 114.078 80.6677 114.272 80.8972 114.474L82.2164 112.971ZM90.5518 101.949L80.805 113.063L82.3086 114.382L92.0555 103.267L90.5518 101.949ZM94.0576 101.608H91.3036V103.608H94.0576V101.608ZM95.0576 105.363V102.608H93.0576V105.363H95.0576ZM83.6035 115.861L94.717 106.115L93.3983 104.611L82.2848 114.358L83.6035 115.861ZM84.3603 115.259C84.1475 114.982 83.9258 114.712 83.6957 114.45L82.1926 115.769C82.3941 115.999 82.5882 116.235 82.7745 116.477L84.3603 115.259ZM93.7299 106.81L82.9586 115.075L84.1762 116.661L94.9474 108.396L93.7299 106.81ZM95.3387 109.851V107.603H93.3387V109.851H95.3387ZM84.6955 117.497L94.8942 110.682L93.7831 109.019L83.5843 115.834L84.6955 117.497ZM87.3622 121.879C86.9466 119.778 86.1202 117.826 84.9708 116.109L83.3089 117.222C84.3148 118.724 85.037 120.431 85.4002 122.267L87.3622 121.879ZM98.2145 118.699L86.1861 121.092L86.5763 123.054L98.6048 120.661L98.2145 118.699ZM100.707 120.563L99.1168 118.973L97.7025 120.387L99.2925 121.977L100.707 120.563ZM86.6705 124.033L100.13 122.261L99.8691 120.279L86.4095 122.05L86.6705 124.033ZM87.633 123.954C87.6104 123.604 87.5765 123.257 87.5316 122.913L85.5484 123.171C85.5876 123.472 85.6173 123.776 85.6371 124.083L87.633 123.954ZM101.319 122.054L86.5697 123.021L86.7005 125.017L101.45 124.05L101.319 122.054ZM104.04 124.293L102.092 122.345L100.678 123.759L102.626 125.707L104.04 124.293ZM102.092 127.655L104.04 125.707L102.626 124.293L100.678 126.241L102.092 127.655ZM86.5697 126.979L101.319 127.946L101.45 125.95L86.7005 124.983L86.5697 126.979ZM87.5316 127.087C87.5765 126.743 87.6104 126.396 87.633 126.046L85.6371 125.917C85.6173 126.224 85.5876 126.528 85.5484 126.829L87.5316 127.087ZM100.13 127.739L86.6705 125.967L86.4095 127.949L99.8691 129.721L100.13 127.739ZM99.1168 131.027L100.707 129.437L99.2925 128.023L97.7025 129.613L99.1168 131.027ZM86.1861 128.908L98.2145 131.301L98.6048 129.339L86.5763 126.946L86.1861 128.908ZM84.9708 133.891C86.1202 132.174 86.9466 130.222 87.3622 128.121L85.4002 127.733C85.037 129.569 84.3148 131.276 83.3089 132.778L84.9708 133.891ZM94.8942 139.317L84.6955 132.503L83.5843 134.166L93.7831 140.98L94.8942 139.317ZM95.3387 142.397V140.149H93.3387V142.397H95.3387ZM82.9586 134.925L93.7299 143.19L94.9474 141.604L84.1762 133.338L82.9586 134.925ZM83.6957 135.55C83.9258 135.288 84.1475 135.018 84.3603 134.741L82.7745 133.522C82.5882 133.765 82.3941 134.001 82.1926 134.231L83.6957 135.55ZM94.717 143.885L83.6035 134.139L82.2848 135.642L93.3983 145.389L94.717 143.885ZM95.0576 147.392V144.637H93.0576V147.392H95.0576ZM91.3036 148.392H94.0576V146.392H91.3036V148.392ZM80.805 136.937L90.5518 148.051L92.0555 146.733L82.3086 135.618L80.805 136.937ZM81.4078 137.694C81.6847 137.481 81.9544 137.259 82.2164 137.029L80.8972 135.526C80.6677 135.728 80.4315 135.922 80.1892 136.108L81.4078 137.694ZM89.857 147.063L81.5919 136.292L80.0052 137.509L88.2703 148.281L89.857 147.063ZM86.8157 148.672H89.0636V146.672H86.8157V148.672ZM79.1696 138.029L85.9842 148.228L87.6471 147.116L80.8325 136.918L79.1696 138.029ZM74.7872 140.696C76.8879 140.28 78.8405 139.454 80.5574 138.304L79.4447 136.642C77.9422 137.648 76.2351 138.37 74.3992 138.734L74.7872 140.696ZM77.9664 151.549L75.574 139.52L73.6124 139.91L76.0049 151.939L77.9664 151.549ZM76.1038 154.04L77.6928 152.451L76.2785 151.037L74.6895 152.626L76.1038 154.04ZM72.6333 140.004L74.4052 153.463L76.3881 153.202L74.6161 139.743L72.6333 140.004ZM72.7122 140.966C73.0626 140.944 73.41 140.91 73.754 140.865L73.4954 138.882C73.1944 138.921 72.8903 138.951 72.5834 138.97L72.7122 140.966ZM74.6125 154.654L73.6456 139.903L71.6499 140.034L72.6168 154.784L74.6125 154.654ZM72.3738 157.374L74.3218 155.426L72.9075 154.012L70.9595 155.96L72.3738 157.374ZM69.0115 155.426L70.9595 157.374L72.3738 155.96L70.4258 154.012L69.0115 155.426ZM69.6876 139.903L68.7208 154.654L70.7165 154.784L71.6834 140.034L69.6876 139.903ZM69.5793 140.865C69.9234 140.91 70.2707 140.944 70.6211 140.966L70.7499 138.97C70.443 138.951 70.1389 138.921 69.8379 138.882L69.5793 140.865ZM68.9281 153.463L70.7 140.004L68.7171 139.743L66.9452 153.202L68.9281 153.463ZM65.6398 152.451L67.2298 154.04L68.6435 152.626L67.0535 151.037L65.6398 152.451ZM67.7588 139.519L65.3659 151.549L67.3274 151.939L69.7204 139.91L67.7588 139.519ZM62.7758 138.304C64.4925 139.454 66.445 140.28 68.5455 140.696L68.9336 138.734C67.0978 138.37 65.3908 137.648 63.8885 136.642L62.7758 138.304ZM57.3491 148.228L64.1636 138.029L62.5007 136.918L55.6862 147.116L57.3491 148.228ZM54.2686 148.672H56.5176V146.672H54.2686V148.672ZM61.741 136.292L53.4753 147.063L55.062 148.281L63.3276 137.509L61.741 136.292ZM61.1167 137.029C61.3786 137.259 61.6482 137.481 61.925 137.694L63.1437 136.108C62.9014 135.922 62.6654 135.728 62.436 135.526L61.1167 137.029ZM52.7815 148.051L62.5282 136.937L61.0245 135.619L51.2778 146.733L52.7815 148.051ZM49.2746 148.392H52.0296V146.392H49.2746V148.392ZM48.2746 144.637V147.392H50.2746V144.637H48.2746ZM59.7294 134.138L48.6153 143.885L49.934 145.389L61.0481 135.642L59.7294 134.138ZM58.9726 134.741C59.1854 135.018 59.4071 135.288 59.6372 135.55L61.1403 134.231C60.9388 134.001 60.7448 133.765 60.5584 133.522L58.9726 134.741ZM49.6024 143.19L60.3743 134.925L59.1568 133.338L48.3849 141.604L49.6024 143.19ZM47.9936 140.149V142.397H49.9936V140.149H47.9936ZM58.6375 132.503L48.4381 139.317L49.5492 140.98L59.7486 134.166L58.6375 132.503ZM55.9711 128.121C56.3865 130.221 57.2128 132.174 58.3621 133.891L60.024 132.778C59.0183 131.276 58.2962 129.569 57.9331 127.733L55.9711 128.121ZM45.1177 131.301L57.1472 128.908L56.757 126.946L44.7275 129.339L45.1177 131.301ZM42.6255 129.437L44.2155 131.027L45.6298 129.613L44.0398 128.023L42.6255 129.437ZM56.6628 125.967L43.2021 127.739L43.4632 129.721L56.9238 127.949L56.6628 125.967ZM55.7003 126.046C55.7229 126.396 55.7568 126.743 55.8017 127.087L57.7849 126.829C57.7456 126.528 57.716 126.224 57.6961 125.917L55.7003 126.046ZM42.0131 127.946L56.7636 126.979L56.6328 124.983L41.8822 125.95L42.0131 127.946ZM39.2925 125.707L41.2405 127.655L42.6548 126.241L40.7068 124.293L39.2925 125.707ZM41.2405 122.345L39.2925 124.293L40.7068 125.707L42.6548 123.759L41.2405 122.345ZM56.7636 123.021L42.0131 122.054L41.8822 124.05L56.6328 125.017L56.7636 123.021ZM55.8017 122.913C55.7568 123.257 55.7229 123.604 55.7003 123.954L57.6961 124.083C57.716 123.776 57.7456 123.472 57.7849 123.171L55.8017 122.913ZM43.2021 122.261L56.6628 124.033L56.9238 122.051L43.4632 120.279L43.2021 122.261ZM44.2155 118.973L42.6255 120.563L44.0398 121.977L45.6298 120.387L44.2155 118.973ZM57.1472 121.092L45.1177 118.699L44.7275 120.661L56.757 123.054L57.1472 121.092ZM58.3621 116.109C57.2128 117.826 56.3865 119.778 55.9711 121.879L57.9331 122.267C58.2962 120.431 59.0183 118.724 60.024 117.222L58.3621 116.109ZM48.4381 110.682L58.6375 117.497L59.7486 115.834L49.5492 109.019L48.4381 110.682ZM47.9936 107.603V109.851H49.9936V107.603H47.9936ZM60.3743 115.075L49.6024 106.81L48.3849 108.396L59.1568 116.662L60.3743 115.075ZM59.6372 114.45C59.4071 114.712 59.1854 114.982 58.9726 115.259L60.5584 116.478C60.7448 116.235 60.9389 115.999 61.1403 115.769L59.6372 114.45ZM48.6153 106.115L59.7294 115.861L61.0481 114.358L49.934 104.611L48.6153 106.115ZM48.2746 102.608V105.363H50.2746V102.608H48.2746ZM52.0296 101.608H49.2746V103.608H52.0296V101.608ZM62.5282 113.063L52.7815 101.949L51.2778 103.267L61.0245 114.381L62.5282 113.063ZM61.9249 112.306C61.6482 112.519 61.3787 112.741 61.1167 112.97L62.436 114.474C62.6654 114.272 62.9014 114.078 63.1437 113.892L61.9249 112.306ZM53.4753 102.937L61.741 113.708L63.3276 112.49L55.062 101.719L53.4753 102.937ZM56.5176 101.328H54.2686V103.328H56.5176V101.328ZM64.1636 111.971L57.3491 101.772L55.6862 102.884L62.5007 113.082L64.1636 111.971ZM68.5455 109.304C66.445 109.72 64.4925 110.546 62.7758 111.696L63.8885 113.357C65.3908 112.352 67.0978 111.629 68.9336 111.266L68.5455 109.304ZM65.3659 98.4511L67.7588 110.48L69.7204 110.09L67.3274 98.0609L65.3659 98.4511ZM67.2298 95.9596L65.6398 97.5486L67.0535 98.9633L68.6435 97.3743L67.2298 95.9596ZM70.7 109.996L68.9281 96.5364L66.9452 96.7975L68.7171 110.257L70.7 109.996ZM70.6211 109.034C70.2707 109.056 69.9234 109.09 69.5793 109.135L69.8378 111.118C70.1389 111.079 70.443 111.049 70.7499 111.029L70.6211 109.034ZM68.7208 95.3464L69.6876 110.097L71.6834 109.966L70.7165 95.2156L68.7208 95.3464ZM34.1383 180.293L29.0323 177.204L27.997 178.916L33.103 182.005L34.1383 180.293ZM33.4818 187.198L34.6028 181.337L32.6385 180.961L31.5175 186.822L33.4818 187.198ZM36.3608 182.351L31.8458 186.253L33.1535 187.767L37.6685 183.865L36.3608 182.351ZM42.724 185.11L37.497 182.232L36.5323 183.984L41.7593 186.862L42.724 185.11ZM39.005 180.874L41.32 186.374L43.1633 185.598L40.8483 180.098L39.005 180.874ZM43.5955 175.674L39.2425 179.757L40.6108 181.215L44.9638 177.132L43.5955 175.674ZM38.4169 177.902L44.3639 177.399L44.1954 175.407L38.2484 175.91L38.4169 177.902ZM34.8905 171.93L37.4275 177.331L39.2378 176.481L36.7008 171.08L34.8905 171.93ZM35.4093 177.544L36.7693 171.733L34.822 171.277L33.462 177.088L35.4093 177.544ZM28.6393 179.052L34.5603 178.308L34.311 176.324L28.39 177.068L28.6393 179.052ZM124.007 120.673L127.416 125.571L129.057 124.429L125.648 119.531L124.007 120.673ZM130.829 120.873L125.117 119.145L124.538 121.059L130.25 122.787L130.829 120.873ZM133.349 116.47L129.743 121.226L131.337 122.434L134.943 117.678L133.349 116.47ZM135.266 123.021L135.145 117.054L133.146 117.094L133.267 123.061L135.266 123.021ZM140.232 124.055L134.595 122.096L133.938 123.986L139.575 125.945L140.232 124.055ZM134.595 127.904L140.232 125.945L139.575 124.055L133.938 126.014L134.595 127.904ZM135.145 132.945L135.266 126.979L133.267 126.939L133.146 132.905L135.145 132.945ZM129.743 128.774L133.349 133.529L134.942 132.321L131.336 127.566L129.743 128.774ZM125.117 130.855L130.829 129.127L130.25 127.213L124.538 128.941L125.117 130.855ZM127.416 124.429L124.007 129.327L125.648 130.469L129.057 125.571L127.416 124.429Z" fill="white"/>
</g>
</g>
</g>
</svg>
