<svg width="350" height="250" viewBox="0 0 350 250" fill="none" xmlns="http://www.w3.org/2000/svg">
<g id="flag / asia / georgia / b">
<g id="georgia b">
<g id="white">
<path fill-rule="evenodd" clip-rule="evenodd" d="M195 225H325V145H195V225ZM155 225V145H25V225H155ZM195 105H325V25H195V105ZM155 25V105H25V25H155ZM110 58.144C110 58.144 102.743 59.169 95.157 59.553C95.676 52.473 96.856 45 96.856 45H83.144C83.144 45 84.143 52.071 84.538 59.55C76.905 59.163 70 58.144 70 58.144V71.855C70 71.855 77.152 70.576 84.568 70.096C84.196 77.872 83.144 85 83.144 85H96.856C96.856 85 95.54 77.652 95.075 70.13C102.263 70.635 110 71.855 110 71.855V58.144ZM95.157 179.553C102.743 179.169 110 178.145 110 178.145V191.855C110 191.855 102.263 190.635 95.075 190.13C95.54 197.652 96.856 205 96.856 205H83.144C83.144 205 84.196 197.872 84.568 190.095C77.152 190.576 70 191.855 70 191.855V178.145C70 178.145 76.905 179.163 84.538 179.55C84.143 172.071 83.144 165 83.144 165H96.856C96.856 165 95.676 172.473 95.157 179.553ZM280 58.144C280 58.144 272.743 59.169 265.157 59.553C265.676 52.473 266.856 45 266.856 45H253.144C253.144 45 254.142 52.071 254.538 59.55C246.905 59.163 240 58.144 240 58.144V71.855C240 71.855 247.152 70.577 254.568 70.095C254.195 77.872 253.144 85 253.144 85H266.856C266.856 85 265.54 77.652 265.075 70.13C272.263 70.635 280 71.855 280 71.855V58.144ZM265.157 179.553C272.743 179.169 280 178.144 280 178.144V191.856C280 191.856 272.263 190.635 265.075 190.13C265.541 197.652 266.856 205 266.856 205H253.144C253.144 205 254.196 197.872 254.568 190.095C247.153 190.576 240 191.856 240 191.856V178.144C240 178.144 246.905 179.163 254.538 179.55C254.142 172.071 253.144 165 253.144 165H266.856C266.856 165 265.676 172.473 265.157 179.553Z" fill="white" fill-opacity="0.5"/>
<path d="M325 225V226H326V225H325ZM195 225H194V226H195V225ZM325 145H326V144H325V145ZM195 145V144H194V145H195ZM155 145H156V144H155V145ZM155 225V226H156V225H155ZM25 145V144H24V145H25ZM25 225H24V226H25V225ZM325 105V106H326V105H325ZM195 105H194V106H195V105ZM325 25H326V24H325V25ZM195 25V24H194V25H195ZM155 105V106H156V105H155ZM155 25H156V24H155V25ZM25 105H24V106H25V105ZM25 25V24H24V25H25ZM95.157 59.553L94.1597 59.4799L94.0769 60.609L95.2076 60.5517L95.157 59.553ZM110 58.144H111V56.9928L109.86 57.1538L110 58.144ZM96.856 45L97.8438 45.156L98.0263 44H96.856V45ZM83.144 45V44H81.9928L82.1538 45.1399L83.144 45ZM84.538 59.55L84.4874 60.5487L85.5951 60.6049L85.5366 59.4973L84.538 59.55ZM70 58.144L70.146 57.1547L69 56.9856V58.144H70ZM70 71.855H69V73.0497L70.176 72.8394L70 71.855ZM84.568 70.096L85.5669 70.1438L85.6203 69.0258L84.5034 69.0981L84.568 70.096ZM83.144 85L82.1547 84.854L81.9856 86H83.144V85ZM96.856 85V86H98.051L97.8403 84.8237L96.856 85ZM95.075 70.13L95.1451 69.1325L94.0065 69.0525L94.0769 70.1917L95.075 70.13ZM110 71.855L109.844 72.8428L111 73.025V71.855H110ZM110 178.145H111V176.994L109.86 177.155L110 178.145ZM95.157 179.553L94.1597 179.48L94.0769 180.609L95.2076 180.552L95.157 179.553ZM110 191.855L109.844 192.843L111 193.025V191.855H110ZM95.075 190.13L95.1451 189.132L94.0065 189.052L94.0769 190.192L95.075 190.13ZM96.856 205V206H98.051L97.8403 204.824L96.856 205ZM83.144 205L82.1547 204.854L81.9856 206H83.144V205ZM84.568 190.095L85.5669 190.143L85.6203 189.025L84.5033 189.097L84.568 190.095ZM70 191.855H69V193.05L70.176 192.839L70 191.855ZM70 178.145L70.1459 177.156L69 176.987V178.145H70ZM84.538 179.55L84.4874 180.549L85.5951 180.605L85.5366 179.497L84.538 179.55ZM83.144 165V164H81.9928L82.1538 165.14L83.144 165ZM96.856 165L97.8438 165.156L98.0263 164H96.856V165ZM265.157 59.553L264.16 59.4799L264.077 60.609L265.208 60.5517L265.157 59.553ZM280 58.144H281V56.9928L279.86 57.1538L280 58.144ZM266.856 45L267.844 45.156L268.026 44H266.856V45ZM253.144 45V44H251.993L252.154 45.1398L253.144 45ZM254.538 59.55L254.487 60.5487L255.595 60.6049L255.537 59.4971L254.538 59.55ZM240 58.144L240.146 57.1547L239 56.9856V58.144H240ZM240 71.855H239V73.0495L240.176 72.8394L240 71.855ZM254.568 70.095L255.567 70.1429L255.62 69.0245L254.503 69.0971L254.568 70.095ZM253.144 85L252.155 84.8541L251.986 86H253.144V85ZM266.856 85V86H268.051L267.84 84.8237L266.856 85ZM265.075 70.13L265.145 69.1325L264.006 69.0525L264.077 70.1917L265.075 70.13ZM280 71.855L279.844 72.8428L281 73.025V71.855H280ZM280 178.144H281V176.993L279.86 177.154L280 178.144ZM265.157 179.553L264.16 179.48L264.077 180.609L265.208 180.552L265.157 179.553ZM280 191.856L279.844 192.844L281 193.026V191.856H280ZM265.075 190.13L265.145 189.132L264.006 189.052L264.077 190.192L265.075 190.13ZM266.856 205V206H268.051L267.84 204.824L266.856 205ZM253.144 205L252.155 204.854L251.986 206H253.144V205ZM254.568 190.095L255.567 190.143L255.62 189.025L254.503 189.097L254.568 190.095ZM240 191.856H239V193.051L240.176 192.84L240 191.856ZM240 178.144L240.146 177.155L239 176.986V178.144H240ZM254.538 179.55L254.487 180.549L255.595 180.605L255.537 179.497L254.538 179.55ZM253.144 165V164H251.993L252.154 165.14L253.144 165ZM266.856 165L267.844 165.156L268.026 164H266.856V165ZM325 224H195V226H325V224ZM324 145V225H326V145H324ZM195 146H325V144H195V146ZM196 225V145H194V225H196ZM154 145V225H156V145H154ZM25 146H155V144H25V146ZM26 225V145H24V225H26ZM155 224H25V226H155V224ZM325 104H195V106H325V104ZM324 25V105H326V25H324ZM195 26H325V24H195V26ZM196 105V25H194V105H196ZM156 105V25H154V105H156ZM25 106H155V104H25V106ZM24 25V105H26V25H24ZM155 24H25V26H155V24ZM95.2076 60.5517C99.0269 60.3584 102.759 60.004 105.533 59.6985C106.921 59.5456 108.071 59.4048 108.874 59.3021C109.276 59.2507 109.592 59.2089 109.807 59.1798C109.915 59.1653 109.998 59.1539 110.054 59.1462C110.082 59.1423 110.103 59.1394 110.117 59.1373C110.125 59.1363 110.13 59.1355 110.134 59.135C110.136 59.1348 110.137 59.1346 110.138 59.1344C110.139 59.1343 110.139 59.1343 110.139 59.1342C110.139 59.1342 110.14 59.1342 110.14 59.1342C110.14 59.1342 110.14 59.1342 110 58.144C109.86 57.1538 109.86 57.1538 109.86 57.1538C109.86 57.1538 109.86 57.1538 109.86 57.1539C109.86 57.1539 109.86 57.1539 109.859 57.154C109.858 57.1541 109.857 57.1542 109.856 57.1545C109.852 57.1549 109.847 57.1556 109.841 57.1566C109.827 57.1585 109.807 57.1613 109.78 57.165C109.726 57.1725 109.645 57.1835 109.54 57.1978C109.329 57.2263 109.018 57.2675 108.621 57.3182C107.827 57.4197 106.688 57.5591 105.314 57.7105C102.563 58.0135 98.873 58.3636 95.1064 58.5543L95.2076 60.5517ZM96.856 45C95.8682 44.844 95.8682 44.8441 95.8682 44.8442C95.8682 44.8443 95.8682 44.8444 95.8682 44.8445C95.8681 44.8448 95.8681 44.8452 95.868 44.8457C95.8678 44.8467 95.8676 44.8482 95.8673 44.8501C95.8667 44.8539 95.8658 44.8595 95.8646 44.8669C95.8623 44.8817 95.8589 44.9035 95.8545 44.9322C95.8456 44.9895 95.8325 45.0741 95.8157 45.1841C95.7822 45.4041 95.7337 45.7257 95.6741 46.1335C95.5547 46.9489 95.3903 48.1094 95.2096 49.4919C94.8484 52.2547 94.4211 55.9136 94.1597 59.4799L96.1543 59.6261C96.4119 56.1124 96.8341 52.4948 97.1927 49.7511C97.3719 48.3804 97.5349 47.2301 97.653 46.4231C97.712 46.0196 97.7598 45.7021 97.7929 45.4857C97.8093 45.3776 97.8221 45.2947 97.8308 45.2391C97.8351 45.2113 97.8384 45.1903 97.8406 45.1764C97.8417 45.1694 97.8425 45.1642 97.843 45.1608C97.8433 45.1591 97.8435 45.1578 97.8436 45.157C97.8437 45.1566 97.8437 45.1563 97.8437 45.1562C97.8438 45.1561 97.8438 45.156 97.8438 45.156C97.8438 45.156 97.8438 45.156 96.856 45ZM83.144 46H96.856V44H83.144V46ZM85.5366 59.4973C85.3378 55.7322 84.9872 52.0744 84.6868 49.3604C84.5365 48.0026 84.3986 46.8793 84.2982 46.0947C84.2479 45.7024 84.2071 45.3947 84.1787 45.1846C84.1645 45.0795 84.1534 44.9989 84.1459 44.9443C84.1421 44.917 84.1392 44.8962 84.1372 44.8821C84.1363 44.875 84.1355 44.8696 84.135 44.866C84.1347 44.8641 84.1345 44.8627 84.1344 44.8618C84.1343 44.8613 84.1343 44.8609 84.1342 44.8606C84.1342 44.8605 84.1342 44.8603 84.1342 44.8603C84.1342 44.8602 84.1342 44.8601 83.144 45C82.1538 45.1399 82.1538 45.1399 82.1538 45.1399C82.1538 45.1399 82.1538 45.14 82.1539 45.14C82.1539 45.1402 82.1539 45.1405 82.154 45.1408C82.1541 45.1416 82.1542 45.1427 82.1545 45.1443C82.1549 45.1475 82.1556 45.1524 82.1565 45.159C82.1583 45.1721 82.1611 45.1919 82.1647 45.2182C82.172 45.2708 82.1828 45.3494 82.1967 45.4523C82.2245 45.6581 82.2648 45.9612 82.3144 46.3487C82.4136 47.1237 82.5501 48.2355 82.6989 49.5804C82.9968 52.2716 83.3432 55.8888 83.5394 59.6027L85.5366 59.4973ZM70 58.144C69.854 59.1333 69.8541 59.1333 69.8542 59.1333C69.8543 59.1333 69.8544 59.1333 69.8545 59.1334C69.8548 59.1334 69.8552 59.1335 69.8557 59.1335C69.8567 59.1337 69.858 59.1339 69.8599 59.1341C69.8635 59.1347 69.8688 59.1355 69.8757 59.1365C69.8895 59.1385 69.91 59.1414 69.9368 59.1453C69.9903 59.153 70.0694 59.1643 70.1725 59.1788C70.3786 59.2078 70.6808 59.2495 71.0668 59.3006C71.8389 59.4029 72.9469 59.5432 74.2943 59.6955C76.9875 60.0001 80.6438 60.3538 84.4874 60.5487L84.5886 58.5513C80.7992 58.3592 77.1865 58.0099 74.519 57.7082C73.186 57.5575 72.0907 57.4188 71.3295 57.3179C70.949 57.2675 70.652 57.2265 70.4507 57.1983C70.3501 57.1841 70.2734 57.1732 70.2221 57.1658C70.1964 57.1621 70.1771 57.1593 70.1644 57.1574C70.158 57.1565 70.1533 57.1558 70.1502 57.1553C70.1487 57.1551 70.1476 57.1549 70.1468 57.1548C70.1465 57.1548 70.1462 57.1548 70.1461 57.1547C70.146 57.1547 70.146 57.1547 70.146 57.1547C70.146 57.1547 70.146 57.1547 70 58.144ZM71 71.855V58.144H69V71.855H71ZM84.5034 69.0981C80.7621 69.3402 77.0937 69.7834 74.3645 70.1651C72.9988 70.3562 71.8658 70.5321 71.0734 70.6605C70.6772 70.7247 70.366 70.777 70.1533 70.8134C70.0469 70.8316 69.9652 70.8458 69.9097 70.8555C69.882 70.8603 69.8609 70.8641 69.8465 70.8666C69.8393 70.8679 69.8338 70.8689 69.8301 70.8695C69.8282 70.8699 69.8267 70.8701 69.8257 70.8703C69.8252 70.8704 69.8248 70.8705 69.8245 70.8705C69.8244 70.8705 69.8242 70.8706 69.8242 70.8706C69.824 70.8706 69.824 70.8706 70 71.855C70.176 72.8394 70.176 72.8394 70.176 72.8394C70.176 72.8394 70.1761 72.8394 70.1761 72.8394C70.1763 72.8393 70.1765 72.8393 70.1769 72.8392C70.1776 72.8391 70.1788 72.8389 70.1804 72.8386C70.1835 72.8381 70.1884 72.8372 70.195 72.836C70.2081 72.8337 70.2281 72.8302 70.2545 72.8255C70.3075 72.8163 70.3866 72.8025 70.4903 72.7848C70.6977 72.7493 71.0032 72.698 71.3933 72.6348C72.1737 72.5084 73.2922 72.3346 74.6415 72.1459C77.3423 71.7681 80.9579 71.3318 84.6326 71.0939L84.5034 69.0981ZM83.144 85C84.1333 85.146 84.1333 85.1459 84.1333 85.1458C84.1333 85.1457 84.1333 85.1456 84.1334 85.1455C84.1334 85.1452 84.1335 85.1448 84.1335 85.1443C84.1337 85.1433 84.1339 85.1418 84.1342 85.14C84.1347 85.1362 84.1355 85.1308 84.1366 85.1236C84.1386 85.1094 84.1417 85.0883 84.1457 85.0607C84.1536 85.0054 84.1653 84.9238 84.1802 84.8175C84.2101 84.605 84.253 84.2935 84.3056 83.8959C84.4107 83.1006 84.5547 81.96 84.7102 80.5757C85.0212 77.8085 85.3795 74.06 85.5669 70.1438L83.5691 70.0482C83.3845 73.9081 83.0308 77.6115 82.7228 80.3523C82.5688 81.722 82.4265 82.8494 82.3228 83.6337C82.271 84.0257 82.2288 84.3319 82.1996 84.5395C82.1851 84.6433 82.1738 84.7225 82.1661 84.7754C82.1623 84.8019 82.1594 84.8218 82.1575 84.835C82.1565 84.8416 82.1558 84.8465 82.1554 84.8496C82.1551 84.8512 82.155 84.8524 82.1549 84.8531C82.1548 84.8535 82.1548 84.8537 82.1547 84.8539C82.1547 84.854 82.1547 84.854 82.1547 84.854C82.1547 84.854 82.1547 84.854 83.144 85ZM96.856 84H83.144V86H96.856V84ZM94.0769 70.1917C94.3115 73.9873 94.7603 77.7321 95.1495 80.5238C95.3442 81.9208 95.5243 83.0817 95.656 83.8943C95.7218 84.3006 95.7755 84.6199 95.8129 84.8382C95.8316 84.9474 95.8461 85.0313 95.8561 85.0882C95.8611 85.1167 95.8649 85.1384 95.8676 85.1532C95.8689 85.1605 95.8699 85.1662 95.8705 85.17C95.8709 85.172 95.8712 85.1735 95.8713 85.1745C95.8714 85.175 95.8715 85.1754 95.8716 85.1757C95.8716 85.1759 95.8716 85.176 95.8716 85.1761C95.8717 85.1762 95.8717 85.1763 96.856 85C97.8403 84.8237 97.8403 84.8237 97.8403 84.8237C97.8403 84.8237 97.8403 84.8237 97.8403 84.8236C97.8403 84.8234 97.8402 84.8232 97.8402 84.8228C97.84 84.8221 97.8398 84.8209 97.8395 84.8193C97.839 84.816 97.8381 84.811 97.8369 84.8042C97.8345 84.7907 97.8309 84.7702 97.8261 84.743C97.8166 84.6887 97.8024 84.6074 97.7842 84.5009C97.7478 84.288 97.6951 83.9745 97.6302 83.5744C97.5006 82.7741 97.3227 81.6279 97.1303 80.2477C96.7452 77.4849 96.3035 73.7947 96.0731 70.0683L94.0769 70.1917ZM110 71.855C110.156 70.8672 110.156 70.8672 110.156 70.8672C110.156 70.8672 110.155 70.8671 110.155 70.8671C110.155 70.8671 110.155 70.867 110.154 70.8669C110.153 70.8668 110.151 70.8665 110.15 70.8662C110.146 70.8656 110.14 70.8647 110.132 70.8635C110.117 70.8611 110.094 70.8576 110.065 70.853C110.005 70.8438 109.918 70.8303 109.804 70.813C109.577 70.7784 109.244 70.7284 108.823 70.667C107.981 70.5441 106.784 70.3751 105.362 70.1902C102.519 69.8208 98.7666 69.3869 95.1451 69.1325L95.0049 71.1275C98.5714 71.3781 102.281 71.8067 105.104 72.1735C106.514 72.3568 107.701 72.5244 108.534 72.646C108.951 72.7068 109.279 72.7561 109.503 72.7902C109.615 72.8072 109.701 72.8204 109.758 72.8294C109.787 72.8338 109.809 72.8372 109.823 72.8395C109.83 72.8406 109.836 72.8414 109.839 72.842C109.841 72.8423 109.842 72.8425 109.843 72.8426C109.844 72.8427 109.844 72.8427 109.844 72.8428C109.844 72.8428 109.844 72.8428 109.844 72.8428C109.844 72.8428 109.844 72.8428 110 71.855ZM109 58.144V71.855H111V58.144H109ZM110 178.145C109.86 177.155 109.86 177.155 109.86 177.155C109.86 177.155 109.86 177.155 109.86 177.155C109.86 177.155 109.86 177.155 109.859 177.155C109.859 177.155 109.857 177.155 109.856 177.155C109.852 177.156 109.847 177.157 109.841 177.158C109.827 177.159 109.807 177.162 109.78 177.166C109.726 177.173 109.645 177.184 109.54 177.199C109.329 177.227 109.018 177.268 108.621 177.319C107.827 177.42 106.689 177.56 105.314 177.711C102.563 178.014 98.8731 178.364 95.1064 178.554L95.2076 180.552C99.0269 180.358 102.759 180.004 105.533 179.699C106.92 179.546 108.07 179.406 108.874 179.303C109.276 179.252 109.592 179.21 109.807 179.181C109.915 179.166 109.997 179.155 110.053 179.147C110.081 179.143 110.103 179.14 110.117 179.138C110.124 179.137 110.13 179.137 110.134 179.136C110.136 179.136 110.137 179.136 110.138 179.135C110.139 179.135 110.139 179.135 110.139 179.135C110.139 179.135 110.139 179.135 110.14 179.135C110.14 179.135 110.14 179.135 110 178.145ZM111 191.855V178.145H109V191.855H111ZM95.0049 191.128C98.5714 191.378 102.281 191.807 105.104 192.174C106.514 192.357 107.701 192.524 108.534 192.646C108.951 192.707 109.279 192.756 109.503 192.79C109.615 192.807 109.701 192.82 109.758 192.829C109.787 192.834 109.809 192.837 109.823 192.839C109.83 192.841 109.836 192.841 109.839 192.842C109.841 192.842 109.842 192.842 109.843 192.843C109.844 192.843 109.844 192.843 109.844 192.843C109.844 192.843 109.844 192.843 109.844 192.843C109.844 192.843 109.844 192.843 110 191.855C110.156 190.867 110.156 190.867 110.156 190.867C110.156 190.867 110.155 190.867 110.155 190.867C110.155 190.867 110.155 190.867 110.154 190.867C110.153 190.867 110.151 190.867 110.15 190.866C110.146 190.866 110.14 190.865 110.132 190.863C110.117 190.861 110.094 190.858 110.065 190.853C110.005 190.844 109.918 190.83 109.804 190.813C109.577 190.778 109.244 190.728 108.823 190.667C107.981 190.544 106.784 190.375 105.362 190.19C102.519 189.821 98.7666 189.387 95.1451 189.132L95.0049 191.128ZM96.856 205C97.8403 204.824 97.8403 204.824 97.8403 204.824C97.8403 204.824 97.8403 204.824 97.8403 204.824C97.8403 204.823 97.8402 204.823 97.8402 204.823C97.84 204.822 97.8398 204.821 97.8395 204.819C97.839 204.816 97.8381 204.811 97.8369 204.804C97.8345 204.791 97.8309 204.77 97.8261 204.743C97.8166 204.689 97.8024 204.607 97.7842 204.501C97.7478 204.288 97.6951 203.975 97.6302 203.574C97.5006 202.774 97.3227 201.628 97.1303 200.248C96.7452 197.485 96.3035 193.795 96.0731 190.068L94.0769 190.192C94.3115 193.987 94.7603 197.732 95.1495 200.524C95.3442 201.921 95.5243 203.082 95.656 203.894C95.7218 204.301 95.7755 204.62 95.8129 204.838C95.8316 204.947 95.8461 205.031 95.8561 205.088C95.8611 205.117 95.8649 205.138 95.8676 205.153C95.8689 205.161 95.8699 205.166 95.8705 205.17C95.8709 205.172 95.8712 205.173 95.8713 205.174C95.8714 205.175 95.8715 205.175 95.8716 205.176C95.8716 205.176 95.8716 205.176 95.8716 205.176C95.8717 205.176 95.8717 205.176 96.856 205ZM83.144 206H96.856V204H83.144V206ZM83.5691 190.047C83.3845 193.908 83.0308 197.611 82.7228 200.352C82.5688 201.722 82.4265 202.849 82.3228 203.634C82.271 204.026 82.2288 204.332 82.1996 204.54C82.1851 204.643 82.1738 204.722 82.1661 204.775C82.1623 204.802 82.1594 204.822 82.1575 204.835C82.1565 204.842 82.1558 204.846 82.1554 204.85C82.1551 204.851 82.155 204.852 82.1548 204.853C82.1548 204.853 82.1548 204.854 82.1547 204.854C82.1547 204.854 82.1547 204.854 82.1547 204.854C82.1547 204.854 82.1547 204.854 83.144 205C84.1333 205.146 84.1333 205.146 84.1333 205.146C84.1333 205.146 84.1333 205.146 84.1334 205.145C84.1334 205.145 84.1335 205.145 84.1335 205.144C84.1337 205.143 84.1339 205.142 84.1342 205.14C84.1347 205.136 84.1355 205.131 84.1366 205.124C84.1386 205.109 84.1417 205.088 84.1457 205.061C84.1536 205.005 84.1653 204.924 84.1802 204.818C84.2101 204.605 84.253 204.294 84.3056 203.896C84.4107 203.101 84.5547 201.96 84.7102 200.576C85.0212 197.808 85.3795 194.059 85.5669 190.143L83.5691 190.047ZM70 191.855C70.176 192.839 70.176 192.839 70.176 192.839C70.176 192.839 70.1761 192.839 70.1761 192.839C70.1763 192.839 70.1765 192.839 70.1769 192.839C70.1776 192.839 70.1788 192.839 70.1804 192.839C70.1835 192.838 70.1884 192.837 70.195 192.836C70.2081 192.834 70.2281 192.83 70.2545 192.826C70.3075 192.816 70.3866 192.803 70.4903 192.785C70.6977 192.749 71.0032 192.698 71.3933 192.635C72.1737 192.508 73.2922 192.335 74.6416 192.146C77.3424 191.768 80.958 191.331 84.6327 191.093L84.5033 189.097C80.762 189.34 77.0936 189.783 74.3644 190.165C72.9988 190.356 71.8658 190.532 71.0734 190.661C70.6772 190.725 70.366 190.777 70.1533 190.813C70.0469 190.832 69.9652 190.846 69.9097 190.855C69.882 190.86 69.8609 190.864 69.8465 190.867C69.8393 190.868 69.8338 190.869 69.8301 190.87C69.8282 190.87 69.8267 190.87 69.8257 190.87C69.8252 190.87 69.8248 190.87 69.8245 190.871C69.8244 190.871 69.8242 190.871 69.8242 190.871C69.824 190.871 69.824 190.871 70 191.855ZM69 178.145V191.855H71V178.145H69ZM84.5886 178.551C80.7992 178.359 77.1864 178.01 74.5189 177.709C73.1859 177.558 72.0906 177.42 71.3294 177.319C70.9488 177.268 70.6519 177.227 70.4506 177.199C70.3499 177.185 70.2732 177.174 70.2219 177.167C70.1963 177.163 70.177 177.16 70.1642 177.158C70.1579 177.157 70.1531 177.157 70.1501 177.156C70.1485 177.156 70.1474 177.156 70.1467 177.156C70.1464 177.156 70.1461 177.156 70.146 177.156C70.1459 177.156 70.1459 177.156 70.1458 177.156C70.1458 177.156 70.1459 177.156 70 178.145C69.8541 179.134 69.8542 179.134 69.8543 179.134C69.8544 179.134 69.8545 179.134 69.8547 179.134C69.8549 179.134 69.8553 179.134 69.8558 179.135C69.8568 179.135 69.8582 179.135 69.86 179.135C69.8636 179.136 69.8689 179.136 69.8758 179.137C69.8897 179.139 69.9101 179.142 69.9369 179.146C69.9905 179.154 70.0695 179.165 70.1726 179.18C70.3788 179.209 70.6809 179.25 71.0669 179.301C71.839 179.404 72.947 179.544 74.2943 179.696C76.9876 180 80.6438 180.354 84.4874 180.549L84.5886 178.551ZM83.144 165C82.1538 165.14 82.1538 165.14 82.1538 165.14C82.1538 165.14 82.1538 165.14 82.1539 165.14C82.1539 165.14 82.1539 165.14 82.154 165.141C82.1541 165.142 82.1542 165.143 82.1545 165.144C82.1549 165.148 82.1556 165.152 82.1565 165.159C82.1583 165.172 82.1611 165.192 82.1647 165.218C82.172 165.271 82.1828 165.349 82.1967 165.452C82.2245 165.658 82.2648 165.961 82.3144 166.349C82.4136 167.124 82.5501 168.236 82.6989 169.58C82.9968 172.272 83.3432 175.889 83.5394 179.603L85.5366 179.497C85.3378 175.732 84.9872 172.074 84.6868 169.36C84.5365 168.003 84.3986 166.879 84.2982 166.095C84.2479 165.702 84.2071 165.395 84.1787 165.185C84.1645 165.08 84.1534 164.999 84.1459 164.944C84.1421 164.917 84.1392 164.896 84.1372 164.882C84.1363 164.875 84.1355 164.87 84.135 164.866C84.1347 164.864 84.1345 164.863 84.1344 164.862C84.1343 164.861 84.1343 164.861 84.1342 164.861C84.1342 164.86 84.1342 164.86 84.1342 164.86C84.1342 164.86 84.1342 164.86 83.144 165ZM96.856 164H83.144V166H96.856V164ZM96.1543 179.626C96.4119 176.112 96.8341 172.495 97.1927 169.751C97.3719 168.38 97.5349 167.23 97.653 166.423C97.712 166.02 97.7598 165.702 97.7929 165.486C97.8093 165.378 97.8221 165.295 97.8308 165.239C97.8351 165.211 97.8384 165.19 97.8406 165.176C97.8417 165.169 97.8425 165.164 97.843 165.161C97.8433 165.159 97.8435 165.158 97.8436 165.157C97.8437 165.157 97.8437 165.156 97.8437 165.156C97.8438 165.156 97.8438 165.156 97.8438 165.156C97.8438 165.156 97.8438 165.156 96.856 165C95.8682 164.844 95.8682 164.844 95.8682 164.844C95.8682 164.844 95.8682 164.844 95.8682 164.845C95.8681 164.845 95.8681 164.845 95.868 164.846C95.8678 164.847 95.8676 164.848 95.8673 164.85C95.8667 164.854 95.8658 164.86 95.8646 164.867C95.8623 164.882 95.8589 164.904 95.8545 164.932C95.8456 164.99 95.8325 165.074 95.8157 165.184C95.7822 165.404 95.7337 165.726 95.6741 166.133C95.5547 166.949 95.3903 168.109 95.2096 169.492C94.8484 172.255 94.4211 175.914 94.1597 179.48L96.1543 179.626ZM265.208 60.5517C269.027 60.3584 272.759 60.004 275.533 59.6985C276.921 59.5456 278.071 59.4048 278.874 59.3021C279.276 59.2507 279.592 59.2089 279.807 59.1798C279.915 59.1653 279.998 59.1539 280.054 59.1462C280.082 59.1423 280.103 59.1394 280.117 59.1373C280.125 59.1363 280.13 59.1355 280.134 59.135C280.136 59.1348 280.137 59.1346 280.138 59.1344C280.139 59.1343 280.139 59.1343 280.139 59.1342C280.139 59.1342 280.14 59.1342 280.14 59.1342C280.14 59.1342 280.14 59.1342 280 58.144C279.86 57.1538 279.86 57.1538 279.86 57.1538C279.86 57.1538 279.86 57.1538 279.86 57.1539C279.86 57.1539 279.86 57.1539 279.859 57.154C279.858 57.1541 279.857 57.1542 279.856 57.1545C279.852 57.1549 279.847 57.1556 279.841 57.1566C279.827 57.1585 279.807 57.1613 279.78 57.165C279.726 57.1725 279.645 57.1835 279.54 57.1978C279.329 57.2263 279.018 57.2675 278.621 57.3182C277.827 57.4197 276.688 57.5591 275.314 57.7105C272.563 58.0135 268.873 58.3636 265.106 58.5543L265.208 60.5517ZM266.856 45C265.868 44.844 265.868 44.8441 265.868 44.8442C265.868 44.8443 265.868 44.8444 265.868 44.8445C265.868 44.8448 265.868 44.8452 265.868 44.8457C265.868 44.8467 265.868 44.8482 265.867 44.8501C265.867 44.8539 265.866 44.8595 265.865 44.8669C265.862 44.8817 265.859 44.9035 265.854 44.9322C265.846 44.9895 265.833 45.0741 265.816 45.1841C265.782 45.4041 265.734 45.7257 265.674 46.1335C265.555 46.9489 265.39 48.1094 265.21 49.4919C264.848 52.2547 264.421 55.9136 264.16 59.4799L266.154 59.6261C266.412 56.1124 266.834 52.4948 267.193 49.7511C267.372 48.3804 267.535 47.2301 267.653 46.4231C267.712 46.0196 267.76 45.7021 267.793 45.4857C267.809 45.3776 267.822 45.2947 267.831 45.2391C267.835 45.2113 267.838 45.1903 267.841 45.1764C267.842 45.1694 267.842 45.1642 267.843 45.1608C267.843 45.1591 267.843 45.1578 267.844 45.157C267.844 45.1566 267.844 45.1563 267.844 45.1562C267.844 45.1561 267.844 45.156 267.844 45.156C267.844 45.156 267.844 45.156 266.856 45ZM253.144 46H266.856V44H253.144V46ZM255.537 59.4971C255.337 55.7322 254.987 52.0744 254.686 49.3604C254.536 48.0027 254.398 46.8794 254.298 46.0948C254.248 45.7025 254.207 45.3948 254.179 45.1847C254.164 45.0797 254.153 44.999 254.146 44.9444C254.142 44.9171 254.139 44.8963 254.137 44.8822C254.136 44.8751 254.136 44.8698 254.135 44.8661C254.135 44.8643 254.135 44.8629 254.134 44.8619C254.134 44.8614 254.134 44.861 254.134 44.8607C254.134 44.8606 254.134 44.8605 254.134 44.8604C254.134 44.8603 254.134 44.8602 253.144 45C252.154 45.1398 252.154 45.1397 252.154 45.1397C252.154 45.1398 252.154 45.1398 252.154 45.1399C252.154 45.1401 252.154 45.1403 252.154 45.1407C252.154 45.1414 252.154 45.1426 252.154 45.1442C252.155 45.1474 252.156 45.1523 252.156 45.1588C252.158 45.172 252.161 45.1918 252.165 45.2181C252.172 45.2707 252.183 45.3493 252.197 45.4522C252.224 45.658 252.265 45.9611 252.314 46.3486C252.413 47.1236 252.55 48.2355 252.699 49.5803C252.996 52.2716 253.343 55.8888 253.539 59.6029L255.537 59.4971ZM240 58.144C239.854 59.1333 239.854 59.1333 239.854 59.1333C239.854 59.1333 239.854 59.1333 239.855 59.1334C239.855 59.1334 239.855 59.1335 239.856 59.1335C239.857 59.1337 239.858 59.1339 239.86 59.1341C239.863 59.1347 239.869 59.1355 239.876 59.1365C239.89 59.1385 239.91 59.1414 239.937 59.1453C239.99 59.153 240.069 59.1643 240.172 59.1788C240.379 59.2078 240.681 59.2495 241.067 59.3006C241.839 59.4029 242.947 59.5432 244.294 59.6955C246.988 60.0001 250.644 60.3538 254.487 60.5487L254.589 58.5513C250.799 58.3592 247.186 58.0099 244.519 57.7082C243.186 57.5575 242.091 57.4188 241.33 57.3179C240.949 57.2675 240.652 57.2265 240.451 57.1983C240.35 57.1841 240.273 57.1732 240.222 57.1658C240.196 57.1621 240.177 57.1593 240.164 57.1574C240.158 57.1565 240.153 57.1558 240.15 57.1553C240.149 57.1551 240.148 57.1549 240.147 57.1548C240.146 57.1548 240.146 57.1548 240.146 57.1547C240.146 57.1547 240.146 57.1547 240.146 57.1547C240.146 57.1547 240.146 57.1547 240 58.144ZM241 71.855V58.144H239V71.855H241ZM254.503 69.0971C250.762 69.3403 247.094 69.7837 244.364 70.1654C242.999 70.3564 241.866 70.5323 241.074 70.6606C240.677 70.7248 240.366 70.7771 240.153 70.8134C240.047 70.8316 239.965 70.8458 239.91 70.8555C239.882 70.8603 239.861 70.8641 239.847 70.8666C239.839 70.8679 239.834 70.8688 239.83 70.8695C239.828 70.8698 239.827 70.8701 239.826 70.8703C239.825 70.8704 239.825 70.8704 239.825 70.8705C239.824 70.8705 239.824 70.8705 239.824 70.8706C239.824 70.8706 239.824 70.8706 240 71.855C240.176 72.8394 240.176 72.8394 240.176 72.8394C240.176 72.8394 240.176 72.8394 240.176 72.8394C240.176 72.8394 240.176 72.8393 240.177 72.8393C240.177 72.8391 240.179 72.8389 240.18 72.8386C240.183 72.8381 240.188 72.8372 240.195 72.836C240.208 72.8337 240.228 72.8302 240.254 72.8256C240.307 72.8163 240.387 72.8026 240.49 72.7849C240.698 72.7494 241.003 72.6981 241.393 72.6349C242.174 72.5085 243.292 72.3348 244.642 72.1461C247.342 71.7683 250.958 71.3317 254.633 71.0929L254.503 69.0971ZM253.144 85C254.133 85.1459 254.133 85.1458 254.133 85.1457C254.133 85.1456 254.133 85.1455 254.133 85.1453C254.133 85.1451 254.133 85.1447 254.134 85.1442C254.134 85.1432 254.134 85.1417 254.134 85.1398C254.135 85.1361 254.136 85.1307 254.137 85.1235C254.139 85.1092 254.142 85.0882 254.146 85.0605C254.154 85.0053 254.165 84.9237 254.18 84.8174C254.21 84.6049 254.253 84.2934 254.305 83.8957C254.411 83.1005 254.554 81.9599 254.71 80.5755C255.021 77.8083 255.379 74.0595 255.567 70.1429L253.569 70.0471C253.384 73.9075 253.03 77.6112 252.722 80.3522C252.569 81.722 252.426 82.8495 252.323 83.6337C252.271 84.0258 252.229 84.332 252.2 84.5396C252.185 84.6434 252.174 84.7226 252.166 84.7756C252.162 84.802 252.159 84.8219 252.157 84.8351C252.157 84.8417 252.156 84.8466 252.155 84.8498C252.155 84.8513 252.155 84.8525 252.155 84.8532C252.155 84.8536 252.155 84.8539 252.155 84.854C252.155 84.8541 252.155 84.8541 252.155 84.8541C252.155 84.8542 252.155 84.8541 253.144 85ZM266.856 84H253.144V86H266.856V84ZM264.077 70.1917C264.312 73.9873 264.76 77.7321 265.149 80.5238C265.344 81.9208 265.524 83.0817 265.656 83.8943C265.722 84.3006 265.776 84.6199 265.813 84.8382C265.832 84.9474 265.846 85.0313 265.856 85.0882C265.861 85.1167 265.865 85.1384 265.868 85.1532C265.869 85.1605 265.87 85.1662 265.871 85.17C265.871 85.172 265.871 85.1735 265.871 85.1745C265.871 85.175 265.872 85.1754 265.872 85.1757C265.872 85.1759 265.872 85.176 265.872 85.1761C265.872 85.1762 265.872 85.1763 266.856 85C267.84 84.8237 267.84 84.8237 267.84 84.8237C267.84 84.8237 267.84 84.8237 267.84 84.8236C267.84 84.8234 267.84 84.8232 267.84 84.8228C267.84 84.8221 267.84 84.8209 267.84 84.8193C267.839 84.816 267.838 84.811 267.837 84.8042C267.834 84.7907 267.831 84.7702 267.826 84.743C267.817 84.6887 267.802 84.6074 267.784 84.5009C267.748 84.288 267.695 83.9745 267.63 83.5744C267.501 82.7741 267.323 81.6279 267.13 80.2477C266.745 77.4849 266.303 73.7947 266.073 70.0683L264.077 70.1917ZM280 71.855C280.156 70.8672 280.156 70.8672 280.156 70.8672C280.156 70.8672 280.155 70.8671 280.155 70.8671C280.155 70.8671 280.155 70.867 280.154 70.8669C280.153 70.8668 280.151 70.8665 280.15 70.8662C280.146 70.8656 280.14 70.8647 280.132 70.8635C280.117 70.8611 280.094 70.8576 280.065 70.853C280.005 70.8438 279.918 70.8303 279.804 70.813C279.577 70.7784 279.244 70.7284 278.823 70.667C277.981 70.5441 276.784 70.3751 275.362 70.1902C272.519 69.8208 268.767 69.3869 265.145 69.1325L265.005 71.1275C268.571 71.3781 272.281 71.8067 275.104 72.1735C276.514 72.3568 277.701 72.5244 278.534 72.646C278.951 72.7068 279.279 72.7561 279.503 72.7902C279.615 72.8072 279.701 72.8204 279.758 72.8294C279.787 72.8338 279.809 72.8372 279.823 72.8395C279.83 72.8406 279.836 72.8414 279.839 72.842C279.841 72.8423 279.842 72.8425 279.843 72.8426C279.844 72.8427 279.844 72.8427 279.844 72.8428C279.844 72.8428 279.844 72.8428 279.844 72.8428C279.844 72.8428 279.844 72.8428 280 71.855ZM279 58.144V71.855H281V58.144H279ZM280 178.144C279.86 177.154 279.86 177.154 279.86 177.154C279.86 177.154 279.86 177.154 279.86 177.154C279.86 177.154 279.86 177.154 279.859 177.154C279.858 177.154 279.857 177.154 279.856 177.154C279.852 177.155 279.847 177.156 279.841 177.157C279.827 177.158 279.807 177.161 279.78 177.165C279.726 177.172 279.645 177.184 279.54 177.198C279.329 177.226 279.018 177.267 278.621 177.318C277.827 177.42 276.688 177.559 275.314 177.711C272.563 178.013 268.873 178.364 265.106 178.554L265.208 180.552C269.027 180.358 272.759 180.004 275.533 179.698C276.921 179.546 278.071 179.405 278.874 179.302C279.276 179.251 279.592 179.209 279.807 179.18C279.915 179.165 279.998 179.154 280.054 179.146C280.082 179.142 280.103 179.139 280.117 179.137C280.125 179.136 280.13 179.136 280.134 179.135C280.136 179.135 280.137 179.135 280.138 179.134C280.139 179.134 280.139 179.134 280.139 179.134C280.139 179.134 280.14 179.134 280.14 179.134C280.14 179.134 280.14 179.134 280 178.144ZM281 191.856V178.144H279V191.856H281ZM265.005 191.128C268.571 191.378 272.281 191.807 275.104 192.174C276.514 192.357 277.701 192.525 278.534 192.647C278.951 192.708 279.279 192.757 279.503 192.791C279.615 192.808 279.7 192.821 279.758 192.83C279.787 192.835 279.809 192.838 279.823 192.84C279.83 192.842 279.836 192.842 279.839 192.843C279.841 192.843 279.842 192.843 279.843 192.844C279.843 192.844 279.844 192.844 279.844 192.844C279.844 192.844 279.844 192.844 279.844 192.844C279.844 192.844 279.844 192.844 280 191.856C280.156 190.868 280.156 190.868 280.156 190.868C280.156 190.868 280.156 190.868 280.155 190.868C280.155 190.868 280.155 190.868 280.154 190.868C280.153 190.868 280.152 190.868 280.15 190.867C280.146 190.867 280.14 190.866 280.132 190.865C280.117 190.862 280.094 190.859 280.065 190.854C280.005 190.845 279.918 190.831 279.804 190.814C279.577 190.779 279.244 190.729 278.823 190.668C277.981 190.545 276.784 190.376 275.362 190.191C272.52 189.821 268.767 189.387 265.145 189.132L265.005 191.128ZM266.856 205C267.84 204.824 267.84 204.824 267.84 204.824C267.84 204.824 267.84 204.824 267.84 204.824C267.84 204.824 267.84 204.823 267.84 204.823C267.84 204.822 267.84 204.821 267.84 204.819C267.839 204.816 267.838 204.811 267.837 204.804C267.835 204.791 267.831 204.77 267.826 204.743C267.817 204.689 267.802 204.607 267.784 204.501C267.748 204.288 267.695 203.975 267.63 203.575C267.501 202.774 267.323 201.628 267.131 200.248C266.746 197.485 266.304 193.795 266.073 190.068L264.077 190.192C264.312 193.987 264.761 197.732 265.15 200.524C265.344 201.921 265.525 203.082 265.656 203.894C265.722 204.3 265.776 204.62 265.813 204.838C265.832 204.947 265.846 205.031 265.856 205.088C265.861 205.117 265.865 205.138 265.868 205.153C265.869 205.16 265.87 205.166 265.871 205.17C265.871 205.172 265.871 205.173 265.871 205.174C265.871 205.175 265.871 205.175 265.872 205.176C265.872 205.176 265.872 205.176 265.872 205.176C265.872 205.176 265.872 205.176 266.856 205ZM253.144 206H266.856V204H253.144V206ZM253.569 190.047C253.384 193.908 253.031 197.611 252.723 200.352C252.569 201.722 252.427 202.849 252.323 203.634C252.271 204.026 252.229 204.332 252.2 204.54C252.185 204.643 252.174 204.722 252.166 204.775C252.162 204.802 252.159 204.822 252.158 204.835C252.157 204.842 252.156 204.846 252.155 204.85C252.155 204.851 252.155 204.852 252.155 204.853C252.155 204.853 252.155 204.854 252.155 204.854C252.155 204.854 252.155 204.854 252.155 204.854C252.155 204.854 252.155 204.854 253.144 205C254.133 205.146 254.133 205.146 254.133 205.146C254.133 205.146 254.133 205.146 254.133 205.145C254.133 205.145 254.133 205.145 254.134 205.144C254.134 205.143 254.134 205.142 254.134 205.14C254.135 205.136 254.136 205.131 254.137 205.124C254.139 205.109 254.142 205.088 254.146 205.061C254.154 205.005 254.165 204.924 254.18 204.818C254.21 204.605 254.253 204.294 254.306 203.896C254.411 203.101 254.555 201.96 254.71 200.576C255.021 197.808 255.38 194.059 255.567 190.143L253.569 190.047ZM240 191.856C240.176 192.84 240.176 192.84 240.176 192.84C240.176 192.84 240.176 192.84 240.176 192.84C240.176 192.84 240.177 192.84 240.177 192.84C240.178 192.84 240.179 192.84 240.18 192.84C240.184 192.839 240.189 192.838 240.195 192.837C240.208 192.835 240.228 192.831 240.255 192.827C240.308 192.817 240.387 192.803 240.49 192.786C240.698 192.75 241.003 192.699 241.394 192.636C242.174 192.509 243.293 192.335 244.642 192.146C247.343 191.768 250.959 191.331 254.633 191.093L254.503 189.097C250.762 189.34 247.094 189.783 244.365 190.166C242.999 190.357 241.866 190.533 241.073 190.661C240.677 190.726 240.366 190.778 240.153 190.814C240.047 190.833 239.965 190.847 239.91 190.857C239.882 190.861 239.861 190.865 239.846 190.868C239.839 190.869 239.834 190.87 239.83 190.871C239.828 190.871 239.827 190.871 239.826 190.871C239.825 190.871 239.825 190.871 239.824 190.872C239.824 190.872 239.824 190.872 239.824 190.872C239.824 190.872 239.824 190.872 240 191.856ZM239 178.144V191.856H241V178.144H239ZM254.589 178.551C250.799 178.359 247.186 178.01 244.519 177.708C243.186 177.557 242.091 177.419 241.33 177.318C240.949 177.268 240.652 177.227 240.451 177.198C240.35 177.184 240.273 177.173 240.222 177.166C240.196 177.162 240.177 177.159 240.164 177.157C240.158 177.156 240.153 177.156 240.15 177.155C240.149 177.155 240.148 177.155 240.147 177.155C240.146 177.155 240.146 177.155 240.146 177.155C240.146 177.155 240.146 177.155 240.146 177.155C240.146 177.155 240.146 177.155 240 178.144C239.854 179.133 239.854 179.133 239.854 179.133C239.854 179.133 239.854 179.133 239.855 179.133C239.855 179.133 239.855 179.133 239.856 179.134C239.857 179.134 239.858 179.134 239.86 179.134C239.863 179.135 239.869 179.135 239.876 179.136C239.89 179.138 239.91 179.141 239.937 179.145C239.99 179.153 240.069 179.164 240.172 179.179C240.379 179.208 240.681 179.249 241.067 179.301C241.839 179.403 242.947 179.543 244.294 179.696C246.988 180 250.644 180.354 254.487 180.549L254.589 178.551ZM253.144 165C252.154 165.14 252.154 165.14 252.154 165.14C252.154 165.14 252.154 165.14 252.154 165.14C252.154 165.14 252.154 165.14 252.154 165.141C252.154 165.141 252.154 165.143 252.154 165.144C252.155 165.147 252.156 165.152 252.156 165.159C252.158 165.172 252.161 165.192 252.165 165.218C252.172 165.271 252.183 165.349 252.197 165.452C252.224 165.658 252.265 165.961 252.314 166.349C252.413 167.124 252.55 168.235 252.699 169.58C252.996 172.272 253.343 175.889 253.539 179.603L255.537 179.497C255.337 175.732 254.987 172.074 254.686 169.36C254.536 168.003 254.398 166.879 254.298 166.095C254.248 165.702 254.207 165.395 254.179 165.185C254.164 165.08 254.153 164.999 254.146 164.944C254.142 164.917 254.139 164.896 254.137 164.882C254.136 164.875 254.136 164.87 254.135 164.866C254.135 164.864 254.135 164.863 254.134 164.862C254.134 164.861 254.134 164.861 254.134 164.861C254.134 164.861 254.134 164.86 254.134 164.86C254.134 164.86 254.134 164.86 253.144 165ZM266.856 164H253.144V166H266.856V164ZM266.154 179.626C266.412 176.112 266.834 172.495 267.193 169.751C267.372 168.38 267.535 167.23 267.653 166.423C267.712 166.02 267.76 165.702 267.793 165.486C267.809 165.378 267.822 165.295 267.831 165.239C267.835 165.211 267.838 165.19 267.841 165.176C267.842 165.169 267.842 165.164 267.843 165.161C267.843 165.159 267.843 165.158 267.844 165.157C267.844 165.157 267.844 165.156 267.844 165.156C267.844 165.156 267.844 165.156 267.844 165.156C267.844 165.156 267.844 165.156 266.856 165C265.868 164.844 265.868 164.844 265.868 164.844C265.868 164.844 265.868 164.844 265.868 164.845C265.868 164.845 265.868 164.845 265.868 164.846C265.868 164.847 265.868 164.848 265.867 164.85C265.867 164.854 265.866 164.86 265.865 164.867C265.862 164.882 265.859 164.904 265.854 164.932C265.846 164.99 265.833 165.074 265.816 165.184C265.782 165.404 265.734 165.726 265.674 166.133C265.555 166.949 265.39 168.109 265.21 169.492C264.848 172.255 264.421 175.914 264.16 179.48L266.154 179.626Z" fill="white"/>
</g>
<g id="red">
<path fill-rule="evenodd" clip-rule="evenodd" d="M195 225H155V145H25V105H155V25H195V105H325V145H195V225ZM110 58.144C110 58.144 102.743 59.169 95.157 59.553C95.676 52.473 96.856 45 96.856 45H83.144C83.144 45 84.143 52.071 84.538 59.55C76.905 59.163 70 58.144 70 58.144V71.855C70 71.855 77.152 70.576 84.568 70.096C84.196 77.872 83.144 85 83.144 85H96.856C96.856 85 95.54 77.652 95.075 70.13C102.263 70.635 110 71.855 110 71.855V58.144ZM95.157 179.553C102.743 179.169 110 178.145 110 178.145V191.855C110 191.855 102.263 190.635 95.075 190.13C95.54 197.652 96.856 205 96.856 205H83.144C83.144 205 84.196 197.872 84.568 190.095C77.152 190.576 70 191.855 70 191.855V178.145C70 178.145 76.905 179.163 84.538 179.55C84.143 172.071 83.144 165 83.144 165H96.856C96.856 165 95.676 172.473 95.157 179.553ZM280 58.144C280 58.144 272.743 59.169 265.157 59.553C265.676 52.473 266.856 45 266.856 45H253.144C253.144 45 254.142 52.071 254.538 59.55C246.905 59.163 240 58.144 240 58.144V71.855C240 71.855 247.152 70.577 254.568 70.095C254.195 77.872 253.144 85 253.144 85H266.856C266.856 85 265.54 77.652 265.075 70.13C272.263 70.635 280 71.855 280 71.855V58.144ZM265.157 179.553C272.743 179.169 280 178.144 280 178.144V191.856C280 191.856 272.263 190.635 265.075 190.13C265.541 197.652 266.856 205 266.856 205H253.144C253.144 205 254.196 197.872 254.568 190.095C247.153 190.576 240 191.856 240 191.856V178.144C240 178.144 246.905 179.163 254.538 179.55C254.142 172.071 253.144 165 253.144 165H266.856C266.856 165 265.676 172.473 265.157 179.553Z" fill="white" fill-opacity="0.5"/>
<path d="M155 225H154V226H155V225ZM195 225V226H196V225H195ZM155 145H156V144H155V145ZM25 145H24V146H25V145ZM25 105V104H24V105H25ZM155 105V106H156V105H155ZM155 25V24H154V25H155ZM195 25H196V24H195V25ZM195 105H194V106H195V105ZM325 105H326V104H325V105ZM325 145V146H326V145H325ZM195 145V144H194V145H195ZM95.157 59.553L94.1597 59.4799L94.0769 60.609L95.2076 60.5517L95.157 59.553ZM110 58.144H111V56.9928L109.86 57.1538L110 58.144ZM96.856 45L97.8438 45.156L98.0263 44H96.856V45ZM83.144 45V44H81.9928L82.1538 45.1399L83.144 45ZM84.538 59.55L84.4874 60.5487L85.5951 60.6049L85.5366 59.4973L84.538 59.55ZM70 58.144L70.146 57.1547L69 56.9856V58.144H70ZM70 71.855H69V73.0497L70.176 72.8394L70 71.855ZM84.568 70.096L85.5669 70.1438L85.6203 69.0258L84.5034 69.0981L84.568 70.096ZM83.144 85L82.1547 84.854L81.9856 86H83.144V85ZM96.856 85V86H98.051L97.8403 84.8237L96.856 85ZM95.075 70.13L95.1451 69.1325L94.0065 69.0525L94.0769 70.1917L95.075 70.13ZM110 71.855L109.844 72.8428L111 73.025V71.855H110ZM110 178.145H111V176.994L109.86 177.155L110 178.145ZM95.157 179.553L94.1597 179.48L94.0769 180.609L95.2076 180.552L95.157 179.553ZM110 191.855L109.844 192.843L111 193.025V191.855H110ZM95.075 190.13L95.1451 189.132L94.0065 189.052L94.0769 190.192L95.075 190.13ZM96.856 205V206H98.051L97.8403 204.824L96.856 205ZM83.144 205L82.1547 204.854L81.9856 206H83.144V205ZM84.568 190.095L85.5669 190.143L85.6203 189.025L84.5033 189.097L84.568 190.095ZM70 191.855H69V193.05L70.176 192.839L70 191.855ZM70 178.145L70.1459 177.156L69 176.987V178.145H70ZM84.538 179.55L84.4874 180.549L85.5951 180.605L85.5366 179.497L84.538 179.55ZM83.144 165V164H81.9928L82.1538 165.14L83.144 165ZM96.856 165L97.8438 165.156L98.0263 164H96.856V165ZM265.157 59.553L264.16 59.4799L264.077 60.609L265.208 60.5517L265.157 59.553ZM280 58.144H281V56.9928L279.86 57.1538L280 58.144ZM266.856 45L267.844 45.156L268.026 44H266.856V45ZM253.144 45V44H251.993L252.154 45.1398L253.144 45ZM254.538 59.55L254.487 60.5487L255.595 60.6049L255.537 59.4971L254.538 59.55ZM240 58.144L240.146 57.1547L239 56.9856V58.144H240ZM240 71.855H239V73.0495L240.176 72.8394L240 71.855ZM254.568 70.095L255.567 70.1429L255.62 69.0245L254.503 69.0971L254.568 70.095ZM253.144 85L252.155 84.8541L251.986 86H253.144V85ZM266.856 85V86H268.051L267.84 84.8237L266.856 85ZM265.075 70.13L265.145 69.1325L264.006 69.0525L264.077 70.1917L265.075 70.13ZM280 71.855L279.844 72.8428L281 73.025V71.855H280ZM280 178.144H281V176.993L279.86 177.154L280 178.144ZM265.157 179.553L264.16 179.48L264.077 180.609L265.208 180.552L265.157 179.553ZM280 191.856L279.844 192.844L281 193.026V191.856H280ZM265.075 190.13L265.145 189.132L264.006 189.052L264.077 190.192L265.075 190.13ZM266.856 205V206H268.051L267.84 204.824L266.856 205ZM253.144 205L252.155 204.854L251.986 206H253.144V205ZM254.568 190.095L255.567 190.143L255.62 189.025L254.503 189.097L254.568 190.095ZM240 191.856H239V193.051L240.176 192.84L240 191.856ZM240 178.144L240.146 177.155L239 176.986V178.144H240ZM254.538 179.55L254.487 180.549L255.595 180.605L255.537 179.497L254.538 179.55ZM253.144 165V164H251.993L252.154 165.14L253.144 165ZM266.856 165L267.844 165.156L268.026 164H266.856V165ZM155 226H195V224H155V226ZM154 145V225H156V145H154ZM25 146H155V144H25V146ZM24 105V145H26V105H24ZM155 104H25V106H155V104ZM154 25V105H156V25H154ZM195 24H155V26H195V24ZM196 105V25H194V105H196ZM325 104H195V106H325V104ZM326 145V105H324V145H326ZM195 146H325V144H195V146ZM196 225V145H194V225H196ZM95.2076 60.5517C99.0269 60.3584 102.759 60.004 105.533 59.6985C106.921 59.5456 108.071 59.4048 108.874 59.3021C109.276 59.2507 109.592 59.2089 109.807 59.1798C109.915 59.1653 109.998 59.1539 110.054 59.1462C110.082 59.1423 110.103 59.1394 110.117 59.1373C110.125 59.1363 110.13 59.1355 110.134 59.135C110.136 59.1348 110.137 59.1346 110.138 59.1344C110.139 59.1343 110.139 59.1343 110.139 59.1342C110.139 59.1342 110.14 59.1342 110.14 59.1342C110.14 59.1342 110.14 59.1342 110 58.144C109.86 57.1538 109.86 57.1538 109.86 57.1538C109.86 57.1538 109.86 57.1538 109.86 57.1539C109.86 57.1539 109.86 57.1539 109.859 57.154C109.858 57.1541 109.857 57.1542 109.856 57.1545C109.852 57.1549 109.847 57.1556 109.841 57.1566C109.827 57.1585 109.807 57.1613 109.78 57.165C109.726 57.1725 109.645 57.1835 109.54 57.1978C109.329 57.2263 109.018 57.2675 108.621 57.3182C107.827 57.4197 106.688 57.5591 105.314 57.7105C102.563 58.0135 98.873 58.3636 95.1064 58.5543L95.2076 60.5517ZM96.856 45C95.8682 44.844 95.8682 44.8441 95.8682 44.8442C95.8682 44.8443 95.8682 44.8444 95.8682 44.8445C95.8681 44.8448 95.8681 44.8452 95.868 44.8457C95.8678 44.8467 95.8676 44.8482 95.8673 44.8501C95.8667 44.8539 95.8658 44.8595 95.8646 44.8669C95.8623 44.8817 95.8589 44.9035 95.8545 44.9322C95.8456 44.9895 95.8325 45.0741 95.8157 45.1841C95.7822 45.4041 95.7337 45.7257 95.6741 46.1335C95.5547 46.9489 95.3903 48.1094 95.2096 49.4919C94.8484 52.2547 94.4211 55.9136 94.1597 59.4799L96.1543 59.6261C96.4119 56.1124 96.8341 52.4948 97.1927 49.7511C97.3719 48.3804 97.5349 47.2301 97.653 46.4231C97.712 46.0196 97.7598 45.7021 97.7929 45.4857C97.8093 45.3776 97.8221 45.2947 97.8308 45.2391C97.8351 45.2113 97.8384 45.1903 97.8406 45.1764C97.8417 45.1694 97.8425 45.1642 97.843 45.1608C97.8433 45.1591 97.8435 45.1578 97.8436 45.157C97.8437 45.1566 97.8437 45.1563 97.8437 45.1562C97.8438 45.1561 97.8438 45.156 97.8438 45.156C97.8438 45.156 97.8438 45.156 96.856 45ZM83.144 46H96.856V44H83.144V46ZM85.5366 59.4973C85.3378 55.7322 84.9872 52.0744 84.6868 49.3604C84.5365 48.0026 84.3986 46.8793 84.2982 46.0947C84.2479 45.7024 84.2071 45.3947 84.1787 45.1846C84.1645 45.0795 84.1534 44.9989 84.1459 44.9443C84.1421 44.917 84.1392 44.8962 84.1372 44.8821C84.1363 44.875 84.1355 44.8696 84.135 44.866C84.1347 44.8641 84.1345 44.8627 84.1344 44.8618C84.1343 44.8613 84.1343 44.8609 84.1342 44.8606C84.1342 44.8605 84.1342 44.8603 84.1342 44.8603C84.1342 44.8602 84.1342 44.8601 83.144 45C82.1538 45.1399 82.1538 45.1399 82.1538 45.1399C82.1538 45.1399 82.1538 45.14 82.1539 45.14C82.1539 45.1402 82.1539 45.1405 82.154 45.1408C82.1541 45.1416 82.1542 45.1427 82.1545 45.1443C82.1549 45.1475 82.1556 45.1524 82.1565 45.159C82.1583 45.1721 82.1611 45.1919 82.1647 45.2182C82.172 45.2708 82.1828 45.3494 82.1967 45.4523C82.2245 45.6581 82.2648 45.9612 82.3144 46.3487C82.4136 47.1237 82.5501 48.2355 82.6989 49.5804C82.9968 52.2716 83.3432 55.8888 83.5394 59.6027L85.5366 59.4973ZM70 58.144C69.854 59.1333 69.8541 59.1333 69.8542 59.1333C69.8543 59.1333 69.8544 59.1333 69.8545 59.1334C69.8548 59.1334 69.8552 59.1335 69.8557 59.1335C69.8567 59.1337 69.858 59.1339 69.8599 59.1341C69.8635 59.1347 69.8688 59.1355 69.8757 59.1365C69.8895 59.1385 69.91 59.1414 69.9368 59.1453C69.9903 59.153 70.0694 59.1643 70.1725 59.1788C70.3786 59.2078 70.6808 59.2495 71.0668 59.3006C71.8389 59.4029 72.9469 59.5432 74.2943 59.6955C76.9875 60.0001 80.6438 60.3538 84.4874 60.5487L84.5886 58.5513C80.7992 58.3592 77.1865 58.0099 74.519 57.7082C73.186 57.5575 72.0907 57.4188 71.3295 57.3179C70.949 57.2675 70.652 57.2265 70.4507 57.1983C70.3501 57.1841 70.2734 57.1732 70.2221 57.1658C70.1964 57.1621 70.1771 57.1593 70.1644 57.1574C70.158 57.1565 70.1533 57.1558 70.1502 57.1553C70.1487 57.1551 70.1476 57.1549 70.1468 57.1548C70.1465 57.1548 70.1462 57.1548 70.1461 57.1547C70.146 57.1547 70.146 57.1547 70.146 57.1547C70.146 57.1547 70.146 57.1547 70 58.144ZM71 71.855V58.144H69V71.855H71ZM84.5034 69.0981C80.7621 69.3402 77.0937 69.7834 74.3645 70.1651C72.9988 70.3562 71.8658 70.5321 71.0734 70.6605C70.6772 70.7247 70.366 70.777 70.1533 70.8134C70.0469 70.8316 69.9652 70.8458 69.9097 70.8555C69.882 70.8603 69.8609 70.8641 69.8465 70.8666C69.8393 70.8679 69.8338 70.8689 69.8301 70.8695C69.8282 70.8699 69.8267 70.8701 69.8257 70.8703C69.8252 70.8704 69.8248 70.8705 69.8245 70.8705C69.8244 70.8705 69.8242 70.8706 69.8242 70.8706C69.824 70.8706 69.824 70.8706 70 71.855C70.176 72.8394 70.176 72.8394 70.176 72.8394C70.176 72.8394 70.1761 72.8394 70.1761 72.8394C70.1763 72.8393 70.1765 72.8393 70.1769 72.8392C70.1776 72.8391 70.1788 72.8389 70.1804 72.8386C70.1835 72.8381 70.1884 72.8372 70.195 72.836C70.2081 72.8337 70.2281 72.8302 70.2545 72.8255C70.3075 72.8163 70.3866 72.8025 70.4903 72.7848C70.6977 72.7493 71.0032 72.698 71.3933 72.6348C72.1737 72.5084 73.2922 72.3346 74.6415 72.1459C77.3423 71.7681 80.9579 71.3318 84.6326 71.0939L84.5034 69.0981ZM83.144 85C84.1333 85.146 84.1333 85.1459 84.1333 85.1458C84.1333 85.1457 84.1333 85.1456 84.1334 85.1455C84.1334 85.1452 84.1335 85.1448 84.1335 85.1443C84.1337 85.1433 84.1339 85.1418 84.1342 85.14C84.1347 85.1362 84.1355 85.1308 84.1366 85.1236C84.1386 85.1094 84.1417 85.0883 84.1457 85.0607C84.1536 85.0054 84.1653 84.9238 84.1802 84.8175C84.2101 84.605 84.253 84.2935 84.3056 83.8959C84.4107 83.1006 84.5547 81.96 84.7102 80.5757C85.0212 77.8085 85.3795 74.06 85.5669 70.1438L83.5691 70.0482C83.3845 73.9081 83.0308 77.6115 82.7228 80.3523C82.5688 81.722 82.4265 82.8494 82.3228 83.6337C82.271 84.0257 82.2288 84.3319 82.1996 84.5395C82.1851 84.6433 82.1738 84.7225 82.1661 84.7754C82.1623 84.8019 82.1594 84.8218 82.1575 84.835C82.1565 84.8416 82.1558 84.8465 82.1554 84.8496C82.1551 84.8512 82.155 84.8524 82.1549 84.8531C82.1548 84.8535 82.1548 84.8537 82.1547 84.8539C82.1547 84.854 82.1547 84.854 82.1547 84.854C82.1547 84.854 82.1547 84.854 83.144 85ZM96.856 84H83.144V86H96.856V84ZM94.0769 70.1917C94.3115 73.9873 94.7603 77.7321 95.1495 80.5238C95.3442 81.9208 95.5243 83.0817 95.656 83.8943C95.7218 84.3006 95.7755 84.6199 95.8129 84.8382C95.8316 84.9474 95.8461 85.0313 95.8561 85.0882C95.8611 85.1167 95.8649 85.1384 95.8676 85.1532C95.8689 85.1605 95.8699 85.1662 95.8705 85.17C95.8709 85.172 95.8712 85.1735 95.8713 85.1745C95.8714 85.175 95.8715 85.1754 95.8716 85.1757C95.8716 85.1759 95.8716 85.176 95.8716 85.1761C95.8717 85.1762 95.8717 85.1763 96.856 85C97.8403 84.8237 97.8403 84.8237 97.8403 84.8237C97.8403 84.8237 97.8403 84.8237 97.8403 84.8236C97.8403 84.8234 97.8402 84.8232 97.8402 84.8228C97.84 84.8221 97.8398 84.8209 97.8395 84.8193C97.839 84.816 97.8381 84.811 97.8369 84.8042C97.8345 84.7907 97.8309 84.7702 97.8261 84.743C97.8166 84.6887 97.8024 84.6074 97.7842 84.5009C97.7478 84.288 97.6951 83.9745 97.6302 83.5744C97.5006 82.7741 97.3227 81.6279 97.1303 80.2477C96.7452 77.4849 96.3035 73.7947 96.0731 70.0683L94.0769 70.1917ZM110 71.855C110.156 70.8672 110.156 70.8672 110.156 70.8672C110.156 70.8672 110.155 70.8671 110.155 70.8671C110.155 70.8671 110.155 70.867 110.154 70.8669C110.153 70.8668 110.151 70.8665 110.15 70.8662C110.146 70.8656 110.14 70.8647 110.132 70.8635C110.117 70.8611 110.094 70.8576 110.065 70.853C110.005 70.8438 109.918 70.8303 109.804 70.813C109.577 70.7784 109.244 70.7284 108.823 70.667C107.981 70.5441 106.784 70.3751 105.362 70.1902C102.519 69.8208 98.7666 69.3869 95.1451 69.1325L95.0049 71.1275C98.5714 71.3781 102.281 71.8067 105.104 72.1735C106.514 72.3568 107.701 72.5244 108.534 72.646C108.951 72.7068 109.279 72.7561 109.503 72.7902C109.615 72.8072 109.701 72.8204 109.758 72.8294C109.787 72.8338 109.809 72.8372 109.823 72.8395C109.83 72.8406 109.836 72.8414 109.839 72.842C109.841 72.8423 109.842 72.8425 109.843 72.8426C109.844 72.8427 109.844 72.8427 109.844 72.8428C109.844 72.8428 109.844 72.8428 109.844 72.8428C109.844 72.8428 109.844 72.8428 110 71.855ZM109 58.144V71.855H111V58.144H109ZM110 178.145C109.86 177.155 109.86 177.155 109.86 177.155C109.86 177.155 109.86 177.155 109.86 177.155C109.86 177.155 109.86 177.155 109.859 177.155C109.859 177.155 109.857 177.155 109.856 177.155C109.852 177.156 109.847 177.157 109.841 177.158C109.827 177.159 109.807 177.162 109.78 177.166C109.726 177.173 109.645 177.184 109.54 177.199C109.329 177.227 109.018 177.268 108.621 177.319C107.827 177.42 106.689 177.56 105.314 177.711C102.563 178.014 98.8731 178.364 95.1064 178.554L95.2076 180.552C99.0269 180.358 102.759 180.004 105.533 179.699C106.92 179.546 108.07 179.406 108.874 179.303C109.276 179.252 109.592 179.21 109.807 179.181C109.915 179.166 109.997 179.155 110.053 179.147C110.081 179.143 110.103 179.14 110.117 179.138C110.124 179.137 110.13 179.137 110.134 179.136C110.136 179.136 110.137 179.136 110.138 179.135C110.139 179.135 110.139 179.135 110.139 179.135C110.139 179.135 110.139 179.135 110.14 179.135C110.14 179.135 110.14 179.135 110 178.145ZM111 191.855V178.145H109V191.855H111ZM95.0049 191.128C98.5714 191.378 102.281 191.807 105.104 192.174C106.514 192.357 107.701 192.524 108.534 192.646C108.951 192.707 109.279 192.756 109.503 192.79C109.615 192.807 109.701 192.82 109.758 192.829C109.787 192.834 109.809 192.837 109.823 192.839C109.83 192.841 109.836 192.841 109.839 192.842C109.841 192.842 109.842 192.842 109.843 192.843C109.844 192.843 109.844 192.843 109.844 192.843C109.844 192.843 109.844 192.843 109.844 192.843C109.844 192.843 109.844 192.843 110 191.855C110.156 190.867 110.156 190.867 110.156 190.867C110.156 190.867 110.155 190.867 110.155 190.867C110.155 190.867 110.155 190.867 110.154 190.867C110.153 190.867 110.151 190.867 110.15 190.866C110.146 190.866 110.14 190.865 110.132 190.863C110.117 190.861 110.094 190.858 110.065 190.853C110.005 190.844 109.918 190.83 109.804 190.813C109.577 190.778 109.244 190.728 108.823 190.667C107.981 190.544 106.784 190.375 105.362 190.19C102.519 189.821 98.7666 189.387 95.1451 189.132L95.0049 191.128ZM96.856 205C97.8403 204.824 97.8403 204.824 97.8403 204.824C97.8403 204.824 97.8403 204.824 97.8403 204.824C97.8403 204.823 97.8402 204.823 97.8402 204.823C97.84 204.822 97.8398 204.821 97.8395 204.819C97.839 204.816 97.8381 204.811 97.8369 204.804C97.8345 204.791 97.8309 204.77 97.8261 204.743C97.8166 204.689 97.8024 204.607 97.7842 204.501C97.7478 204.288 97.6951 203.975 97.6302 203.574C97.5006 202.774 97.3227 201.628 97.1303 200.248C96.7452 197.485 96.3035 193.795 96.0731 190.068L94.0769 190.192C94.3115 193.987 94.7603 197.732 95.1495 200.524C95.3442 201.921 95.5243 203.082 95.656 203.894C95.7218 204.301 95.7755 204.62 95.8129 204.838C95.8316 204.947 95.8461 205.031 95.8561 205.088C95.8611 205.117 95.8649 205.138 95.8676 205.153C95.8689 205.161 95.8699 205.166 95.8705 205.17C95.8709 205.172 95.8712 205.173 95.8713 205.174C95.8714 205.175 95.8715 205.175 95.8716 205.176C95.8716 205.176 95.8716 205.176 95.8716 205.176C95.8717 205.176 95.8717 205.176 96.856 205ZM83.144 206H96.856V204H83.144V206ZM83.5691 190.047C83.3845 193.908 83.0308 197.611 82.7228 200.352C82.5688 201.722 82.4265 202.849 82.3228 203.634C82.271 204.026 82.2288 204.332 82.1996 204.54C82.1851 204.643 82.1738 204.722 82.1661 204.775C82.1623 204.802 82.1594 204.822 82.1575 204.835C82.1565 204.842 82.1558 204.846 82.1554 204.85C82.1551 204.851 82.155 204.852 82.1548 204.853C82.1548 204.853 82.1548 204.854 82.1547 204.854C82.1547 204.854 82.1547 204.854 82.1547 204.854C82.1547 204.854 82.1547 204.854 83.144 205C84.1333 205.146 84.1333 205.146 84.1333 205.146C84.1333 205.146 84.1333 205.146 84.1334 205.145C84.1334 205.145 84.1335 205.145 84.1335 205.144C84.1337 205.143 84.1339 205.142 84.1342 205.14C84.1347 205.136 84.1355 205.131 84.1366 205.124C84.1386 205.109 84.1417 205.088 84.1457 205.061C84.1536 205.005 84.1653 204.924 84.1802 204.818C84.2101 204.605 84.253 204.294 84.3056 203.896C84.4107 203.101 84.5547 201.96 84.7102 200.576C85.0212 197.808 85.3795 194.059 85.5669 190.143L83.5691 190.047ZM70 191.855C70.176 192.839 70.176 192.839 70.176 192.839C70.176 192.839 70.1761 192.839 70.1761 192.839C70.1763 192.839 70.1765 192.839 70.1769 192.839C70.1776 192.839 70.1788 192.839 70.1804 192.839C70.1835 192.838 70.1884 192.837 70.195 192.836C70.2081 192.834 70.2281 192.83 70.2545 192.826C70.3075 192.816 70.3866 192.803 70.4903 192.785C70.6977 192.749 71.0032 192.698 71.3933 192.635C72.1737 192.508 73.2922 192.335 74.6416 192.146C77.3424 191.768 80.958 191.331 84.6327 191.093L84.5033 189.097C80.762 189.34 77.0936 189.783 74.3644 190.165C72.9988 190.356 71.8658 190.532 71.0734 190.661C70.6772 190.725 70.366 190.777 70.1533 190.813C70.0469 190.832 69.9652 190.846 69.9097 190.855C69.882 190.86 69.8609 190.864 69.8465 190.867C69.8393 190.868 69.8338 190.869 69.8301 190.87C69.8282 190.87 69.8267 190.87 69.8257 190.87C69.8252 190.87 69.8248 190.87 69.8245 190.871C69.8244 190.871 69.8242 190.871 69.8242 190.871C69.824 190.871 69.824 190.871 70 191.855ZM69 178.145V191.855H71V178.145H69ZM84.5886 178.551C80.7992 178.359 77.1864 178.01 74.5189 177.709C73.1859 177.558 72.0906 177.42 71.3294 177.319C70.9488 177.268 70.6519 177.227 70.4506 177.199C70.3499 177.185 70.2732 177.174 70.2219 177.167C70.1963 177.163 70.177 177.16 70.1642 177.158C70.1579 177.157 70.1531 177.157 70.1501 177.156C70.1485 177.156 70.1474 177.156 70.1467 177.156C70.1464 177.156 70.1461 177.156 70.146 177.156C70.1459 177.156 70.1459 177.156 70.1458 177.156C70.1458 177.156 70.1459 177.156 70 178.145C69.8541 179.134 69.8542 179.134 69.8543 179.134C69.8544 179.134 69.8545 179.134 69.8547 179.134C69.8549 179.134 69.8553 179.134 69.8558 179.135C69.8568 179.135 69.8582 179.135 69.86 179.135C69.8636 179.136 69.8689 179.136 69.8758 179.137C69.8897 179.139 69.9101 179.142 69.9369 179.146C69.9905 179.154 70.0695 179.165 70.1726 179.18C70.3788 179.209 70.6809 179.25 71.0669 179.301C71.839 179.404 72.947 179.544 74.2943 179.696C76.9876 180 80.6438 180.354 84.4874 180.549L84.5886 178.551ZM83.144 165C82.1538 165.14 82.1538 165.14 82.1538 165.14C82.1538 165.14 82.1538 165.14 82.1539 165.14C82.1539 165.14 82.1539 165.14 82.154 165.141C82.1541 165.142 82.1542 165.143 82.1545 165.144C82.1549 165.148 82.1556 165.152 82.1565 165.159C82.1583 165.172 82.1611 165.192 82.1647 165.218C82.172 165.271 82.1828 165.349 82.1967 165.452C82.2245 165.658 82.2648 165.961 82.3144 166.349C82.4136 167.124 82.5501 168.236 82.6989 169.58C82.9968 172.272 83.3432 175.889 83.5394 179.603L85.5366 179.497C85.3378 175.732 84.9872 172.074 84.6868 169.36C84.5365 168.003 84.3986 166.879 84.2982 166.095C84.2479 165.702 84.2071 165.395 84.1787 165.185C84.1645 165.08 84.1534 164.999 84.1459 164.944C84.1421 164.917 84.1392 164.896 84.1372 164.882C84.1363 164.875 84.1355 164.87 84.135 164.866C84.1347 164.864 84.1345 164.863 84.1344 164.862C84.1343 164.861 84.1343 164.861 84.1342 164.861C84.1342 164.86 84.1342 164.86 84.1342 164.86C84.1342 164.86 84.1342 164.86 83.144 165ZM96.856 164H83.144V166H96.856V164ZM96.1543 179.626C96.4119 176.112 96.8341 172.495 97.1927 169.751C97.3719 168.38 97.5349 167.23 97.653 166.423C97.712 166.02 97.7598 165.702 97.7929 165.486C97.8093 165.378 97.8221 165.295 97.8308 165.239C97.8351 165.211 97.8384 165.19 97.8406 165.176C97.8417 165.169 97.8425 165.164 97.843 165.161C97.8433 165.159 97.8435 165.158 97.8436 165.157C97.8437 165.157 97.8437 165.156 97.8437 165.156C97.8438 165.156 97.8438 165.156 97.8438 165.156C97.8438 165.156 97.8438 165.156 96.856 165C95.8682 164.844 95.8682 164.844 95.8682 164.844C95.8682 164.844 95.8682 164.844 95.8682 164.845C95.8681 164.845 95.8681 164.845 95.868 164.846C95.8678 164.847 95.8676 164.848 95.8673 164.85C95.8667 164.854 95.8658 164.86 95.8646 164.867C95.8623 164.882 95.8589 164.904 95.8545 164.932C95.8456 164.99 95.8325 165.074 95.8157 165.184C95.7822 165.404 95.7337 165.726 95.6741 166.133C95.5547 166.949 95.3903 168.109 95.2096 169.492C94.8484 172.255 94.4211 175.914 94.1597 179.48L96.1543 179.626ZM265.208 60.5517C269.027 60.3584 272.759 60.004 275.533 59.6985C276.921 59.5456 278.071 59.4048 278.874 59.3021C279.276 59.2507 279.592 59.2089 279.807 59.1798C279.915 59.1653 279.998 59.1539 280.054 59.1462C280.082 59.1423 280.103 59.1394 280.117 59.1373C280.125 59.1363 280.13 59.1355 280.134 59.135C280.136 59.1348 280.137 59.1346 280.138 59.1344C280.139 59.1343 280.139 59.1343 280.139 59.1342C280.139 59.1342 280.14 59.1342 280.14 59.1342C280.14 59.1342 280.14 59.1342 280 58.144C279.86 57.1538 279.86 57.1538 279.86 57.1538C279.86 57.1538 279.86 57.1538 279.86 57.1539C279.86 57.1539 279.86 57.1539 279.859 57.154C279.858 57.1541 279.857 57.1542 279.856 57.1545C279.852 57.1549 279.847 57.1556 279.841 57.1566C279.827 57.1585 279.807 57.1613 279.78 57.165C279.726 57.1725 279.645 57.1835 279.54 57.1978C279.329 57.2263 279.018 57.2675 278.621 57.3182C277.827 57.4197 276.688 57.5591 275.314 57.7105C272.563 58.0135 268.873 58.3636 265.106 58.5543L265.208 60.5517ZM266.856 45C265.868 44.844 265.868 44.8441 265.868 44.8442C265.868 44.8443 265.868 44.8444 265.868 44.8445C265.868 44.8448 265.868 44.8452 265.868 44.8457C265.868 44.8467 265.868 44.8482 265.867 44.8501C265.867 44.8539 265.866 44.8595 265.865 44.8669C265.862 44.8817 265.859 44.9035 265.854 44.9322C265.846 44.9895 265.833 45.0741 265.816 45.1841C265.782 45.4041 265.734 45.7257 265.674 46.1335C265.555 46.9489 265.39 48.1094 265.21 49.4919C264.848 52.2547 264.421 55.9136 264.16 59.4799L266.154 59.6261C266.412 56.1124 266.834 52.4948 267.193 49.7511C267.372 48.3804 267.535 47.2301 267.653 46.4231C267.712 46.0196 267.76 45.7021 267.793 45.4857C267.809 45.3776 267.822 45.2947 267.831 45.2391C267.835 45.2113 267.838 45.1903 267.841 45.1764C267.842 45.1694 267.842 45.1642 267.843 45.1608C267.843 45.1591 267.843 45.1578 267.844 45.157C267.844 45.1566 267.844 45.1563 267.844 45.1562C267.844 45.1561 267.844 45.156 267.844 45.156C267.844 45.156 267.844 45.156 266.856 45ZM253.144 46H266.856V44H253.144V46ZM255.537 59.4971C255.337 55.7322 254.987 52.0744 254.686 49.3604C254.536 48.0027 254.398 46.8794 254.298 46.0948C254.248 45.7025 254.207 45.3948 254.179 45.1847C254.164 45.0797 254.153 44.999 254.146 44.9444C254.142 44.9171 254.139 44.8963 254.137 44.8822C254.136 44.8751 254.136 44.8698 254.135 44.8661C254.135 44.8643 254.135 44.8629 254.134 44.8619C254.134 44.8614 254.134 44.861 254.134 44.8607C254.134 44.8606 254.134 44.8605 254.134 44.8604C254.134 44.8603 254.134 44.8602 253.144 45C252.154 45.1398 252.154 45.1397 252.154 45.1397C252.154 45.1398 252.154 45.1398 252.154 45.1399C252.154 45.1401 252.154 45.1403 252.154 45.1407C252.154 45.1414 252.154 45.1426 252.154 45.1442C252.155 45.1474 252.156 45.1523 252.156 45.1588C252.158 45.172 252.161 45.1918 252.165 45.2181C252.172 45.2707 252.183 45.3493 252.197 45.4522C252.224 45.658 252.265 45.9611 252.314 46.3486C252.413 47.1236 252.55 48.2355 252.699 49.5803C252.996 52.2716 253.343 55.8888 253.539 59.6029L255.537 59.4971ZM240 58.144C239.854 59.1333 239.854 59.1333 239.854 59.1333C239.854 59.1333 239.854 59.1333 239.855 59.1334C239.855 59.1334 239.855 59.1335 239.856 59.1335C239.857 59.1337 239.858 59.1339 239.86 59.1341C239.863 59.1347 239.869 59.1355 239.876 59.1365C239.89 59.1385 239.91 59.1414 239.937 59.1453C239.99 59.153 240.069 59.1643 240.172 59.1788C240.379 59.2078 240.681 59.2495 241.067 59.3006C241.839 59.4029 242.947 59.5432 244.294 59.6955C246.988 60.0001 250.644 60.3538 254.487 60.5487L254.589 58.5513C250.799 58.3592 247.186 58.0099 244.519 57.7082C243.186 57.5575 242.091 57.4188 241.33 57.3179C240.949 57.2675 240.652 57.2265 240.451 57.1983C240.35 57.1841 240.273 57.1732 240.222 57.1658C240.196 57.1621 240.177 57.1593 240.164 57.1574C240.158 57.1565 240.153 57.1558 240.15 57.1553C240.149 57.1551 240.148 57.1549 240.147 57.1548C240.146 57.1548 240.146 57.1548 240.146 57.1547C240.146 57.1547 240.146 57.1547 240.146 57.1547C240.146 57.1547 240.146 57.1547 240 58.144ZM241 71.855V58.144H239V71.855H241ZM254.503 69.0971C250.762 69.3403 247.094 69.7837 244.364 70.1654C242.999 70.3564 241.866 70.5323 241.074 70.6606C240.677 70.7248 240.366 70.7771 240.153 70.8134C240.047 70.8316 239.965 70.8458 239.91 70.8555C239.882 70.8603 239.861 70.8641 239.847 70.8666C239.839 70.8679 239.834 70.8688 239.83 70.8695C239.828 70.8698 239.827 70.8701 239.826 70.8703C239.825 70.8704 239.825 70.8704 239.825 70.8705C239.824 70.8705 239.824 70.8705 239.824 70.8706C239.824 70.8706 239.824 70.8706 240 71.855C240.176 72.8394 240.176 72.8394 240.176 72.8394C240.176 72.8394 240.176 72.8394 240.176 72.8394C240.176 72.8394 240.176 72.8393 240.177 72.8393C240.177 72.8391 240.179 72.8389 240.18 72.8386C240.183 72.8381 240.188 72.8372 240.195 72.836C240.208 72.8337 240.228 72.8302 240.254 72.8256C240.307 72.8163 240.387 72.8026 240.49 72.7849C240.698 72.7494 241.003 72.6981 241.393 72.6349C242.174 72.5085 243.292 72.3348 244.642 72.1461C247.342 71.7683 250.958 71.3317 254.633 71.0929L254.503 69.0971ZM253.144 85C254.133 85.1459 254.133 85.1458 254.133 85.1457C254.133 85.1456 254.133 85.1455 254.133 85.1453C254.133 85.1451 254.133 85.1447 254.134 85.1442C254.134 85.1432 254.134 85.1417 254.134 85.1398C254.135 85.1361 254.136 85.1307 254.137 85.1235C254.139 85.1092 254.142 85.0882 254.146 85.0605C254.154 85.0053 254.165 84.9237 254.18 84.8174C254.21 84.6049 254.253 84.2934 254.305 83.8957C254.411 83.1005 254.554 81.9599 254.71 80.5755C255.021 77.8083 255.379 74.0595 255.567 70.1429L253.569 70.0471C253.384 73.9075 253.03 77.6112 252.722 80.3522C252.569 81.722 252.426 82.8495 252.323 83.6337C252.271 84.0258 252.229 84.332 252.2 84.5396C252.185 84.6434 252.174 84.7226 252.166 84.7756C252.162 84.802 252.159 84.8219 252.157 84.8351C252.157 84.8417 252.156 84.8466 252.155 84.8498C252.155 84.8513 252.155 84.8525 252.155 84.8532C252.155 84.8536 252.155 84.8539 252.155 84.854C252.155 84.8541 252.155 84.8541 252.155 84.8541C252.155 84.8542 252.155 84.8541 253.144 85ZM266.856 84H253.144V86H266.856V84ZM264.077 70.1917C264.312 73.9873 264.76 77.7321 265.149 80.5238C265.344 81.9208 265.524 83.0817 265.656 83.8943C265.722 84.3006 265.776 84.6199 265.813 84.8382C265.832 84.9474 265.846 85.0313 265.856 85.0882C265.861 85.1167 265.865 85.1384 265.868 85.1532C265.869 85.1605 265.87 85.1662 265.871 85.17C265.871 85.172 265.871 85.1735 265.871 85.1745C265.871 85.175 265.872 85.1754 265.872 85.1757C265.872 85.1759 265.872 85.176 265.872 85.1761C265.872 85.1762 265.872 85.1763 266.856 85C267.84 84.8237 267.84 84.8237 267.84 84.8237C267.84 84.8237 267.84 84.8237 267.84 84.8236C267.84 84.8234 267.84 84.8232 267.84 84.8228C267.84 84.8221 267.84 84.8209 267.84 84.8193C267.839 84.816 267.838 84.811 267.837 84.8042C267.834 84.7907 267.831 84.7702 267.826 84.743C267.817 84.6887 267.802 84.6074 267.784 84.5009C267.748 84.288 267.695 83.9745 267.63 83.5744C267.501 82.7741 267.323 81.6279 267.13 80.2477C266.745 77.4849 266.303 73.7947 266.073 70.0683L264.077 70.1917ZM280 71.855C280.156 70.8672 280.156 70.8672 280.156 70.8672C280.156 70.8672 280.155 70.8671 280.155 70.8671C280.155 70.8671 280.155 70.867 280.154 70.8669C280.153 70.8668 280.151 70.8665 280.15 70.8662C280.146 70.8656 280.14 70.8647 280.132 70.8635C280.117 70.8611 280.094 70.8576 280.065 70.853C280.005 70.8438 279.918 70.8303 279.804 70.813C279.577 70.7784 279.244 70.7284 278.823 70.667C277.981 70.5441 276.784 70.3751 275.362 70.1902C272.519 69.8208 268.767 69.3869 265.145 69.1325L265.005 71.1275C268.571 71.3781 272.281 71.8067 275.104 72.1735C276.514 72.3568 277.701 72.5244 278.534 72.646C278.951 72.7068 279.279 72.7561 279.503 72.7902C279.615 72.8072 279.701 72.8204 279.758 72.8294C279.787 72.8338 279.809 72.8372 279.823 72.8395C279.83 72.8406 279.836 72.8414 279.839 72.842C279.841 72.8423 279.842 72.8425 279.843 72.8426C279.844 72.8427 279.844 72.8427 279.844 72.8428C279.844 72.8428 279.844 72.8428 279.844 72.8428C279.844 72.8428 279.844 72.8428 280 71.855ZM279 58.144V71.855H281V58.144H279ZM280 178.144C279.86 177.154 279.86 177.154 279.86 177.154C279.86 177.154 279.86 177.154 279.86 177.154C279.86 177.154 279.86 177.154 279.859 177.154C279.858 177.154 279.857 177.154 279.856 177.154C279.852 177.155 279.847 177.156 279.841 177.157C279.827 177.158 279.807 177.161 279.78 177.165C279.726 177.172 279.645 177.184 279.54 177.198C279.329 177.226 279.018 177.267 278.621 177.318C277.827 177.42 276.688 177.559 275.314 177.711C272.563 178.013 268.873 178.364 265.106 178.554L265.208 180.552C269.027 180.358 272.759 180.004 275.533 179.698C276.921 179.546 278.071 179.405 278.874 179.302C279.276 179.251 279.592 179.209 279.807 179.18C279.915 179.165 279.998 179.154 280.054 179.146C280.082 179.142 280.103 179.139 280.117 179.137C280.125 179.136 280.13 179.136 280.134 179.135C280.136 179.135 280.137 179.135 280.138 179.134C280.139 179.134 280.139 179.134 280.139 179.134C280.139 179.134 280.14 179.134 280.14 179.134C280.14 179.134 280.14 179.134 280 178.144ZM281 191.856V178.144H279V191.856H281ZM265.005 191.128C268.571 191.378 272.281 191.807 275.104 192.174C276.514 192.357 277.701 192.525 278.534 192.647C278.951 192.708 279.279 192.757 279.503 192.791C279.615 192.808 279.7 192.821 279.758 192.83C279.787 192.835 279.809 192.838 279.823 192.84C279.83 192.842 279.836 192.842 279.839 192.843C279.841 192.843 279.842 192.843 279.843 192.844C279.843 192.844 279.844 192.844 279.844 192.844C279.844 192.844 279.844 192.844 279.844 192.844C279.844 192.844 279.844 192.844 280 191.856C280.156 190.868 280.156 190.868 280.156 190.868C280.156 190.868 280.156 190.868 280.155 190.868C280.155 190.868 280.155 190.868 280.154 190.868C280.153 190.868 280.152 190.868 280.15 190.867C280.146 190.867 280.14 190.866 280.132 190.865C280.117 190.862 280.094 190.859 280.065 190.854C280.005 190.845 279.918 190.831 279.804 190.814C279.577 190.779 279.244 190.729 278.823 190.668C277.981 190.545 276.784 190.376 275.362 190.191C272.52 189.821 268.767 189.387 265.145 189.132L265.005 191.128ZM266.856 205C267.84 204.824 267.84 204.824 267.84 204.824C267.84 204.824 267.84 204.824 267.84 204.824C267.84 204.824 267.84 204.823 267.84 204.823C267.84 204.822 267.84 204.821 267.84 204.819C267.839 204.816 267.838 204.811 267.837 204.804C267.835 204.791 267.831 204.77 267.826 204.743C267.817 204.689 267.802 204.607 267.784 204.501C267.748 204.288 267.695 203.975 267.63 203.575C267.501 202.774 267.323 201.628 267.131 200.248C266.746 197.485 266.304 193.795 266.073 190.068L264.077 190.192C264.312 193.987 264.761 197.732 265.15 200.524C265.344 201.921 265.525 203.082 265.656 203.894C265.722 204.3 265.776 204.62 265.813 204.838C265.832 204.947 265.846 205.031 265.856 205.088C265.861 205.117 265.865 205.138 265.868 205.153C265.869 205.16 265.87 205.166 265.871 205.17C265.871 205.172 265.871 205.173 265.871 205.174C265.871 205.175 265.871 205.175 265.872 205.176C265.872 205.176 265.872 205.176 265.872 205.176C265.872 205.176 265.872 205.176 266.856 205ZM253.144 206H266.856V204H253.144V206ZM253.569 190.047C253.384 193.908 253.031 197.611 252.723 200.352C252.569 201.722 252.427 202.849 252.323 203.634C252.271 204.026 252.229 204.332 252.2 204.54C252.185 204.643 252.174 204.722 252.166 204.775C252.162 204.802 252.159 204.822 252.158 204.835C252.157 204.842 252.156 204.846 252.155 204.85C252.155 204.851 252.155 204.852 252.155 204.853C252.155 204.853 252.155 204.854 252.155 204.854C252.155 204.854 252.155 204.854 252.155 204.854C252.155 204.854 252.155 204.854 253.144 205C254.133 205.146 254.133 205.146 254.133 205.146C254.133 205.146 254.133 205.146 254.133 205.145C254.133 205.145 254.133 205.145 254.134 205.144C254.134 205.143 254.134 205.142 254.134 205.14C254.135 205.136 254.136 205.131 254.137 205.124C254.139 205.109 254.142 205.088 254.146 205.061C254.154 205.005 254.165 204.924 254.18 204.818C254.21 204.605 254.253 204.294 254.306 203.896C254.411 203.101 254.555 201.96 254.71 200.576C255.021 197.808 255.38 194.059 255.567 190.143L253.569 190.047ZM240 191.856C240.176 192.84 240.176 192.84 240.176 192.84C240.176 192.84 240.176 192.84 240.176 192.84C240.176 192.84 240.177 192.84 240.177 192.84C240.178 192.84 240.179 192.84 240.18 192.84C240.184 192.839 240.189 192.838 240.195 192.837C240.208 192.835 240.228 192.831 240.255 192.827C240.308 192.817 240.387 192.803 240.49 192.786C240.698 192.75 241.003 192.699 241.394 192.636C242.174 192.509 243.293 192.335 244.642 192.146C247.343 191.768 250.959 191.331 254.633 191.093L254.503 189.097C250.762 189.34 247.094 189.783 244.365 190.166C242.999 190.357 241.866 190.533 241.073 190.661C240.677 190.726 240.366 190.778 240.153 190.814C240.047 190.833 239.965 190.847 239.91 190.857C239.882 190.861 239.861 190.865 239.846 190.868C239.839 190.869 239.834 190.87 239.83 190.871C239.828 190.871 239.827 190.871 239.826 190.871C239.825 190.871 239.825 190.871 239.824 190.872C239.824 190.872 239.824 190.872 239.824 190.872C239.824 190.872 239.824 190.872 240 191.856ZM239 178.144V191.856H241V178.144H239ZM254.589 178.551C250.799 178.359 247.186 178.01 244.519 177.708C243.186 177.557 242.091 177.419 241.33 177.318C240.949 177.268 240.652 177.227 240.451 177.198C240.35 177.184 240.273 177.173 240.222 177.166C240.196 177.162 240.177 177.159 240.164 177.157C240.158 177.156 240.153 177.156 240.15 177.155C240.149 177.155 240.148 177.155 240.147 177.155C240.146 177.155 240.146 177.155 240.146 177.155C240.146 177.155 240.146 177.155 240.146 177.155C240.146 177.155 240.146 177.155 240 178.144C239.854 179.133 239.854 179.133 239.854 179.133C239.854 179.133 239.854 179.133 239.855 179.133C239.855 179.133 239.855 179.133 239.856 179.134C239.857 179.134 239.858 179.134 239.86 179.134C239.863 179.135 239.869 179.135 239.876 179.136C239.89 179.138 239.91 179.141 239.937 179.145C239.99 179.153 240.069 179.164 240.172 179.179C240.379 179.208 240.681 179.249 241.067 179.301C241.839 179.403 242.947 179.543 244.294 179.696C246.988 180 250.644 180.354 254.487 180.549L254.589 178.551ZM253.144 165C252.154 165.14 252.154 165.14 252.154 165.14C252.154 165.14 252.154 165.14 252.154 165.14C252.154 165.14 252.154 165.14 252.154 165.141C252.154 165.141 252.154 165.143 252.154 165.144C252.155 165.147 252.156 165.152 252.156 165.159C252.158 165.172 252.161 165.192 252.165 165.218C252.172 165.271 252.183 165.349 252.197 165.452C252.224 165.658 252.265 165.961 252.314 166.349C252.413 167.124 252.55 168.235 252.699 169.58C252.996 172.272 253.343 175.889 253.539 179.603L255.537 179.497C255.337 175.732 254.987 172.074 254.686 169.36C254.536 168.003 254.398 166.879 254.298 166.095C254.248 165.702 254.207 165.395 254.179 165.185C254.164 165.08 254.153 164.999 254.146 164.944C254.142 164.917 254.139 164.896 254.137 164.882C254.136 164.875 254.136 164.87 254.135 164.866C254.135 164.864 254.135 164.863 254.134 164.862C254.134 164.861 254.134 164.861 254.134 164.861C254.134 164.861 254.134 164.86 254.134 164.86C254.134 164.86 254.134 164.86 253.144 165ZM266.856 164H253.144V166H266.856V164ZM266.154 179.626C266.412 176.112 266.834 172.495 267.193 169.751C267.372 168.38 267.535 167.23 267.653 166.423C267.712 166.02 267.76 165.702 267.793 165.486C267.809 165.378 267.822 165.295 267.831 165.239C267.835 165.211 267.838 165.19 267.841 165.176C267.842 165.169 267.842 165.164 267.843 165.161C267.843 165.159 267.843 165.158 267.844 165.157C267.844 165.157 267.844 165.156 267.844 165.156C267.844 165.156 267.844 165.156 267.844 165.156C267.844 165.156 267.844 165.156 266.856 165C265.868 164.844 265.868 164.844 265.868 164.844C265.868 164.844 265.868 164.844 265.868 164.845C265.868 164.845 265.868 164.845 265.868 164.846C265.868 164.847 265.868 164.848 265.867 164.85C265.867 164.854 265.866 164.86 265.865 164.867C265.862 164.882 265.859 164.904 265.854 164.932C265.846 164.99 265.833 165.074 265.816 165.184C265.782 165.404 265.734 165.726 265.674 166.133C265.555 166.949 265.39 168.109 265.21 169.492C264.848 172.255 264.421 175.914 264.16 179.48L266.154 179.626Z" fill="white"/>
</g>
</g>
</g>
</svg>
