<svg width="350" height="250" viewBox="0 0 350 250" fill="none" xmlns="http://www.w3.org/2000/svg">
<g id="flag / africa / sao tome and principe / b">
<g id="sao tome and principe b">
<g id="green">
<path fill-rule="evenodd" clip-rule="evenodd" d="M25.06 199.94H325V157.143H67.857L25.06 199.94ZM67.857 92.857H325V50H25L67.857 92.857Z" fill="#19A448" fill-opacity="1"/>
<path d="M325 199.94V200.94H326V199.94H325ZM25.06 199.94L24.3529 199.233L22.6458 200.94H25.06V199.94ZM325 157.143H326V156.143H325V157.143ZM67.857 157.143V156.143H67.4428L67.1499 156.436L67.857 157.143ZM325 92.857V93.857H326V92.857H325ZM67.857 92.857L67.1499 93.5641L67.4428 93.857H67.857V92.857ZM325 50H326V49H325V50ZM25 50V49H22.5858L24.2929 50.7071L25 50ZM325 198.94H25.06V200.94H325V198.94ZM324 157.143V199.94H326V157.143H324ZM67.857 158.143H325V156.143H67.857V158.143ZM25.7671 200.647L68.5641 157.85L67.1499 156.436L24.3529 199.233L25.7671 200.647ZM325 91.857H67.857V93.857H325V91.857ZM324 50V92.857H326V50H324ZM25 51H325V49H25V51ZM68.5641 92.1499L25.7071 49.2929L24.2929 50.7071L67.1499 93.5641L68.5641 92.1499Z" fill="white"/>
</g>
<g id="yellow">
<path fill-rule="evenodd" clip-rule="evenodd" d="M67.8574 157.143L100 125L67.8574 92.8569H325V157.143H67.8574ZM154.62 118.378L167.216 127.529L162.405 142.336L175 133.185L187.595 142.336L182.784 127.529L195.38 118.378H179.811L175 103.571L170.189 118.378H154.62ZM242.216 127.529L229.62 118.378H245.189L250 103.571L254.811 118.378H270.38L257.784 127.529L262.595 142.336L250 133.185L237.405 142.336L242.216 127.529Z" fill="#F8CA23" fill-opacity="1"/>
<path d="M100 125L100.708 125.707L101.415 125L100.708 124.293L100 125ZM67.8574 157.143L67.1503 156.436L65.4432 158.143H67.8574V157.143ZM67.8574 92.8569V91.8569H65.4432L67.1503 93.564L67.8574 92.8569ZM325 92.8569H326V91.8569H325V92.8569ZM325 157.143V158.143H326V157.143H325ZM167.216 127.529L168.167 127.838L168.392 127.147L167.804 126.72L167.216 127.529ZM154.62 118.378V117.378H151.543L154.033 119.187L154.62 118.378ZM162.405 142.336L161.454 142.027L160.503 144.954L162.993 143.145L162.405 142.336ZM175 133.185L175.588 132.376L175 131.949L174.413 132.376L175 133.185ZM187.595 142.336L187.008 143.145L189.498 144.954L188.546 142.027L187.595 142.336ZM182.784 127.529L182.197 126.72L181.609 127.147L181.833 127.838L182.784 127.529ZM195.38 118.378L195.968 119.187L198.458 117.378H195.38V118.378ZM179.811 118.378L178.86 118.687L179.085 119.378H179.811V118.378ZM175 103.571L175.951 103.262L175 100.335L174.049 103.262L175 103.571ZM170.189 118.378V119.378H170.916L171.14 118.687L170.189 118.378ZM229.62 118.378V117.378H226.543L229.033 119.187L229.62 118.378ZM242.216 127.529L243.167 127.838L243.392 127.147L242.804 126.72L242.216 127.529ZM245.189 118.378V119.378H245.916L246.14 118.687L245.189 118.378ZM250 103.571L250.951 103.262L250 100.335L249.049 103.262L250 103.571ZM254.811 118.378L253.86 118.687L254.085 119.378H254.811V118.378ZM270.38 118.378L270.968 119.187L273.458 117.378H270.38V118.378ZM257.784 127.529L257.197 126.72L256.609 127.147L256.833 127.838L257.784 127.529ZM262.595 142.336L262.008 143.145L264.498 144.954L263.546 142.027L262.595 142.336ZM250 133.185L250.588 132.376L250 131.949L249.413 132.376L250 133.185ZM237.405 142.336L236.454 142.027L235.503 144.954L237.993 143.145L237.405 142.336ZM99.2933 124.293L67.1503 156.436L68.5645 157.85L100.708 125.707L99.2933 124.293ZM67.1503 93.564L99.2933 125.707L100.708 124.293L68.5645 92.1498L67.1503 93.564ZM325 91.8569H67.8574V93.8569H325V91.8569ZM326 157.143V92.8569H324V157.143H326ZM67.8574 158.143H325V156.143H67.8574V158.143ZM167.804 126.72L155.208 117.569L154.033 119.187L166.629 128.338L167.804 126.72ZM163.356 142.645L168.167 127.838L166.265 127.22L161.454 142.027L163.356 142.645ZM174.413 132.376L161.818 141.527L162.993 143.145L175.588 133.994L174.413 132.376ZM188.183 141.527L175.588 132.376L174.413 133.994L187.008 143.145L188.183 141.527ZM181.833 127.838L186.644 142.645L188.546 142.027L183.735 127.22L181.833 127.838ZM194.793 117.569L182.197 126.72L183.372 128.338L195.968 119.187L194.793 117.569ZM179.811 119.378H195.38V117.378H179.811V119.378ZM174.049 103.88L178.86 118.687L180.762 118.069L175.951 103.262L174.049 103.88ZM171.14 118.687L175.951 103.88L174.049 103.262L169.238 118.069L171.14 118.687ZM154.62 119.378H170.189V117.378H154.62V119.378ZM229.033 119.187L241.629 128.338L242.804 126.72L230.208 117.569L229.033 119.187ZM245.189 117.378H229.62V119.378H245.189V117.378ZM249.049 103.262L244.238 118.069L246.14 118.687L250.951 103.88L249.049 103.262ZM255.762 118.069L250.951 103.262L249.049 103.88L253.86 118.687L255.762 118.069ZM270.38 117.378H254.811V119.378H270.38V117.378ZM258.372 128.338L270.968 119.187L269.793 117.569L257.197 126.72L258.372 128.338ZM263.546 142.027L258.735 127.22L256.833 127.838L261.644 142.645L263.546 142.027ZM249.413 133.994L262.008 143.145L263.183 141.527L250.588 132.376L249.413 133.994ZM237.993 143.145L250.588 133.994L249.413 132.376L236.818 141.527L237.993 143.145ZM241.265 127.22L236.454 142.027L238.356 142.645L243.167 127.838L241.265 127.22Z" fill="white"/>
</g>
<path id="red" fill-rule="evenodd" clip-rule="evenodd" d="M25 50V200L100 125L25 50Z" fill="#C02537" fill-opacity="1" stroke="white" stroke-width="2"/>
<g id="black">
<path fill-rule="evenodd" clip-rule="evenodd" d="M167.216 127.529L154.62 118.378H170.189L175 103.571L179.811 118.378H195.38L182.784 127.529L187.595 142.336L175 133.185L162.405 142.336L167.216 127.529ZM242.216 127.529L229.62 118.378H245.189L250 103.571L254.811 118.378H270.38L257.784 127.529L262.595 142.336L250 133.185L237.405 142.336L242.216 127.529Z" fill="#0A0B09" fill-opacity="1"/>
<path d="M154.62 118.378V117.378H151.542L154.032 119.187L154.62 118.378ZM167.216 127.529L168.167 127.838L168.392 127.147L167.804 126.72L167.216 127.529ZM170.189 118.378V119.378H170.916L171.14 118.687L170.189 118.378ZM175 103.571L175.951 103.262L175 100.335L174.049 103.262L175 103.571ZM179.811 118.378L178.86 118.687L179.085 119.378H179.811V118.378ZM195.38 118.378L195.968 119.187L198.458 117.378H195.38V118.378ZM182.784 127.529L182.196 126.72L181.609 127.147L181.833 127.838L182.784 127.529ZM187.595 142.336L187.007 143.145L189.497 144.954L188.546 142.027L187.595 142.336ZM175 133.185L175.588 132.376L175 131.949L174.412 132.376L175 133.185ZM162.405 142.336L161.454 142.027L160.503 144.954L162.993 143.145L162.405 142.336ZM229.62 118.378V117.378H226.542L229.032 119.187L229.62 118.378ZM242.216 127.529L243.167 127.838L243.392 127.147L242.804 126.72L242.216 127.529ZM245.189 118.378V119.378H245.916L246.14 118.687L245.189 118.378ZM250 103.571L250.951 103.262L250 100.335L249.049 103.262L250 103.571ZM254.811 118.378L253.86 118.687L254.085 119.378H254.811V118.378ZM270.38 118.378L270.968 119.187L273.458 117.378H270.38V118.378ZM257.784 127.529L257.196 126.72L256.609 127.147L256.833 127.838L257.784 127.529ZM262.595 142.336L262.007 143.145L264.497 144.954L263.546 142.027L262.595 142.336ZM250 133.185L250.588 132.376L250 131.949L249.412 132.376L250 133.185ZM237.405 142.336L236.454 142.027L235.503 144.954L237.993 143.145L237.405 142.336ZM154.032 119.187L166.628 128.338L167.804 126.72L155.208 117.569L154.032 119.187ZM170.189 117.378H154.62V119.378H170.189V117.378ZM174.049 103.262L169.238 118.069L171.14 118.687L175.951 103.88L174.049 103.262ZM180.762 118.069L175.951 103.262L174.049 103.88L178.86 118.687L180.762 118.069ZM195.38 117.378H179.811V119.378H195.38V117.378ZM183.372 128.338L195.968 119.187L194.792 117.569L182.196 126.72L183.372 128.338ZM188.546 142.027L183.735 127.22L181.833 127.838L186.644 142.645L188.546 142.027ZM174.412 133.994L187.007 143.145L188.183 141.527L175.588 132.376L174.412 133.994ZM162.993 143.145L175.588 133.994L174.412 132.376L161.817 141.527L162.993 143.145ZM166.265 127.22L161.454 142.027L163.356 142.645L168.167 127.838L166.265 127.22ZM229.032 119.187L241.628 128.338L242.804 126.72L230.208 117.569L229.032 119.187ZM245.189 117.378H229.62V119.378H245.189V117.378ZM249.049 103.262L244.238 118.069L246.14 118.687L250.951 103.88L249.049 103.262ZM255.762 118.069L250.951 103.262L249.049 103.88L253.86 118.687L255.762 118.069ZM270.38 117.378H254.811V119.378H270.38V117.378ZM258.372 128.338L270.968 119.187L269.792 117.569L257.196 126.72L258.372 128.338ZM263.546 142.027L258.735 127.22L256.833 127.838L261.644 142.645L263.546 142.027ZM249.412 133.994L262.007 143.145L263.183 141.527L250.588 132.376L249.412 133.994ZM237.993 143.145L250.588 133.994L249.412 132.376L236.817 141.527L237.993 143.145ZM241.265 127.22L236.454 142.027L238.356 142.645L243.167 127.838L241.265 127.22Z" fill="white"/>
</g>
</g>
</g>
</svg>
