<svg width="350" height="250" viewBox="0 0 350 250" fill="none" xmlns="http://www.w3.org/2000/svg">
<g id="flag / oceania / vanuatu / a">
<g id="vanuatu flag a">
<path id="red" fill-rule="evenodd" clip-rule="evenodd" d="M25 35L168.331 108.894H325V35H25Z" fill="#D21034"/>
<path id="green" fill-rule="evenodd" clip-rule="evenodd" d="M168.333 141.106L25 215H325V141.106H168.333Z" fill="#009543"/>
<path id="black" fill-rule="evenodd" clip-rule="evenodd" d="M168.331 108.894L25 35V47.7906L165.576 120.264H325V108.894H168.331ZM325 129.736H165.576L25 202.209V215L168.332 141.106H325V129.736ZM25 58.45L154.089 125L25 191.55V58.45ZM61.4675 152.473V142.219C72.2244 142.219 78.9769 131.296 78.9769 122.708C78.9769 114.119 71.9725 105.613 62.385 105.613C52.7956 105.613 47.2925 114.536 47.2925 121.206C47.2925 127.876 52.9637 134.631 62.0506 134.631C71.14 134.631 75.4762 126.543 75.4762 122.708C76.8919 136.216 64.385 139.216 61.05 139.216C57.715 139.216 40.7887 137.549 40.7887 119.539C40.7887 101.528 58.0494 97.5269 63.635 97.5269C69.2212 97.5269 87.9006 101.611 87.9006 123.626C87.9006 145.637 70.3906 152.473 61.4675 152.473ZM54.1819 129.211L53.65 128.868L53.6503 128.867L53.65 128.867C54.0079 128.281 54.3672 127.715 54.7269 127.168C54.5686 126.827 53.5165 124.435 54.59 123.333C55.6638 122.229 55.2827 125.896 55.2224 126.428C55.3836 126.191 55.5448 125.958 55.7059 125.729C55.6186 125.345 54.9902 122.442 55.8081 121.799C56.6844 121.113 56.245 124.959 56.245 124.959L56.4986 124.631C56.591 124.506 56.6834 124.382 56.7758 124.26C56.7422 124.064 56.2433 121.062 57.0581 120.486C57.8813 119.908 57.3996 123.306 57.3742 123.482C57.58 123.219 57.7853 122.963 57.9899 122.712C57.9319 122.292 57.613 119.678 58.5594 119.019C59.5453 118.331 58.7634 121.574 58.6898 121.873C58.9169 121.606 59.1428 121.347 59.3674 121.095C59.3305 120.718 59.1293 118.312 59.9362 117.734C60.1344 117.593 60.2492 117.65 60.3082 117.824C60.3972 117.76 60.5628 117.742 60.7694 117.753C60.7849 117.663 60.8028 117.575 60.8231 117.488C59.9083 117.405 58.8214 117.206 58.5938 116.736C58.1888 115.891 60.9719 116.609 60.9719 116.609L60.2831 116.048C60.2831 116.048 57.5 116.108 57.1263 115.454C56.7621 114.818 59.4244 115.443 59.5872 115.481C59.5644 115.464 59.5415 115.446 59.5185 115.429L58.9381 115.014C58.9381 115.014 56.1256 115.171 55.7812 114.453C55.4427 113.745 58.1863 114.488 58.2789 114.514C58.2666 114.505 58.2543 114.496 58.242 114.488L57.595 114.046C57.595 114.046 53.3425 113.608 53.6863 112.92C54.0306 112.231 56.875 113.577 56.875 113.577L56.0938 113.139C56.0938 113.139 53.7475 112.046 54.2162 111.294C54.6875 110.544 56.03 112.983 56.03 112.983L56.06 113.001C56.2604 113.11 56.4984 113.242 56.7703 113.4C56.5024 113.079 55.1109 111.372 55.8738 111.514C56.6627 111.66 57.6151 113.715 57.738 113.987C57.9202 114.102 58.1111 114.225 58.3101 114.357C57.9818 113.877 56.5759 111.765 57.4075 112.014C58.2959 112.28 58.989 114.625 59.0591 114.869C59.2589 115.01 59.4649 115.158 59.6767 115.315C59.4208 114.879 58.1965 112.734 59.0969 113.015C60.0282 113.307 60.3903 115.586 60.4347 115.89C60.643 116.052 60.8558 116.222 61.0729 116.399C60.9005 115.999 59.855 113.506 60.6906 113.764C61.5191 114.021 61.7735 116.579 61.8111 117.017C61.9032 117.096 61.9958 117.176 62.0891 117.257C62.1057 117.08 62.1297 116.893 62.1641 116.708C61.9052 115.908 61.7077 114.965 62.3463 115.266C62.4646 115.322 62.5678 115.403 62.6579 115.504C62.7477 115.403 62.8507 115.322 62.9688 115.266C63.6062 114.966 63.4105 115.905 63.1522 116.704C63.1871 116.89 63.2113 117.078 63.228 117.256C63.3215 117.174 63.4143 117.094 63.5065 117.015C63.5442 116.573 63.7971 114.021 64.6263 113.764C65.4606 113.506 64.4132 116.002 64.2418 116.4C64.4589 116.222 64.6719 116.053 64.8803 115.89C64.9243 115.588 65.2865 113.307 66.2206 113.015C67.1191 112.735 65.9018 114.87 65.6424 115.312C65.8539 115.156 66.0595 115.008 66.2589 114.867C66.3319 114.612 67.0214 112.28 67.9075 112.014C68.7413 111.765 67.3336 113.877 67.0049 114.357C67.2049 114.225 67.3966 114.101 67.5796 113.985C67.7053 113.706 68.6538 111.659 69.4406 111.514C70.2044 111.373 68.8214 113.07 68.5486 113.398C68.8184 113.241 69.0546 113.11 69.2537 113.002L69.2844 112.983C69.2844 112.983 70.63 110.544 71.0988 111.294C71.5675 112.046 69.2213 113.139 69.2213 113.139L68.44 113.577C68.44 113.577 71.2869 112.231 71.6306 112.92C71.9725 113.608 67.7219 114.046 67.7219 114.046L67.0583 114.498L67.0354 114.514C67.1123 114.493 69.8733 113.743 69.5338 114.453C69.1919 115.171 66.3769 115.014 66.3769 115.014L65.7904 115.433L65.7272 115.481C65.8839 115.444 68.5534 114.817 68.1906 115.454C67.815 116.108 65.0319 116.048 65.0319 116.048L64.3456 116.609C64.3456 116.609 67.1263 115.891 66.7213 116.736C66.4934 117.207 65.4062 117.405 64.4917 117.489C64.5121 117.575 64.5299 117.663 64.5455 117.753C64.7526 117.742 64.9186 117.76 65.0076 117.824C65.0668 117.65 65.1819 117.593 65.3806 117.734C66.1852 118.312 65.9848 120.715 65.9477 121.094C66.1722 121.346 66.398 121.605 66.6249 121.871C66.5497 121.566 65.7735 118.332 66.7556 119.019C67.7057 119.679 67.3846 122.3 67.3273 122.714C67.5322 122.965 67.7377 123.222 67.9438 123.485C67.9238 123.348 67.4286 119.904 68.2569 120.486C69.0733 121.061 68.5741 124.057 68.5394 124.259C68.6361 124.388 68.7329 124.517 68.8298 124.648L69.07 124.959C69.07 124.959 68.6331 121.113 69.5069 121.799C70.3263 122.443 69.6962 125.356 69.6111 125.731C69.7725 125.961 69.934 126.195 70.0955 126.432C70.0367 125.914 69.6511 122.226 70.7275 123.333C71.8031 124.437 70.7448 126.837 70.5896 127.17C70.9489 127.716 71.3076 128.282 71.665 128.867L71.6647 128.867L71.665 128.868L71.1331 129.211C71.1331 129.211 70.9249 128.736 70.4765 127.922C70.1208 127.837 66.8818 127.039 66.9119 126.24C66.9431 125.396 70.0075 127.146 70.0075 127.146L69.6019 126.521C69.6019 126.521 66.4431 125.803 66.1619 124.802C65.8959 123.854 68.8583 125.574 69.1683 125.756C69.1208 125.683 69.0725 125.61 69.0232 125.536L68.6937 125.083C68.6937 125.083 65.6931 124.114 65.41 123.208C65.1593 122.397 67.3785 123.607 67.8553 123.875C67.708 123.677 67.5554 123.475 67.3973 123.27L67.3194 123.176C67.3194 123.176 64.2556 122.456 63.8156 121.394C63.3787 120.329 66.5062 122.207 66.5062 122.207L65.5981 121.113C65.5981 121.113 63.7034 120.905 62.6575 120.134C61.6116 120.905 59.7169 121.113 59.7169 121.113L58.8112 122.207C58.8112 122.207 61.9362 120.329 61.4987 121.394C61.0619 122.456 57.9981 123.176 57.9981 123.176L57.8865 123.31C57.7388 123.502 57.596 123.691 57.4579 123.877C57.925 123.615 60.1564 122.395 59.905 123.208C59.6237 124.114 56.6213 125.083 56.6213 125.083L56.2914 125.536C56.2422 125.61 56.194 125.684 56.1466 125.756C56.4564 125.574 59.4215 123.853 59.1531 124.802C58.8719 125.803 55.7156 126.521 55.7156 126.521L55.3075 127.146C55.3075 127.146 58.3719 125.396 58.4031 126.24C58.4333 127.039 55.1942 127.837 54.8385 127.922C54.3901 128.736 54.1819 129.211 54.1819 129.211ZM62.6578 119.495C62.4255 119.471 62.255 119.486 62.2138 119.569C61.5915 119.7 60.8535 119.942 60.7342 119.982C60.8217 119.89 60.9101 119.797 60.9996 119.705L61.4675 119.236C61.4675 119.236 62.001 119.171 62.6579 119.044C63.3144 119.171 63.8475 119.236 63.8475 119.236L64.2747 119.663C64.3777 119.769 64.4793 119.875 64.5797 119.981C64.4514 119.938 63.7192 119.699 63.1012 119.569C63.06 119.486 62.8898 119.471 62.6578 119.495ZM62.6586 118.175C62.6336 118.168 62.6073 118.159 62.5798 118.151C62.6056 118.127 62.6314 118.103 62.6574 118.079L62.734 118.15L62.7356 118.152C62.7087 118.16 62.683 118.168 62.6586 118.175ZM62.0677 117.549C62.0584 117.718 62.0553 117.872 62.0551 117.999C61.9203 117.963 61.7786 117.927 61.6362 117.894C61.656 117.777 61.6743 117.658 61.6897 117.541C61.8548 117.547 61.9861 117.548 62.0677 117.549ZM61.4616 118.757C61.4973 118.767 61.5334 118.778 61.5697 118.788C61.5195 118.837 61.4692 118.887 61.4188 118.936C61.4286 118.897 61.4435 118.835 61.4616 118.757ZM60.6887 118.455C60.5513 118.382 60.4385 118.304 60.3598 118.221C60.3703 118.937 60.1191 120.102 60.0696 120.324C60.276 120.102 60.481 119.887 60.6844 119.677C60.6769 119.554 60.6501 119.041 60.6887 118.455ZM65.2451 120.323C65.195 120.098 64.9447 118.936 64.9557 118.221C64.877 118.305 64.764 118.383 64.6262 118.456C64.6648 119.04 64.6382 119.552 64.6306 119.676C64.8339 119.886 65.0388 120.101 65.2451 120.323ZM63.8992 118.939C63.8894 118.899 63.8743 118.836 63.8558 118.756C63.8196 118.767 63.783 118.778 63.7461 118.789C63.797 118.838 63.8481 118.888 63.8992 118.939ZM63.6811 117.894C63.6612 117.777 63.6428 117.658 63.6274 117.541C63.4625 117.547 63.3312 117.548 63.2496 117.549C63.259 117.718 63.2622 117.872 63.2624 117.999C63.3971 117.963 63.5387 117.927 63.6811 117.894Z" fill="black"/>
<path id="yellow" fill-rule="evenodd" clip-rule="evenodd" d="M165.576 120.264L25 47.7905V58.4499L154.089 125L25 191.55V202.209L165.576 129.736H325V120.264H165.576ZM61.4675 152.473V142.219C72.2244 142.219 78.9769 131.296 78.9769 122.707C78.9769 114.119 71.9725 105.612 62.385 105.612C52.7956 105.612 47.2925 114.536 47.2925 121.206C47.2925 127.876 52.9637 134.631 62.0506 134.631C71.14 134.631 75.4762 126.543 75.4762 122.707C76.8919 136.216 64.385 139.216 61.05 139.216C57.715 139.216 40.7887 137.549 40.7887 119.539C40.7887 101.528 58.0494 97.5268 63.635 97.5268C69.2212 97.5268 87.9006 101.611 87.9006 123.626C87.9006 145.637 70.3906 152.473 61.4675 152.473ZM54.1819 129.211L53.65 128.867L53.6503 128.867L53.65 128.867C54.0079 128.281 54.3672 127.715 54.7269 127.168C54.5686 126.827 53.5165 124.435 54.59 123.332C55.6638 122.229 55.2827 125.896 55.2224 126.428C55.3836 126.191 55.5448 125.958 55.7059 125.729C55.6186 125.345 54.9902 122.442 55.8081 121.799C56.6844 121.113 56.245 124.959 56.245 124.959L56.4988 124.63C56.5912 124.506 56.6835 124.382 56.7758 124.26C56.7422 124.064 56.2432 121.062 57.0581 120.486C57.8814 119.908 57.3995 123.306 57.3742 123.482C57.58 123.219 57.7853 122.962 57.9899 122.712C57.9319 122.292 57.613 119.678 58.5594 119.019C59.5453 118.331 58.7634 121.574 58.6898 121.872C58.9169 121.606 59.1428 121.347 59.3674 121.095C59.3305 120.718 59.1293 118.312 59.9362 117.734C60.1344 117.593 60.2492 117.65 60.3082 117.824C60.3972 117.76 60.5628 117.742 60.7694 117.753C60.7849 117.663 60.8028 117.575 60.8231 117.488C59.9083 117.405 58.8214 117.206 58.5938 116.736C58.1888 115.891 60.9719 116.609 60.9719 116.609L60.2831 116.047C60.2831 116.047 57.5 116.108 57.1263 115.454C56.7621 114.817 59.4244 115.442 59.5872 115.481C59.5643 115.464 59.5414 115.446 59.5184 115.428L58.9381 115.014C58.9381 115.014 56.1256 115.171 55.7812 114.453C55.4427 113.745 58.1863 114.488 58.2789 114.514C58.2665 114.505 58.2541 114.496 58.2418 114.487L57.595 114.046C57.595 114.046 53.3425 113.608 53.6863 112.92C54.0306 112.231 56.875 113.577 56.875 113.577L56.0938 113.139C56.0938 113.139 53.7475 112.046 54.2162 111.294C54.6875 110.544 56.03 112.983 56.03 112.983L56.0601 113.001C56.2605 113.11 56.4984 113.242 56.7703 113.4C56.5024 113.079 55.1109 111.372 55.8738 111.514C56.6627 111.66 57.6151 113.714 57.738 113.986C57.9202 114.102 58.1111 114.225 58.3101 114.357C57.9819 113.877 56.5759 111.765 57.4075 112.014C58.2959 112.28 58.989 114.624 59.0591 114.869C59.2589 115.01 59.4649 115.158 59.6767 115.314C59.4208 114.879 58.1965 112.734 59.0969 113.015C60.0282 113.306 60.3903 115.586 60.4347 115.89C60.643 116.052 60.8558 116.222 61.0729 116.399C60.9005 115.999 59.855 113.506 60.6906 113.764C61.5191 114.021 61.7735 116.579 61.8111 117.016C61.9032 117.095 61.9958 117.176 62.0891 117.257C62.1057 117.08 62.1297 116.893 62.1641 116.708C61.9052 115.908 61.7077 114.965 62.3463 115.266C62.4646 115.322 62.5678 115.403 62.6579 115.504C62.7477 115.403 62.8507 115.322 62.9688 115.266C63.6063 114.966 63.4105 115.905 63.1522 116.704C63.1871 116.89 63.2113 117.077 63.228 117.256C63.3215 117.174 63.4143 117.094 63.5065 117.015C63.5442 116.573 63.7971 114.021 64.6263 113.764C65.4606 113.506 64.4132 116.002 64.2418 116.399C64.4589 116.222 64.6719 116.053 64.8803 115.89C64.9243 115.588 65.2865 113.307 66.2206 113.015C67.1191 112.734 65.9018 114.87 65.6424 115.312C65.8539 115.156 66.0595 115.008 66.2589 114.867C66.3318 114.612 67.0214 112.28 67.9075 112.014C68.7413 111.765 67.3335 113.877 67.0049 114.357C67.2049 114.225 67.3966 114.101 67.5796 113.985C67.7053 113.706 68.6538 111.659 69.4406 111.514C70.2045 111.372 68.8213 113.07 68.5486 113.398C68.8183 113.241 69.0545 113.11 69.2536 113.002L69.2844 112.983C69.2844 112.983 70.63 110.544 71.0988 111.294C71.5675 112.046 69.2213 113.139 69.2213 113.139L68.44 113.577C68.44 113.577 71.2869 112.231 71.6306 112.92C71.9725 113.608 67.7219 114.046 67.7219 114.046L67.0585 114.497L67.0354 114.514C67.1123 114.493 69.8733 113.743 69.5338 114.453C69.1919 115.171 66.3769 115.014 66.3769 115.014L65.7905 115.433L65.7272 115.481C65.8842 115.444 68.5534 114.817 68.1906 115.454C67.815 116.108 65.0319 116.047 65.0319 116.047L64.3456 116.609C64.3456 116.609 67.1263 115.891 66.7213 116.736C66.4934 117.207 65.4062 117.405 64.4917 117.489C64.5121 117.575 64.5299 117.663 64.5455 117.753C64.7526 117.741 64.9186 117.76 65.0076 117.824C65.0668 117.65 65.1819 117.593 65.3806 117.734C66.1852 118.312 65.9848 120.715 65.9477 121.094C66.1722 121.346 66.398 121.605 66.6249 121.871C66.5497 121.566 65.7735 118.332 66.7556 119.019C67.7057 119.679 67.3846 122.299 67.3273 122.713C67.5321 122.965 67.7377 123.222 67.9438 123.484C67.9238 123.348 67.4286 119.904 68.2569 120.486C69.0733 121.061 68.5741 124.057 68.5394 124.259C68.636 124.387 68.7328 124.517 68.8296 124.648L69.07 124.959C69.07 124.959 68.6331 121.113 69.5069 121.799C70.3263 122.443 69.6962 125.356 69.6111 125.731C69.7725 125.961 69.934 126.195 70.0955 126.432C70.0367 125.914 69.6511 122.226 70.7275 123.332C71.8031 124.437 70.7448 126.836 70.5896 127.17C70.9489 127.716 71.3076 128.282 71.665 128.867L71.6647 128.867L71.665 128.867L71.1331 129.211C71.1331 129.211 70.9249 128.736 70.4765 127.922C70.1208 127.837 66.8818 127.039 66.9119 126.24C66.9431 125.396 70.0075 127.146 70.0075 127.146L69.6019 126.521C69.6019 126.521 66.4431 125.803 66.1619 124.802C65.8959 123.853 68.8583 125.574 69.1683 125.756C69.1208 125.683 69.0724 125.61 69.0231 125.536L68.6937 125.083C68.6937 125.083 65.6931 124.114 65.41 123.208C65.1593 122.397 67.3785 123.607 67.8553 123.875C67.708 123.676 67.5553 123.475 67.3972 123.269L67.3194 123.176C67.3194 123.176 64.2556 122.456 63.8156 121.394C63.3787 120.329 66.5062 122.207 66.5062 122.207L65.5981 121.113C65.5981 121.113 63.7034 120.904 62.6575 120.134C61.6116 120.904 59.7169 121.113 59.7169 121.113L58.8112 122.207C58.8112 122.207 61.9362 120.329 61.4987 121.394C61.0619 122.456 57.9981 123.176 57.9981 123.176L57.8866 123.31C57.7389 123.502 57.596 123.691 57.4579 123.877C57.9251 123.615 60.1564 122.394 59.905 123.208C59.6237 124.114 56.6213 125.083 56.6213 125.083L56.2915 125.536C56.2423 125.61 56.194 125.683 56.1467 125.756C56.4564 125.574 59.4215 123.853 59.1531 124.802C58.8719 125.803 55.7156 126.521 55.7156 126.521L55.3075 127.146C55.3075 127.146 58.3719 125.396 58.4031 126.24C58.4333 127.039 55.1942 127.837 54.8385 127.922C54.3901 128.736 54.1819 129.211 54.1819 129.211ZM62.6578 119.495C62.4254 119.471 62.255 119.486 62.2138 119.569C61.5915 119.7 60.8536 119.942 60.7342 119.982C60.8217 119.89 60.9103 119.797 60.9998 119.704L61.4675 119.236C61.4675 119.236 62.001 119.171 62.6579 119.044C63.3144 119.171 63.8475 119.236 63.8475 119.236L64.2745 119.662C64.3775 119.769 64.4792 119.875 64.5797 119.981C64.4513 119.938 63.7192 119.699 63.1012 119.569C63.06 119.486 62.8898 119.471 62.6578 119.495ZM62.6586 118.175C62.6336 118.167 62.6073 118.159 62.5798 118.151C62.6056 118.127 62.6314 118.103 62.6574 118.079L62.7353 118.151L62.7356 118.151C62.7087 118.16 62.683 118.168 62.6586 118.175ZM62.0677 117.549C62.0584 117.718 62.0553 117.872 62.0551 117.999C61.9203 117.963 61.7786 117.927 61.6362 117.894C61.656 117.777 61.6743 117.658 61.6897 117.541C61.8548 117.546 61.9861 117.548 62.0677 117.549ZM61.4616 118.756C61.4973 118.767 61.5334 118.778 61.5697 118.788C61.5195 118.837 61.4692 118.887 61.4188 118.936C61.4286 118.896 61.4435 118.835 61.4616 118.756ZM60.6887 118.455C60.5513 118.382 60.4385 118.304 60.3598 118.221C60.3703 118.937 60.1191 120.102 60.0696 120.324C60.276 120.102 60.481 119.887 60.6844 119.677C60.6769 119.554 60.6501 119.041 60.6887 118.455ZM65.2451 120.323C65.195 120.098 64.9447 118.936 64.9557 118.221C64.877 118.304 64.764 118.383 64.6262 118.456C64.6648 119.04 64.6382 119.552 64.6306 119.676C64.8339 119.886 65.0388 120.101 65.2451 120.323ZM63.8992 118.938C63.8894 118.899 63.8743 118.836 63.8558 118.756C63.8196 118.767 63.783 118.778 63.7461 118.788C63.797 118.838 63.8481 118.888 63.8992 118.938ZM63.6811 117.894C63.6612 117.777 63.6428 117.658 63.6274 117.541C63.4625 117.546 63.3312 117.548 63.2496 117.549C63.259 117.718 63.2622 117.872 63.2624 117.999C63.3971 117.963 63.5387 117.927 63.6811 117.894Z" fill="#FDCE12"/>
</g>
</g>
</svg>
