<svg width="350" height="250" viewBox="0 0 350 250" fill="none" xmlns="http://www.w3.org/2000/svg">
<g id="flag / asia / maldives / b">
<g id="maldives b">
<g id="red">
<path fill-rule="evenodd" clip-rule="evenodd" d="M325 225H25V25H325V225ZM275 175H75V75H275V175Z" fill="#C02537" fill-opacity="1"/>
<path d="M25 225H24V226H25V225ZM325 225V226H326V225H325ZM25 25V24H24V25H25ZM325 25H326V24H325V25ZM75 175H74V176H75V175ZM275 175V176H276V175H275ZM75 75V74H74V75H75ZM275 75H276V74H275V75ZM25 226H325V224H25V226ZM24 25V225H26V25H24ZM325 24H25V26H325V24ZM326 225V25H324V225H326ZM75 176H275V174H75V176ZM74 75V175H76V75H74ZM275 74H75V76H275V74ZM276 175V75H274V175H276Z" fill="white"/>
</g>
<g id="green">
<path fill-rule="evenodd" clip-rule="evenodd" d="M75 175H275V75H75V175ZM193.75 157.748C178.328 154.823 166.667 141.273 166.667 125C166.667 108.727 178.328 95.1775 193.75 92.252C191.725 91.868 189.636 91.667 187.5 91.667C169.09 91.667 154.167 106.591 154.167 125C154.167 143.409 169.09 158.333 187.5 158.333C189.636 158.333 191.725 158.132 193.75 157.748Z" fill="#13753D" fill-opacity="1"/>
<path d="M275 175V176H276V175H275ZM75 175H74V176H75V175ZM275 75H276V74H275V75ZM75 75V74H74V75H75ZM193.75 157.748L193.936 158.73V156.766L193.75 157.748ZM193.75 92.252L193.936 93.2345L193.936 91.2695L193.75 92.252ZM275 174H75V176H275V174ZM274 75V175H276V75H274ZM75 76H275V74H75V76ZM76 175V75H74V175H76ZM193.936 156.766C178.977 153.928 167.667 140.784 167.667 125H165.667C165.667 141.762 177.678 155.717 193.563 158.73L193.936 156.766ZM167.667 125C167.667 109.216 178.977 96.0721 193.936 93.2345L193.563 91.2695C177.678 94.2829 165.667 108.238 165.667 125H167.667ZM193.936 91.2695C191.851 90.8739 189.699 90.667 187.5 90.667V92.667C189.573 92.667 191.6 92.862 193.563 93.2345L193.936 91.2695ZM187.5 90.667C168.538 90.667 153.167 106.039 153.167 125H155.167C155.167 107.143 169.642 92.667 187.5 92.667V90.667ZM153.167 125C153.167 143.961 168.538 159.333 187.5 159.333V157.333C169.642 157.333 155.167 142.857 155.167 125H153.167ZM187.5 159.333C189.699 159.333 191.851 159.126 193.936 158.73L193.563 156.766C191.6 157.138 189.573 157.333 187.5 157.333V159.333Z" fill="white"/>
</g>
<g id="white">
<path fill-rule="evenodd" clip-rule="evenodd" d="M193.75 92.252C191.725 91.8679 189.636 91.667 187.5 91.667C169.09 91.667 154.167 106.591 154.167 125C154.167 143.409 169.09 158.333 187.5 158.333C189.636 158.333 191.725 158.132 193.75 157.748C178.328 154.823 166.667 141.273 166.667 125C166.667 108.727 178.328 95.1775 193.75 92.252Z" fill="#FFFFFE" fill-opacity="1"/>
<path d="M193.75 92.252L193.936 93.2345L193.936 91.2695L193.75 92.252ZM193.75 157.748L193.936 158.73L193.936 156.766L193.75 157.748ZM187.5 92.667C189.573 92.667 191.6 92.862 193.563 93.2345L193.936 91.2695C191.851 90.8739 189.699 90.667 187.5 90.667V92.667ZM155.167 125C155.167 107.143 169.642 92.667 187.5 92.667V90.667C168.538 90.667 153.167 106.039 153.167 125H155.167ZM187.5 157.333C169.642 157.333 155.167 142.857 155.167 125H153.167C153.167 143.961 168.538 159.333 187.5 159.333V157.333ZM193.563 156.766C191.6 157.138 189.573 157.333 187.5 157.333V159.333C189.699 159.333 191.851 159.126 193.936 158.73L193.563 156.766ZM193.936 156.766C178.977 153.928 167.667 140.784 167.667 125H165.667C165.667 141.762 177.678 155.717 193.563 158.73L193.936 156.766ZM167.667 125C167.667 109.216 178.977 96.0721 193.936 93.2345L193.563 91.2695C177.678 94.2829 165.667 108.238 165.667 125H167.667Z" fill="white"/>
</g>
</g>
</g>
</svg>
