<svg width="350" height="250" viewBox="0 0 350 250" fill="none" xmlns="http://www.w3.org/2000/svg">
<g id="flag / africa / comoros / b">
<g id="comoros b">
<g id="yellow">
<path fill-rule="evenodd" clip-rule="evenodd" d="M325 80H100L25 35H325V80Z" fill="#F7C232" fill-opacity="1"/>
<path d="M100 80L99.4855 80.8575L99.723 81H100V80ZM325 80V81H326V80H325ZM25 35V34H21.3897L24.4855 35.8575L25 35ZM325 35H326V34H325V35ZM100 81H325V79H100V81ZM100.514 79.1425L25.5145 34.1425L24.4855 35.8575L99.4855 80.8575L100.514 79.1425ZM325 34H25V36H325V34ZM326 80V35H324V80H326Z" fill="white"/>
</g>
<g id="white">
<path fill-rule="evenodd" clip-rule="evenodd" d="M100 80L175 125H325V80H100Z" fill="#FFFFFF" fill-opacity="1"/>
<path d="M175 125L174.486 125.857L174.723 126H175V125ZM100 80V79H96.3897L99.4855 80.8575L100 80ZM325 125V126H326V125H325ZM325 80H326V79H325V80ZM175.514 124.143L100.514 79.1425L99.4855 80.8575L174.486 125.857L175.514 124.143ZM175 126H325V124H175V126ZM326 125V80H324V125H326ZM325 79H100V81H325V79Z" fill="white"/>
</g>
<g id="red">
<path fill-rule="evenodd" clip-rule="evenodd" d="M100 170H325V125H175L100 170Z" fill="#BC242C" fill-opacity="1"/>
<path d="M100 170L99.4855 169.143L96.3897 171H100V170ZM325 170V171H326V170H325ZM325 125H326V124H325V125ZM175 125V124H174.723L174.486 124.143L175 125ZM100 171H325V169H100V171ZM326 170V125H324V170H326ZM325 124H175V126H325V124ZM100.514 170.857L175.514 125.857L174.486 124.143L99.4855 169.143L100.514 170.857Z" fill="white"/>
</g>
<g id="blue">
<path fill-rule="evenodd" clip-rule="evenodd" d="M100 170L25 215H325V170H100Z" fill="#426AA5" fill-opacity="1"/>
<path d="M25 215L24.4855 214.143L21.3897 216H25V215ZM100 170V169H99.723L99.4855 169.143L100 170ZM325 215V216H326V215H325ZM325 170H326V169H325V170ZM25.5145 215.857L100.514 170.857L99.4855 169.143L24.4855 214.143L25.5145 215.857ZM25 216H325V214H25V216ZM326 215V170H324V215H326ZM325 169H100V171H325V169Z" fill="white"/>
</g>
<g id="green">
<path fill-rule="evenodd" clip-rule="evenodd" d="M25 215L175 125L25 35V215ZM85 85.5035C82.1055 84.8468 79.0933 84.5 76 84.5C53.632 84.5 35.5 102.632 35.5 125C35.5 147.368 53.632 165.5 76 165.5C79.0933 165.5 82.1055 165.153 85 164.496C66.9638 160.404 53.5 144.275 53.5 125C53.5 105.725 66.9638 89.5959 85 85.5035ZM77.867 93.695H83.317L85 88.512L86.683 93.695H92.133L87.725 96.898L89.408 102.08L85 98.877L80.592 102.08L82.275 96.898L77.867 93.695ZM85 107.838L83.317 113.02H77.867L82.275 116.222L80.592 121.405L85 118.202L89.408 121.405L87.725 116.222L92.133 113.02H86.683L85 107.838ZM83.317 132.345L85 127.162L86.683 132.345H92.133L87.725 135.547L89.408 140.73L85 137.527L80.592 140.73L82.275 135.547L77.867 132.345H83.317ZM85 146.488L83.317 151.67H77.867L82.275 154.872L80.592 160.055L85 156.853L89.408 160.055L87.725 154.872L92.133 151.67H86.683L85 146.488Z" fill="#3C8640" fill-opacity="1"/>
<path d="M175 125L175.514 125.857L176.944 125L175.514 124.143L175 125ZM25 215H24V216.766L25.5145 215.857L25 215ZM25 35L25.5145 34.1425L24 33.2338V35H25ZM85 85.5035L85.2213 86.4787V84.5283L85 85.5035ZM85 164.496L85.2213 165.472L85.2213 163.521L85 164.496ZM83.317 93.695V94.695H84.0437L84.2681 94.0038L83.317 93.695ZM77.867 93.695V92.695H74.7896L77.2792 94.504L77.867 93.695ZM85 88.512L85.9511 88.2032L85 85.2741L84.0489 88.2032L85 88.512ZM86.683 93.695L85.7319 94.0038L85.9563 94.695H86.683V93.695ZM92.133 93.695L92.7208 94.504L95.2104 92.695H92.133V93.695ZM87.725 96.898L87.1372 96.089L86.5495 96.516L86.7739 97.2069L87.725 96.898ZM89.408 102.08L88.8202 102.889L91.3097 104.698L90.3591 101.771L89.408 102.08ZM85 98.877L85.5878 98.068L85 97.6409L84.4122 98.068L85 98.877ZM80.592 102.08L79.6409 101.771L78.6903 104.698L81.1798 102.889L80.592 102.08ZM82.275 96.898L83.2261 97.2069L83.4505 96.516L82.8628 96.089L82.275 96.898ZM83.317 113.02V114.02H84.0436L84.2681 113.329L83.317 113.02ZM85 107.838L85.9511 107.529L85 104.601L84.0489 107.529L85 107.838ZM77.867 113.02V112.02H74.7889L77.2793 113.829L77.867 113.02ZM82.275 116.222L83.2261 116.531L83.4505 115.84L82.8627 115.413L82.275 116.222ZM80.592 121.405L79.6409 121.096L78.6906 124.023L81.1798 122.214L80.592 121.405ZM85 118.202L85.5878 117.393L85 116.966L84.4122 117.393L85 118.202ZM89.408 121.405L88.8202 122.214L91.3094 124.023L90.3591 121.096L89.408 121.405ZM87.725 116.222L87.1373 115.413L86.5495 115.84L86.7739 116.531L87.725 116.222ZM92.133 113.02L92.7207 113.829L95.2112 112.02H92.133V113.02ZM86.683 113.02L85.7319 113.329L85.9564 114.02H86.683V113.02ZM85 127.162L85.9511 126.853L85 123.924L84.0489 126.853L85 127.162ZM83.317 132.345V133.345H84.0437L84.2681 132.654L83.317 132.345ZM86.683 132.345L85.7319 132.654L85.9563 133.345H86.683V132.345ZM92.133 132.345L92.7207 133.154L95.2112 131.345H92.133V132.345ZM87.725 135.547L87.1373 134.738L86.5495 135.165L86.7739 135.856L87.725 135.547ZM89.408 140.73L88.8202 141.539L91.3094 143.348L90.3591 140.421L89.408 140.73ZM85 137.527L85.5878 136.718L85 136.291L84.4122 136.718L85 137.527ZM80.592 140.73L79.6409 140.421L78.6906 143.348L81.1798 141.539L80.592 140.73ZM82.275 135.547L83.2261 135.856L83.4505 135.165L82.8627 134.738L82.275 135.547ZM77.867 132.345V131.345H74.7889L77.2793 133.154L77.867 132.345ZM83.317 151.67V152.67H84.0436L84.2681 151.979L83.317 151.67ZM85 146.488L85.9511 146.179L85 143.251L84.0489 146.179L85 146.488ZM77.867 151.67V150.67H74.7889L77.2793 152.479L77.867 151.67ZM82.275 154.872L83.2261 155.181L83.4505 154.49L82.8627 154.063L82.275 154.872ZM80.592 160.055L79.6409 159.746L78.6908 162.672L81.1797 160.864L80.592 160.055ZM85 156.853L85.5877 156.044L85 155.617L84.4123 156.044L85 156.853ZM89.408 160.055L88.8203 160.864L91.3092 162.672L90.3591 159.746L89.408 160.055ZM87.725 154.872L87.1373 154.063L86.5495 154.49L86.7739 155.181L87.725 154.872ZM92.133 151.67L92.7207 152.479L95.2112 150.67H92.133V151.67ZM86.683 151.67L85.7319 151.979L85.9564 152.67H86.683V151.67ZM174.486 124.143L24.4855 214.143L25.5145 215.857L175.514 125.857L174.486 124.143ZM24.4855 35.8575L174.486 125.857L175.514 124.143L25.5145 34.1425L24.4855 35.8575ZM26 215V35H24V215H26ZM76 85.5C79.0183 85.5 81.9563 85.8383 84.7787 86.4787L85.2213 84.5283C82.2547 83.8552 79.1682 83.5 76 83.5V85.5ZM36.5 125C36.5 103.184 54.1843 85.5 76 85.5V83.5C53.0797 83.5 34.5 102.08 34.5 125H36.5ZM76 164.5C54.1843 164.5 36.5 146.816 36.5 125H34.5C34.5 147.92 53.0797 166.5 76 166.5V164.5ZM84.7787 163.521C81.9563 164.162 79.0183 164.5 76 164.5V166.5C79.1682 166.5 82.2547 166.145 85.2213 165.472L84.7787 163.521ZM52.5 125C52.5 144.752 66.2971 161.278 84.7787 165.472L85.2213 163.521C67.6306 159.53 54.5 143.798 54.5 125H52.5ZM84.7787 84.5283C66.2971 88.7218 52.5 105.248 52.5 125H54.5C54.5 106.202 67.6306 90.4701 85.2213 86.4787L84.7787 84.5283ZM83.317 92.695H77.867V94.695H83.317V92.695ZM84.0489 88.2032L82.3659 93.3862L84.2681 94.0038L85.9511 88.8208L84.0489 88.2032ZM87.6341 93.3862L85.9511 88.2032L84.0489 88.8208L85.7319 94.0038L87.6341 93.3862ZM92.133 92.695H86.683V94.695H92.133V92.695ZM88.3128 97.707L92.7208 94.504L91.5452 92.886L87.1372 96.089L88.3128 97.707ZM90.3591 101.771L88.6761 96.5891L86.7739 97.2069L88.4569 102.389L90.3591 101.771ZM84.4122 99.686L88.8202 102.889L89.9958 101.271L85.5878 98.068L84.4122 99.686ZM81.1798 102.889L85.5878 99.686L84.4122 98.068L80.0042 101.271L81.1798 102.889ZM81.3239 96.5891L79.6409 101.771L81.5431 102.389L83.2261 97.2069L81.3239 96.5891ZM77.2792 94.504L81.6872 97.707L82.8628 96.089L78.4548 92.886L77.2792 94.504ZM84.2681 113.329L85.9511 108.147L84.0489 107.529L82.3659 112.711L84.2681 113.329ZM77.867 114.02H83.317V112.02H77.867V114.02ZM82.8627 115.413L78.4547 112.211L77.2793 113.829L81.6873 117.031L82.8627 115.413ZM81.5431 121.714L83.2261 116.531L81.3239 115.913L79.6409 121.096L81.5431 121.714ZM84.4122 117.393L80.0042 120.596L81.1798 122.214L85.5878 119.011L84.4122 117.393ZM89.9958 120.596L85.5878 117.393L84.4122 119.011L88.8202 122.214L89.9958 120.596ZM86.7739 116.531L88.4569 121.714L90.3591 121.096L88.6761 115.913L86.7739 116.531ZM91.5453 112.211L87.1373 115.413L88.3127 117.031L92.7207 113.829L91.5453 112.211ZM86.683 114.02H92.133V112.02H86.683V114.02ZM84.0489 108.147L85.7319 113.329L87.6341 112.711L85.9511 107.529L84.0489 108.147ZM84.0489 126.853L82.3659 132.036L84.2681 132.654L85.9511 127.471L84.0489 126.853ZM87.6341 132.036L85.9511 126.853L84.0489 127.471L85.7319 132.654L87.6341 132.036ZM92.133 131.345H86.683V133.345H92.133V131.345ZM88.3127 136.356L92.7207 133.154L91.5453 131.536L87.1373 134.738L88.3127 136.356ZM90.3591 140.421L88.6761 135.238L86.7739 135.856L88.4569 141.039L90.3591 140.421ZM84.4122 138.336L88.8202 141.539L89.9958 139.921L85.5878 136.718L84.4122 138.336ZM81.1798 141.539L85.5878 138.336L84.4122 136.718L80.0042 139.921L81.1798 141.539ZM81.3239 135.238L79.6409 140.421L81.5431 141.039L83.2261 135.856L81.3239 135.238ZM77.2793 133.154L81.6873 136.356L82.8627 134.738L78.4547 131.536L77.2793 133.154ZM83.317 131.345H77.867V133.345H83.317V131.345ZM84.2681 151.979L85.9511 146.797L84.0489 146.179L82.3659 151.361L84.2681 151.979ZM77.867 152.67H83.317V150.67H77.867V152.67ZM82.8627 154.063L78.4547 150.861L77.2793 152.479L81.6873 155.681L82.8627 154.063ZM81.5431 160.364L83.2261 155.181L81.3239 154.563L79.6409 159.746L81.5431 160.364ZM84.4123 156.044L80.0043 159.246L81.1797 160.864L85.5877 157.662L84.4123 156.044ZM89.9957 159.246L85.5877 156.044L84.4123 157.662L88.8203 160.864L89.9957 159.246ZM86.7739 155.181L88.4569 160.364L90.3591 159.746L88.6761 154.563L86.7739 155.181ZM91.5453 150.861L87.1373 154.063L88.3127 155.681L92.7207 152.479L91.5453 150.861ZM86.683 152.67H92.133V150.67H86.683V152.67ZM84.0489 146.797L85.7319 151.979L87.6341 151.361L85.9511 146.179L84.0489 146.797Z" fill="white"/>
</g>
<g id="white_2">
<path fill-rule="evenodd" clip-rule="evenodd" d="M85 85.5035C82.1055 84.8468 79.0933 84.5 76 84.5C53.632 84.5 35.5 102.632 35.5 125C35.5 147.368 53.632 165.5 76 165.5C79.0933 165.5 82.1055 165.153 85 164.496C66.9638 160.404 53.5 144.275 53.5 125C53.5 105.725 66.9638 89.5959 85 85.5035ZM77.867 93.695H83.317L85 88.512L86.683 93.695H92.133L87.725 96.898L89.408 102.08L85 98.877L80.592 102.08L82.275 96.898L77.867 93.695ZM85 107.838L83.317 113.02H77.867L82.275 116.222L80.592 121.405L85 118.202L89.408 121.405L87.725 116.222L92.133 113.02H86.683L85 107.838ZM83.317 132.345L85 127.162L86.683 132.345H92.133L87.725 135.547L89.408 140.73L85 137.527L80.592 140.73L82.275 135.547L77.867 132.345H83.317ZM85 146.488L83.317 151.67H77.867L82.275 154.872L80.592 160.055L85 156.853L89.408 160.055L87.725 154.872L92.133 151.67H86.683L85 146.488Z" fill="white" fill-opacity="0.5"/>
<path d="M85 85.5035L85.2213 86.4787V84.5283L85 85.5035ZM85 164.496L85.2213 165.472V163.521L85 164.496ZM83.317 93.695V94.695H84.0437L84.2681 94.0038L83.317 93.695ZM77.867 93.695V92.695H74.7896L77.2792 94.504L77.867 93.695ZM85 88.512L85.9511 88.2032L85 85.2741L84.0489 88.2032L85 88.512ZM86.683 93.695L85.7319 94.0038L85.9563 94.695H86.683V93.695ZM92.133 93.695L92.7208 94.504L95.2104 92.695H92.133V93.695ZM87.725 96.898L87.1372 96.089L86.5495 96.516L86.7739 97.2069L87.725 96.898ZM89.408 102.08L88.8202 102.889L91.3097 104.698L90.3591 101.771L89.408 102.08ZM85 98.877L85.5878 98.068L85 97.6409L84.4122 98.068L85 98.877ZM80.592 102.08L79.6409 101.771L78.6903 104.698L81.1798 102.889L80.592 102.08ZM82.275 96.898L83.2261 97.2069L83.4505 96.516L82.8628 96.089L82.275 96.898ZM83.317 113.02V114.02H84.0436L84.2681 113.329L83.317 113.02ZM85 107.838L85.9511 107.529L85 104.601L84.0489 107.529L85 107.838ZM77.867 113.02V112.02H74.7888L77.2793 113.829L77.867 113.02ZM82.275 116.222L83.2261 116.531L83.4505 115.84L82.8627 115.413L82.275 116.222ZM80.592 121.405L79.6409 121.096L78.6906 124.023L81.1798 122.214L80.592 121.405ZM85 118.202L85.5878 117.393L85 116.966L84.4122 117.393L85 118.202ZM89.408 121.405L88.8202 122.214L91.3094 124.023L90.3591 121.096L89.408 121.405ZM87.725 116.222L87.1373 115.413L86.5495 115.84L86.7739 116.531L87.725 116.222ZM92.133 113.02L92.7207 113.829L95.2112 112.02H92.133V113.02ZM86.683 113.02L85.7319 113.329L85.9564 114.02H86.683V113.02ZM85 127.162L85.9511 126.853L85 123.924L84.0489 126.853L85 127.162ZM83.317 132.345V133.345H84.0437L84.2681 132.654L83.317 132.345ZM86.683 132.345L85.7319 132.654L85.9563 133.345H86.683V132.345ZM92.133 132.345L92.7207 133.154L95.2112 131.345H92.133V132.345ZM87.725 135.547L87.1373 134.738L86.5495 135.165L86.7739 135.856L87.725 135.547ZM89.408 140.73L88.8202 141.539L91.3094 143.348L90.3591 140.421L89.408 140.73ZM85 137.527L85.5878 136.718L85 136.291L84.4122 136.718L85 137.527ZM80.592 140.73L79.6409 140.421L78.6906 143.348L81.1798 141.539L80.592 140.73ZM82.275 135.547L83.2261 135.856L83.4505 135.165L82.8627 134.738L82.275 135.547ZM77.867 132.345V131.345H74.7888L77.2793 133.154L77.867 132.345ZM83.317 151.67V152.67H84.0436L84.2681 151.979L83.317 151.67ZM85 146.488L85.9511 146.179L85 143.251L84.0489 146.179L85 146.488ZM77.867 151.67V150.67H74.7889L77.2793 152.479L77.867 151.67ZM82.275 154.872L83.2261 155.181L83.4505 154.49L82.8627 154.063L82.275 154.872ZM80.592 160.055L79.6409 159.746L78.6908 162.672L81.1797 160.864L80.592 160.055ZM85 156.853L85.5877 156.044L85 155.617L84.4123 156.044L85 156.853ZM89.408 160.055L88.8203 160.864L91.3092 162.672L90.3591 159.746L89.408 160.055ZM87.725 154.872L87.1373 154.063L86.5495 154.49L86.7739 155.181L87.725 154.872ZM92.133 151.67L92.7207 152.479L95.2111 150.67H92.133V151.67ZM86.683 151.67L85.7319 151.979L85.9564 152.67H86.683V151.67ZM76 85.5C79.0183 85.5 81.9563 85.8383 84.7787 86.4787L85.2213 84.5283C82.2547 83.8552 79.1682 83.5 76 83.5V85.5ZM36.5 125C36.5 103.184 54.1843 85.5 76 85.5V83.5C53.0797 83.5 34.5 102.08 34.5 125H36.5ZM76 164.5C54.1843 164.5 36.5 146.816 36.5 125H34.5C34.5 147.92 53.0797 166.5 76 166.5V164.5ZM84.7787 163.521C81.9563 164.162 79.0183 164.5 76 164.5V166.5C79.1682 166.5 82.2547 166.145 85.2213 165.472L84.7787 163.521ZM52.5 125C52.5 144.752 66.2971 161.278 84.7787 165.472L85.2213 163.521C67.6306 159.53 54.5 143.798 54.5 125H52.5ZM84.7787 84.5283C66.2971 88.7218 52.5 105.248 52.5 125H54.5C54.5 106.202 67.6306 90.4701 85.2213 86.4787L84.7787 84.5283ZM83.317 92.695H77.867V94.695H83.317V92.695ZM84.0489 88.2032L82.3659 93.3862L84.2681 94.0038L85.9511 88.8208L84.0489 88.2032ZM87.6341 93.3862L85.9511 88.2032L84.0489 88.8208L85.7319 94.0038L87.6341 93.3862ZM92.133 92.695H86.683V94.695H92.133V92.695ZM88.3128 97.707L92.7208 94.504L91.5452 92.886L87.1372 96.089L88.3128 97.707ZM90.3591 101.771L88.6761 96.5891L86.7739 97.2069L88.4569 102.389L90.3591 101.771ZM84.4122 99.686L88.8202 102.889L89.9958 101.271L85.5878 98.068L84.4122 99.686ZM81.1798 102.889L85.5878 99.686L84.4122 98.068L80.0042 101.271L81.1798 102.889ZM81.3239 96.5891L79.6409 101.771L81.5431 102.389L83.2261 97.2069L81.3239 96.5891ZM77.2792 94.504L81.6872 97.707L82.8628 96.089L78.4548 92.886L77.2792 94.504ZM84.2681 113.329L85.9511 108.147L84.0489 107.529L82.3659 112.711L84.2681 113.329ZM77.867 114.02H83.317V112.02H77.867V114.02ZM82.8627 115.413L78.4547 112.211L77.2793 113.829L81.6873 117.031L82.8627 115.413ZM81.5431 121.714L83.2261 116.531L81.3239 115.913L79.6409 121.096L81.5431 121.714ZM84.4122 117.393L80.0042 120.596L81.1798 122.214L85.5878 119.011L84.4122 117.393ZM89.9958 120.596L85.5878 117.393L84.4122 119.011L88.8202 122.214L89.9958 120.596ZM86.7739 116.531L88.4569 121.714L90.3591 121.096L88.6761 115.913L86.7739 116.531ZM91.5453 112.211L87.1373 115.413L88.3127 117.031L92.7207 113.829L91.5453 112.211ZM86.683 114.02H92.133V112.02H86.683V114.02ZM84.0489 108.147L85.7319 113.329L87.6341 112.711L85.9511 107.529L84.0489 108.147ZM84.0489 126.853L82.3659 132.036L84.2681 132.654L85.9511 127.471L84.0489 126.853ZM87.6341 132.036L85.9511 126.853L84.0489 127.471L85.7319 132.654L87.6341 132.036ZM92.133 131.345H86.683V133.345H92.133V131.345ZM88.3127 136.356L92.7207 133.154L91.5453 131.536L87.1373 134.738L88.3127 136.356ZM90.3591 140.421L88.6761 135.238L86.7739 135.856L88.4569 141.039L90.3591 140.421ZM84.4122 138.336L88.8202 141.539L89.9958 139.921L85.5878 136.718L84.4122 138.336ZM81.1798 141.539L85.5878 138.336L84.4122 136.718L80.0042 139.921L81.1798 141.539ZM81.3239 135.238L79.6409 140.421L81.5431 141.039L83.2261 135.856L81.3239 135.238ZM77.2793 133.154L81.6873 136.356L82.8627 134.738L78.4547 131.536L77.2793 133.154ZM83.317 131.345H77.867V133.345H83.317V131.345ZM84.2681 151.979L85.9511 146.797L84.0489 146.179L82.3659 151.361L84.2681 151.979ZM77.867 152.67H83.317V150.67H77.867V152.67ZM82.8627 154.063L78.4547 150.861L77.2793 152.479L81.6873 155.681L82.8627 154.063ZM81.5431 160.364L83.2261 155.181L81.3239 154.563L79.6409 159.746L81.5431 160.364ZM84.4123 156.044L80.0043 159.246L81.1797 160.864L85.5877 157.662L84.4123 156.044ZM89.9957 159.246L85.5877 156.044L84.4123 157.662L88.8203 160.864L89.9957 159.246ZM86.7739 155.181L88.4569 160.364L90.3591 159.746L88.6761 154.563L86.7739 155.181ZM91.5453 150.861L87.1373 154.063L88.3127 155.681L92.7207 152.479L91.5453 150.861ZM86.683 152.67H92.133V150.67H86.683V152.67ZM84.0489 146.797L85.7319 151.979L87.6341 151.361L85.9511 146.179L84.0489 146.797Z" fill="white"/>
</g>
</g>
</g>
</svg>
